#N canvas 0 30 798 411 10;
#X obj 51 26 inlet;
#X obj 389 43 inlet;
#X obj 99 449 outlet;
#X obj 120 156 sgSerialize;
#X obj 140 130 s \$0-Init;
#X obj 120 179 t b a;
#X obj 125 209 r \$0-Init;
#X msg 125 230 0;
#X obj 103 380 route bang;
#X obj 293 444 outlet;
#X text 291 467 not found;
#X text 88 470 list of indices matching;
#X obj 94 86 list;
#X obj 97 107 t b l b;
#X obj 78 255 sgCounter -1 1;
#X text 385 24 element to find;
#X obj 251 219 sgIsEqual;
#X obj 25 330 sgList;
#X obj 105 318 r \$0-Init;
#X msg 105 339 clear;
#X obj 131 284 sgGate 0;
#X obj 389 67 sgAnyBang \$1;
#X connect 0 0 12 0;
#X connect 1 0 21 0;
#X connect 3 0 5 0;
#X connect 5 0 14 0;
#X connect 5 1 16 0;
#X connect 6 0 7 0;
#X connect 7 0 14 0;
#X connect 8 0 9 0;
#X connect 8 1 2 0;
#X connect 12 0 13 0;
#X connect 13 0 17 0;
#X connect 13 1 3 0;
#X connect 13 2 4 0;
#X connect 14 0 20 0;
#X connect 16 0 20 1;
#X connect 17 0 8 0;
#X connect 18 0 19 0;
#X connect 19 0 17 1;
#X connect 20 0 17 1;
#X connect 21 0 16 1;
