#N canvas 0 30 846 854 10;
#X obj 51 26 inlet;
#X obj 389 43 inlet;
#X obj 99 449 outlet;
#X obj 156 110 s \$0-Init;
#X obj 271 333 r \$0-Init;
#X msg 271 354 0;
#X obj 96 71 list;
#X obj 97 97 t b l b;
#X text 385 24 element to find;
#X obj 178 237 sgIsEqual;
#X obj 389 67 sgAnyBang \$1;
#X obj 124 198 sgListPop;
#X obj 122 169 until;
#X obj 178 260 t b f;
#X obj 178 285 sgGate;
#X obj 178 308 t b b;
#X obj 105 392 f 0;
#X msg 215 337 1;
#X obj 137 143 t b l;
#X connect 0 0 6 0;
#X connect 1 0 10 0;
#X connect 4 0 5 0;
#X connect 5 0 16 1;
#X connect 6 0 7 0;
#X connect 7 0 16 0;
#X connect 7 1 18 0;
#X connect 7 2 3 0;
#X connect 9 0 13 0;
#X connect 10 0 9 1;
#X connect 11 0 12 1;
#X connect 11 1 9 0;
#X connect 12 0 11 0;
#X connect 13 0 14 0;
#X connect 13 1 14 1;
#X connect 14 0 15 0;
#X connect 15 0 17 0;
#X connect 15 1 12 1;
#X connect 16 0 2 0;
#X connect 17 0 16 1;
#X connect 18 0 12 0;
#X connect 18 1 11 1;
