#N canvas 0 30 990 411 10;
#X obj 32 25 inlet;
#X obj 300 32 inlet;
#X obj 53 120 list split;
#X obj 40 259 outlet;
#X obj 79 178 list split 1;
#X text 30 276 elemnt with the index;
#X obj 300 65 sgFloatBang \$1;
#X connect 0 0 2 0;
#X connect 1 0 6 0;
#X connect 2 1 4 0;
#X connect 4 0 3 0;
#X connect 6 0 2 1;
