#N canvas 0 30 990 411 10;
#X obj 306 201 t l;
#X obj 105 195 list;
#X obj 200 106 t b b;
#X obj 92 49 inlet;
#X obj 200 58 inlet;
#X obj 200 82 route clear;
#X obj 30 241 outlet;
#X text 197 28 stream of sgPacks;
#X text 86 30 bang to output;
#X text 198 41 clear to clear;
#X obj 263 106 t a;
#X obj 178 170 list append;
#X connect 0 0 11 1;
#X connect 1 0 6 0;
#X connect 2 0 11 0;
#X connect 2 1 11 1;
#X connect 3 0 1 0;
#X connect 4 0 5 0;
#X connect 5 0 2 0;
#X connect 5 1 10 0;
#X connect 10 0 11 0;
#X connect 11 0 0 0;
#X connect 11 0 1 1;
