#N canvas 0 30 990 411 10;
#X obj 239 11 inlet;
#X obj 366 8 inlet;
#X obj 92 544 outlet;
#X obj 143 147 until;
#X obj 170 124 r \$0-Stop;
#X obj 151 175 t b b;
#X obj 278 398 s \$0-UnEqual;
#X obj 477 317 route 0;
#X msg 250 282 1;
#X msg 135 280 1;
#X obj 277 375 route 1;
#N canvas 0 30 990 854 or 0;
#X obj 152 107 ||;
#X obj 253 101 &&;
#X obj 253 131 == 0;
#X obj 147 40 t f f;
#X obj 248 29 t f f;
#X obj 238 164 &&;
#X obj 245 -11 tgl 15 0 empty empty empty 17 7 0 10 -262144 -1 -1 0
1;
#X obj 151 -2 tgl 15 0 empty empty empty 17 7 0 10 -262144 -1 -1 0
1;
#X obj 238 205 outlet;
#X obj 300 0 inlet;
#X obj 107 -18 inlet;
#X obj 146 205 outlet;
#X text 144 231 or;
#X text 241 224 exor;
#X obj 172 137 t f f;
#X connect 0 0 14 0;
#X connect 1 0 2 0;
#X connect 2 0 5 1;
#X connect 3 0 0 0;
#X connect 3 1 1 0;
#X connect 4 0 0 1;
#X connect 4 1 1 1;
#X connect 5 0 8 0;
#X connect 6 0 4 0;
#X connect 7 0 3 0;
#X connect 9 0 4 0;
#X connect 10 0 3 0;
#X connect 14 0 11 0;
#X connect 14 1 5 0;
#X restore 220 348 pd or exor;
#X obj 477 411 s \$0-Stop;
#X obj 477 338 t b b;
#X obj 220 373 route 1;
#X obj 92 522 f;
#X msg 112 501 0;
#X obj 91 100 t b b b;
#X obj 158 96 s \$0-Init;
#X obj 120 481 r \$0-UnEqual;
#X obj 185 510 r \$0-Init;
#X msg 185 531 1;
#X floatatom 160 558 5 0 0 0 - - -;
#X msg 477 388 bang;
#X msg 304 340 0;
#X obj 352 343 r \$0-Init;
#X obj 478 293 sgIsEqual;
#X obj 237 34 t b l;
#X obj 220 420 s \$0-Stop;
#X msg 220 397 bang;
#X obj 504 363 s \$0-UnEqual;
#X obj 155 228 sgListPop;
#X obj 292 223 sgListPop;
#X connect 0 0 27 0;
#X connect 1 0 32 1;
#X connect 3 0 5 0;
#X connect 4 0 3 1;
#X connect 5 0 31 0;
#X connect 5 1 32 0;
#X connect 7 0 13 0;
#X connect 8 0 11 1;
#X connect 9 0 11 0;
#X connect 10 0 6 0;
#X connect 11 0 14 0;
#X connect 11 1 10 0;
#X connect 13 0 23 0;
#X connect 13 1 30 0;
#X connect 14 0 29 0;
#X connect 15 0 2 0;
#X connect 16 0 15 1;
#X connect 16 0 22 0;
#X connect 17 0 15 0;
#X connect 17 1 3 0;
#X connect 17 2 18 0;
#X connect 19 0 16 0;
#X connect 20 0 21 0;
#X connect 21 0 15 1;
#X connect 21 0 22 0;
#X connect 23 0 12 0;
#X connect 24 0 11 1;
#X connect 25 0 24 0;
#X connect 26 0 7 0;
#X connect 27 0 17 0;
#X connect 27 1 31 1;
#X connect 29 0 28 0;
#X connect 31 0 9 0;
#X connect 31 1 26 0;
#X connect 32 0 8 0;
#X connect 32 1 26 1;
