#N canvas 0 30 990 411 10;
#X obj 15 15 inlet;
#X obj 260 30 inlet;
#X obj 419 265 outlet;
#X obj 94 254 outlet;
#X msg 15 36 bang;
#X obj 98 149 list split 1;
#X obj 168 104 list length;
#X obj 141 83 t l l;
#X obj 168 125 - 1;
#X obj 141 62 list;
#X obj 117 183 route bang;
#X obj 51 184 s \$0-set;
#X obj 201 70 r \$0-set;
#X connect 0 0 4 0;
#X connect 1 0 9 1;
#X connect 4 0 9 0;
#X connect 5 0 11 0;
#X connect 5 1 10 0;
#X connect 6 0 8 0;
#X connect 7 0 5 0;
#X connect 7 1 6 0;
#X connect 8 0 5 1;
#X connect 9 0 7 0;
#X connect 10 0 3 0;
#X connect 10 1 2 0;
#X connect 12 0 9 1;
