#N canvas 0 30 990 411 10;
#X obj 51 136 until;
#X obj 67 23 inlet;
#X obj 31 229 outlet;
#X text 66 5 list;
#X text 32 250 serialized messages (reverse order!);
#X obj 95 99 t b a;
#X obj 61 191 sgListPopLast;
#X connect 0 0 6 0;
#X connect 1 0 5 0;
#X connect 5 0 0 0;
#X connect 5 1 6 1;
#X connect 6 0 0 1;
#X connect 6 1 2 0;
