#N canvas 800 251 798 189 10;
#N canvas 0 30 798 854 simple 0;
#X obj 148 32 bng 15 250 50 0 empty empty empty 17 7 0 10 -262144 -1
-1;
#X obj 174 220 print;
#X obj 175 197 sdAny test;
#X msg 190 39 list bla;
#X floatatom 262 40 5 0 0 0 - - -;
#X msg 341 50 set bla;
#X msg 249 87 a b c;
#X msg 322 163 list bla;
#X floatatom 368 82 5 0 0 0 - - -;
#X msg 355 129 a b c;
#X msg 169 311 bla 3;
#X msg 83 326 list hurz;
#X floatatom 102 303 5 0 0 0 - - -;
#X obj 260 357 tgl 15 0 empty empty empty 17 7 0 10 -262144 -1 -1 0
1;
#X obj 170 444 print accept;
#X obj 269 441 print reject;
#X obj 286 505 bng 15 250 50 0 empty empty empty 17 7 0 10 -262144
-1 -1;
#X obj 301 555 print value;
#X obj 388 554 print overflow;
#X msg 314 492 0;
#X obj 302 532 sdCounter 3;
#X obj 299 714 sdFirst;
#X msg 237 662 test;
#X floatatom 192 660 5 0 0 0 - - -;
#X msg 286 642 reset;
#X msg 362 674 reset;
#X obj 407 673 bng 15 250 50 0 empty empty empty 17 7 0 10 -262144
-1 -1;
#X obj 197 697 bng 15 250 50 0 empty empty empty 17 7 0 10 -262144
-1 -1;
#X obj 252 737 print first;
#X obj 350 738 print rest;
#X obj 524 444 sdSymbolIsEq bla;
#X msg 512 398 test;
#X msg 494 320 symbol bla;
#X msg 581 313 symbol hurz;
#X msg 587 377 symbol bla;
#X msg 674 370 symbol hurz;
#X floatatom 524 467 5 0 0 0 - - -;
#X obj 569 559 sdIsEq;
#X floatatom 605 517 5 0 0 0 - - -;
#X floatatom 512 520 5 0 0 0 - - -;
#X msg 660 532 symbol bla;
#X msg 473 589 symbol bla;
#X msg 670 569 list a b c;
#X floatatom 569 582 5 0 0 0 - - -;
#X msg 466 627 symbol a;
#X obj 545 742 sdFilter 3, f 16;
#X floatatom 525 697 5 0 0 0 - - -;
#X obj 545 765 print accept;
#X obj 641 766 print reject;
#X msg 634 698 symbol bla;
#X msg 572 666 symbol bla;
#X msg 591 632 symbol hurz;
#X msg 409 794 list bla 1 2;
#X obj 208 396 sdGate 0;
#X connect 0 0 2 0;
#X connect 2 0 1 0;
#X connect 3 0 2 0;
#X connect 4 0 2 0;
#X connect 5 0 2 0;
#X connect 6 0 2 0;
#X connect 7 0 2 1;
#X connect 8 0 2 1;
#X connect 9 0 2 1;
#X connect 10 0 53 0;
#X connect 11 0 53 0;
#X connect 12 0 53 0;
#X connect 13 0 53 1;
#X connect 16 0 20 0;
#X connect 19 0 20 0;
#X connect 20 0 17 0;
#X connect 20 1 18 0;
#X connect 21 0 28 0;
#X connect 21 1 29 0;
#X connect 22 0 21 0;
#X connect 23 0 21 0;
#X connect 24 0 21 0;
#X connect 25 0 21 1;
#X connect 26 0 21 1;
#X connect 27 0 21 0;
#X connect 30 0 36 0;
#X connect 31 0 30 0;
#X connect 32 0 30 0;
#X connect 33 0 30 0;
#X connect 34 0 30 1;
#X connect 35 0 30 1;
#X connect 37 0 43 0;
#X connect 38 0 37 1;
#X connect 39 0 37 0;
#X connect 40 0 37 1;
#X connect 41 0 37 0;
#X connect 42 0 37 1;
#X connect 44 0 37 0;
#X connect 45 0 47 0;
#X connect 45 1 48 0;
#X connect 46 0 45 0;
#X connect 49 0 45 1;
#X connect 50 0 45 0;
#X connect 51 0 45 0;
#X connect 52 0 45 0;
#X connect 53 0 14 0;
#X connect 53 1 15 0;
#X restore 56 41 pd simple;
#N canvas 0 30 798 854 list 0;
#X obj 213 133 bng 15 250 50 0 empty empty empty 17 7 0 10 -262144
-1 -1;
#X obj 306 388 print;
#X msg 280 130 clear;
#X msg 264 102 prepend x y z;
#X msg 586 97 serialize;
#X msg 550 51 pop;
#X msg 237 40 list a b \, list c \, 3;
#X msg 592 51 popRev;
#X msg 658 97 serializeRev;
#X msg 660 165 get \$1;
#X floatatom 660 143 5 0 0 0 - - -;
#X msg 249 73 append 4 5 6;
#X msg 620 334 list bla bla;
#X text 529 28 output operations;
#X text 554 305 shortcut for "append ...";
#X obj 360 519 print pop;
#X msg 305 172 setAdd 1 2 3 2 1;
#X msg 319 207 equal a b c 3;
#X obj 306 365 sdList bang pop popRev serialize serializeRev get equal
;
#X obj 633 392 print equal;
#X obj 469 470 print serialize;
#X obj 578 419 print get;
#X obj 524 442 print serializeRev;
#X obj 415 495 print popRev;
#X msg 308 671 list a b c;
#X msg 178 586 list a b c;
#X obj 255 731 print;
#X obj 255 708 sdListEqual;
#X msg 404 671 list 1 2 3;
#X msg 216 612 list 1 2 3;
#X connect 0 0 18 0;
#X connect 2 0 18 0;
#X connect 3 0 18 0;
#X connect 4 0 18 0;
#X connect 5 0 18 0;
#X connect 6 0 18 0;
#X connect 7 0 18 0;
#X connect 8 0 18 0;
#X connect 9 0 18 0;
#X connect 10 0 9 0;
#X connect 11 0 18 0;
#X connect 12 0 18 1;
#X connect 16 0 18 0;
#X connect 17 0 18 0;
#X connect 18 0 1 0;
#X connect 18 1 15 0;
#X connect 18 2 23 0;
#X connect 18 3 20 0;
#X connect 18 4 22 0;
#X connect 18 5 21 0;
#X connect 18 6 19 0;
#X connect 24 0 27 1;
#X connect 25 0 27 0;
#X connect 27 0 26 0;
#X connect 28 0 27 1;
#X connect 29 0 27 0;
#X restore 56 84 pd list;
#N canvas 0 30 798 854 pack 0;
#X msg 226 97 list bla bla;
#X obj 232 134 sdPack info;
#X msg 342 110 symbol update;
#X obj 213 217 sdUnPack;
#X symbolatom 353 276 10 0 0 0 - - -;
#X floatatom 263 272 5 0 0 0 - - -;
#X obj 146 275 print content;
#X obj 232 157 t a a;
#X obj 278 185 print;
#X msg 258 372 list pack ( a b c );
#X obj 252 434 print;
#X obj 252 411 sdPackFromHuman;
#X msg 421 375 list pack ( p1 ( a ) b p2 ( c ) );
#X msg 414 430 list pack ( p1 ( a ) b p2 ( c ) ) );
#X obj 40 567 sdPack info;
#X obj 174 574 sdPack update;
#X obj 81 642 print accept;
#X obj 198 657 print reject;
#X floatatom 61 478 5 0 0 0 - - -;
#X floatatom 195 476 5 0 0 0 - - -;
#X msg 65 504 list bla \$1;
#X msg 198 503 list x \$1;
#X obj 81 619 sdPackFilter info, f 18;
#X msg 221 595 symbol info;
#X msg 224 621 symbol update;
#X obj 376 587 sdPack info;
#X obj 510 594 sdPack update;
#X obj 417 662 print accept;
#X obj 564 663 print reject;
#X floatatom 397 498 5 0 0 0 - - -;
#X floatatom 531 496 5 0 0 0 - - -;
#X msg 401 524 list bla \$1;
#X msg 534 523 list x \$1;
#X floatatom 649 495 5 0 0 0 - - -;
#X msg 652 522 list x \$1;
#X obj 417 639 sdPackFilter info update, f 25;
#X obj 503 70 sdPackToMessage;
#X msg 495 16 list bla bla;
#X obj 495 41 sdPack get;
#X obj 503 93 print;
#X obj 503 170 sdPackFromMessage;
#X msg 560 143 get bla;
#X msg 559 115 list get bla;
#X obj 503 193 print;
#X floatatom 644 141 5 0 0 0 - - -;
#X obj 665 111 bng 15 250 50 0 empty empty empty 17 7 0 10 -262144
-1 -1;
#X msg 94 163 list 3 0;
#X obj 627 593 sdPack other;
#X connect 0 0 1 0;
#X connect 1 0 7 0;
#X connect 2 0 1 1;
#X connect 3 0 6 0;
#X connect 3 1 5 0;
#X connect 3 2 4 0;
#X connect 7 0 3 0;
#X connect 7 1 8 0;
#X connect 9 0 11 0;
#X connect 11 0 10 0;
#X connect 12 0 11 0;
#X connect 13 0 11 0;
#X connect 14 0 22 0;
#X connect 15 0 22 0;
#X connect 18 0 20 0;
#X connect 19 0 21 0;
#X connect 20 0 14 0;
#X connect 21 0 15 0;
#X connect 22 0 16 0;
#X connect 22 1 17 0;
#X connect 23 0 22 1;
#X connect 24 0 22 1;
#X connect 25 0 35 0;
#X connect 26 0 35 0;
#X connect 29 0 31 0;
#X connect 30 0 32 0;
#X connect 31 0 25 0;
#X connect 32 0 26 0;
#X connect 33 0 34 0;
#X connect 34 0 47 0;
#X connect 35 0 27 0;
#X connect 35 1 28 0;
#X connect 36 0 39 0;
#X connect 37 0 38 0;
#X connect 38 0 36 0;
#X connect 40 0 43 0;
#X connect 41 0 40 0;
#X connect 42 0 40 0;
#X connect 44 0 40 0;
#X connect 45 0 40 0;
#X connect 46 0 3 0;
#X connect 47 0 35 0;
#X restore 56 122 pd pack;
#N canvas 0 30 798 854 data 0;
#X obj 54 147 sgDataSerialize;
#N canvas 0 30 798 854 example 0;
#X msg 404 173 pack1 ( bla ) \, pack2 ( blubb );
#X msg 174 93 clear;
#X obj 402 208 sgPackFromHuman;
#X obj 83 100 bng 15 250 50 0 empty empty empty 17 7 0 10 -262144 -1
-1;
#X text 61 31 accumulate sgPacks:;
#X msg 612 174 pack1 ( bla ) pack2 ( blubb );
#X msg 231 122 prepend packX 3 one two 3;
#X msg 230 94 append packX 3 one two 3;
#X msg 238 150 pop;
#X msg 283 150 popRev;
#X msg 417 130 serialize;
#X msg 493 130 serializeRev;
#X obj 194 297 print pop;
#X obj 124 248 sdData bang pop popRev serialize serializeRev, f 83
;
#X obj 265 299 print popRev;
#X obj 370 297 print serialize;
#X obj 481 300 print serializeRev;
#X obj 105 295 print bang;
#X connect 0 0 2 0;
#X connect 1 0 13 0;
#X connect 2 0 13 1;
#X connect 3 0 13 0;
#X connect 5 0 2 0;
#X connect 6 0 13 0;
#X connect 7 0 13 0;
#X connect 8 0 13 0;
#X connect 9 0 13 0;
#X connect 10 0 13 0;
#X connect 11 0 13 0;
#X connect 13 0 17 0;
#X connect 13 1 12 0;
#X connect 13 2 14 0;
#X connect 13 3 15 0;
#X connect 13 4 16 0;
#X restore 225 65 pd example;
#X text 15 16 sgData is a sequence of sgPacks;
#X text 31 45 create by accumulating sgPacks:;
#X text 34 98 divide into seperate sgPacks:;
#N canvas 800 177 798 115 example 0;
#X msg 756 199 list pack 1 test pack p1 p2;
#X obj 384 171 bng 15 250 50 0 empty empty empty 17 7 0 10 -262144
-1 -1;
#X msg 772 169 list pack 1 test pack 2 bla;
#X obj 381 279 print empty;
#X msg 498 159 list pack 1 test pack 2 p1 p2;
#X msg 498 130 bang;
#X text 784 142 wrong format produces errors:;
#X obj 139 250 print serialized;
#X msg 127 134 list pack 1 test pack 2 p1 p2;
#X obj 483 277 print head;
#X obj 577 279 print rest;
#X obj 407 215 sgDataPop;
#X obj 154 199 sgDataSerialize;
#X connect 0 0 11 1;
#X connect 1 0 11 0;
#X connect 2 0 11 1;
#X connect 4 0 11 1;
#X connect 5 0 11 1;
#X connect 8 0 12 0;
#X connect 11 0 3 0;
#X connect 11 1 9 0;
#X connect 11 2 10 0;
#X connect 12 0 7 0;
#X restore 226 129 pd example;
#X obj 54 122 sgDataPop;
#X obj 57 69 sdData;
#X restore 56 173 pd data;
#N canvas 0 30 846 854 event 0;
#X msg 189 131 bang;
#X msg 76 133 list 1 100 red;
#X text 26 106 1 from a pack by adding "type" to its parameters:;
#X obj 76 183 sdEvent dosomething time brightness color;
#X msg 364 138 list 1 100 red elephant;
#X text 349 118 too many args produce an error...:;
#X obj 131 309 sdUnEvent time color;
#X obj 76 206 t a a;
#X obj 262 233 print Event;
#X obj 217 343 print color;
#X obj 131 332 print time;
#X obj 313 342 print eventType;
#X obj 72 271 t a a;
#X msg 186 456 list volume 1 0.5;
#X obj 192 426 loadbang;
#X obj 97 505 print;
#X obj 97 482 sdEventAddParam;
#X connect 0 0 3 0;
#X connect 1 0 3 0;
#X connect 3 0 7 0;
#X connect 4 0 3 0;
#X connect 6 0 10 0;
#X connect 6 1 9 0;
#X connect 6 2 11 0;
#X connect 7 0 12 0;
#X connect 7 1 8 0;
#X connect 12 0 16 0;
#X connect 12 1 6 0;
#X connect 13 0 16 1;
#X connect 14 0 13 0;
#X connect 16 0 15 0;
#X restore 58 218 pd event;
#N canvas 800 30 798 189 objState 1;
#X obj 593 24 r \$0-fromProperties;
#X obj 493 123 print toProperties;
#X obj 452 181 s \$0-fromProperties;
#X obj 248 510 r hurz;
#X obj 248 533 print hurz;
#X obj 95 420 s \$0-obj;
#X msg 104 281 list out 1 clear;
#X msg 72 245 list out 2 add hurz;
#X msg 250 344 list get 3 out 1 dest1;
#X obj 452 75 sdObjState \$0-obj GLOBAL;
#X obj 452 153 sgProperty numProp \$0;
#X obj 452 98 t a a;
#X msg 257 277 list get 1 numProp;
#X obj 405 508 r dest1;
#X obj 405 531 print dest1;
#X obj 593 47 t a a;
#X obj 620 73 print fromProperties;
#X msg 258 305 list get 4 numProp out 1 dest1;
#X msg 259 400 list set 2 numProp \$1;
#X floatatom 262 371 5 0 0 0 - - -;
#N canvas 0 30 798 854 test 1;
#X obj 80 13 inlet;
#X obj 685 437 sgTest;
#X obj 267 180 bng 15 250 50 0 empty empty empty 17 7 0 10 -262144
-1 -1;
#X obj 63 337 s \$0-out1;
#X obj 696 363 r \$0-out1;
#X obj 707 387 r \$0-out2;
#X obj 180 336 s \$0-out2;
#X obj 685 339 r \$0-test;
#N canvas 0 30 846 854 test-get 0;
#X obj 217 472 s \$0-test;
#X obj 202 537 s \$0-test;
#X obj 180 603 s \$0-test;
#X obj 147 25 inlet;
#X obj 170 404 t a a a;
#X obj 135 108 f \$0;
#X obj 309 106 f \$0;
#X obj 147 77 t b b;
#X obj 135 344 pack s s;
#X obj 180 320 sgSymbolBang sdProp;
#X obj 308 344 pack s s;
#X obj 351 321 sgSymbolBang sgProp;
#X obj 309 131 t a a;
#X msg 339 154 \; \$1-sgProp_rcv set 0;
#X obj 134 139 t a a;
#X msg 164 162 \; \$1-sdProp_rcv set 0;
#X msg 217 436 list dest ( \$1 ) send ( list get ( \$2 ) ) expect1
( info ( \$2 ( 0 ) ) );
#X msg 202 499 list dest ( \$1 ) send ( list get ( notDefined ) ) expect2
( get ( notDefined ) );
#X msg 180 565 list dest ( \$1 ) send ( list get ( ) ) expect1 ( info
( \$2 ( 0 ) ) ) expect2 ( get ( ) );
#X obj 309 250 makefilename %d-sgProp-in;
#X obj 135 252 makefilename %d-sdProp-in;
#X connect 3 0 7 0;
#X connect 4 0 18 0;
#X connect 4 1 17 0;
#X connect 4 2 16 0;
#X connect 5 0 14 0;
#X connect 6 0 12 0;
#X connect 7 0 5 0;
#X connect 7 1 6 0;
#X connect 8 0 4 0;
#X connect 9 0 8 1;
#X connect 10 0 4 0;
#X connect 11 0 10 1;
#X connect 12 0 19 0;
#X connect 12 1 13 0;
#X connect 14 0 20 0;
#X connect 14 1 15 0;
#X connect 16 0 0 0;
#X connect 17 0 1 0;
#X connect 18 0 2 0;
#X connect 19 0 10 0;
#X connect 20 0 8 0;
#X restore 267 207 pd test-get;
#X obj 324 335 s \$0-out1;
#X obj 441 335 s \$0-out2;
#X obj 324 311 sgProperty sgProp \$0;
#N canvas 0 30 846 854 test-set 0;
#X obj 180 540 s \$0-test;
#X obj 157 85 inlet;
#X obj 135 168 f \$0;
#X obj 349 169 f \$0;
#X obj 147 137 t b b;
#X obj 136 360 pack s s;
#X obj 181 336 sgSymbolBang sdProp;
#X obj 362 347 pack s s;
#X obj 349 192 t a a;
#X obj 153 458 t a a;
#X msg 379 215 \; \$1-sgProp_rcv set 0;
#X obj 138 197 t a a;
#X msg 168 220 \; \$1-sdProp_rcv set 0;
#X obj 405 324 sgSymbolBang sgProp;
#X msg 180 504 list dest ( \$1 ) send ( list set ( \$2 50 ) ) expect1
( update ( \$2 ( 50 ) ) ) expect3 ( 50 );
#X obj 362 261 makefilename %d-sgProp-in;
#X obj 136 268 makefilename %d-sdProp-in;
#X connect 1 0 4 0;
#X connect 2 0 11 0;
#X connect 3 0 8 0;
#X connect 4 0 2 0;
#X connect 4 1 3 0;
#X connect 5 0 9 0;
#X connect 6 0 5 1;
#X connect 7 0 9 0;
#X connect 8 0 15 0;
#X connect 8 1 10 0;
#X connect 9 1 14 0;
#X connect 11 0 16 0;
#X connect 11 1 12 0;
#X connect 13 0 7 1;
#X connect 14 0 0 0;
#X connect 15 0 7 0;
#X connect 16 0 5 0;
#X restore 173 208 pd test-set;
#X obj 173 178 bng 15 250 50 0 empty empty empty 17 7 0 10 -262144
-1 -1;
#X obj 324 389 s \$0-out3;
#X obj 63 393 s \$0-out3;
#X obj 33 179 bng 15 250 50 0 empty empty empty 17 7 0 10 -262144 -1
-1;
#X obj 718 412 r \$0-out3;
#N canvas 0 30 846 854 test-set-intern 0;
#X obj 372 621 s \$0-test;
#X obj 319 41 inlet;
#X obj 310 169 f \$0;
#X obj 521 170 f \$0;
#X obj 319 138 t b b;
#X obj 341 452 t a a;
#X obj 528 247 t a a;
#X obj 563 329 makefilename %d-sgProp_rcv;
#X obj 511 409 pack s s s;
#X obj 347 686 s \$0-test;
#X obj 541 380 sgSymbolBang sgProp;
#X msg 372 583 list dest ( \$3 ) send ( set 50 ) expect1 ( update (
\$2 ( 50 ) ) );
#X msg 347 650 list dest ( \$1 ) send ( list get ( \$2 ) ) expect1
( info ( \$2 ( 50 ) ) );
#X obj 308 197 t a a;
#X obj 313 245 t a a;
#X obj 296 407 pack s s s;
#X msg 382 236 \; \$1-sdProp_rcv set 0;
#X obj 348 327 makefilename %d-sdProp_rcv;
#X obj 326 378 sgSymbolBang sdProp;
#X obj 316 482 t a a;
#X obj 280 513 t a a;
#X obj 157 542 t a a;
#X obj 100 753 s \$0-test;
#X obj 75 818 s \$0-test;
#X msg 75 782 list dest ( \$1 ) send ( list get ( \$2 ) ) expect1 (
info ( \$2 ( 50 ) ) );
#X obj 95 639 t a a;
#X msg 100 715 list dest ( \$3 ) send ( 50 ) expect1 ( update ( \$2
( 50 ) ) ) expect3 ( 50 );
#X msg 381 478 \; \$3 set 0;
#X msg 188 567 \; \$3 set 0;
#X obj 526 298 makefilename %d-sgProp-in;
#X obj 311 296 makefilename %d-sdProp-in;
#X connect 1 0 4 0;
#X connect 2 0 13 0;
#X connect 3 0 6 0;
#X connect 4 0 2 0;
#X connect 4 1 3 0;
#X connect 5 0 19 0;
#X connect 5 1 27 0;
#X connect 6 0 29 0;
#X connect 6 1 7 0;
#X connect 7 0 8 2;
#X connect 8 0 5 0;
#X connect 10 0 8 1;
#X connect 11 0 0 0;
#X connect 12 0 9 0;
#X connect 13 0 14 0;
#X connect 13 1 16 0;
#X connect 14 0 30 0;
#X connect 14 1 17 0;
#X connect 15 0 5 0;
#X connect 17 0 15 2;
#X connect 18 0 15 1;
#X connect 19 0 20 0;
#X connect 19 1 11 0;
#X connect 20 0 21 0;
#X connect 20 1 12 0;
#X connect 21 0 25 0;
#X connect 21 1 28 0;
#X connect 24 0 23 0;
#X connect 25 0 24 0;
#X connect 25 1 26 0;
#X connect 26 0 22 0;
#X connect 29 0 8 0;
#X connect 30 0 15 0;
#X restore 33 209 pd test-set-intern;
#X obj 324 366 r \$0-sgProp;
#X obj 63 370 r \$0-sdProp;
#X obj 63 313 sgProperty sdProp \$0;
#X obj 176 136 t b b;
#X obj 102 169 t b b;
#X obj 61 527 s \$0-out1;
#X obj 214 526 s \$0-out2;
#X obj 322 525 s \$0-out1;
#X obj 471 527 s \$0-out2;
#X obj 322 579 s \$0-out3;
#X obj 61 583 s \$0-out3;
#X obj 322 556 r \$0-sgPropSym;
#X obj 61 560 r \$0-sdPropSym;
#X obj 626 175 bng 15 250 50 0 empty empty empty 17 7 0 10 -262144
-1 -1;
#N canvas 0 30 846 854 test-get 0;
#X obj 217 472 s \$0-test;
#X obj 202 537 s \$0-test;
#X obj 180 603 s \$0-test;
#X obj 147 25 inlet;
#X obj 170 404 t a a a;
#X obj 135 108 f \$0;
#X obj 359 106 f \$0;
#X obj 147 77 t b b;
#X obj 135 344 pack s s;
#X obj 358 344 pack s s;
#X obj 359 131 t a a;
#X obj 134 139 t a a;
#X msg 202 499 list dest ( \$1 ) send ( list get ( notDefined ) ) expect2
( get ( notDefined ) );
#X obj 359 251 makefilename %d-sgPropSym-in;
#X obj 134 252 makefilename %d-sdPropSym-in;
#X obj 401 321 sgSymbolBang sgPropSym;
#X obj 180 320 sgSymbolBang sdPropSym;
#X msg 164 162 \; \$1-sdPropSym_rcv set null;
#X msg 217 436 list dest ( \$1 ) send ( list get ( \$2 ) ) expect1
( info ( \$2 ( null ) ) );
#X msg 390 154 \; \$1-sgPropSym_rcv set null;
#X msg 180 565 list dest ( \$1 ) send ( list get ( ) ) expect1 ( info
( \$2 ( null ) ) ) expect2 ( get ( ) );
#X connect 3 0 7 0;
#X connect 4 0 20 0;
#X connect 4 1 12 0;
#X connect 4 2 18 0;
#X connect 5 0 11 0;
#X connect 6 0 10 0;
#X connect 7 0 5 0;
#X connect 7 1 6 0;
#X connect 8 0 4 0;
#X connect 9 0 4 0;
#X connect 10 0 13 0;
#X connect 10 1 19 0;
#X connect 11 0 14 0;
#X connect 11 1 17 0;
#X connect 12 0 1 0;
#X connect 13 0 9 0;
#X connect 14 0 8 0;
#X connect 15 0 9 1;
#X connect 16 0 8 1;
#X connect 18 0 0 0;
#X connect 20 0 2 0;
#X restore 626 202 pd test-get;
#N canvas 0 30 846 411 test-set 0;
#X obj 180 540 s \$0-test;
#X obj 157 85 inlet;
#X obj 135 168 f \$0;
#X obj 349 169 f \$0;
#X obj 147 137 t b b;
#X obj 136 360 pack s s;
#X obj 362 347 pack s s;
#X obj 349 192 t a a;
#X obj 153 458 t a a;
#X obj 138 197 t a a;
#X obj 362 262 makefilename %d-sgPropSym-in;
#X obj 405 324 sgSymbolBang sgPropSym;
#X msg 379 215 \; \$1-sgPropSym_rcv set null;
#X msg 180 504 list dest ( \$1 ) send ( list set ( \$2 foo ) ) expect1
( update ( \$2 ( foo ) ) ) expect3 ( foo );
#X obj 136 268 makefilename %d-sdPropSym-in;
#X obj 181 336 sgSymbolBang sdPropSym;
#X msg 167 220 \; \$1-sdPropSym_rcv set null;
#X connect 1 0 4 0;
#X connect 2 0 9 0;
#X connect 3 0 7 0;
#X connect 4 0 2 0;
#X connect 4 1 3 0;
#X connect 5 0 8 0;
#X connect 6 0 8 0;
#X connect 7 0 10 0;
#X connect 7 1 12 0;
#X connect 8 1 13 0;
#X connect 9 0 14 0;
#X connect 9 1 16 0;
#X connect 10 0 6 0;
#X connect 11 0 6 1;
#X connect 13 0 0 0;
#X connect 14 0 5 0;
#X connect 15 0 5 1;
#X restore 522 203 pd test-set;
#X obj 522 173 bng 15 250 50 0 empty empty empty 17 7 0 10 -262144
-1 -1;
#X obj 373 175 bng 15 250 50 0 empty empty empty 17 7 0 10 -262144
-1 -1;
#N canvas 0 30 846 411 test-set-intern 0;
#X obj 377 566 s \$0-test;
#X obj 319 41 inlet;
#X obj 310 169 f \$0;
#X obj 521 170 f \$0;
#X obj 319 138 t b b;
#X obj 341 452 t a a;
#X obj 528 247 t a a;
#X obj 511 409 pack s s s;
#X obj 352 631 s \$0-test;
#X obj 313 245 t a a;
#X obj 296 407 pack s s s;
#X obj 316 482 t a a;
#X obj 280 513 t a a;
#X obj 155 571 t a a;
#X obj 134 723 s \$0-test;
#X obj 75 818 s \$0-test;
#X obj 95 639 t a a;
#X obj 526 298 makefilename %d-sgPropSym-in;
#X obj 563 329 makefilename %d-sgPropSym_rcv;
#X obj 541 380 sgSymbolBang sgPropSym;
#X obj 311 296 makefilename %d-sdPropSym-in;
#X obj 348 327 makefilename %d-sdPropSym_rcv;
#X obj 326 378 sgSymbolBang sdPropSym;
#X msg 381 478 \; \$3 set null;
#X msg 186 596 \; \$3 set null;
#X msg 377 528 list dest ( \$3 ) send ( set foo ) expect1 ( update
( \$2 ( foo ) ) );
#X msg 352 595 list dest ( \$1 ) send ( list get ( \$2 ) ) expect1
( info ( \$2 ( foo ) ) );
#X msg 75 782 list dest ( \$1 ) send ( list get ( \$2 ) ) expect1 (
info ( \$2 ( foo ) ) );
#X msg 134 685 list dest ( \$3 ) send ( symbol foo ) expect1 ( update
( \$2 ( foo ) ) ) expect3 ( foo );
#X connect 1 0 4 0;
#X connect 2 0 9 0;
#X connect 3 0 6 0;
#X connect 4 0 2 0;
#X connect 4 1 3 0;
#X connect 5 0 11 0;
#X connect 5 1 23 0;
#X connect 6 0 17 0;
#X connect 6 1 18 0;
#X connect 7 0 5 0;
#X connect 9 0 20 0;
#X connect 9 1 21 0;
#X connect 10 0 5 0;
#X connect 11 0 12 0;
#X connect 11 1 25 0;
#X connect 12 0 13 0;
#X connect 12 1 26 0;
#X connect 13 0 16 0;
#X connect 13 1 24 0;
#X connect 16 0 27 0;
#X connect 16 1 28 0;
#X connect 17 0 7 0;
#X connect 18 0 7 2;
#X connect 19 0 7 1;
#X connect 20 0 10 0;
#X connect 21 0 10 2;
#X connect 22 0 10 1;
#X connect 25 0 0 0;
#X connect 26 0 8 0;
#X connect 27 0 15 0;
#X connect 28 0 14 0;
#X restore 373 205 pd test-set-intern;
#X obj 504 134 t b b;
#X obj 449 165 t b b;
#X obj 63 288 r \$0-sdProp-in;
#X obj 324 287 r \$0-sgProp-in;
#X obj 322 476 r \$0-sgPropSym-in;
#X obj 61 479 r \$0-sdPropSym-in;
#X obj 322 500 sgPropertySym sgPropSym \$0;
#X obj 61 503 sdPropertySym sdPropSym \$0;
#X obj 351 84 t b b;
#X connect 0 0 46 0;
#X connect 2 0 8 0;
#X connect 4 0 1 1;
#X connect 5 0 1 2;
#X connect 7 0 1 0;
#X connect 11 0 9 0;
#X connect 11 1 10 0;
#X connect 13 0 12 0;
#X connect 16 0 18 0;
#X connect 17 0 1 3;
#X connect 19 0 14 0;
#X connect 20 0 15 0;
#X connect 21 0 3 0;
#X connect 21 1 6 0;
#X connect 22 0 23 0;
#X connect 22 1 8 0;
#X connect 23 0 18 0;
#X connect 23 1 12 0;
#X connect 30 0 28 0;
#X connect 31 0 29 0;
#X connect 32 0 33 0;
#X connect 35 0 34 0;
#X connect 36 0 37 0;
#X connect 38 0 39 0;
#X connect 38 1 33 0;
#X connect 39 0 37 0;
#X connect 39 1 34 0;
#X connect 40 0 21 0;
#X connect 41 0 11 0;
#X connect 42 0 44 0;
#X connect 43 0 45 0;
#X connect 44 0 26 0;
#X connect 44 1 27 0;
#X connect 45 0 24 0;
#X connect 45 1 25 0;
#X connect 46 0 22 0;
#X connect 46 1 38 0;
#X restore 54 66 pd test property;
#X obj 54 46 bng 15 250 50 0 empty empty empty 17 7 0 10 -262144 -1
-1;
#X connect 0 0 15 0;
#X connect 3 0 4 0;
#X connect 6 0 5 0;
#X connect 7 0 5 0;
#X connect 8 0 5 0;
#X connect 9 0 11 0;
#X connect 10 0 2 0;
#X connect 11 0 10 0;
#X connect 11 1 1 0;
#X connect 12 0 5 0;
#X connect 13 0 14 0;
#X connect 15 0 9 1;
#X connect 15 1 16 0;
#X connect 17 0 5 0;
#X connect 18 0 5 0;
#X connect 19 0 18 0;
#X connect 21 0 20 0;
#X restore 58 257 pd objState;
