#N canvas 0 30 894 854 10;
#X obj 181 707 outlet;
#X obj 18 -27 inlet;
#X obj 517 707 outlet;
#X text 515 732 d(t);
#X obj 349 711 outlet;
#X text 177 731 Current;
#X text 351 742 Next;
#X obj 274 214 sgDataPop;
#X obj 117 629 del;
#X obj 324 265 sgUnPack;
#X obj 273 385 sgPackFilter time;
#X obj 273 361 sgDataSerialize;
#X obj 159 416 sgUnPack;
#X obj 179 489 - 0;
#X obj 214 488 r \$0-lastTime;
#X obj 538 587 sgPack;
#X obj 91 503 s \$0-lastTime;
#X obj 117 652 t b b;
#X obj 74 680 s \$0-next;
#X obj 268 174 r \$0-next;
#X obj 201 114 t b b;
#X obj 234 137 s \$0-init;
#X obj 206 442 r \$0-init;
#X msg 206 465 0;
#X obj 159 439 t f f;
#X obj 370 465 r \$0-keepTime;
#X obj 163 582 * 1;
#X obj 215 576 r \$0-speed;
#X obj 163 605 t f f;
#X obj 203 634 s \$0-delay;
#X obj 517 682 r \$0-delay;
#X obj 18 -4 route start;
#X obj 215 600 expr 1/$f1;
#X obj 371 39 sgPropertyList sequence \$0;
#X obj 619 118 r \$0-sequence;
#X obj 619 141 print seq;
#X obj 620 169 r \$0-speed;
#X obj 621 225 r \$0-keepTime;
#X obj 359 178 list;
#X obj 380 153 r \$0-sequence;
#X obj 353 118 r \$0-init;
#X obj 362 227 s \$0-rest;
#X obj 653 715 outlet;
#X obj 653 682 r \$0-done;
#X obj 221 240 s \$0-done;
#X obj 81 19 sgProperty speed \$0;
#X obj 614 370 loadbang;
#X obj 614 393 t f f;
#X obj 641 427 != 0;
#X obj 612 464 sgGate;
#X obj 612 487 s \$0-speed;
#X floatatom 621 249 5 0 0 0 - - -;
#X floatatom 620 192 5 0 0 0 - - -;
#X obj 212 15 sgProperty keepTime \$0 \$1 1;
#X obj 336 490 sgGate;
#X obj 613 551 print h;
#X obj 406 528 sgData;
#X msg 470 500 clear;
#X obj 324 291 t a b;
#X obj 222 328 t b a;
#X obj 20 375 t b b;
#X obj 49 400 s \$0-dump;
#X obj 330 528 r \$0-dump;
#X connect 1 0 31 0;
#X connect 7 0 44 0;
#X connect 7 1 9 0;
#X connect 7 2 41 0;
#X connect 8 0 17 0;
#X connect 9 0 58 0;
#X connect 9 2 15 1;
#X connect 10 0 12 0;
#X connect 10 0 54 0;
#X connect 10 1 56 1;
#X connect 11 0 10 0;
#X connect 12 0 24 0;
#X connect 13 0 26 0;
#X connect 14 0 13 1;
#X connect 15 0 4 0;
#X connect 17 0 18 0;
#X connect 17 1 0 0;
#X connect 19 0 7 0;
#X connect 20 0 7 0;
#X connect 20 1 21 0;
#X connect 22 0 23 0;
#X connect 23 0 13 1;
#X connect 24 0 16 0;
#X connect 24 1 13 0;
#X connect 25 0 54 1;
#X connect 26 0 28 0;
#X connect 27 0 32 0;
#X connect 28 0 8 1;
#X connect 28 1 29 0;
#X connect 30 0 2 0;
#X connect 31 0 20 0;
#X connect 31 1 45 0;
#X connect 32 0 26 1;
#X connect 34 0 35 0;
#X connect 36 0 52 0;
#X connect 37 0 51 0;
#X connect 38 0 7 1;
#X connect 39 0 38 1;
#X connect 40 0 38 0;
#X connect 43 0 42 0;
#X connect 45 1 53 0;
#X connect 46 0 47 0;
#X connect 47 0 49 0;
#X connect 47 1 48 0;
#X connect 48 0 49 1;
#X connect 49 0 50 0;
#X connect 53 1 33 0;
#X connect 54 0 56 1;
#X connect 56 0 15 0;
#X connect 57 0 56 1;
#X connect 58 0 59 0;
#X connect 58 1 57 0;
#X connect 59 0 60 0;
#X connect 59 1 11 0;
#X connect 60 0 8 0;
#X connect 60 1 61 0;
#X connect 62 0 56 0;
