#N canvas 0 30 894 854 10;
#X obj 43 36 inlet~;
#X obj 56 312 outlet~;
#X obj 87 260 *~ 0;
#X obj 272 35 inlet;
#X obj 204 264 *~ 1;
#X obj 204 286 outlet~;
#X obj 272 128 expr $f1 \; 1-$f1;
#X obj 272 92 sgFloatBang \$1;
#X floatatom 238 189 5 0 0 0 - - -;
#X floatatom 329 190 5 0 0 0 - - -;
#X connect 0 0 2 0;
#X connect 0 0 4 0;
#X connect 2 0 1 0;
#X connect 3 0 7 0;
#X connect 4 0 5 0;
#X connect 6 0 2 1;
#X connect 6 0 8 0;
#X connect 6 1 4 1;
#X connect 6 1 9 0;
#X connect 7 0 6 0;
