#N canvas 0 30 990 411 10;
#X obj 27 21 inlet;
#X obj 118 99 t b a;
#X obj 103 129 until;
#X obj 93 257 outlet;
#X obj 101 165 sgDataPop;
#X connect 0 0 1 0;
#X connect 1 0 2 0;
#X connect 1 1 4 1;
#X connect 2 0 4 0;
#X connect 4 0 2 1;
#X connect 4 1 3 0;
