#N canvas 0 30 894 854 10;
#X obj 282 14 inlet;
#X obj 104 302 list split;
#X obj 295 449 outlet;
#X obj 161 280 + 2;
#X obj 209 390 s \$0-Reloop;
#X obj 33 14 inlet;
#X obj 133 196 t a a b;
#X obj 312 60 s \$0-Init;
#X obj 282 35 t a b;
#X obj 589 452 outlet;
#X text 274 469 Serialized into sgPacks;
#X msg 33 35 bang;
#X obj 175 63 list;
#X obj 60 450 outlet;
#X msg 41 410 bang;
#X text 29 470 bang \, when all Data has been unpacked;
#X obj 185 25 r \$0-Reloop;
#X obj 302 350 print -n;
#X msg 302 329 sgUnData: error: sgPack "\$1" has wrong format!;
#X obj 192 321 t a a;
#X floatatom 204 291 5 0 0 0 - - -;
#X obj 161 94 t l l;
#X obj 133 167 sgGate 0;
#X text 586 471 rest;
#X obj 209 366 t a a;
#X obj 188 120 list length;
#X obj 188 143 > 0;
#X obj 138 228 sgUnPack;
#X connect 0 0 8 0;
#X connect 1 0 2 0;
#X connect 1 1 24 0;
#X connect 1 2 19 0;
#X connect 3 0 1 1;
#X connect 5 0 11 0;
#X connect 6 0 1 0;
#X connect 6 1 27 0;
#X connect 8 0 12 1;
#X connect 8 1 7 0;
#X connect 11 0 12 0;
#X connect 12 0 21 0;
#X connect 14 0 13 0;
#X connect 16 0 12 1;
#X connect 18 0 17 0;
#X connect 19 0 14 0;
#X connect 19 1 18 0;
#X connect 21 0 22 0;
#X connect 21 1 25 0;
#X connect 22 0 6 0;
#X connect 22 1 14 0;
#X connect 24 0 4 0;
#X connect 24 1 9 0;
#X connect 25 0 26 0;
#X connect 26 0 22 1;
#X connect 27 1 3 0;
