#N canvas 0 30 942 854 10;
#X obj 54 147 sgDataSerialize;
#N canvas 0 30 990 411 example 0;
#X msg 209 127 pack1 ( bla ) \, pack2 ( blubb );
#X msg 174 93 clear;
#X obj 209 150 sgPackFromHuman;
#X obj 83 100 bng 15 250 50 0 empty empty empty 17 7 0 10 -262144 -1
-1;
#X obj 103 206 print;
#X text 61 31 accumulate sgPacks:;
#X msg 417 128 pack1 ( bla ) pack2 ( blubb );
#X text 431 66 ERROR: 1 message containing several packs leads to wrong
counter!;
#X obj 124 160 sgData;
#X connect 0 0 2 0;
#X connect 1 0 8 1;
#X connect 2 0 8 1;
#X connect 3 0 8 0;
#X connect 6 0 2 0;
#X connect 8 0 4 0;
#X restore 225 65 pd example;
#X text 15 16 sgData is a sequence of sgPacks;
#X text 31 45 create by accumulating sgPacks:;
#X text 34 98 divide into seperate sgPacks:;
#N canvas 0 30 894 854 example 0;
#X msg 756 199 list pack 1 test pack p1 p2;
#X obj 384 171 bng 15 250 50 0 empty empty empty 17 7 0 10 -262144
-1 -1;
#X msg 772 169 list pack 1 test pack 2 bla;
#X obj 381 279 print empty;
#X msg 498 159 list pack 1 test pack 2 p1 p2;
#X msg 498 130 bang;
#X text 784 142 wrong format produces errors:;
#X obj 139 250 print serialized;
#X msg 127 134 list pack 1 test pack 2 p1 p2;
#X obj 483 277 print head;
#X obj 577 279 print rest;
#X obj 407 215 sgDataPop;
#X obj 154 199 sgDataSerialize;
#X connect 0 0 11 1;
#X connect 1 0 11 0;
#X connect 2 0 11 1;
#X connect 4 0 11 1;
#X connect 5 0 11 1;
#X connect 8 0 12 0;
#X connect 11 0 3 0;
#X connect 11 1 9 0;
#X connect 11 2 10 0;
#X connect 12 0 7 0;
#X restore 226 129 pd example;
#X obj 57 69 sgData;
#X obj 54 122 sgDataPop;
