#N canvas 0 30 990 411 10;
#X obj 105 28 inlet;
#X obj 187 183 outlet;
#X obj 200 30 inlet;
#X obj 304 31 inlet;
#X obj 409 28 inlet;
#X obj 555 30 inlet;
#X text 195 11 min (input);
#X text 274 13 max (input);
#X text 373 6 min (output);
#X text 542 3 max (output);
#X obj 187 160 expr ($f1-$f2) / ($f3-$f2) * ($f5 - $f4) + $f4;
#X obj 200 54 sgFloatBang \$1;
#X obj 304 56 sgFloatBang \$2;
#X obj 409 53 sgFloatBang \$3;
#X obj 555 55 sgFloatBang \$4;
#X connect 0 0 10 0;
#X connect 2 0 11 0;
#X connect 3 0 12 0;
#X connect 4 0 13 0;
#X connect 5 0 14 0;
#X connect 10 0 1 0;
#X connect 11 0 10 1;
#X connect 12 0 10 2;
#X connect 13 0 10 3;
#X connect 14 0 10 4;
