#N canvas 0 30 990 411 10;
#X obj 42 7 inlet;
#X obj 372 7 inlet;
#X obj 227 204 outlet;
#X obj 229 160 * 1;
#X obj 87 92 expr $f1/$f2-int($f1/$f2);
#X obj 87 123 expr if($f1<0 \, 1+$f1 \, $f1);
#X obj 316 40 sgFloatBang \$1;
#X connect 0 0 4 0;
#X connect 1 0 6 0;
#X connect 3 0 2 0;
#X connect 4 0 5 0;
#X connect 5 0 3 0;
#X connect 6 0 4 1;
#X connect 6 0 3 1;
