#N canvas 723 30 641 93 12;
#N canvas 0 30 721 722 canvas 0;
#X obj 77 170 r \$0-x;
#X obj 98 203 r \$0-y;
#X obj 66 214 f;
#X obj 234 178 r \$0-snd;
#X obj 236 203 r \$0-rcv;
#X obj 26 21 inlet;
#X obj 73 304 outlet;
#X msg 73 281 obj \$1 \$2 cnv 15 \$3 \$4 \$5 \$6 \$7 1 8 0 12 1 -65794
;
#X obj 74 255 pack 0 0 10 10 s s s;
#X obj 300 203 r \$0-label;
#X obj 136 169 r \$0-width;
#X obj 151 199 r \$0-height;
#X connect 0 0 2 1;
#X connect 1 0 8 1;
#X connect 2 0 8 0;
#X connect 3 0 8 4;
#X connect 4 0 8 5;
#X connect 5 0 2 0;
#X connect 7 0 6 0;
#X connect 8 0 7 0;
#X connect 9 0 8 6;
#X connect 10 0 8 2;
#X connect 11 0 8 3;
#X restore 48 233 pd canvas;
#X msg 298 232 clear;
#N canvas 0 30 721 722 numbox 0;
#X obj 77 170 r \$0-x;
#X obj 98 203 r \$0-y;
#X obj 66 214 f;
#X obj 234 178 r \$0-snd;
#X obj 236 203 r \$0-rcv;
#X obj 26 21 inlet;
#X obj 73 304 outlet;
#X obj 136 169 r \$0-width;
#X obj 151 199 r \$0-height;
#X obj 74 255 pack 0 0 10 10 s s;
#X msg 74 280 obj \$1 \$2 nbx 2 \$4 -1e+37 1e+37 0 0 \$5 \$6;
#X connect 0 0 2 1;
#X connect 1 0 9 1;
#X connect 2 0 9 0;
#X connect 3 0 9 4;
#X connect 4 0 9 5;
#X connect 5 0 2 0;
#X connect 7 0 9 2;
#X connect 8 0 9 3;
#X connect 9 0 10 0;
#X connect 10 0 6 0;
#X restore 160 231 pd numbox;
#X obj 56 38 inlet;
#X obj 160 306 outlet;
#X obj 382 139 sdProperty x \$0;
#X obj 424 170 sdProperty y \$0;
#X obj 472 268 sdPropertySym snd \$0 empty intern;
#X obj 515 300 sdPropertySym rcv \$0 empty intern;
#X obj 536 328 sdPropertySym label \$0 empty intern;
#X obj 437 200 sdProperty width \$0;
#X obj 479 231 sdProperty height \$0;
#X obj 462 79 loadbang;
#X msg 462 102 init;
#X obj 285 104 route clear;
#N canvas 0 30 721 722 hsl 1;
#X obj 77 170 r \$0-x;
#X obj 98 203 r \$0-y;
#X obj 66 214 f;
#X obj 234 178 r \$0-snd;
#X obj 236 203 r \$0-rcv;
#X obj 26 21 inlet;
#X obj 74 326 outlet;
#X obj 136 169 r \$0-width;
#X obj 151 199 r \$0-height;
#X obj 74 255 pack 0 0 10 10 s s;
#X msg 74 280 obj \$1 \$2 hsl \$3 \$4 0 1 0 0 \$5 \$6 empty -2 -8 0
10 -1 -260097 -1 14657 1;
#X connect 0 0 2 1;
#X connect 1 0 9 1;
#X connect 2 0 9 0;
#X connect 3 0 9 4;
#X connect 4 0 9 5;
#X connect 5 0 2 0;
#X connect 7 0 9 2;
#X connect 8 0 9 3;
#X connect 9 0 10 0;
#X connect 10 0 6 0;
#X restore 239 232 pd hsl;
#X obj 62 88 route canvas nbx hsl;
#X connect 0 0 4 0;
#X connect 1 0 4 0;
#X connect 2 0 4 0;
#X connect 3 0 16 0;
#X connect 5 1 6 0;
#X connect 6 1 10 0;
#X connect 7 1 8 0;
#X connect 8 1 9 0;
#X connect 10 1 11 0;
#X connect 11 1 7 0;
#X connect 12 0 13 0;
#X connect 13 0 5 0;
#X connect 14 0 1 0;
#X connect 14 1 5 0;
#X connect 15 0 4 0;
#X connect 16 0 0 0;
#X connect 16 1 2 0;
#X connect 16 2 15 0;
#X connect 16 3 14 0;
