#N canvas 0 0 942 854 10;
#X obj 33 10 inlet;
#X obj 216 49 sdObjState \$1 \$2;
#X obj 263 3 r \$0-fromProperties;
#X obj 500 407 s \$0-fromProperties;
#X obj 23 792 outlet;
#X obj 394 25 r \$1.out;
#X obj 230 798 outlet;
#X obj 513 79 t a a, f 20;
#N canvas 0 0 942 854 connect 0;
#X obj 37 37 inlet;
#X text 217 373 print info for the dumb user;
#X obj 142 115 sdUnPack;
#X obj 138 175 t b s;
#X obj 131 219 sdObjConnectTo \$1 \$1;
#X obj 142 138 t s s;
#X obj 131 242 unpack s s;
#X obj 184 165 sdObjConnectTo \$1 \$1;
#X obj 138 266 outlet;
#X msg 203 396 connected \$1 -> \$2;
#X obj 203 420 print \$1;
#X connect 0 0 2 0;
#X connect 2 0 5 0;
#X connect 3 0 4 0;
#X connect 3 1 4 1;
#X connect 4 0 6 0;
#X connect 4 1 9 0;
#X connect 5 0 3 0;
#X connect 5 1 7 0;
#X connect 6 1 8 0;
#X connect 7 1 9 0;
#X connect 9 0 10 0;
#X restore 494 185 pd connect;
#X obj 630 102 s \$0-fromObj.out;
#X obj 23 769 r \$0-fromObj.out;
#X obj 475 799 outlet;
#X obj 475 775 r \$0-fromDest.out;
#X obj 230 774 r \$0-fromDest.generic;
#X obj 506 284 sdProperty groupIndex \$0;
#X obj 545 363 sdProperty destIndex \$0;
#N canvas 0 0 942 854 index 0;
#X obj 69 13 inlet;
#X obj 87 288 outlet;
#X obj 313 6 inlet;
#X msg 82 154 get \$1;
#X obj 294 169 sdSetSelector set;
#X obj 263 108 t b a;
#X obj 223 290 outlet;
#X obj 101 249 sdUnPack;
#X obj 142 214 sdData get count serialize;
#X obj 362 287 sdList;
#X msg 523 180 clear;
#X msg 179 167 count \, serialize;
#X obj 312 75 t a b;
#X obj 312 236 sdUnPack;
#X obj 208 134 t b b;
#X obj 362 310 outlet;
#X connect 0 0 3 0;
#X connect 2 0 12 0;
#X connect 3 0 8 0;
#X connect 4 0 8 0;
#X connect 5 0 14 0;
#X connect 5 1 4 0;
#X connect 7 2 1 0;
#X connect 8 0 7 0;
#X connect 8 1 6 0;
#X connect 8 2 13 0;
#X connect 9 0 15 0;
#X connect 10 0 9 0;
#X connect 11 0 8 0;
#X connect 12 0 5 0;
#X connect 12 1 10 0;
#X connect 13 2 9 1;
#X connect 14 0 9 0;
#X connect 14 1 11 0;
#X restore 235 576 pd index -> obj;
#N canvas 0 0 942 854 get_objs 0;
#X obj 104 221 sdObjSaveAll \$1;
#X obj 104 295 outlet;
#X msg 328 90 get \$1;
#X obj 178 9 inlet;
#X obj 328 155 sdList get count;
#X obj 450 14 inlet;
#X obj 450 121 sdSetSelector set;
#X obj 450 67 t b a;
#X msg 406 98 count;
#X obj 311 217 outlet;
#X text 304 245 group name;
#X obj 409 218 outlet;
#X text 409 243 number of groups;
#X obj 285 181 t a a;
#X obj 178 89 t b f;
#X msg 104 196 save \, get state;
#X obj 104 244 route state;
#X obj 104 267 list;
#X msg 210 198 set dest \$1;
#X connect 0 0 16 0;
#X connect 2 0 4 0;
#X connect 3 0 14 0;
#X connect 4 0 13 0;
#X connect 4 1 11 0;
#X connect 5 0 7 0;
#X connect 6 0 4 0;
#X connect 7 0 8 0;
#X connect 7 1 6 0;
#X connect 8 0 4 0;
#X connect 13 0 18 0;
#X connect 13 1 9 0;
#X connect 14 0 15 0;
#X connect 14 1 2 0;
#X connect 15 0 0 0;
#X connect 16 0 17 0;
#X connect 17 0 1 0;
#X connect 18 0 0 0;
#X restore 340 497 pd get_objs;
#N canvas 0 0 942 854 init 0;
#N canvas 0 0 942 854 initlist 0;
#X obj 513 209 sdList;
#X msg 513 167 serialize \, clear;
#X obj 501 128 t b l;
#X obj 513 232 route symbol;
#X obj 456 294 sdList;
#X msg 412 225 bang \, clear;
#X obj 44 19 inlet;
#X obj 456 317 outlet;
#X obj 504 92 list append \$3 \$4 \$5 \$6 \$7;
#X connect 0 0 3 0;
#X connect 1 0 0 0;
#X connect 2 0 1 0;
#X connect 2 0 5 0;
#X connect 2 1 0 1;
#X connect 3 0 4 1;
#X connect 4 0 7 0;
#X connect 5 0 4 0;
#X connect 6 0 8 0;
#X connect 8 0 2 0;
#X restore 72 92 pd initlist;
#X obj 72 69 t b;
#X obj 75 15 inlet;
#X obj 72 115 outlet;
#X connect 0 0 3 0;
#X connect 1 0 0 0;
#X connect 2 0 1 0;
#X restore 482 584 pd init groups;
#X text 543 13 \$1: name \; \$2: init rcv \; \$3...: groups;
#X obj 483 258 sdPropertyList groups \$0;
#X obj 273 427 r \$0-groupIndex;
#X obj 219 520 r \$0-destIndex;
#X floatatom 268 608 5 0 0 0 - - - 0;
#X floatatom 386 549 5 0 0 0 - - - 0;
#X obj 494 162 sdObjTrack dest;
#X msg 371 571 priv.set \$1;
#X obj 371 594 s \$0-group_rcv;
#X obj 519 311 sdPropertySym group \$0;
#X obj 322 646 s \$0-objs_rcv;
#X obj 322 622 sdSetSelector priv.set;
#X obj 532 337 sdPropertyList objs \$0;
#X obj 494 231 sdObjGetAll \$1 get_with_range;
#X obj 483 13 inlet;
#X obj 483 36 s \$1.out;
#X obj 265 450 t b a;
#X obj 219 496 s \$0-destIndex_rcv;
#X msg 219 473 priv.set 0;
#X obj 295 352 t b a;
#X msg 273 380 priv.set 0;
#X obj 273 403 s \$0-groupIndex_rcv;
#X obj 263 26 list;
#X obj 55 726 s \$0-fromProperties;
#X obj 82 700 s \$0-fromDest.generic;
#X obj 109 674 s \$0-fromDest.out;
#X obj 136 648 s \$1.out;
#X obj 222 203 t a a;
#X msg 189 601 set dest \$1;
#X obj 69 86 sdPackFilter info update;
#X obj 42 60 t a a;
#X obj 105 112 sdPackFilter init;
#X obj 308 104 sdPackFilter get_all;
#X obj 308 128 t b;
#X obj 494 208 symbol;
#X obj 219 543 sdGate;
#X obj 482 562 loadbang;
#X obj 93 158 sdEventToProperties;
#X obj 545 562 bng 15 250 50 0 empty empty empty 17 7 0 10 #fcfcfc
#000000 #000000;
#X obj 494 678 r \$0-groups;
#X obj 494 701 l2s;
#X listbox 494 724 20 0 0 0 - - - 0;
#X obj 55 622 sdObjInterface 0 1;
#X obj 185 415 t a;
#X obj 235 250 r \$0-groups;
#X obj 232 323 sdGate;
#X msg 297 320 1;
#X obj 336 233 r \$0-init;
#X obj 64 242 s \$0-init;
#N canvas 0 0 942 854 if 0;
#X obj 78 305 sdGate;
#X obj 111 283 list length;
#X obj 36 20 inlet;
#X obj 136 431 outlet;
#X obj 167 45 inlet;
#X obj 37 418 outlet;
#X connect 0 0 5 0;
#X connect 0 1 3 0;
#X connect 1 0 0 1;
#X connect 2 0 0 0;
#X connect 4 0 1 0;
#X restore 308 151 pd if groups;
#X obj 439 105 r \$0-groups;
#X obj 417 168 print \$1;
#N canvas 0 0 942 854 msg 0;
#X obj 156 28 inlet;
#X obj 160 273 outlet;
#X msg 144 95 ERROR: got get_all \, but property groups not set. Set
groups from creation args or via 'list init ( group1 group2 ... )'
;
#X connect 0 0 2 0;
#X connect 2 0 1 0;
#X restore 417 144 pd msg;
#N canvas 0 0 942 854 if 0;
#X obj 78 305 sdGate;
#X obj 111 283 list length;
#X obj 36 20 inlet;
#X obj 136 431 outlet;
#X obj 167 45 inlet;
#X obj 37 418 outlet;
#X connect 0 0 5 0;
#X connect 0 1 3 0;
#X connect 1 0 0 1;
#X connect 2 0 0 0;
#X connect 4 0 1 0;
#X restore 513 126 pd if groups;
#X obj 595 125 r \$0-groups;
#N canvas 0 0 942 854 if 0;
#X obj 78 305 sdGate;
#X obj 111 283 list length;
#X obj 36 20 inlet;
#X obj 136 431 outlet;
#X obj 167 45 inlet;
#X obj 37 418 outlet;
#X connect 0 0 5 0;
#X connect 0 1 3 0;
#X connect 1 0 0 1;
#X connect 2 0 0 0;
#X connect 4 0 1 0;
#X restore 64 196 pd if groups;
#X obj 146 195 r \$0-groups;
#X obj 133 243 print \$1;
#N canvas 0 0 942 854 msg 0;
#X obj 156 28 inlet;
#X obj 160 273 outlet;
#X msg 144 95 ERROR: got init \, but property groups not set. Set groups
from creation args or via 'list init ( group1 group2 ... )';
#X connect 0 0 2 0;
#X connect 2 0 1 0;
#X restore 133 219 pd msg;
#X obj 64 219 t b;
#X floatatom 335 319 5 0 0 0 - - - 0;
#X obj 337 256 t b b;
#X obj 232 300 list;
#X obj 235 273 t b l;
#X obj 482 606 sdSetSelector set_no_out;
#X obj 482 628 s \$0-groups_rcv;
#X obj 293 279 sdFirst;
#X obj 14 538 r \$0-init;
#X msg 14 561 get humble;
#X obj 24 379 sdPackFilter init;
#X connect 0 0 1 0;
#X connect 1 0 49 0;
#X connect 1 1 46 0;
#X connect 1 2 7 0;
#X connect 2 0 41 0;
#X connect 5 0 1 2;
#X connect 7 0 72 0;
#X connect 7 1 9 0;
#X connect 8 0 53 0;
#X connect 10 0 4 0;
#X connect 12 0 11 0;
#X connect 13 0 6 0;
#X connect 14 0 3 0;
#X connect 14 1 28 0;
#X connect 15 0 3 0;
#X connect 16 0 47 0;
#X connect 16 1 23 0;
#X connect 16 2 30 0;
#X connect 17 0 16 1;
#X connect 17 1 26 0;
#X connect 17 2 24 0;
#X connect 17 2 54 1;
#X connect 18 0 83 0;
#X connect 20 0 3 0;
#X connect 20 1 14 0;
#X connect 21 0 35 0;
#X connect 22 0 54 0;
#X connect 25 0 8 0;
#X connect 26 0 27 0;
#X connect 28 0 3 0;
#X connect 28 1 31 0;
#X connect 30 0 29 0;
#X connect 31 0 3 0;
#X connect 31 1 15 0;
#X connect 33 0 34 0;
#X connect 35 0 37 0;
#X connect 35 1 17 0;
#X connect 37 0 36 0;
#X connect 38 0 39 0;
#X connect 38 1 17 1;
#X connect 39 0 40 0;
#X connect 41 0 1 1;
#X connect 46 0 61 0;
#X connect 46 1 20 0;
#X connect 47 0 61 0;
#X connect 48 1 50 0;
#X connect 49 0 88 0;
#X connect 49 1 48 0;
#X connect 50 0 56 0;
#X connect 50 1 51 0;
#X connect 51 0 52 0;
#X connect 52 0 68 0;
#X connect 52 0 53 0;
#X connect 53 0 32 0;
#X connect 54 0 16 0;
#X connect 55 0 18 0;
#X connect 56 0 74 0;
#X connect 56 1 20 0;
#X connect 57 0 18 0;
#X connect 58 0 59 0;
#X connect 59 0 60 0;
#X connect 61 0 42 0;
#X connect 61 1 43 0;
#X connect 61 2 44 0;
#X connect 61 3 45 0;
#X connect 62 0 61 1;
#X connect 63 0 82 0;
#X connect 64 0 38 0;
#X connect 65 0 64 1;
#X connect 65 0 79 0;
#X connect 66 0 80 0;
#X connect 68 1 71 0;
#X connect 69 0 68 1;
#X connect 71 0 70 0;
#X connect 72 0 25 0;
#X connect 73 0 72 1;
#X connect 74 0 78 0;
#X connect 74 1 77 0;
#X connect 75 0 74 1;
#X connect 77 0 76 0;
#X connect 78 0 67 0;
#X connect 80 0 85 0;
#X connect 80 1 65 0;
#X connect 81 0 64 0;
#X connect 82 0 81 0;
#X connect 82 1 81 1;
#X connect 83 0 84 0;
#X connect 85 0 81 0;
#X connect 86 0 87 0;
#X connect 87 0 61 0;
#X connect 88 1 62 0;
