#N canvas 0 0 798 854 10;
#X obj 33 10 inlet;
#X obj 428 145 sdPropertyList numProps \$0;
#X obj 276 159 r \$0-dest;
#X obj 199 673 outlet;
#X obj 285 351 sdPackFilter info update;
#X obj 186 327 sdPackFilter dest;
#X obj 41 430 s \$0-fromDest.out;
#X obj 440 172 sdPropertyList symProps \$0;
#X obj 353 672 outlet;
#X obj 353 648 r \$0-fromDest.out;
#X obj 199 649 r \$0-fromDest.generic;
#X obj 14 406 t a a;
#X obj 67 459 r \$0-numProps;
#X obj 125 554 s \$0-fromDest.generic;
#N canvas 0 0 798 854 num_generic_out 0;
#X obj 51 88 sdUnPack;
#X obj 484 267 sdUnPack;
#X obj 556 326 sdSetSelector set;
#X obj 16 21 inlet;
#X obj 620 50 inlet;
#X obj 569 642 outlet;
#X obj 256 40 sdUnPack;
#X obj 256 85 t b a;
#X msg 256 108 serialize;
#X obj 256 137 sdData;
#X obj 256 63 t a b;
#X msg 331 109 clear;
#X obj 268 11 inlet;
#X obj 242 218 sdPackFilter range_info;
#X obj 242 242 sdUnPack;
#X obj 271 293 list split 1;
#X obj 244 270 t a a;
#X obj 353 346 sdList;
#X msg 297 320 find \$1;
#X obj 353 307 sdSetSelector set;
#X obj 286 446 list prepend;
#X obj 496 545 sdPack update_num;
#X obj 286 470 sdPack update_num_range;
#X obj 752 48 inlet;
#X text 750 27 symprops;
#X obj 794 391 sdSetSelector set;
#X obj 750 602 sdPack update_sym;
#X obj 157 468 t a;
#X obj 58 146 sdPackFilter events;
#X obj 95 195 sdPackFilter out;
#X obj 52 191 t a a;
#X obj 67 680 outlet;
#X obj 67 655 sdUnPack;
#X obj 922 44 inlet;
#X obj 1053 409 sdSetSelector set;
#X obj 908 659 sdPack update_bool;
#X text 619 31 numprops;
#X text 911 25 boolprops;
#X obj 353 372 - 0;
#X obj 286 422 sdGate;
#X obj 313 398 >= 0;
#X obj 470 522 list prepend;
#X obj 534 416 - 0;
#X obj 474 463 sdGate;
#X obj 501 439 >= 0;
#X obj 750 578 list prepend;
#X obj 732 361 symbol;
#X msg 732 384 find \$1;
#X obj 678 352 t a b;
#X obj 809 470 - 0;
#X obj 749 517 sdGate;
#X obj 776 493 >= 0;
#X obj 956 623 list prepend;
#X obj 996 387 symbol;
#X msg 996 410 find \$1;
#X obj 942 377 t a b;
#X obj 1024 508 - 0;
#X obj 964 555 sdGate;
#X obj 991 531 >= 0;
#X obj 385 369 r \$0-numShift;
#X obj 564 413 r \$0-numShift;
#X obj 1053 504 r \$0-boolShift;
#X obj 838 470 r \$0-symShift;
#X obj 511 360 sdList find get;
#X obj 501 496 list prepend;
#X msg 501 325 find \$1;
#X obj 511 383 t a a;
#X msg 556 385 get \$1;
#X obj 964 578 list prepend;
#X obj 1052 436 sdList find get;
#X obj 1052 459 t a a;
#X msg 1093 459 get \$1;
#X obj 751 542 list prepend;
#X obj 808 416 sdList find get;
#X obj 808 439 t a a;
#X msg 849 439 get \$1;
#X connect 0 0 28 0;
#X connect 1 0 43 0;
#X connect 1 2 65 0;
#X connect 1 2 46 1;
#X connect 1 2 53 1;
#X connect 2 0 63 0;
#X connect 3 0 0 0;
#X connect 4 0 2 0;
#X connect 4 0 19 0;
#X connect 6 0 10 0;
#X connect 7 0 8 0;
#X connect 7 1 9 1;
#X connect 8 0 9 0;
#X connect 9 0 28 0;
#X connect 10 0 7 0;
#X connect 10 1 11 0;
#X connect 11 0 9 0;
#X connect 12 0 6 0;
#X connect 13 0 14 0;
#X connect 13 1 1 0;
#X connect 14 0 16 0;
#X connect 15 0 18 0;
#X connect 16 0 39 0;
#X connect 16 1 15 0;
#X connect 17 0 38 0;
#X connect 18 0 17 0;
#X connect 19 0 17 0;
#X connect 20 0 22 0;
#X connect 21 0 5 0;
#X connect 22 0 5 0;
#X connect 23 0 25 0;
#X connect 25 0 73 0;
#X connect 26 0 5 0;
#X connect 27 0 5 0;
#X connect 28 0 30 0;
#X connect 28 1 29 0;
#X connect 29 0 27 0;
#X connect 29 1 13 0;
#X connect 30 0 27 0;
#X connect 30 1 32 0;
#X connect 32 0 31 0;
#X connect 33 0 34 0;
#X connect 34 0 69 0;
#X connect 35 0 5 0;
#X connect 38 0 40 0;
#X connect 38 0 20 1;
#X connect 39 0 20 0;
#X connect 40 0 39 1;
#X connect 41 0 21 0;
#X connect 42 0 44 0;
#X connect 42 0 41 1;
#X connect 43 0 64 0;
#X connect 43 1 48 0;
#X connect 44 0 43 1;
#X connect 45 0 26 0;
#X connect 46 0 47 0;
#X connect 47 0 73 0;
#X connect 48 0 50 0;
#X connect 48 1 46 0;
#X connect 49 0 51 0;
#X connect 49 0 45 1;
#X connect 50 0 72 0;
#X connect 50 1 55 0;
#X connect 51 0 50 1;
#X connect 52 0 35 0;
#X connect 53 0 54 0;
#X connect 54 0 69 0;
#X connect 55 0 57 0;
#X connect 55 1 53 0;
#X connect 56 0 58 0;
#X connect 56 0 52 1;
#X connect 57 0 68 0;
#X connect 58 0 57 1;
#X connect 59 0 38 1;
#X connect 60 0 42 1;
#X connect 61 0 56 1;
#X connect 62 0 49 1;
#X connect 63 0 66 0;
#X connect 63 1 64 1;
#X connect 64 0 41 0;
#X connect 65 0 63 0;
#X connect 66 0 42 0;
#X connect 66 1 67 0;
#X connect 67 0 63 0;
#X connect 68 0 52 0;
#X connect 69 0 70 0;
#X connect 69 1 68 1;
#X connect 70 0 56 0;
#X connect 70 1 71 0;
#X connect 71 0 69 0;
#X connect 72 0 45 0;
#X connect 73 0 74 0;
#X connect 73 1 72 1;
#X connect 74 0 49 0;
#X connect 74 1 75 0;
#X connect 75 0 73 0;
#X restore 30 529 pd num_generic_out;
#X obj 186 388 t a a;
#X obj 273 606 s \$0-fromDest.out;
#X obj 327 533 s \$0-numProps_rcv;
#X obj 327 509 sdSetSelector priv.set;
#X obj 273 413 t a a;
#X obj 352 461 sdSetSelector priv.set;
#X obj 352 485 s \$0-symProps_rcv;
#X obj 285 374 s \$0-fromDest_single_msg.in;
#X obj 14 357 r \$0-fromDest_single_msg.in, f 16;
#N canvas 0 0 798 854 generic 0;
#X obj 13 9 inlet;
#X obj 19 299 sdPackFilter get_sym_by_ind;
#X obj 90 324 sdPackFilter set_sym_by_ind;
#N canvas 0 0 798 854 num_by_ind 0;
#X obj 129 234 r \$0-numProps;
#X obj 61 82 sdUnPack;
#X obj 129 257 sdSetSelector set;
#X msg 51 237 get \$1;
#X obj 90 288 sdList get;
#X obj 164 71 sdUnPack;
#X obj 156 323 sdGate;
#X obj 92 35 t a b;
#X msg 208 299 1;
#X msg 247 298 0;
#X obj 164 94 unpack, f 20;
#X obj 164 40 t a b;
#X obj 190 394 sdPack property;
#X obj 190 370 f;
#X obj 85 9 inlet;
#X obj 175 10 inlet;
#X obj 22 383 sdPack get_in_range;
#X obj 190 418 sdPack set_in_range;
#X obj 67 211 sdGate;
#X obj 94 187 >= 0;
#X obj 67 164 t f f;
#X obj 499 33 inlet;
#X obj 67 141 + 0;
#X obj 190 443 s \$0-toObj;
#X obj 22 408 s \$0-toObj;
#X obj 190 346 t b s;
#X connect 0 0 2 0;
#X connect 1 0 22 0;
#X connect 2 0 4 0;
#X connect 3 0 4 0;
#X connect 4 0 6 0;
#X connect 5 0 10 0;
#X connect 6 0 16 0;
#X connect 6 1 25 0;
#X connect 7 0 1 0;
#X connect 7 1 8 0;
#X connect 8 0 6 1;
#X connect 9 0 6 1;
#X connect 10 0 22 0;
#X connect 10 1 13 1;
#X connect 11 0 5 0;
#X connect 11 1 9 0;
#X connect 12 0 17 0;
#X connect 13 0 12 0;
#X connect 14 0 7 0;
#X connect 15 0 11 0;
#X connect 16 0 24 0;
#X connect 17 0 23 0;
#X connect 18 0 3 0;
#X connect 19 0 18 1;
#X connect 20 0 18 0;
#X connect 20 1 19 0;
#X connect 21 0 22 1;
#X connect 22 0 20 0;
#X connect 25 0 13 0;
#X connect 25 1 12 1;
#X restore 217 104 pd num_by_ind;
#X obj 31 58 sdPackFilter set_num_by_ind;
#N canvas 0 0 798 854 num_by_ind 0;
#X obj 96 255 r \$0-numProps;
#X obj 75 114 sdUnPack;
#X obj 96 278 sdSetSelector set;
#X msg 32 269 get \$1;
#X obj 57 309 sdList get;
#X obj 42 438 sdPack get;
#X obj 208 85 sdUnPack;
#X obj 123 344 sdGate;
#X obj 110 65 t a b;
#X msg 175 320 1;
#X msg 214 319 0;
#X obj 323 538 sdPack set;
#X obj 208 108 unpack, f 20;
#X obj 208 54 t a b;
#X obj 323 514 sdPack property;
#X obj 324 490 f;
#X obj 293 454 t b s;
#X obj 85 18 inlet;
#X obj 215 26 inlet;
#X obj 61 224 sdGate;
#X obj 88 200 >= 0;
#X obj 61 177 t f f;
#X obj 409 28 inlet;
#X obj 61 154 + 0;
#X obj 51 463 s \$0-toObj;
#X obj 323 563 s \$0-toObj;
#X connect 0 0 2 0;
#X connect 1 0 23 0;
#X connect 2 0 4 0;
#X connect 3 0 4 0;
#X connect 4 0 7 0;
#X connect 5 0 24 0;
#X connect 6 0 12 0;
#X connect 7 0 5 0;
#X connect 7 1 16 0;
#X connect 8 0 1 0;
#X connect 8 1 9 0;
#X connect 9 0 7 1;
#X connect 10 0 7 1;
#X connect 11 0 25 0;
#X connect 12 0 23 0;
#X connect 12 1 15 1;
#X connect 13 0 6 0;
#X connect 13 1 10 0;
#X connect 14 0 11 0;
#X connect 15 0 14 0;
#X connect 16 0 15 0;
#X connect 16 1 14 1;
#X connect 17 0 8 0;
#X connect 18 0 13 0;
#X connect 19 0 3 0;
#X connect 20 0 19 1;
#X connect 21 0 19 0;
#X connect 21 1 20 0;
#X connect 22 0 23 1;
#X connect 23 0 21 0;
#X restore 27 126 pd num_by_ind;
#X obj 13 32 sdPackFilter get_num_by_ind;
#X obj 217 55 sdPackFilter get_num_by_ind_in_range;
#X obj 250 82 sdPackFilter set_num_by_ind_in_range;
#X obj 531 635 outlet;
#X obj 16 180 sdPackFilter get_min_by_ind;
#X obj 87 207 sdPackFilter set_min_by_ind;
#N canvas 0 30 681 722 min_by_ind 0;
#X obj 95 249 r \$0-numProps;
#X obj 56 77 sdUnPack;
#X obj 95 272 sdSetSelector set;
#X msg 35 274 get \$1;
#X obj 56 303 sdList get;
#X obj 149 69 sdUnPack;
#X obj 122 338 sdGate;
#X obj 85 43 t a b;
#X msg 174 314 1;
#X msg 213 313 0;
#X obj 149 92 unpack, f 20;
#X obj 149 38 t a b;
#X obj 322 508 sdPack property;
#X obj 323 484 f;
#X obj 292 448 t b s;
#X obj 85 18 inlet;
#X obj 145 14 inlet;
#X obj 41 432 sdPack get_min;
#X obj 322 532 sdPack set_min;
#X obj 43 221 sdGate;
#X obj 70 197 >= 0;
#X obj 43 174 t f f;
#X obj 489 18 inlet;
#X obj 43 151 + 0;
#X obj 322 557 s \$0-toObj;
#X obj 41 457 s \$0-toObj;
#X connect 0 0 2 0;
#X connect 1 0 23 0;
#X connect 2 0 4 0;
#X connect 3 0 4 0;
#X connect 4 0 6 0;
#X connect 5 0 10 0;
#X connect 6 0 17 0;
#X connect 6 1 14 0;
#X connect 7 0 1 0;
#X connect 7 1 8 0;
#X connect 8 0 6 1;
#X connect 9 0 6 1;
#X connect 10 0 23 0;
#X connect 10 1 13 1;
#X connect 11 0 5 0;
#X connect 11 1 9 0;
#X connect 12 0 18 0;
#X connect 13 0 12 0;
#X connect 14 0 13 0;
#X connect 14 1 12 1;
#X connect 15 0 7 0;
#X connect 16 0 11 0;
#X connect 17 0 25 0;
#X connect 18 0 24 0;
#X connect 19 0 3 0;
#X connect 20 0 19 1;
#X connect 21 0 19 0;
#X connect 21 1 20 0;
#X connect 22 0 23 1;
#X connect 23 0 21 0;
#X restore 16 229 pd min_by_ind;
#X obj 115 497 sdPackFilter send_event_by_ind;
#N canvas 0 0 798 854 events 0;
#X msg 143 257 get \$1;
#X obj 219 253 sdSetSelector set;
#X obj 169 290 sdList get;
#X obj 169 387 outlet;
#X obj 131 62 inlet;
#X msg 169 313 list \$1 0;
#X obj 131 85 sdUnPack;
#X obj 219 228 r \$0-events;
#X obj 405 64 inlet;
#X obj 67 211 sdGate;
#X obj 94 187 >= 0;
#X obj 67 164 t f f;
#X obj 67 141 + 0;
#X connect 0 0 2 0;
#X connect 1 0 2 0;
#X connect 2 0 5 0;
#X connect 4 0 6 0;
#X connect 5 0 3 0;
#X connect 6 0 12 0;
#X connect 7 0 1 0;
#X connect 8 0 12 1;
#X connect 9 0 0 0;
#X connect 10 0 9 1;
#X connect 11 0 9 0;
#X connect 11 1 10 0;
#X connect 12 0 11 0;
#X restore 115 547 pd events;
#X obj 314 291 sdPackFilter get_bool_by_ind;
#X obj 385 318 sdPackFilter set_bool_by_ind;
#X obj 266 180 sdPackFilter get_max_by_ind;
#X obj 296 204 sdPackFilter set_max_by_ind;
#N canvas 0 0 798 854 max_by_ind 0;
#X obj 95 249 r \$0-numProps;
#X obj 56 77 sdUnPack;
#X obj 95 272 sdSetSelector set;
#X msg 35 274 get \$1;
#X obj 56 303 sdList get;
#X obj 149 69 sdUnPack;
#X obj 122 338 sdGate;
#X obj 85 43 t a b;
#X msg 174 314 1;
#X msg 213 313 0;
#X obj 149 92 unpack, f 20;
#X obj 149 38 t a b;
#X obj 322 508 sdPack property;
#X obj 323 484 f;
#X obj 292 448 t b s;
#X obj 85 18 inlet;
#X obj 145 14 inlet;
#X obj 43 221 sdGate;
#X obj 70 197 >= 0;
#X obj 43 174 t f f;
#X obj 489 18 inlet;
#X obj 322 532 sdPack set_max;
#X obj 41 432 sdPack get_max;
#X obj 43 151 + 0;
#X obj 41 457 s \$0-toObj;
#X obj 322 557 s \$0-toObj;
#X connect 0 0 2 0;
#X connect 1 0 23 0;
#X connect 2 0 4 0;
#X connect 3 0 4 0;
#X connect 4 0 6 0;
#X connect 5 0 10 0;
#X connect 6 0 22 0;
#X connect 6 1 14 0;
#X connect 7 0 1 0;
#X connect 7 1 8 0;
#X connect 8 0 6 1;
#X connect 9 0 6 1;
#X connect 10 0 23 0;
#X connect 10 1 13 1;
#X connect 11 0 5 0;
#X connect 11 1 9 0;
#X connect 12 0 21 0;
#X connect 13 0 12 0;
#X connect 14 0 13 0;
#X connect 14 1 12 1;
#X connect 15 0 7 0;
#X connect 16 0 11 0;
#X connect 17 0 3 0;
#X connect 18 0 17 1;
#X connect 19 0 17 0;
#X connect 19 1 18 0;
#X connect 20 0 23 1;
#X connect 21 0 25 0;
#X connect 22 0 24 0;
#X connect 23 0 19 0;
#X restore 266 229 pd max_by_ind;
#N canvas 0 0 798 854 step_by_ind 0;
#X obj 95 249 r \$0-numProps;
#X obj 56 77 sdUnPack;
#X obj 95 272 sdSetSelector set;
#X msg 35 274 get \$1;
#X obj 56 303 sdList get;
#X obj 149 69 sdUnPack;
#X obj 122 338 sdGate;
#X obj 85 43 t a b;
#X msg 174 314 1;
#X msg 213 313 0;
#X obj 149 92 unpack, f 20;
#X obj 149 38 t a b;
#X obj 322 508 sdPack property;
#X obj 323 484 f;
#X obj 292 448 t b s;
#X obj 85 18 inlet;
#X obj 145 14 inlet;
#X obj 43 221 sdGate;
#X obj 70 197 >= 0;
#X obj 43 174 t f f;
#X obj 489 18 inlet;
#X obj 43 151 + 0;
#X obj 322 532 sdPack set_step;
#X obj 41 432 sdPack get_step;
#X obj 322 557 s \$0-toObj;
#X obj 41 457 s \$0-toObj;
#X connect 0 0 2 0;
#X connect 1 0 21 0;
#X connect 2 0 4 0;
#X connect 3 0 4 0;
#X connect 4 0 6 0;
#X connect 5 0 10 0;
#X connect 6 0 23 0;
#X connect 6 1 14 0;
#X connect 7 0 1 0;
#X connect 7 1 8 0;
#X connect 8 0 6 1;
#X connect 9 0 6 1;
#X connect 10 0 21 0;
#X connect 10 1 13 1;
#X connect 11 0 5 0;
#X connect 11 1 9 0;
#X connect 12 0 22 0;
#X connect 13 0 12 0;
#X connect 14 0 13 0;
#X connect 14 1 12 1;
#X connect 15 0 7 0;
#X connect 16 0 11 0;
#X connect 17 0 3 0;
#X connect 18 0 17 1;
#X connect 19 0 17 0;
#X connect 19 1 18 0;
#X connect 20 0 21 1;
#X connect 21 0 19 0;
#X connect 22 0 24 0;
#X connect 23 0 25 0;
#X restore 512 229 pd step_by_ind;
#X obj 512 180 sdPackFilter get_step_by_ind;
#X obj 535 204 sdPackFilter set_step_by_ind;
#X obj 115 570 s \$0-toObj;
#X obj 101 86 r \$0-numShift;
#X obj 328 113 r \$0-numShift;
#X obj 110 233 r \$0-numShift;
#X obj 357 229 r \$0-numShift;
#X obj 618 228 r \$0-numShift;
#N canvas 0 30 1364 736 bool_by_ind 0;
#X obj 61 82 sdUnPack;
#X obj 129 257 sdSetSelector set;
#X msg 51 237 get \$1;
#X obj 90 288 sdList get;
#X obj 164 71 sdUnPack;
#X obj 156 323 sdGate;
#X obj 92 35 t a b;
#X msg 208 299 1;
#X msg 247 298 0;
#X obj 164 94 unpack, f 20;
#X obj 164 40 t a b;
#X obj 227 407 sdPack property;
#X obj 228 383 f;
#X obj 197 347 t b s;
#X obj 85 9 inlet;
#X obj 175 10 inlet;
#X obj 67 211 sdGate;
#X obj 94 187 >= 0;
#X obj 67 164 t f f;
#X obj 499 33 inlet;
#X obj 67 141 + 0;
#X obj 227 456 s \$0-toObj;
#X obj 76 402 s \$0-toObj;
#X obj 129 234 r \$0-boolProps;
#X obj 227 431 sdPack set;
#X obj 76 377 sdPack get;
#X connect 0 0 20 0;
#X connect 1 0 3 0;
#X connect 2 0 3 0;
#X connect 3 0 5 0;
#X connect 4 0 9 0;
#X connect 5 0 25 0;
#X connect 5 1 13 0;
#X connect 6 0 0 0;
#X connect 6 1 7 0;
#X connect 7 0 5 1;
#X connect 8 0 5 1;
#X connect 9 0 20 0;
#X connect 9 1 12 1;
#X connect 10 0 4 0;
#X connect 10 1 8 0;
#X connect 11 0 24 0;
#X connect 12 0 11 0;
#X connect 13 0 12 0;
#X connect 13 1 11 1;
#X connect 14 0 6 0;
#X connect 15 0 10 0;
#X connect 16 0 2 0;
#X connect 17 0 16 1;
#X connect 18 0 16 0;
#X connect 18 1 17 0;
#X connect 19 0 20 1;
#X connect 20 0 18 0;
#X connect 23 0 1 0;
#X connect 24 0 21 0;
#X connect 25 0 22 0;
#X restore 293 344 pd bool_by_ind;
#X obj 388 343 r \$0-boolShift;
#N canvas 0 30 681 736 sym_by_ind 0;
#X obj 61 82 sdUnPack;
#X obj 129 257 sdSetSelector set;
#X msg 51 237 get \$1;
#X obj 90 288 sdList get;
#X obj 164 71 sdUnPack;
#X obj 156 323 sdGate;
#X obj 92 35 t a b;
#X msg 208 299 1;
#X msg 247 298 0;
#X obj 164 40 t a b;
#X obj 227 407 sdPack property;
#X obj 197 347 t b s;
#X obj 85 9 inlet;
#X obj 175 10 inlet;
#X obj 67 211 sdGate;
#X obj 94 187 >= 0;
#X obj 67 164 t f f;
#X obj 499 33 inlet;
#X obj 67 141 + 0;
#X obj 227 456 s \$0-toObj;
#X obj 76 402 s \$0-toObj;
#X obj 129 234 r \$0-symProps;
#X obj 76 377 sdPack get;
#X obj 227 431 sdPack set;
#X obj 228 383 symbol;
#X obj 164 94 unpack f s, f 20;
#X connect 0 0 18 0;
#X connect 1 0 3 0;
#X connect 2 0 3 0;
#X connect 3 0 5 0;
#X connect 4 0 25 0;
#X connect 5 0 22 0;
#X connect 5 1 11 0;
#X connect 6 0 0 0;
#X connect 6 1 7 0;
#X connect 7 0 5 1;
#X connect 8 0 5 1;
#X connect 9 0 4 0;
#X connect 9 1 8 0;
#X connect 10 0 23 0;
#X connect 11 0 24 0;
#X connect 11 1 10 1;
#X connect 12 0 6 0;
#X connect 13 0 9 0;
#X connect 14 0 2 0;
#X connect 15 0 14 1;
#X connect 16 0 14 0;
#X connect 16 1 15 0;
#X connect 17 0 18 1;
#X connect 18 0 16 0;
#X connect 21 0 1 0;
#X connect 22 0 20 0;
#X connect 23 0 19 0;
#X connect 24 0 10 0;
#X connect 25 0 18 0;
#X connect 25 1 24 1;
#X restore 19 350 pd sym_by_ind;
#X obj 114 349 r \$0-symShift;
#X obj 195 549 r \$0-eventShift;
#N canvas 0 0 798 854 num_by_ind 0;
#X obj 129 234 r \$0-numProps;
#X obj 129 257 sdSetSelector set;
#X msg 51 237 get \$1;
#X obj 90 288 sdList get;
#X obj 164 71 sdUnPack;
#X obj 164 94 unpack, f 20;
#X obj 164 40 t a b;
#X obj 190 467 sdPack property;
#X obj 190 393 f;
#X obj 190 369 t b s;
#X obj 175 10 inlet;
#X obj 190 491 sdPack set_in_range;
#X obj 67 211 sdGate;
#X obj 94 187 >= 0;
#X obj 67 164 t f f;
#X obj 450 12 inlet;
#X obj 67 141 + 0;
#X obj 190 516 s \$0-toObj;
#X obj 190 346 t s s;
#N canvas 0 0 798 854 only 0;
#X obj 272 261 - 0;
#N canvas 0 0 798 854 get 0;
#X obj 191 237 r \$0-prop-prev;
#X obj 299 149 r \$0-dest;
#X listbox 299 172 20 0 0 0 - - - 0;
#X obj 342 31 loadbang;
#X obj 342 77 sdReplace \$0;
#X obj 199 99 pack s s;
#X obj 412 30 bng 15 250 50 0 empty empty empty 17 7 0 10 #fcfcfc #000000
#000000;
#X obj 199 175 send;
#X obj 199 148 sdPackFromHuman;
#X msg 342 54 list %0-prop-prev;
#X obj 191 260 sdPackFilter info;
#X obj 191 283 sdUnPack;
#X obj 191 306 sdPackFilter range_info;
#X obj 191 329 sdUnPack;
#X obj 326 330 sdUnPack;
#X msg 199 122 list get_with_range ( \$1 out ( \$2 ) );
#X obj 191 352 unpack s f f f;
#X floatatom 155 399 5 0 0 0 - - - 0;
#X floatatom 193 399 5 0 0 0 - - - 0;
#X floatatom 388 360 5 0 0 0 - - - 0;
#X obj 247 388 expr ($f1-$f2)/($f3-$f2);
#X floatatom 247 411 5 0 0 0 - - - 0;
#X obj 80 28 inlet property;
#X obj 362 413 outlet;
#X connect 0 0 10 0;
#X connect 1 0 2 0;
#X connect 1 0 7 1;
#X connect 3 0 9 0;
#X connect 4 0 5 1;
#X connect 5 0 15 0;
#X connect 6 0 9 0;
#X connect 8 0 7 0;
#X connect 9 0 4 0;
#X connect 10 0 11 0;
#X connect 11 0 12 0;
#X connect 12 0 13 0;
#X connect 12 1 14 0;
#X connect 13 0 16 0;
#X connect 14 0 19 0;
#X connect 14 0 20 0;
#X connect 15 0 8 0;
#X connect 16 1 17 0;
#X connect 16 1 20 1;
#X connect 16 2 18 0;
#X connect 16 2 20 2;
#X connect 20 0 21 0;
#X connect 20 0 23 0;
#X connect 22 0 5 0;
#X restore 317 220 pd get current_value;
#X obj 239 331 sdGate;
#X obj 211 240 t f f;
#X floatatom 405 320 5 0 0 0 - - - 0;
#X obj 272 284 abs;
#X floatatom 175 291 5 0 0 0 - - - 0;
#X obj 72 31 inlet;
#X obj 298 37 inlet property;
#X obj 239 354 outlet;
#X obj 272 308 < 0.05;
#X obj 570 35 inlet ctrl res;
#X connect 0 0 5 0;
#X connect 1 0 0 1;
#X connect 2 0 9 0;
#X connect 3 0 2 0;
#X connect 3 0 6 0;
#X connect 3 1 0 0;
#X connect 5 0 4 0;
#X connect 5 0 10 0;
#X connect 7 0 3 0;
#X connect 8 0 1 0;
#X connect 10 0 2 1;
#X connect 11 0 10 1;
#X restore 190 417 pd only change if no jump;
#X f 9;
#X obj 597 13 inlet ctrl res;
#X connect 0 0 1 0;
#X connect 1 0 3 0;
#X connect 2 0 3 0;
#X connect 3 0 18 0;
#X connect 4 0 5 0;
#X connect 5 0 16 0;
#X connect 5 1 8 1;
#X connect 6 0 4 0;
#X connect 7 0 11 0;
#X connect 8 0 19 0;
#X connect 9 0 8 0;
#X connect 9 1 19 1;
#X connect 10 0 6 0;
#X connect 11 0 17 0;
#X connect 12 0 2 0;
#X connect 13 0 12 1;
#X connect 14 0 12 0;
#X connect 14 1 13 0;
#X connect 15 0 16 1;
#X connect 16 0 14 0;
#X connect 18 0 9 0;
#X connect 18 1 7 1;
#X connect 19 0 7 0;
#X connect 20 0 19 2;
#X restore 493 103 pd num_by_ind;
#X obj 537 74 r \$0-numShift;
#X obj 520 48 sdPackFilter set_num_by_ind_from_ctrl;
#X obj 586 104 r \$0-ctrl_res;
#X obj 723 112 t a;
#X obj 709 257 t a;
#X connect 0 0 6 0;
#X connect 1 0 31 0;
#X connect 1 1 2 0;
#X connect 2 0 31 1;
#X connect 2 1 15 0;
#X connect 4 0 5 1;
#X connect 4 1 7 0;
#X connect 6 0 5 0;
#X connect 6 1 4 0;
#X connect 7 0 3 0;
#X connect 7 1 8 0;
#X connect 8 0 3 1;
#X connect 8 1 36 0;
#X connect 10 0 12 0;
#X connect 10 1 11 0;
#X connect 11 0 12 1;
#X connect 11 1 17 0;
#X connect 13 0 14 0;
#X connect 13 1 9 0;
#X connect 14 0 23 0;
#X connect 15 0 29 0;
#X connect 15 1 16 0;
#X connect 16 0 29 1;
#X connect 16 1 13 0;
#X connect 17 0 19 0;
#X connect 17 1 18 0;
#X connect 18 0 19 1;
#X connect 18 1 21 0;
#X connect 21 0 20 0;
#X connect 21 1 22 0;
#X connect 22 0 20 1;
#X connect 22 1 39 0;
#X connect 24 0 5 2;
#X connect 25 0 3 2;
#X connect 26 0 12 2;
#X connect 27 0 19 2;
#X connect 28 0 20 2;
#X connect 30 0 29 2;
#X connect 32 0 31 2;
#X connect 33 0 14 1;
#X connect 35 0 34 1;
#X connect 36 0 34 0;
#X connect 36 1 38 0;
#X connect 37 0 34 2;
#X connect 38 0 10 0;
#X connect 39 0 1 0;
#X restore 36 241 pd generic msgs -> dest;
#X obj 36 264 sdPackFilter send;
#X obj 36 287 sdUnPack;
#X obj 102 482 r \$0-symProps;
#N canvas 0 30 681 736 updateInstr 0;
#X obj 107 51 inlet;
#X obj 157 117 t a b, f 21;
#X obj 278 328 t a a;
#X obj 305 690 outlet;
#X obj 311 430 unpack f f f;
#X obj 394 612 outlet;
#X obj 721 692 outlet;
#X obj 664 451 route bang;
#X obj 96 80 t b a;
#X msg 244 544 clear;
#X msg 463 549 clear;
#X obj 664 428 sdUnPack;
#X obj 157 142 sdUnPack;
#X obj 429 477 sdGate;
#X obj 278 456 sdGate;
#X obj 177 232 sdData;
#X obj 182 174 t b a;
#X obj 211 200 sdSetSelector set;
#X msg 128 201 serialize;
#X obj 311 381 route float symbol list bang;
#X msg 363 405 0 1;
#X msg 311 405 1 0;
#X msg 411 406 0 0;
#X msg 522 485 error: unable to determine property type;
#X obj 521 462 t b;
#X obj 311 357 sdUnPack;
#X obj 244 567 sdList;
#X obj 237 486 sdUnPack;
#X obj 438 503 sdUnPack;
#X obj 394 583 sdList;
#X obj 527 511 print \$1;
#X obj 443 33 inlet;
#X obj 255 256 sdPackFilter range_info;
#X obj 373 277 sdPackFilter out events;
#X obj 650 153 print RANGE;
#X obj 255 279 sdUnPack;
#X obj 144 343 unpack s f f f;
#X obj 171 374 expr $f1==0 && $f2==1 && $f3==1, f 17;
#X obj 138 418 sdGate;
#X obj 664 326 t a;
#X obj 37 689 outlet;
#X msg 147 624 clear;
#X obj 79 459 t b b b;
#X obj 656 273 t a;
#X obj 42 648 sdList bang find;
#X obj 244 590 t s s;
#X obj 304 633 sdGate;
#X obj 289 662 sdList;
#X msg 383 647 clear;
#X obj 53 509 t b b;
#X msg 59 619 find \$1;
#X msg 93 495 serialize;
#X obj 337 599 == -1;
#X connect 0 0 8 0;
#X connect 1 0 12 0;
#X connect 1 1 43 0;
#X connect 2 0 14 0;
#X connect 2 1 25 0;
#X connect 4 0 14 1;
#X connect 4 1 13 1;
#X connect 7 1 6 0;
#X connect 8 0 42 0;
#X connect 8 1 1 0;
#X connect 9 0 26 0;
#X connect 10 0 29 0;
#X connect 11 0 7 0;
#X connect 12 0 16 0;
#X connect 13 0 28 0;
#X connect 14 0 27 0;
#X connect 14 1 13 0;
#X connect 15 0 32 0;
#X connect 16 0 18 0;
#X connect 16 1 17 0;
#X connect 17 0 15 0;
#X connect 18 0 15 0;
#X connect 19 0 21 0;
#X connect 19 1 20 0;
#X connect 19 2 20 0;
#X connect 19 3 20 0;
#X connect 19 4 22 0;
#X connect 19 4 24 0;
#X connect 20 0 4 0;
#X connect 21 0 4 0;
#X connect 22 0 4 0;
#X connect 23 0 30 0;
#X connect 24 0 23 0;
#X connect 25 0 19 0;
#X connect 26 0 45 0;
#X connect 27 2 26 1;
#X connect 28 2 29 1;
#X connect 29 0 5 0;
#X connect 32 0 35 0;
#X connect 32 1 33 0;
#X connect 33 0 11 0;
#X connect 33 1 2 0;
#X connect 35 0 36 0;
#X connect 36 0 38 0;
#X connect 36 1 37 0;
#X connect 36 2 37 1;
#X connect 36 3 37 2;
#X connect 37 0 38 1;
#X connect 38 0 44 1;
#X connect 39 0 9 0;
#X connect 39 0 10 0;
#X connect 39 0 41 0;
#X connect 39 0 48 0;
#X connect 41 0 44 0;
#X connect 42 0 49 0;
#X connect 42 1 51 0;
#X connect 42 2 29 0;
#X connect 43 0 39 0;
#X connect 44 0 40 0;
#X connect 44 1 52 0;
#X connect 45 0 46 0;
#X connect 45 1 50 0;
#X connect 46 0 47 1;
#X connect 47 0 3 0;
#X connect 48 0 47 0;
#X connect 49 0 44 0;
#X connect 49 1 47 0;
#X connect 50 0 44 0;
#X connect 51 0 26 0;
#X connect 52 0 46 1;
#X restore 300 438 pd updateInstr;
#X obj 300 559 sdSetSelector priv.set;
#X obj 300 583 s \$0-boolProps_rcv;
#X obj 427 113 sdPropertyList boolProps \$0;
#X obj 117 505 r \$0-boolProps;
#X obj 276 181 t b a;
#X obj 456 195 sdProperty numShift \$0;
#X obj 481 352 s \$0-fromProperties;
#X obj 557 530 r \$0-numShift;
#X floatatom 576 561 5 0 0 0 - - - 0;
#X obj 497 675 outlet to_obj;
#X obj 17 672 outlet;
#X obj 25 645 r \$0-fromProperties;
#X obj 198 16 inlet generic events -> dest;
#X obj 36 312 s \$0-toObj;
#X obj 499 646 r \$0-toObj;
#X obj 409 87 sdPropertySym dest \$0 \$1 update;
#X obj 466 221 sdProperty boolShift \$0;
#X obj 476 246 sdProperty symShift \$0;
#X obj 498 270 sdPropertyList events \$0;
#X obj 557 459 r \$0-events;
#X obj 557 482 l2s;
#X symbolatom 557 505 10 0 0 0 - - - 0;
#X obj 16 585 sdSetSelector priv.set;
#X obj 16 609 s \$0-events_rcv;
#X obj 512 296 sdProperty eventShift \$0;
#X floatatom 572 620 5 0 0 0 - - - 0;
#X obj 553 589 r \$0-eventShift;
#X obj 230 205 sdSetSelector priv.set;
#X obj 230 229 s \$0-events_rcv;
#X obj 535 322 sdProperty ctrl_res \$0 0.05;
#X connect 0 0 44 0;
#X connect 1 0 35 0;
#X connect 1 1 7 0;
#X connect 2 0 33 0;
#X connect 4 0 22 0;
#X connect 5 0 15 0;
#X connect 5 1 4 0;
#X connect 7 0 35 0;
#X connect 7 1 34 0;
#X connect 9 0 8 0;
#X connect 10 0 3 0;
#X connect 11 0 14 0;
#X connect 11 1 6 0;
#X connect 12 0 14 2;
#X connect 14 0 51 0;
#X connect 14 1 13 0;
#X connect 15 0 14 1;
#X connect 15 1 19 0;
#X connect 18 0 17 0;
#X connect 19 0 16 0;
#X connect 19 1 28 0;
#X connect 20 0 21 0;
#X connect 23 0 11 0;
#X connect 24 0 25 0;
#X connect 25 0 26 0;
#X connect 25 1 5 0;
#X connect 26 0 42 0;
#X connect 27 0 14 3;
#X connect 28 0 29 0;
#X connect 28 1 18 0;
#X connect 28 2 20 0;
#X connect 29 0 30 0;
#X connect 31 0 35 0;
#X connect 31 1 1 0;
#X connect 32 0 14 4;
#X connect 33 0 56 0;
#X connect 33 1 5 1;
#X connect 34 0 35 0;
#X connect 34 1 45 0;
#X connect 36 0 37 0;
#X connect 40 0 39 0;
#X connect 41 0 24 0;
#X connect 43 0 38 0;
#X connect 44 0 35 0;
#X connect 44 1 31 0;
#X connect 45 0 35 0;
#X connect 45 1 46 0;
#X connect 46 0 35 0;
#X connect 46 1 47 0;
#X connect 47 0 35 0;
#X connect 47 1 53 0;
#X connect 48 0 49 0;
#X connect 49 0 50 0;
#X connect 51 0 52 0;
#X connect 53 0 35 0;
#X connect 53 1 58 0;
#X connect 55 0 54 0;
#X connect 56 0 57 0;
#X connect 58 0 35 0;
