#N canvas 0 30 681 736 10;
#X obj 22 74 hradio 12 1 0 3 \$0-objRadio \$0-objRadio_rcv empty 0
-8 0 10 -262144 -1 -1 0;
#X text 11 57 select obj.:;
#X obj 597 443 r \$0-objRadio;
#X symbolatom 22 91 27 0 0 0 - #0-objName_rcv #0-objName;
#X obj 141 131 nbx 6 14 -1e+37 1e+37 0 0 \$0-gui.numProp0 \$0-gui.numProp0_rcv
empty 0 -8 1 8 -262144 -1 -1 0 256;
#X obj 141 160 nbx 6 14 -1e+37 1e+37 0 0 \$0-gui.numProp1 \$0-gui.numProp1_rcv
empty 0 -8 1 8 -262144 -1 -1 0 256;
#X obj 141 189 nbx 6 14 -1e+37 1e+37 0 0 \$0-gui.numProp2 \$0-gui.numProp2_rcv
empty 0 -8 1 8 -262144 -1 -1 0 256;
#X obj 29 131 cnv 15 110 13 empty \$0-gui.numPropName0_rcv pitch 1
8 0 10 -228856 -66577 0;
#X text 12 109 numeric properties:;
#X obj 29 160 cnv 15 110 13 empty \$0-gui.numPropName1_rcv volume 1
8 0 10 -228856 -66577 0;
#X obj 29 189 cnv 15 110 13 empty \$0-gui.numPropName2_rcv - 1 8 0
10 -228856 -66577 0;
#X obj 22 381 cnv 15 120 13 empty \$0-gui.symPropName0_rcv dest 1 8
0 10 -228856 -66577 0;
#X symbolatom 148 380 25 0 0 0 - #0-gui.symProp0_rcv #0-gui.symProp0
;
#X obj 22 402 cnv 15 120 13 empty \$0-gui.symPropName1_rcv - 1 8 0
10 -228856 -66577 0;
#X symbolatom 148 400 25 0 0 0 - #0-gui.symProp1_rcv #0-gui.symProp1
;
#X obj 22 422 cnv 15 120 13 empty \$0-gui.symPropName2_rcv - 1 8 0
10 -228856 -66577 0;
#X symbolatom 148 420 25 0 0 0 - #0-gui.symProp2_rcv #0-gui.symProp2
;
#X text 12 504 send messages to obj:;
#X text 12 571 connections:;
#X text 29 589 ->;
#X symbolatom 50 591 36 0 0 0 - #0-gui.symOut_rcv #0-gui.symOut;
#X obj 93 573 bng 15 250 50 0 \$0-gui.clearOutput empty clear 17 7
0 10 -262144 -1 -1;
#X obj 141 218 nbx 6 14 -1e+37 1e+37 0 0 \$0-gui.numProp3 \$0-gui.numProp3_rcv
empty 0 -8 1 8 -262144 -1 -1 0 256;
#X obj 29 218 cnv 15 110 13 empty \$0-gui.numPropName3_rcv - 1 8 0
10 -228856 -66577 0;
#X obj 22 442 cnv 15 120 13 empty \$0-gui.symPropName3_rcv - 1 8 0
10 -228856 -66577 0;
#X symbolatom 148 440 25 0 0 0 - #0-gui.symProp3_rcv #0-gui.symProp3
;
#X obj 141 247 nbx 6 14 -1e+37 1e+37 0 0 \$0-gui.numProp4 \$0-gui.numProp4_rcv
empty 0 -8 1 8 -262144 -1 -1 0 256;
#X obj 29 248 cnv 15 110 13 empty \$0-gui.numPropName4_rcv - 1 8 0
10 -228856 -66577 0;
#X obj 141 276 nbx 6 14 -1e+37 1e+37 0 0 \$0-gui.numProp5 \$0-gui.numProp5_rcv
empty 0 -8 1 8 -262144 -1 -1 0 256;
#X obj 29 277 cnv 15 110 13 empty \$0-gui.numPropName5_rcv - 1 8 0
10 -228856 -66577 0;
#X obj 141 305 nbx 6 14 -1e+37 1e+37 0 0 \$0-gui.numProp6 \$0-gui.numProp6_rcv
empty 0 -8 1 8 -262144 -1 -1 0 256;
#X obj 29 305 cnv 15 110 13 empty \$0-gui.numPropName6_rcv - 1 8 0
10 -228856 -66577 0;
#X obj 141 334 nbx 6 14 -1e+37 1e+37 0 0 \$0-gui.numProp7 \$0-gui.numProp7_rcv
empty 0 -8 1 8 -262144 -1 -1 0 256;
#X obj 29 334 cnv 15 110 13 empty \$0-gui.numPropName7_rcv - 1 8 0
10 -228856 -66577 0;
#X text 12 365 symbol (and list) properties:;
#X obj 501 50 inlet;
#X obj 21 25 hradio 12 1 0 2 \$0-groupRadio \$0-groupRadio_rcv empty
0 -8 0 10 -262144 -1 -1 1;
#X symbolatom 21 42 27 0 0 0 - #0-groupName_rcv #0-groupName;
#X obj 598 391 r \$0-groupRadio;
#N canvas 0 30 681 736 properties 0;
#X obj 21 23 inlet;
#X obj 102 166 sdUnPack;
#X obj 122 357 list append \$0;
#X obj 233 189 t a b;
#X obj 301 247 l2s;
#X obj 235 274 list append;
#X obj 233 215 list split 1;
#X obj 235 298 list append \$0;
#X msg 235 322 \; \$3-gui.symProp\$1_rcv set \$2 \;, f 14;
#X obj 102 141 sdFilter update_num;
#X obj 233 141 sdFilter update_sym;
#X obj 233 165 sdUnPack;
#X obj 360 166 sdUnPack;
#X obj 360 141 sdFilter update_num_range;
#X obj 523 141 sdFilter out;
#X obj 523 164 sdUnPack;
#X obj 523 187 l2s;
#X msg 517 333 \; \$2-gui.symOut_rcv set \$1 \;;
#X obj 517 310 list append \$0;
#X obj 606 140 sdFilter events;
#N canvas 0 30 681 736 events 0;
#X obj 261 24 inlet;
#X msg 131 191 get \$1;
#X msg 353 148 clear;
#X obj 321 126 t a b;
#X obj 301 170 sdSetSelector set;
#X obj 218 250 l2s;
#X obj 292 102 t b a;
#X obj 43 114 r \$0-gui.event.radio;
#X obj 218 296 s \$0-gui.events_rcv;
#X obj 218 273 sdSetSelector label;
#X obj 130 167 f;
#X obj 261 47 t b a;
#X obj 157 225 sdList get bang count;
#X obj 306 429 s \$0-gui.event.radio_rcv;
#X msg 220 149 count \, bang;
#X obj 458 39 inlet;
#X obj 497 356 route 0;
#X obj 429 317 t f f;
#X obj 157 325 s \$0-gui.event.name_rcv;
#X obj 495 429 s \$0-gui.event.name_rcv;
#X msg 498 391 set -;
#X msg 309 376 number \$1 \, 0;
#X connect 0 0 11 0;
#X connect 1 0 12 0;
#X connect 2 0 12 0;
#X connect 3 0 4 0;
#X connect 3 1 2 0;
#X connect 4 0 12 0;
#X connect 5 0 9 0;
#X connect 6 0 14 0;
#X connect 6 1 3 0;
#X connect 7 0 10 0;
#X connect 9 0 8 0;
#X connect 10 0 1 0;
#X connect 11 0 10 0;
#X connect 11 1 6 0;
#X connect 12 0 18 0;
#X connect 12 1 5 0;
#X connect 12 2 17 0;
#X connect 14 0 12 0;
#X connect 15 0 6 0;
#X connect 16 0 20 0;
#X connect 17 0 21 0;
#X connect 17 1 16 0;
#X connect 20 0 19 0;
#X connect 21 0 13 0;
#X restore 606 235 pd events;
#X obj 606 205 sdUnPack;
#X obj 716 129 inlet;
#X text 704 103 init;
#X obj 407 439 list prepend \$0;
#X obj 20 92 sdFilter update_bool;
#X obj 20 115 sdUnPack;
#X obj 20 417 list append \$0;
#X msg 20 441 \; \$3-gui.bool_prop\$1_rcv set \$2 \;, f 14;
#X obj 215 13 inlet num shift;
#X obj 102 190 unpack;
#X obj 140 235 - 0;
#X obj 102 213 swap;
#X obj 95 282 sdGate;
#X obj 122 258 >= 0;
#X obj 360 245 list split 1;
#X obj 360 268 t b f;
#X obj 407 414 list;
#X obj 360 343 sdGate;
#X obj 422 289 - 0;
#X obj 375 318 >= 0;
#X obj 395 387 f;
#X obj 215 36 t f f, f 35;
#X obj 469 289 t l, f 5;
#X msg 407 464 \; \$1-gui.num_min\$2_rcv set \$4 \; \$1-gui.num_max\$2_rcv
set \$5 \; \$1-gui.num_step\$2_rcv set \$6 \;;
#X obj 141 305 swap;
#X msg 122 381 \; \$3-gui.numProp\$1_rcv set \$2 \;, f 17;
#X obj 141 328 pack;
#N canvas 0 30 681 736 -> 0;
#X obj 44 304 list;
#X obj 92 66 list trim;
#X obj 72 255 route set;
#X obj 72 278 f;
#X obj 44 327 expr $f1/($f3-$f2);
#X obj 137 256 r \$0-gui.num_max0_rcv;
#X obj 137 279 route set;
#X obj 137 302 f;
#X obj 72 232 r \$0-gui.num_min0_rcv;
#X msg 44 350 set \$1;
#X obj 44 372 s \$0-gui.scroll.numProp0_rcv;
#X obj 29 12 inlet;
#X obj 247 312 list;
#X obj 275 263 route set;
#X obj 275 286 f;
#X obj 247 335 expr $f1/($f3-$f2);
#X obj 340 287 route set;
#X obj 340 310 f;
#X msg 247 358 set \$1;
#X obj 275 240 r \$0-gui.num_min1_rcv;
#X obj 340 264 r \$0-gui.num_max1_rcv;
#X obj 247 380 s \$0-gui.scroll.numProp1_rcv;
#X obj 468 307 list;
#X obj 496 258 route set;
#X obj 496 281 f;
#X obj 468 330 expr $f1/($f3-$f2);
#X obj 561 282 route set;
#X obj 561 305 f;
#X msg 468 353 set \$1;
#X obj 92 90 route 0 1 2 3, f 80;
#X obj 668 307 list;
#X obj 696 258 route set;
#X obj 696 281 f;
#X obj 668 330 expr $f1/($f3-$f2);
#X obj 761 282 route set;
#X obj 761 305 f;
#X msg 668 353 set \$1;
#X obj 496 235 r \$0-gui.num_min2_rcv;
#X obj 561 259 r \$0-gui.num_max2_rcv;
#X obj 468 375 s \$0-gui.scroll.numProp2_rcv;
#X obj 696 235 r \$0-gui.num_min3_rcv;
#X obj 761 259 r \$0-gui.num_max3_rcv;
#X obj 668 375 s \$0-gui.scroll.numProp3_rcv;
#X obj 54 624 list;
#X obj 82 575 route set;
#X obj 82 598 f;
#X obj 54 647 expr $f1/($f3-$f2);
#X obj 147 599 route set;
#X obj 147 622 f;
#X msg 54 670 set \$1;
#X obj 257 632 list;
#X obj 285 583 route set;
#X obj 285 606 f;
#X obj 257 655 expr $f1/($f3-$f2);
#X obj 350 607 route set;
#X obj 350 630 f;
#X msg 257 678 set \$1;
#X obj 478 627 list;
#X obj 506 578 route set;
#X obj 506 601 f;
#X obj 478 650 expr $f1/($f3-$f2);
#X obj 571 602 route set;
#X obj 571 625 f;
#X msg 478 673 set \$1;
#X obj 678 627 list;
#X obj 706 578 route set;
#X obj 706 601 f;
#X obj 678 650 expr $f1/($f3-$f2);
#X msg 678 673 set \$1;
#X obj 58 476 route 4 5 6 7, f 80;
#X obj 82 552 r \$0-gui.num_min4_rcv;
#X obj 147 576 r \$0-gui.num_max4_rcv;
#X obj 54 692 s \$0-gui.scroll.numProp4_rcv;
#X obj 285 560 r \$0-gui.num_min5_rcv;
#X obj 350 584 r \$0-gui.num_max5_rcv;
#X obj 257 700 s \$0-gui.scroll.numProp5_rcv;
#X obj 506 555 r \$0-gui.num_min6_rcv;
#X obj 571 579 r \$0-gui.num_max6_rcv;
#X obj 478 695 s \$0-gui.scroll.numProp6_rcv;
#X obj 706 555 r \$0-gui.num_min7_rcv;
#X obj 678 695 s \$0-gui.scroll.numProp7_rcv;
#X obj 771 602 route set;
#X obj 771 625 f;
#X obj 771 579 r \$0-gui.num_max7_rcv;
#X connect 0 0 4 0;
#X connect 1 0 29 0;
#X connect 2 0 3 0;
#X connect 2 1 4 1;
#X connect 3 0 4 1;
#X connect 4 0 9 0;
#X connect 5 0 6 0;
#X connect 6 0 7 0;
#X connect 6 1 4 2;
#X connect 7 0 4 2;
#X connect 8 0 2 0;
#X connect 9 0 10 0;
#X connect 11 0 1 0;
#X connect 12 0 15 0;
#X connect 13 0 14 0;
#X connect 13 1 15 1;
#X connect 14 0 15 1;
#X connect 15 0 18 0;
#X connect 16 0 17 0;
#X connect 16 1 15 2;
#X connect 17 0 15 2;
#X connect 18 0 21 0;
#X connect 19 0 13 0;
#X connect 20 0 16 0;
#X connect 22 0 25 0;
#X connect 23 0 24 0;
#X connect 23 1 25 1;
#X connect 24 0 25 1;
#X connect 25 0 28 0;
#X connect 26 0 27 0;
#X connect 26 1 25 2;
#X connect 27 0 25 2;
#X connect 28 0 39 0;
#X connect 29 0 0 0;
#X connect 29 1 12 0;
#X connect 29 2 22 0;
#X connect 29 3 30 0;
#X connect 29 4 69 0;
#X connect 30 0 33 0;
#X connect 31 0 32 0;
#X connect 31 1 33 1;
#X connect 32 0 33 1;
#X connect 33 0 36 0;
#X connect 34 0 35 0;
#X connect 34 1 33 2;
#X connect 35 0 33 2;
#X connect 36 0 42 0;
#X connect 37 0 23 0;
#X connect 38 0 26 0;
#X connect 40 0 31 0;
#X connect 41 0 34 0;
#X connect 43 0 46 0;
#X connect 44 0 45 0;
#X connect 44 1 46 1;
#X connect 45 0 46 1;
#X connect 46 0 49 0;
#X connect 47 0 48 0;
#X connect 47 1 46 2;
#X connect 48 0 46 2;
#X connect 49 0 72 0;
#X connect 50 0 53 0;
#X connect 51 0 52 0;
#X connect 51 1 53 1;
#X connect 52 0 53 1;
#X connect 53 0 56 0;
#X connect 54 0 55 0;
#X connect 54 1 53 2;
#X connect 55 0 53 2;
#X connect 56 0 75 0;
#X connect 57 0 60 0;
#X connect 58 0 59 0;
#X connect 58 1 60 1;
#X connect 59 0 60 1;
#X connect 60 0 63 0;
#X connect 61 0 62 0;
#X connect 61 1 60 2;
#X connect 62 0 60 2;
#X connect 63 0 78 0;
#X connect 64 0 67 0;
#X connect 65 0 66 0;
#X connect 65 1 67 1;
#X connect 66 0 67 1;
#X connect 67 0 68 0;
#X connect 68 0 80 0;
#X connect 69 0 43 0;
#X connect 69 1 50 0;
#X connect 69 2 57 0;
#X connect 69 3 64 0;
#X connect 70 0 44 0;
#X connect 71 0 47 0;
#X connect 73 0 51 0;
#X connect 74 0 54 0;
#X connect 76 0 58 0;
#X connect 77 0 61 0;
#X connect 79 0 65 0;
#X connect 81 0 82 0;
#X connect 82 0 67 2;
#X connect 83 0 81 0;
#X restore 229 524 pd -> gui scroll;
#X connect 0 0 25 0;
#X connect 1 0 30 0;
#X connect 2 0 46 0;
#X connect 3 0 6 0;
#X connect 3 1 4 0;
#X connect 4 0 5 1;
#X connect 5 0 7 0;
#X connect 6 0 5 0;
#X connect 6 1 4 0;
#X connect 7 0 8 0;
#X connect 9 0 1 0;
#X connect 9 1 10 0;
#X connect 10 0 11 0;
#X connect 10 1 13 0;
#X connect 11 0 3 0;
#X connect 12 0 35 0;
#X connect 13 0 12 0;
#X connect 13 1 14 0;
#X connect 14 0 15 0;
#X connect 14 1 19 0;
#X connect 15 0 16 0;
#X connect 16 0 18 0;
#X connect 18 0 17 0;
#X connect 19 0 21 0;
#X connect 21 0 20 0;
#X connect 22 0 20 1;
#X connect 24 0 44 0;
#X connect 25 0 26 0;
#X connect 25 1 9 0;
#X connect 26 0 27 0;
#X connect 27 0 28 0;
#X connect 29 0 42 0;
#X connect 30 0 32 0;
#X connect 30 1 32 1;
#X connect 31 0 34 0;
#X connect 31 0 45 1;
#X connect 32 0 33 0;
#X connect 32 1 31 0;
#X connect 33 0 45 0;
#X connect 34 0 33 1;
#X connect 35 0 36 0;
#X connect 35 1 43 0;
#X connect 36 0 38 0;
#X connect 36 1 39 0;
#X connect 37 0 24 0;
#X connect 38 0 41 0;
#X connect 39 0 40 0;
#X connect 39 0 41 1;
#X connect 40 0 38 1;
#X connect 41 0 37 0;
#X connect 42 0 31 1;
#X connect 42 1 39 1;
#X connect 43 0 37 1;
#X connect 45 0 47 0;
#X connect 45 1 47 1;
#X connect 47 0 2 0;
#X connect 47 0 48 0;
#X restore 716 309 pd properties -> gui;
#N canvas 0 30 681 722 gui.numProps 0;
#X obj 82 533 r \$0-gui.num_shift;
#X obj 34 628 sdPack set_num_by_ind;
#X obj 34 604 pack;
#X obj 33 580 swap;
#X obj 35 11 r \$0-gui.numProp0;
#X obj 61 559 - 0;
#X obj 34 651 s \$1;
#X obj 35 35 pack 0 0;
#X obj 27 525 unpack;
#X obj 40 64 r \$0-gui.numProp1;
#X obj 40 87 pack 0 1;
#X obj 45 112 r \$0-gui.numProp2;
#X obj 45 136 pack 0 2;
#X obj 50 163 r \$0-gui.numProp3;
#X obj 50 186 pack 0 3;
#X obj 59 219 r \$0-gui.numProp4;
#X obj 64 272 r \$0-gui.numProp5;
#X obj 69 320 r \$0-gui.numProp6;
#X obj 74 371 r \$0-gui.numProp7;
#X obj 59 243 pack 0 4;
#X obj 64 295 pack 0 5;
#X obj 69 344 pack 0 6;
#X obj 73 394 pack 0 7;
#X obj 277 534 r \$0-gui.num_shift;
#X obj 229 605 pack;
#X obj 228 581 swap;
#X obj 256 560 - 0;
#X obj 229 652 s \$1;
#X obj 230 36 pack 0 0;
#X obj 222 526 unpack;
#X obj 235 88 pack 0 1;
#X obj 240 137 pack 0 2;
#X obj 245 187 pack 0 3;
#X obj 254 244 pack 0 4;
#X obj 259 296 pack 0 5;
#X obj 264 345 pack 0 6;
#X obj 268 395 pack 0 7;
#X obj 230 12 r \$0-gui.num_min0;
#X obj 235 65 r \$0-gui.num_min1;
#X obj 240 113 r \$0-gui.num_min2;
#X obj 245 164 r \$0-gui.num_min3;
#X obj 254 220 r \$0-gui.num_min4;
#X obj 259 273 r \$0-gui.num_min5;
#X obj 264 321 r \$0-gui.num_min6;
#X obj 269 372 r \$0-gui.num_min7;
#X obj 229 629 sdPack set_min_by_ind;
#X obj 457 534 r \$0-gui.num_shift;
#X obj 409 605 pack;
#X obj 408 581 swap;
#X obj 436 560 - 0;
#X obj 409 652 s \$1;
#X obj 410 36 pack 0 0;
#X obj 402 526 unpack;
#X obj 415 88 pack 0 1;
#X obj 420 137 pack 0 2;
#X obj 425 187 pack 0 3;
#X obj 434 244 pack 0 4;
#X obj 439 296 pack 0 5;
#X obj 444 345 pack 0 6;
#X obj 448 395 pack 0 7;
#X obj 410 12 r \$0-gui.num_max0;
#X obj 415 65 r \$0-gui.num_max1;
#X obj 420 113 r \$0-gui.num_max2;
#X obj 425 164 r \$0-gui.num_max3;
#X obj 434 220 r \$0-gui.num_max4;
#X obj 439 273 r \$0-gui.num_max5;
#X obj 444 321 r \$0-gui.num_max6;
#X obj 449 372 r \$0-gui.num_max7;
#X obj 409 629 sdPack set_max_by_ind;
#X obj 637 534 r \$0-gui.num_shift;
#X obj 589 605 pack;
#X obj 588 581 swap;
#X obj 616 560 - 0;
#X obj 589 652 s \$1;
#X obj 590 36 pack 0 0;
#X obj 582 526 unpack;
#X obj 595 88 pack 0 1;
#X obj 600 137 pack 0 2;
#X obj 605 187 pack 0 3;
#X obj 614 244 pack 0 4;
#X obj 619 296 pack 0 5;
#X obj 624 345 pack 0 6;
#X obj 628 395 pack 0 7;
#X obj 590 12 r \$0-gui.num_step0;
#X obj 595 65 r \$0-gui.num_step1;
#X obj 600 113 r \$0-gui.num_step2;
#X obj 605 164 r \$0-gui.num_step3;
#X obj 614 221 r \$0-gui.num_step4;
#X obj 619 273 r \$0-gui.num_step5;
#X obj 624 320 r \$0-gui.num_step6;
#X obj 629 373 r \$0-gui.num_step7;
#X obj 589 628 sdPack set_step_by_ind;
#X connect 0 0 5 1;
#X connect 1 0 6 0;
#X connect 2 0 1 0;
#X connect 3 0 2 0;
#X connect 3 1 2 1;
#X connect 4 0 7 0;
#X connect 5 0 3 1;
#X connect 7 0 8 0;
#X connect 8 0 3 0;
#X connect 8 1 5 0;
#X connect 9 0 10 0;
#X connect 10 0 8 0;
#X connect 11 0 12 0;
#X connect 12 0 8 0;
#X connect 13 0 14 0;
#X connect 14 0 8 0;
#X connect 15 0 19 0;
#X connect 16 0 20 0;
#X connect 17 0 21 0;
#X connect 18 0 22 0;
#X connect 19 0 8 0;
#X connect 20 0 8 0;
#X connect 21 0 8 0;
#X connect 22 0 8 0;
#X connect 23 0 26 1;
#X connect 24 0 45 0;
#X connect 25 0 24 0;
#X connect 25 1 24 1;
#X connect 26 0 25 1;
#X connect 28 0 29 0;
#X connect 29 0 25 0;
#X connect 29 1 26 0;
#X connect 30 0 29 0;
#X connect 31 0 29 0;
#X connect 32 0 29 0;
#X connect 33 0 29 0;
#X connect 34 0 29 0;
#X connect 35 0 29 0;
#X connect 36 0 29 0;
#X connect 37 0 28 0;
#X connect 38 0 30 0;
#X connect 39 0 31 0;
#X connect 40 0 32 0;
#X connect 41 0 33 0;
#X connect 42 0 34 0;
#X connect 43 0 35 0;
#X connect 44 0 36 0;
#X connect 45 0 27 0;
#X connect 46 0 49 1;
#X connect 47 0 68 0;
#X connect 48 0 47 0;
#X connect 48 1 47 1;
#X connect 49 0 48 1;
#X connect 51 0 52 0;
#X connect 52 0 48 0;
#X connect 52 1 49 0;
#X connect 53 0 52 0;
#X connect 54 0 52 0;
#X connect 55 0 52 0;
#X connect 56 0 52 0;
#X connect 57 0 52 0;
#X connect 58 0 52 0;
#X connect 59 0 52 0;
#X connect 60 0 51 0;
#X connect 61 0 53 0;
#X connect 62 0 54 0;
#X connect 63 0 55 0;
#X connect 64 0 56 0;
#X connect 65 0 57 0;
#X connect 66 0 58 0;
#X connect 67 0 59 0;
#X connect 68 0 50 0;
#X connect 69 0 72 1;
#X connect 70 0 91 0;
#X connect 71 0 70 0;
#X connect 71 1 70 1;
#X connect 72 0 71 1;
#X connect 74 0 75 0;
#X connect 75 0 71 0;
#X connect 75 1 72 0;
#X connect 76 0 75 0;
#X connect 77 0 75 0;
#X connect 78 0 75 0;
#X connect 79 0 75 0;
#X connect 80 0 75 0;
#X connect 81 0 75 0;
#X connect 82 0 75 0;
#X connect 83 0 74 0;
#X connect 84 0 76 0;
#X connect 85 0 77 0;
#X connect 86 0 78 0;
#X connect 87 0 79 0;
#X connect 88 0 80 0;
#X connect 89 0 81 0;
#X connect 90 0 82 0;
#X connect 91 0 73 0;
#X restore 596 496 pd gui.numProps -> obj;
#N canvas 0 30 681 736 gui.symProps 0;
#X obj 34 74 s \$1;
#X obj 35 144 s \$1;
#X obj 36 217 s \$1;
#X obj 37 287 s \$1;
#X obj 33 28 r \$0-gui.symProp0;
#X msg 34 51 list set_sym_by_ind 2 0 \$1;
#X obj 34 98 r \$0-gui.symProp1;
#X msg 35 121 list set_sym_by_ind 2 1 \$1;
#X obj 35 171 r \$0-gui.symProp2;
#X msg 36 194 list set_sym_by_ind 2 2 \$1;
#X obj 36 241 r \$0-gui.symProp3;
#X msg 37 264 list set_sym_by_ind 2 3 \$1;
#X connect 4 0 5 0;
#X connect 5 0 0 0;
#X connect 6 0 7 0;
#X connect 7 0 1 0;
#X connect 8 0 9 0;
#X connect 9 0 2 0;
#X connect 10 0 11 0;
#X connect 11 0 3 0;
#X restore 596 550 pd gui.symProps -> obj;
#N canvas 0 30 681 722 obj 0;
#X obj 25 11 inlet;
#X obj 31 255 s \$0-groupName_rcv;
#X msg 169 290 number \$1;
#X obj 166 207 sdObjTrack groups;
#X obj 166 230 sdUnPack;
#X obj 166 253 list length;
#X obj 31 208 sdObjTrack group;
#X obj 31 231 sdUnPack;
#X obj 51 57 t a a;
#X obj 173 417 sdUnPack;
#X obj 173 394 sdObjTrack groupIndex;
#X obj 136 31 t a a;
#X msg 173 441 set \$1;
#X obj 460 261 sdUnPack;
#X msg 460 285 set \$1;
#X obj 460 208 sdObjTrack dest;
#X obj 462 313 s \$0-objName_rcv;
#X obj 352 233 sdUnPack;
#X obj 352 210 sdObjTrack objs;
#X obj 352 256 list length;
#X msg 349 295 number \$1;
#X obj 349 319 s \$0-objRadio_rcv;
#X obj 169 314 s \$0-groupRadio_rcv;
#N canvas 0 30 681 722 set 0;
#X obj 143 182 sdUnPack;
#X obj 148 274 sdList;
#X msg 113 242 serialize;
#X msg 186 243 clear;
#X obj 143 205 t b a b;
#X msg 267 246 0;
#X obj 201 302 t a b;
#X obj 178 457 send;
#X msg 151 424 label \$1;
#N canvas 0 30 681 722 gui 0;
#X obj 43 9 inlet;
#X obj 74 149 until;
#X msg 144 138 0;
#X obj 79 220 pack f \$0;
#X obj 74 71 t b b;
#X text 69 334 clear numProps display;
#X obj 74 184 sdCounter -1;
#X msg 79 259 \; \$2-gui.numPropName\$1_rcv label - \; \$2-gui.numProp\$1_rcv
set 0 \; \$2-gui.num_min\$1_rcv set -1000 \; \$2-gui.num_max\$1_rcv
set 1000 \;;
#X msg 72 113 8;
#X connect 0 0 4 0;
#X connect 1 0 6 0;
#X connect 2 0 6 0;
#X connect 3 0 7 0;
#X connect 4 0 8 0;
#X connect 4 1 2 0;
#X connect 6 0 3 0;
#X connect 8 0 1 0;
#X restore 243 173 pd gui clear props;
#X obj 179 143 t a b;
#X obj 244 435 sdReplace \$0;
#X obj 250 320 sdCounter -1;
#X msg 244 412 symbol %0-gui.numPropName\$1_rcv;
#X obj 100 24 inlet;
#X obj 453 28 inlet prop_shift;
#X obj 565 356 until;
#X obj 564 332 f;
#X msg 565 379 pop;
#X obj 157 399 sdGate;
#X obj 453 51 t b f;
#X obj 195 374 >= 0;
#X obj 250 343 - 0;
#X obj 92 111 t b a;
#X obj 43 499 outlet;
#X connect 0 0 4 0;
#X connect 1 0 6 0;
#X connect 2 0 1 0;
#X connect 3 0 1 0;
#X connect 4 0 2 0;
#X connect 4 1 1 1;
#X connect 4 2 3 0;
#X connect 4 2 5 0;
#X connect 5 0 12 0;
#X connect 6 0 19 0;
#X connect 6 1 12 0;
#X connect 8 0 7 0;
#X connect 10 0 0 0;
#X connect 10 1 9 0;
#X connect 11 0 7 1;
#X connect 12 0 22 0;
#X connect 13 0 11 0;
#X connect 14 0 23 0;
#X connect 15 0 20 0;
#X connect 16 0 18 0;
#X connect 17 0 16 0;
#X connect 19 0 8 0;
#X connect 20 1 22 1;
#X connect 21 0 19 1;
#X connect 22 0 13 0;
#X connect 22 0 21 0;
#X connect 23 0 24 0;
#X connect 23 1 10 0;
#X restore 353 118 pd set gui.numProps;
#X obj 353 95 sdObjTrack numProps;
#X obj 484 85 sdObjTrack symProps;
#N canvas 0 30 681 722 set 0;
#X obj 101 183 sdUnPack;
#X obj 140 271 sdList;
#X msg 105 239 serialize;
#X msg 178 240 clear;
#X obj 101 206 t b a b;
#X msg 245 235 0;
#X obj 201 300 t a b;
#X obj 208 413 send;
#X msg 169 339 label \$1;
#N canvas 0 30 681 722 gui 0;
#X obj 43 9 inlet;
#X obj 72 151 until;
#X msg 142 140 0;
#X obj 77 222 pack f \$0;
#X obj 72 73 t b b;
#X text 68 337 clear symProps disply;
#X msg 70 115 4;
#X obj 72 186 sdCounter -1;
#X msg 70 282 \; \$2-gui.symPropName\$1_rcv label - \; \$2-gui.symProp\$1_rcv
set - \;;
#X connect 0 0 4 0;
#X connect 1 0 7 0;
#X connect 2 0 7 0;
#X connect 3 0 8 0;
#X connect 4 0 6 0;
#X connect 4 1 2 0;
#X connect 6 0 1 0;
#X connect 7 0 3 0;
#X restore 243 173 pd gui clear props;
#X obj 179 143 t a b;
#X obj 244 381 sdReplace \$0;
#X obj 251 312 sdCounter -1;
#X obj 100 21 inlet;
#X msg 244 358 symbol %0-gui.symPropName\$1_rcv;
#X connect 0 0 4 0;
#X connect 1 0 6 0;
#X connect 2 0 1 0;
#X connect 3 0 1 0;
#X connect 4 0 2 0;
#X connect 4 1 1 1;
#X connect 4 2 3 0;
#X connect 4 2 5 0;
#X connect 5 0 12 0;
#X connect 6 0 8 0;
#X connect 6 1 12 0;
#X connect 8 0 7 0;
#X connect 10 0 0 0;
#X connect 10 1 9 0;
#X connect 11 0 7 1;
#X connect 12 0 14 0;
#X connect 13 0 10 0;
#X connect 14 0 11 0;
#X restore 484 108 pd set gui.symProps;
#X obj 352 384 sdObjTrack destIndex;
#X obj 175 469 s \$0-groupRadio_rcv;
#X obj 460 231 t a b;
#X obj 681 272 outlet;
#X obj 616 68 sdObjTrack boolProps;
#N canvas 0 30 803 736 set 0;
#X obj 101 183 sdUnPack;
#X obj 140 271 sdList;
#X msg 105 239 serialize;
#X msg 178 240 clear;
#X obj 101 206 t b a b;
#X msg 245 235 0;
#X obj 201 300 t a b;
#X obj 178 403 send;
#X msg 161 330 label \$1;
#N canvas 0 30 721 722 gui 0;
#X obj 43 9 inlet;
#X obj 74 149 until;
#X msg 144 138 0;
#X obj 79 220 pack f \$0;
#X obj 74 71 t b b;
#X text 69 334 clear numProps display;
#X obj 74 184 sdCounter -1;
#X msg 72 113 4;
#X msg 79 259 \; \$2-gui.bool_propName\$1_rcv label - \; \$2-gui.bool_prop\$1_rcv
set 0 \;;
#X connect 0 0 4 0;
#X connect 1 0 6 0;
#X connect 2 0 6 0;
#X connect 3 0 8 0;
#X connect 4 0 7 0;
#X connect 4 1 2 0;
#X connect 6 0 3 0;
#X connect 7 0 1 0;
#X restore 243 173 pd gui clear props;
#X obj 179 143 t a b;
#X obj 244 381 sdReplace \$0;
#X obj 251 312 sdCounter -1;
#X obj 100 25 inlet;
#X msg 244 358 symbol %0-gui.bool_propName\$1_rcv;
#X connect 0 0 4 0;
#X connect 1 0 6 0;
#X connect 2 0 1 0;
#X connect 3 0 1 0;
#X connect 4 0 2 0;
#X connect 4 1 1 1;
#X connect 4 2 3 0;
#X connect 4 2 5 0;
#X connect 5 0 12 0;
#X connect 6 0 8 0;
#X connect 6 1 12 0;
#X connect 8 0 7 0;
#X connect 10 0 0 0;
#X connect 10 1 9 0;
#X connect 11 0 7 1;
#X connect 12 0 14 0;
#X connect 13 0 10 0;
#X connect 14 0 11 0;
#X restore 616 91 pd set gui.boolProps;
#X obj 447 16 inlet;
#X obj 493 463 outlet;
#X obj 463 418 sdUnPack;
#X connect 0 0 11 0;
#X connect 2 0 22 0;
#X connect 3 0 4 0;
#X connect 4 0 5 0;
#X connect 5 0 2 0;
#X connect 6 0 7 0;
#X connect 7 0 1 0;
#X connect 8 0 6 0;
#X connect 8 1 3 0;
#X connect 9 0 12 0;
#X connect 10 0 9 0;
#X connect 11 0 8 0;
#X connect 11 1 10 0;
#X connect 11 1 18 0;
#X connect 11 1 15 0;
#X connect 11 1 24 0;
#X connect 11 1 25 0;
#X connect 11 1 27 0;
#X connect 11 1 31 0;
#X connect 12 0 28 0;
#X connect 13 0 14 0;
#X connect 14 0 16 0;
#X connect 15 0 29 0;
#X connect 17 0 19 0;
#X connect 18 0 17 0;
#X connect 19 0 20 0;
#X connect 20 0 21 0;
#X connect 24 0 23 0;
#X connect 25 0 26 0;
#X connect 27 0 35 0;
#X connect 29 0 13 0;
#X connect 29 1 30 0;
#X connect 31 0 32 0;
#X connect 33 0 23 1;
#X connect 35 0 34 0;
#X restore 520 215 pd obj -> GUI;
#N canvas 0 30 681 736 gui 0;
#X obj 42 16 inlet;
#X msg 36 45 list set ( groupIndex ( \$1 ) );
#X obj 36 68 sdPackFromHuman;
#X obj 36 91 s \$1;
#X connect 0 0 1 0;
#X connect 1 0 2 0;
#X connect 2 0 3 0;
#X restore 598 415 pd gui -> \$1;
#N canvas 0 30 803 722 gui 0;
#X obj 42 16 inlet;
#X obj 36 68 sdPackFromHuman;
#X obj 36 91 s \$1;
#X msg 36 45 list set ( destIndex ( \$1 ) );
#X connect 0 0 3 0;
#X connect 1 0 2 0;
#X connect 3 0 1 0;
#X restore 597 467 pd gui -> \$1;
#X obj 190 131 nbx 5 14 -1e+37 1e+37 0 0 \$0-gui.num_min0 \$0-gui.num_min0_rcv
empty 0 -8 1 8 -262144 -1 -1 0 256;
#X obj 233 131 nbx 5 14 -1e+37 1e+37 0 0 \$0-gui.num_max0 \$0-gui.num_max0_rcv
empty 0 -8 1 8 -262144 -1 -1 1000 256;
#X text 191 112 min;
#X text 236 112 max;
#X obj 190 160 nbx 5 14 -1e+37 1e+37 0 0 \$0-gui.num_min1 \$0-gui.num_min1_rcv
empty 0 -8 1 8 -262144 -1 -1 0 256;
#X obj 233 160 nbx 5 14 -1e+37 1e+37 0 0 \$0-gui.num_max1 \$0-gui.num_max1_rcv
empty 0 -8 1 8 -262144 -1 -1 1000 256;
#X obj 190 189 nbx 5 14 -1e+37 1e+37 0 0 \$0-gui.num_min2 \$0-gui.num_min2_rcv
empty 0 -8 1 8 -262144 -1 -1 -1000 256;
#X obj 233 189 nbx 5 14 -1e+37 1e+37 0 0 \$0-gui.num_max2 \$0-gui.num_max2_rcv
empty 0 -8 1 8 -262144 -1 -1 1000 256;
#X obj 190 218 nbx 5 14 -1e+37 1e+37 0 0 \$0-gui.num_min3 \$0-gui.num_min3_rcv
empty 0 -8 1 8 -262144 -1 -1 -1000 256;
#X obj 233 218 nbx 5 14 -1e+37 1e+37 0 0 \$0-gui.num_max3 \$0-gui.num_max3_rcv
empty 0 -8 1 8 -262144 -1 -1 1000 256;
#X obj 190 247 nbx 5 14 -1e+37 1e+37 0 0 \$0-gui.num_min4 \$0-gui.num_min4_rcv
empty 0 -8 1 8 -262144 -1 -1 -1000 256;
#X obj 233 247 nbx 5 14 -1e+37 1e+37 0 0 \$0-gui.num_max4 \$0-gui.num_max4_rcv
empty 0 -8 1 8 -262144 -1 -1 1000 256;
#X obj 190 276 nbx 5 14 -1e+37 1e+37 0 0 \$0-gui.num_min5 \$0-gui.num_min5_rcv
empty 0 -8 1 8 -262144 -1 -1 -1000 256;
#X obj 233 276 nbx 5 14 -1e+37 1e+37 0 0 \$0-gui.num_max5 \$0-gui.num_max5_rcv
empty 0 -8 1 8 -262144 -1 -1 1000 256;
#X obj 190 305 nbx 5 14 -1e+37 1e+37 0 0 \$0-gui.num_min6 \$0-gui.num_min6_rcv
empty 0 -8 1 8 -262144 -1 -1 -1000 256;
#X obj 233 305 nbx 5 14 -1e+37 1e+37 0 0 \$0-gui.num_max6 \$0-gui.num_max6_rcv
empty 0 -8 1 8 -262144 -1 -1 1000 256;
#X obj 190 334 nbx 5 14 -1e+37 1e+37 0 0 \$0-gui.num_min7 \$0-gui.num_min7_rcv
empty 0 -8 1 8 -262144 -1 -1 -1000 256;
#X obj 233 334 nbx 5 14 -1e+37 1e+37 0 0 \$0-gui.num_max7 \$0-gui.num_max7_rcv
empty 0 -8 1 8 -262144 -1 -1 1000 256;
#N canvas 0 30 681 345 snd 0;
#X obj 70 141 outlet;
#X obj 183 93 r \$0-gui.clearOutput;
#X msg 183 116 list out 1 clear;
#X connect 1 0 2 0;
#X connect 2 0 0 0;
#X restore 608 13 pd snd msgs -> obj;
#X obj 501 105 sdObjGroupsInterface_obj \$1 \$2 \$3 \$4 \$5 \$6 \$7
\$8 \$9, f 32;
#X obj 501 143 t a a;
#X obj 528 166 outlet;
#X obj 595 142 t a a;
#X obj 622 165 outlet;
#X obj 690 164 outlet;
#X symbolatom 23 551 30 0 0 0 - #0-gui.event.name_rcv -;
#X obj 22 535 hradio 12 1 0 1 \$0-gui.event.radio \$0-gui.event.radio_rcv
empty 0 -8 0 10 -262144 -1 -1 0;
#X obj 209 551 bng 15 250 50 0 \$0-gui.event.send empty empty 17 7
0 10 -262144 -1 -1;
#X text 226 549 send;
#X text 26 518 allowed:;
#X obj 833 285 r \$0-init;
#X obj 593 240 s \$0-init;
#X obj 611 601 r \$0-gui.event.radio;
#X obj 596 625 f;
#X obj 596 577 r \$0-gui.event.send;
#X obj 596 671 s \$1;
#X msg 596 648 list send_event_by_ind 1 \$1;
#X obj 276 131 nbx 3 14 -1e+37 1e+37 0 0 \$0-gui.num_step0 \$0-gui.num_step0_rcv
empty 0 -8 1 8 -262144 -1 -1 0 256;
#X obj 276 160 nbx 3 14 -1e+37 1e+37 0 0 \$0-gui.num_step1 \$0-gui.num_step1_rcv
empty 0 -8 1 8 -262144 -1 -1 0 256;
#X obj 276 189 nbx 3 14 -1e+37 1e+37 0 0 \$0-gui.num_step2 \$0-gui.num_step2_rcv
empty 0 -8 1 8 -262144 -1 -1 0 256;
#X obj 276 218 nbx 3 14 -1e+37 1e+37 0 0 \$0-gui.num_step3 \$0-gui.num_step3_rcv
empty 0 -8 1 8 -262144 -1 -1 0 256;
#X obj 276 247 nbx 3 14 -1e+37 1e+37 0 0 \$0-gui.num_step4 \$0-gui.num_step4_rcv
empty 0 -8 1 8 -262144 -1 -1 0 256;
#X obj 276 276 nbx 3 14 -1e+37 1e+37 0 0 \$0-gui.num_step5 \$0-gui.num_step5_rcv
empty 0 -8 1 8 -262144 -1 -1 0 256;
#X obj 276 305 nbx 3 14 -1e+37 1e+37 0 0 \$0-gui.num_step6 \$0-gui.num_step6_rcv
empty 0 -8 1 8 -262144 -1 -1 0 256;
#X obj 276 334 nbx 3 14 -1e+37 1e+37 0 0 \$0-gui.num_step7 \$0-gui.num_step7_rcv
empty 0 -8 1 8 -262144 -1 -1 0 256;
#X text 276 112 step;
#X obj 33 471 cnv 15 110 13 empty \$0-gui.bool_propName0_rcv - 1 8
0 10 -228856 -66577 0;
#X obj 32 490 cnv 15 110 13 empty \$0-gui.bool_propName1_rcv - 1 8
0 10 -228856 -66577 0;
#X obj 182 471 cnv 15 110 13 empty \$0-gui.bool_propName2_rcv - 1 8
0 10 -228856 -66577 0;
#X obj 182 489 cnv 15 110 13 empty \$0-gui.bool_propName3_rcv - 1 8
0 10 -228856 -66577 0;
#X text 12 455 boolean properties:;
#X obj 145 471 tgl 15 0 \$0-gui.bool_prop0 \$0-gui.bool_prop0_rcv empty
17 7 0 10 -262144 -1 -1 0 1;
#X obj 145 489 tgl 15 0 \$0-gui.bool_prop1 \$0-gui.bool_prop1_rcv empty
17 7 0 10 -262144 -1 -1 0 1;
#X obj 296 470 tgl 15 0 \$0-gui.bool_prop2 \$0-gui.bool_prop2_rcv empty
17 7 0 10 -262144 -1 -1 0 1;
#X obj 296 487 tgl 15 0 \$0-gui.bool_prop3 \$0-gui.bool_prop3_rcv empty
17 7 0 10 -262144 -1 -1 0 1;
#N canvas 0 30 681 736 gui.boolProps 0;
#X obj 34 74 s \$1;
#X obj 35 144 s \$1;
#X obj 36 217 s \$1;
#X obj 37 287 s \$1;
#X msg 34 51 list set_bool_by_ind 2 0 \$1;
#X msg 35 121 list set_bool_by_ind 2 1 \$1;
#X msg 36 194 list set_bool_by_ind 2 2 \$1;
#X msg 37 264 list set_bool_by_ind 2 3 \$1;
#X obj 33 28 r \$0-gui.bool_prop0;
#X obj 34 99 r \$0-gui.bool_prop1;
#X obj 35 171 r \$0-gui.bool_prop2;
#X obj 37 241 r \$0-gui.bool_prop3;
#X connect 4 0 0 0;
#X connect 5 0 1 0;
#X connect 6 0 2 0;
#X connect 7 0 3 0;
#X connect 8 0 4 0;
#X connect 9 0 5 0;
#X connect 10 0 6 0;
#X connect 11 0 7 0;
#X restore 596 523 pd gui.boolProps -> obj;
#X obj 12 131 cnv 15 13 13 empty empty 1 1 8 0 10 -191407 -66577 0
;
#X obj 12 160 cnv 15 13 13 empty empty 2 1 8 0 10 -191407 -66577 0
;
#X obj 12 189 cnv 15 13 13 empty empty 3 1 8 0 10 -191407 -66577 0
;
#X obj 12 218 cnv 15 13 13 empty empty 4 1 8 0 10 -191407 -66577 0
;
#X obj 12 248 cnv 15 13 13 empty empty 5 1 8 0 10 -191407 -66577 0
;
#X obj 12 278 cnv 15 13 13 empty empty 6 1 8 0 10 -191407 -66577 0
;
#X obj 12 305 cnv 15 13 13 empty empty 7 1 8 0 10 -191407 -66577 0
;
#X obj 12 334 cnv 15 13 13 empty empty 8 1 8 0 10 -191407 -66577 0
;
#X obj 263 86 nbx 2 14 0 31 0 0 \$0-gui.num_shift \$0-gui.num_shift_rcv
empty 0 -8 1 8 -1 -262144 -1 0 256;
#X obj 15 471 cnv 15 13 13 empty empty 1 1 8 0 10 -191407 -66577 0
;
#X obj 15 489 cnv 15 13 13 empty empty 2 1 8 0 10 -191407 -66577 0
;
#X obj 165 471 cnv 15 13 13 empty empty 3 1 8 0 10 -191407 -66577 0
;
#X obj 165 489 cnv 15 13 13 empty empty 4 1 8 0 10 -191407 -66577 0
;
#X floatatom 798 171 5 0 0 0 - - -;
#X obj 738 173 t b f;
#X obj 727 255 sdPackFromHuman;
#X obj 727 278 s \$1;
#X msg 727 232 list set ( destIndex ( \$1 ) );
#X msg 550 283 set \$1;
#X obj 552 311 s \$0-objRadio_rcv;
#X obj 520 337 s \$0-dest-index;
#X obj 520 238 t f f;
#X obj 763 205 r \$0-dest-index;
#X obj 735 209 f;
#X obj 289 79 bng 13 250 50 0 \$0-gui.inc_shift empty empty 17 7 0
10 -262144 -1 -262144;
#X obj 289 94 bng 13 250 50 0 \$0-gui.dec_shift empty empty 17 7 0
10 -262144 -1 -1;
#X obj 308 135 vsl 8 128 0 31 0 0 empty empty empty 0 -9 0 10 -1 -262144
-1 12700 1;
#X obj 345 421 loadbang;
#X obj 345 444 t b;
#X msg 100 645 set \$1;
#X obj 100 668 s \$0-gui.scroll.num_shift_rcv;
#X obj 344 127 expr 31-$f1;
#X obj 450 370 s \$0-gui.num_shift_rcv;
#X msg 344 467 set 0;
#X obj 349 -4 r \$0-gui.scroll.num_shift_rcv, f 14;
#X obj 344 489 s \$0-gui.scroll.num_shift_rcv;
#X obj 37 621 r \$0-gui.num_shift;
#X obj 339 297 expr 31-int($f1);
#X obj 349 79 route set;
#X obj 349 101 t f b;
#X obj 344 150 sdGate;
#X msg 393 148 0;
#X msg 428 157 1;
#X obj 362 173 sdSetSelector set;
#X obj 349 45 t a b, f 14;
#X text 301 74 +8;
#X text 301 90 -8;
#X obj 333 647 s \$0-gui.num_shift_rcv;
#X obj 332 601 f;
#X obj 332 623 + 8;
#X obj 384 601 f;
#X obj 384 623 - 8;
#X obj 331 526 r \$0-gui.inc_shift;
#X obj 379 550 r \$0-gui.dec_shift;
#X msg 423 343 set \$1;
#X obj 362 395 s \$0-num_shift;
#X obj 738 150 r \$0-num_shift;
#X obj 35 688 s \$0-num_shift;
#X obj 400 577 r \$0-num_shift;
#X text 188 86 shift props;
#X obj 36 147 hsl 220 10 0 1 0 0 \$0-gui.scroll.numProp0 \$0-gui.scroll.numProp0_rcv
empty -2 -8 0 10 -1 -262144 -1 0 1;
#X obj 36 176 hsl 220 10 0 1 0 0 \$0-gui.scroll.numProp1 \$0-gui.scroll.numProp1_rcv
empty -2 -8 0 10 -1 -262144 -1 0 1;
#X obj 36 205 hsl 220 10 0 1 0 0 \$0-gui.scroll.numProp2 \$0-gui.scroll.numProp2_rcv
empty -2 -8 0 10 -1 -262144 -1 0 1;
#X obj 36 234 hsl 220 10 0 1 0 0 \$0-gui.scroll.numProp3 \$0-gui.scroll.numProp3_rcv
empty -2 -8 0 10 -1 -262144 -1 0 1;
#X obj 36 263 hsl 220 10 0 1 0 0 \$0-gui.scroll.numProp4 \$0-gui.scroll.numProp4_rcv
empty -2 -8 0 10 -1 -262144 -1 0 1;
#X obj 36 292 hsl 220 10 0 1 0 0 \$0-gui.scroll.numProp5 \$0-gui.scroll.numProp5_rcv
empty -2 -8 0 10 -1 -262144 -1 0 1;
#X obj 36 321 hsl 220 10 0 1 0 0 \$0-gui.scroll.numProp6 \$0-gui.scroll.numProp6_rcv
empty -2 -8 0 10 -1 -262144 -1 0 1;
#X obj 36 351 hsl 220 10 0 1 0 0 \$0-gui.scroll.numProp7 \$0-gui.scroll.numProp7_rcv
empty -2 -8 0 10 -1 -262144 -1 0 1;
#N canvas 0 30 681 736 gui.numProps 0;
#X obj 82 533 r \$0-gui.num_shift;
#X obj 34 604 pack;
#X obj 33 580 swap;
#X obj 61 559 - 0;
#X obj 34 651 s \$1;
#X obj 27 525 unpack;
#X obj 40 87 pack 0 1;
#X obj 45 136 pack 0 2;
#X obj 50 186 pack 0 3;
#X obj 59 243 pack 0 4;
#X obj 64 295 pack 0 5;
#X obj 69 344 pack 0 6;
#X obj 73 394 pack 0 7;
#X obj 35 11 r \$0-gui.scroll.numProp0;
#X obj 34 628 sdPack set_num_by_ind_in_range;
#X obj 40 64 r \$0-gui.scroll.numProp1;
#X obj 45 112 r \$0-gui.scroll.numProp2;
#X obj 50 163 r \$0-gui.scroll.numProp3;
#X obj 58 219 r \$0-gui.scroll.numProp4;
#X obj 64 272 r \$0-gui.scroll.numProp5;
#X obj 68 320 r \$0-gui.scroll.numProp6;
#X obj 74 371 r \$0-gui.scroll.numProp7;
#X obj 35 35 pack 0 0;
#X connect 0 0 3 1;
#X connect 1 0 14 0;
#X connect 2 0 1 0;
#X connect 2 1 1 1;
#X connect 3 0 2 1;
#X connect 5 0 2 0;
#X connect 5 1 3 0;
#X connect 6 0 5 0;
#X connect 7 0 5 0;
#X connect 8 0 5 0;
#X connect 9 0 5 0;
#X connect 10 0 5 0;
#X connect 11 0 5 0;
#X connect 12 0 5 0;
#X connect 13 0 22 0;
#X connect 14 0 4 0;
#X connect 15 0 6 0;
#X connect 16 0 7 0;
#X connect 17 0 8 0;
#X connect 18 0 9 0;
#X connect 19 0 10 0;
#X connect 20 0 11 0;
#X connect 21 0 12 0;
#X connect 22 0 5 0;
#X restore 739 496 pd gui.numProps -> obj;
#X msg 506 10 list init 0;
#X connect 2 0 44 0;
#X connect 35 0 64 0;
#X connect 38 0 43 0;
#X connect 42 0 122 0;
#X connect 42 1 76 0;
#X connect 64 0 65 0;
#X connect 64 1 67 0;
#X connect 64 2 69 0;
#X connect 65 0 42 0;
#X connect 65 1 66 0;
#X connect 67 0 39 0;
#X connect 67 1 68 0;
#X connect 75 0 39 2;
#X connect 77 0 78 1;
#X connect 78 0 81 0;
#X connect 79 0 78 0;
#X connect 81 0 80 0;
#X connect 115 0 124 0;
#X connect 115 1 42 1;
#X connect 115 1 39 1;
#X connect 116 0 117 0;
#X connect 118 0 116 0;
#X connect 119 0 120 0;
#X connect 122 0 121 0;
#X connect 122 1 119 0;
#X connect 123 0 124 1;
#X connect 124 0 118 0;
#X connect 127 0 138 0;
#X connect 128 0 129 0;
#X connect 129 0 134 0;
#X connect 130 0 131 0;
#X connect 132 0 141 0;
#X connect 134 0 136 0;
#X connect 135 0 145 0;
#X connect 137 0 130 0;
#X connect 137 0 158 0;
#X connect 138 0 155 0;
#X connect 138 0 156 0;
#X connect 139 0 140 0;
#X connect 140 0 132 0;
#X connect 140 1 142 0;
#X connect 141 0 127 0;
#X connect 141 1 144 0;
#X connect 142 0 141 1;
#X connect 143 0 141 1;
#X connect 144 0 127 0;
#X connect 145 0 139 0;
#X connect 145 1 143 0;
#X connect 149 0 150 0;
#X connect 150 0 148 0;
#X connect 151 0 152 0;
#X connect 152 0 148 0;
#X connect 153 0 149 0;
#X connect 154 0 151 0;
#X connect 155 0 133 0;
#X connect 157 0 114 0;
#X connect 157 0 115 0;
#X connect 159 0 149 1;
#X connect 159 0 151 1;
#X connect 170 0 64 0;
#X coords 0 -1 1 1 308 600 1 10 10;
