#N canvas 0 30 681 722 10;
#X obj 33 10 inlet;
#X obj 387 226 sdPropertyList numProps \$0;
#X obj 368 198 sdPropertySym dest \$0;
#X obj 216 49 sdObjState \$1 \$2;
#X obj 259 23 r \$0-fromProperties;
#X obj 27 681 outlet;
#X obj 250 247 r \$0-dest;
#X obj 394 25 r \$1.out;
#X obj 234 687 outlet;
#X obj 321 67 t a a, f 20;
#N canvas 0 30 721 722 connect 0;
#X obj 37 37 inlet;
#X text 217 373 print info for the dumb user;
#X obj 142 115 sdUnPack;
#X obj 138 175 t b s;
#X obj 131 219 sdObjConnectTo \$1 \$1;
#X obj 142 138 t s s;
#X obj 131 242 unpack s s;
#X obj 184 165 sdObjConnectTo \$1 \$1;
#X obj 138 266 outlet;
#X msg 203 396 connected \$1 -> \$2;
#X obj 203 420 print \$1;
#X connect 0 0 2 0;
#X connect 2 0 5 0;
#X connect 3 0 4 0;
#X connect 3 1 4 1;
#X connect 4 0 6 0;
#X connect 4 1 9 0;
#X connect 5 0 3 0;
#X connect 5 1 7 0;
#X connect 6 1 8 0;
#X connect 7 1 9 0;
#X connect 9 0 10 0;
#X restore 321 114 pd connect;
#X obj 438 90 s \$0-fromObj.out;
#X obj 27 658 r \$0-fromObj.out;
#X obj 291 378 sdPackFilter info update;
#X obj 192 355 sdPackFilter dest;
#X obj 41 455 s \$0-fromDest.out;
#X obj 399 253 sdPropertyList symProps \$0;
#X obj 479 688 outlet;
#X obj 479 664 r \$0-fromDest.out;
#X obj 234 663 r \$0-fromDest.generic;
#X obj 14 431 t a a;
#X obj 49 483 r \$0-numProps;
#X obj 14 555 s \$0-fromDest.generic;
#N canvas 0 30 681 722 num_generic_out 0;
#X obj 448 340 sdList;
#X obj 51 88 sdUnPack;
#X obj 349 291 sdUnPack;
#X msg 392 314 find \$1;
#X obj 462 297 sdSetSelector set;
#X obj 355 443 list prepend;
#X obj 16 21 inlet;
#X obj 261 28 inlet;
#X obj 359 642 outlet;
#X obj 448 364 sdFilter -1;
#X msg 408 378 0;
#X obj 355 399 sdGate;
#X obj 511 386 t b f;
#X msg 446 394 1;
#X obj 562 64 sdUnPack;
#X obj 562 109 t b a;
#X msg 562 132 serialize;
#X obj 562 161 sdData;
#X obj 562 87 t a b;
#X msg 644 132 clear;
#X obj 562 11 inlet;
#X obj 142 241 sdPackFilter range_info;
#X obj 128 293 sdUnPack;
#X obj 157 344 list split 1;
#X obj 130 321 t a a;
#X obj 218 416 sdList;
#X msg 162 390 find \$1;
#X obj 232 373 sdSetSelector set;
#X obj 122 512 list prepend;
#X obj 218 440 sdFilter -1;
#X msg 178 454 0;
#X obj 125 475 sdGate;
#X obj 281 462 t b f;
#X msg 187 483 1;
#X obj 355 465 sdPack update_num;
#X obj 122 536 sdPack update_num_range;
#X obj 393 26 inlet;
#X text 391 5 symprops;
#X obj 609 346 sdList;
#X obj 624 303 sdSetSelector set;
#X obj 552 468 list prepend;
#X obj 609 372 sdFilter -1;
#X msg 610 400 0;
#X obj 557 421 sdGate;
#X obj 657 400 t b f;
#X msg 619 429 1;
#X obj 552 493 sdPack update_sym;
#X obj 32 570 t a;
#X obj 58 146 sdPackFilter events;
#X obj 95 195 sdPackFilter out;
#X obj 42 183 t a a;
#X obj 515 639 outlet;
#X obj 503 580 sdUnPack;
#X connect 0 0 9 0;
#X connect 1 0 48 0;
#X connect 2 0 11 0;
#X connect 2 2 3 0;
#X connect 3 0 0 0;
#X connect 3 0 38 0;
#X connect 4 0 0 0;
#X connect 5 0 34 0;
#X connect 6 0 1 0;
#X connect 7 0 4 0;
#X connect 7 0 27 0;
#X connect 9 0 10 0;
#X connect 9 1 12 0;
#X connect 10 0 11 1;
#X connect 11 0 5 0;
#X connect 11 1 43 0;
#X connect 12 0 13 0;
#X connect 12 1 5 1;
#X connect 13 0 11 1;
#X connect 14 0 18 0;
#X connect 15 0 16 0;
#X connect 15 1 17 1;
#X connect 16 0 17 0;
#X connect 17 0 48 0;
#X connect 18 0 15 0;
#X connect 18 1 19 0;
#X connect 19 0 17 0;
#X connect 20 0 14 0;
#X connect 21 0 22 0;
#X connect 21 1 2 0;
#X connect 22 0 24 0;
#X connect 23 0 26 0;
#X connect 24 0 31 0;
#X connect 24 1 23 0;
#X connect 25 0 29 0;
#X connect 26 0 25 0;
#X connect 27 0 25 0;
#X connect 28 0 35 0;
#X connect 29 0 30 0;
#X connect 29 1 32 0;
#X connect 30 0 31 1;
#X connect 31 0 28 0;
#X connect 32 0 33 0;
#X connect 32 1 28 1;
#X connect 33 0 31 1;
#X connect 34 0 8 0;
#X connect 35 0 8 0;
#X connect 36 0 39 0;
#X connect 38 0 41 0;
#X connect 39 0 38 0;
#X connect 40 0 46 0;
#X connect 41 0 42 0;
#X connect 41 1 44 0;
#X connect 42 0 43 1;
#X connect 43 0 40 0;
#X connect 44 0 45 0;
#X connect 44 1 40 1;
#X connect 45 0 43 1;
#X connect 46 0 8 0;
#X connect 47 0 8 0;
#X connect 48 0 50 0;
#X connect 48 1 49 0;
#X connect 49 0 47 0;
#X connect 49 1 21 0;
#X connect 50 0 47 0;
#X connect 50 1 52 0;
#X connect 52 0 51 0;
#X restore 14 531 pd num_generic_out;
#N canvas 0 30 721 722 init 0;
#N canvas 0 30 721 722 initlist 0;
#X obj 513 209 sdList;
#X msg 513 167 serialize \, clear;
#X obj 501 128 t b l;
#X obj 513 232 route symbol;
#X obj 456 294 sdList;
#X msg 412 225 bang \, clear;
#X obj 44 19 inlet;
#X obj 456 317 outlet;
#X obj 504 92 list append \$3 \$4 \$5 \$6 \$7;
#X connect 0 0 3 0;
#X connect 1 0 0 0;
#X connect 2 0 1 0;
#X connect 2 0 5 0;
#X connect 2 1 0 1;
#X connect 3 0 4 1;
#X connect 4 0 7 0;
#X connect 5 0 4 0;
#X connect 6 0 8 0;
#X connect 8 0 2 0;
#X restore 72 92 pd initlist;
#X obj 72 46 sdPackFilter init;
#X obj 72 69 t b;
#X obj 75 15 inlet;
#X obj 72 115 outlet;
#X connect 0 0 4 0;
#X connect 1 0 2 0;
#X connect 2 0 0 0;
#X connect 3 0 1 0;
#X restore 595 101 pd init groups;
#X obj 595 79 r \$2;
#X text 596 23 \$1: name \; \$2: init rcv \; \$3...: groups;
#X obj 595 147 s \$0-groups_rcv;
#X obj 595 124 sdSetSelector priv.set;
#X obj 321 91 sdObjTrack dest;
#X obj 344 270 list;
#X obj 344 294 s \$0-fromProperties;
#X obj 192 388 t a a;
#X obj 275 607 s \$0-fromDest.out;
#X obj 302 584 s \$0-numProps_rcv;
#X obj 302 560 sdSetSelector priv.set;
#X obj 275 466 t a a;
#X obj 354 514 sdSetSelector priv.set;
#X obj 354 538 s \$0-symProps_rcv;
#X obj 14 406 t a a, f 24;
#X obj 321 137 sdObjGetAll \$1 get_with_range;
#X obj 291 401 s \$0-fromDest_single_msg.in;
#X obj 5 360 r \$0-fromDest_single_msg.in;
#N canvas 0 30 681 722 generic 0;
#X obj 37 37 inlet;
#X obj 253 374 sdPackFilter get_sym_by_ind;
#X obj 324 399 sdPackFilter set_sym_by_ind;
#N canvas 0 30 681 722 num_by_ind 0;
#X obj 96 185 r \$0-numProps;
#X obj 75 114 sdUnPack;
#X obj 96 208 sdSetSelector set;
#X msg 75 138 get \$1;
#X obj 57 239 sdList get;
#X obj 43 353 s \$1.out;
#X obj 198 123 sdUnPack;
#X obj 123 274 sdGate;
#X obj 110 65 t a b;
#X msg 175 250 1;
#X msg 214 249 0;
#X obj 194 407 s \$1.out;
#X obj 198 146 unpack, f 20;
#X obj 198 92 t a b;
#X obj 194 358 sdPack property;
#X obj 195 334 f;
#X obj 164 298 t b s;
#X obj 85 18 inlet;
#X obj 215 26 inlet;
#X obj 43 328 sdPack get_in_range;
#X obj 194 382 sdPack set_in_range;
#X connect 0 0 2 0;
#X connect 1 0 3 0;
#X connect 2 0 4 0;
#X connect 3 0 4 0;
#X connect 4 0 7 0;
#X connect 6 0 12 0;
#X connect 7 0 19 0;
#X connect 7 1 16 0;
#X connect 8 0 1 0;
#X connect 8 1 9 0;
#X connect 9 0 7 1;
#X connect 10 0 7 1;
#X connect 12 0 3 0;
#X connect 12 1 15 1;
#X connect 13 0 6 0;
#X connect 13 1 10 0;
#X connect 14 0 20 0;
#X connect 15 0 14 0;
#X connect 16 0 15 0;
#X connect 16 1 14 1;
#X connect 17 0 8 0;
#X connect 18 0 13 0;
#X connect 19 0 5 0;
#X connect 20 0 11 0;
#X restore 42 291 pd num_by_ind;
#N canvas 0 30 681 722 sym_by_ind 0;
#X obj 75 114 sdUnPack;
#X obj 96 208 sdSetSelector set;
#X msg 75 138 get \$1;
#X obj 57 239 sdList get;
#X obj 86 309 sdPack get;
#X obj 86 334 s \$1.out;
#X obj 198 123 sdUnPack;
#X obj 123 274 sdGate;
#X obj 110 65 t a b;
#X msg 175 250 1;
#X msg 214 249 0;
#X obj 194 407 s \$1.out;
#X obj 194 382 sdPack set;
#X obj 198 92 t a b;
#X obj 194 358 sdPack property;
#X obj 164 298 t b s;
#X obj 85 18 inlet;
#X obj 215 26 inlet;
#X obj 96 185 r \$0-symProps;
#X obj 198 146 unpack f s, f 20;
#X obj 195 334 symbol;
#X connect 0 0 2 0;
#X connect 1 0 3 0;
#X connect 2 0 3 0;
#X connect 3 0 7 0;
#X connect 4 0 5 0;
#X connect 6 0 19 0;
#X connect 7 0 4 0;
#X connect 7 1 15 0;
#X connect 8 0 0 0;
#X connect 8 1 9 0;
#X connect 9 0 7 1;
#X connect 10 0 7 1;
#X connect 12 0 11 0;
#X connect 13 0 6 0;
#X connect 13 1 10 0;
#X connect 14 0 12 0;
#X connect 15 0 20 0;
#X connect 15 1 14 1;
#X connect 16 0 8 0;
#X connect 17 0 13 0;
#X connect 18 0 1 0;
#X connect 19 0 2 0;
#X connect 19 1 20 1;
#X connect 20 0 14 0;
#X restore 253 422 pd sym_by_ind;
#X obj 98 104 sdPackFilter set_num_by_ind;
#N canvas 0 30 721 722 num_by_ind 0;
#X obj 96 185 r \$0-numProps;
#X obj 75 114 sdUnPack;
#X obj 96 208 sdSetSelector set;
#X msg 75 138 get \$1;
#X obj 57 239 sdList get;
#X obj 42 368 sdPack get;
#X obj 42 393 s \$1.out;
#X obj 198 123 sdUnPack;
#X obj 123 274 sdGate;
#X obj 110 65 t a b;
#X msg 175 250 1;
#X msg 214 249 0;
#X obj 323 493 s \$1.out;
#X obj 323 468 sdPack set;
#X obj 198 146 unpack, f 20;
#X obj 198 92 t a b;
#X obj 323 444 sdPack property;
#X obj 324 420 f;
#X obj 293 384 t b s;
#X obj 85 18 inlet;
#X obj 215 26 inlet;
#X connect 0 0 2 0;
#X connect 1 0 3 0;
#X connect 2 0 4 0;
#X connect 3 0 4 0;
#X connect 4 0 8 0;
#X connect 5 0 6 0;
#X connect 7 0 14 0;
#X connect 8 0 5 0;
#X connect 8 1 18 0;
#X connect 9 0 1 0;
#X connect 9 1 10 0;
#X connect 10 0 8 1;
#X connect 11 0 8 1;
#X connect 13 0 12 0;
#X connect 14 0 3 0;
#X connect 14 1 17 1;
#X connect 15 0 7 0;
#X connect 15 1 11 0;
#X connect 16 0 13 0;
#X connect 17 0 16 0;
#X connect 18 0 17 0;
#X connect 18 1 16 1;
#X connect 19 0 9 0;
#X connect 20 0 15 0;
#X restore 27 126 pd num_by_ind;
#X obj 27 77 sdPackFilter get_num_by_ind;
#X obj 42 242 sdPackFilter get_num_by_ind_in_range;
#X obj 75 269 sdPackFilter set_num_by_ind_in_range;
#X obj 518 554 outlet;
#X obj 310 86 sdPackFilter get_min_by_ind;
#X obj 381 113 sdPackFilter set_min_by_ind;
#N canvas 0 30 681 722 min_by_ind 0;
#X obj 96 185 r \$0-numProps;
#X obj 75 114 sdUnPack;
#X obj 96 208 sdSetSelector set;
#X msg 75 138 get \$1;
#X obj 57 239 sdList get;
#X obj 42 393 s \$1.out;
#X obj 198 123 sdUnPack;
#X obj 123 274 sdGate;
#X obj 110 65 t a b;
#X msg 175 250 1;
#X msg 214 249 0;
#X obj 323 493 s \$1.out;
#X obj 198 146 unpack, f 20;
#X obj 198 92 t a b;
#X obj 323 444 sdPack property;
#X obj 324 420 f;
#X obj 293 384 t b s;
#X obj 85 18 inlet;
#X obj 215 26 inlet;
#X obj 42 368 sdPack get_min;
#X obj 323 468 sdPack set_min;
#X connect 0 0 2 0;
#X connect 1 0 3 0;
#X connect 2 0 4 0;
#X connect 3 0 4 0;
#X connect 4 0 7 0;
#X connect 6 0 12 0;
#X connect 7 0 19 0;
#X connect 7 1 16 0;
#X connect 8 0 1 0;
#X connect 8 1 9 0;
#X connect 9 0 7 1;
#X connect 10 0 7 1;
#X connect 12 0 3 0;
#X connect 12 1 15 1;
#X connect 13 0 6 0;
#X connect 13 1 10 0;
#X connect 14 0 20 0;
#X connect 15 0 14 0;
#X connect 16 0 15 0;
#X connect 16 1 14 1;
#X connect 17 0 8 0;
#X connect 18 0 13 0;
#X connect 19 0 5 0;
#X connect 20 0 11 0;
#X restore 310 135 pd min_by_ind;
#X obj 359 232 sdPackFilter get_max_by_ind;
#X obj 430 259 sdPackFilter set_max_by_ind;
#N canvas 0 30 681 722 max_by_ind 0;
#X obj 96 185 r \$0-numProps;
#X obj 75 114 sdUnPack;
#X obj 96 208 sdSetSelector set;
#X msg 75 138 get \$1;
#X obj 57 239 sdList get;
#X obj 42 393 s \$1.out;
#X obj 198 123 sdUnPack;
#X obj 123 274 sdGate;
#X obj 110 65 t a b;
#X msg 175 250 1;
#X msg 214 249 0;
#X obj 323 493 s \$1.out;
#X obj 198 146 unpack, f 20;
#X obj 198 92 t a b;
#X obj 323 444 sdPack property;
#X obj 324 420 f;
#X obj 293 384 t b s;
#X obj 85 18 inlet;
#X obj 215 26 inlet;
#X obj 42 368 sdPack get_max;
#X obj 324 468 sdPack set_max;
#X connect 0 0 2 0;
#X connect 1 0 3 0;
#X connect 2 0 4 0;
#X connect 3 0 4 0;
#X connect 4 0 7 0;
#X connect 6 0 12 0;
#X connect 7 0 19 0;
#X connect 7 1 16 0;
#X connect 8 0 1 0;
#X connect 8 1 9 0;
#X connect 9 0 7 1;
#X connect 10 0 7 1;
#X connect 12 0 3 0;
#X connect 12 1 15 1;
#X connect 13 0 6 0;
#X connect 13 1 10 0;
#X connect 14 0 20 0;
#X connect 15 0 14 0;
#X connect 16 0 15 0;
#X connect 16 1 14 1;
#X connect 17 0 8 0;
#X connect 18 0 13 0;
#X connect 19 0 5 0;
#X connect 20 0 11 0;
#X restore 359 282 pd max_by_ind;
#X obj 115 497 sdPackFilter send_event_by_ind;
#N canvas 0 30 681 722 events 0;
#X msg 143 206 get \$1;
#X msg 365 163 clear;
#X obj 333 141 t a b;
#X obj 313 185 sdSetSelector set;
#X obj 304 117 t b a;
#X obj 307 63 inlet;
#X obj 169 240 sdList get;
#X obj 169 337 outlet;
#X obj 131 62 inlet;
#X msg 169 263 list \$1 0;
#X obj 131 85 sdUnPack;
#X connect 0 0 6 0;
#X connect 1 0 6 0;
#X connect 2 0 3 0;
#X connect 2 1 1 0;
#X connect 3 0 6 0;
#X connect 4 1 2 0;
#X connect 5 0 4 0;
#X connect 6 0 9 0;
#X connect 8 0 10 0;
#X connect 9 0 7 0;
#X connect 10 0 0 0;
#X restore 115 547 pd events;
#X obj 115 570 s \$1.out;
#X obj 621 408 inlet;
#X connect 0 0 7 0;
#X connect 1 0 4 0;
#X connect 1 1 2 0;
#X connect 2 0 4 1;
#X connect 2 1 17 0;
#X connect 5 0 6 1;
#X connect 5 1 11 0;
#X connect 7 0 6 0;
#X connect 7 1 5 0;
#X connect 8 0 3 0;
#X connect 8 1 9 0;
#X connect 9 0 3 1;
#X connect 9 1 14 0;
#X connect 11 0 13 0;
#X connect 11 1 12 0;
#X connect 12 0 13 1;
#X connect 12 1 8 0;
#X connect 14 0 16 0;
#X connect 14 1 15 0;
#X connect 15 0 16 1;
#X connect 15 1 1 0;
#X connect 17 0 18 0;
#X connect 17 1 10 0;
#X connect 18 0 19 0;
#X connect 20 0 18 1;
#X restore 31 256 pd generic msgs -> dest;
#X obj 31 287 sdPackFilter send;
#X obj 31 310 sdUnPack;
#X obj 31 333 s \$1.out;
#X obj 483 13 inlet;
#X obj 483 36 s \$1.out;
#X obj 84 506 r \$0-symProps;
#X obj 168 560 s \$0-events;
#X obj 116 215 r \$0-events;
#N canvas 0 30 681 722 updateInstr 0;
#X obj 107 51 inlet;
#X obj 157 117 t a b, f 21;
#X obj 278 368 t a a;
#X obj 146 603 outlet;
#X obj 311 470 unpack f f f;
#X obj 394 612 outlet;
#X obj 721 692 outlet;
#X obj 664 451 route bang;
#X obj 96 80 t b a;
#X obj 146 490 t b b;
#X msg 173 528 clear;
#X msg 386 550 clear;
#X obj 664 428 sdUnPack;
#X obj 157 142 sdUnPack;
#X obj 429 517 sdGate;
#X obj 278 496 sdGate;
#X obj 177 232 sdData;
#X obj 182 174 t b a;
#X obj 211 200 sdSetSelector set;
#X msg 128 201 serialize;
#X obj 311 421 route float symbol list bang;
#X msg 363 445 0 1;
#X msg 311 445 1 0;
#X msg 411 446 0 0;
#X msg 521 504 error: unable to determine property type;
#X obj 521 462 t b;
#X obj 311 397 sdUnPack;
#X obj 152 570 sdList;
#X obj 225 532 sdUnPack;
#X obj 438 543 sdUnPack;
#X obj 394 583 sdList;
#X obj 526 530 print \$1;
#X obj 443 33 inlet;
#X obj 241 297 sdPackFilter range_info;
#X obj 359 318 sdPackFilter out events;
#X connect 0 0 8 0;
#X connect 1 0 13 0;
#X connect 1 1 10 0;
#X connect 1 1 11 0;
#X connect 2 0 15 0;
#X connect 2 1 26 0;
#X connect 4 0 15 1;
#X connect 4 1 14 1;
#X connect 7 1 6 0;
#X connect 8 0 9 0;
#X connect 8 1 1 0;
#X connect 9 0 27 0;
#X connect 9 1 30 0;
#X connect 10 0 27 0;
#X connect 11 0 30 0;
#X connect 12 0 7 0;
#X connect 13 0 17 0;
#X connect 14 0 29 0;
#X connect 15 0 28 0;
#X connect 15 1 14 0;
#X connect 16 0 33 0;
#X connect 17 0 19 0;
#X connect 17 1 18 0;
#X connect 18 0 16 0;
#X connect 19 0 16 0;
#X connect 20 0 22 0;
#X connect 20 1 21 0;
#X connect 20 2 21 0;
#X connect 20 3 21 0;
#X connect 20 4 23 0;
#X connect 20 4 25 0;
#X connect 21 0 4 0;
#X connect 22 0 4 0;
#X connect 23 0 4 0;
#X connect 24 0 31 0;
#X connect 25 0 24 0;
#X connect 26 0 20 0;
#X connect 27 0 3 0;
#X connect 28 2 27 1;
#X connect 29 2 30 1;
#X connect 30 0 5 0;
#X connect 33 1 34 0;
#X connect 34 0 12 0;
#X connect 34 1 2 0;
#X restore 302 491 pd updateInstr;
#X obj 250 270 t a a;
#X obj 195 236 t b;
#X connect 0 0 3 0;
#X connect 1 0 30 0;
#X connect 1 1 16 0;
#X connect 2 0 30 0;
#X connect 2 1 1 0;
#X connect 3 0 43 0;
#X connect 3 1 2 0;
#X connect 3 2 9 0;
#X connect 4 0 3 1;
#X connect 6 0 53 0;
#X connect 7 0 3 2;
#X connect 9 0 29 0;
#X connect 9 1 11 0;
#X connect 10 0 40 0;
#X connect 12 0 5 0;
#X connect 13 0 41 0;
#X connect 14 0 32 0;
#X connect 14 1 13 0;
#X connect 16 0 30 0;
#X connect 18 0 17 0;
#X connect 19 0 8 0;
#X connect 20 0 23 0;
#X connect 20 1 15 0;
#X connect 21 0 23 1;
#X connect 23 0 22 0;
#X connect 23 1 50 0;
#X connect 24 0 28 0;
#X connect 25 0 24 0;
#X connect 28 0 27 0;
#X connect 29 0 10 0;
#X connect 30 0 31 0;
#X connect 32 0 23 3;
#X connect 32 1 36 0;
#X connect 35 0 34 0;
#X connect 36 0 33 0;
#X connect 36 1 52 0;
#X connect 37 0 38 0;
#X connect 39 0 20 0;
#X connect 42 0 39 0;
#X connect 43 0 44 0;
#X connect 44 0 45 0;
#X connect 44 1 14 0;
#X connect 45 0 46 0;
#X connect 47 0 48 0;
#X connect 49 0 23 2;
#X connect 51 0 43 1;
#X connect 52 0 35 0;
#X connect 52 1 37 0;
#X connect 53 0 54 0;
#X connect 53 1 14 1;
#X connect 54 0 43 1;
