#N canvas 0 30 681 722 10;
#X obj 33 10 inlet;
#X obj 567 203 sdPropertyList numProps \$0;
#X obj 548 145 sdPropertySym dest \$0;
#X obj 216 49 sdObjState \$1 \$2;
#X obj 322 275 list;
#X obj 259 23 r \$0-fromProperties;
#X obj 322 299 s \$0-fromProperties;
#X obj 27 681 outlet;
#X obj 195 190 r \$0-dest;
#X obj 394 25 r \$1.out;
#X obj 234 687 outlet;
#X obj 321 67 t a a, f 20;
#N canvas 0 30 721 722 connect 0;
#X obj 37 37 inlet;
#X text 217 373 print info for the dumb user;
#X obj 142 115 sdUnPack;
#X obj 138 175 t b s;
#X obj 131 219 sdObjConnectTo \$1 \$1;
#X obj 142 138 t s s;
#X obj 131 242 unpack s s;
#X obj 184 165 sdObjConnectTo \$1 \$1;
#X obj 138 266 outlet;
#X msg 203 396 connected \$1 -> \$2;
#X obj 203 420 print \$1;
#X connect 0 0 2 0;
#X connect 2 0 5 0;
#X connect 3 0 4 0;
#X connect 3 1 4 1;
#X connect 4 0 6 0;
#X connect 4 1 9 0;
#X connect 5 0 3 0;
#X connect 5 1 7 0;
#X connect 6 1 8 0;
#X connect 7 1 9 0;
#X connect 9 0 10 0;
#X restore 321 114 pd connect;
#X obj 438 90 s \$0-fromObj.out;
#X obj 27 658 r \$0-fromObj.out;
#X obj 285 351 sdPackFilter info update;
#X obj 186 328 sdPackFilter dest;
#X obj 41 455 s \$0-fromDest.out;
#X obj 579 230 sdPropertyList symProps \$0;
#X obj 479 688 outlet;
#X obj 479 664 r \$0-fromDest.out;
#X obj 234 663 r \$0-fromDest.generic;
#X obj 14 431 t a a;
#X obj 66 519 r \$0-numProps;
#X obj 14 619 s \$0-fromDest.generic;
#N canvas 0 30 762 722 num_generic_out 0;
#X obj 658 340 sdList;
#X obj 51 88 sdUnPack;
#X obj 559 291 sdUnPack;
#X msg 602 314 find \$1;
#X obj 672 297 sdSetSelector set;
#X obj 565 443 list prepend;
#X obj 16 21 inlet;
#X obj 261 28 inlet;
#X obj 569 642 outlet;
#X obj 658 364 sdFilter -1;
#X msg 618 378 0;
#X obj 565 399 sdGate;
#X obj 721 386 t b f;
#X msg 656 394 1;
#X obj 562 64 sdUnPack;
#X obj 562 109 t b a;
#X msg 562 132 serialize;
#X obj 562 161 sdData;
#X obj 562 87 t a b;
#X msg 644 132 clear;
#X obj 562 11 inlet;
#X obj 358 259 sdPackFilter range_info;
#X obj 358 283 sdUnPack;
#X obj 387 334 list split 1;
#X obj 360 311 t a a;
#X obj 448 406 sdList;
#X msg 392 380 find \$1;
#X obj 448 367 sdSetSelector set;
#X obj 403 512 list prepend;
#X obj 448 430 sdFilter -1;
#X msg 408 444 0;
#X obj 355 465 sdGate;
#X obj 511 452 t b f;
#X msg 417 473 1;
#X obj 565 465 sdPack update_num;
#X obj 403 536 sdPack update_num_range;
#X obj 393 26 inlet;
#X text 391 5 symprops;
#X obj 825 340 sdList;
#X obj 834 303 sdSetSelector set;
#X obj 762 468 list prepend;
#X obj 825 366 sdFilter -1;
#X msg 825 389 0;
#X obj 757 439 sdGate;
#X obj 873 394 t b f;
#X msg 829 419 1;
#X obj 762 493 sdPack update_sym;
#X obj 32 570 t a;
#X obj 58 146 sdPackFilter events;
#X obj 95 195 sdPackFilter out;
#X obj 42 183 t a a;
#X obj 855 650 outlet;
#X obj 843 591 sdUnPack;
#X obj 177 26 inlet;
#X obj 1014 357 sdList;
#X obj 1028 314 sdSetSelector set;
#X obj 957 466 list prepend;
#X obj 1014 381 sdFilter -1;
#X msg 1005 403 0;
#X obj 957 422 sdGate;
#X obj 1077 403 t b f;
#X msg 1027 425 1;
#X obj 957 488 sdPack update_bool;
#X text 260 9 numprops;
#X text 166 7 boolprops;
#X connect 0 0 9 0;
#X connect 1 0 48 0;
#X connect 2 0 11 0;
#X connect 2 2 3 0;
#X connect 3 0 0 0;
#X connect 3 0 38 0;
#X connect 3 0 54 0;
#X connect 4 0 0 0;
#X connect 5 0 34 0;
#X connect 6 0 1 0;
#X connect 7 0 4 0;
#X connect 7 0 27 0;
#X connect 9 0 10 0;
#X connect 9 1 12 0;
#X connect 10 0 11 1;
#X connect 11 0 5 0;
#X connect 11 1 43 0;
#X connect 12 0 13 0;
#X connect 12 1 5 1;
#X connect 13 0 11 1;
#X connect 14 0 18 0;
#X connect 15 0 16 0;
#X connect 15 1 17 1;
#X connect 16 0 17 0;
#X connect 17 0 48 0;
#X connect 18 0 15 0;
#X connect 18 1 19 0;
#X connect 19 0 17 0;
#X connect 20 0 14 0;
#X connect 21 0 22 0;
#X connect 21 1 2 0;
#X connect 22 0 24 0;
#X connect 23 0 26 0;
#X connect 24 0 31 0;
#X connect 24 1 23 0;
#X connect 25 0 29 0;
#X connect 26 0 25 0;
#X connect 27 0 25 0;
#X connect 28 0 35 0;
#X connect 29 0 30 0;
#X connect 29 1 32 0;
#X connect 30 0 31 1;
#X connect 31 0 28 0;
#X connect 32 0 33 0;
#X connect 32 1 28 1;
#X connect 33 0 31 1;
#X connect 34 0 8 0;
#X connect 35 0 8 0;
#X connect 36 0 39 0;
#X connect 38 0 41 0;
#X connect 39 0 38 0;
#X connect 40 0 46 0;
#X connect 41 0 42 0;
#X connect 41 1 44 0;
#X connect 42 0 43 1;
#X connect 43 0 40 0;
#X connect 43 1 59 0;
#X connect 44 0 45 0;
#X connect 44 1 40 1;
#X connect 45 0 43 1;
#X connect 46 0 8 0;
#X connect 47 0 8 0;
#X connect 48 0 50 0;
#X connect 48 1 49 0;
#X connect 49 0 47 0;
#X connect 49 1 21 0;
#X connect 50 0 47 0;
#X connect 50 1 52 0;
#X connect 52 0 51 0;
#X connect 53 0 55 0;
#X connect 54 0 57 0;
#X connect 55 0 54 0;
#X connect 56 0 62 0;
#X connect 57 0 58 0;
#X connect 57 1 60 0;
#X connect 58 0 59 1;
#X connect 59 0 56 0;
#X connect 60 0 61 0;
#X connect 60 1 56 1;
#X connect 61 0 59 1;
#X connect 62 0 8 0;
#X restore 14 571 pd num_generic_out;
#X obj 318 187 sdProperty groupIndex \$0;
#X obj 524 116 sdProperty destIndex \$0;
#N canvas 0 30 681 722 index 0;
#X obj 69 13 inlet;
#X obj 87 288 outlet;
#X obj 313 6 inlet;
#X msg 82 154 get \$1;
#X obj 294 169 sdSetSelector set;
#X obj 263 108 t b a;
#X obj 223 290 outlet;
#X obj 101 249 sdUnPack;
#X obj 142 214 sdData get count serialize;
#X obj 362 287 sdList;
#X msg 523 180 clear;
#X msg 179 167 count \, serialize;
#X obj 312 75 t a b;
#X obj 312 236 sdUnPack;
#X obj 208 134 t b b;
#X obj 362 310 outlet;
#X connect 0 0 3 0;
#X connect 2 0 12 0;
#X connect 3 0 8 0;
#X connect 4 0 8 0;
#X connect 5 0 14 0;
#X connect 5 1 4 0;
#X connect 7 2 1 0;
#X connect 8 0 7 0;
#X connect 8 1 6 0;
#X connect 8 2 13 0;
#X connect 9 0 15 0;
#X connect 10 0 9 0;
#X connect 11 0 8 0;
#X connect 12 0 5 0;
#X connect 12 1 10 0;
#X connect 13 2 9 1;
#X connect 14 0 9 0;
#X connect 14 1 11 0;
#X restore 451 514 pd index -> obj;
#N canvas 0 30 681 722 get_objs 0;
#X obj 104 221 sdObjSaveAll \$1;
#X obj 104 295 outlet;
#X msg 328 90 get \$1;
#X obj 178 9 inlet;
#X obj 328 155 sdList get count;
#X obj 450 14 inlet;
#X obj 450 121 sdSetSelector set;
#X obj 450 67 t b a;
#X msg 406 98 count;
#X obj 311 217 outlet;
#X text 304 245 group name;
#X obj 409 218 outlet;
#X text 409 243 number of groups;
#X obj 285 181 t a a;
#X obj 178 89 t b f;
#X msg 104 196 save \, get state;
#X obj 104 244 route state;
#X obj 104 267 list;
#X msg 210 198 set dest \$1;
#X connect 0 0 16 0;
#X connect 2 0 4 0;
#X connect 3 0 14 0;
#X connect 4 0 13 0;
#X connect 4 1 11 0;
#X connect 5 0 7 0;
#X connect 6 0 4 0;
#X connect 7 0 8 0;
#X connect 7 1 6 0;
#X connect 8 0 4 0;
#X connect 13 0 18 0;
#X connect 13 1 9 0;
#X connect 14 0 15 0;
#X connect 14 1 2 0;
#X connect 15 0 0 0;
#X connect 16 0 17 0;
#X connect 17 0 1 0;
#X connect 18 0 0 0;
#X restore 538 491 pd get_objs;
#N canvas 0 30 681 722 init 0;
#N canvas 0 30 681 722 initlist 0;
#X obj 513 209 sdList;
#X msg 513 167 serialize \, clear;
#X obj 501 128 t b l;
#X obj 513 232 route symbol;
#X obj 456 294 sdList;
#X msg 412 225 bang \, clear;
#X obj 44 19 inlet;
#X obj 456 317 outlet;
#X obj 504 92 list append \$3 \$4 \$5 \$6 \$7;
#X connect 0 0 3 0;
#X connect 1 0 0 0;
#X connect 2 0 1 0;
#X connect 2 0 5 0;
#X connect 2 1 0 1;
#X connect 3 0 4 1;
#X connect 4 0 7 0;
#X connect 5 0 4 0;
#X connect 6 0 8 0;
#X connect 8 0 2 0;
#X restore 72 92 pd initlist;
#X obj 72 46 sdPackFilter init;
#X obj 72 69 t b;
#X obj 75 15 inlet;
#X obj 72 115 outlet;
#X connect 0 0 4 0;
#X connect 1 0 2 0;
#X connect 2 0 0 0;
#X connect 3 0 1 0;
#X restore 134 109 pd init groups;
#X text 543 13 \$1: name \; \$2: init rcv \; \$3...: groups;
#X obj 295 161 sdPropertyList groups \$0;
#X obj 489 395 r \$0-groupIndex;
#X obj 436 488 r \$0-destIndex;
#X obj 134 155 s \$0-groups_rcv;
#X obj 134 132 sdSetSelector priv.set;
#X obj 511 296 r \$0-groups;
#X msg 435 545 priv.set \$1;
#X obj 435 568 s \$0-dest_rcv;
#X floatatom 524 549 5 0 0 0 - - -;
#X floatatom 602 517 5 0 0 0 - - -;
#X obj 321 91 sdObjTrack dest;
#X msg 588 549 priv.set \$1;
#X obj 588 572 s \$0-group_rcv;
#X obj 331 214 sdPropertySym group \$0;
#X obj 530 629 s \$0-objs_rcv;
#X obj 538 600 sdSetSelector priv.set;
#X obj 344 240 sdPropertyList objs \$0;
#X obj 524 247 list;
#X obj 524 271 s \$0-fromProperties;
#X obj 186 388 t a a;
#X obj 213 620 s \$0-fromDest.out;
#X obj 267 533 s \$0-numProps_rcv;
#X obj 267 509 sdSetSelector priv.set;
#X obj 213 413 t a a;
#X obj 292 461 sdSetSelector priv.set;
#X obj 292 485 s \$0-symProps_rcv;
#X obj 14 406 t a a, f 6;
#X obj 321 137 sdObjGetAll \$1 get_with_range;
#X obj 285 374 s \$0-fromDest_single_msg.in;
#X obj 14 357 r \$0-fromDest_single_msg.in, f 16;
#N canvas 0 30 681 722 generic 0;
#X obj 37 37 inlet;
#X obj 253 404 sdPackFilter get_sym_by_ind;
#X obj 324 429 sdPackFilter set_sym_by_ind;
#N canvas 0 30 681 722 num_by_ind 0;
#X obj 96 185 r \$0-numProps;
#X obj 75 114 sdUnPack;
#X obj 96 208 sdSetSelector set;
#X msg 75 138 get \$1;
#X obj 57 239 sdList get;
#X obj 43 353 s \$1.out;
#X obj 198 123 sdUnPack;
#X obj 123 274 sdGate;
#X obj 110 65 t a b;
#X msg 175 250 1;
#X msg 214 249 0;
#X obj 194 407 s \$1.out;
#X obj 198 146 unpack, f 20;
#X obj 198 92 t a b;
#X obj 194 358 sdPack property;
#X obj 195 334 f;
#X obj 164 298 t b s;
#X obj 85 18 inlet;
#X obj 215 26 inlet;
#X obj 43 328 sdPack get_in_range;
#X obj 194 382 sdPack set_in_range;
#X connect 0 0 2 0;
#X connect 1 0 3 0;
#X connect 2 0 4 0;
#X connect 3 0 4 0;
#X connect 4 0 7 0;
#X connect 6 0 12 0;
#X connect 7 0 19 0;
#X connect 7 1 16 0;
#X connect 8 0 1 0;
#X connect 8 1 9 0;
#X connect 9 0 7 1;
#X connect 10 0 7 1;
#X connect 12 0 3 0;
#X connect 12 1 15 1;
#X connect 13 0 6 0;
#X connect 13 1 10 0;
#X connect 14 0 20 0;
#X connect 15 0 14 0;
#X connect 16 0 15 0;
#X connect 16 1 14 1;
#X connect 17 0 8 0;
#X connect 18 0 13 0;
#X connect 19 0 5 0;
#X connect 20 0 11 0;
#X restore 12 361 pd num_by_ind;
#N canvas 0 30 681 722 sym_by_ind 0;
#X obj 75 114 sdUnPack;
#X obj 96 208 sdSetSelector set;
#X msg 75 138 get \$1;
#X obj 57 239 sdList get;
#X obj 86 309 sdPack get;
#X obj 86 334 s \$1.out;
#X obj 198 123 sdUnPack;
#X obj 123 274 sdGate;
#X obj 110 65 t a b;
#X msg 175 250 1;
#X msg 214 249 0;
#X obj 194 407 s \$1.out;
#X obj 194 382 sdPack set;
#X obj 198 92 t a b;
#X obj 194 358 sdPack property;
#X obj 164 298 t b s;
#X obj 85 18 inlet;
#X obj 215 26 inlet;
#X obj 96 185 r \$0-symProps;
#X obj 198 146 unpack f s, f 20;
#X obj 195 334 symbol;
#X connect 0 0 2 0;
#X connect 1 0 3 0;
#X connect 2 0 3 0;
#X connect 3 0 7 0;
#X connect 4 0 5 0;
#X connect 6 0 19 0;
#X connect 7 0 4 0;
#X connect 7 1 15 0;
#X connect 8 0 0 0;
#X connect 8 1 9 0;
#X connect 9 0 7 1;
#X connect 10 0 7 1;
#X connect 12 0 11 0;
#X connect 13 0 6 0;
#X connect 13 1 10 0;
#X connect 14 0 12 0;
#X connect 15 0 20 0;
#X connect 15 1 14 1;
#X connect 16 0 8 0;
#X connect 17 0 13 0;
#X connect 18 0 1 0;
#X connect 19 0 2 0;
#X connect 19 1 20 1;
#X connect 20 0 14 0;
#X restore 253 452 pd sym_by_ind;
#X obj 98 104 sdPackFilter set_num_by_ind;
#N canvas 0 30 681 722 num_by_ind 0;
#X obj 96 185 r \$0-numProps;
#X obj 75 114 sdUnPack;
#X obj 96 208 sdSetSelector set;
#X msg 75 138 get \$1;
#X obj 57 239 sdList get;
#X obj 42 368 sdPack get;
#X obj 42 393 s \$1.out;
#X obj 198 123 sdUnPack;
#X obj 123 274 sdGate;
#X obj 110 65 t a b;
#X msg 175 250 1;
#X msg 214 249 0;
#X obj 323 493 s \$1.out;
#X obj 323 468 sdPack set;
#X obj 198 146 unpack, f 20;
#X obj 198 92 t a b;
#X obj 323 444 sdPack property;
#X obj 324 420 f;
#X obj 293 384 t b s;
#X obj 85 18 inlet;
#X obj 215 26 inlet;
#X connect 0 0 2 0;
#X connect 1 0 3 0;
#X connect 2 0 4 0;
#X connect 3 0 4 0;
#X connect 4 0 8 0;
#X connect 5 0 6 0;
#X connect 7 0 14 0;
#X connect 8 0 5 0;
#X connect 8 1 18 0;
#X connect 9 0 1 0;
#X connect 9 1 10 0;
#X connect 10 0 8 1;
#X connect 11 0 8 1;
#X connect 13 0 12 0;
#X connect 14 0 3 0;
#X connect 14 1 17 1;
#X connect 15 0 7 0;
#X connect 15 1 11 0;
#X connect 16 0 13 0;
#X connect 17 0 16 0;
#X connect 18 0 17 0;
#X connect 18 1 16 1;
#X connect 19 0 9 0;
#X connect 20 0 15 0;
#X restore 27 126 pd num_by_ind;
#X obj 27 77 sdPackFilter get_num_by_ind;
#X obj 12 312 sdPackFilter get_num_by_ind_in_range;
#X obj 45 339 sdPackFilter set_num_by_ind_in_range;
#X obj 531 635 outlet;
#X obj 310 86 sdPackFilter get_min_by_ind;
#X obj 381 113 sdPackFilter set_min_by_ind;
#N canvas 0 30 681 722 min_by_ind 0;
#X obj 96 185 r \$0-numProps;
#X obj 75 114 sdUnPack;
#X obj 96 208 sdSetSelector set;
#X msg 75 138 get \$1;
#X obj 57 239 sdList get;
#X obj 42 393 s \$1.out;
#X obj 198 123 sdUnPack;
#X obj 123 274 sdGate;
#X obj 110 65 t a b;
#X msg 175 250 1;
#X msg 214 249 0;
#X obj 323 493 s \$1.out;
#X obj 198 146 unpack, f 20;
#X obj 198 92 t a b;
#X obj 323 444 sdPack property;
#X obj 324 420 f;
#X obj 293 384 t b s;
#X obj 85 18 inlet;
#X obj 215 26 inlet;
#X obj 42 368 sdPack get_min;
#X obj 323 468 sdPack set_min;
#X connect 0 0 2 0;
#X connect 1 0 3 0;
#X connect 2 0 4 0;
#X connect 3 0 4 0;
#X connect 4 0 7 0;
#X connect 6 0 12 0;
#X connect 7 0 19 0;
#X connect 7 1 16 0;
#X connect 8 0 1 0;
#X connect 8 1 9 0;
#X connect 9 0 7 1;
#X connect 10 0 7 1;
#X connect 12 0 3 0;
#X connect 12 1 15 1;
#X connect 13 0 6 0;
#X connect 13 1 10 0;
#X connect 14 0 20 0;
#X connect 15 0 14 0;
#X connect 16 0 15 0;
#X connect 16 1 14 1;
#X connect 17 0 8 0;
#X connect 18 0 13 0;
#X connect 19 0 5 0;
#X connect 20 0 11 0;
#X restore 310 135 pd min_by_ind;
#X obj 279 302 sdPackFilter get_max_by_ind;
#X obj 350 329 sdPackFilter set_max_by_ind;
#N canvas 0 30 681 722 max_by_ind 0;
#X obj 96 185 r \$0-numProps;
#X obj 75 114 sdUnPack;
#X obj 96 208 sdSetSelector set;
#X msg 75 138 get \$1;
#X obj 57 239 sdList get;
#X obj 42 393 s \$1.out;
#X obj 198 123 sdUnPack;
#X obj 123 274 sdGate;
#X obj 110 65 t a b;
#X msg 175 250 1;
#X msg 214 249 0;
#X obj 323 493 s \$1.out;
#X obj 198 146 unpack, f 20;
#X obj 198 92 t a b;
#X obj 323 444 sdPack property;
#X obj 324 420 f;
#X obj 293 384 t b s;
#X obj 85 18 inlet;
#X obj 215 26 inlet;
#X obj 42 368 sdPack get_max;
#X obj 324 468 sdPack set_max;
#X connect 0 0 2 0;
#X connect 1 0 3 0;
#X connect 2 0 4 0;
#X connect 3 0 4 0;
#X connect 4 0 7 0;
#X connect 6 0 12 0;
#X connect 7 0 19 0;
#X connect 7 1 16 0;
#X connect 8 0 1 0;
#X connect 8 1 9 0;
#X connect 9 0 7 1;
#X connect 10 0 7 1;
#X connect 12 0 3 0;
#X connect 12 1 15 1;
#X connect 13 0 6 0;
#X connect 13 1 10 0;
#X connect 14 0 20 0;
#X connect 15 0 14 0;
#X connect 16 0 15 0;
#X connect 16 1 14 1;
#X connect 17 0 8 0;
#X connect 18 0 13 0;
#X connect 19 0 5 0;
#X connect 20 0 11 0;
#X restore 279 352 pd max_by_ind;
#X obj 115 497 sdPackFilter send_event_by_ind;
#N canvas 0 30 681 722 events 0;
#X msg 143 206 get \$1;
#X msg 365 163 clear;
#X obj 333 141 t a b;
#X obj 313 185 sdSetSelector set;
#X obj 304 117 t b a;
#X obj 307 63 inlet;
#X obj 169 240 sdList get;
#X obj 169 337 outlet;
#X obj 131 62 inlet;
#X msg 169 263 list \$1 0;
#X obj 131 85 sdUnPack;
#X connect 0 0 6 0;
#X connect 1 0 6 0;
#X connect 2 0 3 0;
#X connect 2 1 1 0;
#X connect 3 0 6 0;
#X connect 4 1 2 0;
#X connect 5 0 4 0;
#X connect 6 0 9 0;
#X connect 8 0 10 0;
#X connect 9 0 7 0;
#X connect 10 0 0 0;
#X restore 115 547 pd events;
#X obj 115 570 s \$1.out;
#X obj 658 454 inlet;
#X obj 523 304 sdPackFilter get_step_by_ind;
#X obj 593 331 sdPackFilter set_step_by_ind;
#N canvas 0 30 762 722 step_by_ind 0;
#X obj 96 185 r \$0-numProps;
#X obj 75 114 sdUnPack;
#X obj 96 208 sdSetSelector set;
#X msg 75 138 get \$1;
#X obj 57 239 sdList get;
#X obj 42 393 s \$1.out;
#X obj 198 123 sdUnPack;
#X obj 123 274 sdGate;
#X obj 110 65 t a b;
#X msg 175 250 1;
#X msg 214 249 0;
#X obj 323 493 s \$1.out;
#X obj 198 146 unpack, f 20;
#X obj 198 92 t a b;
#X obj 323 444 sdPack property;
#X obj 324 420 f;
#X obj 293 384 t b s;
#X obj 85 18 inlet;
#X obj 215 26 inlet;
#X obj 42 368 sdPack get_step;
#X obj 324 468 sdPack set_step;
#X connect 0 0 2 0;
#X connect 1 0 3 0;
#X connect 2 0 4 0;
#X connect 3 0 4 0;
#X connect 4 0 7 0;
#X connect 6 0 12 0;
#X connect 7 0 19 0;
#X connect 7 1 16 0;
#X connect 8 0 1 0;
#X connect 8 1 9 0;
#X connect 9 0 7 1;
#X connect 10 0 7 1;
#X connect 12 0 3 0;
#X connect 12 1 15 1;
#X connect 13 0 6 0;
#X connect 13 1 10 0;
#X connect 14 0 20 0;
#X connect 15 0 14 0;
#X connect 16 0 15 0;
#X connect 16 1 14 1;
#X connect 17 0 8 0;
#X connect 18 0 13 0;
#X connect 19 0 5 0;
#X connect 20 0 11 0;
#X restore 523 354 pd step_by_ind;
#X obj 98 184 sdPackFilter get_bool_by_ind;
#X obj 169 211 sdPackFilter set_bool_by_ind;
#N canvas 0 30 721 722 bool_by_ind 0;
#X obj 75 114 sdUnPack;
#X obj 96 208 sdSetSelector set;
#X msg 75 138 get \$1;
#X obj 57 239 sdList get;
#X obj 42 368 sdPack get;
#X obj 42 393 s \$1.out;
#X obj 215 82 sdUnPack;
#X obj 123 274 sdGate;
#X obj 110 65 t a b;
#X msg 175 250 1;
#X msg 214 249 0;
#X obj 255 448 s \$1.out;
#X obj 255 423 sdPack set;
#X obj 215 105 unpack, f 20;
#X obj 215 51 t a b;
#X obj 255 399 sdPack property;
#X obj 236 340 f;
#X obj 230 302 t b s;
#X obj 85 18 inlet;
#X obj 215 26 inlet;
#X obj 96 185 r \$0-boolProps;
#X obj 236 363 != 0;
#X connect 0 0 2 0;
#X connect 1 0 3 0;
#X connect 2 0 3 0;
#X connect 3 0 7 0;
#X connect 4 0 5 0;
#X connect 6 0 13 0;
#X connect 7 0 4 0;
#X connect 7 1 17 0;
#X connect 8 0 0 0;
#X connect 8 1 9 0;
#X connect 9 0 7 1;
#X connect 10 0 7 1;
#X connect 12 0 11 0;
#X connect 13 0 2 0;
#X connect 13 1 16 1;
#X connect 14 0 6 0;
#X connect 14 1 10 0;
#X connect 15 0 12 0;
#X connect 16 0 21 0;
#X connect 17 0 16 0;
#X connect 17 1 15 1;
#X connect 18 0 8 0;
#X connect 19 0 14 0;
#X connect 20 0 1 0;
#X connect 21 0 15 0;
#X restore 98 233 pd bool_by_ind;
#X connect 0 0 7 0;
#X connect 1 0 4 0;
#X connect 1 1 2 0;
#X connect 2 0 4 1;
#X connect 2 1 17 0;
#X connect 5 0 6 1;
#X connect 5 1 11 0;
#X connect 7 0 6 0;
#X connect 7 1 5 0;
#X connect 8 0 3 0;
#X connect 8 1 9 0;
#X connect 9 0 3 1;
#X connect 9 1 14 0;
#X connect 11 0 13 0;
#X connect 11 1 12 0;
#X connect 12 0 13 1;
#X connect 12 1 24 0;
#X connect 14 0 16 0;
#X connect 14 1 15 0;
#X connect 15 0 16 1;
#X connect 15 1 21 0;
#X connect 17 0 18 0;
#X connect 17 1 10 0;
#X connect 18 0 19 0;
#X connect 20 0 18 1;
#X connect 21 0 23 0;
#X connect 21 1 22 0;
#X connect 22 0 23 1;
#X connect 22 1 1 0;
#X connect 24 0 26 0;
#X connect 24 1 25 0;
#X connect 25 0 26 1;
#X connect 25 1 8 0;
#X restore 31 256 pd generic msgs -> dest;
#X obj 31 287 sdPackFilter send;
#X obj 31 310 sdUnPack;
#X obj 31 333 s \$1.out;
#X obj 483 13 inlet;
#X obj 483 36 s \$1.out;
#X obj 101 542 r \$0-symProps;
#X obj 119 595 s \$0-events;
#X obj 116 215 r \$0-events;
#N canvas 0 30 762 722 updateInstr 0;
#X obj 107 51 inlet;
#X obj 157 117 t a b, f 21;
#X obj 278 328 t a a;
#X obj 305 690 outlet;
#X obj 311 430 unpack f f f;
#X obj 394 612 outlet;
#X obj 721 692 outlet;
#X obj 664 451 route bang;
#X obj 96 80 t b a;
#X msg 244 544 clear;
#X msg 463 549 clear;
#X obj 664 428 sdUnPack;
#X obj 157 142 sdUnPack;
#X obj 429 477 sdGate;
#X obj 278 456 sdGate;
#X obj 177 232 sdData;
#X obj 182 174 t b a;
#X obj 211 200 sdSetSelector set;
#X msg 128 201 serialize;
#X obj 311 381 route float symbol list bang;
#X msg 363 405 0 1;
#X msg 311 405 1 0;
#X msg 411 406 0 0;
#X msg 522 485 error: unable to determine property type;
#X obj 521 462 t b;
#X obj 311 357 sdUnPack;
#X obj 244 567 sdList;
#X obj 237 486 sdUnPack;
#X obj 438 503 sdUnPack;
#X obj 394 583 sdList;
#X obj 527 511 print \$1;
#X obj 443 33 inlet;
#X obj 255 256 sdPackFilter range_info;
#X obj 373 277 sdPackFilter out events;
#X obj 650 153 print RANGE;
#X obj 255 279 sdUnPack;
#X obj 144 343 unpack s f f f;
#X obj 171 374 expr $f1==0 && $f2==1 && $f3==1, f 17;
#X obj 138 418 sdGate;
#X obj 664 326 t a;
#X obj 37 689 outlet;
#X msg 147 624 clear;
#X obj 79 459 t b b b;
#X obj 656 273 t a;
#X obj 42 648 sdList bang find;
#X obj 244 590 t s s;
#X obj 304 633 sdGate;
#X obj 289 662 sdList;
#X msg 383 647 clear;
#X obj 53 509 t b b;
#X msg 59 619 find \$1;
#X msg 93 495 serialize;
#X obj 337 599 == -1;
#X connect 0 0 8 0;
#X connect 1 0 12 0;
#X connect 1 1 43 0;
#X connect 2 0 14 0;
#X connect 2 1 25 0;
#X connect 4 0 14 1;
#X connect 4 1 13 1;
#X connect 7 1 6 0;
#X connect 8 0 42 0;
#X connect 8 1 1 0;
#X connect 9 0 26 0;
#X connect 10 0 29 0;
#X connect 11 0 7 0;
#X connect 12 0 16 0;
#X connect 13 0 28 0;
#X connect 14 0 27 0;
#X connect 14 1 13 0;
#X connect 15 0 32 0;
#X connect 16 0 18 0;
#X connect 16 1 17 0;
#X connect 17 0 15 0;
#X connect 18 0 15 0;
#X connect 19 0 21 0;
#X connect 19 1 20 0;
#X connect 19 2 20 0;
#X connect 19 3 20 0;
#X connect 19 4 22 0;
#X connect 19 4 24 0;
#X connect 20 0 4 0;
#X connect 21 0 4 0;
#X connect 22 0 4 0;
#X connect 23 0 30 0;
#X connect 24 0 23 0;
#X connect 25 0 19 0;
#X connect 26 0 45 0;
#X connect 27 2 26 1;
#X connect 28 2 29 1;
#X connect 29 0 5 0;
#X connect 32 0 35 0;
#X connect 32 1 33 0;
#X connect 33 0 11 0;
#X connect 33 1 2 0;
#X connect 35 0 36 0;
#X connect 36 0 38 0;
#X connect 36 1 37 0;
#X connect 36 2 37 1;
#X connect 36 3 37 2;
#X connect 37 0 38 1;
#X connect 38 0 44 1;
#X connect 39 0 9 0;
#X connect 39 0 10 0;
#X connect 39 0 41 0;
#X connect 39 0 48 0;
#X connect 41 0 44 0;
#X connect 42 0 49 0;
#X connect 42 1 51 0;
#X connect 42 2 29 0;
#X connect 43 0 39 0;
#X connect 44 0 40 0;
#X connect 44 1 52 0;
#X connect 45 0 46 0;
#X connect 45 1 50 0;
#X connect 46 0 47 1;
#X connect 47 0 3 0;
#X connect 48 0 47 0;
#X connect 49 0 44 0;
#X connect 49 1 47 0;
#X connect 50 0 44 0;
#X connect 51 0 26 0;
#X connect 52 0 46 1;
#X restore 240 438 pd updateInstr;
#X obj 195 213 t a a;
#X obj 195 236 t b;
#X obj 240 559 sdSetSelector priv.set;
#X obj 240 583 s \$0-boolProps_rcv;
#X obj 566 171 sdPropertyList boolProps \$0;
#X obj 50 488 r \$0-boolProps;
#X obj 107 83 t a a;
#X obj 481 418 t b a;
#X obj 435 464 s \$0-destIndex_rcv;
#X msg 435 441 priv.set 0;
#X obj 511 320 t b a;
#X msg 489 348 priv.set 0;
#X obj 489 371 s \$0-groupIndex_rcv;
#X connect 0 0 3 0;
#X connect 1 0 49 0;
#X connect 1 1 18 0;
#X connect 2 0 49 0;
#X connect 2 1 76 0;
#X connect 3 0 78 0;
#X connect 3 1 32 0;
#X connect 3 2 11 0;
#X connect 4 0 6 0;
#X connect 5 0 3 1;
#X connect 8 0 72 0;
#X connect 9 0 3 2;
#X connect 11 0 42 0;
#X connect 11 1 13 0;
#X connect 12 0 59 0;
#X connect 14 0 7 0;
#X connect 15 0 60 0;
#X connect 16 0 51 0;
#X connect 16 1 15 0;
#X connect 18 0 49 0;
#X connect 20 0 19 0;
#X connect 21 0 10 0;
#X connect 22 0 25 0;
#X connect 22 1 17 0;
#X connect 23 0 25 2;
#X connect 25 0 24 0;
#X connect 25 1 69 0;
#X connect 26 0 4 0;
#X connect 26 1 45 0;
#X connect 27 0 49 0;
#X connect 27 1 2 0;
#X connect 28 0 38 0;
#X connect 28 1 40 0;
#X connect 28 2 47 0;
#X connect 29 0 28 1;
#X connect 29 1 43 0;
#X connect 29 2 41 0;
#X connect 30 0 36 0;
#X connect 32 0 4 0;
#X connect 32 1 26 0;
#X connect 33 0 79 0;
#X connect 34 0 28 0;
#X connect 36 0 35 0;
#X connect 37 0 82 0;
#X connect 38 0 39 0;
#X connect 42 0 12 0;
#X connect 43 0 44 0;
#X connect 45 0 4 0;
#X connect 45 1 48 0;
#X connect 47 0 46 0;
#X connect 48 0 4 0;
#X connect 48 1 27 0;
#X connect 49 0 50 0;
#X connect 51 0 25 4;
#X connect 51 1 55 0;
#X connect 54 0 53 0;
#X connect 55 0 52 0;
#X connect 55 1 71 0;
#X connect 56 0 57 0;
#X connect 58 0 22 0;
#X connect 61 0 58 0;
#X connect 62 0 63 0;
#X connect 63 0 64 0;
#X connect 63 1 16 0;
#X connect 64 0 65 0;
#X connect 66 0 67 0;
#X connect 68 0 25 3;
#X connect 70 0 62 1;
#X connect 71 0 74 0;
#X connect 71 1 54 0;
#X connect 71 2 56 0;
#X connect 72 0 73 0;
#X connect 72 1 16 1;
#X connect 73 0 62 1;
#X connect 74 0 75 0;
#X connect 76 0 49 0;
#X connect 76 1 1 0;
#X connect 77 0 25 1;
#X connect 78 0 62 0;
#X connect 78 1 30 0;
#X connect 79 0 81 0;
#X connect 79 1 29 0;
#X connect 81 0 80 0;
#X connect 82 0 83 0;
#X connect 82 1 29 1;
#X connect 83 0 84 0;
