#N canvas 0 30 681 722 10;
#X obj 33 10 inlet;
#X obj 371 237 sdPropertyList numProps \$0;
#X obj 352 209 sdPropertySym dest \$0;
#X obj 216 49 sdObjState \$1 \$2;
#X obj 259 23 r \$0-fromProperties;
#X obj 27 681 outlet;
#X obj 326 344 r \$0-dest;
#X obj 394 25 r \$1.out;
#X obj 234 687 outlet;
#X obj 337 74 t a a, f 20;
#N canvas 0 30 762 722 connect 0;
#X obj 37 37 inlet;
#X text 217 373 print info for the dumb user;
#X obj 142 115 sdUnPack;
#X obj 138 175 t b s;
#X obj 131 219 sdObjConnectTo \$1 \$1;
#X obj 142 138 t s s;
#X obj 131 242 unpack s s;
#X obj 184 165 sdObjConnectTo \$1 \$1;
#X obj 138 266 outlet;
#X msg 203 396 connected \$1 -> \$2;
#X obj 203 420 print \$1;
#X connect 0 0 2 0;
#X connect 2 0 5 0;
#X connect 3 0 4 0;
#X connect 3 1 4 1;
#X connect 4 0 6 0;
#X connect 4 1 9 0;
#X connect 5 0 3 0;
#X connect 5 1 7 0;
#X connect 6 1 8 0;
#X connect 7 1 9 0;
#X connect 9 0 10 0;
#X restore 337 121 pd connect;
#X obj 337 144 sdObjGetAll \$1;
#X obj 454 97 s \$0-fromObj.out;
#X obj 27 658 r \$0-fromObj.out;
#X obj 326 390 sdPackFilter info update;
#X obj 227 367 sdPackFilter dest;
#X obj 79 452 s \$0-fromDest.out;
#X obj 383 264 sdPropertyList symProps \$0;
#X obj 29 301 sdPackFilter get_sym_by_ind;
#X obj 100 326 sdPackFilter set_sym_by_ind;
#X obj 479 688 outlet;
#X obj 479 664 r \$0-fromDest.out;
#X obj 234 663 r \$0-fromDest.generic;
#N canvas 0 30 762 722 sym_by_ind 0;
#X obj 75 114 sdUnPack;
#X obj 96 208 sdSetSelector set;
#X msg 75 138 get \$1;
#X obj 57 239 sdList get;
#X obj 86 309 sdPack get;
#X obj 86 334 s \$1.out;
#X obj 198 123 sdUnPack;
#X obj 123 274 sdGate;
#X obj 110 65 t a b;
#X msg 175 250 1;
#X msg 214 249 0;
#X obj 194 407 s \$1.out;
#X obj 194 382 sdPack set;
#X obj 198 92 t a b;
#X obj 194 358 sdPack property;
#X obj 164 298 t b s;
#X obj 85 18 inlet;
#X obj 215 26 inlet;
#X obj 96 185 r \$0-symProps;
#X obj 198 146 unpack f s, f 20;
#X obj 195 334 symbol;
#X connect 0 0 2 0;
#X connect 1 0 3 0;
#X connect 2 0 3 0;
#X connect 3 0 7 0;
#X connect 4 0 5 0;
#X connect 6 0 19 0;
#X connect 7 0 4 0;
#X connect 7 1 15 0;
#X connect 8 0 0 0;
#X connect 8 1 9 0;
#X connect 9 0 7 1;
#X connect 10 0 7 1;
#X connect 12 0 11 0;
#X connect 13 0 6 0;
#X connect 13 1 10 0;
#X connect 14 0 12 0;
#X connect 15 0 20 0;
#X connect 15 1 14 1;
#X connect 16 0 8 0;
#X connect 17 0 13 0;
#X connect 18 0 1 0;
#X connect 19 0 2 0;
#X connect 19 1 20 1;
#X connect 20 0 14 0;
#X restore 29 349 pd sym_by_ind;
#X obj 52 428 t a a;
#X obj 98 483 r \$0-numProps;
#X obj 46 537 s \$0-fromDest.generic;
#N canvas 0 30 762 722 num_generic_out 0;
#X obj 223 185 sdList;
#X obj 125 113 sdUnPack;
#X obj 125 136 sdUnPack;
#X msg 168 159 find \$1;
#X obj 238 142 sdSetSelector set;
#X obj 76 324 sdPack update;
#X obj 76 273 list prepend;
#X obj 76 296 list prepend numProp;
#X obj 84 48 inlet;
#X obj 237 55 inlet;
#X obj 76 347 outlet;
#X obj 223 211 sdFilter -1;
#X msg 134 205 0;
#X obj 81 226 sdGate;
#X obj 271 239 t b f;
#X msg 143 234 1;
#X obj 389 96 sdUnPack;
#X obj 389 151 t b a;
#X msg 389 174 serialize;
#X obj 389 197 sdData;
#X obj 389 119 t a b;
#X msg 489 170 clear;
#X obj 392 41 inlet;
#X connect 0 0 11 0;
#X connect 1 0 2 0;
#X connect 2 0 13 0;
#X connect 2 2 3 0;
#X connect 3 0 0 0;
#X connect 4 0 0 0;
#X connect 5 0 10 0;
#X connect 6 0 7 0;
#X connect 7 0 5 0;
#X connect 8 0 1 0;
#X connect 9 0 4 0;
#X connect 11 0 12 0;
#X connect 11 1 14 0;
#X connect 12 0 13 1;
#X connect 13 0 6 0;
#X connect 14 0 15 0;
#X connect 14 1 6 1;
#X connect 15 0 13 1;
#X connect 16 0 20 0;
#X connect 17 0 18 0;
#X connect 17 1 19 1;
#X connect 18 0 19 0;
#X connect 19 0 2 0;
#X connect 20 0 17 0;
#X connect 20 1 21 0;
#X connect 21 0 19 0;
#X connect 22 0 16 0;
#X restore 46 508 pd num_generic_out;
#X obj 337 98 sdObjTrack dest;
#X obj 328 281 list;
#X obj 328 305 s \$0-fromProperties;
#X obj 227 390 t a a;
#X obj 100 620 s \$0-fromDest.generic;
#X obj 152 566 r \$0-symProps;
#N canvas 0 30 762 722 sym_generic_out 0;
#X obj 223 185 sdList;
#X obj 125 113 sdUnPack;
#X obj 125 136 sdUnPack;
#X msg 168 159 find \$1;
#X obj 238 142 sdSetSelector set;
#X obj 76 324 sdPack update;
#X obj 76 273 list prepend;
#X obj 84 48 inlet;
#X obj 237 55 inlet;
#X obj 76 347 outlet;
#X obj 223 211 sdFilter -1;
#X msg 134 205 0;
#X obj 81 226 sdGate;
#X obj 271 239 t b f;
#X msg 143 234 1;
#X obj 389 96 sdUnPack;
#X obj 389 151 t b a;
#X msg 389 174 serialize;
#X obj 389 197 sdData;
#X obj 389 119 t a b;
#X msg 489 170 clear;
#X obj 392 41 inlet;
#X obj 76 296 list prepend symProp;
#X connect 0 0 10 0;
#X connect 1 0 2 0;
#X connect 2 0 12 0;
#X connect 2 2 3 0;
#X connect 3 0 0 0;
#X connect 4 0 0 0;
#X connect 5 0 9 0;
#X connect 6 0 22 0;
#X connect 7 0 1 0;
#X connect 8 0 4 0;
#X connect 10 0 11 0;
#X connect 10 1 13 0;
#X connect 11 0 12 1;
#X connect 12 0 6 0;
#X connect 13 0 14 0;
#X connect 13 1 6 1;
#X connect 14 0 12 1;
#X connect 15 0 19 0;
#X connect 16 0 17 0;
#X connect 16 1 18 1;
#X connect 17 0 18 0;
#X connect 18 0 2 0;
#X connect 19 0 16 0;
#X connect 19 1 20 0;
#X connect 20 0 18 0;
#X connect 21 0 15 0;
#X connect 22 0 5 0;
#X restore 100 591 pd sym_generic_out;
#N canvas 0 30 762 722 updateInstr 0;
#X obj 107 51 inlet;
#X obj 157 117 t a b, f 21;
#X obj 278 368 t a a;
#X text 143 626 index \, name \, value;
#X obj 146 603 outlet;
#X obj 311 470 unpack f f f;
#X obj 394 612 outlet;
#X text 390 633 index \, name \, value;
#X obj 721 692 outlet;
#X obj 664 451 route bang;
#X obj 96 80 t b a;
#X obj 146 490 t b b;
#X msg 173 528 clear;
#X msg 386 550 clear;
#X obj 664 428 sdUnPack;
#X obj 157 142 sdUnPack;
#X obj 359 318 sdPackFilter out;
#X obj 429 517 sdGate;
#X obj 278 496 sdGate;
#X obj 241 297 sdPackFilter name;
#X obj 177 232 sdData;
#X obj 182 174 t b a;
#X obj 211 200 sdSetSelector set;
#X msg 128 201 serialize;
#X obj 311 421 route float symbol list bang;
#X msg 363 445 0 1;
#X msg 311 445 1 0;
#X msg 411 446 0 0;
#X msg 521 504 error: unable to determine property type;
#X obj 521 462 t b;
#X obj 311 397 sdUnPack;
#X obj 152 570 sdList;
#X obj 225 532 sdUnPack;
#X obj 438 543 sdUnPack;
#X obj 394 583 sdList;
#X obj 526 530 print \$1;
#X obj 443 33 inlet;
#X connect 0 0 10 0;
#X connect 1 0 15 0;
#X connect 1 1 12 0;
#X connect 1 1 13 0;
#X connect 2 0 18 0;
#X connect 2 1 30 0;
#X connect 5 0 18 1;
#X connect 5 1 17 1;
#X connect 9 1 8 0;
#X connect 10 0 11 0;
#X connect 10 1 1 0;
#X connect 11 0 31 0;
#X connect 11 1 34 0;
#X connect 12 0 31 0;
#X connect 13 0 34 0;
#X connect 14 0 9 0;
#X connect 15 0 21 0;
#X connect 16 0 14 0;
#X connect 16 1 2 0;
#X connect 17 0 33 0;
#X connect 18 0 32 0;
#X connect 18 1 17 0;
#X connect 19 1 16 0;
#X connect 20 0 19 0;
#X connect 21 0 23 0;
#X connect 21 1 22 0;
#X connect 22 0 20 0;
#X connect 23 0 20 0;
#X connect 24 0 26 0;
#X connect 24 1 25 0;
#X connect 24 2 25 0;
#X connect 24 3 25 0;
#X connect 24 4 27 0;
#X connect 24 4 29 0;
#X connect 25 0 5 0;
#X connect 26 0 5 0;
#X connect 27 0 5 0;
#X connect 28 0 35 0;
#X connect 29 0 28 0;
#X connect 30 0 24 0;
#X connect 31 0 4 0;
#X connect 32 2 31 1;
#X connect 33 2 34 1;
#X connect 34 0 6 0;
#X restore 296 453 pd updateInstr gui;
#X obj 269 594 s \$0-fromDest.out;
#X obj 296 571 s \$0-numProps_rcv;
#X obj 296 547 sdSetSelector priv.set;
#X obj 269 428 t a a;
#X obj 348 501 sdSetSelector priv.set;
#X obj 348 525 s \$0-symProps_rcv;
#X obj 82 401 t a a;
#X text 596 23 \$1: name \;;
#N canvas 0 30 681 722 num_by_ind 0;
#X obj 96 185 r \$0-numProps;
#X obj 75 114 sdUnPack;
#X obj 96 208 sdSetSelector set;
#X msg 75 138 get \$1;
#X obj 57 239 sdList get;
#X obj 43 353 s \$1.out;
#X obj 198 123 sdUnPack;
#X obj 123 274 sdGate;
#X obj 110 65 t a b;
#X msg 175 250 1;
#X msg 214 249 0;
#X obj 194 407 s \$1.out;
#X obj 198 146 unpack, f 20;
#X obj 198 92 t a b;
#X obj 194 358 sdPack property;
#X obj 195 334 f;
#X obj 164 298 t b s;
#X obj 85 18 inlet;
#X obj 215 26 inlet;
#X obj 43 328 sdPack get_in_range;
#X obj 194 382 sdPack set_in_range;
#X connect 0 0 2 0;
#X connect 1 0 3 0;
#X connect 2 0 4 0;
#X connect 3 0 4 0;
#X connect 4 0 7 0;
#X connect 6 0 12 0;
#X connect 7 0 19 0;
#X connect 7 1 16 0;
#X connect 8 0 1 0;
#X connect 8 1 9 0;
#X connect 9 0 7 1;
#X connect 10 0 7 1;
#X connect 12 0 3 0;
#X connect 12 1 15 1;
#X connect 13 0 6 0;
#X connect 13 1 10 0;
#X connect 14 0 20 0;
#X connect 15 0 14 0;
#X connect 16 0 15 0;
#X connect 16 1 14 1;
#X connect 17 0 8 0;
#X connect 18 0 13 0;
#X connect 19 0 5 0;
#X connect 20 0 11 0;
#X restore 29 265 pd num_by_ind;
#X obj 98 155 sdPackFilter set_num_by_ind;
#N canvas 0 30 681 722 num_by_ind 0;
#X obj 96 185 r \$0-numProps;
#X obj 75 114 sdUnPack;
#X obj 96 208 sdSetSelector set;
#X msg 75 138 get \$1;
#X obj 57 239 sdList get;
#X obj 86 309 sdPack get;
#X obj 86 334 s \$1.out;
#X obj 198 123 sdUnPack;
#X obj 123 274 sdGate;
#X obj 110 65 t a b;
#X msg 175 250 1;
#X msg 214 249 0;
#X obj 194 407 s \$1.out;
#X obj 194 382 sdPack set;
#X obj 198 146 unpack, f 20;
#X obj 198 92 t a b;
#X obj 194 358 sdPack property;
#X obj 195 334 f;
#X obj 164 298 t b s;
#X obj 85 18 inlet;
#X obj 215 26 inlet;
#X connect 0 0 2 0;
#X connect 1 0 3 0;
#X connect 2 0 4 0;
#X connect 3 0 4 0;
#X connect 4 0 8 0;
#X connect 5 0 6 0;
#X connect 7 0 14 0;
#X connect 8 0 5 0;
#X connect 8 1 18 0;
#X connect 9 0 1 0;
#X connect 9 1 10 0;
#X connect 10 0 8 1;
#X connect 11 0 8 1;
#X connect 13 0 12 0;
#X connect 14 0 3 0;
#X connect 14 1 17 1;
#X connect 15 0 7 0;
#X connect 15 1 11 0;
#X connect 16 0 13 0;
#X connect 17 0 16 0;
#X connect 18 0 17 0;
#X connect 18 1 16 1;
#X connect 19 0 9 0;
#X connect 20 0 15 0;
#X restore 27 177 pd num_by_ind;
#X obj 27 128 sdPackFilter get_num_by_ind;
#X obj 29 216 sdPackFilter get_num_by_ind_in_range;
#X obj 62 243 sdPackFilter set_num_by_ind_in_range;
#X connect 0 0 3 0;
#X connect 1 0 29 0;
#X connect 1 1 17 0;
#X connect 2 0 29 0;
#X connect 2 1 1 0;
#X connect 3 0 47 0;
#X connect 3 1 2 0;
#X connect 3 2 9 0;
#X connect 4 0 3 1;
#X connect 6 0 15 1;
#X connect 7 0 3 2;
#X connect 9 0 28 0;
#X connect 9 1 12 0;
#X connect 10 0 11 0;
#X connect 13 0 5 0;
#X connect 14 0 42 0;
#X connect 15 0 31 0;
#X connect 15 1 14 0;
#X connect 17 0 29 0;
#X connect 18 0 23 0;
#X connect 18 1 19 0;
#X connect 19 0 23 1;
#X connect 19 1 15 0;
#X connect 21 0 20 0;
#X connect 22 0 8 0;
#X connect 24 0 27 0;
#X connect 24 1 16 0;
#X connect 25 0 27 1;
#X connect 27 0 26 0;
#X connect 28 0 10 0;
#X connect 29 0 30 0;
#X connect 31 0 27 2;
#X connect 31 0 34 2;
#X connect 31 1 39 0;
#X connect 33 0 34 1;
#X connect 34 0 32 0;
#X connect 35 0 38 0;
#X connect 35 1 40 0;
#X connect 38 0 37 0;
#X connect 39 0 36 0;
#X connect 39 1 35 0;
#X connect 40 0 41 0;
#X connect 42 0 24 0;
#X connect 42 1 34 0;
#X connect 45 0 46 1;
#X connect 45 1 48 0;
#X connect 47 0 46 0;
#X connect 47 1 45 0;
#X connect 48 0 44 0;
#X connect 48 1 49 0;
#X connect 49 0 44 1;
#X connect 49 1 18 0;
