#N canvas 0 30 926 722 10;
#X obj 113 164 hradio 12 1 0 2 \$0-objRadio \$0-objRadio_rcv empty
0 -8 0 10 -262144 -1 -1 2;
#X text 102 147 select obj.:;
#X obj 126 22 r \$0-objRadio;
#X symbolatom 113 181 27 0 0 0 - #0-objName_rcv #0-objName;
#X obj 413 156 r \$0-index;
#X obj 126 45 s \$0-index;
#X obj 411 105 s \$0-objList;
#X obj 413 204 s \$0-obj;
#X obj 582 254 r \$0-obj;
#X msg 582 300 \; \$2-objName_rcv set \$1 \;;
#X obj 239 215 nbx 6 14 -1e+37 1e+37 0 0 \$0-numProp0 \$0-numProp0_rcv
empty 0 -8 0 10 -262144 -1 -1 64 256;
#X obj 471 216 r \$0-obj;
#X obj 422 301 r \$0-fromInstr;
#X obj 239 232 nbx 6 14 -1e+37 1e+37 0 0 \$0-numProp1 \$0-numProp1_rcv
empty 0 -8 0 10 -262144 -1 -1 1 256;
#X obj 239 249 nbx 6 14 -1e+37 1e+37 0 0 \$0-numProp2 \$0-numProp2_rcv
empty 0 -8 0 10 -262144 -1 -1 0 256;
#N canvas 0 30 926 722 connectObj 0;
#X obj 512 193 symbol;
#X obj 89 85 inlet;
#X obj 125 140 t s s;
#X obj 530 269 pack s \$0;
#X obj 88 281 pack s \$0;
#X obj 504 162 t s b;
#X msg 530 293 \; \$1 list out 2 del \$2-fromInstr \;;
#X msg 90 306 \; \$1 list out 2 add \$2-fromInstr \; \$1 list get 3
out 1 \$2-fromInstr \;;
#X obj 523 228 sdFirst;
#X obj 132 217 t a b;
#X connect 0 0 8 0;
#X connect 1 0 2 0;
#X connect 2 0 9 0;
#X connect 2 1 5 0;
#X connect 3 0 6 0;
#X connect 4 0 7 0;
#X connect 5 0 0 1;
#X connect 5 1 0 0;
#X connect 8 1 3 0;
#X connect 9 0 4 0;
#X restore 421 270 pd connectObj;
#X obj 113 215 cnv 15 120 13 empty \$0-numPropName0_rcv pitch 1 8 0
10 -228856 -66577 0;
#X text 103 199 numeric properties:;
#N canvas 0 30 798 854 updateInstr 0;
#X obj 107 51 inlet;
#X msg 580 342 0;
#X obj 157 117 t a b, f 21;
#X obj 277 397 list split 1;
#X obj 250 374 t a a;
#X obj 266 530 t a b;
#X text 140 714 index \, name \, value;
#X obj 250 584 list prepend;
#X obj 143 691 outlet;
#X obj 311 470 unpack f f f;
#X obj 445 560 t a b;
#X obj 429 614 list prepend;
#X obj 391 700 outlet;
#X text 387 721 index \, name \, value;
#X obj 549 556 bng 15 250 50 0 empty empty empty 17 7 0 10 -262144
-1 -1;
#X obj 721 692 outlet;
#X obj 664 451 route bang;
#X obj 96 80 t b a;
#X obj 143 578 t b b;
#X msg 170 616 clear;
#X msg 383 638 clear;
#X obj 664 428 sdUnPack;
#X obj 157 142 sdUnPack;
#X obj 359 318 sdPackFilter out;
#X obj 250 352 sdPackToMessage;
#X obj 443 534 sdGate;
#X obj 266 507 sdGate;
#X obj 313 559 sdCounter -1;
#X obj 498 589 sdCounter -1;
#X obj 429 637 sdPack symVal;
#X obj 250 607 sdPack numVal;
#X obj 241 297 sdPackFilter name;
#X obj 148 658 sdData;
#X obj 391 671 sdData;
#X obj 524 142 sdData;
#X obj 529 84 t b a;
#X obj 558 110 sdSetSelector set;
#X msg 475 111 serialize;
#X obj 311 421 route float symbol list bang;
#X msg 363 445 0 1;
#X msg 311 445 1 0;
#X msg 411 446 0 0;
#X obj 566 510 print sdObjState_ui;
#X msg 561 484 error: unable to determine property type;
#X obj 561 442 t b;
#X connect 0 0 17 0;
#X connect 1 0 27 0;
#X connect 1 0 28 0;
#X connect 2 0 22 0;
#X connect 2 1 1 0;
#X connect 2 1 19 0;
#X connect 2 1 20 0;
#X connect 3 1 38 0;
#X connect 4 0 26 0;
#X connect 4 1 3 0;
#X connect 5 0 7 0;
#X connect 5 1 27 0;
#X connect 7 0 30 0;
#X connect 9 0 26 1;
#X connect 9 1 25 1;
#X connect 10 0 11 0;
#X connect 10 1 28 0;
#X connect 11 0 29 0;
#X connect 14 0 28 0;
#X connect 16 1 15 0;
#X connect 17 0 18 0;
#X connect 17 1 2 0;
#X connect 18 0 32 0;
#X connect 18 1 33 0;
#X connect 19 0 32 0;
#X connect 20 0 33 0;
#X connect 21 0 16 0;
#X connect 22 0 35 0;
#X connect 23 0 21 0;
#X connect 23 1 24 0;
#X connect 24 0 4 0;
#X connect 25 0 10 0;
#X connect 26 0 5 0;
#X connect 26 1 25 0;
#X connect 27 0 7 1;
#X connect 28 0 11 1;
#X connect 29 0 33 1;
#X connect 30 0 32 1;
#X connect 31 1 23 0;
#X connect 32 0 8 0;
#X connect 33 0 12 0;
#X connect 34 0 31 0;
#X connect 35 0 37 0;
#X connect 35 1 36 0;
#X connect 36 0 34 0;
#X connect 37 0 34 0;
#X connect 38 0 40 0;
#X connect 38 1 39 0;
#X connect 38 2 39 0;
#X connect 38 3 39 0;
#X connect 38 4 41 0;
#X connect 38 4 44 0;
#X connect 39 0 9 0;
#X connect 40 0 9 0;
#X connect 41 0 9 0;
#X connect 43 0 42 0;
#X connect 44 0 43 0;
#X restore 551 408 pd updateInstr gui;
#X obj 113 233 cnv 15 120 13 empty \$0-numPropName1_rcv volume 1 8
0 10 -228856 -66577 0;
#X obj 113 251 cnv 15 120 13 empty \$0-numPropName2_rcv - 1 8 0 10
-228856 -66577 0;
#X obj 260 738 r \$0-numProps;
#X obj 498 446 s \$0-numProps;
#X obj 574 617 r \$0-numProps;
#X obj 551 359 t a b;
#X obj 602 446 s \$0-symProps;
#N canvas 0 30 942 854 numProps 0;
#X obj 36 141 r \$0-numProp0;
#X obj 129 143 unpack s f;
#X obj 101 167 pack f s s;
#X obj 174 168 r \$0-obj;
#X obj 309 131 unpack s f;
#X obj 281 155 pack f s s;
#X obj 354 156 r \$0-obj;
#X obj 216 129 r \$0-numProp1;
#X obj 491 129 unpack s f;
#X obj 463 153 pack f s s;
#X obj 536 154 r \$0-obj;
#X obj 399 130 r \$0-numProp2;
#X obj 271 23 inlet;
#X obj 109 311 unpack s f;
#X obj 81 335 pack f s s;
#X obj 154 336 r \$0-obj;
#X obj 309 322 unpack s f;
#X obj 281 346 pack f s s;
#X obj 354 347 r \$0-obj;
#X obj 16 309 r \$0-numProp4;
#X obj 217 323 r \$0-numProp5;
#X obj 271 96 route 0 1 2 3, f 96;
#X obj 664 131 unpack s f;
#X obj 636 155 pack f s s;
#X obj 709 156 r \$0-obj;
#X obj 571 129 r \$0-numProp3;
#X obj 120 269 route 4 5 6 7, f 120;
#X obj 486 322 unpack s f;
#X obj 458 346 pack f s s;
#X obj 531 347 r \$0-obj;
#X obj 686 333 unpack s f;
#X obj 658 357 pack f s s;
#X obj 731 358 r \$0-obj;
#X obj 393 320 r \$0-numProp6;
#X obj 594 334 r \$0-numProp7;
#X obj 806 223 t a;
#X obj 136 502 unpack s f;
#X obj 108 526 pack f s s;
#X obj 181 527 r \$0-obj;
#X obj 336 513 unpack s f;
#X obj 308 537 pack f s s;
#X obj 381 538 r \$0-obj;
#X obj 147 462 route 8 9, f 76;
#X obj 43 500 r \$0-numProp8;
#X obj 244 514 r \$0-numProp9;
#X obj 826 415 t a;
#X obj 271 69 sdUnPack;
#X msg 295 210 \; \$3 list set 3 \$2 1 \$1;
#X obj 542 58 sdData;
#X obj 524 11 t b a;
#X msg 481 35 serialize;
#X obj 599 29 sdSetSelector set;
#X msg 239 391 \; \$3 list set 3 \$2 1 \$1;
#X msg 196 638 \; \$3 list set 3 \$2 1 \$1;
#X connect 0 0 2 0;
#X connect 1 0 2 1;
#X connect 2 0 47 0;
#X connect 3 0 2 2;
#X connect 4 0 5 1;
#X connect 5 0 47 0;
#X connect 6 0 5 2;
#X connect 7 0 5 0;
#X connect 8 0 9 1;
#X connect 9 0 47 0;
#X connect 10 0 9 2;
#X connect 11 0 9 0;
#X connect 12 0 49 0;
#X connect 13 0 14 1;
#X connect 14 0 52 0;
#X connect 15 0 14 2;
#X connect 16 0 17 1;
#X connect 17 0 52 0;
#X connect 18 0 17 2;
#X connect 19 0 14 0;
#X connect 20 0 17 0;
#X connect 21 0 1 0;
#X connect 21 1 4 0;
#X connect 21 2 8 0;
#X connect 21 3 22 0;
#X connect 21 4 35 0;
#X connect 22 0 23 1;
#X connect 23 0 47 0;
#X connect 24 0 23 2;
#X connect 25 0 23 0;
#X connect 26 0 13 0;
#X connect 26 1 16 0;
#X connect 26 2 27 0;
#X connect 26 3 30 0;
#X connect 26 4 45 0;
#X connect 27 0 28 1;
#X connect 28 0 52 0;
#X connect 29 0 28 2;
#X connect 30 0 31 1;
#X connect 31 0 52 0;
#X connect 32 0 31 2;
#X connect 33 0 28 0;
#X connect 34 0 31 0;
#X connect 35 0 26 0;
#X connect 36 0 37 1;
#X connect 37 0 53 0;
#X connect 38 0 37 2;
#X connect 39 0 40 1;
#X connect 40 0 53 0;
#X connect 41 0 40 2;
#X connect 42 0 36 0;
#X connect 42 1 39 0;
#X connect 43 0 37 0;
#X connect 44 0 40 0;
#X connect 45 0 42 0;
#X connect 46 0 21 0;
#X connect 48 0 46 0;
#X connect 49 0 50 0;
#X connect 49 1 51 0;
#X connect 50 0 48 0;
#X connect 51 0 48 0;
#X restore 260 763 pd numProps to obj;
#X obj 113 405 cnv 15 120 13 empty \$0-symPropName0_rcv descr 1 8 0
10 -228856 -66577 0;
#X symbolatom 239 404 25 0 0 0 - #0-symProp0_rcv #0-symProp0;
#X obj 700 554 r \$0-symProps;
#X obj 113 426 cnv 15 120 13 empty \$0-symPropName1_rcv envelope 1
8 0 10 -228856 -66577 0;
#X symbolatom 239 424 25 0 0 0 - #0-symProp1_rcv #0-symProp1;
#X obj 113 446 cnv 15 120 13 empty \$0-symPropName2_rcv - 1 8 0 10
-228856 -66577 0;
#X symbolatom 239 444 25 0 0 0 - #0-symProp2_rcv #0-symProp2;
#N canvas 0 30 798 854 GUI 0;
#X obj 376 43 inlet;
#X obj 448 368 list append \$0;
#X msg 448 394 \; \$4-numPropName\$1_rcv label \$2 \; \$4-numProp\$1_rcv
set \$3 \;;
#X obj 61 33 inlet;
#X obj 139 227 unpack f s f, f 20;
#X obj 197 251 t s s;
#X obj 139 275 pack f s f, f 20;
#X obj 114 62 t b a;
#X obj 286 180 unpack s f;
#X obj 198 382 list append \$0;
#X msg 198 408 \; \$4-numProp\$1_rcv set \$3 \;;
#X obj 484 170 sdData;
#X obj 476 114 t b a;
#X obj 525 145 sdSetSelector set;
#X msg 441 143 serialize;
#X obj 84 170 sdData;
#X obj 125 145 sdSetSelector set;
#X msg 41 143 serialize;
#X obj 235 307 sdSymbolIsEq;
#X obj 198 353 sdGate;
#X obj 139 204 sdUnPack;
#X obj 454 218 sdUnPack;
#X connect 0 0 12 0;
#X connect 0 0 16 0;
#X connect 1 0 2 0;
#X connect 3 0 7 0;
#X connect 4 0 6 0;
#X connect 4 1 5 0;
#X connect 5 0 6 1;
#X connect 5 1 18 0;
#X connect 6 0 19 0;
#X connect 7 0 17 0;
#X connect 7 1 8 0;
#X connect 8 0 18 1;
#X connect 8 1 6 2;
#X connect 9 0 10 0;
#X connect 11 0 21 0;
#X connect 12 0 14 0;
#X connect 12 1 13 0;
#X connect 13 0 11 0;
#X connect 14 0 11 0;
#X connect 15 0 20 0;
#X connect 16 0 15 0;
#X connect 17 0 15 0;
#X connect 18 0 19 1;
#X connect 19 0 9 0;
#X connect 20 0 4 0;
#X connect 21 0 1 0;
#X restore 465 641 pd GUI set numProps;
#N canvas 0 30 798 854 GUI 0;
#X obj 401 35 inlet;
#X obj 59 29 inlet;
#X obj 197 251 t s s;
#X obj 200 398 list append \$0;
#X obj 132 75 t b a;
#X text 55 9 update msg. format: propname value;
#X obj 139 227 unpack f s s, f 20;
#X obj 141 309 pack f s s, f 20;
#X msg 200 422 \; \$4-symProp\$1_rcv set \$3 \;;
#X obj 640 268 list prepend \$0;
#X msg 641 294 \; \$1-symPropName\$2_rcv label \$3 \;;
#X msg 495 388 \; \$1-symProp\$2_rcv set \$4 \;;
#X obj 493 255 t a b;
#X obj 493 281 list split 2;
#X obj 561 313 l2s;
#X obj 495 340 list append;
#X obj 507 215 t a a;
#X obj 495 364 list prepend \$0;
#X obj 286 180 list split 1;
#X obj 312 230 l2s;
#X obj 451 154 sdData;
#X msg 437 127 serialize;
#X obj 491 62 t b a;
#X obj 451 177 sdUnPack;
#X obj 509 126 sdSetSelector set;
#X obj 86 175 sdData;
#X msg 76 123 serialize;
#X obj 130 150 sdSetSelector set;
#X obj 139 204 sdUnPack;
#X obj 237 341 sdSymbolIsEq;
#X obj 200 370 sdGate;
#X connect 0 0 22 0;
#X connect 0 0 27 0;
#X connect 1 0 4 0;
#X connect 2 0 7 1;
#X connect 2 1 29 0;
#X connect 3 0 8 0;
#X connect 4 0 26 0;
#X connect 4 1 18 0;
#X connect 6 0 7 0;
#X connect 6 1 2 0;
#X connect 7 0 30 0;
#X connect 9 0 10 0;
#X connect 12 0 13 0;
#X connect 12 1 14 0;
#X connect 13 0 15 0;
#X connect 13 1 14 0;
#X connect 14 0 15 1;
#X connect 15 0 17 0;
#X connect 16 0 12 0;
#X connect 16 1 9 0;
#X connect 17 0 11 0;
#X connect 18 0 29 1;
#X connect 18 1 19 0;
#X connect 19 0 7 2;
#X connect 20 0 23 0;
#X connect 21 0 20 0;
#X connect 22 0 21 0;
#X connect 22 1 24 0;
#X connect 23 0 16 0;
#X connect 24 0 20 0;
#X connect 25 0 28 0;
#X connect 26 0 25 0;
#X connect 27 0 25 0;
#X connect 28 0 6 0;
#X connect 29 0 30 1;
#X connect 30 0 3 0;
#X restore 566 588 pd GUI set symProps;
#N canvas 0 30 926 722 index 0;
#X obj 69 13 inlet;
#X obj 116 204 outlet;
#X obj 306 13 inlet;
#X msg 111 70 get \$1;
#X obj 280 90 sdSetSelector set;
#X obj 256 63 t b a;
#X obj 171 131 sdData get count;
#X msg 208 83 count;
#X obj 257 198 outlet;
#X obj 130 165 sdUnPack;
#X msg 163 28 0;
#X obj 251 26 t b a;
#X connect 0 0 3 0;
#X connect 2 0 11 0;
#X connect 3 0 6 0;
#X connect 4 0 6 0;
#X connect 5 0 7 0;
#X connect 5 1 4 0;
#X connect 6 0 9 0;
#X connect 6 1 8 0;
#X connect 7 0 6 0;
#X connect 9 2 1 0;
#X connect 10 0 3 0;
#X connect 11 0 10 0;
#X connect 11 1 5 0;
#X restore 413 180 pd index -> obj;
#X text 102 493 send messages to obj:;
#X obj 111 511 bng 15 250 50 0 \$0-start empty start 17 7 0 10 -262144
-1 -1;
#X obj 161 511 bng 15 250 50 0 \$0-stop empty stop 17 7 0 10 -262144
-1 -1;
#X obj 211 511 bng 15 250 50 0 \$0-normalize empty normalize 17 7 0
10 -262144 -1 -1;
#X obj 286 511 bng 15 250 50 0 \$0-clear empty clear 17 7 0 10 -262144
-1 -1;
#X symbolatom 110 531 40 0 0 0 - #0-message_rcv #0-message;
#X obj 355 532 bng 15 250 50 0 \$0-send empty send 17 7 0 10 -262144
-1 -1;
#N canvas 0 30 942 854 messages 0;
#X obj 391 234 send;
#X obj 326 101 r \$0-message;
#X obj 254 101 r \$0-send;
#X obj 76 140 r \$0-start;
#X obj 516 102 inlet;
#X obj 68 206 r \$0-stop;
#X obj 79 265 r \$0-normalize;
#X obj 81 319 r \$0-clear;
#X obj 312 131 s2l;
#X obj 274 159 list;
#X obj 271 195 sdPackFromHuman;
#X msg 76 163 list start ( );
#X msg 68 229 list stop ( );
#X msg 79 288 list normalize ( );
#X msg 80 342 list clear ( );
#X connect 1 0 8 0;
#X connect 2 0 9 0;
#X connect 3 0 11 0;
#X connect 4 0 0 1;
#X connect 5 0 12 0;
#X connect 6 0 13 0;
#X connect 7 0 14 0;
#X connect 8 0 9 1;
#X connect 9 0 10 0;
#X connect 10 0 0 0;
#X connect 11 0 10 0;
#X connect 12 0 10 0;
#X connect 13 0 10 0;
#X connect 14 0 10 0;
#X restore 140 764 pd messages -> obj;
#X obj 140 740 r \$0-obj;
#N canvas 0 30 798 854 symProps 0;
#X obj 287 229 route 0 1 2;
#X obj 270 41 inlet;
#X obj 144 357 unpack s s;
#X text 267 22 format: index propertyName value;
#X obj 95 442 send;
#X obj 135 444 r \$0-obj;
#X obj 281 324 r \$0-symProp1;
#X obj 441 321 r \$0-symProp2;
#X obj 282 130 sdData;
#X obj 264 83 t b a;
#X msg 221 107 serialize;
#X obj 339 101 sdSetSelector set;
#X obj 95 419 sdPack set;
#X obj 111 381 sdPack;
#X obj 71 329 r \$0-symProp0;
#X obj 71 352 s2l;
#X obj 353 354 unpack s s;
#X obj 304 439 send;
#X obj 344 441 r \$0-obj;
#X obj 304 416 sdPack set;
#X obj 320 378 sdPack;
#X obj 280 349 s2l;
#X obj 514 349 unpack s s;
#X obj 465 434 send;
#X obj 505 436 r \$0-obj;
#X obj 465 411 sdPack set;
#X obj 481 373 sdPack;
#X obj 441 344 s2l;
#X obj 287 205 sdUnPack;
#X connect 0 0 2 0;
#X connect 0 1 16 0;
#X connect 0 2 22 0;
#X connect 1 0 9 0;
#X connect 2 0 13 1;
#X connect 5 0 4 1;
#X connect 6 0 21 0;
#X connect 7 0 27 0;
#X connect 8 0 28 0;
#X connect 9 0 10 0;
#X connect 9 1 11 0;
#X connect 10 0 8 0;
#X connect 11 0 8 0;
#X connect 12 0 4 0;
#X connect 13 0 12 0;
#X connect 14 0 15 0;
#X connect 15 0 13 0;
#X connect 16 0 20 1;
#X connect 18 0 17 1;
#X connect 19 0 17 0;
#X connect 20 0 19 0;
#X connect 21 0 20 0;
#X connect 22 0 26 1;
#X connect 24 0 23 1;
#X connect 25 0 23 0;
#X connect 26 0 25 0;
#X connect 27 0 26 0;
#X connect 28 0 0 0;
#X restore 379 763 pd symProps to obj;
#X obj 379 738 r \$0-symProps;
#X obj 506 151 r \$0-objList;
#X obj 691 159 r \$0-objList;
#N canvas 0 30 798 854 (subpatch) 0;
#X obj 446 39 inlet;
#X obj 659 47 inlet;
#X obj 57 37 inlet;
#X msg 509 410 \; \$1 list out 1 clear \;;
#X obj 207 391 pack s \$0;
#X msg 194 422 \; \$1 list out 2 del \$2-fromInstr \;;
#X obj 611 182 sdData;
#X obj 662 77 sdSetSelector set;
#X msg 570 151 serialize;
#X obj 305 182 sdData;
#X msg 264 151 serialize;
#X obj 140 362 sdUnPack;
#X obj 455 350 sdUnPack;
#X connect 0 0 8 0;
#X connect 1 0 7 0;
#X connect 2 0 10 0;
#X connect 4 0 5 0;
#X connect 6 0 12 0;
#X connect 7 0 6 0;
#X connect 7 0 9 0;
#X connect 8 0 6 0;
#X connect 9 0 11 0;
#X connect 10 0 9 0;
#X connect 11 2 4 0;
#X connect 12 2 3 0;
#X restore 676 184 pd;
#X obj 286 145 bng 12 250 50 0 \$0-clearConnections empty clear_connections
17 7 0 10 -258113 -1 -1;
#X obj 676 135 r \$0-clearConnections;
#X text 103 552 connections:;
#X text 120 570 ->;
#X symbolatom 141 572 36 0 0 0 - #0-symOut_rcv #0-symOut;
#X obj 184 554 bng 15 250 50 0 \$0-clearOutput empty clear 17 7 0 10
-262144 -1 -1;
#X obj 718 185 r \$0-clearOutput;
#X obj 718 208 symbol;
#X obj 767 208 r \$0-obj;
#X obj 719 478 s \$0-symOut_rcv;
#N canvas 0 30 798 854 track 0;
#X obj 179 17 inlet;
#X obj 49 472 outlet;
#X obj 191 265 list split 1;
#X obj 137 247 t a a;
#X obj 376 479 outlet;
#X obj 518 319 outlet;
#X obj 181 95 sdUnPack;
#X obj 235 125 sdPackFilter out;
#X obj 470 226 sdUnPack;
#X obj 137 222 sdPackToMessage;
#X obj 180 385 sdGate;
#X obj 334 427 sdGate;
#X msg 216 324 1 0;
#X msg 264 324 0 1;
#X obj 225 289 route float symbol list bang;
#X msg 327 327 0 0;
#X obj 214 354 unpack f f;
#X obj 416 400 print sdObjState_ui;
#X msg 411 374 error: unable to determine property type;
#X obj 411 332 t b;
#X connect 0 0 6 0;
#X connect 2 1 14 0;
#X connect 3 0 10 0;
#X connect 3 1 2 0;
#X connect 6 0 7 0;
#X connect 7 0 8 0;
#X connect 7 1 9 0;
#X connect 8 0 5 0;
#X connect 9 0 3 0;
#X connect 10 0 1 0;
#X connect 10 1 11 0;
#X connect 11 0 4 0;
#X connect 12 0 16 0;
#X connect 13 0 16 0;
#X connect 14 0 12 0;
#X connect 14 1 13 0;
#X connect 14 2 13 0;
#X connect 14 3 13 0;
#X connect 14 4 15 0;
#X connect 14 4 19 0;
#X connect 15 0 16 0;
#X connect 16 0 10 1;
#X connect 16 1 11 1;
#X connect 18 0 17 0;
#X connect 19 0 18 0;
#X restore 548 554 pd track obj;
#X obj 548 495 r \$0-fromInstr;
#N canvas 0 30 926 722 gui 0;
#X obj 43 9 inlet;
#X obj 304 136 until;
#X msg 374 125 0;
#X obj 309 207 pack f \$0;
#X obj 304 58 t b b;
#X msg 302 267 \; \$2-symPropName\$1_rcv label - \; \$2-symProp\$1_rcv
set - \;;
#X obj 535 132 until;
#X msg 605 121 0;
#X obj 540 203 pack f \$0;
#X obj 535 54 t b b;
#X msg 532 263 \; \$2-numPropName\$1_rcv label - \; \$2-numProp\$1_rcv
set 0 \;;
#X text 530 317 clear numProps display;
#X text 300 322 clear symProps disply;
#X obj 71 89 f \$0;
#X msg 69 113 \; \$1-symOut_rcv set -;
#X msg 302 100 4;
#X msg 533 96 10;
#X obj 535 167 sdCounter -1;
#X obj 304 171 sdCounter -1;
#X connect 0 0 4 0;
#X connect 0 0 9 0;
#X connect 0 0 13 0;
#X connect 1 0 18 0;
#X connect 2 0 18 0;
#X connect 3 0 5 0;
#X connect 4 0 15 0;
#X connect 4 1 2 0;
#X connect 6 0 17 0;
#X connect 7 0 17 0;
#X connect 8 0 10 0;
#X connect 9 0 16 0;
#X connect 9 1 7 0;
#X connect 13 0 14 0;
#X connect 15 0 1 0;
#X connect 16 0 6 0;
#X connect 17 0 8 0;
#X connect 18 0 3 0;
#X restore 578 384 pd gui clear;
#X text 137 718 GUI -> Obj;
#X obj 719 432 l2s;
#X msg 719 455 set \$1;
#X obj 723 638 s \$0-symOut_rcv;
#X obj 723 592 l2s;
#X msg 723 615 set \$1;
#X obj 516 683 r \$0-symOut;
#X obj 516 706 s2l;
#X obj 604 785 send;
#X obj 673 760 r \$0-obj;
#X obj 239 266 nbx 6 14 -1e+37 1e+37 0 0 \$0-numProp3 \$0-numProp3_rcv
empty 0 -8 0 10 -262144 -1 -1 0 256;
#X obj 113 268 cnv 15 120 13 empty \$0-numPropName3_rcv - 1 8 0 10
-228856 -66577 0;
#X obj 113 466 cnv 15 120 13 empty \$0-symPropName3_rcv - 1 8 0 10
-228856 -66577 0;
#X symbolatom 239 464 25 0 0 0 - #0-symProp3_rcv #0-symProp3;
#X obj 239 283 nbx 6 14 -1e+37 1e+37 0 0 \$0-numProp4 \$0-numProp4_rcv
empty 0 -8 0 10 -262144 -1 -1 0 256;
#X obj 113 285 cnv 15 120 13 empty \$0-numPropName4_rcv - 1 8 0 10
-228856 -66577 0;
#X obj 239 300 nbx 6 14 -1e+37 1e+37 0 0 \$0-numProp5 \$0-numProp5_rcv
empty 0 -8 0 10 -262144 -1 -1 0 256;
#X obj 113 302 cnv 15 120 13 empty \$0-numPropName5_rcv - 1 8 0 10
-228856 -66577 0;
#X obj 239 318 nbx 6 14 -1e+37 1e+37 0 0 \$0-numProp6 \$0-numProp6_rcv
empty 0 -8 0 10 -262144 -1 -1 0 256;
#X obj 113 320 cnv 15 120 13 empty \$0-numPropName6_rcv - 1 8 0 10
-228856 -66577 0;
#X obj 239 335 nbx 6 14 -1e+37 1e+37 0 0 \$0-numProp7 \$0-numProp7_rcv
empty 0 -8 0 10 -262144 -1 -1 0 256;
#X obj 113 337 cnv 15 120 13 empty \$0-numPropName7_rcv - 1 8 0 10
-228856 -66577 0;
#X obj 239 353 nbx 6 14 -1e+37 1e+37 0 0 \$0-numProp8 \$0-numProp8_rcv
empty 0 -8 0 10 -262144 -1 -1 0 256;
#X obj 113 355 cnv 15 120 13 empty \$0-numPropName8_rcv - 1 8 0 10
-228856 -66577 0;
#X obj 239 370 nbx 6 14 -1e+37 1e+37 0 0 \$0-numProp9 \$0-numProp9_rcv
empty 0 -8 0 10 -262144 -1 -1 0 256;
#X obj 113 372 cnv 15 120 13 empty \$0-numPropName9_rcv - 1 8 0 10
-228856 -66577 0;
#X text 103 389 symbol (and list) properties:;
#X obj 286 160 bng 12 250 50 0 \$0-disconnectUI empty disconnect_ui
17 7 0 10 -262144 -1 -1;
#X obj 648 111 r \$0-disconnectUI;
#X msg 718 231 \; \$1 list out 1 clear \;;
#X obj 543 760 sdPack out;
#X obj 471 239 t a a;
#X obj 444 325 sdPackFilter test;
#X obj 543 737 list prepend add;
#X obj 548 521 sdPackFilter update;
#X obj 539 18 inlet;
#X obj 112 115 hradio 12 1 0 2 \$0-group \$0-group_rcv empty 0 -8 0
10 -262144 -1 -1 0;
#X symbolatom 112 132 27 0 0 0 - #0-groupName_rcv #0-groupName;
#N canvas 0 30 926 722 get_objs 0;
#X obj 167 207 sdObjSaveAll \$1;
#X msg 167 182 save \, get;
#X obj 167 231 outlet;
#X msg 328 90 get \$1;
#X obj 178 9 inlet;
#X obj 328 155 sdList get count;
#X obj 450 14 inlet;
#X obj 450 121 sdSetSelector set;
#X obj 450 67 t b a;
#X msg 406 98 count;
#X obj 338 251 outlet;
#X text 331 279 group name;
#X obj 441 249 outlet;
#X text 441 274 number of groups;
#X obj 285 181 t a a;
#X obj 178 89 t b f;
#X obj 450 37 t b a;
#X msg 208 47 0;
#X connect 0 0 2 0;
#X connect 1 0 0 0;
#X connect 3 0 5 0;
#X connect 4 0 15 0;
#X connect 5 0 14 0;
#X connect 5 1 12 0;
#X connect 6 0 16 0;
#X connect 7 0 5 0;
#X connect 8 0 9 0;
#X connect 8 1 7 0;
#X connect 9 0 5 0;
#X connect 14 0 0 1;
#X connect 14 1 10 0;
#X connect 15 0 1 0;
#X connect 15 1 3 0;
#X connect 16 0 17 0;
#X connect 16 1 8 0;
#X connect 17 0 15 0;
#X restore 427 52 pd get_objs;
#X obj 416 28 r \$0-group;
#X obj 629 40 bng 15 250 50 0 empty empty empty 17 7 0 10 -262144 -1
-1;
#N canvas 0 30 926 722 initlist 0;
#X obj 513 209 sdList;
#X msg 513 167 serialize \, clear;
#X obj 501 128 t b l;
#X obj 513 232 route symbol;
#X obj 456 294 sdList;
#X msg 412 225 bang \, clear;
#X obj 44 19 inlet;
#X obj 456 317 outlet;
#X obj 504 92 list append \$2 \$3 \$4 \$5 \$6;
#X connect 0 0 3 0;
#X connect 1 0 0 0;
#X connect 2 0 1 0;
#X connect 2 0 5 0;
#X connect 2 1 0 1;
#X connect 3 0 4 1;
#X connect 4 0 7 0;
#X connect 5 0 4 0;
#X connect 6 0 8 0;
#X connect 8 0 2 0;
#X restore 690 70 pd initlist;
#X obj 497 122 s \$0-groupName_rcv;
#X obj 503 98 s \$0-group_rcv;
#X msg 503 75 number \$1;
#X obj 690 1 r \$1;
#X obj 690 24 sdPackFilter init;
#X obj 690 47 t b;
#X obj 582 277 pack s \$0;
#X obj 540 220 s \$0-objRadio_rcv;
#X msg 540 198 number \$1;
#X text 521 1 obj group;
#X connect 2 0 5 0;
#X connect 4 0 36 0;
#X connect 8 0 112 0;
#X connect 11 0 95 0;
#X connect 12 0 96 0;
#X connect 18 0 22 0;
#X connect 18 1 25 0;
#X connect 18 2 65 0;
#X connect 21 0 26 0;
#X connect 23 0 34 1;
#X connect 24 0 18 0;
#X connect 24 1 63 0;
#X connect 29 0 35 1;
#X connect 36 0 7 0;
#X connect 36 1 114 0;
#X connect 45 0 44 0;
#X connect 47 0 46 0;
#X connect 48 0 36 1;
#X connect 49 0 50 2;
#X connect 52 0 50 1;
#X connect 57 0 58 0;
#X connect 58 0 93 0;
#X connect 59 0 58 1;
#X connect 61 0 34 0;
#X connect 61 1 35 0;
#X connect 61 2 68 0;
#X connect 62 0 98 0;
#X connect 65 0 66 0;
#X connect 66 0 60 0;
#X connect 68 0 69 0;
#X connect 69 0 67 0;
#X connect 70 0 71 0;
#X connect 71 0 97 0;
#X connect 73 0 72 1;
#X connect 92 0 50 0;
#X connect 94 0 72 0;
#X connect 95 0 15 0;
#X connect 95 1 96 1;
#X connect 96 0 24 0;
#X connect 97 0 94 0;
#X connect 98 0 61 0;
#X connect 99 0 102 1;
#X connect 102 0 6 0;
#X connect 102 1 106 0;
#X connect 102 2 108 0;
#X connect 103 0 102 0;
#X connect 104 0 105 0;
#X connect 105 0 102 1;
#X connect 108 0 107 0;
#X connect 109 0 110 0;
#X connect 110 0 111 0;
#X connect 111 0 105 0;
#X connect 112 0 9 0;
#X connect 114 0 113 0;
#X coords 0 -1 1 1 306 494 1 100 100;
