#N canvas 0 0 798 854 12;
#X msg 20 223 save;
#X obj 53 114 route save_hd load_hd;
#X obj 225 536 textfile;
#X obj 72 25 inlet;
#X obj 42 347 list prepend;
#X obj 71 53 t a b;
#X obj 42 372 list trim;
#X obj 30 158 t b b;
#X obj 138 348 r \$0-output-type;
#X obj 135 84 s \$0-output-type;
#X msg 135 59 symbol other;
#X obj 65 208 s \$0-output-type;
#X obj 46 479 symbol;
#X obj 89 450 r \$0-filename;
#X msg 46 507 write \$1 \, clear;
#X obj 43 422 t b a;
#X obj 197 443 list;
#X obj 197 497 sdSetSelector set;
#X obj 599 594 outlet;
#X obj 42 316 route state;
#X msg 65 183 symbol save_hd;
#X obj 42 265 sdObjSaveAll \$1;
#X obj 486 181 sdPropertySym filename \$0 save.save intern, f 28;
#X obj 462 20 loadbang;
#X msg 462 45 init;
#X obj 462 70 s \$0-filename_rcv;
#X obj 345 464 symbol;
#X obj 388 435 r \$0-filename;
#X obj 71 236 r \$0-toSaveObj;
#X obj 224 690 s \$0-toSaveObj;
#X obj 225 562 t b a;
#X msg 198 604 load;
#X obj 42 397 route save_hd other;
#X msg 345 491 read \$1 \, rewind \, bang;
#X obj 280 640 list prepend set state;
#X obj 280 665 list trim;
#N canvas 0 0 798 854 escape 0;
#X obj 88 119 sdListForEach;
#X obj 178 172 sdIsEq;
#X obj 144 146 t a a;
#X obj 144 201 sdGate;
#X obj 144 226 t b;
#X obj 144 252 symbol _;
#X obj 328 182 t a;
#X obj 44 43 inlet;
#X obj 88 144 outlet;
#X obj 73 83 t b a;
#X connect 0 0 8 0;
#X connect 0 1 2 0;
#X connect 1 0 3 1;
#X connect 2 0 3 0;
#X connect 2 1 1 0;
#X connect 3 0 4 0;
#X connect 3 1 6 0;
#X connect 4 0 5 0;
#X connect 5 0 6 0;
#X connect 6 0 0 2;
#X connect 7 0 9 0;
#X connect 9 0 0 0;
#X connect 9 1 0 1;
#X restore 197 470 pd escape sym;
#N canvas 0 0 798 854 unescape 0;
#X obj 88 119 sdListForEach;
#X obj 144 146 t a a;
#X obj 144 201 sdGate;
#X obj 144 226 t b;
#X obj 328 182 t a;
#X obj 84 60 inlet;
#X obj 88 144 outlet;
#X obj 178 172 sdIsEq _;
#X obj 143 252 symbol;
#X obj 84 85 t b a;
#X connect 0 0 6 0;
#X connect 0 1 1 0;
#X connect 1 0 2 0;
#X connect 1 1 7 0;
#X connect 2 0 3 0;
#X connect 2 1 4 0;
#X connect 3 0 8 0;
#X connect 4 0 0 2;
#X connect 5 0 9 0;
#X connect 7 0 2 1;
#X connect 8 0 4 0;
#X connect 9 0 0 0;
#X connect 9 1 0 1;
#X restore 282 612 pd unescape sym;
#X obj 282 587 list;
#X obj 316 32 r \$0-filename;
#X symbolatom 331 62 10 0 0 0 - - - 0;
#X obj 430 132 t a a;
#X obj 42 290 t a a;
#X obj 375 164 s \$0-toSaveObj;
#X obj 142 313 s \$0-out;
#X obj 510 561 r \$0-out;
#X obj 328 238 r \$0-load-hd;
#X obj 125 140 s \$0-load-hd;
#X connect 0 0 21 0;
#X connect 1 0 7 0;
#X connect 1 1 47 0;
#X connect 1 2 41 0;
#X connect 2 0 30 0;
#X connect 3 0 5 0;
#X connect 4 0 6 0;
#X connect 5 0 1 0;
#X connect 5 1 10 0;
#X connect 6 0 32 0;
#X connect 7 0 0 0;
#X connect 7 1 20 0;
#X connect 8 0 4 1;
#X connect 10 0 9 0;
#X connect 12 0 14 0;
#X connect 13 0 12 1;
#X connect 14 0 2 0;
#X connect 15 0 12 0;
#X connect 15 1 16 0;
#X connect 16 0 36 0;
#X connect 17 0 2 0;
#X connect 19 0 4 0;
#X connect 20 0 11 0;
#X connect 21 0 42 0;
#X connect 22 0 18 0;
#X connect 23 0 24 0;
#X connect 24 0 25 0;
#X connect 26 0 33 0;
#X connect 27 0 26 1;
#X connect 28 0 21 0;
#X connect 30 0 31 0;
#X connect 30 1 38 0;
#X connect 31 0 29 0;
#X connect 32 0 15 0;
#X connect 33 0 2 0;
#X connect 34 0 35 0;
#X connect 35 0 29 0;
#X connect 36 0 17 0;
#X connect 37 0 34 0;
#X connect 38 0 37 0;
#X connect 39 0 40 0;
#X connect 41 0 43 0;
#X connect 41 1 22 0;
#X connect 42 0 19 0;
#X connect 42 1 44 0;
#X connect 45 0 18 0;
#X connect 46 0 26 0;
