#N canvas 0 30 762 345 10;
#X obj 59 37 inlet;
#X text 47 18 obj to ask for info;
#X text 202 86 \$1: send obj state to this receiver;
#X obj 108 198 send;
#X obj 115 91 t b s;
#X obj 58 121 symbol \$1;
#X msg 51 155 list get 3 out 1 \$1;
#X connect 0 0 4 0;
#X connect 4 0 5 0;
#X connect 4 1 3 1;
#X connect 5 0 6 0;
#X connect 6 0 3 0;
