#N canvas 0 30 681 722 10;
#X obj 81 34 inlet;
#X obj 81 307 outlet;
#X obj 81 81 sdUnPack;
#X obj 81 58 sdPackFilter info update;
#X obj 369 39 inlet;
#X text 407 18 obj to track;
#X obj 222 106 sdUnPack;
#X obj 229 211 sdData serialize;
#X obj 237 141 t b a;
#X msg 233 182 serialize \, clear;
#X obj 222 83 sdPackFilter;
#X text 76 14 events;
#X connect 0 0 3 0;
#X connect 2 0 1 0;
#X connect 3 0 2 0;
#X connect 3 1 10 0;
#X connect 4 0 10 1;
#X connect 6 0 8 0;
#X connect 7 0 1 0;
#X connect 8 0 9 0;
#X connect 8 1 7 1;
#X connect 9 0 7 0;
#X connect 10 0 6 0;
