#N canvas 0 30 681 722 10;
#X obj 138 115 loadbang;
#X obj 155 138 bng 15 250 50 0 empty empty empty 17 7 0 10 -262144
-1 -1;
#N canvas 0 30 681 722 initlist 0;
#X obj 513 209 sdList;
#X obj 513 232 route symbol;
#X obj 503 41 inlet;
#X obj 318 356 outlet;
#X obj 519 129 t l b;
#X msg 520 163 clear;
#X msg 375 135 serialize;
#X obj 319 32 inlet;
#X obj 504 92 list append \$2 \$3 \$4 \$5 \$6 \$7;
#X connect 0 0 1 0;
#X connect 1 0 3 0;
#X connect 2 0 8 0;
#X connect 4 0 0 1;
#X connect 4 1 5 0;
#X connect 5 0 0 0;
#X connect 6 0 0 0;
#X connect 7 0 6 0;
#X connect 8 0 4 0;
#X restore 66 142 pd initlist;
#X obj 63 83 t b s;
#X obj 59 37 inlet;
#X text 47 18 obj to ask for info;
#X obj 64 296 send;
#X obj 108 203 sdSymbolBang \$1;
#X obj 63 227 pack s s;
#X obj 63 273 sdPackFromHuman;
#X text 379 71 \$1: where to send to \; [\$2...\$7]: properties to
ask for;
#X msg 63 250 list get ( \$1 out ( \$2 ) );
#X connect 0 0 2 1;
#X connect 1 0 2 1;
#X connect 2 0 8 0;
#X connect 3 0 2 0;
#X connect 3 1 6 1;
#X connect 4 0 3 0;
#X connect 7 0 8 1;
#X connect 8 0 11 0;
#X connect 9 0 6 0;
#X connect 11 0 9 0;
