#N canvas 0 30 762 722 10;
#X obj 127 22 inlet;
#X obj 495 301 symbol;
#X obj 480 258 t s b;
#X obj 487 359 pack s s;
#X text 386 94 \$1: this \; \$2: obj to connect to;
#X obj 450 332 sdFirst;
#X msg 486 384 \; \$1 list out 2 del \$2;
#X obj 355 368 outlet;
#X obj 147 286 pack s s;
#X obj 132 222 bng 15 250 50 0 empty empty empty 17 7 0 10 -262144
-1 -1;
#X text 172 240 create connection from object;
#X msg 147 312 \; \$1 list out 2 add \$2 \;;
#X obj 41 365 outlet;
#X text 286 388 before output has been set;
#X text 34 389 after output has been set;
#X obj 314 21 inlet;
#X obj 314 44 sdSymbolBang \$2;
#X obj 581 311 symbol;
#X obj 566 268 t s b;
#X obj 501 217 unpack s s;
#X obj 382 174 t a a;
#X obj 171 156 t a a;
#X obj 171 188 unpack s s;
#X obj 141 127 t a a;
#X obj 160 87 pack s s;
#X text 244 20 to;
#X obj 127 47 symbol \$1;
#X connect 0 0 26 0;
#X connect 1 0 5 0;
#X connect 2 0 1 1;
#X connect 2 1 1 0;
#X connect 3 0 6 0;
#X connect 5 1 3 0;
#X connect 8 0 11 0;
#X connect 9 0 8 0;
#X connect 15 0 16 0;
#X connect 16 0 24 1;
#X connect 17 0 3 1;
#X connect 18 0 17 1;
#X connect 18 1 17 0;
#X connect 19 0 2 0;
#X connect 19 1 18 0;
#X connect 20 0 7 0;
#X connect 20 1 19 0;
#X connect 21 0 22 0;
#X connect 21 1 20 0;
#X connect 22 0 8 0;
#X connect 22 1 8 1;
#X connect 23 0 12 0;
#X connect 23 1 21 0;
#X connect 24 0 23 0;
#X connect 26 0 24 0;
