#N canvas 0 30 721 722 10;
#X obj 59 37 inlet;
#X text 47 18 obj to ask for info;
#X obj 115 352 send;
#X obj 115 91 t b s;
#X obj 473 246 sdIsEq;
#X obj 440 268 sdGate;
#X obj 440 222 t s s;
#X obj 440 291 t b;
#X obj 440 314 symbol get;
#X obj 440 199 sdSymbolBang \$2;
#X obj 58 217 pack s s;
#X obj 58 163 symbol \$1;
#X msg 58 309 list \$2 3 out 1 \$1;
#X text 167 337 default: list get 3 out 1 \$1;
#X text 202 86 \$1: send obj state to this receiver \; \$2: message
type (default: 'get');
#X connect 0 0 3 0;
#X connect 3 0 11 0;
#X connect 3 1 2 1;
#X connect 4 0 5 1;
#X connect 5 0 7 0;
#X connect 5 1 10 1;
#X connect 6 0 5 0;
#X connect 6 1 4 0;
#X connect 7 0 8 0;
#X connect 8 0 10 1;
#X connect 9 0 6 0;
#X connect 10 0 12 0;
#X connect 11 0 10 0;
#X connect 12 0 2 0;
