#N canvas 0 30 681 722 10;
#X obj 270 311 r \$0-fromAllObjs;
#X obj 147 334 sdData bang serialize;
#X msg 18 235 serialize;
#X obj 289 380 sdUnPack;
#X obj 265 418 sdPack set;
#X obj 277 448 send, f 10;
#X obj 118 20 inlet;
#X obj 355 177 outlet;
#X text 351 377 update objs from saved state;
#X text 462 653 \$1: dest objs "group" \;;
#X obj 389 232 list prepend set;
#X obj 389 255 list trim;
#X obj 147 236 sdObjGetAll \$0-fromAllObjs get;
#X obj 147 211 symbol;
#X obj 179 186 r \$0-dest;
#X obj 188 152 t b b;
#X msg 342 238 clear;
#X obj 343 97 sdPropertyList state \$0;
#X obj 93 98 r \$0-save;
#X obj 18 211 r \$0-load;
#X obj 389 208 r \$0-state;
#X obj 93 121 t b b;
#X obj 46 443 s \$0-state_rcv;
#X obj 161 69 s \$0-load;
#X obj 118 45 route save load;
#X obj 86 67 s \$0-save;
#X text 338 501 save: actual objs -> state property \; load: this.state
-> actual objects;
#X obj 47 418 sdSetSelector priv.set_noupdate;
#X obj 376 132 sdPropertySym dest \$0 \$1 intern;
#X obj 448 42 loadbang;
#X msg 448 65 init;
#X connect 0 0 1 1;
#X connect 1 0 27 0;
#X connect 1 1 3 0;
#X connect 2 0 1 0;
#X connect 3 0 4 0;
#X connect 3 2 5 1;
#X connect 4 0 5 0;
#X connect 6 0 24 0;
#X connect 10 0 11 0;
#X connect 11 0 1 0;
#X connect 13 0 12 0;
#X connect 14 0 13 1;
#X connect 15 0 13 0;
#X connect 15 1 16 0;
#X connect 16 0 1 0;
#X connect 17 0 7 0;
#X connect 17 1 28 0;
#X connect 18 0 21 0;
#X connect 19 0 2 0;
#X connect 20 0 10 0;
#X connect 21 0 1 0;
#X connect 21 1 15 0;
#X connect 24 0 25 0;
#X connect 24 1 23 0;
#X connect 24 2 17 0;
#X connect 27 0 22 0;
#X connect 28 0 7 0;
#X connect 29 0 30 0;
#X connect 30 0 17 0;
