#N canvas 0 0 942 854 10;
#X obj 33 10 inlet;
#X obj 133 88 sdObjState \$1 \$2;
#X obj 180 42 r \$0-fromProperties;
#X obj 27 681 outlet;
#X obj 290 62 r \$1.out;
#X obj 324 687 outlet;
#X obj 400 175 t a a, f 20;
#N canvas 0 0 942 854 connect 0;
#X obj 37 37 inlet;
#X text 217 373 print info for the dumb user;
#X obj 138 175 t b s;
#X obj 131 219 sdObjConnectTo \$1 \$1;
#X obj 142 138 t s s;
#X obj 131 242 unpack s s;
#X obj 184 165 sdObjConnectTo \$1 \$1;
#X obj 138 266 outlet;
#X msg 203 396 connected \$1 -> \$2;
#X obj 203 420 print \$1;
#X connect 0 0 4 0;
#X connect 2 0 3 0;
#X connect 2 1 3 1;
#X connect 3 0 5 0;
#X connect 3 1 8 0;
#X connect 4 0 2 0;
#X connect 4 1 6 0;
#X connect 5 1 7 0;
#X connect 6 1 8 0;
#X connect 8 0 9 0;
#X restore 489 398 pd connect;
#X obj 517 198 s \$0-fromObj.out;
#X obj 27 658 r \$0-fromObj.out;
#X obj 479 688 outlet;
#X obj 479 664 r \$0-fromDest.out;
#X obj 324 663 r \$0-fromDest.generic;
#X obj 400 199 sdObjTrack dest;
#X obj 387 529 sdObjGetAll \$1 get_with_range;
#X obj 483 13 inlet;
#X obj 483 36 s \$1.out;
#X obj 180 65 list;
#X obj 69 471 s \$0-fromProperties;
#X obj 96 445 s \$0-fromDest.generic;
#X obj 123 419 s \$0-fromDest.out;
#X obj 150 393 s \$1.out;
#X obj 122 174 sdPackFilter info update;
#X obj 97 137 t a a;
#X obj 146 220 sdPackFilter init;
#X obj 146 245 sdEventToProperties;
#X obj 245 273 sdPackFilter get_all;
#X obj 387 412 symbol;
#X obj 400 223 sdUnPack;
#X obj 245 297 t b;
#X obj 400 245 t s s;
#X text 391 95 \$1: name \; \$2: init rcv \; \$3: dest \; \$4: humble
mode \;;
#X obj 69 367 sdObjInterface \$3 \$4;
#N canvas 0 0 942 854 if 0;
#X obj 37 37 inlet;
#X obj 56 147 sdGate;
#X msg 89 194 destination not set;
#X obj 89 170 t b;
#X obj 17 254 outlet;
#X obj 89 217 outlet;
#X obj 187 76 sdSymbolIsEq;
#X obj 187 99 expr $f1==0;
#X obj 161 38 inlet;
#X connect 0 0 1 0;
#X connect 1 0 4 0;
#X connect 1 1 3 0;
#X connect 2 0 5 0;
#X connect 3 0 2 0;
#X connect 6 0 7 0;
#X connect 7 0 1 1;
#X connect 8 0 6 0;
#X restore 489 374 pd if dest set;
#X obj 483 343 t s s;
#N canvas 0 0 942 854 if 0;
#X obj 37 37 inlet;
#X obj 56 147 sdGate;
#X msg 89 194 destination not set;
#X obj 89 170 t b;
#X obj 17 254 outlet;
#X obj 89 217 outlet;
#X obj 187 76 sdSymbolIsEq;
#X obj 187 99 expr $f1==0;
#X obj 161 38 inlet;
#X connect 0 0 1 0;
#X connect 1 0 4 0;
#X connect 1 1 3 0;
#X connect 2 0 5 0;
#X connect 3 0 2 0;
#X connect 6 0 7 0;
#X connect 7 0 1 1;
#X connect 8 0 6 0;
#X restore 393 466 pd if dest set;
#X obj 387 435 t s s;
#X obj 580 415 print \$1;
#X obj 474 497 print \$1;
#X connect 0 0 1 0;
#X connect 1 0 23 0;
#X connect 1 1 32 0;
#X connect 1 2 6 0;
#X connect 2 0 17 0;
#X connect 4 0 1 2;
#X connect 6 0 13 0;
#X connect 6 1 8 0;
#X connect 9 0 3 0;
#X connect 11 0 10 0;
#X connect 12 0 5 0;
#X connect 13 0 28 0;
#X connect 15 0 16 0;
#X connect 17 0 1 1;
#X connect 22 1 24 0;
#X connect 23 0 32 1;
#X connect 23 1 22 0;
#X connect 24 0 25 0;
#X connect 24 1 26 0;
#X connect 25 0 32 0;
#X connect 26 0 29 0;
#X connect 27 0 36 0;
#X connect 28 0 30 0;
#X connect 29 0 27 0;
#X connect 30 0 27 0;
#X connect 30 1 34 0;
#X connect 32 0 18 0;
#X connect 32 1 19 0;
#X connect 32 2 20 0;
#X connect 32 3 21 0;
#X connect 33 0 7 0;
#X connect 33 1 37 0;
#X connect 34 0 33 0;
#X connect 34 1 33 1;
#X connect 35 0 14 0;
#X connect 35 1 38 0;
#X connect 36 0 35 0;
#X connect 36 1 35 1;
