#N canvas 0 30 926 722 10;
#X obj 296 455 s \$0-fromObj;
#X obj 469 114 r \$0-fromObj;
#X obj 296 432 list;
#X obj 411 423 sdProperty pitch \$0;
#X obj 297 399 sdPropertySym dest \$0;
#X obj 311 64 inlet;
#X obj 102 66 r \$0-dest;
#X symbolatom 133 122 22 0 0 0 dest - -;
#X obj 185 55 r \$0-pitch;
#X obj 126 381 s \$1;
#X obj 626 402 print -n;
#X msg 626 378 \$2: connected \$1 -> \$2;
#X text 236 163 incoming events;
#X text 350 163 to properties;
#X obj 135 144 nbx 3 14 -1e+37 1e+37 0 0 empty empty empty 0 -8 0 10
-191407 -1 -1 0 256;
#X text 97 139 pitch;
#X obj 126 358 sdPack set;
#X obj 197 184 sdPackFilter init;
#X obj 126 335 sdObjTrack pitch volume;
#X obj 471 460 sdProperty volume \$0;
#X obj 219 143 nbx 3 14 -1e+37 1e+37 0 0 empty empty empty 0 -8 0 10
-191407 -1 -1 0 256;
#X text 177 142 volume;
#X obj 268 31 r \$0-volume;
#X obj 387 267 sdObjGet \$1 pitch volume;
#X obj 467 175 sdObjTrack dest;
#X obj 467 198 sdUnPack;
#X text 329 378 properties "track" the pitch;
#X obj 447 241 sdObjConnectTo \$1 \$1;
#X text 629 349 print info for the dumb user;
#X obj 332 141 sdObjState \$1 \$2 \$3;
#X connect 1 0 29 1;
#X connect 2 0 0 0;
#X connect 3 0 2 0;
#X connect 3 1 19 0;
#X connect 4 0 2 0;
#X connect 4 1 3 0;
#X connect 5 0 29 0;
#X connect 6 0 7 0;
#X connect 8 0 14 0;
#X connect 11 0 10 0;
#X connect 16 0 9 0;
#X connect 17 1 18 0;
#X connect 18 0 16 0;
#X connect 19 0 2 0;
#X connect 22 0 20 0;
#X connect 24 0 25 0;
#X connect 25 0 27 0;
#X connect 27 0 23 0;
#X connect 27 1 11 0;
#X connect 29 0 17 0;
#X connect 29 1 4 0;
#X connect 29 2 24 0;
#X coords 0 -1 1 1 180 60 1 100 100;
