#N canvas 0 30 894 854 10;
#X obj 121 190 sdData;
#X obj 121 135 t b a;
#X msg 121 160 serialize;
#X obj 103 59 s \$0-test;
#X obj 134 664 r \$0-test;
#X obj 91 666 list;
#X obj 121 214 sdPackFilter send;
#X msg 193 163 clear;
#X obj 193 139 r \$0-test;
#X obj 76 37 t a a;
#X obj 121 237 sdUnPack;
#X obj 357 235 sdUnPack;
#X obj 104 488 f;
#X obj 76 115 t b a;
#X obj 114 602 route 1;
#X obj 91 689 print ok;
#X obj 638 460 r \$0-test;
#X obj 618 481 list;
#X obj 114 625 t b;
#X obj 618 504 print failed;
#X obj 101 264 list;
#X obj 63 230 t b b;
#X obj 147 314 send;
#X obj 76 14 inlet;
#X obj 240 235 sdUnPack;
#X obj 240 212 sdPackFilter dest;
#X obj 359 52 inlet;
#X obj 541 518 t b b;
#X obj 630 787 list;
#X obj 762 740 r \$0-test;
#X obj 762 763 t b;
#X obj 357 212 sdPackFilter expect1;
#N canvas 0 30 894 854 expect 0;
#X obj 69 58 inlet;
#X obj 322 73 inlet;
#X obj 230 230 outlet;
#X obj 460 85 inlet;
#X msg 455 147 1;
#X msg 327 141 0;
#X obj 70 81 list;
#X obj 140 144 sdListEqual, f 18;
#X connect 0 0 6 0;
#X connect 1 0 5 0;
#X connect 1 0 7 1;
#X connect 3 0 4 0;
#X connect 4 0 2 0;
#X connect 5 0 2 0;
#X connect 6 0 7 0;
#X connect 7 0 2 0;
#X restore 165 433 pd expect;
#X obj 359 76 s \$0-test-out1;
#X obj 165 364 r \$0-test-out1;
#X obj 216 409 r \$0-test;
#X obj 495 236 sdUnPack;
#X obj 356 414 r \$0-test;
#X obj 495 213 sdPackFilter expect2;
#X obj 457 50 inlet;
#X obj 305 368 r \$0-test-out2;
#X obj 457 74 s \$0-test-out2;
#X obj 666 741 r \$0-test-out1;
#X obj 271 485 f;
#X obj 648 708 sdGate;
#X obj 357 258 s \$0-expect1;
#X obj 190 387 r \$0-expect1;
#X msg 699 679 1;
#X obj 736 681 r \$0-test;
#X msg 736 704 0;
#X obj 443 781 list;
#X obj 522 764 r \$0-test;
#X obj 522 787 t b;
#X obj 461 702 sdGate;
#X obj 549 675 r \$0-test;
#X msg 549 698 0;
#X obj 479 735 r \$0-test-out2;
#X obj 540 547 t b b;
#X obj 630 810 print out1;
#X obj 443 804 print out2;
#X obj 330 391 r \$0-expect2;
#N canvas 0 30 894 854 expect 0;
#X obj 70 58 inlet;
#X obj 322 73 inlet;
#X obj 230 230 outlet;
#X obj 460 85 inlet;
#X msg 455 147 1;
#X msg 327 141 0;
#X obj 70 81 list;
#X obj 140 144 sdListEqual, f 18;
#X connect 0 0 6 0;
#X connect 1 0 5 0;
#X connect 1 0 7 1;
#X connect 3 0 4 0;
#X connect 4 0 2 0;
#X connect 5 0 2 0;
#X connect 6 0 7 0;
#X connect 7 0 2 0;
#X restore 305 442 pd expect;
#X obj 495 259 s \$0-expect2;
#X obj 557 48 inlet;
#X obj 557 72 s \$0-test-out3;
#X obj 633 236 sdUnPack;
#X obj 633 213 sdPackFilter expect3;
#X obj 633 259 s \$0-expect3;
#X obj 483 412 r \$0-test;
#X obj 398 483 f;
#N canvas 0 30 894 854 expect 0;
#X obj 70 58 inlet;
#X obj 322 73 inlet;
#X obj 230 230 outlet;
#X obj 460 85 inlet;
#X msg 455 147 1;
#X msg 327 141 0;
#X obj 70 81 list;
#X obj 140 144 sdListEqual, f 18;
#X connect 0 0 6 0;
#X connect 1 0 5 0;
#X connect 1 0 7 1;
#X connect 3 0 4 0;
#X connect 4 0 2 0;
#X connect 5 0 2 0;
#X connect 6 0 7 0;
#X connect 7 0 2 0;
#X restore 432 440 pd expect;
#X obj 432 366 r \$0-test-out3;
#X obj 457 389 r \$0-expect3;
#X obj 85 438 t b b b;
#X obj 133 558 expr $f1 && $f2 && $f3;
#X obj 274 790 list;
#X obj 353 773 r \$0-test;
#X obj 353 796 t b;
#X obj 292 711 sdGate;
#X msg 343 682 1;
#X obj 380 684 r \$0-test;
#X msg 380 707 0;
#X obj 427 574 t b b;
#X obj 310 744 r \$0-test-out3;
#X obj 274 813 print out3;
#X floatatom 401 510 5 0 0 0 - - -;
#X floatatom 271 508 5 0 0 0 - - -;
#X floatatom 104 511 5 0 0 0 - - -;
#X obj 699 624 r \$0-test-out1;
#X obj 512 618 r \$0-test-out2;
#X obj 343 626 r \$0-test-out3;
#X obj 101 287 list trim;
#X obj 512 641 bang;
#X obj 343 649 bang;
#X obj 699 647 bang;
#X msg 512 673 1;
#X obj 76 91 sdPackFromHuman;
#X connect 0 0 6 0;
#X connect 1 0 2 0;
#X connect 1 1 0 1;
#X connect 2 0 0 0;
#X connect 4 0 5 1;
#X connect 5 0 15 0;
#X connect 6 0 10 0;
#X connect 6 1 25 0;
#X connect 7 0 0 0;
#X connect 8 0 7 0;
#X connect 9 0 96 0;
#X connect 9 1 3 0;
#X connect 10 0 20 1;
#X connect 11 0 45 0;
#X connect 12 0 74 0;
#X connect 12 0 87 0;
#X connect 13 0 21 0;
#X connect 13 1 1 0;
#X connect 14 0 18 0;
#X connect 14 1 27 0;
#X connect 16 0 17 1;
#X connect 17 0 19 0;
#X connect 18 0 5 0;
#X connect 20 0 91 0;
#X connect 21 0 73 0;
#X connect 21 1 20 0;
#X connect 23 0 9 0;
#X connect 24 0 22 1;
#X connect 25 0 24 0;
#X connect 25 1 31 0;
#X connect 26 0 33 0;
#X connect 27 0 57 0;
#X connect 27 1 17 0;
#X connect 28 0 58 0;
#X connect 29 0 30 0;
#X connect 30 0 28 1;
#X connect 31 0 11 0;
#X connect 31 1 38 0;
#X connect 32 0 12 1;
#X connect 34 0 32 0;
#X connect 35 0 32 2;
#X connect 36 0 62 0;
#X connect 37 0 61 2;
#X connect 38 0 36 0;
#X connect 38 1 66 0;
#X connect 39 0 41 0;
#X connect 40 0 61 0;
#X connect 42 0 28 1;
#X connect 43 0 74 1;
#X connect 43 0 86 0;
#X connect 44 0 28 0;
#X connect 46 0 32 1;
#X connect 47 0 44 1;
#X connect 48 0 49 0;
#X connect 49 0 44 1;
#X connect 50 0 59 0;
#X connect 51 0 52 0;
#X connect 52 0 50 1;
#X connect 53 0 50 0;
#X connect 54 0 55 0;
#X connect 55 0 53 1;
#X connect 56 0 50 1;
#X connect 57 0 82 0;
#X connect 57 1 44 0;
#X connect 60 0 61 1;
#X connect 61 0 43 1;
#X connect 63 0 64 0;
#X connect 65 0 67 0;
#X connect 66 0 65 0;
#X connect 68 0 70 2;
#X connect 69 0 74 2;
#X connect 69 0 85 0;
#X connect 70 0 69 1;
#X connect 71 0 70 0;
#X connect 72 0 70 1;
#X connect 73 0 12 0;
#X connect 73 1 43 0;
#X connect 73 2 69 0;
#X connect 74 0 14 0;
#X connect 75 0 84 0;
#X connect 76 0 77 0;
#X connect 77 0 75 1;
#X connect 78 0 75 0;
#X connect 79 0 78 1;
#X connect 80 0 81 0;
#X connect 81 0 78 1;
#X connect 82 0 78 0;
#X connect 82 1 53 0;
#X connect 83 0 75 1;
#X connect 88 0 94 0;
#X connect 89 0 92 0;
#X connect 90 0 93 0;
#X connect 91 0 22 0;
#X connect 92 0 95 0;
#X connect 93 0 79 0;
#X connect 94 0 47 0;
#X connect 95 0 53 1;
#X connect 96 0 13 0;
