#N canvas 0 30 990 411 10;
#X obj 96 61 inlet;
#X text 93 39 bang;
#X obj 322 58 inlet;
#X obj 139 166 random 1000;
#X obj 139 188 - 1;
#X obj 139 210 moses;
#X obj 243 191 * 1000;
#X obj 139 254 outlet;
#X text 141 275 bang with the probability;
#X text 316 38 probability [0..1];
#X obj 139 232 t b;
#X obj 353 251 outlet;
#X text 350 271 not banged;
#X obj 342 225 t b;
#X obj 322 80 sgFloatBang \$1;
#X connect 0 0 3 0;
#X connect 2 0 14 0;
#X connect 3 0 4 0;
#X connect 4 0 5 0;
#X connect 5 0 10 0;
#X connect 5 1 13 0;
#X connect 6 0 5 1;
#X connect 10 0 7 0;
#X connect 13 0 11 0;
#X connect 14 0 6 0;
