#N canvas 0 30 681 722 10;
#X obj 61 32 inlet;
#X obj 272 26 inlet;
#X obj 67 593 outlet;
#X obj 61 55 route clear;
#X obj 174 268 t b;
#X obj 250 344 f;
#X obj 125 618 r \$0-x;
#X floatatom 125 641 5 0 0 0 - - -;
#X obj 197 617 r \$0-y;
#X floatatom 197 640 5 0 0 0 - - -;
#X obj 61 78 s \$0-clear;
#X obj 262 285 min;
#X obj 290 286 t f;
#X msg 273 235 1e+37;
#X obj 273 258 t f f;
#X obj 285 110 sdUnEvent x y width height;
#X obj 325 287 min;
#X obj 353 288 t f;
#X msg 336 233 1e+37;
#X obj 336 256 t f f;
#X obj 277 375 sdEvent box x y width height;
#X obj 285 133 s \$0-x;
#X obj 314 160 s \$0-y;
#X obj 346 134 s \$0-width;
#X obj 375 157 s \$0-height;
#X obj 262 210 r \$0-x;
#X obj 325 210 r \$0-y;
#X obj 386 298 + 0;
#X obj 386 251 r \$0-x;
#X obj 419 325 t f;
#X obj 384 324 max;
#X obj 401 274 r \$0-width;
#X msg 472 276 0;
#X obj 441 226 t b b;
#X msg 441 249 0;
#X obj 502 303 + 0;
#X msg 570 299 0;
#X obj 530 329 t f;
#X obj 502 331 max;
#X obj 502 250 r \$0-y;
#X obj 517 274 r \$0-height;
#X obj 546 226 t b b;
#X msg 546 249 0;
#X obj 374 205 r \$0-clear;
#X obj 301 186 r \$0-clear;
#X obj 453 198 r \$0-clear;
#X obj 547 202 r \$0-clear;
#X connect 0 0 3 0;
#X connect 1 0 15 0;
#X connect 3 0 10 0;
#X connect 3 1 4 0;
#X connect 4 0 5 0;
#X connect 5 0 20 0;
#X connect 6 0 7 0;
#X connect 8 0 9 0;
#X connect 11 0 12 0;
#X connect 11 0 5 1;
#X connect 12 0 11 1;
#X connect 13 0 14 0;
#X connect 14 0 11 0;
#X connect 14 1 11 1;
#X connect 15 0 21 0;
#X connect 15 1 22 0;
#X connect 15 2 23 0;
#X connect 15 3 24 0;
#X connect 16 0 17 0;
#X connect 16 0 20 1;
#X connect 17 0 16 1;
#X connect 18 0 19 0;
#X connect 19 0 16 0;
#X connect 19 1 16 1;
#X connect 20 0 2 0;
#X connect 25 0 11 0;
#X connect 26 0 16 0;
#X connect 27 0 30 0;
#X connect 28 0 27 0;
#X connect 29 0 30 1;
#X connect 30 0 29 0;
#X connect 30 0 20 2;
#X connect 31 0 27 1;
#X connect 32 0 30 1;
#X connect 32 0 27 1;
#X connect 33 0 34 0;
#X connect 33 1 32 0;
#X connect 34 0 27 0;
#X connect 35 0 38 0;
#X connect 36 0 38 1;
#X connect 36 0 35 1;
#X connect 37 0 38 1;
#X connect 38 0 37 0;
#X connect 38 0 20 3;
#X connect 39 0 35 0;
#X connect 40 0 35 1;
#X connect 41 0 42 0;
#X connect 41 1 36 0;
#X connect 42 0 35 0;
#X connect 43 0 18 0;
#X connect 44 0 13 0;
#X connect 45 0 33 0;
#X connect 46 0 41 0;
