#N canvas 0 30 844 722 10;
#N canvas 0 30 681 736 canvas 0;
#X obj 77 170 r \$0-x;
#X obj 98 203 r \$0-y;
#X obj 66 214 f;
#X obj 234 178 r \$0-snd;
#X obj 236 203 r \$0-rcv;
#X obj 26 21 inlet;
#X obj 73 304 outlet;
#X obj 74 255 pack 0 0 10 10 s s s;
#X obj 300 203 r \$0-label;
#X obj 136 169 r \$0-width;
#X obj 151 199 r \$0-height;
#X msg 73 281 obj \$1 \$2 cnv 5 \$3 \$4 \$5 \$6 \$7 1 8 0 12 1 -65794
;
#X connect 0 0 2 1;
#X connect 1 0 7 1;
#X connect 2 0 7 0;
#X connect 3 0 7 4;
#X connect 4 0 7 5;
#X connect 5 0 2 0;
#X connect 7 0 11 0;
#X connect 8 0 7 6;
#X connect 9 0 7 2;
#X connect 10 0 7 3;
#X connect 11 0 6 0;
#X restore 257 261 pd canvas;
#X msg 171 436 clear;
#N canvas 0 30 681 736 numbox 0;
#X obj 77 170 r \$0-x;
#X obj 98 203 r \$0-y;
#X obj 66 214 f;
#X obj 234 178 r \$0-snd;
#X obj 236 203 r \$0-rcv;
#X obj 26 21 inlet;
#X obj 73 337 outlet;
#X obj 136 169 r \$0-width;
#X obj 151 199 r \$0-height;
#X obj 307 172 r \$0-label;
#X obj 303 196 r \$0-digits;
#X obj 74 255 pack 0 0 10 10 s s s f f f;
#X obj 391 171 r \$0-min;
#X obj 391 194 r \$0-max;
#X msg 74 280 obj \$1 \$2 nbx \$8 \$4 \$9 \$10 0 0 \$5 \$6 \$7 0 -8
1 8 -262144 -1 -1 0 256;
#X connect 0 0 2 1;
#X connect 1 0 11 1;
#X connect 2 0 11 0;
#X connect 3 0 11 4;
#X connect 4 0 11 5;
#X connect 5 0 2 0;
#X connect 7 0 11 2;
#X connect 8 0 11 3;
#X connect 9 0 11 6;
#X connect 10 0 11 7;
#X connect 11 0 14 0;
#X connect 12 0 11 8;
#X connect 13 0 11 9;
#X connect 14 0 6 0;
#X restore 292 294 pd numbox;
#X obj 213 533 outlet;
#X obj 599 264 sdProperty x \$0;
#X obj 625 290 sdProperty y \$0;
#X obj 488 501 sdPropertySym snd \$0 empty intern;
#X obj 496 527 sdPropertySym rcv \$0 empty intern;
#X obj 507 556 sdPropertySym label \$0 empty intern;
#X obj 574 405 sdProperty width \$0;
#X obj 616 436 sdProperty height \$0;
#X obj 679 204 loadbang;
#X msg 679 227 init;
#X obj 194 178 route clear;
#N canvas 0 30 681 722 hsl 0;
#X obj 77 170 r \$0-x;
#X obj 98 203 r \$0-y;
#X obj 66 214 f;
#X obj 234 178 r \$0-snd;
#X obj 236 203 r \$0-rcv;
#X obj 26 21 inlet;
#X obj 74 326 outlet;
#X obj 136 169 r \$0-width;
#X obj 151 199 r \$0-height;
#X obj 74 255 pack 0 0 10 10 s s;
#X msg 74 280 obj \$1 \$2 hsl \$3 \$4 0 1 0 0 \$5 \$6 empty -2 -8 0
10 -1 -260097 -1 14657 1;
#X obj 309 180 r \$0-min;
#X obj 309 203 r \$0-max;
#X connect 0 0 2 1;
#X connect 1 0 9 1;
#X connect 2 0 9 0;
#X connect 3 0 9 4;
#X connect 4 0 9 5;
#X connect 5 0 2 0;
#X connect 7 0 9 2;
#X connect 8 0 9 3;
#X connect 9 0 10 0;
#X connect 10 0 6 0;
#X restore 328 260 pd hsl;
#N canvas 0 30 844 722 set 0;
#X obj 44 69 inlet;
#X obj 104 437 outlet;
#X obj 107 313 f;
#X obj 184 310 r \$0-width;
#X obj 219 333 r \$0-height;
#X obj 129 283 r \$0-x;
#X obj 178 284 r \$0-y;
#X obj 114 357 pack 10 10 100 100 0;
#X msg 104 414 donecanvasdialog 0 0 \$5 0 0 1 1 \$3 \$4 \$1 \$2 1 \,
dirty 0;
#X obj 307 331 r \$0-mode;
#X connect 0 0 2 0;
#X connect 2 0 7 0;
#X connect 3 0 7 2;
#X connect 4 0 7 3;
#X connect 5 0 2 1;
#X connect 6 0 7 1;
#X connect 7 0 8 0;
#X connect 8 0 1 0;
#X connect 9 0 7 4;
#X restore 352 466 pd set canvas;
#X obj 353 437 route graph-on-parent;
#X obj 86 562 f \$0;
#X obj 483 472 sdProperty digits \$0;
#X obj 10 5 inlet;
#X obj 486 219 route obj;
#X obj 85 146 t b a;
#N canvas 0 30 681 722 obj 0;
#X obj 26 21 inlet;
#X obj 279 567 outlet;
#X obj 463 402 list append;
#X obj 449 352 pack s f f;
#X obj 497 287 r \$0-x;
#X obj 518 320 r \$0-y;
#X obj 410 311 symbol obj;
#X obj 463 427 list trim;
#X obj 541 364 r \$0-args;
#X connect 0 0 6 0;
#X connect 2 0 7 0;
#X connect 3 0 2 0;
#X connect 4 0 3 1;
#X connect 5 0 3 2;
#X connect 6 0 3 0;
#X connect 7 0 1 0;
#X connect 8 0 2 1;
#X restore 486 246 pd obj;
#X obj 106 177 route connect;
#X obj 287 188 t b a b;
#X obj 133 239 s \$0-marker.init;
#N canvas 0 30 681 722 marker 0;
#X obj 444 111 r \$0-marker;
#X obj 229 178 sdPack marker;
#X obj 174 135 sdCounter -1;
#X obj 373 137 symbol empty;
#X msg 320 276 clear;
#X msg 115 303 getAccept \$1;
#X obj 134 160 s \$0-index;
#X msg 196 107 0;
#X obj 196 84 r \$0-marker.init;
#X obj 320 253 r \$0-marker.init;
#X obj 143 211 sdPackFilter empty;
#X obj 81 476 outlet;
#X obj 129 13 inlet;
#X obj 14 13 inlet;
#X obj 184 348 sdData bang getAccept;
#X obj 189 387 print markers;
#X obj 236 263 t b a;
#X obj 171 54 t b b;
#X obj 297 383 sdUnPack;
#X obj 6 182 f;
#X obj 25 159 r \$0-index;
#X obj 35 203 f;
#X obj 54 180 r \$0-index;
#X obj 35 226 - 1;
#X obj 8 63 sdFilter current;
#X obj 8 86 t b;
#X obj 43 108 t b;
#X obj 43 85 sdFilter prev;
#X connect 0 0 3 1;
#X connect 1 0 10 0;
#X connect 2 0 1 0;
#X connect 2 0 6 0;
#X connect 3 0 1 1;
#X connect 4 0 14 0;
#X connect 5 0 14 0;
#X connect 7 0 2 0;
#X connect 8 0 7 0;
#X connect 9 0 4 0;
#X connect 10 1 16 0;
#X connect 12 0 17 0;
#X connect 13 0 24 0;
#X connect 14 1 18 0;
#X connect 16 0 14 0;
#X connect 16 1 14 1;
#X connect 17 0 2 0;
#X connect 17 1 3 0;
#X connect 18 0 11 0;
#X connect 19 0 11 0;
#X connect 20 0 19 1;
#X connect 21 0 23 0;
#X connect 22 0 21 1;
#X connect 23 0 11 0;
#X connect 24 0 25 0;
#X connect 24 1 27 0;
#X connect 25 0 19 0;
#X connect 26 0 21 0;
#X connect 27 0 26 0;
#X connect 27 1 5 0;
#X restore 390 152 pd marker;
#N canvas 0 30 681 722 connect 0;
#X obj 26 21 inlet;
#X obj 279 567 outlet;
#X obj 158 73 r \$0-args;
#X obj 202 149 route float;
#X obj 112 123 sdListForEach;
#X obj 96 68 bng 15 250 50 0 empty empty empty 17 7 0 10 -262144 -1
-1;
#X obj 266 174 s \$0-marker.get;
#X obj 240 113 t f;
#X obj 239 83 r \$0-marker.return;
#X obj 105 266 sdGate;
#X obj 162 215 list length;
#X obj 162 238 == 4;
#X obj 112 146 t a a;
#X obj 182 343 print ERROR;
#X msg 176 306 connect params incorrect;
#X obj 177 280 t b;
#X msg 49 376 connect \$1 \$2 \$3 \$4;
#X connect 0 0 4 0;
#X connect 2 0 4 1;
#X connect 3 0 7 0;
#X connect 3 1 6 0;
#X connect 4 0 12 0;
#X connect 4 1 3 0;
#X connect 5 0 4 0;
#X connect 7 0 4 2;
#X connect 8 0 4 2;
#X connect 9 0 16 0;
#X connect 9 1 15 0;
#X connect 10 0 11 0;
#X connect 11 0 9 1;
#X connect 12 0 9 0;
#X connect 12 1 10 0;
#X connect 14 0 13 0;
#X connect 15 0 14 0;
#X connect 16 0 1 0;
#X restore 98 347 pd connect;
#X obj 514 586 sdPropertyList args \$0;
#X obj 390 176 s \$0-marker.return;
#X obj 323 123 r \$0-marker.get;
#X obj 523 615 sdPropertySym marker \$0 empty intern;
#X obj 276 158 route init;
#N canvas 0 30 681 722 bang 0;
#X obj 77 170 r \$0-x;
#X obj 98 203 r \$0-y;
#X obj 66 214 f;
#X obj 234 178 r \$0-snd;
#X obj 236 203 r \$0-rcv;
#X obj 26 21 inlet;
#X obj 73 337 outlet;
#X obj 136 169 r \$0-width;
#X obj 151 199 r \$0-height;
#X obj 300 203 r \$0-label;
#X obj 422 125 r \$0-width;
#X obj 447 148 r \$0-height;
#X obj 441 199 max;
#X obj 447 171 t b f;
#X obj 74 255 pack 0 0 10 10 s s s 15;
#X floatatom 446 237 5 0 0 0 - - -;
#X msg 74 279 obj \$1 \$2 bng \$3 250 50 0 \$5 \$6 \$7 17 7 0 10 -262144
-1 -1;
#X connect 0 0 2 1;
#X connect 1 0 14 1;
#X connect 2 0 14 0;
#X connect 3 0 14 4;
#X connect 4 0 14 5;
#X connect 5 0 2 0;
#X connect 7 0 14 2;
#X connect 8 0 14 3;
#X connect 9 0 14 6;
#X connect 10 0 12 0;
#X connect 11 0 13 0;
#X connect 12 0 14 7;
#X connect 12 0 15 0;
#X connect 13 0 12 0;
#X connect 13 1 12 1;
#X connect 14 0 16 0;
#X connect 16 0 6 0;
#X restore 363 294 pd bang;
#X obj 579 350 sdProperty min \$0;
#X obj 596 374 sdProperty max \$0;
#N canvas 0 30 681 722 toggle 0;
#X obj 77 170 r \$0-x;
#X obj 98 203 r \$0-y;
#X obj 66 214 f;
#X obj 234 178 r \$0-snd;
#X obj 236 203 r \$0-rcv;
#X obj 26 21 inlet;
#X obj 73 337 outlet;
#X obj 136 169 r \$0-width;
#X obj 151 199 r \$0-height;
#X obj 300 203 r \$0-label;
#X obj 74 255 pack 0 0 10 10 s s s;
#X msg 231 496 #X obj 492 11 tgl 15 0 \\\$0-gui.bool_prop0 \\\$0-gui.bool_prop0_rcv
empty 17 7 0 10 -262144 -1 -1 0 1 \;;
#X msg 74 279 obj \$1 \$2 tgl \$3 0 \$5 \$6 \$7 17 7 0 10 -262144 -1
-1 0 1;
#X connect 0 0 2 1;
#X connect 1 0 10 1;
#X connect 2 0 10 0;
#X connect 3 0 10 4;
#X connect 4 0 10 5;
#X connect 5 0 2 0;
#X connect 7 0 10 2;
#X connect 8 0 10 3;
#X connect 9 0 10 6;
#X connect 10 0 12 0;
#X connect 12 0 6 0;
#X restore 399 264 pd toggle;
#N canvas 0 30 681 722 symbol 0;
#X obj 77 170 r \$0-x;
#X obj 98 203 r \$0-y;
#X obj 66 214 f;
#X obj 224 52 r \$0-snd;
#X obj 26 21 inlet;
#X obj 73 337 outlet;
#X obj 136 169 r \$0-width;
#X obj 151 199 r \$0-height;
#X obj 416 44 r \$0-label;
#X text 210 398 symbolatom [x_pos]? [y_pos]? [width]? [lower_limit]?
[upper_limit]? [label_pos]? [label]? [receive]? [send]?;
#X obj 365 185 r \$0-digits;
#X msg 416 113 symbol -;
#X obj 416 136 t a;
#X obj 416 67 sdFilter empty;
#X obj 416 90 t b;
#X obj 76 255 pack 0 0 10 10 s s s f;
#X msg 224 121 symbol -;
#X obj 224 144 t a;
#X obj 224 75 sdFilter empty;
#X obj 224 98 t b;
#X msg 324 115 symbol -;
#X obj 324 138 t a;
#X obj 324 69 sdFilter empty;
#X obj 324 92 t b;
#X obj 324 46 r \$0-rcv;
#X msg 74 279 symbolatom \$1 \$2 \$8 0 0 0 \$7 \$6 \$5;
#X connect 0 0 2 1;
#X connect 1 0 15 1;
#X connect 2 0 15 0;
#X connect 3 0 18 0;
#X connect 4 0 2 0;
#X connect 6 0 15 2;
#X connect 7 0 15 3;
#X connect 8 0 13 0;
#X connect 10 0 15 7;
#X connect 11 0 12 0;
#X connect 12 0 15 6;
#X connect 13 0 14 0;
#X connect 13 1 12 0;
#X connect 14 0 11 0;
#X connect 15 0 25 0;
#X connect 16 0 17 0;
#X connect 17 0 15 4;
#X connect 18 0 19 0;
#X connect 18 1 17 0;
#X connect 19 0 16 0;
#X connect 20 0 21 0;
#X connect 21 0 15 5;
#X connect 22 0 23 0;
#X connect 22 1 21 0;
#X connect 23 0 20 0;
#X connect 24 0 22 0;
#X connect 25 0 5 0;
#X restore 434 295 pd symbol;
#X obj 257 219 route canvas nbx hsl bang toggle sym;
#X obj 351 87 sdEventToProperties;
#N canvas 0 30 681 736 digits->width 0;
#X obj 37 37 inlet;
#X obj 34 70 sdFilter nbx, f 27;
#X obj 34 93 sdUnEvent digits width;
#X obj 34 181 sdEvent nbx digits width;
#X obj 70 156 expr 12+$f1*6;
#X obj 193 328 outlet;
#X obj 34 116 t f f;
#X obj 222 97 sdUnEvent digits width;
#X obj 222 120 t f f;
#X obj 222 74 sdFilter sym, f 27;
#X obj 222 185 sdEvent sym digits width;
#X obj 258 160 expr 4+$f1*6;
#X connect 0 0 1 0;
#X connect 1 0 2 0;
#X connect 1 1 9 0;
#X connect 2 0 6 0;
#X connect 2 1 3 1;
#X connect 2 2 3 2;
#X connect 2 3 3 3;
#X connect 3 0 5 0;
#X connect 4 0 3 1;
#X connect 6 0 3 0;
#X connect 6 1 4 0;
#X connect 7 0 8 0;
#X connect 7 1 10 1;
#X connect 7 2 10 2;
#X connect 7 3 10 3;
#X connect 8 0 10 0;
#X connect 8 1 11 0;
#X connect 9 0 7 0;
#X connect 9 1 5 0;
#X connect 10 0 5 0;
#X connect 11 0 10 1;
#X restore 10 29 pd digits->width;
#X obj 10 52 t a a;
#X obj 12 682 outlet;
#X obj 532 643 sdProperty mode \$0 1 intern;
#X msg 86 589 \; \$1-snd_rcv priv.set empty \; \$1-rcv_rcv priv.set
empty \; \$1-label_rcv priv.set empty \; \$1-args_rcv priv.set \; \$1-marker_rcv
priv.set empty \; \$1-min_rcv priv.set -1e+37 \; \$1-max_rcv priv.set
1e+37 \; \$1-mode_rcv priv.set 1 \;;
#X connect 0 0 3 0;
#X connect 1 0 3 0;
#X connect 2 0 3 0;
#X connect 4 1 5 0;
#X connect 5 1 34 0;
#X connect 6 1 7 0;
#X connect 7 1 8 0;
#X connect 8 1 28 0;
#X connect 9 1 10 0;
#X connect 10 1 18 0;
#X connect 11 0 12 0;
#X connect 12 0 4 0;
#X connect 13 0 1 0;
#X connect 13 0 25 0;
#X connect 13 1 32 0;
#X connect 14 0 3 0;
#X connect 15 0 3 0;
#X connect 16 0 15 0;
#X connect 17 0 44 0;
#X connect 18 1 6 0;
#X connect 19 0 40 0;
#X connect 20 0 22 0;
#X connect 20 1 16 0;
#X connect 21 0 17 0;
#X connect 21 1 23 0;
#X connect 22 0 3 0;
#X connect 23 0 27 0;
#X connect 23 1 13 0;
#X connect 24 1 38 0;
#X connect 24 2 26 1;
#X connect 26 0 29 0;
#X connect 27 0 3 0;
#X connect 28 1 31 0;
#X connect 30 0 26 0;
#X connect 31 1 43 0;
#X connect 32 1 24 0;
#X connect 33 0 3 0;
#X connect 34 1 35 0;
#X connect 35 1 9 0;
#X connect 36 0 3 0;
#X connect 37 0 3 0;
#X connect 38 0 0 0;
#X connect 38 1 2 0;
#X connect 38 2 14 0;
#X connect 38 3 33 0;
#X connect 38 4 36 0;
#X connect 38 5 37 0;
#X connect 38 6 20 0;
#X connect 39 0 21 0;
#X connect 39 1 4 0;
#X connect 40 0 41 0;
#X connect 41 0 42 0;
#X connect 41 1 39 0;
