#N canvas 0 30 681 722 10;
#X obj 134 272 max;
#X obj 171 271 t f;
#X floatatom 154 305 5 0 0 0 - - -;
#X obj 100 372 + 2;
#X obj 131 220 + 0;
#X obj 116 4 inlet;
#X obj 27 498 outlet;
#X obj 634 18 inlet;
#X obj 70 436 f 0;
#X obj 10 11 inlet;
#X obj 116 27 t b a b;
#X obj 131 101 f;
#X obj 151 62 sdUnEvent \$2 \$1;
#X obj 634 41 s \$0-init;
#X obj 243 210 r \$0-init;
#X msg 243 233 0;
#X obj 133 413 r \$0-init;
#X msg 133 436 0;
#X obj 334 17 inlet;
#X obj 309 62 f 0;
#X obj 436 15 inlet start_val;
#X obj 543 20 inlet border;
#X obj 543 43 s \$0-border;
#X obj 143 373 r \$0-border;
#X connect 0 0 1 0;
#X connect 0 0 2 0;
#X connect 0 0 3 0;
#X connect 1 0 0 1;
#X connect 3 0 8 1;
#X connect 4 0 0 0;
#X connect 5 0 10 0;
#X connect 7 0 13 0;
#X connect 8 0 6 0;
#X connect 9 0 8 0;
#X connect 10 0 11 0;
#X connect 10 1 12 0;
#X connect 10 2 19 0;
#X connect 11 0 4 0;
#X connect 12 0 11 1;
#X connect 14 0 15 0;
#X connect 15 0 4 1;
#X connect 15 0 0 1;
#X connect 16 0 17 0;
#X connect 17 0 8 1;
#X connect 18 0 19 1;
#X connect 19 0 11 1;
#X connect 20 0 4 1;
#X connect 20 0 0 1;
#X connect 20 0 8 1;
#X connect 21 0 22 0;
#X connect 23 0 3 1;
