#N canvas 0 30 681 722 10;
#X obj 56 12 inlet;
#X obj 59 142 sdPackFilter line, f 88;
#X obj 78 187 sdUnEvent;
#X obj 59 164 t b a b;
#X obj 245 296 t a a;
#X obj 56 85 sdData serialize;
#X obj 56 35 t b a;
#X obj 85 59 sdSetSelector set;
#X msg 12 61 serialize;
#X obj 338 587 sdPack y;
#X obj 338 554 f;
#X obj 146 184 s \$0-line.init;
#X obj 16 190 s \$0-line.exit, f 8;
#X obj 442 411 r \$0-line.init;
#X obj 275 552 f;
#X obj 275 575 sdPack x;
#X obj 242 441 t b a;
#X obj 268 624 sdEvent type, f 45;
#X obj 215 502 t b b;
#X obj 317 408 t a b;
#X obj 351 298 r \$0-line.exit;
#X obj 268 708 outlet;
#X obj 351 322 sdLines_max y height;
#X obj 319 438 sdLines_max x width;
#X obj 319 461 s \$0-x.default;
#X obj 351 345 s \$0-y.default;
#X obj 298 528 r \$0-x.default;
#X obj 364 552 r \$0-y.default;
#X obj 233 60 s \$0-init;
#X obj 481 320 r \$0-init;
#X obj 444 437 r \$0-init;
#X obj 290 497 sdUnEvent x y, f 41;
#X obj 16 401 s \$0-width.default;
#X obj 59 425 s \$0-height.default;
#X obj 392 251 r \$0-height.default;
#X obj 458 291 r \$0-y.default;
#X obj 402 389 r \$0-x.default;
#X obj 367 367 r \$0-width.default;
#X obj 79 451 s \$0-x.default;
#X obj 122 476 s \$0-y.default;
#X obj 78 210 t a a;
#X obj 61 283 t a a;
#X obj 693 187 sdUnEvent;
#X obj 674 164 t b a b;
#X obj 860 296 t a a;
#X obj 953 587 sdPack y;
#X obj 953 554 f;
#X obj 761 184 s \$0-line.init;
#X obj 631 190 s \$0-line.exit, f 8;
#X obj 1061 411 r \$0-line.init;
#X obj 890 552 f;
#X obj 890 575 sdPack x;
#X obj 857 441 t b a;
#X obj 883 624 sdEvent type, f 45;
#X obj 830 502 t b b;
#X obj 932 408 t a b;
#X obj 966 298 r \$0-line.exit;
#X obj 913 528 r \$0-x.default;
#X obj 979 552 r \$0-y.default;
#X obj 1096 320 r \$0-init;
#X obj 1063 437 r \$0-init;
#X obj 1199 628 t a;
#X obj 905 497 sdUnEvent x y, f 41;
#X obj 697 242 sdPackFilter init;
#X obj 693 210 t a a;
#X obj 674 142 sdPackFilter column, f 88;
#X obj 966 322 sdLines_max x width;
#X obj 1007 238 r \$0-width.default;
#X obj 1068 294 r \$0-x.default;
#X obj 966 345 s \$0-x.default;
#X obj 934 438 sdLines_max y height;
#X obj 982 367 r \$0-height.default;
#X obj 1017 389 r \$0-y.default;
#X obj 933 461 s \$0-y.default;
#X obj 16 319 sdUnEvent width height x y x.border y.border, f 30;
#X obj 117 361 s \$0-x.border;
#X obj 142 386 s \$0-y.border;
#X obj 637 395 s \$0-width.default;
#X obj 662 419 s \$0-height.default;
#X obj 687 445 s \$0-x.default;
#X obj 712 470 s \$0-y.default;
#X obj 637 313 sdUnEvent width height x y x.border y.border, f 30
;
#X obj 738 355 s \$0-x.border;
#X obj 763 380 s \$0-y.border;
#X obj 535 261 r \$0-y.border;
#X obj 483 366 r \$0-x.border;
#X obj 1097 267 r \$0-x.border;
#X obj 1113 384 r \$0-y.border;
#X obj 366 65 s \$0-x.border;
#X obj 391 90 s \$0-y.border;
#X obj 376 4 r \$0-init;
#X obj 660 265 t a a;
#X obj 97 250 sdPackFilter init;
#X obj 376 27 f 5;
#X obj 232 13 inlet init;
#X obj 232 36 t b;
#X obj 1219 324 s \$0-width.default;
#X obj 1244 348 s \$0-height.default;
#X obj 1269 374 s \$0-x.default;
#X obj 1294 399 s \$0-y.default;
#X obj 1219 262 sdUnEvent width height x y x.border y.border, f 30
;
#X obj 1320 299 s \$0-x.border;
#X obj 1345 324 s \$0-y.border;
#X obj 1218 235 sdPackFilter init;
#N canvas 0 30 681 736 fix-widths 0;
#X obj 99 352 sdData serialize;
#X obj 99 302 t b a;
#X obj 128 326 sdSetSelector set;
#X msg 55 328 serialize;
#X obj 97 16 inlet;
#X obj 94 389 sdDynPatch;
#X obj 195 144 sdUnPack;
#X obj 25 499 sdData;
#X obj 201 561 sdPack;
#X obj 39 105 t b a;
#X msg 18 456 bang \, clear;
#X obj 287 617 outlet;
#X obj 148 55 sdFilter line column, f 28;
#X connect 0 0 5 0;
#X connect 1 0 3 0;
#X connect 1 1 2 0;
#X connect 2 0 0 0;
#X connect 3 0 0 0;
#X connect 4 0 12 0;
#X connect 5 0 7 1;
#X connect 6 0 1 0;
#X connect 6 2 8 1;
#X connect 7 0 8 0;
#X connect 8 0 11 0;
#X connect 9 0 10 0;
#X connect 9 1 6 0;
#X connect 10 0 7 0;
#X connect 12 0 9 0;
#X connect 12 1 11 0;
#X restore 63 112 pd fix-widths;
#X connect 0 0 6 0;
#X connect 1 0 3 0;
#X connect 1 1 65 0;
#X connect 2 0 40 0;
#X connect 3 0 12 0;
#X connect 3 1 2 0;
#X connect 3 2 11 0;
#X connect 4 0 16 0;
#X connect 4 1 19 0;
#X connect 4 1 22 1;
#X connect 5 0 104 0;
#X connect 6 0 8 0;
#X connect 6 1 7 0;
#X connect 7 0 5 0;
#X connect 8 0 5 0;
#X connect 9 0 17 1;
#X connect 10 0 9 0;
#X connect 13 0 23 5;
#X connect 14 0 15 0;
#X connect 15 0 17 1;
#X connect 16 0 18 0;
#X connect 16 1 31 0;
#X connect 17 0 21 0;
#X connect 18 0 17 0;
#X connect 18 1 14 0;
#X connect 18 1 10 0;
#X connect 19 0 23 1;
#X connect 19 1 23 0;
#X connect 20 0 22 0;
#X connect 22 0 25 0;
#X connect 23 0 24 0;
#X connect 26 0 14 1;
#X connect 27 0 10 1;
#X connect 29 0 22 5;
#X connect 30 0 23 5;
#X connect 31 0 14 1;
#X connect 31 1 10 1;
#X connect 31 2 17 1;
#X connect 31 3 17 2;
#X connect 34 0 22 2;
#X connect 35 0 22 3;
#X connect 36 0 23 3;
#X connect 37 0 23 2;
#X connect 40 0 92 0;
#X connect 41 0 21 0;
#X connect 41 1 74 0;
#X connect 42 0 64 0;
#X connect 43 0 48 0;
#X connect 43 1 42 0;
#X connect 43 2 47 0;
#X connect 44 0 52 0;
#X connect 44 1 55 0;
#X connect 44 1 66 1;
#X connect 45 0 53 1;
#X connect 46 0 45 0;
#X connect 50 0 51 0;
#X connect 51 0 53 1;
#X connect 52 0 54 0;
#X connect 52 1 62 0;
#X connect 53 0 21 0;
#X connect 54 0 53 0;
#X connect 54 1 50 0;
#X connect 54 1 46 0;
#X connect 55 0 70 1;
#X connect 55 1 70 0;
#X connect 56 0 66 0;
#X connect 57 0 50 1;
#X connect 58 0 46 1;
#X connect 59 0 66 5;
#X connect 60 0 70 5;
#X connect 61 0 21 0;
#X connect 62 0 50 1;
#X connect 62 1 46 1;
#X connect 62 2 53 1;
#X connect 62 3 53 2;
#X connect 63 0 91 0;
#X connect 63 1 44 0;
#X connect 64 0 63 0;
#X connect 65 0 43 0;
#X connect 65 1 103 0;
#X connect 66 0 69 0;
#X connect 67 0 66 2;
#X connect 68 0 66 3;
#X connect 70 0 73 0;
#X connect 71 0 70 2;
#X connect 72 0 70 3;
#X connect 74 0 32 0;
#X connect 74 1 33 0;
#X connect 74 2 38 0;
#X connect 74 3 39 0;
#X connect 74 4 75 0;
#X connect 74 5 76 0;
#X connect 81 0 77 0;
#X connect 81 1 78 0;
#X connect 81 2 79 0;
#X connect 81 3 80 0;
#X connect 81 4 82 0;
#X connect 81 5 83 0;
#X connect 84 0 22 4;
#X connect 85 0 23 4;
#X connect 86 0 66 4;
#X connect 87 0 70 4;
#X connect 90 0 93 0;
#X connect 91 0 21 0;
#X connect 91 1 81 0;
#X connect 92 0 41 0;
#X connect 92 1 4 0;
#X connect 93 0 88 0;
#X connect 93 0 89 0;
#X connect 94 0 95 0;
#X connect 95 0 28 0;
#X connect 100 0 96 0;
#X connect 100 1 97 0;
#X connect 100 2 98 0;
#X connect 100 3 99 0;
#X connect 100 4 101 0;
#X connect 100 5 102 0;
#X connect 103 0 100 0;
#X connect 103 1 61 0;
#X connect 104 0 1 0;
