#N canvas 0 30 894 854 10;
#X obj 105 28 inlet;
#X obj 187 183 outlet;
#X obj 200 30 inlet;
#X obj 304 31 inlet;
#X obj 409 28 inlet;
#X obj 517 31 inlet;
#X text 195 11 min (input);
#X text 274 13 max (input);
#X text 503 9 delta (output);
#X text 373 6 center (output);
#X obj 185 161 expr (($f1-$f2) / ($f3-$f2) * 2 - 1) * $f5 + $f4;
#X obj 200 55 sdFloatBang \$1;
#X obj 304 55 sdFloatBang \$2;
#X obj 409 54 sdFloatBang \$3;
#X obj 517 54 sdFloatBang \$4;
#X connect 0 0 10 0;
#X connect 2 0 11 0;
#X connect 3 0 12 0;
#X connect 4 0 13 0;
#X connect 5 0 14 0;
#X connect 10 0 1 0;
#X connect 11 0 10 1;
#X connect 12 0 10 2;
#X connect 13 0 10 3;
#X connect 14 0 10 4;
