#N canvas 0 30 990 411 10;
#X floatatom 123 362 5 0 0 0 - - -;
#X obj 123 381 / 10;
#X floatatom 72 428 5 0 0 0 - - -;
#X obj 179 405 mod 1;
#X floatatom 179 427 5 0 0 0 - - -;
#X msg 88 39 -1 \, 1 \, 3;
#X obj 99 95 print;
#X text 241 34 ARGS: \; INPUT_MIN INPUT_MAX OUT_CENTER OUT_AMPLITUDE
;
#X msg 97 136 -7 \, 1 \, 5;
#X obj 112 194 print;
#X obj 112 171 sgMinDelta -7 5 1 2;
#X text 239 136 ARGS: \; INPUT_MIN INPUT_MAX OUT_MIN OUT_EXTEND;
#X text 159 204 output: [OUT_MIN \, (OUT_MIN + OUT_EXTEND)];
#X msg 84 260 -7 \, 1 \, 5;
#X obj 98 313 print;
#X text 243 270 ARGS: \; INPUT_MIN INPUT_MAX OUT_MIN OUT_MAX;
#X text 155 320 output: [OUT_MIN \, (OUT_MIN + OUT_MAX)];
#X obj 98 290 sgMinMax -7 5 1 2;
#X text 221 367 modulo which works for float values;
#X obj 72 404 sgMod 1;
#X obj 99 72 sgCenterDelta -1 3 1 2;
#X connect 0 0 1 0;
#X connect 1 0 3 0;
#X connect 1 0 19 0;
#X connect 3 0 4 0;
#X connect 5 0 20 0;
#X connect 8 0 10 0;
#X connect 10 0 9 0;
#X connect 13 0 17 0;
#X connect 17 0 14 0;
#X connect 19 0 2 0;
#X connect 20 0 6 0;
