#N canvas 0 30 990 411 10;
#X obj 50 30 inlet;
#X obj 355 23 inlet;
#X obj 73 367 outlet;
#X obj 144 227 list prepend \$1;
#X obj 119 113 list length;
#X obj 92 88 t a a;
#X obj 91 158 list prepend;
#X connect 0 0 5 0;
#X connect 1 0 3 1;
#X connect 3 0 2 0;
#X connect 4 0 6 1;
#X connect 5 0 6 0;
#X connect 5 1 4 0;
#X connect 6 0 3 0;
