#N canvas 0 30 990 411 10;
#X obj 154 9 inlet;
#X obj 273 129 list split 2;
#X obj 248 167 list split 1;
#X obj 356 164 list length;
#X obj 313 207 ==;
#X obj 265 317 outlet;
#X obj 265 270 f;
#X obj 275 81 t a b;
#X obj 302 104 s \$0-init;
#X obj 315 255 r \$0-init;
#X msg 315 278 0;
#X obj 157 53 t b a;
#X connect 0 0 11 0;
#X connect 1 0 2 0;
#X connect 1 1 3 0;
#X connect 2 1 4 0;
#X connect 3 0 4 1;
#X connect 4 0 6 1;
#X connect 6 0 5 0;
#X connect 7 0 1 0;
#X connect 7 1 8 0;
#X connect 9 0 10 0;
#X connect 10 0 6 1;
#X connect 11 0 6 0;
#X connect 11 1 7 0;
