#N canvas 0 30 990 411 10;
#X obj 75 31 inlet;
#X obj 73 258 outlet;
#X obj 75 55 sgUnPack;
#X obj 50 132 list prepend (;
#X obj 50 155 list append );
#X obj 162 207 list prepend;
#X connect 0 0 2 0;
#X connect 2 0 3 0;
#X connect 2 2 5 1;
#X connect 3 0 4 0;
#X connect 4 0 5 0;
#X connect 5 0 1 0;
