#N canvas 0 30 846 854 10;
#X obj 67 25 inlet;
#X obj 30 256 outlet;
#X obj 124 71 list split 2;
#X obj 316 213 print -n;
#X obj 67 49 route bang;
#X obj 138 261 outlet;
#X obj 133 161 unpack s f;
#X obj 227 265 outlet;
#X obj 38 225 list;
#X obj 30 167 t b b b;
#X obj 226 237 symbol;
#X obj 139 234 f;
#X obj 53 115 t b a;
#X msg 394 135 sgUnPack: error: not a sgPack \, because length is <2
;
#X msg 246 172 sgUnPack: error: not a sgPack \, but "bang"!;
#X connect 0 0 4 0;
#X connect 2 0 12 0;
#X connect 2 1 8 1;
#X connect 2 2 13 0;
#X connect 4 0 14 0;
#X connect 4 1 2 0;
#X connect 6 0 10 1;
#X connect 6 1 11 1;
#X connect 8 0 1 0;
#X connect 9 0 8 0;
#X connect 9 1 11 0;
#X connect 9 2 10 0;
#X connect 10 0 7 0;
#X connect 11 0 5 0;
#X connect 12 0 9 0;
#X connect 12 1 6 0;
#X connect 13 0 3 0;
#X connect 14 0 3 0;
