#N canvas 0 473 798 411 10;
#X declare -path ./modules;
#X text 469 471 record and playback sgEvents in time;
#X text 343 40 basic:;
#X text 338 181 data:;
#X text 360 196 These form a hierarchy of structured messages;
#X text 340 451 sequencing:;
#X text 341 388 obj state:;
#X text 337 137 read/write array/text from/to files;
#X obj 369 87 sgMathDoc;
#X obj 368 111 sgRandomDoc;
#X obj 364 216 sgListDoc;
#X obj 364 243 sgSetDoc;
#X obj 364 273 sgPackDoc;
#X obj 364 300 sgDataDoc;
#X obj 364 328 sgEventDoc;
#X obj 366 155 sgIODoc;
#N canvas 0 30 942 854 basic 0;
#X obj 162 306 sgSig2F_ui~;
#X text 62 426 sgF_ui;
#X obj 73 497 sgF_ui;
#X floatatom 73 578 5 0 0 0 - - -;
#X floatatom 113 470 5 0 0 0 - - -;
#X floatatom 74 470 5 0 0 0 - - -;
#X obj 63 452 bng 15 250 50 0 empty empty empty 17 7 0 10 -262144 -1
-1;
#X floatatom 162 387 5 0 0 0 - - -;
#X obj 162 188 sgF2Sig_ui~;
#X obj 69 711 sgIn_ui~;
#X obj 135 711 sgOut_ui~;
#X text 16 193 sgF2Sig_ui~ [min max];
#X text 17 311 sgSig2F_ui~ [min max];
#X text 31 644 just for convenience:;
#X connect 0 0 7 0;
#X connect 2 0 3 0;
#X connect 4 0 2 1;
#X connect 5 0 2 0;
#X connect 6 0 2 0;
#X connect 8 0 0 0;
#X restore 376 584 pd basic;
#X obj 365 472 sgSequencingDoc;
#X text 344 555 gui elements;
#X obj 369 62 sgUtilsDoc;
#X obj 364 414 sgObjStateDoc;
#X text 339 501 signal;
#N canvas 0 30 942 854 signal 0;
#X obj 164 59 sgF2Sig~;
#X floatatom 156 25 5 0 0 0 - - -;
#X floatatom 167 144 5 0 0 0 - - -;
#X obj 167 120 sgSig2F~;
#X connect 0 0 3 0;
#X connect 1 0 0 0;
#X connect 3 0 2 0;
#X restore 374 530 pd signal;
#X text 461 413 standardized way for objects to maintain internal state
;
#X text 10 13 structuredData - Documentation;
#X obj 587 757 declare -path ./modules;
#X obj 49 63 sdUtils_doc;
#X obj 49 210 sdList_doc;
#X obj 49 277 sdPack_doc;
#X obj 48 303 sdData_doc;
#X obj 48 328 sdEvent_doc;
#X obj 48 413 sdObjState_doc;
#X text 29 37 basic:;
#X text 34 184 data:;
#X text 30 386 obj state:;
#X text 327 12 legacy abstractions:;
#X text 147 280 sdPackSetType;
#X text 136 337 just aliases:;
#X text 144 350 sdEventPop \, sdEventSerialize;
#X text 136 323 sdEventToMessage;
#X obj 49 440 sdObjState_example;
#X text 130 255 MISSING:;
