#N canvas 683 30 681 156 10;
#N canvas 0 30 681 722 example 1;
#X msg 114 113 clear;
#X obj 23 120 bng 15 250 50 0 empty empty empty 17 7 0 10 -262144 -1
-1;
#X text 61 31 accumulate sgPacks:;
#X msg 171 142 prepend packX 3 one two 3;
#X msg 170 114 append packX 3 one two 3;
#X msg 178 170 pop;
#X msg 223 170 popRev;
#X msg 361 133 serialize;
#X msg 361 156 serializeRev;
#X obj 134 317 print pop;
#X obj 205 319 print popRev;
#X obj 310 317 print serialize;
#X obj 421 320 print serializeRev;
#X obj 45 315 print bang;
#X msg 359 107 set pack 5 0 1 2 3 4;
#X msg 184 47 set pack1 1 1 pack2 1 2 pack3 1 3 \, filterAccept pack2
\, bang;
#X msg 180 74 set pack1 1 1 pack2 1 2 pack3 1 3 \, filterReject pack2
\, bang;
#X obj 558 245 sdPackFromHuman;
#X obj 297 242 sdSetSelector get;
#X floatatom 297 221 5 0 0 0 - - -;
#X msg 451 214 list pack1 ( bla ) pack2 ( blubb );
#X msg 360 189 list pack1 ( bla ) \, list pack2 ( blubb );
#X obj 495 296 print get;
#X obj 64 268 sdData bang pop popRev serialize serializeRev get count
, f 83;
#X obj 543 324 print count;
#X msg 247 238 count;
#X connect 0 0 23 0;
#X connect 1 0 23 0;
#X connect 3 0 23 0;
#X connect 4 0 23 0;
#X connect 5 0 23 0;
#X connect 6 0 23 0;
#X connect 7 0 23 0;
#X connect 8 0 23 0;
#X connect 14 0 23 0;
#X connect 15 0 23 0;
#X connect 16 0 23 0;
#X connect 17 0 23 1;
#X connect 18 0 23 0;
#X connect 19 0 18 0;
#X connect 20 0 17 0;
#X connect 21 0 17 0;
#X connect 23 0 13 0;
#X connect 23 1 9 0;
#X connect 23 2 10 0;
#X connect 23 3 11 0;
#X connect 23 4 12 0;
#X connect 23 5 22 0;
#X connect 23 6 24 0;
#X connect 25 0 23 0;
#X restore 225 65 pd example;
#X text 15 16 sgData is a sequence of sgPacks;
#X text 31 45 create by accumulating sgPacks:;
#X obj 57 69 sdData;
