#N canvas 683 30 681 156 10;
#X text 26 106 1 from a pack by adding "type" to its parameters:;
#X text 61 36 sdEvents have this kind of structure:;
#X text 72 55 <eventtype> ( <param1> ( ... ) <param2> ( ... ) ... )
;
#N canvas 0 30 681 722 create 0;
#X obj 70 140 sdEvent dosomething;
#X obj 125 116 sdPack param1;
#X msg 125 92 0;
#X obj 211 114 sdPack param2;
#X msg 211 90 1;
#X obj 71 68 t b b b;
#X obj 72 47 bng 15 250 50 0 empty empty empty 17 7 0 10 -262144 -1
-1;
#X text 348 139 init arg: event type;
#X msg 73 281 list 1 100 red;
#X obj 74 335 sdEvent dosomething time brightness color;
#X obj 74 358 print Event;
#X obj 74 310 unpack f f s;
#X msg 256 288 0;
#X obj 256 312 sdPack obscureParam;
#X text 400 343 additional init args create inlets for specific arguments
\, which are to be given as simple values, f 32;
#X obj 70 163 print Event;
#X connect 0 0 15 0;
#X connect 1 0 0 1;
#X connect 2 0 1 0;
#X connect 3 0 0 1;
#X connect 4 0 3 0;
#X connect 5 0 0 0;
#X connect 5 1 2 0;
#X connect 5 2 4 0;
#X connect 6 0 5 0;
#X connect 8 0 11 0;
#X connect 9 0 10 0;
#X connect 11 0 9 0;
#X connect 11 1 9 1;
#X connect 11 2 9 2;
#X connect 12 0 13 0;
#X connect 13 0 9 3;
#X restore 57 140 pd create events;
#N canvas 0 30 681 722 unpack 1;
#X obj 124 247 print color;
#X obj 89 270 print time;
#X obj 259 166 print eventType;
#X obj 159 218 print all_values;
#X text 81 292 if a value isn't found in the event \, nothing is output
at the corresponding outlet, f 39;
#X text 397 214 all argument packages;
#X obj 194 194 print othersParams;
#X obj 89 170 sdUnEvent time color all;
#X msg 84 63 list 1 100 red;
#X obj 85 117 sdEvent dosomething time brightness color;
#X obj 85 92 unpack f f s;
#X msg 399 58 list 1 100 red;
#X obj 400 112 sdEvent dosomething time brightness color;
#X obj 400 87 unpack f f s;
#X obj 400 193 print;
#X obj 451 193 print eventType;
#X obj 400 170 sdUnEvent;
#X connect 7 0 1 0;
#X connect 7 1 0 0;
#X connect 7 2 3 0;
#X connect 7 3 6 0;
#X connect 7 4 2 0;
#X connect 8 0 10 0;
#X connect 9 0 7 0;
#X connect 10 0 9 0;
#X connect 10 1 9 1;
#X connect 10 2 9 2;
#X connect 11 0 13 0;
#X connect 12 0 16 0;
#X connect 13 0 12 0;
#X connect 13 1 12 1;
#X connect 13 2 12 2;
#X connect 16 0 14 0;
#X connect 16 1 15 0;
#X restore 56 174 pd unpack events;
#N canvas 0 30 681 722 example: 0;
#X msg 84 49 list 1 100 red;
#X obj 85 103 sdEvent dosomething time brightness color;
#X obj 85 78 unpack f f s;
#X obj 89 156 sdUnEvent time;
#X obj 89 222 sdEvent new_event time;
#X obj 89 195 / 100;
#X obj 89 245 print new event;
#X text 131 173 other;
#X text 89 174 time;
#X text 176 169 event type;
#X connect 0 0 2 0;
#X connect 1 0 3 0;
#X connect 2 0 1 0;
#X connect 2 1 1 1;
#X connect 2 2 1 2;
#X connect 3 0 5 0;
#X connect 3 1 4 1;
#X connect 3 2 4 2;
#X connect 4 0 6 0;
#X connect 5 0 4 0;
#X restore 57 208 pd example: change specific param;
#N canvas 0 30 681 722 add 0;
#X msg 84 63 list 1 100 red;
#X obj 85 117 sdEvent dosomething time brightness color;
#X obj 85 92 unpack f f s;
#X msg 172 195 list volume 1 0.5;
#X obj 172 172 loadbang;
#X obj 85 218 sdEventAddParam;
#X obj 85 241 print +volume;
#X msg 91 413 list 1 100 red;
#X obj 92 467 sdEvent dosomething time brightness color;
#X obj 92 442 unpack f f s;
#X obj 133 536 sdUnEvent;
#X text 324 219 <- deprecated. use [sdEvent];
#X obj 92 491 t b a;
#X obj 93 539 f 0.5;
#X obj 90 596 print +volume;
#X obj 90 573 sdEvent newEvent volume;
#X connect 0 0 2 0;
#X connect 1 0 5 0;
#X connect 2 0 1 0;
#X connect 2 1 1 1;
#X connect 2 2 1 2;
#X connect 3 0 5 1;
#X connect 4 0 3 0;
#X connect 5 0 6 0;
#X connect 7 0 9 0;
#X connect 8 0 12 0;
#X connect 9 0 8 0;
#X connect 9 1 8 1;
#X connect 9 2 8 2;
#X connect 10 0 15 1;
#X connect 12 0 13 0;
#X connect 12 1 10 0;
#X connect 13 0 15 0;
#X connect 15 0 14 0;
#X restore 56 245 pd add param;
#N canvas 0 30 681 722 event 0;
#X msg 73 281 list 1 100 red;
#X obj 74 310 unpack f f s;
#X obj 74 397 sdEventToProperties;
#X obj 75 452 print selector;
#X obj 105 423 print toProperties;
#X obj 74 335 sdEvent play time brightness color;
#X connect 0 0 1 0;
#X connect 1 0 5 0;
#X connect 1 1 5 1;
#X connect 1 2 5 2;
#X connect 2 0 3 0;
#X connect 2 1 4 0;
#X connect 5 0 2 0;
#X restore 57 281 pd event to properties;
