#N canvas 0 30 844 722 10;
#X obj 63 107 bng 15 250 50 0 empty empty empty 17 7 0 10 -262144 -1
-1;
#X obj 142 382 print;
#X msg 130 104 clear;
#X msg 114 76 prepend x y z;
#X msg 607 152 serialize;
#X msg 571 106 pop;
#X msg 87 14 list a b \, list c \, 3;
#X msg 613 106 popRev;
#X msg 679 152 serializeRev;
#X msg 681 220 get \$1;
#X floatatom 681 198 5 0 0 0 - - -;
#X msg 99 47 append 4 5 6;
#X msg 664 338 list bla bla;
#X text 550 83 output operations;
#X text 554 305 shortcut for "append ...";
#X obj 202 564 print pop;
#X msg 155 146 setAdd 1 2 3 2 1;
#X msg 169 181 equal a b c 3;
#X obj 323 515 print serialize;
#X obj 443 467 print get;
#X obj 383 492 print serializeRev;
#X obj 262 539 print popRev;
#X msg 308 671 list a b c;
#X msg 170 628 list a b c;
#X obj 255 731 print;
#X obj 255 708 sdListEqual;
#X msg 404 671 list 1 2 3;
#X msg 208 654 list 1 2 3;
#X obj 504 441 print find;
#X msg 184 216 set a b x b c \, find b c;
#X obj 527 413 print findAll;
#X obj 578 388 print equal;
#X msg 193 245 set a b c b a \, findAll b;
#X msg 202 276 findAll;
#X msg 259 275 find;
#X msg 257 107 count;
#X obj 142 358 sdList bang pop popRev serialize serializeRev get find
findAll equal count, f 81;
#X obj 638 424 print count;
#X connect 0 0 36 0;
#X connect 2 0 36 0;
#X connect 3 0 36 0;
#X connect 4 0 36 0;
#X connect 5 0 36 0;
#X connect 6 0 36 0;
#X connect 7 0 36 0;
#X connect 8 0 36 0;
#X connect 9 0 36 0;
#X connect 10 0 9 0;
#X connect 11 0 36 0;
#X connect 12 0 36 1;
#X connect 16 0 36 0;
#X connect 17 0 36 0;
#X connect 22 0 25 1;
#X connect 23 0 25 0;
#X connect 25 0 24 0;
#X connect 26 0 25 1;
#X connect 27 0 25 0;
#X connect 29 0 36 0;
#X connect 32 0 36 0;
#X connect 33 0 36 0;
#X connect 34 0 36 0;
#X connect 35 0 36 0;
#X connect 36 0 1 0;
#X connect 36 1 15 0;
#X connect 36 2 21 0;
#X connect 36 3 18 0;
#X connect 36 4 20 0;
#X connect 36 5 19 0;
#X connect 36 6 28 0;
#X connect 36 7 30 0;
#X connect 36 8 31 0;
#X connect 36 9 37 0;
