#N canvas 0 0 798 854 10;
#X text 288 350 lets define a receiver to track the instruments state
, f 35;
#X obj 596 10 loadbang;
#X obj 596 56 s \$0-GLOBAL;
#X msg 596 33 list init 0;
#X text 288 585 ...or an object which does both;
#X obj 290 517 sdObjSndExample \$0-sender \$0-CONN \$0-GLOBAL;
#X obj 291 408 sdObjRcvExample \$0-receiver \$0-CONN \$0-GLOBAL;
#X obj 293 625 sdObjDuplexExample \$0-dupl \$0-CONN \$0-GLOBAL;
#X obj 8 684 print GUI.out;
#X obj 137 687 print genericObj.out;
#X text 297 110 now you can:;
#X text 318 126 read or write the objects properties;
#X text 318 140 send messages to the object;
#X text 298 93 3 select an object;
#X text 298 76 2 select a group;
#X text 298 19 1 init GUI:;
#N canvas 0 0 942 854 control 0;
#X obj 91 169 sdPackFromHuman;
#X obj 91 192 send GUI;
#X msg 91 146 list set ( destIndex ( \$1 ) );
#X floatatom 91 124 5 0 0 0 - - - 0;
#X floatatom 59 73 5 0 0 0 - - - 0;
#X msg 59 95 list set ( groupIndex ( \$1 ) );
#X floatatom 194 171 5 0 0 0 - - - 0;
#X obj 194 193 pack;
#X floatatom 230 172 5 0 0 0 - - - 0;
#X msg 194 216 list set_num_by_ind ( \$2 \$1 );
#X text 196 238 (generically set properties);
#X floatatom 106 264 5 0 0 0 - - - 0;
#X obj 106 286 pack;
#X floatatom 142 265 5 0 0 0 - - - 0;
#X msg 106 310 list set_num_by_ind_in_range ( \$2 \$1 );
#X text 65 46 control GUI by sending messages;
#X floatatom 349 38 5 0 0 0 - - - 0;
#X obj 320 61 f;
#X msg 308 94 list send_event_by_ind ( \$1 );
#X obj 306 33 bng 15 250 50 0 empty empty empty 17 7 0 10 #fcfcfc #000000
#000000;
#X text 405 37 send event by index;
#X floatatom 448 148 5 0 0 0 - - - 0;
#X floatatom 484 149 5 0 0 0 - - - 0;
#X obj 448 170 pack 0 0;
#X msg 448 194 list set_bool_by_ind ( \$2 \$1 );
#X text 445 219 (generically set boolean properties);
#X text 355 308 (generically set properties from [0..1]);
#X floatatom 500 76 5 0 0 0 - - - 0;
#X msg 500 98 list set ( numShift ( \$1 ) );
#X connect 0 0 1 0;
#X connect 2 0 0 0;
#X connect 3 0 2 0;
#X connect 4 0 5 0;
#X connect 5 0 0 0;
#X connect 6 0 7 0;
#X connect 7 0 9 0;
#X connect 8 0 7 1;
#X connect 9 0 0 0;
#X connect 11 0 12 0;
#X connect 12 0 14 0;
#X connect 13 0 12 1;
#X connect 14 0 0 0;
#X connect 16 0 17 1;
#X connect 17 0 18 0;
#X connect 18 0 0 0;
#X connect 19 0 17 0;
#X connect 21 0 23 0;
#X connect 22 0 23 1;
#X connect 23 0 24 0;
#X connect 24 0 0 0;
#X connect 27 0 28 0;
#X connect 28 0 0 0;
#X restore 311 164 pd control gui;
#N canvas 0 0 798 854 other 0;
#X obj 55 117 sdPackFromHuman;
#X msg 55 94 list set ( dest ( \$1 ) );
#X msg 55 48 symbol %0-weirdInstrument;
#X obj 55 71 sdReplace \$0;
#X obj 56 193 print;
#X msg 512 332 load;
#X msg 475 331 save;
#X text 50 252 (same api as gui);
#X msg 506 597 save_hd;
#X msg 575 612 set filename ../save.save;
#X obj 575 588 loadbang;
#X msg 476 573 load_hd;
#X obj 508 357 sdObjSaveAll \$0-INSTR;
#X msg 554 328 get state;
#X obj 534 638 sdObjSaveAllToDisk \$0-INSTR;
#X text 446 270 remember the state of some group of objects in RAM
;
#X text 448 487 remember the state of some group of objects in a FILE:
;
#X obj 150 200 print fromDest.generic;
#X obj 309 200 print fromDest;
#X msg 661 291 set dest %0-CONN;
#X msg 675 312 set dest %0-INSTR;
#X obj 658 332 sdReplace \$0;
#X obj 508 426 print state-in-RAM;
#X obj 508 380 route state;
#X obj 508 403 list;
#X text 449 505 NOTICE: This is only reliable \, if the object names
don't contain \$0 symbols.;
#N canvas 0 0 798 854 set 0;
#X floatatom 104 112 5 0 0 0 - - - 0;
#X obj 104 152 pack;
#X floatatom 660 48 5 0 0 0 - - - 0;
#X msg 104 175 list set_num_by_ind_in_range ( \$2 \$1 );
#X floatatom 398 200 5 0 0 0 - - - 0;
#X obj 355 222 f;
#X msg 355 247 list send_event_by_ind ( \$1 );
#X obj 355 200 bng 15 250 50 0 empty empty empty 17 7 0 10 #fcfcfc
#000000 #000000;
#X text 424 227 send event by index;
#X floatatom 359 147 5 0 0 0 - - - 0;
#X msg 359 169 list get_num_by_ind ( \$1 );
#X text 699 50 prop;
#X text 139 111 val;
#X floatatom 603 222 5 0 0 0 - - - 0;
#X obj 598 262 pack;
#X msg 598 285 list set_num_by_ind_from_ctrl ( \$2 \$1 );
#X text 637 217 ctrl val;
#X obj 601 149 vsl 15 64 0 1 0 0 empty empty empty 0 -9 0 10 #fcfcfc
#000000 #000000 0 1;
#X msg 601 125 0;
#X text 642 167 avoid jumps...;
#X msg 593 372 list set ctrl_res ( \$1 );
#X msg 680 325 0.05;
#X floatatom 598 348 5 0 0 0 - - - 0;
#X msg 643 326 0.1;
#X msg 717 324 0.01;
#X obj 102 371 sdPackFromHuman;
#X obj 102 395 outlet;
#X obj 104 40 vsl 15 64 0 1 0 0 empty empty empty 0 -9 0 10 #fcfcfc
#000000 #000000 0 1;
#X text 754 313 default: 0.05 Reminder: 1/128 = 0.0078;
#X connect 0 0 1 0;
#X connect 1 0 3 0;
#X connect 2 0 1 1;
#X connect 2 0 14 1;
#X connect 3 0 25 0;
#X connect 4 0 5 1;
#X connect 5 0 6 0;
#X connect 6 0 25 0;
#X connect 7 0 5 0;
#X connect 9 0 10 0;
#X connect 10 0 25 0;
#X connect 13 0 14 0;
#X connect 14 0 15 0;
#X connect 15 0 25 0;
#X connect 17 0 13 0;
#X connect 18 0 17 0;
#X connect 20 0 25 0;
#X connect 21 0 22 0;
#X connect 22 0 20 0;
#X connect 23 0 22 0;
#X connect 24 0 22 0;
#X connect 25 0 26 0;
#X connect 27 0 0 0;
#X coords 0 854 1 853 200 60 0;
#X restore 305 53 pd set values;
#X text 315 95 creation arguments: name [init_rcv dest humble];
#X msg 310 23 list init 0;
#X obj 56 140 sdObjInterface_obj objIF \$0-GLOBAL \$0-weirdInstrument
;
#X msg 495 54 list set ( dest ( ) );
#N canvas 0 0 942 854 debug 0;
#X obj 168 104 tgl 15 0 empty empty empty 17 7 0 10 #fcfcfc #000000
#000000 0 1;
#X obj 27 20 inlet;
#X obj 68 146 sdGate;
#X obj 68 169 outlet;
#X connect 0 0 2 1;
#X connect 1 0 2 0;
#X connect 2 0 3 0;
#X coords 0 -1 1 1 85 20 1 100 100;
#X restore 56 165 pd debug;
#N canvas 0 0 942 854 debug 0;
#X obj 168 104 tgl 15 0 empty empty empty 17 7 0 10 #fcfcfc #000000
#000000 0 1;
#X obj 27 20 inlet;
#X obj 68 146 sdGate;
#X obj 68 169 outlet;
#X connect 0 0 2 1;
#X connect 1 0 2 0;
#X connect 2 0 3 0;
#X coords 0 -1 1 1 85 20 1 100 100;
#X restore 150 175 pd debug;
#N canvas 0 0 942 854 debug 0;
#X obj 168 104 tgl 15 0 empty empty empty 17 7 0 10 #fcfcfc #000000
#000000 0 1;
#X obj 27 20 inlet;
#X obj 68 146 sdGate;
#X obj 68 169 outlet;
#X connect 0 0 2 1;
#X connect 1 0 2 0;
#X connect 2 0 3 0;
#X coords 0 -1 1 1 85 20 1 100 100;
#X restore 309 175 pd debug;
#X obj 53 371 sdObjGroupsInterface_obj objGroupIF \$0-initGroup \$0-INSTR
;
#X msg 80 340 list init 0;
#X obj 58 452 print;
#X obj 152 459 print fromDest.generic;
#X obj 311 459 print fromDest;
#N canvas 0 0 942 854 debug 0;
#X obj 168 104 tgl 15 0 empty empty empty 17 7 0 10 #fcfcfc #000000
#000000 0 1;
#X obj 27 20 inlet;
#X obj 68 146 sdGate;
#X obj 68 169 outlet;
#X connect 0 0 2 1;
#X connect 1 0 2 0;
#X connect 2 0 3 0;
#X coords 0 -1 1 1 85 20 1 100 100;
#X restore 58 424 pd debug;
#N canvas 0 0 942 854 debug 0;
#X obj 168 104 tgl 15 0 empty empty empty 17 7 0 10 #fcfcfc #000000
#000000 0 1;
#X obj 27 20 inlet;
#X obj 68 146 sdGate;
#X obj 68 169 outlet;
#X connect 0 0 2 1;
#X connect 1 0 2 0;
#X connect 2 0 3 0;
#X coords 0 -1 1 1 85 20 1 100 100;
#X restore 152 434 pd debug;
#N canvas 0 0 942 854 debug 0;
#X obj 168 104 tgl 15 0 empty empty empty 17 7 0 10 #fcfcfc #000000
#000000 0 1;
#X obj 27 20 inlet;
#X obj 68 146 sdGate;
#X obj 68 169 outlet;
#X connect 0 0 2 1;
#X connect 1 0 2 0;
#X connect 2 0 3 0;
#X coords 0 -1 1 1 85 20 1 100 100;
#X restore 311 434 pd debug;
#X text 484 30 empty dest disables object;
#X connect 0 0 29 0;
#X connect 1 0 0 0;
#X connect 2 0 3 0;
#X connect 3 0 1 0;
#X connect 5 0 12 0;
#X connect 6 0 12 0;
#X connect 8 0 14 0;
#X connect 9 0 14 0;
#X connect 10 0 9 0;
#X connect 11 0 14 0;
#X connect 12 0 23 0;
#X connect 13 0 12 0;
#X connect 19 0 21 0;
#X connect 20 0 21 0;
#X connect 21 0 12 0;
#X connect 23 0 24 0;
#X connect 24 0 22 0;
#X connect 26 0 29 0;
#X connect 28 0 29 0;
#X connect 29 0 31 0;
#X connect 29 1 32 0;
#X connect 29 2 33 0;
#X connect 30 0 0 0;
#X connect 31 0 4 0;
#X connect 32 0 17 0;
#X connect 33 0 18 0;
#X connect 34 0 39 0;
#X connect 34 1 40 0;
#X connect 34 2 41 0;
#X connect 35 0 34 0;
#X connect 39 0 36 0;
#X connect 40 0 37 0;
#X connect 41 0 38 0;
#X restore 311 190 pd other generic tools;
#X text 289 476 ...and a sender to manipulate the instruments state
;
#X obj 289 226 sdObjExample \$0-obscureInstrument \$0-INSTR \$0-GLOBAL
, f 33;
#X obj 289 265 sdObjExample \$0-weirdInstrument \$0-INSTR \$0-GLOBAL
, f 33;
#N canvas 0 30 762 722 dest 0;
#X obj 146 103 hradio 13 1 0 2 empty empty empty 0 -8 0 10 #fcfcfc
#000000 #000000 0;
#X obj 104 234 sdReplace \$0;
#X msg 104 191 raw set dest %0-obscureInstrument;
#X msg 119 212 raw set dest %0-weirdInstrument;
#X obj 101 165 route 0 1;
#X obj 104 257 outlet;
#X obj 147 52 r \$0-GLOBAL;
#X obj 147 75 t b;
#X connect 0 0 4 0;
#X connect 1 0 5 0;
#X connect 2 0 1 0;
#X connect 3 0 1 0;
#X connect 4 0 2 0;
#X connect 4 1 3 0;
#X connect 6 0 7 0;
#X connect 7 0 0 0;
#X coords 0 -1 1 1 75 19 1 100 100;
#X restore 291 384 pd dest;
#N canvas 0 30 762 722 dest 0;
#X obj 146 103 hradio 13 1 0 2 empty empty empty 0 -8 0 10 #fcfcfc
#000000 #000000 0;
#X obj 104 234 sdReplace \$0;
#X msg 104 191 raw set dest %0-obscureInstrument;
#X msg 119 212 raw set dest %0-weirdInstrument;
#X obj 101 165 route 0 1;
#X obj 104 257 outlet;
#X obj 146 53 r \$0-GLOBAL;
#X obj 146 75 t b;
#X connect 0 0 4 0;
#X connect 1 0 5 0;
#X connect 2 0 1 0;
#X connect 3 0 1 0;
#X connect 4 0 2 0;
#X connect 4 1 3 0;
#X connect 6 0 7 0;
#X connect 7 0 0 0;
#X coords 0 -1 1 1 75 19 1 100 100;
#X restore 290 494 pd dest;
#N canvas 0 30 762 722 dest 0;
#X obj 146 103 hradio 13 1 0 2 empty empty empty 0 -8 0 10 #fcfcfc
#000000 #000000 0;
#X obj 104 234 sdReplace \$0;
#X msg 104 191 raw set dest %0-obscureInstrument;
#X msg 119 212 raw set dest %0-weirdInstrument;
#X obj 101 165 route 0 1;
#X obj 104 257 outlet;
#X obj 146 52 r \$0-GLOBAL;
#X obj 146 75 t b;
#X connect 0 0 4 0;
#X connect 1 0 5 0;
#X connect 2 0 1 0;
#X connect 3 0 1 0;
#X connect 4 0 2 0;
#X connect 4 1 3 0;
#X connect 6 0 7 0;
#X connect 7 0 0 0;
#X coords 0 -1 1 1 75 19 1 100 100;
#X restore 293 602 pd dest;
#X obj 311 38 bng 15 250 50 0 empty empty empty 17 7 0 10 #fcfcfc #000000
#000000;
#N canvas 0 0 798 854 init 0;
#X obj 29 18 inlet;
#X obj 29 169 sdReplace \$0;
#X obj 29 192 sdPackFromHuman;
#X obj 29 215 s GUI;
#X obj 29 41 t b b;
#X text 79 50 (we are not using init (which sets "groups" from init
args));
#X msg 29 145 list init ( groups ( %0-INSTR %0-CONN ) );
#X msg 343 209 list init ( );
#X text 285 146 (init and set groups);
#X text 440 213 (init \, and take groups from obj creation args);
#X msg 96 107 list init ( groups ( %0-INSTR %0-CONN gbla ) );
#X msg 253 78 list init ( groups ( %0-INSTR ) );
#X connect 0 0 4 0;
#X connect 1 0 2 0;
#X connect 2 0 3 0;
#X connect 4 0 6 0;
#X connect 6 0 1 0;
#X connect 7 0 1 0;
#X connect 10 0 1 0;
#X connect 11 0 1 0;
#X restore 311 57 pd init gui;
#X obj 289 307 sdObjExampleManyProps \$0-manyProps \$0-GLOBAL \$0-INSTR
, f 33;
#X text 553 114 protected fields can only be set by disabling "humble"
mode, f 21;
#X obj 7 25 sdGui_ui GUI \$0-GUI-INIT \$0-INSTR;
#N canvas 0 0 942 854 debug 0;
#X obj 168 104 tgl 15 0 empty empty empty 17 7 0 10 #fcfcfc #000000
#000000 0 1;
#X obj 27 20 inlet;
#X obj 68 146 sdGate;
#X obj 68 169 outlet;
#X connect 0 0 2 1;
#X connect 1 0 2 0;
#X connect 2 0 3 0;
#X coords 0 -1 1 1 85 20 1 100 100;
#X restore 7 659 pd debug;
#N canvas 0 0 942 854 debug 0;
#X obj 168 104 tgl 15 0 empty empty empty 17 7 0 10 #fcfcfc #000000
#000000 0 1;
#X obj 27 20 inlet;
#X obj 68 146 sdGate;
#X obj 68 169 outlet;
#X connect 0 0 2 1;
#X connect 1 0 2 0;
#X connect 2 0 3 0;
#X coords 0 -1 1 1 85 20 1 100 100;
#X restore 130 661 pd debug;
#X connect 1 0 3 0;
#X connect 3 0 2 0;
#X connect 21 0 6 0;
#X connect 22 0 5 0;
#X connect 23 0 7 0;
#X connect 24 0 25 0;
#X connect 28 0 29 0;
#X connect 28 1 30 0;
#X connect 29 0 8 0;
#X connect 30 0 9 0;
