#N canvas 0 30 762 722 10;
#X text 288 350 lets define a receiver to track the instruments state
, f 35;
#X obj 596 10 loadbang;
#X obj 596 56 s \$0-GLOBAL;
#X msg 596 33 list init 0;
#X text 288 585 ...or an object which does both;
#X obj 290 517 sdObjSndExample \$0-sender \$0-CONN \$0-GLOBAL;
#X obj 291 408 sdObjRcvExample \$0-receiver \$0-CONN \$0-GLOBAL;
#X obj 293 625 sdObjDuplexExample \$0-dupl \$0-CONN \$0-GLOBAL;
#X obj 7 682 print GUI.out;
#X obj 156 681 print genericObj.out;
#X text 297 110 now you can:;
#X text 318 126 read or write the objects properties;
#X text 318 140 send messages to the object;
#X text 298 93 3 select an object;
#X text 298 76 2 select a group;
#X text 298 19 1 init GUI:;
#N canvas 0 30 681 722 control 0;
#X obj 91 169 sdPackFromHuman;
#X obj 91 192 send GUI;
#X msg 91 146 list set ( destIndex ( \$1 ) );
#X floatatom 91 124 5 0 0 0 - - -;
#X floatatom 59 73 5 0 0 0 - - -;
#X msg 59 95 list set ( groupIndex ( \$1 ) );
#X floatatom 194 171 5 0 0 0 - - -;
#X obj 194 193 pack;
#X floatatom 230 172 5 0 0 0 - - -;
#X msg 194 216 list set_num_by_ind ( \$2 \$1 );
#X text 196 238 (generically set properties);
#X floatatom 106 264 5 0 0 0 - - -;
#X obj 106 286 pack;
#X floatatom 142 265 5 0 0 0 - - -;
#X msg 106 310 list set_num_by_ind_in_range ( \$2 \$1 );
#X text 65 46 control GUI by sending messages;
#X floatatom 349 38 5 0 0 0 - - -;
#X obj 320 61 f;
#X msg 308 94 list send_event_by_ind ( \$1 );
#X obj 306 33 bng 15 250 50 0 empty empty empty 17 7 0 10 -262144 -1
-1;
#X text 405 37 send event by index;
#X floatatom 448 148 5 0 0 0 - - -;
#X floatatom 484 149 5 0 0 0 - - -;
#X obj 448 170 pack 0 0;
#X msg 448 194 list set_bool_by_ind ( \$2 \$1 );
#X text 445 219 (generically set boolean properties);
#X text 355 308 (generically set properties from [0..1]);
#X floatatom 500 76 5 0 0 0 - - -;
#X msg 500 98 list set ( numShift ( \$1 ) );
#X connect 0 0 1 0;
#X connect 2 0 0 0;
#X connect 3 0 2 0;
#X connect 4 0 5 0;
#X connect 5 0 0 0;
#X connect 6 0 7 0;
#X connect 7 0 9 0;
#X connect 8 0 7 1;
#X connect 9 0 0 0;
#X connect 11 0 12 0;
#X connect 12 0 14 0;
#X connect 13 0 12 1;
#X connect 14 0 0 0;
#X connect 16 0 17 1;
#X connect 17 0 18 0;
#X connect 18 0 0 0;
#X connect 19 0 17 0;
#X connect 21 0 23 0;
#X connect 22 0 23 1;
#X connect 23 0 24 0;
#X connect 24 0 0 0;
#X connect 27 0 28 0;
#X connect 28 0 0 0;
#X restore 311 164 pd control gui;
#N canvas 0 30 681 722 other 0;
#X obj 55 117 sdPackFromHuman;
#X msg 55 94 list set ( dest ( \$1 ) );
#X msg 55 48 symbol %0-weirdInstrument;
#X obj 55 71 sdReplace \$0;
#X floatatom 241 50 5 0 0 0 - - -;
#X obj 241 72 pack;
#X floatatom 277 51 5 0 0 0 - - -;
#X msg 241 95 list set_num_by_ind_in_range ( \$2 \$1 );
#X obj 56 163 print;
#X msg 382 305 load;
#X msg 345 304 save;
#X floatatom 73 207 5 0 0 0 - - -;
#X obj 44 230 f;
#X msg 32 263 list send_event_by_ind ( \$1 );
#X obj 30 202 bng 15 250 50 0 empty empty empty 17 7 0 10 -262144 -1
-1;
#X text 99 229 send event by index;
#X text 546 140 (same api as gui);
#X msg 376 570 save_hd;
#X msg 445 585 set filename ../save.save;
#X obj 445 561 loadbang;
#X msg 346 546 load_hd;
#X obj 378 330 sdObjSaveAll \$0-INSTR;
#X msg 424 301 get state;
#X obj 404 611 sdObjSaveAllToDisk \$0-INSTR;
#X text 316 243 remember the state of some group of objects in RAM
;
#X text 318 460 remember the state of some group of objects in a FILE:
;
#X obj 150 200 print fromDest.generic;
#X obj 244 166 print fromDest;
#X msg 531 264 set dest %0-CONN;
#X msg 545 285 set dest %0-INSTR;
#X obj 528 305 sdReplace \$0;
#X obj 378 399 print state-in-RAM;
#X obj 378 353 route state;
#X obj 378 376 list;
#X obj 322 142 sdObjGroupsInterface_obj objGroupIF;
#X text 319 478 NOTICE: This is only reliable \, if the object names
don't contain \$0 symbols.;
#X obj 56 140 sdObjInterface_obj objIF, f 32;
#X connect 0 0 36 0;
#X connect 1 0 0 0;
#X connect 2 0 3 0;
#X connect 3 0 1 0;
#X connect 4 0 5 0;
#X connect 5 0 7 0;
#X connect 6 0 5 1;
#X connect 7 0 0 0;
#X connect 9 0 21 0;
#X connect 10 0 21 0;
#X connect 11 0 12 1;
#X connect 12 0 13 0;
#X connect 13 0 0 0;
#X connect 14 0 12 0;
#X connect 17 0 23 0;
#X connect 18 0 23 0;
#X connect 19 0 18 0;
#X connect 20 0 23 0;
#X connect 21 0 32 0;
#X connect 22 0 21 0;
#X connect 28 0 30 0;
#X connect 29 0 30 0;
#X connect 30 0 21 0;
#X connect 32 0 33 0;
#X connect 33 0 31 0;
#X connect 36 0 8 0;
#X connect 36 1 26 0;
#X connect 36 2 27 0;
#X restore 311 190 pd other generic tools;
#X text 289 476 ...and a sender to manipulate the instruments state
;
#X obj 289 226 sdObjExample \$0-obscureInstrument \$0-INSTR \$0-GLOBAL
, f 33;
#X obj 289 265 sdObjExample \$0-weirdInstrument \$0-INSTR \$0-GLOBAL
, f 33;
#X obj 7 660 spigot;
#X obj 52 660 tgl 15 0 empty empty empty 17 7 0 10 -262144 -1 -1 0
1;
#X obj 156 659 spigot;
#X obj 201 659 tgl 15 0 empty empty empty 17 7 0 10 -262144 -1 -1 0
1;
#N canvas 0 30 762 722 dest 0;
#X obj 146 103 hradio 13 1 0 2 empty empty empty 0 -8 0 10 -262144
-1 -1 0;
#X obj 104 234 sdReplace \$0;
#X msg 104 191 raw set dest %0-obscureInstrument;
#X msg 119 212 raw set dest %0-weirdInstrument;
#X obj 101 165 route 0 1;
#X obj 104 257 outlet;
#X obj 147 52 r \$0-GLOBAL;
#X obj 147 75 t b;
#X connect 0 0 4 0;
#X connect 1 0 5 0;
#X connect 2 0 1 0;
#X connect 3 0 1 0;
#X connect 4 0 2 0;
#X connect 4 1 3 0;
#X connect 6 0 7 0;
#X connect 7 0 0 0;
#X coords 0 -1 1 1 75 19 1 100 100;
#X restore 291 384 pd dest;
#N canvas 0 30 762 722 dest 0;
#X obj 146 103 hradio 13 1 0 2 empty empty empty 0 -8 0 10 -262144
-1 -1 0;
#X obj 104 234 sdReplace \$0;
#X msg 104 191 raw set dest %0-obscureInstrument;
#X msg 119 212 raw set dest %0-weirdInstrument;
#X obj 101 165 route 0 1;
#X obj 104 257 outlet;
#X obj 146 53 r \$0-GLOBAL;
#X obj 146 75 t b;
#X connect 0 0 4 0;
#X connect 1 0 5 0;
#X connect 2 0 1 0;
#X connect 3 0 1 0;
#X connect 4 0 2 0;
#X connect 4 1 3 0;
#X connect 6 0 7 0;
#X connect 7 0 0 0;
#X coords 0 -1 1 1 75 19 1 100 100;
#X restore 290 494 pd dest;
#N canvas 0 30 762 722 dest 0;
#X obj 146 103 hradio 13 1 0 2 empty empty empty 0 -8 0 10 -262144
-1 -1 0;
#X obj 104 234 sdReplace \$0;
#X msg 104 191 raw set dest %0-obscureInstrument;
#X msg 119 212 raw set dest %0-weirdInstrument;
#X obj 101 165 route 0 1;
#X obj 104 257 outlet;
#X obj 146 52 r \$0-GLOBAL;
#X obj 146 75 t b;
#X connect 0 0 4 0;
#X connect 1 0 5 0;
#X connect 2 0 1 0;
#X connect 3 0 1 0;
#X connect 4 0 2 0;
#X connect 4 1 3 0;
#X connect 6 0 7 0;
#X connect 7 0 0 0;
#X coords 0 -1 1 1 75 19 1 100 100;
#X restore 293 602 pd dest;
#X obj 311 38 bng 15 250 50 0 empty empty empty 17 7 0 10 -262144 -1
-1;
#N canvas 0 30 681 722 init 0;
#X obj 29 18 inlet;
#X msg 29 146 list set ( groups ( %0-INSTR %0-CONN ) );
#X obj 29 169 sdReplace \$0;
#X obj 29 192 sdPackFromHuman;
#X obj 29 215 s GUI;
#X obj 29 41 t b b;
#X msg 79 76 list init 0;
#X obj 79 99 s \$0-GUI-INIT;
#X text 284 145 (set groups);
#X text 79 50 (we are not using init (which sets "groups" from init
args));
#X connect 0 0 5 0;
#X connect 1 0 2 0;
#X connect 2 0 3 0;
#X connect 3 0 4 0;
#X connect 5 0 1 0;
#X connect 6 0 7 0;
#X restore 311 57 pd init gui;
#X obj 289 307 sdObjExampleManyProps \$0-manyProps \$0-GLOBAL \$0-INSTR
, f 33;
#X obj 7 25 sdGui_ui GUI \$0-GUI-INIT;
#X connect 1 0 3 0;
#X connect 3 0 2 0;
#X connect 21 0 8 0;
#X connect 22 0 21 1;
#X connect 23 0 9 0;
#X connect 24 0 23 1;
#X connect 25 0 6 0;
#X connect 26 0 5 0;
#X connect 27 0 7 0;
#X connect 28 0 29 0;
#X connect 31 0 21 0;
#X connect 31 1 23 0;
