#N canvas 0 30 681 722 10;
#X obj 358 303 sdReplace \$0;
#X msg 358 260 raw set dest %0-obscureInstrument;
#X obj 374 460 sdReplace \$0;
#X msg 373 414 raw set dest %0-obscureInstrument;
#X msg 386 437 raw set dest %0-weirdInstrument;
#X msg 373 281 raw set dest %0-weirdInstrument;
#X text 331 229 lets define a receiver to track the instruments state
, f 35;
#X obj 532 24 loadbang;
#X obj 532 70 s \$0-GLOBAL;
#X msg 532 47 list init 0;
#X obj 376 625 sdReplace \$0;
#X msg 375 579 raw set dest %0-obscureInstrument;
#X msg 388 602 raw set dest %0-weirdInstrument;
#X text 320 550 ...or an object which does both;
#X obj 31 580 sdObjExample \$0-obscureInstrument \$0-INSTR \$0-GLOBAL
;
#X obj 31 646 sdObjExample \$0-weirdInstrument \$0-INSTR \$0-GLOBAL
;
#X obj 374 483 sdObjSndExample \$0-sender \$0-CONN \$0-GLOBAL;
#X obj 348 326 sdObjRcvExample \$0-receiver \$0-CONN \$0-GLOBAL;
#X obj 362 653 sdObjDuplexExample \$0-dupl \$0-CONN \$0-GLOBAL;
#X obj 7 525 print GUI.out;
#X obj 156 524 print genericObj.out;
#X obj 7 25 sdObjState_ui GUI \$0-GUI-INIT \$0-INSTR \$0-CONN;
#X msg 343 40 list init 0;
#X obj 343 63 s \$0-GUI-INIT;
#X text 327 120 now you can:;
#X text 348 141 read or write the objects properties;
#X text 348 159 send messages to the object;
#X text 328 103 3 select an object;
#X text 328 86 2 select a group;
#X text 328 19 1 init GUI:;
#N canvas 0 30 681 722 control 0;
#X obj 91 169 sdPackFromHuman;
#X obj 91 192 send GUI;
#X msg 91 146 list set ( destIndex ( \$1 ) );
#X floatatom 91 124 5 0 0 0 - - -;
#X floatatom 59 73 5 0 0 0 - - -;
#X msg 59 95 list set ( groupIndex ( \$1 ) );
#X floatatom 194 171 5 0 0 0 - - -;
#X obj 194 193 pack;
#X floatatom 230 172 5 0 0 0 - - -;
#X msg 194 216 list set_num_by_ind ( \$2 \$1 );
#X text 196 238 (generically set properties);
#X floatatom 106 264 5 0 0 0 - - -;
#X obj 106 286 pack;
#X floatatom 142 265 5 0 0 0 - - -;
#X msg 106 310 list set_num_by_ind_in_range ( \$2 \$1 );
#X text 65 46 control GUI by sending messages;
#X connect 0 0 1 0;
#X connect 2 0 0 0;
#X connect 3 0 2 0;
#X connect 4 0 5 0;
#X connect 5 0 0 0;
#X connect 6 0 7 0;
#X connect 7 0 9 0;
#X connect 8 0 7 1;
#X connect 9 0 0 0;
#X connect 11 0 12 0;
#X connect 12 0 14 0;
#X connect 13 0 12 1;
#X connect 14 0 0 0;
#X restore 327 184 pd control gui;
#N canvas 0 30 681 722 other 0;
#X obj 55 117 sdPackFromHuman;
#X msg 55 94 list set ( dest ( \$1 ) );
#X msg 55 48 symbol %0-weirdInstrument;
#X obj 55 71 sdReplace \$0;
#X floatatom 241 43 5 0 0 0 - - -;
#X obj 241 65 pack;
#X floatatom 277 44 5 0 0 0 - - -;
#X msg 241 88 list set_num_by_ind_in_range ( \$2 \$1 );
#X obj 56 163 print;
#X obj 244 166 print;
#X obj 151 176 print;
#X obj 56 140 sdObjInterface_obj objIF, f 32;
#X obj 322 142 sdObjGroupsInterface_obj objIF;
#X msg 97 368 load;
#X msg 58 368 save;
#X obj 93 393 sdObjSaveAll \$0-GLOBAL;
#X msg 139 364 get;
#X obj 93 416 print get;
#X connect 0 0 11 0;
#X connect 1 0 0 0;
#X connect 2 0 3 0;
#X connect 3 0 1 0;
#X connect 4 0 5 0;
#X connect 5 0 7 0;
#X connect 6 0 5 1;
#X connect 7 0 0 0;
#X connect 11 0 8 0;
#X connect 11 1 10 0;
#X connect 11 2 9 0;
#X connect 13 0 15 0;
#X connect 14 0 15 0;
#X connect 15 0 17 0;
#X connect 16 0 15 0;
#X restore 327 210 pd other generic tools;
#X text 323 394 ...and a sender to manipulate the instruments state
;
#X connect 0 0 17 0;
#X connect 1 0 0 0;
#X connect 2 0 16 0;
#X connect 3 0 2 0;
#X connect 4 0 2 0;
#X connect 5 0 0 0;
#X connect 7 0 9 0;
#X connect 9 0 8 0;
#X connect 10 0 18 0;
#X connect 11 0 10 0;
#X connect 12 0 10 0;
#X connect 21 0 19 0;
#X connect 21 1 20 0;
#X connect 22 0 23 0;
