#N canvas 683 30 681 118 10;
#X obj 358 303 sdReplace \$0;
#X msg 358 260 raw set dest %0-obscureInstrument;
#X obj 374 460 sdReplace \$0;
#X msg 373 414 raw set dest %0-obscureInstrument;
#X msg 386 437 raw set dest %0-weirdInstrument;
#X msg 373 281 raw set dest %0-weirdInstrument;
#X text 331 229 lets define a receiver to track the instruments state
, f 35;
#X obj 532 24 loadbang;
#X obj 532 70 s \$0-GLOBAL;
#X msg 532 47 list init 0;
#X obj 376 615 sdReplace \$0;
#X msg 375 569 raw set dest %0-obscureInstrument;
#X msg 388 592 raw set dest %0-weirdInstrument;
#X text 320 550 ...or an object which does both;
#X obj 374 483 sdObjSndExample \$0-sender \$0-CONN \$0-GLOBAL;
#X obj 348 326 sdObjRcvExample \$0-receiver \$0-CONN \$0-GLOBAL;
#X obj 362 643 sdObjDuplexExample \$0-dupl \$0-CONN \$0-GLOBAL;
#X obj 7 632 print GUI.out;
#X obj 156 631 print genericObj.out;
#X obj 7 25 sdObjState_ui GUI \$0-GUI-INIT \$0-INSTR \$0-CONN;
#X msg 343 40 list init 0;
#X obj 343 63 s \$0-GUI-INIT;
#X text 327 120 now you can:;
#X text 348 141 read or write the objects properties;
#X text 348 159 send messages to the object;
#X text 328 103 3 select an object;
#X text 328 86 2 select a group;
#X text 328 19 1 init GUI:;
#N canvas 0 30 681 722 control 0;
#X obj 91 169 sdPackFromHuman;
#X obj 91 192 send GUI;
#X msg 91 146 list set ( destIndex ( \$1 ) );
#X floatatom 91 124 5 0 0 0 - - -;
#X floatatom 59 73 5 0 0 0 - - -;
#X msg 59 95 list set ( groupIndex ( \$1 ) );
#X floatatom 194 171 5 0 0 0 - - -;
#X obj 194 193 pack;
#X floatatom 230 172 5 0 0 0 - - -;
#X msg 194 216 list set_num_by_ind ( \$2 \$1 );
#X text 196 238 (generically set properties);
#X floatatom 106 264 5 0 0 0 - - -;
#X obj 106 286 pack;
#X floatatom 142 265 5 0 0 0 - - -;
#X msg 106 310 list set_num_by_ind_in_range ( \$2 \$1 );
#X text 65 46 control GUI by sending messages;
#X floatatom 349 38 5 0 0 0 - - -;
#X obj 320 61 f;
#X msg 308 94 list send_event_by_ind ( \$1 );
#X obj 306 33 bng 15 250 50 0 empty empty empty 17 7 0 10 -262144 -1
-1;
#X text 405 37 send event by index;
#X floatatom 448 148 5 0 0 0 - - -;
#X floatatom 484 149 5 0 0 0 - - -;
#X obj 448 170 pack 0 0;
#X msg 448 194 list set_bool_by_ind ( \$2 \$1 );
#X text 445 219 (generically set boolean properties);
#X text 355 308 (generically set properties from [0..1]);
#X connect 0 0 1 0;
#X connect 2 0 0 0;
#X connect 3 0 2 0;
#X connect 4 0 5 0;
#X connect 5 0 0 0;
#X connect 6 0 7 0;
#X connect 7 0 9 0;
#X connect 8 0 7 1;
#X connect 9 0 0 0;
#X connect 11 0 12 0;
#X connect 12 0 14 0;
#X connect 13 0 12 1;
#X connect 14 0 0 0;
#X connect 16 0 17 1;
#X connect 17 0 18 0;
#X connect 18 0 0 0;
#X connect 19 0 17 0;
#X connect 21 0 23 0;
#X connect 22 0 23 1;
#X connect 23 0 24 0;
#X connect 24 0 0 0;
#X restore 327 184 pd control gui;
#N canvas 0 30 681 722 other 1;
#X obj 55 117 sdPackFromHuman;
#X msg 55 94 list set ( dest ( \$1 ) );
#X msg 55 48 symbol %0-weirdInstrument;
#X obj 55 71 sdReplace \$0;
#X floatatom 241 50 5 0 0 0 - - -;
#X obj 241 72 pack;
#X floatatom 277 51 5 0 0 0 - - -;
#X msg 241 95 list set_num_by_ind_in_range ( \$2 \$1 );
#X obj 56 163 print;
#X msg 382 305 load;
#X msg 345 304 save;
#X obj 56 140 sdObjInterface_obj objIF, f 32;
#X floatatom 73 207 5 0 0 0 - - -;
#X obj 44 230 f;
#X msg 32 263 list send_event_by_ind ( \$1 );
#X obj 30 202 bng 15 250 50 0 empty empty empty 17 7 0 10 -262144 -1
-1;
#X text 99 229 send event by index;
#X text 546 140 (same api as gui);
#X msg 376 570 save_hd;
#X msg 445 585 set filename ../save.save;
#X obj 445 561 loadbang;
#X msg 346 546 load_hd;
#X obj 378 330 sdObjSaveAll \$0-INSTR;
#X msg 424 301 get state;
#X obj 404 611 sdObjSaveAllToDisk \$0-INSTR;
#X text 316 243 remember the state of some group of objects in RAM
;
#X text 318 460 remember the state of some group of objects in a FILE:
;
#X obj 150 200 print fromDest.generic;
#X obj 244 166 print fromDest;
#X msg 531 264 set dest %0-CONN;
#X msg 545 285 set dest %0-INSTR;
#X obj 528 305 sdReplace \$0;
#X obj 378 399 print state-in-RAM;
#X obj 378 353 route state;
#X obj 378 376 list;
#X obj 322 142 sdObjGroupsInterface_obj objGroupIF;
#X text 319 478 NOTICE: This is only reliable \, if the object names
don't contain \$0 symbols.;
#X connect 0 0 11 0;
#X connect 1 0 0 0;
#X connect 2 0 3 0;
#X connect 3 0 1 0;
#X connect 4 0 5 0;
#X connect 5 0 7 0;
#X connect 6 0 5 1;
#X connect 7 0 0 0;
#X connect 9 0 22 0;
#X connect 10 0 22 0;
#X connect 11 0 8 0;
#X connect 11 1 27 0;
#X connect 11 2 28 0;
#X connect 12 0 13 1;
#X connect 13 0 14 0;
#X connect 14 0 0 0;
#X connect 15 0 13 0;
#X connect 18 0 24 0;
#X connect 19 0 24 0;
#X connect 20 0 19 0;
#X connect 21 0 24 0;
#X connect 22 0 33 0;
#X connect 23 0 22 0;
#X connect 29 0 31 0;
#X connect 30 0 31 0;
#X connect 31 0 22 0;
#X connect 33 0 34 0;
#X connect 34 0 32 0;
#X restore 327 210 pd other generic tools;
#X text 323 394 ...and a sender to manipulate the instruments state
;
#X obj 638 249 sdObjExample \$0-obscureInstrument \$0-INSTR \$0-GLOBAL
;
#X obj 638 316 sdObjExample \$0-weirdInstrument \$0-INSTR \$0-GLOBAL
;
#X connect 0 0 15 0;
#X connect 1 0 0 0;
#X connect 2 0 14 0;
#X connect 3 0 2 0;
#X connect 4 0 2 0;
#X connect 5 0 0 0;
#X connect 7 0 9 0;
#X connect 9 0 8 0;
#X connect 10 0 16 0;
#X connect 11 0 10 0;
#X connect 12 0 10 0;
#X connect 19 0 17 0;
#X connect 19 1 18 0;
#X connect 20 0 21 0;
