#N canvas 0 0 798 854 10;
#X obj 55 69 bng 15 250 50 0 empty empty empty 17 7 0 10 #fcfcfc #000000
#000000;
#X obj 97 109 print;
#X obj 98 86 sdAny test;
#X msg 34 24 list bla;
#X floatatom 106 25 5 0 0 0 - - - 0;
#X msg 110 50 set bla;
#X msg 61 50 a b c;
#X msg 207 68 list bla;
#X floatatom 207 11 5 0 0 0 - - - 0;
#X msg 203 41 a b c;
#X msg 85 133 bla 3;
#X msg 12 144 list hurz;
#X floatatom 31 121 5 0 0 0 - - - 0;
#X obj 165 149 tgl 15 0 empty empty empty 17 7 0 10 #fcfcfc #000000
#000000 0 1;
#X obj 67 195 print accept;
#X obj 153 192 print reject;
#X obj 104 320 bng 15 250 50 0 empty empty empty 17 7 0 10 #fcfcfc
#000000 #000000;
#X obj 119 370 print value;
#X obj 206 369 print overflow;
#X msg 132 307 0;
#X obj 120 347 sdCounter 3;
#X obj 132 448 sdFirst;
#X floatatom 25 404 5 0 0 0 - - - 0;
#X obj 30 431 bng 15 250 50 0 empty empty empty 17 7 0 10 #fcfcfc #000000
#000000;
#X obj 85 471 print first;
#X obj 183 469 print rest;
#X msg 275 250 test;
#X msg 289 273 symbol bla;
#X msg 305 299 symbol hurz;
#X msg 390 265 symbol bla;
#X msg 399 289 symbol hurz;
#X floatatom 308 370 5 0 0 0 - - - 0;
#X obj 560 356 sdIsEq;
#X floatatom 603 276 5 0 0 0 - - - 0;
#X floatatom 496 356 5 0 0 0 - - - 0;
#X msg 604 302 symbol bla;
#X msg 497 307 symbol bla;
#X msg 604 326 list a b c;
#X floatatom 560 379 5 0 0 0 - - - 0;
#X msg 496 331 symbol a;
#X floatatom 428 449 5 0 0 0 - - - 0;
#X obj 448 517 print accept;
#X obj 544 518 print reject;
#X msg 590 445 symbol bla;
#X msg 474 455 symbol bla;
#X msg 467 430 symbol hurz;
#X msg 460 403 list bla 1 2;
#X obj 105 168 sdGate 0;
#X obj 495 169 sdFloatBang;
#X obj 495 194 sdSymbolBang;
#X obj 496 219 sdSymbolBang;
#X obj 489 117 print;
#X msg 489 70 bla 3 %0-bla %0-bli;
#X obj 489 94 sdReplace \$0;
#X msg 77 221 list a b;
#X obj 77 267 sdSetSelector set;
#X obj 77 290 print;
#X msg 85 243 get a b;
#X obj 308 347 sdSymbolIsEq bla;
#X msg 63 405 symbol test;
#X msg 585 420 list bla 0;
#X msg 598 473 symbol;
#X obj 448 494 sdFilter 3 bla, f 16;
#X text 441 535 init args/right inlet: a list of acceptable values
, f 26;
#X msg 520 282 symbol b;
#X text 434 37 replaces %i by the corresponding creation argument (index
starts with 0), f 39;
#X text 160 321 (arg -1: no limit);
#X floatatom 216 343 5 0 0 0 - - - 0;
#X msg 177 403 1;
#X msg 189 428 0;
#X text 212 427 close gate;
#X text 203 396 (re)open gate (for next msg), f 14;
#X floatatom 280 548 5 0 0 0 - - - 0;
#X msg 359 628 clear;
#X text 220 669 init args: auto add variables;
#X obj 66 691 print replaced;
#X msg 13 596 list a $var1-bla-$var2 c;
#X msg 201 595 set var1 \$1;
#X msg 279 595 set var2 \$1;
#X obj 297 570 + 1;
#X msg 365 595 set var1 x y \, set var2 u v;
#X msg 14 622 list a $(var1)-bla-$(var2) c;
#X msg 13 571 list $var1 $var2;
#X obj 81 667 sdVarLookup var1 var2;
#X text 402 629 (delete all variables);
#X msg 319 321 symbol;
#X msg 409 315 symbol;
#X connect 0 0 2 0;
#X connect 2 0 1 0;
#X connect 3 0 2 0;
#X connect 4 0 2 0;
#X connect 5 0 2 0;
#X connect 6 0 2 0;
#X connect 7 0 2 1;
#X connect 8 0 2 1;
#X connect 9 0 2 1;
#X connect 10 0 47 0;
#X connect 11 0 47 0;
#X connect 12 0 47 0;
#X connect 13 0 47 1;
#X connect 16 0 20 0;
#X connect 19 0 20 0;
#X connect 20 0 17 0;
#X connect 20 1 18 0;
#X connect 21 0 24 0;
#X connect 21 1 25 0;
#X connect 22 0 21 0;
#X connect 23 0 21 0;
#X connect 26 0 58 0;
#X connect 27 0 58 0;
#X connect 28 0 58 0;
#X connect 29 0 58 1;
#X connect 30 0 58 1;
#X connect 32 0 38 0;
#X connect 33 0 32 1;
#X connect 34 0 32 0;
#X connect 35 0 32 1;
#X connect 36 0 32 0;
#X connect 37 0 32 1;
#X connect 39 0 32 0;
#X connect 40 0 62 0;
#X connect 43 0 62 1;
#X connect 44 0 62 0;
#X connect 45 0 62 0;
#X connect 46 0 62 0;
#X connect 47 0 14 0;
#X connect 47 1 15 0;
#X connect 52 0 53 0;
#X connect 53 0 51 0;
#X connect 54 0 55 0;
#X connect 55 0 56 0;
#X connect 57 0 55 0;
#X connect 58 0 31 0;
#X connect 59 0 21 0;
#X connect 60 0 62 1;
#X connect 61 0 62 1;
#X connect 62 0 41 0;
#X connect 62 1 42 0;
#X connect 64 0 32 0;
#X connect 67 0 20 1;
#X connect 68 0 21 1;
#X connect 69 0 21 1;
#X connect 72 0 77 0;
#X connect 72 0 79 0;
#X connect 73 0 83 0;
#X connect 76 0 83 0;
#X connect 77 0 83 0;
#X connect 78 0 83 0;
#X connect 79 0 78 0;
#X connect 80 0 83 0;
#X connect 81 0 83 0;
#X connect 82 0 83 0;
#X connect 83 0 75 0;
#X connect 85 0 58 0;
#X connect 86 0 58 1;
