#N canvas 0 30 894 854 10;
#X obj 376 8 loadbang;
#X obj 458 37 t b b;
#X obj 495 82 f \$1;
#X obj 573 83 f \$2;
#X text 586 30 \$1: min \; \$2: max \;;
#X obj 435 9 bng 15 250 50 0 empty empty empty 17 7 0 10 -262144 -1
-1;
#X obj 108 121 vsl 15 32 -10 10 0 0 empty \$0-slider_rcv empty 0 -9
0 10 -262144 -1 -1 1200 1;
#X obj 101 161 nbx 4 14 -10 10 0 0 empty \$0-num_rcv empty 0 -8 0 10
-262144 -1 -1 -2.25806 256;
#X floatatom 488 147 5 0 0 0 - - -;
#X floatatom 663 148 5 0 0 0 - - -;
#X obj 434 290 pack s 0 0;
#X obj 396 49 t b b;
#X msg 434 336 \; \$1 range \$2 \$3;
#X obj 488 169 s \$0-min;
#X obj 708 150 s \$0-max;
#X obj 464 265 r \$0-min;
#X obj 520 263 r \$0-max;
#X obj 251 299 pack s 0 0;
#X msg 251 345 \; \$1 range \$2 \$3;
#X obj 281 274 r \$0-min;
#X obj 337 272 r \$0-max;
#X obj 487 110 expr if($f1==$f2 && $f1==0 \, -10 \, $f1) \; if($f1==$f2
&& $f1==0 \, 10 \, $f2);
#X obj 44 30 inlet;
#X obj 148 29 inlet;
#X obj 181 69 f;
#X obj 181 92 s \$0-slider_rcv;
#X obj 430 239 symbol \$0-slider_rcv;
#X obj 247 248 symbol \$0-num_rcv;
#X msg 96 339 set \$1;
#X obj 107 217 r \$0-out;
#X obj 107 240 outlet;
#X obj 96 309 r \$0-out;
#X obj 102 185 s \$0-out;
#X obj 95 364 s \$0-slider_rcv;
#X text 101 100 f;
#X connect 0 0 11 0;
#X connect 1 0 2 0;
#X connect 1 1 3 0;
#X connect 2 0 21 0;
#X connect 3 0 21 1;
#X connect 5 0 11 0;
#X connect 6 0 7 0;
#X connect 7 0 32 0;
#X connect 8 0 13 0;
#X connect 10 0 12 0;
#X connect 11 0 26 0;
#X connect 11 0 27 0;
#X connect 11 1 1 0;
#X connect 15 0 10 1;
#X connect 16 0 10 2;
#X connect 17 0 18 0;
#X connect 19 0 17 1;
#X connect 20 0 17 2;
#X connect 21 0 8 0;
#X connect 21 1 9 0;
#X connect 21 1 14 0;
#X connect 22 0 24 0;
#X connect 23 0 24 1;
#X connect 24 0 25 0;
#X connect 26 0 10 0;
#X connect 27 0 17 0;
#X connect 28 0 33 0;
#X connect 29 0 30 0;
#X connect 31 0 28 0;
#X coords 0 -1 1 1 48 76 2 100 100;
