#N canvas 0 49 934 819 10;
#X obj 329 55 vsl 15 64 0 100 0 0 \$0-slider \$0-slider_rcv empty 0
-9 0 10 -262144 -1 -1 4750 1;
#X obj 43 134 *~;
#X obj 769 82 dbtorms;
#X obj 110 134 *~;
#X obj 308 53 tgl 15 0 \$0-enable empty empty 17 7 0 10 -262144 -1
-1 0 1;
#X obj 199 6 loadbang;
#X obj 769 60 r \$0-slider;
#X obj 596 139 r \$0-enable;
#X obj 596 161 route 1 0;
#X floatatom 843 85 5 0 0 0 - - -;
#X obj 559 352 pack 0 50;
#X obj 561 375 line~;
#X obj 560 394 s~ \$0-level;
#X obj 238 196 r~ \$0-level;
#X msg 790 293 0;
#X obj 675 214 t b b;
#X obj 589 209 t b b;
#X obj 769 104 s \$0-slider_level;
#X obj 574 250 r \$0-slider_level;
#X obj 556 283 f;
#X obj 402 198 sgGate 1;
#X obj 410 119 r \$0-slider_level;
#X msg 303 6 50;
#X obj 64 12 adc~;
#X obj 20 275 outlet~;
#X obj 180 275 outlet~;
#X obj 475 20 inlet;
#X obj 475 42 / 100;
#X msg 199 28 1;
#X connect 1 0 24 0;
#X connect 2 0 17 0;
#X connect 3 0 25 0;
#X connect 5 0 28 0;
#X connect 5 0 22 0;
#X connect 6 0 2 0;
#X connect 6 0 9 0;
#X connect 7 0 8 0;
#X connect 7 0 20 1;
#X connect 8 0 16 0;
#X connect 8 1 15 0;
#X connect 10 0 11 0;
#X connect 11 0 12 0;
#X connect 13 0 3 1;
#X connect 13 0 1 1;
#X connect 14 0 10 0;
#X connect 15 1 14 0;
#X connect 16 0 19 0;
#X connect 18 0 19 1;
#X connect 19 0 10 0;
#X connect 20 0 10 0;
#X connect 21 0 20 0;
#X connect 22 0 0 0;
#X connect 23 0 1 0;
#X connect 23 1 3 0;
#X connect 26 0 27 0;
#X connect 27 0 0 0;
#X connect 28 0 4 0;
#X coords 0 -1 1 1 50 100 1 300 30;
