#N canvas 0 30 990 854 10;
#X obj 69 53 inlet;
#X obj 161 252 outlet;
#X obj 69 75 t b a;
#X obj 214 151 sgSerialize;
#X obj 159 205 sgSet;
#X msg 253 209 clear;
#X obj 201 105 t a b;
#X connect 0 0 2 0;
#X connect 2 0 4 0;
#X connect 2 1 6 0;
#X connect 3 0 4 1;
#X connect 4 0 1 0;
#X connect 5 0 4 1;
#X connect 6 0 3 0;
#X connect 6 1 5 0;
