#N canvas 0 30 762 722 10;
#X obj 38 10 inlet;
#X obj 318 316 r \$0-init-props;
#X obj 419 316 r \$0-update-props;
#X obj 672 268 r \$0-init-props;
#X obj 773 268 r \$0-update-props;
#X obj 401 344 sdUnEvent height;
#X msg 272 188 clear;
#X obj 45 351 sdBoundingBox;
#X obj 195 281 t b b;
#X obj 272 164 r \$0-clear;
#X msg 73 321 clear;
#X obj 73 297 r \$0-clear;
#X msg 710 144 clear;
#X obj 710 121 r \$0-clear;
#X obj 301 681 outlet;
#X obj 495 683 outlet;
#X obj 315 188 r \$0-num.count;
#X msg 315 211 set count \$1;
#X obj 322 236 r \$0-num.properties;
#X obj 184 20 sdProperty num.count \$0 2 intern;
#X obj 213 46 sdPropertyList num.properties \$0;
#X obj 287 100 sdPropertyList bool.properties \$0;
#X obj 258 73 sdProperty bool.count \$0 3 intern;
#X msg 222 305 draw;
#X msg 401 368 set y \$1 \, draw;
#X obj 322 259 list prepend set properties;
#X obj 322 282 list trim;
#X msg 751 168 set count \$1;
#X obj 758 216 list prepend set properties;
#X obj 758 239 list trim;
#X obj 751 145 r \$0-bool.count;
#X obj 758 193 r \$0-bool.properties;
#X obj 38 82 s \$0-clear;
#X obj 84 58 s \$0-draw;
#X obj 195 257 r \$0-draw;
#X obj 336 370 s \$0-box;
#X obj 121 329 r \$0-box;
#X obj 650 382 s \$0-box;
#X obj 209 562 r \$0-init-props;
#X obj 310 562 r \$0-update-props;
#X msg 247 438 clear;
#X obj 247 414 r \$0-clear;
#X msg 288 462 set count \$1;
#X obj 295 510 list prepend set properties;
#X obj 295 533 list trim;
#X obj 235 607 s \$0-box;
#X obj 734 322 sdUnEvent height;
#X msg 734 346 set y \$1 \, draw;
#X obj 355 156 sdPropertyList sym.properties \$0;
#X obj 288 439 r \$0-sym.count;
#X obj 295 487 r \$0-sym.properties;
#X obj 326 128 sdProperty sym.count \$0 1 intern;
#X obj 38 33 route clear draw;
#X obj 568 14 inlet update;
#X obj 457 14 inlet init-props;
#X obj 457 38 s \$0-init-props;
#X obj 568 38 s \$0-update-props;
#X obj 61 683 outlet;
#X obj 228 364 s \$0-to-obj;
#X obj 61 657 r \$0-to-obj;
#X obj 573 318 s \$0-to-obj;
#X obj 117 611 s \$0-to-obj;
#X obj 456 180 sdProperty x \$0 4 intern;
#X obj 467 205 sdProperty y \$0 4 intern;
#X obj 501 247 r \$0-y;
#X msg 501 270 set y \$1;
#X obj 261 339 sdGui_num_ui 2;
#X obj 617 291 sdGui_bool_ui 3;
#X obj 154 585 sdGui_sym_ui 1;
#X obj 301 394 s \$0-dyn-patching;
#X obj 301 657 r \$0-dyn-patching;
#X obj 602 353 s \$0-dyn-patching;
#X obj 194 630 s \$0-dyn-patching;
#X obj 45 374 s \$0-box-out;
#X obj 490 659 r \$0-box-out;
#X obj 179 446 t a;
#X obj 548 564 r \$0-init-props;
#X obj 649 564 r \$0-update-props;
#X msg 586 440 clear;
#X obj 586 416 r \$0-clear;
#X msg 627 464 set count \$1;
#X obj 634 512 list prepend set properties;
#X obj 634 535 list trim;
#X obj 574 609 s \$0-box;
#X obj 627 441 r \$0-sym.count;
#X obj 634 489 r \$0-sym.properties;
#X obj 456 613 s \$0-to-obj;
#X obj 533 632 s \$0-dyn-patching;
#X obj 311 596 sdUnEvent height;
#X msg 311 620 set y \$1 \, draw;
#X obj 493 587 sdGui_events_ui 3;
#X connect 0 0 52 0;
#X connect 1 0 66 1;
#X connect 2 0 66 2;
#X connect 3 0 67 1;
#X connect 4 0 67 2;
#X connect 5 0 24 0;
#X connect 6 0 66 0;
#X connect 7 0 73 0;
#X connect 8 0 7 0;
#X connect 8 1 23 0;
#X connect 9 0 6 0;
#X connect 10 0 7 0;
#X connect 11 0 10 0;
#X connect 12 0 67 0;
#X connect 13 0 12 0;
#X connect 16 0 17 0;
#X connect 17 0 66 0;
#X connect 18 0 25 0;
#X connect 19 1 20 0;
#X connect 20 1 22 0;
#X connect 21 1 51 0;
#X connect 22 1 21 0;
#X connect 23 0 66 0;
#X connect 24 0 67 0;
#X connect 25 0 26 0;
#X connect 26 0 66 0;
#X connect 27 0 67 0;
#X connect 28 0 29 0;
#X connect 29 0 67 0;
#X connect 30 0 27 0;
#X connect 31 0 28 0;
#X connect 34 0 8 0;
#X connect 36 0 7 1;
#X connect 38 0 68 1;
#X connect 39 0 68 2;
#X connect 40 0 68 0;
#X connect 41 0 40 0;
#X connect 42 0 68 0;
#X connect 43 0 44 0;
#X connect 44 0 68 0;
#X connect 46 0 47 0;
#X connect 47 0 75 0;
#X connect 48 1 62 0;
#X connect 49 0 42 0;
#X connect 50 0 43 0;
#X connect 51 1 48 0;
#X connect 52 0 32 0;
#X connect 52 1 33 0;
#X connect 52 2 19 0;
#X connect 53 0 56 0;
#X connect 54 0 55 0;
#X connect 59 0 57 0;
#X connect 62 1 63 0;
#X connect 64 0 65 0;
#X connect 65 0 66 0;
#X connect 66 0 58 0;
#X connect 66 1 69 0;
#X connect 66 2 5 0;
#X connect 66 2 35 0;
#X connect 67 0 60 0;
#X connect 67 1 71 0;
#X connect 67 2 46 0;
#X connect 67 2 37 0;
#X connect 68 0 61 0;
#X connect 68 1 72 0;
#X connect 68 2 45 0;
#X connect 68 2 88 0;
#X connect 70 0 14 0;
#X connect 74 0 15 0;
#X connect 75 0 68 0;
#X connect 76 0 90 1;
#X connect 77 0 90 2;
#X connect 78 0 90 0;
#X connect 79 0 78 0;
#X connect 80 0 90 0;
#X connect 81 0 82 0;
#X connect 82 0 90 0;
#X connect 84 0 80 0;
#X connect 85 0 81 0;
#X connect 88 0 89 0;
#X connect 89 0 90 0;
#X connect 90 0 86 0;
#X connect 90 1 87 0;
#X connect 90 2 83 0;
