#N canvas 0 30 681 722 10;
#X obj 536 521 sdPackFromHuman;
#X obj 504 617 outlet gui->obj;
#X obj 485 310 sdUnPack;
#X floatatom 475 41 5 0 0 0 - - -;
#X msg 504 383 list get_all 0;
#X obj 499 334 t b f;
#X obj 523 473 t f;
#X obj 475 18 r \$0-shift;
#X obj 589 360 s \$0-shift;
#X obj 476 84 r \$0-shift;
#X obj 523 449 r \$0-gui.shift;
#N canvas 0 30 681 736 gui.props 0;
#X obj 40 328 outlet;
#X obj 18 87 f 0;
#X msg 270 309 list send_event_by_ind 1 \$1;
#X obj 46 110 f 1;
#X obj 75 133 f 2;
#X obj 103 156 f 3;
#X obj 132 179 f 4;
#X obj 160 204 f 5;
#X obj 189 226 f 6;
#X obj 218 249 f 7;
#X obj 18 64 r \$0-gui.event_0;
#X obj 46 87 r \$0-gui.event_1;
#X obj 75 110 r \$0-gui.event_2;
#X obj 103 133 r \$0-gui.event_3;
#X obj 132 156 r \$0-gui.event_4;
#X obj 160 181 r \$0-gui.event_5;
#X obj 189 203 r \$0-gui.event_6;
#X obj 218 226 r \$0-gui.event_7;
#X obj 31 251 t a;
#N canvas 0 30 762 736 calc 0;
#X obj 455 212 sdGate;
#X obj 516 191 r \$0-count;
#X obj 488 190 < 1;
#X obj 171 74 sdGate;
#X obj 217 54 r \$0-props;
#X obj 217 77 list length;
#X obj 184 381 sdList;
#X obj 217 326 r \$0-props;
#X obj 217 349 sdSetSelector set;
#X msg 149 352 get \$1;
#X obj 121 419 sdGate;
#X msg 239 423 0;
#X msg 196 407 1;
#X obj 121 486 sdPack send;
#X obj 104 295 t a b;
#X obj 165 36 inlet;
#X obj 385 591 outlet;
#X obj 460 166 t f f;
#X obj 431 315 sdPack send_event_by_ind;
#X obj 121 443 sdPack event;
#X obj 114 323 t b f;
#X connect 0 0 18 0;
#X connect 1 0 2 1;
#X connect 2 0 0 1;
#X connect 3 0 14 0;
#X connect 3 1 17 0;
#X connect 4 0 5 0;
#X connect 5 0 3 1;
#X connect 6 0 12 0;
#X connect 6 0 19 1;
#X connect 7 0 8 0;
#X connect 8 0 6 0;
#X connect 9 0 6 0;
#X connect 10 0 19 0;
#X connect 11 0 10 1;
#X connect 12 0 10 1;
#X connect 13 0 16 0;
#X connect 14 0 20 0;
#X connect 14 1 11 0;
#X connect 15 0 3 0;
#X connect 17 0 0 0;
#X connect 17 1 2 0;
#X connect 18 0 16 0;
#X connect 19 0 13 0;
#X connect 20 0 10 0;
#X connect 20 1 9 0;
#X restore 31 283 pd calc msg;
#X connect 1 0 2 0;
#X connect 1 0 18 0;
#X connect 3 0 2 0;
#X connect 3 0 18 0;
#X connect 4 0 2 0;
#X connect 4 0 18 0;
#X connect 5 0 2 0;
#X connect 5 0 18 0;
#X connect 6 0 2 0;
#X connect 6 0 18 0;
#X connect 7 0 2 0;
#X connect 7 0 18 0;
#X connect 8 0 2 0;
#X connect 8 0 18 0;
#X connect 9 0 2 0;
#X connect 9 0 18 0;
#X connect 10 0 1 0;
#X connect 11 0 3 0;
#X connect 12 0 4 0;
#X connect 13 0 5 0;
#X connect 14 0 6 0;
#X connect 15 0 7 0;
#X connect 16 0 8 0;
#X connect 17 0 9 0;
#X connect 18 0 19 0;
#X connect 19 0 0 0;
#X restore 530 588 pd gui.props -> obj;
#N canvas 0 30 681 736 shift-> 0;
#X obj 86 49 inlet;
#X msg 231 247 set \$1;
#X obj 181 313 s \$0-gui.shift_rcv;
#X connect 0 0 1 0;
#X connect 1 0 2 0;
#X restore 476 107 pd shift-> gui;
#X obj 618 145 inlet update;
#X obj 618 194 r \$0-shift;
#N canvas 0 30 681 736 set 0;
#X obj 143 182 sdUnPack;
#X obj 148 274 sdList;
#X msg 113 242 serialize;
#X msg 186 243 clear;
#X obj 143 205 t b a b;
#X msg 267 246 0;
#X obj 317 382 t a b;
#X obj 359 629 send;
#X msg 267 504 label \$1;
#N canvas 0 30 681 736 gui 0;
#X obj 43 9 inlet;
#X obj 74 149 until;
#X msg 144 138 0;
#X obj 79 220 pack f \$0;
#X obj 81 61 t b b, f 11;
#X obj 74 184 sdCounter -1;
#X obj 66 120 f;
#X obj 81 94 r \$0-count;
#X msg 80 258 \; \$2-gui.event_name\$1_rcv label - \;;
#X connect 0 0 4 0;
#X connect 1 0 5 0;
#X connect 2 0 5 0;
#X connect 3 0 8 0;
#X connect 4 0 6 0;
#X connect 4 1 2 0;
#X connect 5 0 3 0;
#X connect 6 0 1 0;
#X connect 7 0 6 1;
#X restore 243 173 pd gui clear props;
#X obj 179 143 t a b;
#X obj 411 597 sdReplace \$0;
#X obj 366 400 sdCounter -1;
#X obj 100 24 inlet;
#X obj 453 28 inlet prop_shift;
#X obj 273 479 sdGate;
#X obj 366 423 - 0;
#X obj 453 55 t f;
#X obj 311 454 expr $f1 >= 0 && $f1 < $f2;
#X obj 576 27 inlet;
#X obj 471 432 r \$0-count;
#X obj 148 348 sdGate;
#X obj 183 298 r \$0-props;
#X obj 183 323 list length;
#X floatatom 254 349 5 0 0 0 - - -;
#X obj 169 436 r \$0-props;
#X obj 169 459 sdSetSelector set;
#X obj 116 488 sdList find;
#X msg 111 455 find \$1;
#X obj 84 432 t s s;
#X msg 65 560 label \$1;
#X obj 68 532 sdGate;
#X obj 120 529 != -1;
#X msg 411 574 symbol %0-gui.event_name\$1_rcv;
#X connect 0 0 4 0;
#X connect 1 0 21 0;
#X connect 2 0 1 0;
#X connect 3 0 1 0;
#X connect 4 0 2 0;
#X connect 4 1 1 1;
#X connect 4 2 3 0;
#X connect 4 2 5 0;
#X connect 5 0 12 0;
#X connect 6 0 15 0;
#X connect 6 1 12 0;
#X connect 8 0 7 0;
#X connect 10 0 0 0;
#X connect 10 1 9 0;
#X connect 11 0 7 1;
#X connect 12 0 16 0;
#X connect 13 0 10 0;
#X connect 14 0 17 0;
#X connect 15 0 8 0;
#X connect 16 0 33 0;
#X connect 16 0 18 0;
#X connect 17 0 16 1;
#X connect 18 0 15 1;
#X connect 19 0 9 0;
#X connect 20 0 18 1;
#X connect 21 0 29 0;
#X connect 21 1 6 0;
#X connect 22 0 23 0;
#X connect 23 0 21 1;
#X connect 23 0 24 0;
#X connect 25 0 26 0;
#X connect 26 0 27 0;
#X connect 27 0 32 0;
#X connect 27 0 33 0;
#X connect 28 0 27 0;
#X connect 29 0 31 0;
#X connect 29 1 28 0;
#X connect 30 0 7 0;
#X connect 31 0 30 0;
#X connect 32 0 31 1;
#X connect 33 0 11 0;
#X restore 577 249 pd set gui.props;
#X msg 645 219 clear;
#X obj 38 -2 inlet;
#N canvas 0 30 681 736 things 0;
#X obj 490 203 f;
#X obj 542 204 f;
#X obj 489 129 r \$0-gui.inc_shift;
#X obj 537 153 r \$0-gui.dec_shift;
#N canvas 0 30 681 736 numShift-> 0;
#X obj 86 49 inlet;
#X msg 181 288 2;
#X obj 181 313 s \$0-gui.num_shift_rcv;
#X connect 0 0 1 0;
#X connect 1 0 2 0;
#X restore 171 468 pd numShift-> gui;
#X floatatom 292 472 5 0 0 0 - - -;
#X obj 542 226 - 1;
#X obj 490 226 + 1;
#X obj 587 198 r \$0-count;
#X obj 271 506 r \$0-count;
#X floatatom 271 529 5 0 0 0 - - -;
#X obj 172 530 r \$0-properties;
#X obj 172 553 l2s;
#X symbolatom 172 576 20 0 0 0 - - -;
#X obj 172 627 l2s;
#X symbolatom 172 650 20 0 0 0 - - -;
#X obj 172 604 r \$0-props;
#X obj 491 250 s \$0-gui.shift_rcv;
#X obj 171 445 r \$0-shift;
#X obj 292 449 r \$0-shift;
#X obj 561 174 r \$0-shift;
#X connect 0 0 7 0;
#X connect 1 0 6 0;
#X connect 2 0 0 0;
#X connect 3 0 1 0;
#X connect 6 0 17 0;
#X connect 7 0 17 0;
#X connect 8 0 6 1;
#X connect 8 0 7 1;
#X connect 9 0 10 0;
#X connect 11 0 12 0;
#X connect 12 0 13 0;
#X connect 14 0 15 0;
#X connect 16 0 14 0;
#X connect 19 0 5 0;
#X connect 20 0 1 1;
#X connect 20 0 0 1;
#X restore 419 361 pd things;
#X msg 417 438 clear;
#X obj 224 176 r \$0-properties;
#X obj 171 221 s \$0-props;
#X obj 224 199 t a a;
#X obj 251 221 list length;
#X obj 251 244 t f f;
#X obj 195 308 sdGate;
#X obj 243 297 != 0;
#X obj 251 268 t f f;
#X obj 195 355 s \$0-count_rcv;
#X msg 195 332 priv.set \$1;
#X obj 569 673 outlet set graph-on-parent;
#X obj 523 643 outlet gui-subpatch;
#X obj 319 296 == 0;
#X floatatom 340 255 5 0 0 0 - - -;
#X floatatom 345 327 5 0 0 0 - - -;
#X msg 275 411 set x \$1;
#X msg 343 410 set y \$1;
#X obj 343 387 r \$0-y;
#X obj 275 388 r \$0-x;
#X obj 99 331 r \$0-count;
#X obj 70 330 f;
#X floatatom 25 354 5 0 0 0 - - -;
#X msg 130 468 clear;
#X obj 83 397 t b f;
#X obj 83 369 t f b, f 7;
#X obj 73 494 sdBoundingBox;
#X obj 227 460 t a a;
#X obj 494 152 inlet events;
#X obj 618 168 sdPackFilter events;
#X obj 495 179 sdObjTrack events;
#X obj 485 285 sdObjTrack eventShift;
#X msg 536 497 list set ( eventShift ( \$1 ) );
#X floatatom 680 455 5 0 0 0 - - -;
#X obj 67 283 r \$0-draw;
#X obj 82 523 sdUnEvent x y width height;
#X obj 79 569 sdEvent bounds x y width height;
#X msg 80 546 0;
#X msg 111 546 0;
#X obj 176 545 + 4;
#X obj 143 546 + 4;
#X obj 417 415 r \$0-clear;
#X obj 257 73 sdPropertyList properties \$0;
#N canvas 0 30 762 736 arglist 0;
#X obj 244 208 sdList;
#X msg 244 166 serialize \, clear;
#X obj 232 127 t b l;
#X obj 244 231 route symbol;
#X obj 95 24 inlet;
#X obj 232 103 list append \$1 \$2 \$3 \$4 \$5 \$6 \$7 \$8 \$9;
#X obj 174 266 sdList bang;
#X msg 161 233 bang \, clear;
#X obj 174 313 s \$0-properties_rcv;
#X obj 174 289 sdSetSelector priv.set;
#X obj 95 47 t b b;
#X obj 95 144 s \$0-count_rcv;
#X msg 95 121 priv.set \$1;
#X obj 95 72 sdAny \$1;
#X obj 95 95 route float;
#X obj 232 76 t b;
#X connect 0 0 3 0;
#X connect 1 0 0 0;
#X connect 2 0 1 0;
#X connect 2 0 7 0;
#X connect 2 1 0 1;
#X connect 3 0 6 1;
#X connect 4 0 10 0;
#X connect 5 0 2 0;
#X connect 6 0 9 0;
#X connect 7 0 6 0;
#X connect 9 0 8 0;
#X connect 10 0 13 0;
#X connect 10 1 15 0;
#X connect 12 0 11 0;
#X connect 13 0 14 0;
#X connect 14 0 12 0;
#X connect 15 0 5 0;
#X restore 352 22 pd arglist;
#X obj 266 96 sdProperty count \$0 3;
#X obj 273 121 sdProperty x \$0 4 intern;
#X obj 284 146 sdProperty y \$0 4 intern;
#X obj 52 55 s \$0-clear;
#X msg 284 42 init;
#X obj 52 32 route clear draw;
#X obj 89 81 s \$0-draw;
#X obj 284 -5 loadbang;
#X obj 284 18 t b b;
#X obj 161 30 route init;
#X obj 227 437 sdGui_events_dyn_props \$0;
#X connect 0 0 1 0;
#X connect 2 0 5 0;
#X connect 4 0 1 0;
#X connect 5 0 4 0;
#X connect 5 1 8 0;
#X connect 6 0 51 0;
#X connect 7 0 3 0;
#X connect 9 0 12 0;
#X connect 10 0 6 0;
#X connect 10 0 52 0;
#X connect 11 0 1 0;
#X connect 13 0 48 0;
#X connect 14 0 15 1;
#X connect 16 0 15 2;
#X connect 17 0 68 0;
#X connect 19 0 73 3;
#X connect 20 0 22 0;
#X connect 22 0 21 0;
#X connect 22 1 23 0;
#X connect 23 0 24 0;
#X connect 24 0 27 0;
#X connect 24 1 32 0;
#X connect 24 1 33 0;
#X connect 25 0 29 0;
#X connect 26 0 25 1;
#X connect 27 0 25 0;
#X connect 27 1 26 0;
#X connect 29 0 28 0;
#X connect 32 0 34 0;
#X connect 32 0 73 2;
#X connect 35 0 73 1;
#X connect 36 0 73 1;
#X connect 37 0 36 0;
#X connect 38 0 35 0;
#X connect 39 0 40 1;
#X connect 40 0 41 0;
#X connect 40 0 44 0;
#X connect 42 0 45 0;
#X connect 43 0 45 0;
#X connect 43 1 73 0;
#X connect 44 0 43 0;
#X connect 44 1 42 0;
#X connect 45 0 54 0;
#X connect 46 0 45 1;
#X connect 46 1 31 0;
#X connect 47 0 49 0;
#X connect 47 0 50 0;
#X connect 49 0 15 0;
#X connect 50 0 2 0;
#X connect 51 0 0 0;
#X connect 53 0 40 0;
#X connect 54 0 56 0;
#X connect 54 1 57 0;
#X connect 54 2 59 0;
#X connect 54 3 58 0;
#X connect 54 4 55 4;
#X connect 55 0 30 0;
#X connect 56 0 55 0;
#X connect 57 0 55 1;
#X connect 58 0 55 3;
#X connect 59 0 55 2;
#X connect 60 0 19 0;
#X connect 61 1 63 0;
#X connect 63 1 64 0;
#X connect 64 1 65 0;
#X connect 67 0 61 0;
#X connect 68 0 66 0;
#X connect 68 1 69 0;
#X connect 68 2 72 0;
#X connect 70 0 71 0;
#X connect 71 0 67 0;
#X connect 71 1 62 0;
#X connect 72 1 61 0;
#X connect 73 0 46 0;
#X coords 0 722 1 721 147 70 0;
