#N canvas 0 30 762 722 10;
#X obj 353 679 namecanvas \$0-canvas;
#X obj 455 639 s pd-\$0-gui;
#X obj 594 630 s \$0-canvas;
#X obj 402 611 sdDynPatch;
#X obj 537 605 sdDynPatch;
#X obj 288 547 s \$1;
#X msg 307 451 clear \, draw;
#X msg 311 476 clear;
#N canvas 0 30 844 722 \$0-gui 0;
#X coords 0 0 1 1 257 219 2 0 0;
#X restore 0 20 pd \$0-gui;
#X obj 504 415 t b a;
#X obj 504 392 r \$0-header;
#X obj 294 506 sdGui_combined_ui;
#X obj 438 557 sdGui_box_helper;
#X obj 298 7 inlet;
#X obj 324 241 sdProperty header \$0 1 intern, f 17;
#X obj 328 55 sdObjState \$1 \$2;
#X obj 375 9 r \$0-fromProperties;
#X obj 485 29 r \$1.out;
#X obj 610 195 t a a, f 20;
#N canvas 0 30 681 722 connect 0;
#X obj 37 37 inlet;
#X text 217 373 print info for the dumb user;
#X obj 138 175 t b s;
#X obj 131 219 sdObjConnectTo \$1 \$1;
#X obj 142 138 t s s;
#X obj 131 242 unpack s s;
#X obj 184 165 sdObjConnectTo \$1 \$1;
#X obj 138 266 outlet;
#X msg 203 396 connected \$1 -> \$2;
#X obj 203 420 print \$1;
#X connect 0 0 4 0;
#X connect 2 0 3 0;
#X connect 2 1 3 1;
#X connect 3 0 5 0;
#X connect 3 1 8 0;
#X connect 4 0 2 0;
#X connect 4 1 6 0;
#X connect 5 1 7 0;
#X connect 6 1 8 0;
#X connect 8 0 9 0;
#X restore 674 294 pd connect;
#X obj 727 218 s \$0-fromObj.out;
#X obj 610 219 sdObjTrack dest;
#X obj 610 317 sdObjGetAll \$1 get_with_range;
#X obj 375 32 list;
#X obj 294 362 s \$0-fromProperties;
#X obj 327 337 s \$0-fromDest.generic;
#X obj 375 314 s \$1.out;
#X obj 294 288 sdObjInterface \$3;
#X obj 347 115 sdPackFilter info update;
#X obj 322 78 t a a;
#X obj 371 141 sdPackFilter init;
#X obj 371 166 sdEventToProperties;
#X obj 470 194 sdPackFilter get_all;
#X obj 610 294 symbol;
#X obj 610 243 sdUnPack;
#X obj 470 218 t b;
#X obj 610 271 t s s;
#X obj 274 231 t a a;
#X obj 411 457 r \$0-fromObj.out;
#X obj 423 482 r \$0-fromDest.generic;
#X connect 3 1 1 0;
#X connect 4 1 2 0;
#X connect 6 0 11 0;
#X connect 7 0 11 0;
#X connect 9 0 6 0;
#X connect 9 1 12 1;
#X connect 10 0 9 0;
#X connect 11 0 5 0;
#X connect 11 1 3 0;
#X connect 11 2 12 0;
#X connect 12 0 3 0;
#X connect 12 1 4 0;
#X connect 13 0 15 0;
#X connect 15 0 29 0;
#X connect 15 1 37 0;
#X connect 15 2 18 0;
#X connect 16 0 23 0;
#X connect 17 0 15 2;
#X connect 18 0 21 0;
#X connect 18 1 20 0;
#X connect 21 0 34 0;
#X connect 23 0 15 1;
#X connect 27 0 24 0;
#X connect 27 1 25 0;
#X connect 27 3 26 0;
#X connect 28 1 30 0;
#X connect 29 0 27 1;
#X connect 29 1 28 0;
#X connect 30 0 31 0;
#X connect 30 1 32 0;
#X connect 31 0 27 0;
#X connect 32 0 35 0;
#X connect 33 0 22 0;
#X connect 34 0 36 0;
#X connect 35 0 33 0;
#X connect 36 0 33 0;
#X connect 36 1 19 0;
#X connect 37 0 27 0;
#X connect 37 1 14 0;
#X connect 38 0 11 1;
#X connect 39 0 11 2;
#X coords 0 0 1 1 257 239 1 0 0;
