#N canvas 0 30 681 722 10;
#X obj 285 608 s \$1;
#X obj 300 671 namecanvas \$0-canvas;
#X obj 457 651 s pd-\$0-gui;
#X obj 453 628 sdDynPatch;
#X obj 569 641 s \$0-canvas;
#X obj 567 618 sdDynPatch;
#X floatatom 435 406 5 0 0 0 - - -;
#X msg 435 427 set y \$1 \, clear \, draw;
#N canvas 0 30 681 722 \$0-gui 0;
#X coords 0 0 1 1 162 54 2 0 0;
#X restore 0 20 pd \$0-gui;
#X msg 304 502 clear;
#X msg 285 475 clear \, draw;
#X floatatom 457 457 5 0 0 0 - - -;
#N canvas 0 30 762 736 set 0;
#X obj 37 37 inlet;
#X obj 37 193 outlet;
#X obj 308 100 s2l;
#X obj 308 123 list prepend set properties;
#X obj 308 146 list trim;
#X obj 308 12 inlet;
#X obj 308 35 t b a;
#X msg 242 64 clear \, draw;
#X msg 37 60 set count \$1 \, set properties \, clear \, draw;
#X connect 0 0 8 0;
#X connect 2 0 3 0;
#X connect 3 0 4 0;
#X connect 4 0 1 0;
#X connect 5 0 6 0;
#X connect 6 0 7 0;
#X connect 6 1 2 0;
#X connect 7 0 1 0;
#X connect 8 0 1 0;
#X restore 457 479 pd set count/props;
#X symbolatom 524 456 40 0 0 0 - - -;
#X obj 561 395 t b a;
#X obj 561 372 r \$0-header;
#X obj 313 547 sdGui_bool_ui \$4 \$5 \$6 \$7 \$8 \$9 \$10 \$11;
#X obj 542 576 sdGui_box_helper;
#X obj 388 7 inlet;
#X obj 414 241 sdProperty header \$0 1 intern, f 17;
#X obj 418 55 sdObjState \$1 \$2;
#X obj 465 9 r \$0-fromProperties;
#X obj 575 29 r \$1.out;
#X obj 700 195 t a a, f 20;
#N canvas 0 30 681 722 connect 0;
#X obj 37 37 inlet;
#X text 217 373 print info for the dumb user;
#X obj 138 175 t b s;
#X obj 131 219 sdObjConnectTo \$1 \$1;
#X obj 142 138 t s s;
#X obj 131 242 unpack s s;
#X obj 184 165 sdObjConnectTo \$1 \$1;
#X obj 138 266 outlet;
#X msg 203 396 connected \$1 -> \$2;
#X obj 203 420 print \$1;
#X connect 0 0 4 0;
#X connect 2 0 3 0;
#X connect 2 1 3 1;
#X connect 3 0 5 0;
#X connect 3 1 8 0;
#X connect 4 0 2 0;
#X connect 4 1 6 0;
#X connect 5 1 7 0;
#X connect 6 1 8 0;
#X connect 8 0 9 0;
#X restore 764 294 pd connect;
#X obj 817 218 s \$0-fromObj.out;
#X obj 700 219 sdObjTrack dest;
#X obj 700 317 sdObjGetAll \$1 get_with_range;
#X obj 465 32 list;
#X obj 384 362 s \$0-fromProperties;
#X obj 417 337 s \$0-fromDest.generic;
#X obj 465 314 s \$1.out;
#X obj 384 288 sdObjInterface \$3;
#X obj 437 115 sdPackFilter info update;
#X obj 412 78 t a a;
#X obj 461 141 sdPackFilter init;
#X obj 461 166 sdEventToProperties;
#X obj 560 194 sdPackFilter get_all;
#X obj 700 294 symbol;
#X obj 700 243 sdUnPack;
#X obj 560 218 t b;
#X obj 700 271 t s s;
#X obj 364 231 t a a;
#X obj 445 514 r \$0-fromObj.out;
#X obj 548 516 r \$0-fromDest.generic;
#X connect 3 1 2 0;
#X connect 5 1 4 0;
#X connect 6 0 7 0;
#X connect 7 0 16 0;
#X connect 9 0 16 0;
#X connect 10 0 16 0;
#X connect 11 0 12 0;
#X connect 12 0 16 0;
#X connect 13 0 12 1;
#X connect 14 0 10 0;
#X connect 14 1 17 1;
#X connect 15 0 14 0;
#X connect 16 0 0 0;
#X connect 16 1 3 0;
#X connect 16 2 17 0;
#X connect 17 0 3 0;
#X connect 17 1 5 0;
#X connect 18 0 20 0;
#X connect 20 0 34 0;
#X connect 20 1 42 0;
#X connect 20 2 23 0;
#X connect 21 0 28 0;
#X connect 22 0 20 2;
#X connect 23 0 26 0;
#X connect 23 1 25 0;
#X connect 26 0 39 0;
#X connect 28 0 20 1;
#X connect 32 0 29 0;
#X connect 32 1 30 0;
#X connect 32 3 31 0;
#X connect 33 1 35 0;
#X connect 34 0 32 1;
#X connect 34 1 33 0;
#X connect 35 0 36 0;
#X connect 35 1 37 0;
#X connect 36 0 32 0;
#X connect 37 0 40 0;
#X connect 38 0 27 0;
#X connect 39 0 41 0;
#X connect 40 0 38 0;
#X connect 41 0 38 0;
#X connect 41 1 24 0;
#X connect 42 0 32 0;
#X connect 42 1 19 0;
#X connect 43 0 16 1;
#X connect 44 0 16 2;
#X coords 0 0 1 1 162 74 1 0 0;
