#N canvas 0 30 681 722 10;
#X obj 255 546 s \$1;
#X obj 324 670 namecanvas \$0-canvas;
#N canvas 0 30 681 722 \$0-gui 0;
#X obj 4 4 cnv 5 13 13 empty empty 1: 1 8 0 12 -166441 -65794 0;
#X obj 22 4 cnv 5 90 13 empty 1301-gui.event_name0_rcv start 1 8 0
12 -166441 -65794 0;
#X obj 117 4 bng 13 250 50 0 1301-gui.event_0 empty empty 17 7 0 10
-262144 -1 -1;
#X obj 4 20 cnv 5 13 13 empty empty 2: 1 8 0 12 -166441 -65794 0;
#X obj 22 20 cnv 5 90 13 empty 1301-gui.event_name1_rcv stop 1 8 0
12 -166441 -65794 0;
#X obj 117 20 bng 13 250 50 0 1301-gui.event_1 empty empty 17 7 0 10
-262144 -1 -1;
#X obj 4 36 cnv 5 13 13 empty empty 3: 1 8 0 12 -166441 -65794 0;
#X obj 22 36 cnv 5 90 13 empty 1301-gui.event_name2_rcv - 1 8 0 12
-166441 -65794 0;
#X obj 117 36 bng 13 250 50 0 1301-gui.event_2 empty empty 17 7 0 10
-262144 -1 -1;
#X obj 134 4 nbx 2 10 0 31 0 0 1301-gui.shift 1301-gui.shift_rcv empty
0 -8 1 8 -262144 -1 -1 0 256;
#X obj 134 19 bng 13 250 50 0 1301-gui.dec_shift empty empty 17 7 0
10 -262144 -1 -1;
#X obj 134 37 bng 13 250 50 0 1301-gui.inc_shift empty empty 17 7 0
10 -262144 -1 -1;
#X coords 0 0 1 1 162 54 2 0 0;
#X restore 0 20 pd \$0-gui;
#X obj 395 640 s pd-\$0-gui;
#X obj 576 641 s \$0-canvas;
#X obj 391 605 sdDynPatch;
#X obj 578 608 sdDynPatch;
#X floatatom 306 401 5 0 0 0 - - -;
#X msg 306 423 set y \$1 \, clear \, draw;
#X msg 213 440 clear \, draw;
#X msg 242 465 clear;
#X floatatom 341 448 5 0 0 0 - - -;
#N canvas 0 30 762 736 set 0;
#X obj 37 37 inlet;
#X obj 37 193 outlet;
#X obj 308 100 s2l;
#X obj 308 123 list prepend set properties;
#X obj 308 146 list trim;
#X obj 308 12 inlet;
#X obj 308 35 t b a;
#X msg 242 64 clear \, draw;
#X msg 37 60 set count \$1 \, set properties \, clear \, draw;
#X connect 0 0 8 0;
#X connect 2 0 3 0;
#X connect 3 0 4 0;
#X connect 4 0 1 0;
#X connect 5 0 6 0;
#X connect 6 0 7 0;
#X connect 6 1 2 0;
#X connect 7 0 1 0;
#X connect 8 0 1 0;
#X restore 341 470 pd set count/props;
#X symbolatom 408 447 40 0 0 0 - - -;
#X obj 571 405 t b a;
#X obj 571 382 r \$0-header;
#X obj 255 519 sdGui_events_ui \$4 \$5 \$6 \$7 \$8 \$9 \$10 \$11;
#X obj 512 553 sdGui_box_helper;
#X obj 228 7 inlet;
#X obj 254 241 sdProperty header \$0 1 intern, f 17;
#X obj 258 55 sdObjState \$1 \$2;
#X obj 305 9 r \$0-fromProperties;
#X obj 415 29 r \$1.out;
#X obj 540 195 t a a, f 20;
#N canvas 0 30 681 722 connect 0;
#X obj 37 37 inlet;
#X text 217 373 print info for the dumb user;
#X obj 138 175 t b s;
#X obj 131 219 sdObjConnectTo \$1 \$1;
#X obj 142 138 t s s;
#X obj 131 242 unpack s s;
#X obj 184 165 sdObjConnectTo \$1 \$1;
#X obj 138 266 outlet;
#X msg 203 396 connected \$1 -> \$2;
#X obj 203 420 print \$1;
#X connect 0 0 4 0;
#X connect 2 0 3 0;
#X connect 2 1 3 1;
#X connect 3 0 5 0;
#X connect 3 1 8 0;
#X connect 4 0 2 0;
#X connect 4 1 6 0;
#X connect 5 1 7 0;
#X connect 6 1 8 0;
#X connect 8 0 9 0;
#X restore 604 294 pd connect;
#X obj 657 218 s \$0-fromObj.out;
#X obj 540 219 sdObjTrack dest;
#X obj 540 317 sdObjGetAll \$1 get_with_range;
#X obj 305 32 list;
#X obj 224 362 s \$0-fromProperties;
#X obj 257 337 s \$0-fromDest.generic;
#X obj 305 314 s \$1.out;
#X obj 224 288 sdObjInterface \$3;
#X obj 277 115 sdPackFilter info update;
#X obj 252 78 t a a;
#X obj 301 141 sdPackFilter init;
#X obj 301 166 sdEventToProperties;
#X obj 400 194 sdPackFilter get_all;
#X obj 540 294 symbol;
#X obj 540 243 sdUnPack;
#X obj 400 218 t b;
#X obj 540 271 t s s;
#X obj 204 231 t a a;
#X obj 391 496 r \$0-fromObj.out;
#X obj 527 496 r \$0-fromDest.generic;
#X connect 5 1 3 0;
#X connect 6 1 4 0;
#X connect 7 0 8 0;
#X connect 8 0 16 0;
#X connect 9 0 16 0;
#X connect 10 0 16 0;
#X connect 11 0 12 0;
#X connect 12 0 16 0;
#X connect 13 0 12 1;
#X connect 14 0 9 0;
#X connect 14 1 17 1;
#X connect 15 0 14 0;
#X connect 16 0 0 0;
#X connect 16 1 5 0;
#X connect 16 2 17 0;
#X connect 17 0 5 0;
#X connect 17 1 6 0;
#X connect 18 0 20 0;
#X connect 20 0 34 0;
#X connect 20 1 42 0;
#X connect 20 2 23 0;
#X connect 21 0 28 0;
#X connect 22 0 20 2;
#X connect 23 0 26 0;
#X connect 23 1 25 0;
#X connect 26 0 39 0;
#X connect 28 0 20 1;
#X connect 32 0 29 0;
#X connect 32 1 30 0;
#X connect 32 3 31 0;
#X connect 33 1 35 0;
#X connect 34 0 32 1;
#X connect 34 1 33 0;
#X connect 35 0 36 0;
#X connect 35 1 37 0;
#X connect 36 0 32 0;
#X connect 37 0 40 0;
#X connect 38 0 27 0;
#X connect 39 0 41 0;
#X connect 40 0 38 0;
#X connect 41 0 38 0;
#X connect 41 1 24 0;
#X connect 42 0 32 0;
#X connect 42 1 19 0;
#X connect 43 0 16 1;
#X connect 44 0 16 2;
#X coords 0 0 1 1 162 74 1 0 0;
