#N canvas 0 30 681 722 10;
#N canvas 0 30 681 736 properties 0;
#X obj 21 23 inlet;
#X obj 70 118 sdUnPack;
#X obj 70 93 sdFilter update_bool;
#X obj 161 333 r \$0-props;
#X obj 161 356 sdSetSelector set;
#X obj 111 387 sdList find;
#X msg 103 352 find \$1;
#X obj 60 429 sdGate;
#X obj 112 426 != -1;
#X obj 164 488 send;
#X obj 72 279 unpack f s f;
#X obj 39 341 f;
#X obj 45 255 t b a;
#X msg 57 457 set \$1;
#X obj 119 186 sdGate;
#X obj 173 139 r \$0-props;
#X obj 173 162 list length;
#X floatatom 169 185 5 0 0 0 - - -;
#X obj 192 429 pack f \$0;
#X msg 187 464 symbol \$2-gui.bool_prop\$1_rcv;
#X text 532 304 index \, name \, value;
#X obj 512 327 t a a;
#X obj 592 379 list split 1;
#X obj 599 435 pack f \$0;
#X msg 594 470 symbol \$2-gui.bool_prop\$1_rcv;
#X obj 546 516 send;
#X obj 430 425 sdGate;
#X obj 477 424 < 4;
#X obj 505 421 r \$0-count;
#X obj 453 364 list split 2;
#X obj 430 448 sdSetSelector set;
#X floatatom 552 455 5 0 0 0 - - -;
#X connect 0 0 2 0;
#X connect 1 0 14 0;
#X connect 2 0 1 0;
#X connect 3 0 4 0;
#X connect 4 0 5 0;
#X connect 5 0 8 0;
#X connect 5 0 18 0;
#X connect 6 0 5 0;
#X connect 7 0 13 0;
#X connect 8 0 7 1;
#X connect 10 1 6 0;
#X connect 10 2 11 1;
#X connect 11 0 7 0;
#X connect 12 0 11 0;
#X connect 12 1 10 0;
#X connect 13 0 9 0;
#X connect 14 0 12 0;
#X connect 14 1 21 0;
#X connect 15 0 16 0;
#X connect 16 0 14 1;
#X connect 16 0 17 0;
#X connect 18 0 19 0;
#X connect 19 0 9 1;
#X connect 21 0 29 0;
#X connect 21 1 22 0;
#X connect 22 0 23 0;
#X connect 22 0 27 0;
#X connect 23 0 24 0;
#X connect 24 0 25 1;
#X connect 26 0 30 0;
#X connect 27 0 26 1;
#X connect 28 0 27 1;
#X connect 28 0 31 0;
#X connect 29 1 26 0;
#X connect 30 0 25 0;
#X restore 618 300 pd properties -> gui;
#X obj 536 521 sdPackFromHuman;
#X obj 504 617 outlet gui->obj;
#X obj 485 310 sdUnPack;
#X floatatom 475 41 5 0 0 0 - - -;
#X msg 504 383 list get_all 0;
#X obj 499 334 t b f;
#X obj 523 473 t f;
#X obj 492 158 inlet bool_props;
#X obj 495 179 sdObjTrack boolProps;
#X obj 475 18 r \$0-shift;
#X obj 589 360 s \$0-shift;
#X obj 476 84 r \$0-shift;
#X obj 523 426 r \$0-gui.shift;
#X msg 536 498 list set ( boolShift ( \$1 ) );
#N canvas 0 30 681 736 gui.props 0;
#X obj 226 46 pack 0 0;
#X obj 231 98 pack 0 1;
#X obj 236 147 pack 0 2;
#X obj 241 197 pack 0 3;
#X obj 250 254 pack 0 4;
#X obj 255 306 pack 0 5;
#X obj 260 355 pack 0 6;
#X obj 264 405 pack 0 7;
#X obj 225 681 outlet;
#X obj 226 22 r \$0-gui.bool_prop0;
#X obj 231 75 r \$0-gui.bool_prop1;
#X obj 236 123 r \$0-gui.bool_prop2;
#X obj 241 174 r \$0-gui.bool_prop3;
#X obj 250 230 r \$0-gui.bool_prop4;
#X obj 255 283 r \$0-gui.bool_prop5;
#X obj 260 331 r \$0-gui.bool_prop6;
#X obj 265 382 r \$0-gui.bool_prop7;
#N canvas 0 30 681 736 calc 0;
#X obj 431 288 pack;
#X obj 430 264 swap, f 13;
#X obj 435 232 sdGate;
#X obj 496 211 r \$0-count;
#X obj 468 210 < 1;
#X obj 171 74 sdGate;
#X obj 217 54 r \$0-props;
#X obj 217 77 list length;
#X obj 460 166 unpack;
#X obj 184 381 sdList;
#X obj 217 326 r \$0-props;
#X obj 217 349 sdSetSelector set;
#X msg 149 352 get \$1;
#X obj 121 419 sdGate;
#X msg 239 423 0;
#X msg 196 407 1;
#X obj 114 323 unpack;
#X obj 121 440 sdPack prop;
#X obj 121 486 sdPack send;
#X obj 104 295 t a b;
#X obj 165 36 inlet;
#X obj 385 591 outlet;
#X obj 121 463 sdPack set;
#X obj 431 312 sdPack set_bool_by_ind;
#X connect 0 0 23 0;
#X connect 1 0 0 0;
#X connect 1 1 0 1;
#X connect 2 0 1 0;
#X connect 3 0 4 1;
#X connect 4 0 2 1;
#X connect 5 0 19 0;
#X connect 5 1 8 0;
#X connect 6 0 7 0;
#X connect 7 0 5 1;
#X connect 8 0 2 0;
#X connect 8 1 1 1;
#X connect 8 1 4 0;
#X connect 9 0 15 0;
#X connect 9 0 17 1;
#X connect 10 0 11 0;
#X connect 11 0 9 0;
#X connect 12 0 9 0;
#X connect 13 0 17 0;
#X connect 14 0 13 1;
#X connect 15 0 13 1;
#X connect 16 0 13 0;
#X connect 16 1 12 0;
#X connect 17 0 22 0;
#X connect 18 0 21 0;
#X connect 19 0 16 0;
#X connect 19 1 14 0;
#X connect 20 0 5 0;
#X connect 22 0 18 0;
#X connect 23 0 21 0;
#X restore 224 542 pd calc msg;
#X obj 218 486 t a, f 12;
#X connect 0 0 18 0;
#X connect 1 0 18 0;
#X connect 2 0 18 0;
#X connect 3 0 18 0;
#X connect 4 0 18 0;
#X connect 5 0 18 0;
#X connect 6 0 18 0;
#X connect 7 0 18 0;
#X connect 9 0 0 0;
#X connect 10 0 1 0;
#X connect 11 0 2 0;
#X connect 12 0 3 0;
#X connect 13 0 4 0;
#X connect 14 0 5 0;
#X connect 15 0 6 0;
#X connect 16 0 7 0;
#X connect 17 0 8 0;
#X connect 18 0 17 0;
#X restore 530 588 pd gui.props -> obj;
#N canvas 0 30 681 736 shift-> 0;
#X obj 86 49 inlet;
#X msg 231 247 set \$1;
#X obj 181 313 s \$0-gui.shift_rcv;
#X connect 0 0 1 0;
#X connect 1 0 2 0;
#X restore 476 107 pd shift-> gui;
#X obj 663 162 inlet update;
#X obj 605 207 r \$0-shift;
#N canvas 0 30 681 722 set 0;
#X obj 143 182 sdUnPack;
#X obj 148 274 sdList;
#X msg 113 242 serialize;
#X msg 186 243 clear;
#X obj 143 205 t b a b;
#X msg 267 246 0;
#X obj 317 382 t a b;
#X obj 359 629 send;
#X msg 267 504 label \$1;
#N canvas 0 30 721 722 gui 0;
#X obj 43 9 inlet;
#X obj 74 149 until;
#X msg 144 138 0;
#X obj 79 220 pack f \$0;
#X obj 81 61 t b b, f 11;
#X obj 74 184 sdCounter -1;
#X msg 79 259 \; \$2-gui.bool_prop_name\$1_rcv label - \; \$2-gui.bool_prop\$1_rcv
set 0 \;;
#X obj 66 120 f;
#X obj 81 94 r \$0-count;
#X connect 0 0 4 0;
#X connect 1 0 5 0;
#X connect 2 0 5 0;
#X connect 3 0 6 0;
#X connect 4 0 7 0;
#X connect 4 1 2 0;
#X connect 5 0 3 0;
#X connect 7 0 1 0;
#X connect 8 0 7 1;
#X restore 243 173 pd gui clear props;
#X obj 179 143 t a b;
#X obj 411 597 sdReplace \$0;
#X obj 366 400 sdCounter -1;
#X obj 100 24 inlet;
#X obj 453 28 inlet prop_shift;
#X obj 273 479 sdGate;
#X obj 366 423 - 0;
#X obj 453 55 t f;
#X obj 311 454 expr $f1 >= 0 && $f1 < $f2;
#X msg 411 574 symbol %0-gui.bool_prop_name\$1_rcv;
#X obj 576 27 inlet;
#X obj 471 432 r \$0-count;
#X obj 148 348 sdGate;
#X obj 183 298 r \$0-props;
#X obj 183 323 list length;
#X floatatom 254 349 5 0 0 0 - - -;
#X obj 169 436 r \$0-props;
#X obj 169 459 sdSetSelector set;
#X obj 116 488 sdList find;
#X msg 111 455 find \$1;
#X obj 84 432 t s s;
#X msg 65 560 label \$1;
#X obj 68 532 sdGate;
#X obj 120 529 != -1;
#X connect 0 0 4 0;
#X connect 1 0 22 0;
#X connect 2 0 1 0;
#X connect 3 0 1 0;
#X connect 4 0 2 0;
#X connect 4 1 1 1;
#X connect 4 2 3 0;
#X connect 4 2 5 0;
#X connect 5 0 12 0;
#X connect 6 0 15 0;
#X connect 6 1 12 0;
#X connect 8 0 7 0;
#X connect 10 0 0 0;
#X connect 10 1 9 0;
#X connect 11 0 7 1;
#X connect 12 0 16 0;
#X connect 13 0 10 0;
#X connect 14 0 17 0;
#X connect 15 0 8 0;
#X connect 16 0 19 0;
#X connect 16 0 18 0;
#X connect 17 0 16 1;
#X connect 18 0 15 1;
#X connect 19 0 11 0;
#X connect 20 0 9 0;
#X connect 21 0 18 1;
#X connect 22 0 30 0;
#X connect 22 1 6 0;
#X connect 23 0 24 0;
#X connect 24 0 22 1;
#X connect 24 0 25 0;
#X connect 26 0 27 0;
#X connect 27 0 28 0;
#X connect 28 0 33 0;
#X connect 28 0 19 0;
#X connect 29 0 28 0;
#X connect 30 0 32 0;
#X connect 30 1 29 0;
#X connect 31 0 7 0;
#X connect 32 0 31 0;
#X connect 33 0 32 1;
#X restore 496 239 pd set gui.props;
#X obj 485 285 sdObjTrack boolShift;
#X msg 649 237 clear;
#N canvas 0 30 681 722 things 0;
#X obj 490 203 f;
#X obj 542 204 f;
#X obj 489 129 r \$0-gui.inc_shift;
#X obj 537 153 r \$0-gui.dec_shift;
#N canvas 0 30 681 736 numShift-> 0;
#X obj 86 49 inlet;
#X msg 181 288 2;
#X obj 181 313 s \$0-gui.num_shift_rcv;
#X connect 0 0 1 0;
#X connect 1 0 2 0;
#X restore 171 468 pd numShift-> gui;
#X floatatom 292 472 5 0 0 0 - - -;
#X obj 542 226 - 1;
#X obj 490 226 + 1;
#X obj 587 198 r \$0-count;
#X obj 271 506 r \$0-count;
#X floatatom 271 529 5 0 0 0 - - -;
#X obj 172 530 r \$0-properties;
#X obj 172 553 l2s;
#X symbolatom 172 576 20 0 0 0 - - -;
#X obj 172 627 l2s;
#X symbolatom 172 650 20 0 0 0 - - -;
#X obj 172 604 r \$0-props;
#X obj 491 250 s \$0-gui.shift_rcv;
#X obj 171 445 r \$0-shift;
#X obj 292 449 r \$0-shift;
#X obj 561 174 r \$0-shift;
#X connect 0 0 7 0;
#X connect 1 0 6 0;
#X connect 2 0 0 0;
#X connect 3 0 1 0;
#X connect 6 0 17 0;
#X connect 7 0 17 0;
#X connect 8 0 6 1;
#X connect 8 0 7 1;
#X connect 9 0 10 0;
#X connect 11 0 12 0;
#X connect 12 0 13 0;
#X connect 14 0 15 0;
#X connect 16 0 14 0;
#X connect 19 0 5 0;
#X connect 20 0 1 1;
#X connect 20 0 0 1;
#X restore 90 654 pd things;
#X msg 409 424 clear;
#X obj 224 176 r \$0-properties;
#X obj 171 221 s \$0-props;
#X obj 224 199 t a a;
#X obj 251 221 list length;
#X obj 251 244 t f f;
#X obj 195 322 sdGate;
#X obj 243 311 != 0;
#X obj 251 282 t f f;
#X obj 195 369 s \$0-count_rcv;
#X msg 195 346 priv.set \$1;
#X obj 569 673 outlet set graph-on-parent;
#X obj 523 643 outlet gui-subpatch;
#X obj 319 310 == 0;
#X floatatom 340 255 5 0 0 0 - - -;
#X floatatom 345 341 5 0 0 0 - - -;
#X msg 275 405 set x \$1;
#X msg 343 404 set y \$1;
#X obj 343 381 r \$0-y;
#X obj 275 382 r \$0-x;
#X obj 106 353 r \$0-count;
#X obj 91 377 f;
#X floatatom 46 401 5 0 0 0 - - -;
#X msg 130 468 clear;
#X obj 91 400 t b f;
#X obj 73 494 sdBoundingBox;
#X obj 227 460 t a a;
#X obj 409 401 r \$0-clear;
#X obj 86 269 t b b;
#X obj 82 523 sdUnEvent x y width height;
#X obj 79 569 sdEvent bounds x y width height;
#X msg 80 546 0;
#X msg 111 546 0;
#X obj 85 243 r \$0-draw;
#X obj 176 545 + 4;
#X obj 143 546 + 4;
#X obj 51 9 inlet;
#X obj 257 73 sdPropertyList properties \$0;
#N canvas 0 30 762 736 arglist 0;
#X obj 244 208 sdList;
#X msg 244 166 serialize \, clear;
#X obj 232 127 t b l;
#X obj 244 231 route symbol;
#X obj 95 24 inlet;
#X obj 232 103 list append \$1 \$2 \$3 \$4 \$5 \$6 \$7 \$8 \$9;
#X obj 174 266 sdList bang;
#X msg 161 233 bang \, clear;
#X obj 174 313 s \$0-properties_rcv;
#X obj 174 289 sdSetSelector priv.set;
#X obj 95 47 t b b;
#X obj 95 144 s \$0-count_rcv;
#X msg 95 121 priv.set \$1;
#X obj 95 72 sdAny \$1;
#X obj 95 95 route float;
#X obj 232 76 t b;
#X connect 0 0 3 0;
#X connect 1 0 0 0;
#X connect 2 0 1 0;
#X connect 2 0 7 0;
#X connect 2 1 0 1;
#X connect 3 0 6 1;
#X connect 4 0 10 0;
#X connect 5 0 2 0;
#X connect 6 0 9 0;
#X connect 7 0 6 0;
#X connect 9 0 8 0;
#X connect 10 0 13 0;
#X connect 10 1 15 0;
#X connect 12 0 11 0;
#X connect 13 0 14 0;
#X connect 14 0 12 0;
#X connect 15 0 5 0;
#X restore 352 22 pd arglist;
#X obj 266 96 sdProperty count \$0 3;
#X obj 273 121 sdProperty x \$0 4 intern;
#X obj 284 146 sdProperty y \$0 4 intern;
#X obj 52 55 s \$0-clear;
#X msg 284 42 init;
#X obj 52 32 route clear draw;
#X obj 89 81 s \$0-draw;
#X obj 284 -5 loadbang;
#X obj 284 18 t b b;
#X obj 161 30 route init;
#X obj 227 437 sdGui_bool_dyn_props \$0;
#X connect 1 0 2 0;
#X connect 3 0 6 0;
#X connect 5 0 2 0;
#X connect 6 0 5 0;
#X connect 6 1 11 0;
#X connect 7 0 14 0;
#X connect 8 0 9 0;
#X connect 8 0 20 0;
#X connect 9 0 19 0;
#X connect 10 0 4 0;
#X connect 12 0 16 0;
#X connect 13 0 7 0;
#X connect 14 0 1 0;
#X connect 15 0 2 0;
#X connect 17 0 0 0;
#X connect 18 0 19 1;
#X connect 20 0 3 0;
#X connect 21 0 19 2;
#X connect 23 0 72 3;
#X connect 24 0 26 0;
#X connect 26 0 25 0;
#X connect 26 1 27 0;
#X connect 27 0 28 0;
#X connect 28 0 31 0;
#X connect 28 1 36 0;
#X connect 28 1 37 0;
#X connect 29 0 33 0;
#X connect 30 0 29 1;
#X connect 31 0 29 0;
#X connect 31 1 30 0;
#X connect 33 0 32 0;
#X connect 36 0 38 0;
#X connect 36 0 72 2;
#X connect 39 0 72 1;
#X connect 40 0 72 1;
#X connect 41 0 40 0;
#X connect 42 0 39 0;
#X connect 43 0 44 1;
#X connect 44 0 45 0;
#X connect 44 0 47 0;
#X connect 46 0 48 0;
#X connect 47 0 48 0;
#X connect 47 1 72 0;
#X connect 48 0 52 0;
#X connect 49 0 48 1;
#X connect 49 1 35 0;
#X connect 50 0 23 0;
#X connect 51 0 44 0;
#X connect 51 1 46 0;
#X connect 52 0 54 0;
#X connect 52 1 55 0;
#X connect 52 2 58 0;
#X connect 52 3 57 0;
#X connect 52 4 53 4;
#X connect 53 0 34 0;
#X connect 54 0 53 0;
#X connect 55 0 53 1;
#X connect 56 0 51 0;
#X connect 57 0 53 3;
#X connect 58 0 53 2;
#X connect 59 0 67 0;
#X connect 60 1 62 0;
#X connect 62 1 63 0;
#X connect 63 1 64 0;
#X connect 66 0 60 0;
#X connect 67 0 65 0;
#X connect 67 1 68 0;
#X connect 67 2 71 0;
#X connect 69 0 70 0;
#X connect 70 0 66 0;
#X connect 70 1 61 0;
#X connect 71 1 60 0;
#X connect 72 0 49 0;
#X coords 0 722 1 721 155 36 0;
