#N canvas 0 30 681 736 10;
#X obj 190 518 sdPackFromHuman;
#X obj 190 542 sdLines;
#X msg 271 497 list clear ( );
#X obj 180 116 until;
#X obj 180 139 sdCounter -1;
#X msg 225 117 0;
#X obj 280 21 inlet;
#X obj 336 23 bng 15 250 50 0 empty empty empty 17 7 0 10 -262144 -1
-1;
#X obj 278 48 t f b;
#X obj 618 15 inlet;
#X obj 138 700 outlet;
#X obj 373 23 inlet;
#X obj 499 26 inlet;
#X obj 137 89 t f f;
#X obj 499 49 s \$0-scroll-props;
#N canvas 0 30 681 352 shift-props 0;
#X obj 37 37 inlet;
#X obj 35 298 outlet;
#X obj 436 99 + 4;
#X obj 436 123 sdEvent box x y, f 23;
#X obj 352 174 sdEventToProperties;
#X obj 115 238 sdVarLookup;
#X obj 103 267 sdReplace \$1;
#X obj 440 27 inlet;
#X floatatom 500 208 5 0 0 0 - - -;
#X floatatom 552 175 5 0 0 0 - - -;
#X obj 436 76 sdUnEvent width y, f 23;
#X obj 481 99 + 0;
#X msg 23 68 list column ( init ( x ( $x ) y ( $y ) height ( 10 ) width
( 10 ) y.border ( 5 ) ) nbx ( digits ( 2 ) snd ( %0-gui.num_shift )
rcv ( %0-gui.num_shift_rcv ) min ( 0 ) max ( 31 ) ) bang ( width (
13 ) height ( 13 ) snd ( %0-gui.dec_shift ) ) bang ( snd ( %0-gui.inc_shift
) ) );
#X connect 0 0 12 0;
#X connect 2 0 3 0;
#X connect 2 0 8 0;
#X connect 3 0 4 0;
#X connect 4 1 5 0;
#X connect 5 0 6 0;
#X connect 6 0 1 0;
#X connect 7 0 10 0;
#X connect 10 0 2 0;
#X connect 10 1 11 0;
#X connect 11 0 3 1;
#X connect 11 0 9 0;
#X connect 12 0 5 0;
#X restore 10 532 pd shift-props;
#X obj 190 451 sdVarLookup;
#X obj 180 162 t b f;
#X obj 191 390 + 1;
#X obj 191 365 t f f;
#X msg 191 413 set index-from1 \$1;
#X msg 218 391 set index \$1;
#X obj 190 474 sdReplace \$1;
#X obj 305 81 s \$0-init;
#X obj 233 95 r \$0-init;
#X obj 331 368 r \$0-init;
#X obj 331 391 t b b;
#X obj 91 508 sdBoundingBox;
#X obj 190 565 t a a;
#X msg 107 484 clear;
#X obj 107 461 r \$0-init;
#X obj 11 433 t b b;
#X obj 18 556 sdPackFromHuman;
#X obj 18 580 sdLines;
#X obj 11 409 sdGate;
#X obj 44 386 r \$0-scroll-props;
#X msg 169 187 list line ( init ( x ( $x ) width ( 13 ) height ( 13
) x.border ( 5 ) y.border ( 5 ) ) canvas ( label ( $(index-from1):
) ) canvas ( width ( 90 ) label ( - ) rcv ( %0-gui.numPropName$(index)_rcv
) ) nbx ( snd ( %0-gui.numProp$(index) ) rcv ( %0-gui.numProp$(index)_rcv
) digits ( 6 ) ) nbx ( snd ( %0-gui.num_step$(index) ) rcv ( %0-gui.num_step$(index)_rcv
) digits ( 3 ) ) ) line ( init ( x ( $x ) height ( 10 ) y.border (
5 ) ) nbx ( snd ( %0-gui.num_min$(index) ) rcv ( %0-gui.num_min$(index)_rcv
) digits ( 5 ) ) hsl ( snd ( %0-gui.scroll.numProp$(index) ) rcv (
%0-gui.scroll.numProp$(index)_rcv ) width ( 127 ) ) nbx ( snd ( %0-gui.num_max$(index)
) rcv ( %0-gui.num_max$(index)_rcv ) digits ( 5 ) ) );
#X obj 373 46 s \$0-vars;
#X obj 269 450 r \$0-vars;
#X obj 618 38 s \$0-clear;
#X obj 271 474 r \$0-clear;
#X msg 331 413 list init ( x ( $x ) y ( $y ) width ( 13 ) height (
13 ) x.border ( 5 ) y.border ( 5 ) );
#X connect 0 0 1 0;
#X connect 1 0 28 0;
#X connect 2 0 0 0;
#X connect 3 0 4 0;
#X connect 4 0 17 0;
#X connect 5 0 4 0;
#X connect 6 0 8 0;
#X connect 7 0 8 0;
#X connect 8 0 13 0;
#X connect 8 1 23 0;
#X connect 9 0 39 0;
#X connect 11 0 37 0;
#X connect 12 0 14 0;
#X connect 13 0 34 0;
#X connect 13 1 3 0;
#X connect 15 0 32 0;
#X connect 16 0 22 0;
#X connect 17 0 36 0;
#X connect 17 1 19 0;
#X connect 18 0 20 0;
#X connect 19 0 18 0;
#X connect 19 1 21 0;
#X connect 20 0 16 0;
#X connect 21 0 16 0;
#X connect 22 0 0 0;
#X connect 24 0 5 0;
#X connect 25 0 26 0;
#X connect 26 0 41 0;
#X connect 26 1 1 1;
#X connect 27 0 15 1;
#X connect 28 0 27 1;
#X connect 28 1 10 0;
#X connect 29 0 27 0;
#X connect 30 0 29 0;
#X connect 31 0 15 0;
#X connect 31 1 27 0;
#X connect 32 0 33 0;
#X connect 33 0 10 0;
#X connect 34 0 31 0;
#X connect 35 0 34 1;
#X connect 36 0 16 0;
#X connect 38 0 16 0;
#X connect 40 0 2 0;
#X connect 41 0 16 0;
