#N canvas 0 30 681 722 10;
#X obj 265 546 s \$1;
#X obj 287 682 namecanvas \$0-canvas;
#N canvas 0 30 681 722 \$0-gui 0;
#X obj 4 4 cnv 5 164 13 empty 1170-gui.events0_rcv start-stop 1 8 0
12 -166441 -65794 0;
#X obj 4 22 bng 13 250 50 0 1170-event_0 empty empty 17 7 0 10 -262144
-1 -1;
#X obj 22 22 bng 13 250 50 0 1170-event_1 empty empty 17 7 0 10 -262144
-1 -1;
#X obj 40 22 bng 13 250 50 0 1170-event_2 empty empty 17 7 0 10 -262144
-1 -1;
#X obj 58 22 bng 13 250 50 0 1170-event_3 empty empty 17 7 0 10 -262144
-1 -1;
#X obj 76 22 bng 13 250 50 0 1170-event_4 empty empty 17 7 0 10 -262144
-1 -1;
#X obj 94 22 bng 13 250 50 0 1170-event_5 empty empty 17 7 0 10 -262144
-1 -1;
#X obj 112 22 bng 13 250 50 0 1170-event_6 empty empty 17 7 0 10 -262144
-1 -1;
#X obj 130 22 bng 13 250 50 0 1170-event_7 empty empty 17 7 0 10 -262144
-1 -1;
#X obj 4 40 cnv 5 164 13 empty 1170-gui.events1_rcv empty 1 8 0 12
-166441 -65794 0;
#X obj 4 58 bng 13 250 50 0 1170-event_8 empty empty 17 7 0 10 -262144
-1 -1;
#X obj 22 58 bng 13 250 50 0 1170-event_9 empty empty 17 7 0 10 -262144
-1 -1;
#X obj 40 58 bng 13 250 50 0 1170-event_10 empty empty 17 7 0 10 -262144
-1 -1;
#X obj 58 58 bng 13 250 50 0 1170-event_11 empty empty 17 7 0 10 -262144
-1 -1;
#X obj 76 58 bng 13 250 50 0 1170-event_12 empty empty 17 7 0 10 -262144
-1 -1;
#X obj 94 58 bng 13 250 50 0 1170-event_13 empty empty 17 7 0 10 -262144
-1 -1;
#X obj 112 58 bng 13 250 50 0 1170-event_14 empty empty 17 7 0 10 -262144
-1 -1;
#X obj 130 58 bng 13 250 50 0 1170-event_15 empty empty 17 7 0 10 -262144
-1 -1;
#X coords 0 0 1 1 172 75 2 0 0;
#X restore 0 20 pd \$0-gui;
#X obj 405 640 s pd-\$0-gui;
#X obj 586 641 s \$0-canvas;
#X obj 401 605 sdDynPatch;
#X obj 588 608 sdDynPatch;
#X msg 241 438 init \, clear \, draw;
#X obj 581 405 t b a;
#X obj 581 382 r \$0-header;
#X msg 262 470 clear \, draw;
#X msg 268 404 clear;
#X obj 265 519 sdGui_events_compact_ui \$4 \$5 \$6 \$7 \$8 \$9 \$10
\$11;
#X obj 518 559 sdGui_box_helper;
#X obj 228 7 inlet;
#X obj 254 241 sdProperty header \$0 1 intern, f 17;
#X obj 258 55 sdObjState \$1 \$2;
#X obj 305 9 r \$0-fromProperties;
#X obj 415 29 r \$1.out;
#X obj 540 195 t a a, f 20;
#N canvas 0 30 681 722 connect 0;
#X obj 37 37 inlet;
#X text 217 373 print info for the dumb user;
#X obj 138 175 t b s;
#X obj 131 219 sdObjConnectTo \$1 \$1;
#X obj 142 138 t s s;
#X obj 131 242 unpack s s;
#X obj 184 165 sdObjConnectTo \$1 \$1;
#X obj 138 266 outlet;
#X msg 203 396 connected \$1 -> \$2;
#X obj 203 420 print \$1;
#X connect 0 0 4 0;
#X connect 2 0 3 0;
#X connect 2 1 3 1;
#X connect 3 0 5 0;
#X connect 3 1 8 0;
#X connect 4 0 2 0;
#X connect 4 1 6 0;
#X connect 5 1 7 0;
#X connect 6 1 8 0;
#X connect 8 0 9 0;
#X restore 604 294 pd connect;
#X obj 657 218 s \$0-fromObj.out;
#X obj 540 219 sdObjTrack dest;
#X obj 540 317 sdObjGetAll \$1 get_with_range;
#X obj 305 32 list;
#X obj 224 362 s \$0-fromProperties;
#X obj 257 337 s \$0-fromDest.generic;
#X obj 305 314 s \$1.out;
#X obj 224 288 sdObjInterface \$3;
#X obj 277 115 sdPackFilter info update;
#X obj 252 78 t a a;
#X obj 301 141 sdPackFilter init;
#X obj 301 166 sdEventToProperties;
#X obj 400 194 sdPackFilter get_all;
#X obj 540 294 symbol;
#X obj 540 243 sdUnPack;
#X obj 400 218 t b;
#X obj 540 271 t s s;
#X obj 204 231 t a a;
#X obj 378 482 r \$0-fromObj.out;
#X obj 537 496 r \$0-fromDest.generic;
#X connect 5 1 3 0;
#X connect 6 1 4 0;
#X connect 7 0 12 0;
#X connect 8 0 10 0;
#X connect 8 1 13 1;
#X connect 9 0 8 0;
#X connect 10 0 12 0;
#X connect 11 0 12 0;
#X connect 12 0 0 0;
#X connect 12 1 5 0;
#X connect 12 2 13 0;
#X connect 13 0 5 0;
#X connect 13 1 6 0;
#X connect 14 0 16 0;
#X connect 16 0 30 0;
#X connect 16 1 38 0;
#X connect 16 2 19 0;
#X connect 17 0 24 0;
#X connect 18 0 16 2;
#X connect 19 0 22 0;
#X connect 19 1 21 0;
#X connect 22 0 35 0;
#X connect 24 0 16 1;
#X connect 28 0 25 0;
#X connect 28 1 26 0;
#X connect 28 3 27 0;
#X connect 29 1 31 0;
#X connect 30 0 28 1;
#X connect 30 1 29 0;
#X connect 31 0 32 0;
#X connect 31 1 33 0;
#X connect 32 0 28 0;
#X connect 33 0 36 0;
#X connect 34 0 23 0;
#X connect 35 0 37 0;
#X connect 36 0 34 0;
#X connect 37 0 34 0;
#X connect 37 1 20 0;
#X connect 38 0 28 0;
#X connect 38 1 15 0;
#X connect 39 0 12 1;
#X connect 40 0 12 2;
#X coords 0 0 1 1 172 95 1 0 0;
