#N canvas 0 30 721 722 10;
#X obj 142 13 nbx 2 14 0 31 0 0 \$0-gui.shift \$0-gui.shift_rcv empty
0 -8 1 8 -1 -262144 -1 0 256;
#X obj 12 13 cnv 15 13 13 empty empty 1 1 8 0 10 -191407 -66577 0;
#X obj 12 51 cnv 15 13 13 empty empty 2 1 8 0 10 -191407 -66577 0;
#X obj 12 89 cnv 15 13 13 empty empty 3 1 8 0 10 -191407 -66577 0;
#X obj 12 127 cnv 15 13 13 empty empty 4 1 8 0 10 -191407 -66577 0
;
#X obj 30 13 cnv 15 110 13 empty \$0-gui.sym_prop_name0_rcv - 1 8 0
10 -228856 -66577 0;
#X symbolatom 11 30 22 0 0 0 - #0-gui.sym_prop0_rcv #0-gui.sym_prop0
;
#X obj 30 51 cnv 15 110 13 empty \$0-gui.sym_prop_name1_rcv - 1 8 0
10 -228856 -66577 0;
#X symbolatom 11 68 22 0 0 0 - #0-gui.sym_prop1_rcv #0-gui.sym_prop1
;
#X obj 30 89 cnv 15 110 13 empty \$0-gui.sym_prop_name2_rcv - 1 8 0
10 -228856 -66577 0;
#X symbolatom 11 106 22 0 0 0 - #0-gui.sym_prop2_rcv #0-gui.sym_prop2
;
#X obj 30 127 cnv 15 110 13 empty \$0-gui.sym_prop_name3_rcv - 1 8
0 10 -228856 -66577 0;
#X symbolatom 11 144 22 0 0 0 - #0-gui.sym_prop3_rcv #0-gui.sym_prop3
;
#N canvas 0 30 721 722 properties 0;
#X obj 21 23 inlet;
#X obj 81 92 sdFilter update_sym;
#X obj 81 116 sdUnPack;
#X obj 161 333 r \$0-props;
#X obj 161 356 sdSetSelector set;
#X obj 111 387 sdList find;
#X msg 103 352 find \$1;
#X obj 50 420 sdGate;
#X obj 102 417 != -1;
#X obj 164 509 send;
#X obj 44 229 t b a;
#X msg 82 474 set \$1;
#X obj 119 184 sdGate;
#X obj 173 139 r \$0-props;
#X obj 173 162 list length;
#X floatatom 169 185 5 0 0 0 - - -;
#X obj 192 429 pack f \$0;
#X text 384 175 index \, prop \, values;
#X obj 369 221 t a a;
#X obj 540 257 list split 1;
#X obj 388 378 send, f 22;
#X obj 542 284 pack f \$0;
#X obj 388 309 sdGate;
#X obj 435 308 < 4;
#X obj 467 309 r \$0-count;
#X obj 388 331 l2s;
#X msg 542 307 symbol \$2-gui.sym_prop\$1_rcv;
#X msg 388 354 set \$1;
#X obj 71 252 list split 2;
#X obj 113 280 unpack f s;
#X msg 187 464 symbol \$2-gui.sym_prop\$1_rcv;
#X obj 39 341 list;
#X obj 354 254 list split 2;
#X obj 50 443 l2s;
#X connect 0 0 1 0;
#X connect 1 0 2 0;
#X connect 2 0 12 0;
#X connect 3 0 4 0;
#X connect 4 0 5 0;
#X connect 5 0 8 0;
#X connect 5 0 16 0;
#X connect 6 0 5 0;
#X connect 7 0 33 0;
#X connect 8 0 7 1;
#X connect 10 0 31 0;
#X connect 10 1 28 0;
#X connect 11 0 9 0;
#X connect 12 0 10 0;
#X connect 12 1 18 0;
#X connect 13 0 14 0;
#X connect 14 0 12 1;
#X connect 14 0 15 0;
#X connect 16 0 30 0;
#X connect 18 0 32 0;
#X connect 18 1 19 0;
#X connect 19 0 21 0;
#X connect 19 0 23 0;
#X connect 21 0 26 0;
#X connect 22 0 25 0;
#X connect 23 0 22 1;
#X connect 24 0 23 1;
#X connect 25 0 27 0;
#X connect 26 0 20 1;
#X connect 27 0 20 0;
#X connect 28 0 29 0;
#X connect 28 1 31 1;
#X connect 29 1 6 0;
#X connect 30 0 9 1;
#X connect 31 0 7 0;
#X connect 32 1 22 0;
#X connect 33 0 11 0;
#X restore 527 197 pd properties -> gui;
#X obj 150 47 bng 13 250 50 0 \$0-gui.inc_shift empty empty 17 7 0
10 -262144 -1 -262144;
#X obj 150 31 bng 13 250 50 0 \$0-gui.dec_shift empty empty 17 7 0
10 -262144 -1 -1;
#X obj 16 430 f;
#X obj 68 431 f;
#X obj 15 356 r \$0-gui.inc_shift;
#X obj 63 380 r \$0-gui.dec_shift;
#X obj 415 418 sdPackFromHuman;
#X obj 382 556 outlet gui->obj;
#X obj 394 207 sdUnPack;
#X floatatom 272 264 5 0 0 0 - - -;
#X msg 383 280 list get_all 0;
#X obj 408 231 t b f;
#X obj 402 370 t f;
#X obj 272 241 r \$0-shift;
#X obj 498 257 s \$0-shift;
#X obj 17 487 s \$0-gui.shift_rcv;
#X obj 135 550 r \$0-shift;
#X obj 402 323 r \$0-gui.shift;
#X obj 408 345 r \$0-gui.scroll.shift;
#N canvas 0 30 721 722 gui.props 0;
#X obj 225 681 outlet;
#X obj 226 22 r \$0-gui.sym_prop0;
#X obj 231 75 r \$0-gui.sym_prop1;
#X obj 236 123 r \$0-gui.sym_prop2;
#X obj 241 174 r \$0-gui.sym_prop3;
#X obj 250 230 r \$0-gui.sym_prop4;
#X obj 255 283 r \$0-gui.sym_prop5;
#X obj 260 331 r \$0-gui.sym_prop6;
#X obj 265 382 r \$0-gui.sym_prop7;
#X obj 225 639 sdPack set_sym_by_ind;
#X obj 226 46 pack s 0;
#X obj 231 98 pack s 1;
#X obj 236 147 pack s 2;
#X obj 241 197 pack s 3;
#X obj 250 254 pack s 4;
#X obj 255 306 pack s 5;
#X obj 260 355 pack s 6;
#X obj 264 405 pack s 7;
#X obj 225 615 pack f s;
#X obj 224 590 f;
#X obj 218 559 t b s;
#X obj 204 527 sdGate;
#X obj 238 506 < 1;
#X obj 283 513 r \$0-count;
#N canvas 0 30 721 722 calc 0;
#X obj 435 232 sdGate;
#X obj 496 211 r \$0-count;
#X obj 468 210 < 1;
#X obj 171 74 sdGate;
#X obj 217 54 r \$0-props;
#X obj 217 77 list length;
#X obj 184 381 sdList;
#X obj 217 326 r \$0-props;
#X obj 217 349 sdSetSelector set;
#X msg 149 352 get \$1;
#X obj 121 419 sdGate;
#X msg 239 423 0;
#X msg 196 407 1;
#X obj 121 440 sdPack prop;
#X obj 121 486 sdPack send;
#X obj 104 295 t a b;
#X obj 165 36 inlet;
#X obj 385 591 outlet;
#X obj 121 463 sdPack set;
#X obj 431 341 sdPack set_sym_by_ind;
#X obj 114 323 unpack s f;
#X obj 460 166 unpack s f;
#X obj 431 317 pack f s;
#X obj 444 292 f;
#X obj 435 255 t b s;
#X connect 0 0 24 0;
#X connect 1 0 2 1;
#X connect 2 0 0 1;
#X connect 3 0 15 0;
#X connect 3 1 21 0;
#X connect 4 0 5 0;
#X connect 5 0 3 1;
#X connect 6 0 12 0;
#X connect 6 0 13 1;
#X connect 7 0 8 0;
#X connect 8 0 6 0;
#X connect 9 0 6 0;
#X connect 10 0 13 0;
#X connect 11 0 10 1;
#X connect 12 0 10 1;
#X connect 13 0 18 0;
#X connect 14 0 17 0;
#X connect 15 0 20 0;
#X connect 15 1 11 0;
#X connect 16 0 3 0;
#X connect 18 0 14 0;
#X connect 19 0 17 0;
#X connect 20 0 10 0;
#X connect 20 1 9 0;
#X connect 21 0 0 0;
#X connect 21 1 2 0;
#X connect 21 1 23 1;
#X connect 22 0 19 0;
#X connect 23 0 22 0;
#X connect 24 0 23 0;
#X connect 24 1 22 1;
#X restore 88 618 pd calc msg;
#X obj 218 476 t a;
#X connect 1 0 10 0;
#X connect 2 0 11 0;
#X connect 3 0 12 0;
#X connect 4 0 13 0;
#X connect 5 0 14 0;
#X connect 6 0 15 0;
#X connect 7 0 16 0;
#X connect 8 0 17 0;
#X connect 9 0 0 0;
#X connect 10 0 25 0;
#X connect 11 0 25 0;
#X connect 12 0 25 0;
#X connect 13 0 25 0;
#X connect 14 0 25 0;
#X connect 15 0 25 0;
#X connect 16 0 25 0;
#X connect 17 0 25 0;
#X connect 18 0 9 0;
#X connect 19 0 18 0;
#X connect 20 0 19 0;
#X connect 20 1 18 1;
#X connect 21 0 20 0;
#X connect 22 0 21 1;
#X connect 23 0 22 1;
#X connect 24 0 0 0;
#X connect 25 0 24 0;
#X restore 427 507 pd gui.props -> obj;
#N canvas 0 30 721 736 shift-> 0;
#X obj 86 49 inlet;
#X msg 231 247 set \$1;
#X obj 220 284 s \$0-gui.scroll.shift_rcv;
#X obj 181 313 s \$0-gui.shift_rcv;
#X connect 0 0 1 0;
#X connect 1 0 2 0;
#X connect 1 0 3 0;
#X restore 135 573 pd shift-> gui;
#X obj 572 59 inlet update;
#X obj 514 104 r \$0-shift;
#X obj 88 401 r \$0-shift;
#N canvas 0 30 721 722 set 0;
#X obj 143 182 sdUnPack;
#X obj 148 274 sdList;
#X msg 113 242 serialize;
#X msg 186 243 clear;
#X obj 143 205 t b a b;
#X msg 267 246 0;
#X obj 327 380 t a b;
#X obj 322 632 send;
#X msg 277 502 label \$1;
#N canvas 0 30 721 722 gui 0;
#X obj 43 9 inlet;
#X obj 74 149 until;
#X msg 144 138 0;
#X obj 79 220 pack f \$0;
#X obj 74 71 t b b;
#X obj 74 184 sdCounter -1;
#X msg 79 259 \; \$2-gui.sym_prop_name\$1_rcv label - \; \$2-gui.sym_prop\$1_rcv
set - \;;
#X obj 59 112 f;
#X obj 174 59 r \$0-count;
#X connect 0 0 4 0;
#X connect 1 0 5 0;
#X connect 2 0 5 0;
#X connect 3 0 6 0;
#X connect 4 0 7 0;
#X connect 4 1 2 0;
#X connect 5 0 3 0;
#X connect 7 0 1 0;
#X connect 8 0 7 1;
#X restore 243 173 pd gui clear props;
#X obj 179 143 t a b;
#X obj 369 592 sdReplace \$0;
#X obj 376 398 sdCounter -1;
#X obj 100 24 inlet;
#X obj 453 28 inlet prop_shift;
#X obj 283 477 sdGate;
#X obj 376 421 - 0;
#X obj 453 55 t f;
#X obj 321 452 expr $f1 >= 0 && $f1 < $f2;
#X msg 369 569 symbol %0-gui.sym_prop_name\$1_rcv;
#X obj 589 25 inlet;
#X obj 481 430 r \$0-count;
#X obj 148 348 sdGate;
#X obj 183 298 r \$0-props;
#X obj 183 323 list length;
#X floatatom 254 349 5 0 0 0 - - -;
#X obj 169 436 r \$0-props;
#X obj 169 459 sdSetSelector set;
#X obj 116 488 sdList find;
#X msg 111 455 find \$1;
#X obj 84 432 t s s;
#X msg 65 560 label \$1;
#X obj 68 532 sdGate;
#X obj 120 529 != -1;
#X connect 0 0 4 0;
#X connect 1 0 22 0;
#X connect 2 0 1 0;
#X connect 3 0 1 0;
#X connect 4 0 2 0;
#X connect 4 1 1 1;
#X connect 4 2 3 0;
#X connect 4 2 5 0;
#X connect 5 0 12 0;
#X connect 6 0 15 0;
#X connect 6 1 12 0;
#X connect 8 0 7 0;
#X connect 10 0 0 0;
#X connect 10 1 9 0;
#X connect 11 0 7 1;
#X connect 12 0 16 0;
#X connect 13 0 10 0;
#X connect 14 0 17 0;
#X connect 15 0 8 0;
#X connect 16 0 19 0;
#X connect 16 0 18 0;
#X connect 17 0 16 1;
#X connect 18 0 15 1;
#X connect 19 0 11 0;
#X connect 20 0 9 0;
#X connect 21 0 18 1;
#X connect 22 0 30 0;
#X connect 22 1 6 0;
#X connect 23 0 24 0;
#X connect 24 0 22 1;
#X connect 24 0 25 0;
#X connect 26 0 27 0;
#X connect 27 0 28 0;
#X connect 28 0 33 0;
#X connect 28 0 19 0;
#X connect 29 0 28 0;
#X connect 30 0 32 0;
#X connect 30 1 29 0;
#X connect 31 0 7 0;
#X connect 32 0 31 0;
#X connect 33 0 32 1;
#X restore 405 136 pd set gui.props;
#X obj 68 464 - 4;
#X obj 16 463 + 4;
#X obj 401 55 inlet props;
#X obj 404 76 sdObjTrack symProps;
#X msg 415 395 list set ( symShift ( \$1 ) );
#X obj 394 183 sdObjTrack symShift;
#X msg 564 138 clear;
#X obj 102 434 r \$0-count;
#X obj 209 510 namecanvas \$0-canvas;
#X obj 225 68 inlet;
#X obj 212 115 sdPropertyList properties \$0;
#X obj 226 91 t a a;
#N canvas 0 30 721 722 arglist 0;
#X obj 221 268 sdList;
#X msg 221 226 serialize \, clear;
#X obj 209 187 t b l;
#X obj 221 291 route symbol;
#X obj 44 19 inlet;
#X obj 212 151 list append \$1 \$2 \$3 \$4 \$5 \$6 \$7 \$8 \$9;
#X obj 164 353 sdList bang;
#X msg 99 310 bang \, clear;
#X obj 164 400 s \$0-properties_rcv;
#X obj 164 376 sdSetSelector priv.set;
#X obj 152 36 sdAny \$1;
#X obj 152 59 route float;
#X msg 152 82 priv.set \$1;
#X obj 44 42 t b b;
#X obj 152 105 s \$0-count_rcv;
#X connect 0 0 3 0;
#X connect 1 0 0 0;
#X connect 2 0 1 0;
#X connect 2 0 7 0;
#X connect 2 1 0 1;
#X connect 3 0 6 1;
#X connect 4 0 13 0;
#X connect 5 0 2 0;
#X connect 6 0 9 0;
#X connect 7 0 6 0;
#X connect 9 0 8 0;
#X connect 10 0 11 0;
#X connect 11 0 12 0;
#X connect 12 0 14 0;
#X connect 13 0 5 0;
#X connect 13 1 10 0;
#X restore 280 80 pd arglist;
#X obj 277 58 loadbang;
#X obj 221 138 sdProperty count \$0 3;
#X obj 108 179 r \$0-count;
#X floatatom 108 202 5 0 0 0 - - -;
#X obj 9 203 r \$0-properties;
#X obj 9 226 l2s;
#X symbolatom 9 249 20 0 0 0 - - -;
#X obj 9 300 l2s;
#X symbolatom 9 323 20 0 0 0 - - -;
#X obj 9 277 r \$0-props;
#N canvas 0 30 721 722 set 0;
#X obj 44 69 inlet;
#X obj 444 29 inlet;
#X obj 214 319 s \$0-canvas;
#X floatatom 259 219 5 0 0 0 - - -;
#X obj 187 259 pack 146 f;
#X msg 214 296 donecanvasdialog 0 0 3 0 0 1 1 \$1 \$2 10 10 1 \, dirty
0;
#X obj 259 241 + 0;
#X obj 198 171 t b f;
#X obj 259 197 * 38;
#X connect 0 0 4 0;
#X connect 1 0 7 0;
#X connect 3 0 6 0;
#X connect 4 0 5 0;
#X connect 5 0 2 0;
#X connect 6 0 4 1;
#X connect 7 0 4 0;
#X connect 7 1 8 0;
#X connect 8 0 3 0;
#X restore 230 470 pd set canvas;
#X obj 240 297 r \$0-properties;
#X obj 180 351 s \$0-props;
#X obj 240 320 t a a;
#X obj 267 342 list length;
#X obj 281 368 r \$0-count;
#X obj 281 391 t b f;
#X obj 230 420 expr if(!$f1 \, 155 \, 136) \; if(!$f1 \, $f2 \, $f1)
;
#X obj 335 60 bng 15 250 50 0 empty empty empty 17 7 0 10 -262144 -1
-1;
#X connect 16 0 40 0;
#X connect 17 0 39 0;
#X connect 18 0 16 0;
#X connect 19 0 17 0;
#X connect 20 0 21 0;
#X connect 22 0 25 0;
#X connect 24 0 21 0;
#X connect 25 0 24 0;
#X connect 25 1 28 0;
#X connect 26 0 43 0;
#X connect 27 0 23 0;
#X connect 30 0 34 0;
#X connect 31 0 26 0;
#X connect 32 0 26 0;
#X connect 33 0 21 0;
#X connect 35 0 13 0;
#X connect 36 0 38 1;
#X connect 37 0 17 1;
#X connect 37 0 16 1;
#X connect 39 0 29 0;
#X connect 40 0 29 0;
#X connect 41 0 42 0;
#X connect 41 0 44 0;
#X connect 42 0 38 0;
#X connect 43 0 20 0;
#X connect 44 0 22 0;
#X connect 45 0 38 2;
#X connect 46 0 39 1;
#X connect 46 0 40 1;
#X connect 48 0 50 0;
#X connect 49 1 53 0;
#X connect 50 0 49 0;
#X connect 52 0 51 0;
#X connect 54 0 55 0;
#X connect 56 0 57 0;
#X connect 57 0 58 0;
#X connect 59 0 60 0;
#X connect 61 0 59 0;
#X connect 63 0 65 0;
#X connect 65 0 64 0;
#X connect 65 1 66 0;
#X connect 66 0 69 0;
#X connect 67 0 68 0;
#X connect 68 0 69 0;
#X connect 68 1 69 1;
#X connect 69 0 62 0;
#X connect 69 1 62 1;
#X connect 70 0 51 0;
#X coords 0 0 1 1 155 76 2 10 10;
