#N canvas 0 30 844 722 10;
#X obj 204 41 inlet;
#X obj 370 117 t b a;
#X obj 557 45 inlet;
#X obj 370 150 f 1;
#X obj 22 105 t b a;
#X obj 369 227 outlet canvas;
#X obj 21 175 outlet subpatch;
#X obj 22 129 f 3;
#X obj 104 129 sdUnEvent;
#X obj 22 152 sdEvent graph-on-parent mode;
#X obj 438 181 + 20;
#X obj 438 151 sdUnEvent height y;
#X obj 370 204 sdEvent graph-on-parent mode height y;
#X obj 478 182 + 0;
#X obj 534 76 expr if($f1 \, 1 \, 3) \; if($f1 \, 20 \, 0) \; if($f1
\, 0 \, 20) \;;
#X connect 0 0 1 0;
#X connect 0 0 4 0;
#X connect 1 0 3 0;
#X connect 1 1 11 0;
#X connect 2 0 14 0;
#X connect 3 0 12 0;
#X connect 4 0 7 0;
#X connect 4 1 8 0;
#X connect 7 0 9 0;
#X connect 8 0 9 1;
#X connect 9 0 6 0;
#X connect 10 0 12 1;
#X connect 11 0 10 0;
#X connect 11 1 13 0;
#X connect 11 2 12 3;
#X connect 12 0 5 0;
#X connect 13 0 12 2;
#X connect 14 0 3 1;
#X connect 14 1 10 1;
#X connect 14 2 13 1;
