#N canvas 0 30 721 722 10;
#X obj 22 74 hradio 12 1 0 3 \$0-objRadio \$0-objRadio_rcv empty 0
-8 0 10 -262144 -1 -1 0;
#X text 11 57 select obj.:;
#X obj 620 370 r \$0-objRadio;
#X symbolatom 22 91 27 0 0 0 - #0-objName_rcv #0-objName;
#X text 12 621 connections:;
#X text 29 639 ->;
#X symbolatom 50 641 36 0 0 0 - #0-gui.symOut_rcv #0-gui.symOut;
#X obj 93 623 bng 15 250 50 0 \$0-gui.clearOutput empty clear 17 7
0 10 -262144 -1 -1;
#X obj 501 50 inlet;
#X obj 21 25 hradio 12 1 0 2 \$0-groupRadio \$0-groupRadio_rcv empty
0 -8 0 10 -262144 -1 -1 0;
#X symbolatom 21 42 27 0 0 0 - #0-groupName_rcv #0-groupName;
#X obj 621 318 r \$0-groupRadio;
#N canvas 0 30 721 736 properties 0;
#X obj 21 23 inlet;
#X obj 40 69 sdFilter out;
#X obj 40 92 sdUnPack;
#X obj 40 115 l2s;
#X msg 41 163 \; \$2-gui.symOut_rcv set \$1 \;;
#X obj 41 140 list append \$0;
#X connect 0 0 1 0;
#X connect 1 0 2 0;
#X connect 2 0 3 0;
#X connect 3 0 5 0;
#X connect 5 0 4 0;
#X restore 694 198 pd properties -> gui;
#N canvas 0 30 721 736 obj 0;
#X obj 25 11 inlet;
#X obj 31 255 s \$0-groupName_rcv;
#X msg 169 290 number \$1;
#X obj 166 207 sdObjTrack groups;
#X obj 166 230 sdUnPack;
#X obj 166 253 list length;
#X obj 31 208 sdObjTrack group;
#X obj 31 231 sdUnPack;
#X obj 51 57 t a a;
#X obj 173 417 sdUnPack;
#X obj 173 394 sdObjTrack groupIndex;
#X obj 136 31 t a a;
#X msg 173 441 set \$1;
#X obj 460 261 sdUnPack;
#X msg 460 285 set \$1;
#X obj 460 208 sdObjTrack dest;
#X obj 462 313 s \$0-objName_rcv;
#X obj 352 233 sdUnPack;
#X obj 352 210 sdObjTrack objs;
#X obj 352 256 list length;
#X msg 349 295 number \$1;
#X obj 349 319 s \$0-objRadio_rcv;
#X obj 169 314 s \$0-groupRadio_rcv;
#X obj 352 384 sdObjTrack destIndex;
#X obj 175 469 s \$0-groupRadio_rcv;
#X obj 460 231 t a b;
#X obj 681 272 outlet;
#X obj 366 469 outlet;
#X obj 336 424 sdUnPack;
#X connect 0 0 11 0;
#X connect 2 0 22 0;
#X connect 3 0 4 0;
#X connect 4 0 5 0;
#X connect 5 0 2 0;
#X connect 6 0 7 0;
#X connect 7 0 1 0;
#X connect 8 0 6 0;
#X connect 8 1 3 0;
#X connect 9 0 12 0;
#X connect 10 0 9 0;
#X connect 11 0 8 0;
#X connect 11 1 10 0;
#X connect 11 1 18 0;
#X connect 11 1 15 0;
#X connect 11 1 23 0;
#X connect 12 0 24 0;
#X connect 13 0 14 0;
#X connect 14 0 16 0;
#X connect 15 0 25 0;
#X connect 17 0 19 0;
#X connect 18 0 17 0;
#X connect 19 0 20 0;
#X connect 20 0 21 0;
#X connect 23 0 28 0;
#X connect 25 0 13 0;
#X connect 25 1 26 0;
#X connect 28 0 27 0;
#X restore 440 225 pd obj -> GUI;
#N canvas 0 30 721 736 gui 0;
#X obj 42 16 inlet;
#X msg 36 45 list set ( groupIndex ( \$1 ) );
#X obj 36 68 sdPackFromHuman;
#X obj 36 91 s \$1;
#X connect 0 0 1 0;
#X connect 1 0 2 0;
#X connect 2 0 3 0;
#X restore 621 342 pd gui -> \$1;
#N canvas 0 30 721 736 gui 0;
#X obj 42 16 inlet;
#X obj 36 68 sdPackFromHuman;
#X obj 36 91 s \$1;
#X msg 36 45 list set ( destIndex ( \$1 ) );
#X connect 0 0 3 0;
#X connect 1 0 2 0;
#X connect 3 0 1 0;
#X restore 620 394 pd gui -> \$1;
#X obj 501 105 sdObjGroupsInterface_obj \$1 \$2 \$3 \$4 \$5 \$6 \$7
\$8 \$9, f 32;
#X obj 501 143 t a a;
#X obj 528 166 outlet;
#X obj 595 142 t a a;
#X obj 622 165 outlet;
#X obj 690 164 outlet;
#X obj 513 250 s \$0-init;
#X text 10 381 boolean properties:;
#X msg 466 273 set \$1;
#X obj 468 301 s \$0-objRadio_rcv;
#X obj 440 326 s \$0-dest-index;
#X obj 440 248 t f f;
#X msg 506 10 list init 0;
#X obj 352 302 s \$1;
#X obj 595 198 s \$0-gui.update;
#X obj 482 193 s \$0-gui.init;
#X obj 338 58 r \$0-gui.update;
#X obj 351 403 r \$0-gui.update;
#X obj 431 485 s \$1;
#X obj 344 348 r \$0-gui.update;
#X obj 390 494 s \$1;
#X text 151 379 symbol (& list) properties:;
#X obj 403 547 r \$0-gui.update;
#X obj 340 649 s \$1;
#X obj 11 476 sdObjState_events_ui;
#X obj 330 34 r \$0-gui.init;
#X obj 351 327 r \$0-gui.init;
#X obj 390 522 r \$0-gui.init;
#X obj 370 373 r \$0-gui.init;
#X obj 11 114 sdObjState_num_ui 8;
#X obj 10 398 sdObjState_bool_ui 4;
#X obj 166 398 sdObjState_sym_ui 2;
#X obj 478 672 namecanvas \$0-canvas;
#X connect 2 0 15 0;
#X connect 8 0 16 0;
#X connect 11 0 14 0;
#X connect 13 0 27 0;
#X connect 13 1 22 0;
#X connect 16 0 17 0;
#X connect 16 1 19 0;
#X connect 16 2 21 0;
#X connect 17 0 31 0;
#X connect 17 0 13 0;
#X connect 17 1 18 0;
#X connect 19 0 30 0;
#X connect 19 0 12 0;
#X connect 19 1 20 0;
#X connect 24 0 25 0;
#X connect 27 0 26 0;
#X connect 27 1 24 0;
#X connect 28 0 16 0;
#X connect 32 0 45 2;
#X connect 33 0 47 2;
#X connect 35 0 46 2;
#X connect 38 0 40 1;
#X connect 40 0 39 0;
#X connect 41 0 45 1;
#X connect 42 0 46 1;
#X connect 43 0 40 0;
#X connect 44 0 47 1;
#X connect 45 0 29 0;
#X connect 46 0 36 0;
#X connect 47 0 34 0;
#X coords 0 0 1 1 312 538 1 10 10;
