#N canvas 0 30 844 722 10;
#X obj 33 678 outlet gui->obj;
#X obj 584 33 sdFilter events;
#X obj 584 59 sdUnPack;
#X obj 18 434 r \$0-event_0;
#X obj 18 457 f 0;
#X msg 33 653 list send_event_by_ind 1 \$1;
#X obj 46 457 r \$0-event_1;
#X obj 46 480 f 1;
#X obj 75 480 r \$0-event_2;
#X obj 103 503 r \$0-event_3;
#X obj 75 503 f 2;
#X obj 103 526 f 3;
#X obj 132 549 f 4;
#X obj 160 574 f 5;
#X obj 189 596 f 6;
#X obj 132 526 r \$0-event_4;
#X obj 466 36 sdObjTrack dest;
#X obj 466 59 t b;
#X obj 583 8 inlet update;
#X obj 466 12 inlet init;
#X msg 437 195 clear;
#X obj 540 380 s \$0-box;
#X obj 529 654 outlet set graph-on-parent;
#X obj 483 624 outlet gui-subpatch;
#X obj 83 148 f 2;
#N canvas 0 30 681 736 set 0;
#X obj 115 324 sdPackFromHuman;
#X obj 115 347 sdLines;
#X msg 115 288 list graph-on-parent ( x ( 0 ) y ( 0 ) width ( \$1 )
height ( \$2 ) );
#X obj 115 370 sdPackFilter graph-on-parent;
#X obj 129 420 sdDynPatch;
#X obj 115 393 sdEventToProperties;
#X obj 50 27 inlet;
#X obj 129 443 outlet;
#X connect 0 0 1 0;
#X connect 1 0 3 0;
#X connect 2 0 0 0;
#X connect 3 0 5 0;
#X connect 4 0 7 0;
#X connect 5 0 4 0;
#X connect 6 0 2 0;
#X restore 538 535 pd set graph-on-parent;
#X obj 539 512 pack 100 100;
#X obj 598 451 unpack;
#X obj 598 428 r \$0-box;
#X obj 539 476 expr $f2 \; $f1 * $f3 \;;
#X obj 160 551 r \$0-event_5;
#X obj 189 573 r \$0-event_6;
#X obj 218 596 r \$0-event_7;
#X obj 218 619 f 7;
#X msg 545 175 label -;
#N canvas 0 30 885 736 labels 0;
#X obj 113 581 sdSetSelector label;
#X obj 276 187 sdList serialize;
#X obj 199 382 pack s s;
#X obj 286 129 t b l;
#X obj 313 156 sdSetSelector set;
#X msg 244 155 serialize;
#X msg 199 407 symbol \$2-\$1;
#X obj 218 105 t b l;
#X obj 113 491 symbol;
#X obj 329 63 t l b;
#X msg 289 356 symbol;
#X obj 187 346 sdFirst;
#X msg 247 343 1;
#X obj 506 227 t b;
#X obj 313 425 t a;
#X obj 276 211 t a b;
#X obj 303 233 sdCounter -1;
#X msg 373 209 0;
#X obj 240 278 sdGate;
#X obj 369 520 symbol;
#X obj 369 584 sdSetSelector label;
#X obj 100 453 t b b;
#X obj 385 386 pack s s;
#X msg 385 411 symbol \$2-\$1;
#X msg 454 360 symbol;
#X obj 352 350 sdFirst;
#X msg 412 347 1;
#X obj 499 429 t a;
#X obj 303 257 expr floor($f1/4) == 0;
#X obj 321 27 inlet;
#X obj 113 606 s \$0-gui.events0_rcv;
#X obj 369 610 s \$0-gui.events1_rcv;
#X connect 0 0 30 0;
#X connect 1 0 15 0;
#X connect 2 0 6 0;
#X connect 3 0 5 0;
#X connect 3 1 4 0;
#X connect 4 0 1 0;
#X connect 5 0 1 0;
#X connect 6 0 14 0;
#X connect 6 0 8 1;
#X connect 7 0 21 0;
#X connect 7 1 3 0;
#X connect 8 0 0 0;
#X connect 9 0 7 0;
#X connect 9 1 13 0;
#X connect 10 0 2 1;
#X connect 10 0 8 1;
#X connect 11 0 2 1;
#X connect 11 0 8 1;
#X connect 11 1 2 0;
#X connect 12 0 11 1;
#X connect 13 0 10 0;
#X connect 13 0 12 0;
#X connect 13 0 26 0;
#X connect 13 0 24 0;
#X connect 13 0 17 0;
#X connect 14 0 2 1;
#X connect 15 0 18 0;
#X connect 15 1 16 0;
#X connect 16 0 28 0;
#X connect 17 0 16 0;
#X connect 18 0 11 0;
#X connect 18 1 25 0;
#X connect 19 0 20 0;
#X connect 20 0 31 0;
#X connect 21 0 8 0;
#X connect 21 1 19 0;
#X connect 22 0 23 0;
#X connect 23 0 27 0;
#X connect 23 0 19 1;
#X connect 24 0 22 1;
#X connect 24 0 19 1;
#X connect 25 0 22 1;
#X connect 25 0 19 1;
#X connect 25 1 22 0;
#X connect 26 0 25 1;
#X connect 27 0 22 1;
#X connect 28 0 18 1;
#X connect 29 0 9 0;
#X restore 588 108 pd labels;
#X obj 545 198 s \$0-gui.events0_rcv;
#X obj 519 224 s \$0-gui.events1_rcv;
#X obj 540 357 list append 164 37;
#X obj 222 0 inlet;
#X msg 284 189 set x \$1;
#X msg 352 188 set y \$1;
#X obj 352 165 r \$0-y;
#X obj 284 166 r \$0-x;
#X obj 82 195 t f f;
#X obj 237 242 t a a;
#X msg 124 240 clear;
#X obj 67 266 sdBoundingBox;
#X obj 237 219 sdObjState_events_compact_dyn_props \$0;
#X obj 37 60 s \$0-clear;
#X obj 37 37 route clear draw;
#X obj 74 86 s \$0-draw;
#X obj 74 122 r \$0-draw;
#X obj 67 293 sdUnEvent x y width height;
#X obj 66 339 sdEvent bounds x y width height;
#X msg 67 316 0;
#X msg 98 316 0;
#X obj 163 315 + 4;
#X obj 130 316 + 4;
#X obj 420 155 r \$0-clear;
#X obj 377 272 bng 15 250 50 0 empty empty empty 17 7 0 10 -262144
-1 -1;
#X obj 41 134 bng 15 250 50 0 empty empty empty 17 7 0 10 -262144 -1
-1;
#X obj 83 171 t f b;
#N canvas 0 30 762 736 arglist 0;
#X obj 244 208 sdList;
#X msg 244 166 serialize \, clear;
#X obj 232 127 t b l;
#X obj 244 231 route symbol;
#X obj 95 24 inlet;
#X obj 232 103 list append \$1 \$2 \$3 \$4 \$5 \$6 \$7 \$8 \$9;
#X obj 174 266 sdList bang;
#X msg 161 233 bang \, clear;
#X obj 174 313 s \$0-properties_rcv;
#X obj 174 289 sdSetSelector priv.set;
#X obj 95 47 t b b;
#X obj 95 144 s \$0-count_rcv;
#X msg 95 121 priv.set \$1;
#X obj 95 72 sdAny \$1;
#X obj 95 95 route float;
#X obj 232 76 t b;
#X connect 0 0 3 0;
#X connect 1 0 0 0;
#X connect 2 0 1 0;
#X connect 2 0 7 0;
#X connect 2 1 0 1;
#X connect 3 0 6 1;
#X connect 4 0 10 0;
#X connect 5 0 2 0;
#X connect 6 0 9 0;
#X connect 7 0 6 0;
#X connect 9 0 8 0;
#X connect 10 0 13 0;
#X connect 10 1 15 0;
#X connect 12 0 11 0;
#X connect 13 0 14 0;
#X connect 14 0 12 0;
#X connect 15 0 5 0;
#X restore 345 53 pd arglist;
#X obj 266 106 sdProperty x \$0 4 intern;
#X obj 277 131 sdProperty y \$0 4 intern;
#X msg 277 73 init;
#X obj 277 26 loadbang;
#X obj 277 49 t b b;
#X connect 1 0 2 0;
#X connect 2 0 35 0;
#X connect 3 0 4 0;
#X connect 4 0 5 0;
#X connect 5 0 0 0;
#X connect 6 0 7 0;
#X connect 7 0 5 0;
#X connect 8 0 10 0;
#X connect 9 0 11 0;
#X connect 10 0 5 0;
#X connect 11 0 5 0;
#X connect 12 0 5 0;
#X connect 13 0 5 0;
#X connect 14 0 5 0;
#X connect 15 0 12 0;
#X connect 16 0 17 0;
#X connect 17 0 34 0;
#X connect 18 0 1 0;
#X connect 19 0 16 0;
#X connect 20 0 48 3;
#X connect 24 0 62 0;
#X connect 26 0 25 0;
#X connect 27 0 29 1;
#X connect 27 1 29 2;
#X connect 28 0 27 0;
#X connect 29 0 26 0;
#X connect 29 1 26 1;
#X connect 30 0 13 0;
#X connect 31 0 14 0;
#X connect 32 0 33 0;
#X connect 33 0 5 0;
#X connect 34 0 36 0;
#X connect 34 0 37 0;
#X connect 38 0 21 0;
#X connect 39 0 50 0;
#X connect 40 0 48 1;
#X connect 41 0 48 1;
#X connect 42 0 41 0;
#X connect 43 0 40 0;
#X connect 43 0 60 0;
#X connect 44 0 47 0;
#X connect 44 1 48 0;
#X connect 45 0 47 1;
#X connect 45 1 23 0;
#X connect 46 0 47 0;
#X connect 47 0 53 0;
#X connect 48 0 45 0;
#X connect 50 0 49 0;
#X connect 50 1 51 0;
#X connect 50 2 64 0;
#X connect 52 0 24 0;
#X connect 53 0 55 0;
#X connect 53 1 56 0;
#X connect 53 2 58 0;
#X connect 53 3 57 0;
#X connect 53 4 54 4;
#X connect 54 0 22 0;
#X connect 55 0 54 0;
#X connect 56 0 54 1;
#X connect 57 0 54 3;
#X connect 58 0 54 2;
#X connect 59 0 20 0;
#X connect 61 0 24 0;
#X connect 62 0 44 0;
#X connect 62 1 46 0;
#X connect 64 1 65 0;
#X connect 66 0 64 0;
#X connect 67 0 68 0;
#X connect 68 0 66 0;
#X coords 0 722 1 721 147 70 0;
