#N canvas 0 30 681 722 10;
#X obj 189 525 sdPackFromHuman;
#X obj 189 548 sdLines;
#X msg 549 486 list clear ( );
#X obj 180 116 until;
#X obj 180 139 sdCounter -1;
#X msg 225 117 0;
#X obj 280 21 inlet;
#X obj 336 23 bng 15 250 50 0 empty empty empty 17 7 0 10 -262144 -1
-1;
#X obj 278 48 t f b;
#X obj 618 15 inlet;
#X obj 192 651 outlet;
#X obj 433 23 inlet;
#X obj 499 26 inlet;
#X obj 105 92 t f f;
#X obj 499 49 s \$0-scroll-props;
#X obj 189 410 sdVarLookup;
#X obj 189 433 sdReplace \$1;
#X obj 236 348 + 1;
#X obj 236 323 t f f;
#X msg 236 371 set index-from1 \$1;
#X msg 263 348 set index \$1;
#X obj 180 162 t b f;
#X obj 309 75 s \$0-init;
#X obj 225 93 r \$0-init;
#X obj 356 316 r \$0-init;
#X msg 356 362 list init ( x ( $x ) y ( $y ) width ( 13 ) height (
13 ) x.border ( 5 ) y.border ( 5 ) );
#X obj 356 339 t b b;
#N canvas 0 30 681 722 shift-props 0;
#X obj 37 37 inlet;
#X obj 35 298 outlet;
#X obj 436 99 + 4;
#X obj 436 123 sdEvent box x y, f 23;
#X obj 352 174 sdEventToProperties;
#X obj 115 238 sdVarLookup;
#X obj 103 267 sdReplace \$1;
#X obj 440 27 inlet;
#X floatatom 500 208 5 0 0 0 - - -;
#X floatatom 552 175 5 0 0 0 - - -;
#X obj 436 76 sdUnEvent width y, f 23;
#X obj 481 99 + 0;
#X msg 23 68 list column ( init ( x ( $x ) y ( $y ) height ( 10 ) width
( 13 ) y.border ( 5 ) ) nbx ( digits ( 2 ) snd ( %0-gui.shift ) rcv
( %0-gui.shift_rcv ) min ( 0 ) max ( 31 ) ) bang ( width ( 13 ) height
( 13 ) snd ( %0-gui.dec_shift ) ) bang ( snd ( %0-gui.inc_shift ) )
);
#X connect 0 0 12 0;
#X connect 2 0 3 0;
#X connect 2 0 8 0;
#X connect 3 0 4 0;
#X connect 4 1 5 0;
#X connect 5 0 6 0;
#X connect 6 0 1 0;
#X connect 7 0 10 0;
#X connect 10 0 2 0;
#X connect 10 1 11 0;
#X connect 11 0 3 1;
#X connect 11 0 9 0;
#X connect 12 0 5 0;
#X restore 22 477 pd shift-props;
#X obj 52 399 sdBoundingBox;
#X msg 78 368 clear;
#X obj 78 345 r \$0-init;
#X obj 22 326 t b b;
#X obj 30 501 sdPackFromHuman;
#X obj 30 525 sdLines;
#X obj 27 296 sdGate;
#X obj 60 273 r \$0-scroll-props;
#X obj 189 571 t a a;
#X msg 180 189 list line ( init ( x ( $x ) width ( 13 ) height ( 13
) x.border ( 5 ) y.border ( 3 ) ) canvas ( label ( $(index-from1):
) ) canvas ( width ( 90 ) label ( - ) rcv ( %0-gui.event_name$(index)_rcv
) ) bang ( snd ( %0-gui.event_$(index) ) width ( 13 ) ) );
#X connect 0 0 1 0;
#X connect 1 0 36 0;
#X connect 2 0 0 0;
#X connect 3 0 4 0;
#X connect 4 0 21 0;
#X connect 5 0 4 0;
#X connect 6 0 8 0;
#X connect 7 0 8 0;
#X connect 8 0 13 0;
#X connect 8 1 22 0;
#X connect 9 0 2 0;
#X connect 11 0 15 0;
#X connect 12 0 14 0;
#X connect 13 0 34 0;
#X connect 13 1 3 0;
#X connect 15 0 16 0;
#X connect 16 0 0 0;
#X connect 17 0 19 0;
#X connect 18 0 17 0;
#X connect 18 1 20 0;
#X connect 19 0 15 0;
#X connect 20 0 15 0;
#X connect 21 0 37 0;
#X connect 21 1 18 0;
#X connect 23 0 5 0;
#X connect 24 0 26 0;
#X connect 25 0 15 0;
#X connect 26 0 25 0;
#X connect 26 1 1 1;
#X connect 27 0 32 0;
#X connect 28 0 27 1;
#X connect 29 0 28 0;
#X connect 30 0 29 0;
#X connect 31 0 27 0;
#X connect 31 1 28 0;
#X connect 32 0 33 0;
#X connect 33 0 10 0;
#X connect 34 0 31 0;
#X connect 35 0 34 1;
#X connect 36 0 28 1;
#X connect 36 1 10 0;
#X connect 37 0 15 0;
