#N canvas 887 30 477 121 10;
#X obj 27 629 sdDynPatch;
#X obj 27 602 sdEventToProperties;
#X obj 216 475 sdPackFromHuman;
#X obj 27 572 sdLines;
#X msg 564 422 list clear ( );
#X obj 180 116 until;
#X obj 180 139 sdCounter -1;
#X msg 225 117 0;
#X obj 212 10 inlet;
#X obj 336 23 bng 15 250 50 0 empty empty empty 17 7 0 10 -262144 -1
-1;
#X obj 277 138 s \$0-box;
#X obj 228 177 r \$0-box;
#X obj 228 200 unpack;
#X obj 278 67 t f b;
#X obj 198 88 t f b;
#X text 309 329 index \, index+1 \, \$0 \, x \, y \, width \, height
;
#X obj 618 15 inlet;
#X obj 27 653 outlet;
#X obj 433 23 inlet;
#X obj 277 115 list;
#X obj 499 26 inlet;
#X obj 499 49 s \$0-scroll-props;
#X obj 493 640 sdListForEach;
#X obj 598 639 - 8;
#X obj 493 593 r \$0-box;
#X obj 493 616 t b l;
#X obj 180 330 pack 0 0 \$1 0 0 f f;
#X obj 180 222 expr $f1 \; $f1+1 \; 4 \; 4 + $f1 * $f3 \; $f2-8 \;
$f3-8;
#N canvas 0 30 885 736 buttons 1;
#X obj 312 60 inlet box;
#X obj 22 17 inlet line;
#X obj 235 576 sdPack line;
#X obj 235 553 sdData;
#X msg 29 507 bang \, clear;
#X msg 305 456 list init ( x ( \$4 ) width ( 13 ) height ( 13 ) x.border
( 5 ) y.border ( 5 ) );
#X obj 268 512 sdPackFromHuman;
#X obj 82 230 until;
#X obj 82 253 sdCounter -1;
#X obj 82 207 f 8;
#X obj 104 150 t b f;
#X obj 305 425 pack 0 0 \$1 0 0 f f;
#X obj 305 317 expr $f1 \; $f1+1 \; 4 \; 4 + $f1 * $f3 \; $f2-8 \;
$f3-8;
#X obj 353 293 unpack;
#X obj 112 108 t f f;
#X obj 82 444 pack 0 0 \$1 0 0 f f;
#X obj 82 337 expr $f1 \; $f1+1 \; 4 \; 4 + $f1 * $f3 \; $f2-8 \; $f3-8
;
#X obj 130 310 unpack;
#X msg 82 467 list bang ( snd ( \$3-event_\$1 ) );
#X obj 62 70 t b f;
#X obj 235 599 outlet;
#X obj 135 230 t a;
#X obj 131 186 * 8;
#X connect 0 0 13 0;
#X connect 0 0 17 0;
#X connect 1 0 19 0;
#X connect 2 0 20 0;
#X connect 3 0 2 0;
#X connect 4 0 3 0;
#X connect 5 0 6 0;
#X connect 6 0 3 1;
#X connect 7 0 8 0;
#X connect 8 0 16 0;
#X connect 9 0 7 0;
#X connect 10 0 9 0;
#X connect 10 1 22 0;
#X connect 11 0 5 0;
#X connect 12 0 11 0;
#X connect 12 1 11 1;
#X connect 12 2 11 3;
#X connect 12 3 11 4;
#X connect 12 4 11 5;
#X connect 12 5 11 6;
#X connect 13 0 12 1;
#X connect 13 1 12 2;
#X connect 14 0 10 0;
#X connect 14 1 12 0;
#X connect 15 0 18 0;
#X connect 16 0 15 0;
#X connect 16 1 15 1;
#X connect 16 2 15 3;
#X connect 16 3 15 4;
#X connect 16 4 15 5;
#X connect 16 5 15 6;
#X connect 17 0 16 1;
#X connect 17 1 16 2;
#X connect 18 0 6 0;
#X connect 19 0 4 0;
#X connect 19 1 14 0;
#X connect 21 0 8 0;
#X connect 22 0 21 0;
#X restore 62 295 pd buttons;
#X obj 119 271 r \$0-box;
#X obj 27 547 sdData;
#X msg 12 254 bang \, clear;
#X obj 212 33 t b f;
#X msg 180 365 list line ( init ( x ( \$4 ) y ( \$5 ) width ( 13 )
height ( 13 ) x.border ( 5 ) y.border ( 5 ) ) canvas ( width ( \$6
) label ( - ) rcv ( \$3-gui.events\$1_rcv ) ) );
#X obj 180 162 t f f;
#X connect 0 0 17 0;
#X connect 1 0 0 0;
#X connect 1 1 0 1;
#X connect 2 0 30 1;
#X connect 3 0 1 0;
#X connect 4 0 2 0;
#X connect 5 0 6 0;
#X connect 6 0 34 0;
#X connect 7 0 6 0;
#X connect 8 0 32 0;
#X connect 9 0 13 0;
#X connect 11 0 12 0;
#X connect 12 0 27 1;
#X connect 12 1 27 2;
#X connect 13 0 14 0;
#X connect 13 1 4 0;
#X connect 14 0 5 0;
#X connect 14 1 7 0;
#X connect 14 1 19 0;
#X connect 16 0 4 0;
#X connect 18 0 19 1;
#X connect 19 0 10 0;
#X connect 20 0 21 0;
#X connect 22 1 23 0;
#X connect 23 0 22 2;
#X connect 24 0 25 0;
#X connect 25 0 22 0;
#X connect 25 1 22 1;
#X connect 26 0 33 0;
#X connect 27 0 26 0;
#X connect 27 1 26 1;
#X connect 27 2 26 3;
#X connect 27 3 26 4;
#X connect 27 4 26 5;
#X connect 27 5 26 6;
#X connect 28 0 30 1;
#X connect 29 0 28 1;
#X connect 30 0 3 0;
#X connect 31 0 30 0;
#X connect 32 0 31 0;
#X connect 32 1 13 0;
#X connect 33 0 2 0;
#X connect 34 0 28 0;
#X connect 34 1 27 0;
