#N canvas 0 30 681 722 10;
#X obj 348 19 inlet;
#X obj 348 67 s \$0-init-props;
#X obj 447 67 s \$0-update-props;
#X obj 348 43 sdObjInterface_obj \$1 \$2 \$3;
#X obj 431 257 r \$0-init-props;
#X obj 443 282 r \$0-update-props;
#X obj 371 602 namecanvas \$0-canvas;
#X obj 475 439 s pd-\$0-gui;
#X obj 614 430 s \$0-canvas;
#X obj 422 411 sdDynPatch;
#X obj 557 405 sdDynPatch;
#X obj 308 347 s \$1;
#X obj 314 306 sdObjState_combined_ui;
#X msg 327 221 clear \, draw;
#X msg 331 246 clear;
#N canvas 0 30 844 722 \$0-gui 0;
#X coords 0 0 1 1 257 169 2 0 0;
#X restore 0 20 pd \$0-gui;
#X obj 610 40 inlet;
#X obj 676 36 loadbang;
#X msg 676 59 init;
#X obj 561 185 t b a;
#X obj 642 93 sdProperty header \$0 1 intern;
#X obj 561 162 r \$0-header;
#X obj 457 356 sdObjState_box_helper;
#X connect 0 0 3 0;
#X connect 3 0 1 0;
#X connect 3 1 2 0;
#X connect 4 0 12 1;
#X connect 5 0 12 2;
#X connect 9 1 7 0;
#X connect 10 1 8 0;
#X connect 12 0 11 0;
#X connect 12 1 9 0;
#X connect 12 2 22 0;
#X connect 13 0 12 0;
#X connect 14 0 12 0;
#X connect 16 0 20 0;
#X connect 17 0 18 0;
#X connect 18 0 20 0;
#X connect 19 0 13 0;
#X connect 19 1 22 1;
#X connect 21 0 19 0;
#X connect 22 0 9 0;
#X connect 22 1 10 0;
#X coords 0 0 1 1 257 189 1 0 0;
