#N canvas 0 30 681 722 10;
#X obj 431 138 s \$0-init-props;
#X obj 530 138 s \$0-update-props;
#X obj 301 8 r \$0-init-props;
#X obj 404 10 r \$0-update-props;
#X text 417 91 sdObjState_num_ui [prop1 ...];
#X obj 431 114 sdObjInterface_obj \$1 \$2 \$3;
#X obj 478 48 inlet;
#X floatatom 336 262 5 0 0 0 - - -;
#N canvas 0 30 681 722 set 0;
#X obj 37 37 inlet;
#X obj 37 113 outlet;
#X msg 37 60 set count \$1;
#X obj 184 40 s2l;
#X obj 184 63 list prepend set properties;
#X obj 184 86 list trim;
#X obj 184 12 inlet;
#X connect 0 0 2 0;
#X connect 2 0 1 0;
#X connect 3 0 4 0;
#X connect 4 0 5 0;
#X connect 5 0 1 0;
#X connect 6 0 3 0;
#X restore 336 284 pd set count/props;
#X symbolatom 403 261 40 0 0 0 - - -;
#X obj 285 232 s \$1;
#X obj 339 343 namecanvas \$0-canvas;
#N canvas 0 30 681 722 \$0-gui 0;
#X obj 4 4 cnv 5 13 13 empty empty 1. 1 8 0 12 -166441 -65794 0;
#X obj 22 4 cnv 5 90 13 empty 1626-gui.sym_prop_name0_rcv - 1 8 0 12
-166441 -65794 0;
#X symbolatom 4 20 20 0 0 0 - 1626-gui.sym_prop0_rcv 1626-gui.sym_prop0
;
#X obj 4 42 cnv 5 13 13 empty empty 2. 1 8 0 12 -166441 -65794 0;
#X obj 22 42 cnv 5 90 13 empty 1626-gui.sym_prop_name1_rcv - 1 8 0
12 -166441 -65794 0;
#X symbolatom 4 58 20 0 0 0 - 1626-gui.sym_prop1_rcv 1626-gui.sym_prop1
;
#X obj 140 4 nbx 2 10 0 31 0 0 1626-gui.shift 1626-gui.shift_rcv empty
0 -8 1 8 -262144 -1 -1 0 256;
#X obj 140 19 bng 13 250 50 0 1626-gui.dec_shift empty empty 17 7 0
10 -262144 -1 -1;
#X obj 140 34 bng 13 250 50 0 1626-gui.inc_shift empty empty 17 7 0
10 -262144 -1 -1;
#X coords 0 0 1 1 164 76 2 0 0;
#X restore 0 0 pd \$0-gui;
#X obj 435 203 s pd-\$0-gui;
#X obj 550 210 s \$0-canvas;
#X obj 313 171 sdObjState_sym_ui \$4 \$5 \$6 \$7 \$8 \$9 \$10 \$11
;
#X connect 2 0 15 1;
#X connect 3 0 15 2;
#X connect 5 0 0 0;
#X connect 5 1 1 0;
#X connect 6 0 5 0;
#X connect 7 0 8 0;
#X connect 8 0 15 0;
#X connect 9 0 8 1;
#X connect 15 0 10 0;
#X connect 15 1 13 0;
#X connect 15 2 13 0;
#X connect 15 2 14 0;
#X coords 0 0 1 1 164 76 2 0 0;
