#N canvas 0 30 681 736 10;
#X obj 186 525 sdPackFromHuman;
#X obj 186 548 sdLines;
#X msg 549 486 list clear ( );
#X obj 180 116 until;
#X obj 180 139 sdCounter -1;
#X msg 225 117 0;
#X obj 280 21 inlet;
#X obj 336 23 bng 15 250 50 0 empty empty empty 17 7 0 10 -262144 -1
-1;
#X obj 278 48 t f b;
#X obj 618 15 inlet;
#X obj 128 632 outlet;
#X obj 433 23 inlet;
#X obj 499 26 inlet;
#X obj 105 92 t f f;
#X obj 452 109 sdGate;
#X obj 499 49 s \$0-scroll-props;
#X obj 485 86 r \$0-scroll-props;
#N canvas 0 30 681 722 shift-props 0;
#X obj 37 37 inlet;
#X obj 35 250 outlet;
#X msg 34 73 list column ( init ( x ( 140 ) y ( 4 ) height ( 10 ) width
( 10 ) ) nbx ( digits ( 2 ) snd ( \$2-gui.shift ) rcv ( \$2-gui.shift_rcv
) min ( 0 ) max ( 31 ) ) bang ( width ( 13 ) snd ( \$2-gui.dec_shift
) ) bang ( snd ( \$2-gui.inc_shift ) ) );
#X connect 0 0 2 0;
#X connect 2 0 1 0;
#X restore 452 172 pd shift-props;
#X obj 452 138 pack f \$1;
#X obj 433 672 list;
#X obj 467 672 r \$0-box;
#X obj 525 527 r \$0-box;
#X obj 525 550 unpack;
#X obj 433 552 expr $f1 \; $f1+1 \; 4 \; 4 + $f1 * $f3 \;;
#X text 549 595 index \, index+1 \, \$0 \, x \, y \, width \, height
;
#X obj 433 623 pack 0 0 \$1 0 0;
#X msg 434 695 list line ( init ( x ( \$4 ) y ( \$5 ) width ( 13 )
height ( 13 ) x.border ( 5 ) y.border ( 3 ) ) canvas ( label ( \$2.
) ) canvas ( width ( 90 ) label ( - ) rcv ( \$3-gui.sym_prop_name\$1_rcv
) ) ) line ( init ( x ( \$4 ) width ( 13 ) height ( 13 ) digits ( 20
) ) sym ( snd ( \$3-gui.sym_prop\$1 ) rcv ( \$3-gui.sym_prop\$1_rcv
) ) );
#X obj 189 410 sdVarLookup;
#X obj 189 433 sdReplace \$1;
#X obj 263 333 + 1;
#X obj 263 308 t f f;
#X msg 263 356 set index-from1 \$1;
#X msg 290 333 set index \$1;
#X obj 180 162 t b f;
#X obj 394 314 r \$0-init;
#X msg 394 360 list init ( x ( $x ) y ( $y ) width ( 13 ) height (
13 ) x.border ( 5 ) y.border ( 5 ) );
#X obj 394 337 t b b;
#X obj 312 74 s \$0-init;
#X obj 228 94 r \$0-init;
#X msg 176 199 list line ( init ( x ( $x ) width ( 13 ) height ( 13
) x.border ( 5 ) y.border ( 3 ) ) canvas ( label ( $(index-from1):
) ) canvas ( width ( 90 ) label ( - ) rcv ( %0-gui.sym_prop_name$(index)_rcv
) ) ) line ( init ( x ( $x ) width ( 13 ) height ( 18 ) ) sym ( snd
( %0-gui.sym_prop$(index) ) rcv ( %0-gui.sym_prop$(index)_rcv ) digits
( 20 ) ) );
#N canvas 0 30 681 722 shift-props 0;
#X obj 37 37 inlet;
#X obj 35 298 outlet;
#X obj 436 99 + 4;
#X obj 436 123 sdEvent box x y, f 23;
#X obj 352 174 sdEventToProperties;
#X obj 115 238 sdVarLookup;
#X obj 103 267 sdReplace \$1;
#X obj 440 27 inlet;
#X floatatom 500 208 5 0 0 0 - - -;
#X floatatom 552 175 5 0 0 0 - - -;
#X obj 436 76 sdUnEvent width y, f 23;
#X obj 481 99 + 0;
#X msg 23 68 list column ( init ( x ( $x ) y ( $y ) height ( 10 ) width
( 13 ) y.border ( 5 ) ) nbx ( digits ( 2 ) snd ( %0-gui.shift ) rcv
( %0-gui.shift_rcv ) min ( 0 ) max ( 31 ) ) bang ( width ( 13 ) height
( 13 ) snd ( %0-gui.dec_shift ) ) bang ( snd ( %0-gui.inc_shift ) )
);
#X connect 0 0 12 0;
#X connect 2 0 3 0;
#X connect 2 0 8 0;
#X connect 3 0 4 0;
#X connect 4 1 5 0;
#X connect 5 0 6 0;
#X connect 6 0 1 0;
#X connect 7 0 10 0;
#X connect 10 0 2 0;
#X connect 10 1 11 0;
#X connect 11 0 3 1;
#X connect 11 0 9 0;
#X connect 12 0 5 0;
#X restore 27 434 pd shift-props;
#X obj 57 356 sdBoundingBox;
#X msg 83 325 clear;
#X obj 83 302 r \$0-init;
#X obj 27 283 t b b;
#X obj 35 458 sdPackFromHuman;
#X obj 35 482 sdLines;
#X obj 32 253 sdGate;
#X obj 65 230 r \$0-scroll-props;
#X obj 186 571 t a a;
#X connect 0 0 1 0;
#X connect 1 0 49 0;
#X connect 2 0 0 0;
#X connect 3 0 4 0;
#X connect 4 0 33 0;
#X connect 5 0 4 0;
#X connect 6 0 8 0;
#X connect 7 0 8 0;
#X connect 8 0 13 0;
#X connect 8 1 37 0;
#X connect 9 0 2 0;
#X connect 11 0 27 0;
#X connect 12 0 15 0;
#X connect 13 0 47 0;
#X connect 13 1 3 0;
#X connect 14 0 18 0;
#X connect 16 0 14 1;
#X connect 18 0 17 0;
#X connect 19 0 26 0;
#X connect 20 0 19 1;
#X connect 21 0 22 0;
#X connect 22 0 23 1;
#X connect 22 1 23 2;
#X connect 23 0 25 0;
#X connect 23 1 25 1;
#X connect 23 2 25 3;
#X connect 23 3 25 4;
#X connect 25 0 19 0;
#X connect 27 0 28 0;
#X connect 28 0 0 0;
#X connect 29 0 31 0;
#X connect 30 0 29 0;
#X connect 30 1 32 0;
#X connect 31 0 27 0;
#X connect 32 0 27 0;
#X connect 33 0 39 0;
#X connect 33 1 30 0;
#X connect 34 0 36 0;
#X connect 35 0 27 0;
#X connect 36 0 35 0;
#X connect 38 0 5 0;
#X connect 39 0 27 0;
#X connect 40 0 45 0;
#X connect 41 0 40 1;
#X connect 42 0 41 0;
#X connect 43 0 42 0;
#X connect 44 0 40 0;
#X connect 44 1 41 0;
#X connect 45 0 46 0;
#X connect 46 0 10 0;
#X connect 47 0 44 0;
#X connect 48 0 47 1;
#X connect 49 0 41 1;
#X connect 49 1 10 0;
