#N canvas 0 30 721 722 10;
#N canvas 0 30 721 722 properties 0;
#X obj 21 23 inlet;
#X obj 70 118 sdUnPack;
#X obj 272 617 list append \$0;
#X obj 268 507 list split 1;
#X obj 269 594 list, f 13;
#X obj 256 566 sdGate;
#X obj 267 539 t f f;
#X obj 70 93 sdFilter update_bool;
#X obj 303 565 < 4;
#X obj 331 562 r \$0-count;
#X obj 161 333 r \$0-props;
#X obj 161 356 sdSetSelector set;
#X obj 111 387 sdList find;
#X msg 103 352 find \$1;
#X obj 60 429 sdGate;
#X obj 112 426 != -1;
#X obj 164 488 send;
#X obj 72 279 unpack f s f;
#X obj 39 341 f;
#X obj 45 255 t b a;
#X msg 57 457 set \$1;
#X obj 119 186 sdGate;
#X obj 173 139 r \$0-props;
#X obj 173 162 list length;
#X floatatom 169 185 5 0 0 0 - - -;
#X obj 192 429 pack f \$0;
#X msg 187 464 symbol \$2-gui.bool_prop\$1_rcv;
#X text 532 304 index \, name \, value;
#X msg 272 642 \; \$4-gui.bool_prop\$1_rcv set \$3 \;, f 17;
#X obj 512 327 t a a;
#X obj 592 379 list split 1;
#X obj 599 435 pack f \$0;
#X msg 594 470 symbol \$2-gui.bool_prop\$1_rcv;
#X obj 546 516 send;
#X obj 430 425 sdGate;
#X obj 477 424 < 4;
#X obj 505 421 r \$0-count;
#X obj 453 364 list split 2;
#X obj 430 448 sdSetSelector set;
#X floatatom 552 455 5 0 0 0 - - -;
#X connect 0 0 7 0;
#X connect 1 0 21 0;
#X connect 3 0 6 0;
#X connect 3 1 4 1;
#X connect 4 0 2 0;
#X connect 5 0 4 0;
#X connect 6 0 5 0;
#X connect 6 1 8 0;
#X connect 7 0 1 0;
#X connect 8 0 5 1;
#X connect 9 0 8 1;
#X connect 10 0 11 0;
#X connect 11 0 12 0;
#X connect 12 0 15 0;
#X connect 12 0 25 0;
#X connect 13 0 12 0;
#X connect 14 0 20 0;
#X connect 15 0 14 1;
#X connect 17 1 13 0;
#X connect 17 2 18 1;
#X connect 18 0 14 0;
#X connect 19 0 18 0;
#X connect 19 1 17 0;
#X connect 20 0 16 0;
#X connect 21 0 19 0;
#X connect 21 1 29 0;
#X connect 22 0 23 0;
#X connect 23 0 21 1;
#X connect 23 0 24 0;
#X connect 25 0 26 0;
#X connect 26 0 16 1;
#X connect 29 0 37 0;
#X connect 29 1 30 0;
#X connect 30 0 31 0;
#X connect 30 0 35 0;
#X connect 31 0 32 0;
#X connect 32 0 33 1;
#X connect 34 0 38 0;
#X connect 35 0 34 1;
#X connect 36 0 35 1;
#X connect 36 0 39 0;
#X connect 37 1 34 0;
#X connect 38 0 33 0;
#X restore 618 300 pd properties -> gui;
#X obj 140 13 nbx 2 14 0 31 0 0 \$0-gui.shift \$0-gui.shift_rcv empty
0 -8 1 8 -1 -262144 -1 0 256;
#X obj 141 49 bng 13 250 50 0 \$0-gui.inc_shift empty empty 17 7 0
10 -262144 -1 -262144;
#X obj 141 32 bng 13 250 50 0 \$0-gui.dec_shift empty empty 17 7 0
10 -262144 -1 -1;
#X obj 25 410 f;
#X obj 77 411 f;
#X obj 24 336 r \$0-gui.inc_shift;
#X obj 72 360 r \$0-gui.dec_shift;
#X obj 536 521 sdPackFromHuman;
#X obj 503 659 outlet gui->obj;
#X obj 485 310 sdUnPack;
#X floatatom 323 324 5 0 0 0 - - -;
#X msg 504 383 list get_all 0;
#X obj 499 334 t b f;
#X obj 523 473 t f;
#X obj 30 12 cnv 15 90 13 empty \$0-gui.bool_prop_name0_rcv - 1 8 0
10 -228856 -66577 0;
#X obj 29 31 cnv 15 90 13 empty \$0-gui.bool_prop_name1_rcv - 1 8 0
10 -228856 -66577 0;
#X obj 29 49 cnv 15 90 13 empty \$0-gui.bool_prop_name2_rcv - 1 8 0
10 -228856 -66577 0;
#X obj 29 67 cnv 15 90 13 empty \$0-gui.bool_prop_name3_rcv - 1 8 0
10 -228856 -66577 0;
#X obj 122 11 tgl 15 0 \$0-gui.bool_prop0 \$0-gui.bool_prop0_rcv empty
17 7 0 10 -262144 -1 -1 0 1;
#X obj 122 30 tgl 15 0 \$0-gui.bool_prop1 \$0-gui.bool_prop1_rcv empty
17 7 0 10 -262144 -1 -1 0 1;
#X obj 122 48 tgl 15 0 \$0-gui.bool_prop2 \$0-gui.bool_prop2_rcv empty
17 7 0 10 -262144 -1 -1 0 1;
#X obj 122 66 tgl 15 0 \$0-gui.bool_prop3 \$0-gui.bool_prop3_rcv empty
17 7 0 10 -262144 -1 -1 0 1;
#X obj 12 12 cnv 15 13 13 empty empty 1 1 8 0 10 -191407 -66577 0;
#X obj 12 30 cnv 15 13 13 empty empty 2 1 8 0 10 -191407 -66577 0;
#X obj 12 49 cnv 15 13 13 empty empty 3 1 8 0 10 -191407 -66577 0;
#X obj 12 67 cnv 15 13 13 empty empty 4 1 8 0 10 -191407 -66577 0;
#X obj 492 158 inlet bool_props;
#X obj 495 179 sdObjTrack boolProps;
#X obj 323 301 r \$0-shift;
#X obj 589 360 s \$0-shift;
#X obj 26 467 s \$0-gui.shift_rcv;
#X obj 222 304 r \$0-shift;
#X obj 523 426 r \$0-gui.shift;
#X msg 536 498 list set ( boolShift ( \$1 ) );
#N canvas 0 30 721 736 gui.props 0;
#X obj 226 46 pack 0 0;
#X obj 231 98 pack 0 1;
#X obj 236 147 pack 0 2;
#X obj 241 197 pack 0 3;
#X obj 250 254 pack 0 4;
#X obj 255 306 pack 0 5;
#X obj 260 355 pack 0 6;
#X obj 264 405 pack 0 7;
#X obj 225 681 outlet;
#X obj 226 22 r \$0-gui.bool_prop0;
#X obj 231 75 r \$0-gui.bool_prop1;
#X obj 236 123 r \$0-gui.bool_prop2;
#X obj 241 174 r \$0-gui.bool_prop3;
#X obj 250 230 r \$0-gui.bool_prop4;
#X obj 255 283 r \$0-gui.bool_prop5;
#X obj 260 331 r \$0-gui.bool_prop6;
#X obj 265 382 r \$0-gui.bool_prop7;
#N canvas 0 30 681 736 calc 0;
#X obj 431 288 pack;
#X obj 430 264 swap, f 13;
#X obj 435 232 sdGate;
#X obj 496 211 r \$0-count;
#X obj 468 210 < 1;
#X obj 171 74 sdGate;
#X obj 217 54 r \$0-props;
#X obj 217 77 list length;
#X obj 460 166 unpack;
#X obj 184 381 sdList;
#X obj 217 326 r \$0-props;
#X obj 217 349 sdSetSelector set;
#X msg 149 352 get \$1;
#X obj 121 419 sdGate;
#X msg 239 423 0;
#X msg 196 407 1;
#X obj 114 323 unpack;
#X obj 121 440 sdPack prop;
#X obj 121 486 sdPack send;
#X obj 104 295 t a b;
#X obj 165 36 inlet;
#X obj 385 591 outlet;
#X obj 121 463 sdPack set;
#X obj 431 312 sdPack set_bool_by_ind;
#X connect 0 0 23 0;
#X connect 1 0 0 0;
#X connect 1 1 0 1;
#X connect 2 0 1 0;
#X connect 3 0 4 1;
#X connect 4 0 2 1;
#X connect 5 0 19 0;
#X connect 5 1 8 0;
#X connect 6 0 7 0;
#X connect 7 0 5 1;
#X connect 8 0 2 0;
#X connect 8 1 1 1;
#X connect 8 1 4 0;
#X connect 9 0 15 0;
#X connect 9 0 17 1;
#X connect 10 0 11 0;
#X connect 11 0 9 0;
#X connect 12 0 9 0;
#X connect 13 0 17 0;
#X connect 14 0 13 1;
#X connect 15 0 13 1;
#X connect 16 0 13 0;
#X connect 16 1 12 0;
#X connect 17 0 22 0;
#X connect 18 0 21 0;
#X connect 19 0 16 0;
#X connect 19 1 14 0;
#X connect 20 0 5 0;
#X connect 22 0 18 0;
#X connect 23 0 21 0;
#X restore 224 542 pd calc msg;
#X obj 218 486 t a, f 12;
#X connect 0 0 18 0;
#X connect 1 0 18 0;
#X connect 2 0 18 0;
#X connect 3 0 18 0;
#X connect 4 0 18 0;
#X connect 5 0 18 0;
#X connect 6 0 18 0;
#X connect 7 0 18 0;
#X connect 9 0 0 0;
#X connect 10 0 1 0;
#X connect 11 0 2 0;
#X connect 12 0 3 0;
#X connect 13 0 4 0;
#X connect 14 0 5 0;
#X connect 15 0 6 0;
#X connect 16 0 7 0;
#X connect 17 0 8 0;
#X connect 18 0 17 0;
#X restore 530 588 pd gui.props -> obj;
#N canvas 0 30 721 722 shift-> 0;
#X obj 86 49 inlet;
#X msg 231 247 set \$1;
#X obj 220 284 s \$0-gui.scroll.shift_rcv;
#X obj 181 313 s \$0-gui.shift_rcv;
#X connect 0 0 1 0;
#X connect 1 0 2 0;
#X connect 1 0 3 0;
#X restore 222 327 pd shift-> gui;
#X obj 663 162 inlet update;
#X obj 605 207 r \$0-shift;
#X obj 97 381 r \$0-shift;
#N canvas 0 30 721 722 set 0;
#X obj 143 182 sdUnPack;
#X obj 148 274 sdList;
#X msg 113 242 serialize;
#X msg 186 243 clear;
#X obj 143 205 t b a b;
#X msg 267 246 0;
#X obj 317 382 t a b;
#X obj 359 629 send;
#X msg 267 504 label \$1;
#N canvas 0 30 721 722 gui 0;
#X obj 43 9 inlet;
#X obj 74 149 until;
#X msg 144 138 0;
#X obj 79 220 pack f \$0;
#X obj 81 61 t b b, f 11;
#X obj 74 184 sdCounter -1;
#X msg 79 259 \; \$2-gui.bool_prop_name\$1_rcv label - \; \$2-gui.bool_prop\$1_rcv
set 0 \;;
#X obj 66 120 f;
#X obj 81 94 r \$0-count;
#X connect 0 0 4 0;
#X connect 1 0 5 0;
#X connect 2 0 5 0;
#X connect 3 0 6 0;
#X connect 4 0 7 0;
#X connect 4 1 2 0;
#X connect 5 0 3 0;
#X connect 7 0 1 0;
#X connect 8 0 7 1;
#X restore 243 173 pd gui clear props;
#X obj 179 143 t a b;
#X obj 411 597 sdReplace \$0;
#X obj 366 400 sdCounter -1;
#X obj 100 24 inlet;
#X obj 453 28 inlet prop_shift;
#X obj 273 479 sdGate;
#X obj 366 423 - 0;
#X obj 453 55 t f;
#X obj 311 454 expr $f1 >= 0 && $f1 < $f2;
#X msg 411 574 symbol %0-gui.bool_prop_name\$1_rcv;
#X obj 576 27 inlet;
#X obj 471 432 r \$0-count;
#X obj 148 348 sdGate;
#X obj 183 298 r \$0-props;
#X obj 183 323 list length;
#X floatatom 254 349 5 0 0 0 - - -;
#X obj 169 436 r \$0-props;
#X obj 169 459 sdSetSelector set;
#X obj 116 488 sdList find;
#X msg 111 455 find \$1;
#X obj 84 432 t s s;
#X msg 65 560 label \$1;
#X obj 68 532 sdGate;
#X obj 120 529 != -1;
#X connect 0 0 4 0;
#X connect 1 0 22 0;
#X connect 2 0 1 0;
#X connect 3 0 1 0;
#X connect 4 0 2 0;
#X connect 4 1 1 1;
#X connect 4 2 3 0;
#X connect 4 2 5 0;
#X connect 5 0 12 0;
#X connect 6 0 15 0;
#X connect 6 1 12 0;
#X connect 8 0 7 0;
#X connect 10 0 0 0;
#X connect 10 1 9 0;
#X connect 11 0 7 1;
#X connect 12 0 16 0;
#X connect 13 0 10 0;
#X connect 14 0 17 0;
#X connect 15 0 8 0;
#X connect 16 0 19 0;
#X connect 16 0 18 0;
#X connect 17 0 16 1;
#X connect 18 0 15 1;
#X connect 19 0 11 0;
#X connect 20 0 9 0;
#X connect 21 0 18 1;
#X connect 22 0 30 0;
#X connect 22 1 6 0;
#X connect 23 0 24 0;
#X connect 24 0 22 1;
#X connect 24 0 25 0;
#X connect 26 0 27 0;
#X connect 27 0 28 0;
#X connect 28 0 33 0;
#X connect 28 0 19 0;
#X connect 29 0 28 0;
#X connect 30 0 32 0;
#X connect 30 1 29 0;
#X connect 31 0 7 0;
#X connect 32 0 31 0;
#X connect 33 0 32 1;
#X restore 496 239 pd set gui.props;
#X obj 77 444 - 4;
#X obj 25 443 + 4;
#X obj 485 285 sdObjTrack boolShift;
#X msg 649 237 clear;
#X obj 111 413 r \$0-count;
#X obj 54 268 s \$0-count;
#X obj 54 244 max 1;
#X obj 54 198 sdAny \$1;
#X obj 54 174 loadbang;
#X obj 54 221 route float;
#X obj 132 219 t b;
#N canvas 0 30 721 736 arglist 0;
#X obj 221 268 sdList;
#X msg 221 226 serialize \, clear;
#X obj 209 187 t b l;
#X obj 221 291 route symbol;
#X obj 44 19 inlet;
#X obj 164 376 outlet;
#X obj 212 151 list append \$1 \$2 \$3 \$4 \$5 \$6 \$7 \$8 \$9;
#X obj 164 353 sdList bang count;
#X obj 262 376 outlet;
#X msg 99 310 count \, bang \, clear;
#X connect 0 0 3 0;
#X connect 1 0 0 0;
#X connect 2 0 1 0;
#X connect 2 0 9 0;
#X connect 2 1 0 1;
#X connect 3 0 7 1;
#X connect 4 0 6 0;
#X connect 6 0 2 0;
#X connect 7 0 5 0;
#X connect 7 1 8 0;
#X connect 9 0 7 0;
#X restore 132 243 pd arglist;
#X obj 132 267 s \$0-props;
#X obj 202 267 s \$0-count;
#X obj 117 171 bng 15 250 50 0 empty empty empty 17 7 0 10 -262144
-1 -1;
#X floatatom 147 168 5 0 0 0 - - -;
#X obj 185 663 namecanvas \$0-canvas;
#N canvas 0 30 721 722 set 0;
#X obj 44 69 inlet;
#X obj 444 29 inlet;
#X obj 214 319 s \$0-canvas;
#X floatatom 259 219 5 0 0 0 - - -;
#X obj 259 197 * 18;
#X obj 187 259 pack 146 f;
#X msg 214 296 donecanvasdialog 0 0 3 0 0 1 1 \$1 \$2 10 10 1 \, dirty
0;
#X obj 259 241 + 0;
#X obj 198 171 t b f;
#X connect 0 0 5 0;
#X connect 1 0 8 0;
#X connect 3 0 7 0;
#X connect 4 0 3 0;
#X connect 5 0 6 0;
#X connect 6 0 2 0;
#X connect 7 0 5 1;
#X connect 8 0 5 0;
#X connect 8 1 4 0;
#X restore 250 613 pd set canvas;
#X obj 30 86 cnv 15 90 13 empty \$0-gui.bool_prop_name4_rcv - 1 8 0
10 -228856 -66577 0;
#X obj 29 105 cnv 15 90 13 empty \$0-gui.bool_prop_name5_rcv - 1 8
0 10 -228856 -66577 0;
#X obj 29 123 cnv 15 90 13 empty \$0-gui.bool_prop_name6_rcv - 1 8
0 10 -228856 -66577 0;
#X obj 29 141 cnv 15 90 13 empty \$0-gui.bool_prop_name7_rcv - 1 8
0 10 -228856 -66577 0;
#X obj 122 85 tgl 15 0 \$0-gui.bool_prop4 \$0-gui.bool_prop4_rcv empty
17 7 0 10 -262144 -1 -1 0 1;
#X obj 122 104 tgl 15 0 \$0-gui.bool_prop5 \$0-gui.bool_prop5_rcv empty
17 7 0 10 -262144 -1 -1 0 1;
#X obj 122 122 tgl 15 0 \$0-gui.bool_prop6 \$0-gui.bool_prop6_rcv empty
17 7 0 10 -262144 -1 -1 0 1;
#X obj 122 140 tgl 15 0 \$0-gui.bool_prop7 \$0-gui.bool_prop7_rcv empty
17 7 0 10 -262144 -1 -1 0 1;
#X obj 12 86 cnv 15 13 13 empty empty 5 1 8 0 10 -191407 -66577 0;
#X obj 12 104 cnv 15 13 13 empty empty 6 1 8 0 10 -191407 -66577 0
;
#X obj 12 123 cnv 15 13 13 empty empty 7 1 8 0 10 -191407 -66577 0
;
#X obj 12 141 cnv 15 13 13 empty empty 8 1 8 0 10 -191407 -66577 0
;
#X obj 310 162 inlet;
#X obj 297 209 sdPropertyList properties \$0;
#X obj 311 185 t a a;
#N canvas 0 30 721 722 arglist 0;
#X obj 221 268 sdList;
#X msg 221 226 serialize \, clear;
#X obj 209 187 t b l;
#X obj 221 291 route symbol;
#X obj 44 19 inlet;
#X obj 212 151 list append \$1 \$2 \$3 \$4 \$5 \$6 \$7 \$8 \$9;
#X obj 164 353 sdList bang;
#X msg 99 310 bang \, clear;
#X obj 164 400 s \$0-properties_rcv;
#X obj 164 376 sdSetSelector priv.set;
#X obj 44 42 t b b;
#X obj 152 36 sdAny \$1;
#X obj 152 59 route float;
#X msg 152 82 priv.set \$1;
#X obj 152 105 s \$0-count_rcv;
#X connect 0 0 3 0;
#X connect 1 0 0 0;
#X connect 2 0 1 0;
#X connect 2 0 7 0;
#X connect 2 1 0 1;
#X connect 3 0 6 1;
#X connect 4 0 10 0;
#X connect 5 0 2 0;
#X connect 6 0 9 0;
#X connect 7 0 6 0;
#X connect 9 0 8 0;
#X connect 10 0 5 0;
#X connect 10 1 11 0;
#X connect 11 0 12 0;
#X connect 12 0 13 0;
#X connect 13 0 14 0;
#X restore 370 182 pd arglist;
#X obj 305 373 r \$0-properties;
#X obj 188 471 s \$0-props;
#X obj 367 160 loadbang;
#X obj 306 232 sdProperty count \$0 1;
#X obj 120 514 r \$0-count;
#X floatatom 120 537 5 0 0 0 - - -;
#X obj 21 538 r \$0-properties;
#X obj 21 561 l2s;
#X symbolatom 21 584 20 0 0 0 - - -;
#X obj 21 635 l2s;
#X symbolatom 21 658 20 0 0 0 - - -;
#X obj 21 612 r \$0-props;
#X obj 305 396 t a a;
#X obj 332 418 list length;
#X obj 250 563 expr if(!$f1 \, 155 \, 130) \; if(!$f1 \, $f2 \, $f1)
;
#X obj 358 477 r \$0-count;
#X obj 358 500 t b f;
#X obj 434 161 bng 15 250 50 0 empty empty empty 17 7 0 10 -262144
-1 -1;
#X connect 4 0 42 0;
#X connect 5 0 41 0;
#X connect 6 0 4 0;
#X connect 7 0 5 0;
#X connect 8 0 9 0;
#X connect 10 0 13 0;
#X connect 12 0 9 0;
#X connect 13 0 12 0;
#X connect 13 1 30 0;
#X connect 14 0 34 0;
#X connect 27 0 28 0;
#X connect 27 0 43 0;
#X connect 28 0 40 0;
#X connect 29 0 11 0;
#X connect 32 0 36 0;
#X connect 33 0 14 0;
#X connect 34 0 8 0;
#X connect 35 0 9 0;
#X connect 37 0 0 0;
#X connect 38 0 40 1;
#X connect 39 0 5 1;
#X connect 39 0 4 1;
#X connect 41 0 31 0;
#X connect 42 0 31 0;
#X connect 43 0 10 0;
#X connect 44 0 40 2;
#X connect 45 0 41 1;
#X connect 45 0 42 1;
#X connect 47 0 46 0;
#X connect 48 0 50 0;
#X connect 49 0 48 0;
#X connect 50 0 47 0;
#X connect 50 1 51 0;
#X connect 51 0 52 0;
#X connect 52 0 53 0;
#X connect 52 1 54 0;
#X connect 55 0 48 0;
#X connect 56 0 48 0;
#X connect 71 0 73 0;
#X connect 72 1 78 0;
#X connect 73 0 72 0;
#X connect 75 0 87 0;
#X connect 77 0 74 0;
#X connect 79 0 80 0;
#X connect 81 0 82 0;
#X connect 82 0 83 0;
#X connect 84 0 85 0;
#X connect 86 0 84 0;
#X connect 87 0 76 0;
#X connect 87 1 88 0;
#X connect 88 0 89 0;
#X connect 89 0 58 0;
#X connect 89 1 58 1;
#X connect 90 0 91 0;
#X connect 91 0 89 0;
#X connect 91 1 89 1;
#X connect 92 0 74 0;
#X coords 0 0 1 1 155 54 2 10 10;
