#N canvas 0 30 721 722 10;
#X obj 141 12 nbx 6 14 -1e+37 1e+37 0 0 \$0-gui.numProp0 \$0-gui.numProp0_rcv
empty 0 -8 1 8 -262144 -1 -1 0 256;
#X obj 141 47 nbx 6 14 -1e+37 1e+37 0 0 \$0-gui.numProp1 \$0-gui.numProp1_rcv
empty 0 -8 1 8 -262144 -1 -1 0 256;
#X obj 141 80 nbx 6 14 -1e+37 1e+37 0 0 \$0-gui.numProp2 \$0-gui.numProp2_rcv
empty 0 -8 1 8 -262144 -1 -1 0 256;
#X obj 29 12 cnv 15 110 13 empty \$0-gui.numPropName0_rcv - 1 8 0 10
-228856 -66577 0;
#X obj 29 47 cnv 15 110 13 empty \$0-gui.numPropName1_rcv - 1 8 0 10
-228856 -66577 0;
#X obj 29 80 cnv 15 110 13 empty \$0-gui.numPropName2_rcv - 1 8 0 10
-228856 -66577 0;
#X obj 141 113 nbx 6 14 -1e+37 1e+37 0 0 \$0-gui.numProp3 \$0-gui.numProp3_rcv
empty 0 -8 1 8 -262144 -1 -1 0 256;
#X obj 29 113 cnv 15 110 13 empty \$0-gui.numPropName3_rcv - 1 8 0
10 -228856 -66577 0;
#X obj 141 145 nbx 6 14 -1e+37 1e+37 0 0 \$0-gui.numProp4 \$0-gui.numProp4_rcv
empty 0 -8 1 8 -262144 -1 -1 0 256;
#X obj 29 146 cnv 15 110 13 empty \$0-gui.numPropName4_rcv - 1 8 0
10 -228856 -66577 0;
#X obj 141 177 nbx 6 14 -1e+37 1e+37 0 0 \$0-gui.numProp5 \$0-gui.numProp5_rcv
empty 0 -8 1 8 -262144 -1 -1 0 256;
#X obj 29 178 cnv 15 110 13 empty \$0-gui.numPropName5_rcv - 1 8 0
10 -228856 -66577 0;
#X obj 141 210 nbx 6 14 -1e+37 1e+37 0 0 \$0-gui.numProp6 \$0-gui.numProp6_rcv
empty 0 -8 1 8 -262144 -1 -1 0 256;
#X obj 29 210 cnv 15 110 13 empty \$0-gui.numPropName6_rcv - 1 8 0
10 -228856 -66577 0;
#X obj 141 243 nbx 6 14 -1e+37 1e+37 0 0 \$0-gui.numProp7 \$0-gui.numProp7_rcv
empty 0 -8 1 8 -262144 -1 -1 0 256;
#X obj 29 243 cnv 15 110 13 empty \$0-gui.numPropName7_rcv - 1 8 0
10 -228856 -66577 0;
#N canvas 0 30 721 722 properties 0;
#X obj 21 23 inlet;
#X obj 123 167 sdUnPack;
#X obj 123 142 sdFilter update_num;
#X obj 415 186 sdUnPack;
#X obj 415 161 sdFilter update_num_range;
#X obj 486 651 list prepend \$0;
#X msg 487 676 \; \$1-gui.num_min\$2_rcv set \$4 \; \$1-gui.num_max\$2_rcv
set \$5 \; \$1-gui.num_step\$2_rcv set \$6 \;;
#X obj 581 359 list split 1;
#X obj 582 446 list, f 13;
#X obj 569 418 sdGate;
#X obj 580 391 t f f;
#X obj 645 420 r \$0-count;
#X obj 616 417 < 1;
#X obj 146 528 r \$0-props;
#X obj 146 551 sdSetSelector set;
#X obj 96 582 sdList find;
#X msg 88 547 find \$1;
#X obj 45 624 sdGate;
#X obj 97 621 != -1;
#X obj 149 683 send;
#X msg 172 659 symbol \$2-gui.numProp\$1_rcv;
#X obj 57 474 unpack f s f;
#X obj 24 536 f;
#X obj 30 450 t b a;
#X msg 42 652 set \$1;
#X obj 119 207 sdGate;
#X obj 193 171 r \$0-props;
#X obj 193 194 list length;
#X floatatom 189 217 5 0 0 0 - - -;
#X obj 177 624 pack f \$0;
#X obj 241 276 unpack f s f;
#X obj 144 242 t b a;
#X obj 166 350 sdGate;
#X obj 256 321 r \$0-count;
#X obj 213 349 < 1;
#X obj 196 424 send;
#X msg 220 402 symbol \$2-gui.numProp\$1_rcv;
#X obj 250 354 pack f \$0;
#X msg 152 378 set \$1;
#X obj 159 321 f;
#N canvas 0 30 721 736 -> 0;
#X obj 29 12 inlet;
#X obj 265 483 send;
#X msg 354 450 symbol \$2-gui.scroll.numProp\$1_rcv;
#X obj 354 426 pack f \$0;
#X msg 32 433 set \$1;
#X obj 32 410 sdMinMax 0 1 0 1;
#X obj 457 74 inlet;
#N canvas 0 30 721 736 find-range 0;
#X obj 137 153 r \$0-gui.num_max0_rcv;
#X obj 83 125 r \$0-gui.num_min0_rcv;
#X obj 71 250 pack f f;
#X obj 71 227 f;
#X obj 160 40 inlet;
#X obj 119 659 outlet;
#X obj 66 81 route 0 1 2 3, f 99;
#X obj 692 227 t a;
#X obj 83 179 route set;
#X obj 83 202 f;
#X obj 147 180 route set;
#X obj 147 203 f;
#X obj 211 250 pack f f;
#X obj 211 227 f;
#X obj 246 185 route set;
#X obj 246 208 f;
#X obj 310 186 route set;
#X obj 310 209 f;
#X obj 421 260 pack f f;
#X obj 421 237 f;
#X obj 433 189 route set;
#X obj 433 212 f;
#X obj 497 190 route set;
#X obj 497 213 f;
#X obj 581 260 pack f f;
#X obj 581 237 f;
#X obj 593 189 route set;
#X obj 593 212 f;
#X obj 657 190 route set;
#X obj 657 213 f;
#X obj 81 511 pack f f;
#X obj 81 487 f;
#X obj 93 439 route set;
#X obj 93 462 f;
#X obj 157 440 route set;
#X obj 157 463 f;
#X obj 221 510 pack f f;
#X obj 221 487 f;
#X obj 256 445 route set;
#X obj 256 468 f;
#X obj 320 446 route set;
#X obj 320 469 f;
#X obj 431 520 pack f f;
#X obj 431 497 f;
#X obj 443 449 route set;
#X obj 443 472 f;
#X obj 507 450 route set;
#X obj 507 473 f;
#X obj 591 520 pack f f;
#X obj 591 497 f;
#X obj 603 449 route set;
#X obj 603 472 f;
#X obj 667 450 route set;
#X obj 667 473 f;
#X obj 292 135 r \$0-gui.num_min1_rcv;
#X obj 300 159 r \$0-gui.num_max1_rcv;
#X obj 433 135 r \$0-gui.num_min2_rcv;
#X obj 488 163 r \$0-gui.num_max2_rcv;
#X obj 593 135 r \$0-gui.num_min3_rcv;
#X obj 647 163 r \$0-gui.num_max3_rcv;
#X obj 76 341 route 4 5 6 7, f 99;
#X obj 93 385 r \$0-gui.num_min4_rcv;
#X obj 147 413 r \$0-gui.num_max4_rcv;
#X obj 302 395 r \$0-gui.num_min5_rcv;
#X obj 310 419 r \$0-gui.num_max5_rcv;
#X obj 443 395 r \$0-gui.num_min6_rcv;
#X obj 497 423 r \$0-gui.num_max6_rcv;
#X obj 603 395 r \$0-gui.num_min7_rcv;
#X obj 657 423 r \$0-gui.num_max7_rcv;
#X connect 0 0 10 0;
#X connect 1 0 8 0;
#X connect 2 0 5 0;
#X connect 3 0 2 0;
#X connect 4 0 6 0;
#X connect 6 0 3 0;
#X connect 6 1 13 0;
#X connect 6 2 19 0;
#X connect 6 3 25 0;
#X connect 6 4 7 0;
#X connect 7 0 60 0;
#X connect 8 0 9 0;
#X connect 9 0 3 1;
#X connect 10 0 11 0;
#X connect 11 0 2 1;
#X connect 12 0 5 0;
#X connect 13 0 12 0;
#X connect 14 0 15 0;
#X connect 15 0 13 1;
#X connect 16 0 17 0;
#X connect 17 0 12 1;
#X connect 18 0 5 0;
#X connect 19 0 18 0;
#X connect 20 0 21 0;
#X connect 21 0 19 1;
#X connect 22 0 23 0;
#X connect 23 0 18 1;
#X connect 24 0 5 0;
#X connect 25 0 24 0;
#X connect 26 0 27 0;
#X connect 27 0 25 1;
#X connect 28 0 29 0;
#X connect 29 0 24 1;
#X connect 30 0 5 0;
#X connect 31 0 30 0;
#X connect 32 0 33 0;
#X connect 33 0 31 1;
#X connect 34 0 35 0;
#X connect 35 0 30 1;
#X connect 36 0 5 0;
#X connect 37 0 36 0;
#X connect 38 0 39 0;
#X connect 39 0 37 1;
#X connect 40 0 41 0;
#X connect 41 0 36 1;
#X connect 42 0 5 0;
#X connect 43 0 42 0;
#X connect 44 0 45 0;
#X connect 45 0 43 1;
#X connect 46 0 47 0;
#X connect 47 0 42 1;
#X connect 48 0 5 0;
#X connect 49 0 48 0;
#X connect 50 0 51 0;
#X connect 51 0 49 1;
#X connect 52 0 53 0;
#X connect 53 0 48 1;
#X connect 54 0 14 0;
#X connect 55 0 16 0;
#X connect 56 0 20 0;
#X connect 57 0 22 0;
#X connect 58 0 26 0;
#X connect 59 0 28 0;
#X connect 60 0 31 0;
#X connect 60 1 37 0;
#X connect 60 2 43 0;
#X connect 60 3 49 0;
#X connect 61 0 32 0;
#X connect 62 0 34 0;
#X connect 63 0 38 0;
#X connect 64 0 40 0;
#X connect 65 0 44 0;
#X connect 66 0 46 0;
#X connect 67 0 50 0;
#X connect 68 0 52 0;
#X restore 103 291 pd find-range;
#X obj 103 314 unpack;
#X connect 0 0 5 0;
#X connect 2 0 1 1;
#X connect 3 0 2 0;
#X connect 4 0 1 0;
#X connect 5 0 4 0;
#X connect 6 0 3 0;
#X connect 6 0 7 0;
#X connect 7 0 8 0;
#X connect 8 0 5 1;
#X connect 8 1 5 2;
#X restore 195 457 pd -> gui scroll;
#X obj 446 259 sdGate;
#X obj 520 221 r \$0-props;
#X obj 520 244 list length;
#X floatatom 516 267 5 0 0 0 - - -;
#X obj 419 305 list split 1;
#X obj 409 343 t a a;
#X obj 405 551 list prepend;
#X obj 467 428 r \$0-props;
#X obj 467 451 sdSetSelector set;
#X obj 439 480 sdList find;
#X msg 414 452 find \$1;
#X obj 439 502 != -1;
#X obj 429 381 list split 1;
#X obj 405 528 sdGate;
#N canvas 0 30 721 736 -> 0;
#X obj 29 12 inlet;
#X obj 265 483 send;
#X msg 354 450 symbol \$2-gui.scroll.numProp\$1_rcv;
#X obj 354 426 pack f \$0;
#X msg 32 433 set \$1;
#X obj 32 410 sdMinMax 0 1 0 1;
#X obj 457 74 inlet;
#N canvas 0 30 721 736 find-range 0;
#X obj 137 153 r \$0-gui.num_max0_rcv;
#X obj 83 125 r \$0-gui.num_min0_rcv;
#X obj 71 250 pack f f;
#X obj 71 227 f;
#X obj 160 40 inlet;
#X obj 119 659 outlet;
#X obj 66 81 route 0 1 2 3, f 99;
#X obj 692 227 t a;
#X obj 83 179 route set;
#X obj 83 202 f;
#X obj 147 180 route set;
#X obj 147 203 f;
#X obj 211 250 pack f f;
#X obj 211 227 f;
#X obj 246 185 route set;
#X obj 246 208 f;
#X obj 310 186 route set;
#X obj 310 209 f;
#X obj 421 260 pack f f;
#X obj 421 237 f;
#X obj 433 189 route set;
#X obj 433 212 f;
#X obj 497 190 route set;
#X obj 497 213 f;
#X obj 581 260 pack f f;
#X obj 581 237 f;
#X obj 593 189 route set;
#X obj 593 212 f;
#X obj 657 190 route set;
#X obj 657 213 f;
#X obj 81 511 pack f f;
#X obj 81 487 f;
#X obj 93 439 route set;
#X obj 93 462 f;
#X obj 157 440 route set;
#X obj 157 463 f;
#X obj 221 510 pack f f;
#X obj 221 487 f;
#X obj 256 445 route set;
#X obj 256 468 f;
#X obj 320 446 route set;
#X obj 320 469 f;
#X obj 431 520 pack f f;
#X obj 431 497 f;
#X obj 443 449 route set;
#X obj 443 472 f;
#X obj 507 450 route set;
#X obj 507 473 f;
#X obj 591 520 pack f f;
#X obj 591 497 f;
#X obj 603 449 route set;
#X obj 603 472 f;
#X obj 667 450 route set;
#X obj 667 473 f;
#X obj 292 135 r \$0-gui.num_min1_rcv;
#X obj 300 159 r \$0-gui.num_max1_rcv;
#X obj 433 135 r \$0-gui.num_min2_rcv;
#X obj 488 163 r \$0-gui.num_max2_rcv;
#X obj 593 135 r \$0-gui.num_min3_rcv;
#X obj 647 163 r \$0-gui.num_max3_rcv;
#X obj 76 341 route 4 5 6 7, f 99;
#X obj 93 385 r \$0-gui.num_min4_rcv;
#X obj 147 413 r \$0-gui.num_max4_rcv;
#X obj 302 395 r \$0-gui.num_min5_rcv;
#X obj 310 419 r \$0-gui.num_max5_rcv;
#X obj 443 395 r \$0-gui.num_min6_rcv;
#X obj 497 423 r \$0-gui.num_max6_rcv;
#X obj 603 395 r \$0-gui.num_min7_rcv;
#X obj 657 423 r \$0-gui.num_max7_rcv;
#X connect 0 0 10 0;
#X connect 1 0 8 0;
#X connect 2 0 5 0;
#X connect 3 0 2 0;
#X connect 4 0 6 0;
#X connect 6 0 3 0;
#X connect 6 1 13 0;
#X connect 6 2 19 0;
#X connect 6 3 25 0;
#X connect 6 4 7 0;
#X connect 7 0 60 0;
#X connect 8 0 9 0;
#X connect 9 0 3 1;
#X connect 10 0 11 0;
#X connect 11 0 2 1;
#X connect 12 0 5 0;
#X connect 13 0 12 0;
#X connect 14 0 15 0;
#X connect 15 0 13 1;
#X connect 16 0 17 0;
#X connect 17 0 12 1;
#X connect 18 0 5 0;
#X connect 19 0 18 0;
#X connect 20 0 21 0;
#X connect 21 0 19 1;
#X connect 22 0 23 0;
#X connect 23 0 18 1;
#X connect 24 0 5 0;
#X connect 25 0 24 0;
#X connect 26 0 27 0;
#X connect 27 0 25 1;
#X connect 28 0 29 0;
#X connect 29 0 24 1;
#X connect 30 0 5 0;
#X connect 31 0 30 0;
#X connect 32 0 33 0;
#X connect 33 0 31 1;
#X connect 34 0 35 0;
#X connect 35 0 30 1;
#X connect 36 0 5 0;
#X connect 37 0 36 0;
#X connect 38 0 39 0;
#X connect 39 0 37 1;
#X connect 40 0 41 0;
#X connect 41 0 36 1;
#X connect 42 0 5 0;
#X connect 43 0 42 0;
#X connect 44 0 45 0;
#X connect 45 0 43 1;
#X connect 46 0 47 0;
#X connect 47 0 42 1;
#X connect 48 0 5 0;
#X connect 49 0 48 0;
#X connect 50 0 51 0;
#X connect 51 0 49 1;
#X connect 52 0 53 0;
#X connect 53 0 48 1;
#X connect 54 0 14 0;
#X connect 55 0 16 0;
#X connect 56 0 20 0;
#X connect 57 0 22 0;
#X connect 58 0 26 0;
#X connect 59 0 28 0;
#X connect 60 0 31 0;
#X connect 60 1 37 0;
#X connect 60 2 43 0;
#X connect 60 3 49 0;
#X connect 61 0 32 0;
#X connect 62 0 34 0;
#X connect 63 0 38 0;
#X connect 64 0 40 0;
#X connect 65 0 44 0;
#X connect 66 0 46 0;
#X connect 67 0 50 0;
#X connect 68 0 52 0;
#X restore 103 291 pd find-range;
#X obj 103 314 unpack;
#X connect 0 0 5 0;
#X connect 2 0 1 1;
#X connect 3 0 2 0;
#X connect 4 0 1 0;
#X connect 5 0 4 0;
#X connect 6 0 3 0;
#X connect 6 0 7 0;
#X connect 7 0 8 0;
#X connect 8 0 5 1;
#X connect 8 1 5 2;
#X restore 121 731 pd -> gui scroll;
#X connect 0 0 2 0;
#X connect 1 0 25 0;
#X connect 2 0 1 0;
#X connect 2 1 4 0;
#X connect 3 0 41 0;
#X connect 4 0 3 0;
#X connect 5 0 6 0;
#X connect 7 0 10 0;
#X connect 7 1 8 1;
#X connect 8 0 5 0;
#X connect 9 0 8 0;
#X connect 10 0 9 0;
#X connect 10 1 12 0;
#X connect 11 0 12 1;
#X connect 12 0 9 1;
#X connect 13 0 14 0;
#X connect 14 0 15 0;
#X connect 15 0 18 0;
#X connect 15 0 29 0;
#X connect 15 0 55 1;
#X connect 16 0 15 0;
#X connect 17 0 24 0;
#X connect 17 0 55 0;
#X connect 18 0 17 1;
#X connect 20 0 19 1;
#X connect 21 1 16 0;
#X connect 21 2 22 1;
#X connect 22 0 17 0;
#X connect 23 0 22 0;
#X connect 23 1 21 0;
#X connect 24 0 19 0;
#X connect 25 0 23 0;
#X connect 25 1 31 0;
#X connect 26 0 27 0;
#X connect 27 0 25 1;
#X connect 27 0 28 0;
#X connect 29 0 20 0;
#X connect 30 0 34 0;
#X connect 30 0 37 0;
#X connect 30 0 40 1;
#X connect 30 2 39 1;
#X connect 31 0 39 0;
#X connect 31 1 30 0;
#X connect 32 0 38 0;
#X connect 32 0 40 0;
#X connect 33 0 34 1;
#X connect 34 0 32 1;
#X connect 36 0 35 1;
#X connect 37 0 36 0;
#X connect 38 0 35 0;
#X connect 39 0 32 0;
#X connect 41 0 45 0;
#X connect 41 1 7 0;
#X connect 42 0 43 0;
#X connect 43 0 41 1;
#X connect 43 0 44 0;
#X connect 45 1 46 0;
#X connect 46 0 54 0;
#X connect 46 1 53 0;
#X connect 47 0 5 0;
#X connect 48 0 49 0;
#X connect 49 0 50 0;
#X connect 50 0 52 0;
#X connect 50 0 47 1;
#X connect 51 0 50 0;
#X connect 52 0 54 1;
#X connect 53 0 51 0;
#X connect 54 0 47 0;
#X restore 685 241 pd properties -> gui;
#N canvas 0 30 721 722 gui.numProps 0;
#X obj 35 11 r \$0-gui.numProp0;
#X obj 35 35 pack 0 0;
#X obj 40 64 r \$0-gui.numProp1;
#X obj 40 87 pack 0 1;
#X obj 45 112 r \$0-gui.numProp2;
#X obj 45 136 pack 0 2;
#X obj 50 163 r \$0-gui.numProp3;
#X obj 50 186 pack 0 3;
#X obj 59 219 r \$0-gui.numProp4;
#X obj 64 272 r \$0-gui.numProp5;
#X obj 69 320 r \$0-gui.numProp6;
#X obj 74 371 r \$0-gui.numProp7;
#X obj 59 243 pack 0 4;
#X obj 64 295 pack 0 5;
#X obj 69 344 pack 0 6;
#X obj 73 394 pack 0 7;
#X obj 230 36 pack 0 0;
#X obj 235 88 pack 0 1;
#X obj 240 137 pack 0 2;
#X obj 245 187 pack 0 3;
#X obj 254 244 pack 0 4;
#X obj 259 296 pack 0 5;
#X obj 264 345 pack 0 6;
#X obj 268 395 pack 0 7;
#X obj 230 12 r \$0-gui.num_min0;
#X obj 235 65 r \$0-gui.num_min1;
#X obj 240 113 r \$0-gui.num_min2;
#X obj 245 164 r \$0-gui.num_min3;
#X obj 254 220 r \$0-gui.num_min4;
#X obj 259 273 r \$0-gui.num_min5;
#X obj 264 321 r \$0-gui.num_min6;
#X obj 269 372 r \$0-gui.num_min7;
#X obj 410 36 pack 0 0;
#X obj 415 88 pack 0 1;
#X obj 420 137 pack 0 2;
#X obj 425 187 pack 0 3;
#X obj 434 244 pack 0 4;
#X obj 439 296 pack 0 5;
#X obj 444 345 pack 0 6;
#X obj 448 395 pack 0 7;
#X obj 410 12 r \$0-gui.num_max0;
#X obj 415 65 r \$0-gui.num_max1;
#X obj 420 113 r \$0-gui.num_max2;
#X obj 425 164 r \$0-gui.num_max3;
#X obj 434 220 r \$0-gui.num_max4;
#X obj 439 273 r \$0-gui.num_max5;
#X obj 444 321 r \$0-gui.num_max6;
#X obj 449 372 r \$0-gui.num_max7;
#X obj 590 36 pack 0 0;
#X obj 595 88 pack 0 1;
#X obj 600 137 pack 0 2;
#X obj 605 187 pack 0 3;
#X obj 614 244 pack 0 4;
#X obj 619 296 pack 0 5;
#X obj 624 345 pack 0 6;
#X obj 628 395 pack 0 7;
#X obj 590 12 r \$0-gui.num_step0;
#X obj 595 65 r \$0-gui.num_step1;
#X obj 600 113 r \$0-gui.num_step2;
#X obj 605 164 r \$0-gui.num_step3;
#X obj 614 221 r \$0-gui.num_step4;
#X obj 619 273 r \$0-gui.num_step5;
#X obj 624 320 r \$0-gui.num_step6;
#X obj 629 373 r \$0-gui.num_step7;
#X obj 336 572 outlet;
#X obj 231 448 t a;
#X obj 401 440 t a;
#N canvas 0 30 721 722 calc 0;
#X obj 431 288 pack;
#X obj 430 264 swap, f 13;
#X obj 435 232 sdGate;
#X obj 496 211 r \$0-count;
#X obj 468 210 < 1;
#X obj 171 74 sdGate;
#X obj 217 54 r \$0-props;
#X obj 217 77 list length;
#X obj 460 166 unpack;
#X obj 184 381 sdList;
#X obj 217 326 r \$0-props;
#X obj 217 349 sdSetSelector set;
#X msg 149 352 get \$1;
#X obj 121 419 sdGate;
#X msg 239 423 0;
#X msg 196 407 1;
#X obj 114 323 unpack;
#X obj 121 440 sdPack prop;
#X obj 121 486 sdPack send;
#X obj 104 295 t a b;
#X obj 165 36 inlet;
#X obj 385 591 outlet;
#X obj 431 312 sdPack set_max_by_ind;
#X obj 121 463 sdPack set_max;
#X connect 0 0 22 0;
#X connect 1 0 0 0;
#X connect 1 1 0 1;
#X connect 2 0 1 0;
#X connect 3 0 4 1;
#X connect 4 0 2 1;
#X connect 5 0 19 0;
#X connect 5 1 8 0;
#X connect 6 0 7 0;
#X connect 7 0 5 1;
#X connect 8 0 2 0;
#X connect 8 1 1 1;
#X connect 8 1 4 0;
#X connect 9 0 15 0;
#X connect 9 0 17 1;
#X connect 10 0 11 0;
#X connect 11 0 9 0;
#X connect 12 0 9 0;
#X connect 13 0 17 0;
#X connect 14 0 13 1;
#X connect 15 0 13 1;
#X connect 16 0 13 0;
#X connect 16 1 12 0;
#X connect 17 0 23 0;
#X connect 18 0 21 0;
#X connect 19 0 16 0;
#X connect 19 1 14 0;
#X connect 20 0 5 0;
#X connect 22 0 21 0;
#X connect 23 0 18 0;
#X restore 419 516 pd calc msg;
#N canvas 0 30 721 722 calc 0;
#X obj 431 288 pack;
#X obj 430 264 swap, f 13;
#X obj 431 312 sdPack set_min_by_ind;
#X obj 435 232 sdGate;
#X obj 496 211 r \$0-count;
#X obj 468 210 < 1;
#X obj 171 74 sdGate;
#X obj 217 54 r \$0-props;
#X obj 217 77 list length;
#X obj 460 166 unpack;
#X obj 184 381 sdList;
#X obj 217 326 r \$0-props;
#X obj 217 349 sdSetSelector set;
#X msg 149 352 get \$1;
#X obj 121 419 sdGate;
#X msg 239 423 0;
#X msg 196 407 1;
#X obj 114 323 unpack;
#X obj 121 440 sdPack prop;
#X obj 121 486 sdPack send;
#X obj 104 295 t a b;
#X obj 121 463 sdPack set_min;
#X obj 165 36 inlet;
#X obj 385 591 outlet;
#X connect 0 0 2 0;
#X connect 1 0 0 0;
#X connect 1 1 0 1;
#X connect 2 0 23 0;
#X connect 3 0 1 0;
#X connect 4 0 5 1;
#X connect 5 0 3 1;
#X connect 6 0 20 0;
#X connect 6 1 9 0;
#X connect 7 0 8 0;
#X connect 8 0 6 1;
#X connect 9 0 3 0;
#X connect 9 1 1 1;
#X connect 9 1 5 0;
#X connect 10 0 16 0;
#X connect 10 0 18 1;
#X connect 11 0 12 0;
#X connect 12 0 10 0;
#X connect 13 0 10 0;
#X connect 14 0 18 0;
#X connect 15 0 14 1;
#X connect 16 0 14 1;
#X connect 17 0 14 0;
#X connect 17 1 13 0;
#X connect 18 0 21 0;
#X connect 19 0 23 0;
#X connect 20 0 17 0;
#X connect 20 1 15 0;
#X connect 21 0 19 0;
#X connect 22 0 6 0;
#X restore 217 510 pd calc msg;
#X obj 580 445 t a;
#N canvas 0 30 721 722 calc 0;
#X obj 431 288 pack;
#X obj 430 264 swap, f 13;
#X obj 435 232 sdGate;
#X obj 496 211 r \$0-count;
#X obj 468 210 < 1;
#X obj 171 74 sdGate;
#X obj 217 54 r \$0-props;
#X obj 217 77 list length;
#X obj 460 166 unpack;
#X obj 184 381 sdList;
#X obj 217 326 r \$0-props;
#X obj 217 349 sdSetSelector set;
#X msg 149 352 get \$1;
#X obj 121 419 sdGate;
#X msg 239 423 0;
#X msg 196 407 1;
#X obj 114 323 unpack;
#X obj 121 440 sdPack prop;
#X obj 121 486 sdPack send;
#X obj 104 295 t a b;
#X obj 165 36 inlet;
#X obj 385 591 outlet;
#X obj 431 312 sdPack set_step_by_ind;
#X obj 121 463 sdPack set_step;
#X connect 0 0 22 0;
#X connect 1 0 0 0;
#X connect 1 1 0 1;
#X connect 2 0 1 0;
#X connect 3 0 4 1;
#X connect 4 0 2 1;
#X connect 5 0 19 0;
#X connect 5 1 8 0;
#X connect 6 0 7 0;
#X connect 7 0 5 1;
#X connect 8 0 2 0;
#X connect 8 1 1 1;
#X connect 8 1 4 0;
#X connect 9 0 15 0;
#X connect 9 0 17 1;
#X connect 10 0 11 0;
#X connect 11 0 9 0;
#X connect 12 0 9 0;
#X connect 13 0 17 0;
#X connect 14 0 13 1;
#X connect 15 0 13 1;
#X connect 16 0 13 0;
#X connect 16 1 12 0;
#X connect 17 0 23 0;
#X connect 18 0 21 0;
#X connect 19 0 16 0;
#X connect 19 1 14 0;
#X connect 20 0 5 0;
#X connect 22 0 21 0;
#X connect 23 0 18 0;
#X restore 566 525 pd calc msg;
#N canvas 0 30 721 722 calc 0;
#X obj 431 288 pack;
#X obj 430 264 swap, f 13;
#X obj 435 232 sdGate;
#X obj 496 211 r \$0-count;
#X obj 468 210 < 1;
#X obj 171 74 sdGate;
#X obj 217 54 r \$0-props;
#X obj 217 77 list length;
#X obj 460 166 unpack;
#X obj 184 381 sdList;
#X obj 217 326 r \$0-props;
#X obj 217 349 sdSetSelector set;
#X msg 149 352 get \$1;
#X obj 121 419 sdGate;
#X msg 239 423 0;
#X msg 196 407 1;
#X obj 114 323 unpack;
#X obj 121 440 sdPack prop;
#X obj 121 486 sdPack send;
#X obj 104 295 t a b;
#X obj 165 36 inlet;
#X obj 385 591 outlet;
#X obj 431 312 sdPack set_num_by_ind;
#X obj 121 463 sdPack set;
#X connect 0 0 22 0;
#X connect 1 0 0 0;
#X connect 1 1 0 1;
#X connect 2 0 1 0;
#X connect 3 0 4 1;
#X connect 4 0 2 1;
#X connect 5 0 19 0;
#X connect 5 1 8 0;
#X connect 6 0 7 0;
#X connect 7 0 5 1;
#X connect 8 0 2 0;
#X connect 8 1 1 1;
#X connect 8 1 4 0;
#X connect 9 0 15 0;
#X connect 9 0 17 1;
#X connect 10 0 11 0;
#X connect 11 0 9 0;
#X connect 12 0 9 0;
#X connect 13 0 17 0;
#X connect 14 0 13 1;
#X connect 15 0 13 1;
#X connect 16 0 13 0;
#X connect 16 1 12 0;
#X connect 17 0 23 0;
#X connect 18 0 21 0;
#X connect 19 0 16 0;
#X connect 19 1 14 0;
#X connect 20 0 5 0;
#X connect 22 0 21 0;
#X connect 23 0 18 0;
#X restore 36 486 pd calc msg;
#X obj 22 434 t a, f 13;
#X connect 0 0 1 0;
#X connect 1 0 72 0;
#X connect 2 0 3 0;
#X connect 3 0 72 0;
#X connect 4 0 5 0;
#X connect 5 0 72 0;
#X connect 6 0 7 0;
#X connect 7 0 72 0;
#X connect 8 0 12 0;
#X connect 9 0 13 0;
#X connect 10 0 14 0;
#X connect 11 0 15 0;
#X connect 12 0 72 0;
#X connect 13 0 72 0;
#X connect 14 0 72 0;
#X connect 15 0 72 0;
#X connect 16 0 65 0;
#X connect 17 0 65 0;
#X connect 18 0 65 0;
#X connect 19 0 65 0;
#X connect 20 0 65 0;
#X connect 21 0 65 0;
#X connect 22 0 65 0;
#X connect 23 0 65 0;
#X connect 24 0 16 0;
#X connect 25 0 17 0;
#X connect 26 0 18 0;
#X connect 27 0 19 0;
#X connect 28 0 20 0;
#X connect 29 0 21 0;
#X connect 30 0 22 0;
#X connect 31 0 23 0;
#X connect 32 0 66 0;
#X connect 33 0 66 0;
#X connect 34 0 66 0;
#X connect 35 0 66 0;
#X connect 36 0 66 0;
#X connect 37 0 66 0;
#X connect 38 0 66 0;
#X connect 39 0 66 0;
#X connect 40 0 32 0;
#X connect 41 0 33 0;
#X connect 42 0 34 0;
#X connect 43 0 35 0;
#X connect 44 0 36 0;
#X connect 45 0 37 0;
#X connect 46 0 38 0;
#X connect 47 0 39 0;
#X connect 48 0 69 0;
#X connect 49 0 69 0;
#X connect 50 0 69 0;
#X connect 51 0 69 0;
#X connect 52 0 69 0;
#X connect 53 0 69 0;
#X connect 54 0 69 0;
#X connect 55 0 69 0;
#X connect 56 0 48 0;
#X connect 57 0 49 0;
#X connect 58 0 50 0;
#X connect 59 0 51 0;
#X connect 60 0 52 0;
#X connect 61 0 53 0;
#X connect 62 0 54 0;
#X connect 63 0 55 0;
#X connect 65 0 68 0;
#X connect 66 0 67 0;
#X connect 67 0 64 0;
#X connect 68 0 64 0;
#X connect 69 0 70 0;
#X connect 70 0 64 0;
#X connect 71 0 64 0;
#X connect 72 0 71 0;
#X restore 489 503 pd gui.numProps -> obj;
#X obj 12 30 nbx 5 10 -1e+37 1e+37 0 0 \$0-gui.num_min0 \$0-gui.num_min0_rcv
empty 0 -8 1 8 -262144 -1 -1 0 256;
#X obj 261 29 nbx 5 10 -1e+37 1e+37 0 0 \$0-gui.num_max0 \$0-gui.num_max0_rcv
empty 0 -8 1 8 -262144 -1 -1 0 256;
#X obj 11 64 nbx 5 10 -1e+37 1e+37 0 0 \$0-gui.num_min1 \$0-gui.num_min1_rcv
empty 0 -8 1 8 -262144 -1 -1 0 256;
#X obj 260 63 nbx 5 10 -1e+37 1e+37 0 0 \$0-gui.num_max1 \$0-gui.num_max1_rcv
empty 0 -8 1 8 -262144 -1 -1 0 256;
#X obj 11 97 nbx 5 10 -1e+37 1e+37 0 0 \$0-gui.num_min2 \$0-gui.num_min2_rcv
empty 0 -8 1 8 -262144 -1 -1 0 256;
#X obj 260 96 nbx 5 10 -1e+37 1e+37 0 0 \$0-gui.num_max2 \$0-gui.num_max2_rcv
empty 0 -8 1 8 -262144 -1 -1 0 256;
#X obj 11 130 nbx 5 10 -1e+37 1e+37 0 0 \$0-gui.num_min3 \$0-gui.num_min3_rcv
empty 0 -8 1 8 -262144 -1 -1 0 256;
#X obj 260 129 nbx 5 10 -1e+37 1e+37 0 0 \$0-gui.num_max3 \$0-gui.num_max3_rcv
empty 0 -8 1 8 -262144 -1 -1 0 256;
#X obj 11 162 nbx 5 10 -1e+37 1e+37 0 0 \$0-gui.num_min4 \$0-gui.num_min4_rcv
empty 0 -8 1 8 -262144 -1 -1 0 256;
#X obj 260 161 nbx 5 10 -1e+37 1e+37 0 0 \$0-gui.num_max4 \$0-gui.num_max4_rcv
empty 0 -8 1 8 -262144 -1 -1 0 256;
#X obj 11 194 nbx 5 10 -1e+37 1e+37 0 0 \$0-gui.num_min5 \$0-gui.num_min5_rcv
empty 0 -8 1 8 -262144 -1 -1 0 256;
#X obj 260 193 nbx 5 10 -1e+37 1e+37 0 0 \$0-gui.num_max5 \$0-gui.num_max5_rcv
empty 0 -8 1 8 -262144 -1 -1 0 256;
#X obj 11 227 nbx 5 10 -1e+37 1e+37 0 0 \$0-gui.num_min6 \$0-gui.num_min6_rcv
empty 0 -8 1 8 -262144 -1 -1 0 256;
#X obj 260 226 nbx 5 10 -1e+37 1e+37 0 0 \$0-gui.num_max6 \$0-gui.num_max6_rcv
empty 0 -8 1 8 -262144 -1 -1 0 256;
#X obj 11 260 nbx 5 10 -1e+37 1e+37 0 0 \$0-gui.num_min7 \$0-gui.num_min7_rcv
empty 0 -8 1 8 -262144 -1 -1 0 256;
#X obj 260 259 nbx 5 10 -1e+37 1e+37 0 0 \$0-gui.num_max7 \$0-gui.num_max7_rcv
empty 0 -8 1 8 -262144 -1 -1 0 256;
#X obj 261 11 nbx 3 14 -1e+37 1e+37 0 0 \$0-gui.num_step0 \$0-gui.num_step0_rcv
empty 0 -8 1 8 -262144 -1 -1 0 256;
#X obj 260 47 nbx 3 14 -1e+37 1e+37 0 0 \$0-gui.num_step1 \$0-gui.num_step1_rcv
empty 0 -8 1 8 -262144 -1 -1 0 256;
#X obj 260 79 nbx 3 14 -1e+37 1e+37 0 0 \$0-gui.num_step2 \$0-gui.num_step2_rcv
empty 0 -8 1 8 -262144 -1 -1 0 256;
#X obj 260 112 nbx 3 14 -1e+37 1e+37 0 0 \$0-gui.num_step3 \$0-gui.num_step3_rcv
empty 0 -8 1 8 -262144 -1 -1 0 256;
#X obj 260 144 nbx 3 14 -1e+37 1e+37 0 0 \$0-gui.num_step4 \$0-gui.num_step4_rcv
empty 0 -8 1 8 -262144 -1 -1 0 256;
#X obj 260 176 nbx 3 14 -1e+37 1e+37 0 0 \$0-gui.num_step5 \$0-gui.num_step5_rcv
empty 0 -8 1 8 -262144 -1 -1 0 256;
#X obj 260 209 nbx 3 14 -1e+37 1e+37 0 0 \$0-gui.num_step6 \$0-gui.num_step6_rcv
empty 0 -8 1 8 -262144 -1 -1 0 256;
#X obj 260 242 nbx 3 14 -1e+37 1e+37 0 0 \$0-gui.num_step7 \$0-gui.num_step7_rcv
empty 0 -8 1 8 -262144 -1 -1 0 256;
#X text 229 8 step;
#X obj 12 12 cnv 15 13 13 empty empty 1 1 8 0 10 -191407 -66577 0;
#X obj 12 47 cnv 15 13 13 empty empty 2 1 8 0 10 -191407 -66577 0;
#X obj 12 80 cnv 15 13 13 empty empty 3 1 8 0 10 -191407 -66577 0;
#X obj 12 113 cnv 15 13 13 empty empty 4 1 8 0 10 -191407 -66577 0
;
#X obj 12 146 cnv 15 13 13 empty empty 5 1 8 0 10 -191407 -66577 0
;
#X obj 12 179 cnv 15 13 13 empty empty 6 1 8 0 10 -191407 -66577 0
;
#X obj 12 210 cnv 15 13 13 empty empty 7 1 8 0 10 -191407 -66577 0
;
#X obj 12 243 cnv 15 13 13 empty empty 8 1 8 0 10 -191407 -66577 0
;
#X obj 296 15 nbx 2 10 0 31 0 0 \$0-gui.num_shift \$0-gui.num_shift_rcv
empty 0 -8 1 8 -1 -262144 -1 0 256;
#X obj 305 81 bng 13 250 50 0 \$0-gui.inc_shift empty empty 17 7 0
10 -262144 -1 -262144;
#X obj 305 27 bng 13 250 50 0 \$0-gui.dec_shift empty empty 17 7 0
10 -262144 -1 -1;
#X obj 307 44 vsl 8 32 0 31 0 0 empty empty empty 0 -9 0 10 -1 -262144
-1 3100 1;
#X obj 392 118 loadbang;
#X obj 344 167 expr 31-$f1;
#X obj 349 15 r \$0-gui.scroll.num_shift_rcv, f 14;
#X obj 273 303 expr 31-int($f1);
#X obj 349 64 route set;
#X obj 344 191 sdSetSelector set;
#X obj 25 683 s \$0-gui.num_shift_rcv;
#X obj 24 636 f;
#X obj 76 637 f;
#X obj 23 562 r \$0-gui.inc_shift;
#X obj 71 586 r \$0-gui.dec_shift;
#X obj 57 30 hsl 200 10 0 1 0 0 \$0-gui.scroll.numProp0 \$0-gui.scroll.numProp0_rcv
empty -2 -8 0 10 -1 -260097 -1 0 1;
#X obj 56 63 hsl 200 10 0 1 0 0 \$0-gui.scroll.numProp1 \$0-gui.scroll.numProp1_rcv
empty -2 -8 0 10 -1 -260097 -1 0 1;
#X obj 56 96 hsl 200 10 0 1 0 0 \$0-gui.scroll.numProp2 \$0-gui.scroll.numProp2_rcv
empty -2 -8 0 10 -1 -260097 -1 0 1;
#X obj 56 129 hsl 200 10 0 1 0 0 \$0-gui.scroll.numProp3 \$0-gui.scroll.numProp3_rcv
empty -2 -8 0 10 -1 -260097 -1 0 1;
#X obj 56 161 hsl 200 10 0 1 0 0 \$0-gui.scroll.numProp4 \$0-gui.scroll.numProp4_rcv
empty -2 -8 0 10 -1 -260097 -1 0 1;
#X obj 56 193 hsl 200 10 0 1 0 0 \$0-gui.scroll.numProp5 \$0-gui.scroll.numProp5_rcv
empty -2 -8 0 10 -1 -260097 -1 0 1;
#X obj 56 226 hsl 200 10 0 1 0 0 \$0-gui.scroll.numProp6 \$0-gui.scroll.numProp6_rcv
empty -2 -8 0 10 -1 -260097 -1 0 1;
#X obj 56 260 hsl 200 10 0 1 0 0 \$0-gui.scroll.numProp7 \$0-gui.scroll.numProp7_rcv
empty -2 -8 0 10 -1 -260097 -1 0 1;
#X msg 481 452 list set ( numShift ( \$1 ) );
#X obj 481 475 sdPackFromHuman;
#N canvas 0 30 721 722 numShift-> 0;
#X obj 86 49 inlet;
#X obj 220 284 s \$0-gui.scroll.num_shift_rcv;
#X msg 231 247 set \$1;
#X obj 181 313 s \$0-gui.num_shift_rcv;
#X connect 0 0 2 0;
#X connect 2 0 3 0;
#X connect 2 0 1 0;
#X restore 24 356 pd numShift-> gui;
#X obj 349 88 sdFirst;
#X obj 273 326 t f b;
#X obj 273 361 s \$0-gui.scroll.num_shift;
#X obj 475 402 r \$0-gui.scroll.num_shift;
#X obj 468 379 r \$0-gui.num_shift;
#X obj 24 333 r \$0-numShift;
#X obj 95 607 r \$0-numShift;
#X msg 329 328 1;
#X msg 392 142 0;
#X obj 685 97 inlet update_num;
#X obj 449 574 outlet gui->obj;
#N canvas 0 30 721 736 gui.scroll.numProps 0;
#X obj 269 617 pack;
#X obj 268 593 swap;
#X obj 40 87 pack 0 1;
#X obj 45 136 pack 0 2;
#X obj 50 186 pack 0 3;
#X obj 59 243 pack 0 4;
#X obj 64 295 pack 0 5;
#X obj 69 344 pack 0 6;
#X obj 73 394 pack 0 7;
#X obj 35 11 r \$0-gui.scroll.numProp0;
#X obj 269 641 sdPack set_num_by_ind_in_range;
#X obj 40 64 r \$0-gui.scroll.numProp1;
#X obj 45 112 r \$0-gui.scroll.numProp2;
#X obj 50 163 r \$0-gui.scroll.numProp3;
#X obj 58 219 r \$0-gui.scroll.numProp4;
#X obj 64 272 r \$0-gui.scroll.numProp5;
#X obj 68 320 r \$0-gui.scroll.numProp6;
#X obj 74 371 r \$0-gui.scroll.numProp7;
#X obj 35 35 pack 0 0;
#X obj 129 694 outlet;
#X obj 268 543 sdGate;
#X obj 329 522 r \$0-count;
#X obj 301 521 < 1;
#X obj 126 425 r \$0-props;
#X obj 126 448 list length;
#X obj 85 565 sdList;
#X obj 118 510 r \$0-props;
#X obj 118 533 sdSetSelector set;
#X msg 50 526 get \$1;
#X obj 22 603 sdGate;
#X msg 140 607 0;
#X msg 97 591 1;
#X obj 16 501 unpack;
#X obj 30 454 sdGate;
#X obj 265 490 unpack;
#X obj 22 647 sdPack set_in_range;
#X obj 22 624 sdPack prop;
#X obj 22 670 sdPack send;
#X obj 30 477 t a b;
#X connect 0 0 10 0;
#X connect 1 0 0 0;
#X connect 1 1 0 1;
#X connect 2 0 33 0;
#X connect 3 0 33 0;
#X connect 4 0 33 0;
#X connect 5 0 33 0;
#X connect 6 0 33 0;
#X connect 7 0 33 0;
#X connect 8 0 33 0;
#X connect 9 0 18 0;
#X connect 10 0 19 0;
#X connect 11 0 2 0;
#X connect 12 0 3 0;
#X connect 13 0 4 0;
#X connect 14 0 5 0;
#X connect 15 0 6 0;
#X connect 16 0 7 0;
#X connect 17 0 8 0;
#X connect 18 0 33 0;
#X connect 20 0 1 0;
#X connect 21 0 22 1;
#X connect 22 0 20 1;
#X connect 23 0 24 0;
#X connect 24 0 33 1;
#X connect 25 0 31 0;
#X connect 25 0 36 1;
#X connect 26 0 27 0;
#X connect 27 0 25 0;
#X connect 28 0 25 0;
#X connect 29 0 36 0;
#X connect 30 0 29 1;
#X connect 31 0 29 1;
#X connect 32 0 29 0;
#X connect 32 1 28 0;
#X connect 33 0 38 0;
#X connect 33 1 34 0;
#X connect 34 0 20 0;
#X connect 34 1 22 0;
#X connect 34 1 1 1;
#X connect 35 0 37 0;
#X connect 36 0 35 0;
#X connect 37 0 19 0;
#X connect 38 0 32 0;
#X connect 38 1 30 0;
#X restore 522 531 pd gui.scroll.numProps -> obj;
#X obj 547 117 inlet num_props;
#N canvas 0 30 721 722 set 0;
#X obj 143 182 sdUnPack;
#X obj 148 274 sdList;
#X msg 113 242 serialize;
#X msg 186 243 clear;
#X obj 143 205 t b a b;
#X msg 267 246 0;
#X obj 314 392 t a b;
#X obj 291 665 send;
#X msg 264 514 label \$1;
#N canvas 0 30 721 722 gui 0;
#X obj 43 9 inlet;
#X obj 74 149 until;
#X msg 184 108 0;
#X obj 79 220 pack f \$0;
#X obj 74 71 t b b;
#X text 69 362 clear numProps display;
#X obj 74 184 sdCounter -1;
#X msg 79 259 \; \$2-gui.numPropName\$1_rcv label - \; \$2-gui.numProp\$1_rcv
set 0 \; \$2-gui.num_min\$1_rcv set -1000 \; \$2-gui.num_max\$1_rcv
set 1000 \; \$2-gui.scroll.numProp\$1_rcv set 0 \;;
#X obj 69 114 f 0;
#X obj 98 110 r \$0-count;
#X connect 0 0 4 0;
#X connect 1 0 6 0;
#X connect 2 0 6 0;
#X connect 3 0 7 0;
#X connect 4 0 8 0;
#X connect 4 1 2 0;
#X connect 6 0 3 0;
#X connect 8 0 1 0;
#X connect 9 0 8 1;
#X restore 243 173 pd gui clear props;
#X obj 179 143 t a b;
#X obj 360 618 sdReplace \$0;
#X obj 363 410 sdCounter -1;
#X msg 360 595 symbol %0-gui.numPropName\$1_rcv;
#X obj 100 24 inlet;
#X obj 403 34 inlet prop_shift;
#X obj 270 489 sdGate;
#X obj 363 433 - 0;
#X obj 92 111 t b a;
#X obj 403 61 t f;
#X obj 308 464 expr $f1 >= 0 && $f1 < $f2;
#X obj 572 32 inlet;
#X obj 468 440 r \$0-count;
#X obj 144 363 sdGate;
#X obj 179 313 r \$0-props;
#X obj 179 338 list length;
#X floatatom 250 364 5 0 0 0 - - -;
#X obj 169 436 r \$0-props;
#X obj 169 459 sdSetSelector set;
#X obj 116 488 sdList find;
#X msg 111 455 find \$1;
#X obj 84 432 t s s;
#X msg 65 560 label \$1;
#X obj 68 532 sdGate;
#X obj 120 529 != -1;
#X connect 0 0 4 0;
#X connect 1 0 23 0;
#X connect 2 0 1 0;
#X connect 3 0 1 0;
#X connect 4 0 2 0;
#X connect 4 1 1 1;
#X connect 4 2 3 0;
#X connect 4 2 5 0;
#X connect 5 0 12 0;
#X connect 6 0 16 0;
#X connect 6 1 12 0;
#X connect 8 0 7 0;
#X connect 10 0 0 0;
#X connect 10 1 9 0;
#X connect 11 0 7 1;
#X connect 12 0 17 0;
#X connect 13 0 11 0;
#X connect 14 0 18 0;
#X connect 15 0 19 0;
#X connect 16 0 8 0;
#X connect 17 0 13 0;
#X connect 17 0 20 0;
#X connect 18 1 10 0;
#X connect 19 0 17 1;
#X connect 20 0 16 1;
#X connect 21 0 9 0;
#X connect 22 0 20 1;
#X connect 23 0 31 0;
#X connect 23 1 6 0;
#X connect 24 0 25 0;
#X connect 25 0 23 1;
#X connect 25 0 26 0;
#X connect 27 0 28 0;
#X connect 28 0 29 0;
#X connect 29 0 34 0;
#X connect 29 0 13 0;
#X connect 30 0 29 0;
#X connect 31 0 33 0;
#X connect 31 1 30 0;
#X connect 32 0 7 0;
#X connect 33 0 32 0;
#X connect 34 0 33 1;
#X restore 551 199 pd set gui.numProps;
#X obj 606 171 r \$0-numShift;
#X obj 547 141 sdObjTrack numProps;
#X obj 540 259 sdUnPack;
#X obj 564 314 s \$0-numShift;
#X obj 540 235 sdObjTrack numShift;
#X obj 145 337 r \$0-numShift;
#X floatatom 145 360 5 0 0 0 - - -;
#X msg 449 337 list get_all 0;
#X obj 474 288 t b f;
#X obj 468 427 t f;
#X msg 665 35 clear;
#X obj 76 659 - 1;
#X obj 24 659 + 1;
#X obj 121 631 r \$0-count;
#X text 314 612 donecanvasdialog <xunit> <yunits> <gopmode> <xfrom>
<yfrom> <xto> <yto> <width> <height> <xoffset> <yoffset> 1;
#X obj 246 650 namecanvas \$0-canvas;
#X obj 470 20 inlet;
#X obj 457 67 sdPropertyList properties \$0;
#X obj 471 43 t a a;
#N canvas 0 30 721 722 arglist 0;
#X obj 182 285 sdList;
#X msg 182 243 serialize \, clear;
#X obj 170 204 t b l;
#X obj 182 308 route symbol;
#X obj 44 19 inlet;
#X obj 173 168 list append \$1 \$2 \$3 \$4 \$5 \$6 \$7 \$8 \$9;
#X obj 112 343 sdList bang;
#X msg 99 310 bang \, clear;
#X obj 112 390 s \$0-properties_rcv;
#X obj 112 366 sdSetSelector priv.set;
#X obj 44 42 t b b;
#X obj 301 118 s \$0-count_rcv;
#X msg 301 95 priv.set \$1;
#X obj 301 46 sdAny \$1;
#X obj 301 69 route float;
#X connect 0 0 3 0;
#X connect 1 0 0 0;
#X connect 2 0 1 0;
#X connect 2 0 7 0;
#X connect 2 1 0 1;
#X connect 3 0 6 1;
#X connect 4 0 10 0;
#X connect 5 0 2 0;
#X connect 6 0 9 0;
#X connect 7 0 6 0;
#X connect 9 0 8 0;
#X connect 10 0 5 0;
#X connect 10 1 13 0;
#X connect 12 0 11 0;
#X connect 13 0 14 0;
#X connect 14 0 12 0;
#X restore 525 32 pd arglist;
#X obj 522 10 loadbang;
#X obj 466 90 sdProperty count \$0 3;
#X obj 124 394 r \$0-count;
#X floatatom 124 417 5 0 0 0 - - -;
#X obj 25 418 r \$0-properties;
#X obj 25 441 l2s;
#X symbolatom 25 464 20 0 0 0 - - -;
#X obj 25 515 l2s;
#X symbolatom 25 538 20 0 0 0 - - -;
#X obj 25 492 r \$0-props;
#N canvas 0 30 721 722 set 0;
#X obj 44 69 inlet;
#X obj 444 29 inlet;
#X obj 214 319 s \$0-canvas;
#X floatatom 259 219 5 0 0 0 - - -;
#X obj 187 259 pack 146 f;
#X msg 214 296 donecanvasdialog 0 0 3 0 0 1 1 \$1 \$2 10 10 1 \, dirty
0;
#X obj 259 241 + 0;
#X obj 198 171 t b f;
#X obj 259 197 * 33;
#X connect 0 0 4 0;
#X connect 1 0 7 0;
#X connect 3 0 6 0;
#X connect 4 0 5 0;
#X connect 5 0 2 0;
#X connect 6 0 4 1;
#X connect 7 0 4 0;
#X connect 7 1 8 0;
#X connect 8 0 3 0;
#X restore 260 572 pd set canvas;
#X obj 270 399 r \$0-properties;
#X obj 210 453 s \$0-props;
#X obj 270 422 t a a;
#X obj 297 444 list length;
#X obj 311 470 r \$0-count;
#X obj 311 493 t b f;
#X obj 260 522 expr if(!$f1 \, 310 \, 291) \; if(!$f1 \, $f2 \, $f1)
;
#X obj 590 9 bng 15 250 50 0 empty empty empty 17 7 0 10 -262144 -1
-1;
#X connect 17 0 87 0;
#X connect 54 0 58 0;
#X connect 55 0 85 0;
#X connect 56 0 60 0;
#X connect 57 0 59 0;
#X connect 58 0 78 0;
#X connect 59 0 77 0;
#X connect 60 0 54 0;
#X connect 62 0 103 0;
#X connect 63 0 102 0;
#X connect 64 0 62 0;
#X connect 65 0 63 0;
#X connect 74 0 75 0;
#X connect 75 0 87 0;
#X connect 77 1 56 0;
#X connect 78 0 79 0;
#X connect 78 1 84 0;
#X connect 80 0 100 0;
#X connect 81 0 100 0;
#X connect 82 0 76 0;
#X connect 83 0 63 1;
#X connect 83 0 62 1;
#X connect 84 0 77 1;
#X connect 85 0 56 0;
#X connect 86 0 16 0;
#X connect 88 0 87 0;
#X connect 89 0 92 0;
#X connect 89 0 95 0;
#X connect 91 0 90 1;
#X connect 92 0 90 0;
#X connect 93 0 99 0;
#X connect 95 0 93 0;
#X connect 96 0 97 0;
#X connect 98 0 87 0;
#X connect 99 0 98 0;
#X connect 99 1 94 0;
#X connect 100 0 74 0;
#X connect 101 0 90 2;
#X connect 102 0 61 0;
#X connect 103 0 61 0;
#X connect 104 0 102 1;
#X connect 104 0 103 1;
#X connect 107 0 109 0;
#X connect 108 1 112 0;
#X connect 109 0 108 0;
#X connect 111 0 110 0;
#X connect 113 0 114 0;
#X connect 115 0 116 0;
#X connect 116 0 117 0;
#X connect 118 0 119 0;
#X connect 120 0 118 0;
#X connect 122 0 124 0;
#X connect 124 0 123 0;
#X connect 124 1 125 0;
#X connect 125 0 128 0;
#X connect 126 0 127 0;
#X connect 127 0 128 0;
#X connect 127 1 128 1;
#X connect 128 0 121 0;
#X connect 128 1 121 1;
#X connect 129 0 110 0;
#X coords 0 0 1 1 310 66 2 10 10;
