#N canvas 0 30 681 736 10;
#N canvas 0 30 681 736 properties 0;
#X obj 21 23 inlet;
#X obj 70 118 sdUnPack;
#X obj 161 333 r \$0-props;
#X obj 161 356 sdSetSelector set;
#X obj 111 387 sdList find;
#X msg 103 352 find \$1;
#X obj 60 429 sdGate;
#X obj 112 426 != -1;
#X obj 164 488 send;
#X obj 55 221 t b a;
#X msg 57 457 set \$1;
#X obj 119 186 sdGate;
#X obj 173 139 r \$0-props;
#X obj 173 162 list length;
#X floatatom 169 185 5 0 0 0 - - -;
#X obj 192 429 pack f \$0;
#X text 532 304 index \, name \, value;
#X obj 512 327 t a a;
#X obj 592 379 list split 1;
#X obj 599 435 pack f \$0;
#X obj 546 516 send;
#X obj 430 425 sdGate;
#X obj 477 424 < 4;
#X obj 505 421 r \$0-count;
#X obj 453 364 list split 2;
#X obj 430 448 sdSetSelector set;
#X floatatom 552 455 5 0 0 0 - - -;
#X obj 70 93 sdFilter update_sym;
#X msg 187 464 symbol \$2-gui.sym_prop\$1_rcv;
#X msg 594 470 symbol \$2-gui.sym_prop\$1_rcv;
#X obj 457 389 l2s;
#X obj 52 290 list split 2;
#X obj 86 313 l2s;
#X obj 145 281 unpack f s;
#X obj 19 364 symbol;
#X connect 0 0 27 0;
#X connect 1 0 11 0;
#X connect 2 0 3 0;
#X connect 3 0 4 0;
#X connect 4 0 7 0;
#X connect 4 0 15 0;
#X connect 5 0 4 0;
#X connect 6 0 10 0;
#X connect 7 0 6 1;
#X connect 9 0 34 0;
#X connect 9 1 33 0;
#X connect 9 1 31 0;
#X connect 10 0 8 0;
#X connect 11 0 9 0;
#X connect 11 1 17 0;
#X connect 12 0 13 0;
#X connect 13 0 11 1;
#X connect 13 0 14 0;
#X connect 15 0 28 0;
#X connect 17 0 24 0;
#X connect 17 1 18 0;
#X connect 18 0 19 0;
#X connect 18 0 22 0;
#X connect 19 0 29 0;
#X connect 21 0 25 0;
#X connect 22 0 21 1;
#X connect 23 0 22 1;
#X connect 23 0 26 0;
#X connect 24 1 30 0;
#X connect 25 0 20 0;
#X connect 27 0 1 0;
#X connect 28 0 8 1;
#X connect 29 0 20 1;
#X connect 30 0 21 0;
#X connect 31 1 32 0;
#X connect 32 0 34 1;
#X connect 33 1 5 0;
#X connect 34 0 6 0;
#X restore 618 314 pd properties -> gui;
#X obj 536 535 sdPackFromHuman;
#X obj 504 631 outlet gui->obj;
#X obj 485 324 sdUnPack;
#X floatatom 553 45 5 0 0 0 - - -;
#X msg 504 397 list get_all 0;
#X obj 499 348 t b f;
#X obj 523 487 t f;
#X obj 553 22 r \$0-shift;
#X obj 589 374 s \$0-shift;
#X obj 553 69 r \$0-shift;
#X obj 523 440 r \$0-gui.shift;
#N canvas 683 30 681 62 gui.props 0;
#X obj 225 681 outlet;
#N canvas 0 30 681 722 calc 0;
#X obj 455 212 sdGate;
#X obj 516 191 r \$0-count;
#X obj 488 190 < 1;
#X obj 171 74 sdGate;
#X obj 217 54 r \$0-props;
#X obj 217 77 list length;
#X obj 184 381 sdList;
#X obj 217 326 r \$0-props;
#X obj 217 349 sdSetSelector set;
#X msg 149 352 get \$1;
#X obj 121 419 sdGate;
#X msg 239 423 0;
#X msg 196 407 1;
#X obj 121 440 sdPack prop;
#X obj 121 486 sdPack send;
#X obj 104 295 t a b;
#X obj 165 36 inlet;
#X obj 385 591 outlet;
#X obj 121 463 sdPack set;
#X obj 431 312 sdPack set_sym_by_ind;
#X obj 460 166 unpack s f;
#X obj 431 288 pack f s;
#X obj 431 264 f;
#X obj 455 235 t b s;
#X obj 114 323 unpack s f;
#X connect 0 0 23 0;
#X connect 1 0 2 1;
#X connect 2 0 0 1;
#X connect 3 0 15 0;
#X connect 3 1 20 0;
#X connect 4 0 5 0;
#X connect 5 0 3 1;
#X connect 6 0 12 0;
#X connect 6 0 13 1;
#X connect 7 0 8 0;
#X connect 8 0 6 0;
#X connect 9 0 6 0;
#X connect 10 0 13 0;
#X connect 11 0 10 1;
#X connect 12 0 10 1;
#X connect 13 0 18 0;
#X connect 14 0 17 0;
#X connect 15 0 24 0;
#X connect 15 1 11 0;
#X connect 16 0 3 0;
#X connect 18 0 14 0;
#X connect 19 0 17 0;
#X connect 20 0 0 0;
#X connect 20 1 2 0;
#X connect 20 1 22 1;
#X connect 21 0 19 0;
#X connect 22 0 21 0;
#X connect 23 0 22 0;
#X connect 23 1 21 1;
#X connect 24 0 10 0;
#X connect 24 1 9 0;
#X restore 224 542 pd calc msg;
#X obj 218 486 t a, f 12;
#X obj 226 22 r \$0-gui.sym_prop0;
#X obj 231 75 r \$0-gui.sym_prop1;
#X obj 236 123 r \$0-gui.sym_prop2;
#X obj 241 174 r \$0-gui.sym_prop3;
#X obj 250 230 r \$0-gui.sym_prop4;
#X obj 255 283 r \$0-gui.sym_prop5;
#X obj 260 332 r \$0-gui.sym_prop6;
#X obj 264 382 r \$0-gui.sym_prop7;
#X obj 226 46 pack s 0;
#X obj 231 98 pack s 1;
#X obj 236 147 pack s 2;
#X obj 241 197 pack s 3;
#X obj 250 254 pack s 4;
#X obj 255 306 pack s 5;
#X obj 260 355 pack s 6;
#X obj 264 405 pack s 7;
#X connect 1 0 0 0;
#X connect 2 0 1 0;
#X connect 3 0 11 0;
#X connect 4 0 12 0;
#X connect 5 0 13 0;
#X connect 6 0 14 0;
#X connect 7 0 15 0;
#X connect 8 0 16 0;
#X connect 9 0 17 0;
#X connect 10 0 18 0;
#X connect 11 0 2 0;
#X connect 12 0 2 0;
#X connect 13 0 2 0;
#X connect 14 0 2 0;
#X connect 15 0 2 0;
#X connect 16 0 2 0;
#X connect 17 0 2 0;
#X connect 18 0 2 0;
#X restore 530 602 pd gui.props -> obj;
#N canvas 0 30 681 736 shift-> 0;
#X obj 86 49 inlet;
#X msg 231 247 set \$1;
#X obj 181 313 s \$0-gui.shift_rcv;
#X connect 0 0 1 0;
#X connect 1 0 2 0;
#X restore 553 92 pd shift-> gui;
#X obj 663 176 inlet update;
#X obj 605 221 r \$0-shift;
#N canvas 0 30 681 736 set 0;
#X obj 143 182 sdUnPack;
#X obj 148 274 sdList;
#X msg 113 242 serialize;
#X msg 186 243 clear;
#X obj 143 205 t b a b;
#X msg 267 246 0;
#X obj 317 382 t a b;
#X obj 359 629 send;
#X msg 267 504 label \$1;
#N canvas 0 30 681 736 gui 0;
#X obj 43 9 inlet;
#X obj 74 149 until;
#X msg 144 138 0;
#X obj 79 220 pack f \$0;
#X obj 81 61 t b b, f 11;
#X obj 74 184 sdCounter -1;
#X obj 66 120 f;
#X obj 81 94 r \$0-count;
#X msg 79 259 \; \$2-gui.sym_prop_name\$1_rcv label - \; \$2-gui.sym_prop\$1_rcv
set - \;;
#X connect 0 0 4 0;
#X connect 1 0 5 0;
#X connect 2 0 5 0;
#X connect 3 0 8 0;
#X connect 4 0 6 0;
#X connect 4 1 2 0;
#X connect 5 0 3 0;
#X connect 6 0 1 0;
#X connect 7 0 6 1;
#X restore 243 173 pd gui clear props;
#X obj 179 143 t a b;
#X obj 411 597 sdReplace \$0;
#X obj 366 400 sdCounter -1;
#X obj 100 24 inlet;
#X obj 453 28 inlet prop_shift;
#X obj 273 479 sdGate;
#X obj 366 423 - 0;
#X obj 453 55 t f;
#X obj 311 454 expr $f1 >= 0 && $f1 < $f2;
#X obj 576 27 inlet;
#X obj 471 432 r \$0-count;
#X obj 148 348 sdGate;
#X obj 183 298 r \$0-props;
#X obj 183 323 list length;
#X floatatom 254 349 5 0 0 0 - - -;
#X obj 169 436 r \$0-props;
#X obj 169 459 sdSetSelector set;
#X obj 116 488 sdList find;
#X msg 111 455 find \$1;
#X obj 84 432 t s s;
#X obj 68 532 sdGate;
#X obj 120 529 != -1;
#X msg 411 574 symbol %0-gui.sym_prop_name\$1_rcv;
#X msg 65 560 label \$1;
#X connect 0 0 4 0;
#X connect 1 0 21 0;
#X connect 2 0 1 0;
#X connect 3 0 1 0;
#X connect 4 0 2 0;
#X connect 4 1 1 1;
#X connect 4 2 3 0;
#X connect 4 2 5 0;
#X connect 5 0 12 0;
#X connect 6 0 15 0;
#X connect 6 1 12 0;
#X connect 8 0 7 0;
#X connect 10 0 0 0;
#X connect 10 1 9 0;
#X connect 11 0 7 1;
#X connect 12 0 16 0;
#X connect 13 0 10 0;
#X connect 14 0 17 0;
#X connect 15 0 8 0;
#X connect 16 0 32 0;
#X connect 16 0 18 0;
#X connect 17 0 16 1;
#X connect 18 0 15 1;
#X connect 19 0 9 0;
#X connect 20 0 18 1;
#X connect 21 0 29 0;
#X connect 21 1 6 0;
#X connect 22 0 23 0;
#X connect 23 0 21 1;
#X connect 23 0 24 0;
#X connect 25 0 26 0;
#X connect 26 0 27 0;
#X connect 27 0 31 0;
#X connect 27 0 32 0;
#X connect 28 0 27 0;
#X connect 29 0 30 0;
#X connect 29 1 28 0;
#X connect 30 0 33 0;
#X connect 31 0 30 1;
#X connect 32 0 11 0;
#X connect 33 0 7 0;
#X restore 496 253 pd set gui.props;
#X msg 649 251 clear;
#X obj 27 9 inlet;
#N canvas 0 30 681 736 things 0;
#X obj 490 203 f;
#X obj 542 204 f;
#X obj 489 129 r \$0-gui.inc_shift;
#X obj 537 153 r \$0-gui.dec_shift;
#N canvas 0 30 681 736 numShift-> 0;
#X obj 86 49 inlet;
#X msg 181 288 2;
#X obj 181 313 s \$0-gui.num_shift_rcv;
#X connect 0 0 1 0;
#X connect 1 0 2 0;
#X restore 171 468 pd numShift-> gui;
#X floatatom 292 472 5 0 0 0 - - -;
#X obj 542 226 - 1;
#X obj 490 226 + 1;
#X obj 587 198 r \$0-count;
#X obj 271 506 r \$0-count;
#X floatatom 271 529 5 0 0 0 - - -;
#X obj 172 530 r \$0-properties;
#X obj 172 553 l2s;
#X symbolatom 172 576 20 0 0 0 - - -;
#X obj 172 627 l2s;
#X symbolatom 172 650 20 0 0 0 - - -;
#X obj 172 604 r \$0-props;
#X obj 491 250 s \$0-gui.shift_rcv;
#X obj 171 445 r \$0-shift;
#X obj 292 449 r \$0-shift;
#X obj 561 174 r \$0-shift;
#X connect 0 0 7 0;
#X connect 1 0 6 0;
#X connect 2 0 0 0;
#X connect 3 0 1 0;
#X connect 6 0 17 0;
#X connect 7 0 17 0;
#X connect 8 0 6 1;
#X connect 8 0 7 1;
#X connect 9 0 10 0;
#X connect 11 0 12 0;
#X connect 12 0 13 0;
#X connect 14 0 15 0;
#X connect 16 0 14 0;
#X connect 19 0 5 0;
#X connect 20 0 1 1;
#X connect 20 0 0 1;
#X restore 553 127 pd things;
#X msg 369 478 clear;
#X obj 208 207 r \$0-properties;
#X obj 155 252 s \$0-props;
#X obj 208 230 t a a;
#X obj 235 252 list length;
#X obj 235 275 t f f;
#X obj 154 370 sdGate;
#X obj 202 359 != 0;
#X obj 235 313 t f f;
#X obj 154 417 s \$0-count_rcv;
#X msg 154 394 priv.set \$1;
#X obj 569 687 outlet set graph-on-parent;
#X obj 523 657 outlet gui-subpatch;
#X obj 303 341 == 0;
#X floatatom 324 286 5 0 0 0 - - -;
#X floatatom 329 372 5 0 0 0 - - -;
#X obj 492 172 inlet props;
#X obj 496 193 sdObjTrack symProps;
#X msg 536 512 list set ( symShift ( \$1 ) );
#X obj 194 484 sdObjState_sym_dyn_props \$0;
#X obj 485 299 sdObjTrack symShift;
#X obj 78 327 r \$0-count;
#X obj 56 350 f;
#X floatatom 11 410 5 0 0 0 - - -;
#X msg 95 477 clear;
#X obj 56 409 t b f;
#X obj 38 503 sdBoundingBox;
#X msg 248 443 set x \$1;
#X msg 316 442 set y \$1;
#X obj 316 419 r \$0-y;
#X obj 248 420 r \$0-x;
#X obj 194 507 t a a;
#N canvas 0 30 681 736 (subpatch) 0;
#X symbolatom 1 1 1 0 0 0 - - -;
#X symbolatom 1 21 2 0 0 0 - - -;
#X text 351 118 10 \, 16;
#X coords 0 -1 1 1 16 100 1 0 0;
#X restore 50 150 pd;
#X obj 56 374 t f b, f 7;
#X obj 56 292 r \$0-draw;
#X obj 82 537 sdUnEvent x y width height;
#X obj 79 583 sdEvent bounds x y width height;
#X msg 80 560 0;
#X msg 111 560 0;
#X obj 176 559 + 4;
#X obj 143 560 + 4;
#X obj 247 97 sdPropertyList properties \$0;
#N canvas 0 30 762 736 arglist 0;
#X obj 244 208 sdList;
#X msg 244 166 serialize \, clear;
#X obj 232 127 t b l;
#X obj 244 231 route symbol;
#X obj 95 24 inlet;
#X obj 232 103 list append \$1 \$2 \$3 \$4 \$5 \$6 \$7 \$8 \$9;
#X obj 174 266 sdList bang;
#X msg 161 233 bang \, clear;
#X obj 174 313 s \$0-properties_rcv;
#X obj 174 289 sdSetSelector priv.set;
#X obj 95 47 t b b;
#X obj 95 144 s \$0-count_rcv;
#X msg 95 121 priv.set \$1;
#X obj 95 72 sdAny \$1;
#X obj 95 95 route float;
#X obj 232 76 t b;
#X connect 0 0 3 0;
#X connect 1 0 0 0;
#X connect 2 0 1 0;
#X connect 2 0 7 0;
#X connect 2 1 0 1;
#X connect 3 0 6 1;
#X connect 4 0 10 0;
#X connect 5 0 2 0;
#X connect 6 0 9 0;
#X connect 7 0 6 0;
#X connect 9 0 8 0;
#X connect 10 0 13 0;
#X connect 10 1 15 0;
#X connect 12 0 11 0;
#X connect 13 0 14 0;
#X connect 14 0 12 0;
#X connect 15 0 5 0;
#X restore 342 46 pd arglist;
#X obj 256 120 sdProperty count \$0 3;
#X obj 263 145 sdProperty x \$0 4 intern;
#X obj 274 170 sdProperty y \$0 4 intern;
#X obj 42 79 s \$0-clear;
#X msg 274 66 init;
#X obj 42 56 route clear draw;
#X obj 79 105 s \$0-draw;
#X obj 274 19 loadbang;
#X obj 274 42 t b b;
#X obj 151 54 route init;
#X obj 384 453 r \$0-clear;
#X connect 1 0 2 0;
#X connect 3 0 6 0;
#X connect 5 0 2 0;
#X connect 6 0 5 0;
#X connect 6 1 9 0;
#X connect 7 0 38 0;
#X connect 8 0 4 0;
#X connect 10 0 13 0;
#X connect 11 0 7 0;
#X connect 12 0 2 0;
#X connect 14 0 0 0;
#X connect 15 0 16 1;
#X connect 17 0 16 2;
#X connect 18 0 68 0;
#X connect 20 0 39 3;
#X connect 21 0 23 0;
#X connect 23 0 22 0;
#X connect 23 1 24 0;
#X connect 24 0 25 0;
#X connect 25 0 28 0;
#X connect 25 1 33 0;
#X connect 25 1 34 0;
#X connect 26 0 30 0;
#X connect 27 0 26 1;
#X connect 28 0 26 0;
#X connect 28 1 27 0;
#X connect 30 0 29 0;
#X connect 33 0 35 0;
#X connect 33 0 39 2;
#X connect 36 0 37 0;
#X connect 36 0 40 0;
#X connect 37 0 16 0;
#X connect 38 0 1 0;
#X connect 39 0 51 0;
#X connect 40 0 3 0;
#X connect 41 0 42 1;
#X connect 42 0 43 0;
#X connect 42 0 53 0;
#X connect 44 0 46 0;
#X connect 45 0 46 0;
#X connect 45 1 39 0;
#X connect 46 0 55 0;
#X connect 47 0 39 1;
#X connect 48 0 39 1;
#X connect 49 0 48 0;
#X connect 50 0 47 0;
#X connect 51 0 46 1;
#X connect 51 1 32 0;
#X connect 53 0 45 0;
#X connect 53 1 44 0;
#X connect 54 0 42 0;
#X connect 55 0 57 0;
#X connect 55 1 58 0;
#X connect 55 2 60 0;
#X connect 55 3 59 0;
#X connect 55 4 56 4;
#X connect 56 0 31 0;
#X connect 57 0 56 0;
#X connect 58 0 56 1;
#X connect 59 0 56 3;
#X connect 60 0 56 2;
#X connect 61 1 63 0;
#X connect 63 1 64 0;
#X connect 64 1 65 0;
#X connect 67 0 61 0;
#X connect 68 0 66 0;
#X connect 68 1 69 0;
#X connect 68 2 72 0;
#X connect 70 0 71 0;
#X connect 71 0 67 0;
#X connect 71 1 62 0;
#X connect 72 1 61 0;
#X connect 73 0 20 0;
#X coords 0 736 1 735 155 76 0;
