#N canvas 0 30 681 722 10;
#X obj 216 475 sdPackFromHuman;
#X obj 215 499 sdLines;
#X msg 560 429 list clear ( );
#X obj 180 116 until;
#X obj 180 139 sdCounter -1;
#X msg 225 117 0;
#X obj 212 10 inlet;
#X obj 336 23 bng 15 250 50 0 empty empty empty 17 7 0 10 -262144 -1
-1;
#X obj 215 35 t f b;
#X obj 618 15 inlet;
#X obj 161 679 outlet;
#X obj 433 23 inlet;
#X obj 499 26 inlet;
#X obj 499 49 s \$0-scroll-props;
#N canvas 0 30 681 722 buttons 0;
#X obj 312 60 inlet box;
#X obj 22 17 inlet line;
#X obj 235 576 sdPack line;
#X obj 235 553 sdData;
#X msg 29 507 bang \, clear;
#X msg 305 456 list init ( x ( \$4 ) width ( 13 ) height ( 13 ) x.border
( 5 ) y.border ( 5 ) );
#X obj 268 512 sdPackFromHuman;
#X obj 82 230 until;
#X obj 82 253 sdCounter -1;
#X obj 82 207 f 8;
#X obj 104 150 t b f;
#X obj 305 425 pack 0 0 \$1 0 0 f f;
#X obj 305 317 expr $f1 \; $f1+1 \; 4 \; 4 + $f1 * $f3 \; $f2-8 \;
$f3-8;
#X obj 353 293 unpack;
#X obj 112 108 t f f;
#X obj 82 444 pack 0 0 \$1 0 0 f f;
#X obj 82 337 expr $f1 \; $f1+1 \; 4 \; 4 + $f1 * $f3 \; $f2-8 \; $f3-8
;
#X obj 130 310 unpack;
#X msg 82 467 list bang ( snd ( \$3-event_\$1 ) );
#X obj 62 70 t b f;
#X obj 235 599 outlet;
#X obj 135 230 t a;
#X obj 131 186 * 8;
#X connect 0 0 13 0;
#X connect 0 0 17 0;
#X connect 1 0 19 0;
#X connect 2 0 20 0;
#X connect 3 0 2 0;
#X connect 4 0 3 0;
#X connect 5 0 6 0;
#X connect 6 0 3 1;
#X connect 7 0 8 0;
#X connect 8 0 16 0;
#X connect 9 0 7 0;
#X connect 10 0 9 0;
#X connect 10 1 22 0;
#X connect 11 0 5 0;
#X connect 12 0 11 0;
#X connect 12 1 11 1;
#X connect 12 2 11 3;
#X connect 12 3 11 4;
#X connect 12 4 11 5;
#X connect 12 5 11 6;
#X connect 13 0 12 1;
#X connect 13 1 12 2;
#X connect 14 0 10 0;
#X connect 14 1 12 0;
#X connect 15 0 18 0;
#X connect 16 0 15 0;
#X connect 16 1 15 1;
#X connect 16 2 15 3;
#X connect 16 3 15 4;
#X connect 16 4 15 5;
#X connect 16 5 15 6;
#X connect 17 0 16 1;
#X connect 17 1 16 2;
#X connect 18 0 6 0;
#X connect 19 0 4 0;
#X connect 19 1 14 0;
#X connect 21 0 8 0;
#X connect 22 0 21 0;
#X restore 261 608 pd buttons;
#X obj 318 584 r \$0-box;
#X obj 497 504 r \$0-box;
#X obj 497 527 unpack;
#X obj 449 657 pack 0 0 \$1 0 0 f f;
#X obj 449 549 expr $f1 \; $f1+1 \; 4 \; 4 + $f1 * $f3 \; $f2-8 \;
$f3-8;
#X msg 449 692 list line ( init ( x ( \$4 ) y ( \$5 ) width ( 13 )
height ( 13 ) x.border ( 5 ) y.border ( 5 ) ) canvas ( width ( \$6
) label ( - ) rcv ( \$3-gui.events\$1_rcv ) ) );
#X obj 233 414 sdVarLookup;
#X obj 233 437 sdReplace \$1;
#X obj 280 352 + 1;
#X obj 280 327 t f f;
#X msg 280 375 set index-from1 \$1;
#X msg 307 352 set index \$1;
#X obj 224 206 t b f;
#X obj 400 320 r \$0-init;
#X msg 400 366 list init ( x ( $x ) y ( $y ) width ( 13 ) height (
13 ) x.border ( 5 ) y.border ( 5 ) );
#X obj 400 343 t b b;
#X obj 215 522 t a a;
#X obj 244 59 s \$0-init;
#X obj 225 94 r \$0-init;
#X msg 192 262 list line ( init ( x ( $x ) width ( 13 ) height ( 13
) x.border ( 5 ) y.border ( 5 ) ) canvas ( width ( 164 ) label ( -
) rcv ( %0-gui.events$(index)_rcv ) ) );
#N canvas 0 30 681 722 buttons 0;
#X obj 22 17 inlet line;
#X obj 212 497 sdPack line;
#X obj 212 474 sdData;
#X msg 29 427 bang \, clear;
#X obj 245 433 sdPackFromHuman;
#X obj 88 160 until;
#X obj 88 183 sdCounter -1;
#X obj 88 137 f 8;
#X obj 114 100 t b f;
#X obj 31 76 t b f;
#X obj 212 520 outlet;
#X obj 141 160 t a;
#X obj 141 136 * 8;
#X obj 491 37 inlet args;
#X obj 245 386 sdVarLookup;
#X obj 245 409 sdReplace \$1;
#X msg 59 348 list bang ( snd ( %0-event_$(index) ) );
#X obj 139 283 + 1;
#X obj 139 258 t f f;
#X msg 139 306 set index-from1 \$1;
#X msg 166 283 set index \$1;
#X obj 112 234 t b f;
#X obj 89 289 t b b;
#X msg 374 226 list init ( x ( 4 ) width ( 13 ) height ( 13 ) x.border
( 5 ) y.border ( 5 ) );
#X obj 22 40 t f b;
#X connect 0 0 24 0;
#X connect 1 0 10 0;
#X connect 2 0 1 0;
#X connect 3 0 2 0;
#X connect 4 0 2 1;
#X connect 5 0 6 0;
#X connect 6 0 21 0;
#X connect 7 0 5 0;
#X connect 8 0 7 0;
#X connect 8 1 12 0;
#X connect 9 0 3 0;
#X connect 9 1 8 0;
#X connect 11 0 6 0;
#X connect 12 0 11 0;
#X connect 14 0 15 0;
#X connect 15 0 4 0;
#X connect 16 0 14 0;
#X connect 17 0 19 0;
#X connect 18 0 17 0;
#X connect 18 1 20 0;
#X connect 19 0 14 0;
#X connect 20 0 14 0;
#X connect 21 0 22 0;
#X connect 21 1 18 0;
#X connect 22 0 16 0;
#X connect 23 0 14 0;
#X connect 24 0 9 0;
#X connect 24 1 23 0;
#X restore 81 396 pd buttons;
#X obj 180 162 t f f;
#X connect 0 0 1 0;
#X connect 1 0 31 0;
#X connect 2 0 0 0;
#X connect 3 0 4 0;
#X connect 4 0 36 0;
#X connect 5 0 4 0;
#X connect 6 0 8 0;
#X connect 7 0 8 0;
#X connect 8 0 3 0;
#X connect 8 1 32 0;
#X connect 9 0 2 0;
#X connect 11 0 21 0;
#X connect 11 0 35 1;
#X connect 12 0 13 0;
#X connect 15 0 14 1;
#X connect 16 0 17 0;
#X connect 17 0 19 1;
#X connect 17 1 19 2;
#X connect 18 0 20 0;
#X connect 19 0 18 0;
#X connect 19 1 18 1;
#X connect 19 2 18 3;
#X connect 19 3 18 4;
#X connect 19 4 18 5;
#X connect 19 5 18 6;
#X connect 21 0 22 0;
#X connect 22 0 0 0;
#X connect 23 0 25 0;
#X connect 24 0 23 0;
#X connect 24 1 26 0;
#X connect 25 0 21 0;
#X connect 26 0 21 0;
#X connect 27 0 34 0;
#X connect 27 1 24 0;
#X connect 28 0 30 0;
#X connect 29 0 21 0;
#X connect 30 0 29 0;
#X connect 30 1 1 1;
#X connect 31 1 10 0;
#X connect 33 0 5 0;
#X connect 34 0 21 0;
#X connect 35 0 1 0;
#X connect 36 0 35 0;
#X connect 36 1 27 0;
