#N canvas 0 30 681 722 10;
#X obj 431 138 s \$0-init-props;
#X obj 530 138 s \$0-update-props;
#X obj 358 262 r \$0-init-props;
#X obj 517 276 r \$0-update-props;
#X text 417 91 sdObjState_num_ui [prop1 ...];
#X obj 431 114 sdObjInterface_obj \$1 \$2 \$3;
#X obj 478 48 inlet;
#X obj 245 326 s \$1;
#X obj 267 492 namecanvas \$0-canvas;
#N canvas 0 30 681 722 \$0-gui 0;
#X coords 0 0 1 1 172 75 2 0 0;
#X restore 0 20 pd \$0-gui;
#X obj 385 420 s pd-\$0-gui;
#X obj 566 421 s \$0-canvas;
#X obj 381 385 sdDynPatch;
#X obj 568 388 sdDynPatch;
#X obj 245 299 sdObjState_events_compact_ui \$4 \$5 \$6 \$7 \$8 \$9
\$10 \$11;
#X msg 221 218 init \, clear \, draw;
#X obj 610 40 inlet;
#X obj 676 36 loadbang;
#X msg 676 59 init;
#X obj 561 185 t b a;
#X obj 642 93 sdProperty header \$0 1 intern;
#X obj 561 162 r \$0-header;
#X obj 498 339 sdObjState_box_helper;
#X msg 242 250 clear \, draw;
#X msg 248 184 clear;
#X connect 2 0 14 1;
#X connect 3 0 14 2;
#X connect 5 0 0 0;
#X connect 5 1 1 0;
#X connect 6 0 5 0;
#X connect 12 1 10 0;
#X connect 13 1 11 0;
#X connect 14 0 7 0;
#X connect 14 1 12 0;
#X connect 14 2 22 0;
#X connect 15 0 14 0;
#X connect 16 0 20 0;
#X connect 17 0 18 0;
#X connect 18 0 20 0;
#X connect 19 0 23 0;
#X connect 19 1 22 1;
#X connect 21 0 19 0;
#X connect 22 0 12 0;
#X connect 22 1 13 0;
#X connect 23 0 14 0;
#X connect 24 0 14 0;
#X coords 0 0 1 1 172 95 1 0 0;
