#N canvas 0 30 721 736 10;
#X obj 65 473 outlet gui->obj;
#X obj 13 62 bng 15 250 50 0 \$0-event_0 empty empty 17 7 0 10 -262144
-1 -1;
#X obj 31 62 bng 15 250 50 0 \$0-event_1 empty empty 17 7 0 10 -262144
-1 -1;
#X obj 49 62 bng 15 250 50 0 \$0-event_2 empty empty 17 7 0 10 -262144
-1 -1;
#X obj 67 62 bng 15 250 50 0 \$0-event_3 empty empty 17 7 0 10 -262144
-1 -1;
#X obj 85 62 bng 15 250 50 0 \$0-event_4 empty empty 17 7 0 10 -262144
-1 -1;
#X obj 103 62 bng 15 250 50 0 \$0-event_5 empty empty 17 7 0 10 -262144
-1 -1;
#X obj 121 62 bng 15 250 50 0 \$0-event_6 empty empty 17 7 0 10 -262144
-1 -1;
#X obj 464 62 sdFilter events;
#X obj 464 88 sdUnPack;
#X obj 13 28 cnv 15 140 13 empty \$0-gui.events1_rcv - 1 8 0 10 -228856
-66577 0;
#X obj 139 62 bng 15 250 50 0 \$0-event_7 empty empty 17 7 0 10 -262144
-1 -1;
#X obj 292 644 sdSetSelector label;
#X obj 455 250 sdList serialize;
#X obj 378 445 pack s s;
#X obj 465 192 t b l;
#X obj 492 219 sdSetSelector set;
#X msg 423 218 serialize;
#X msg 378 470 symbol \$2-\$1;
#X obj 397 168 t b l;
#X obj 292 554 symbol;
#X obj 508 126 t l b;
#X msg 468 419 symbol;
#X obj 366 409 sdFirst;
#X msg 426 406 1;
#X obj 685 290 t b;
#X obj 70 169 r \$0-event_0;
#X obj 70 192 f 0;
#X msg 87 429 list send_event_by_ind 1 \$1;
#X obj 98 192 r \$0-event_1;
#X obj 98 215 f 1;
#X obj 127 215 r \$0-event_2;
#X obj 155 238 r \$0-event_3;
#X obj 127 238 f 2;
#X obj 155 261 f 3;
#X obj 184 284 f 4;
#X obj 212 309 f 5;
#X obj 241 330 f 6;
#X obj 269 353 f 7;
#X obj 184 261 r \$0-event_4;
#X obj 212 284 r \$0-event_5;
#X obj 241 307 r \$0-event_6;
#X obj 269 330 r \$0-event_7;
#X obj 292 57 sdObjTrack dest;
#X obj 292 80 t b;
#X obj 463 37 inlet update;
#X obj 292 33 inlet init;
#X msg 292 103 label -;
#X obj 492 488 t a;
#X obj 455 274 t a b;
#X obj 482 296 sdCounter -1;
#X msg 552 272 0;
#X obj 419 341 sdGate;
#X obj 548 583 symbol;
#X obj 548 647 sdSetSelector label;
#X obj 548 673 s \$0-gui.events2_rcv;
#X obj 292 669 s \$0-gui.events1_rcv;
#X obj 13 44 cnv 15 140 13 empty \$0-gui.events2_rcv - 1 8 0 10 -228856
-66577 0;
#X obj 292 126 s \$0-gui.events1_rcv;
#X obj 279 516 t b b;
#X obj 266 152 s \$0-gui.events2_rcv;
#X obj 564 449 pack s s;
#X msg 564 474 symbol \$2-\$1;
#X msg 633 423 symbol;
#X obj 531 413 sdFirst;
#X msg 591 410 1;
#X obj 678 492 t a;
#X obj 482 320 expr floor($f1/4) == 0;
#X connect 8 0 9 0;
#X connect 9 0 21 0;
#X connect 12 0 56 0;
#X connect 13 0 49 0;
#X connect 14 0 18 0;
#X connect 15 0 17 0;
#X connect 15 1 16 0;
#X connect 16 0 13 0;
#X connect 17 0 13 0;
#X connect 18 0 48 0;
#X connect 18 0 20 1;
#X connect 19 0 59 0;
#X connect 19 1 15 0;
#X connect 20 0 12 0;
#X connect 21 0 19 0;
#X connect 21 1 25 0;
#X connect 22 0 14 1;
#X connect 22 0 20 1;
#X connect 23 0 14 1;
#X connect 23 0 20 1;
#X connect 23 1 14 0;
#X connect 24 0 23 1;
#X connect 25 0 22 0;
#X connect 25 0 24 0;
#X connect 25 0 65 0;
#X connect 25 0 63 0;
#X connect 25 0 51 0;
#X connect 26 0 27 0;
#X connect 27 0 28 0;
#X connect 28 0 0 0;
#X connect 29 0 30 0;
#X connect 30 0 28 0;
#X connect 31 0 33 0;
#X connect 32 0 34 0;
#X connect 33 0 28 0;
#X connect 34 0 28 0;
#X connect 35 0 28 0;
#X connect 36 0 28 0;
#X connect 37 0 28 0;
#X connect 38 0 28 0;
#X connect 39 0 35 0;
#X connect 40 0 36 0;
#X connect 41 0 37 0;
#X connect 42 0 38 0;
#X connect 43 0 44 0;
#X connect 44 0 47 0;
#X connect 45 0 8 0;
#X connect 46 0 43 0;
#X connect 47 0 58 0;
#X connect 47 0 60 0;
#X connect 48 0 14 1;
#X connect 49 0 52 0;
#X connect 49 1 50 0;
#X connect 50 0 67 0;
#X connect 51 0 50 0;
#X connect 52 0 23 0;
#X connect 52 1 64 0;
#X connect 53 0 54 0;
#X connect 54 0 55 0;
#X connect 59 0 20 0;
#X connect 59 1 53 0;
#X connect 61 0 62 0;
#X connect 62 0 66 0;
#X connect 62 0 53 1;
#X connect 63 0 61 1;
#X connect 63 0 53 1;
#X connect 64 0 61 1;
#X connect 64 0 53 1;
#X connect 64 1 61 0;
#X connect 65 0 64 1;
#X connect 66 0 61 1;
#X connect 67 0 52 1;
#X coords 0 -1 1 1 147 70 1 10 10;
