#N canvas 0 30 681 722 10;
#X obj 22 74 hradio 12 1 0 3 \$0-objRadio \$0-objRadio_rcv empty 0
-8 0 10 -262144 -1 -1 0;
#X text 11 57 select obj.:;
#X obj 518 292 r \$0-objRadio;
#X symbolatom 22 91 27 0 0 0 - #0-objName_rcv #0-objName;
#X text 12 641 connections:;
#X text 29 659 ->;
#X symbolatom 50 661 36 0 0 0 - #0-gui.symOut_rcv #0-gui.symOut;
#X obj 93 643 bng 15 250 50 0 \$0-gui.clearOutput empty clear 17 7
0 10 -262144 -1 -1;
#X obj 380 73 inlet;
#X obj 21 25 hradio 12 1 0 1 \$0-groupRadio \$0-groupRadio_rcv empty
0 -8 0 10 -262144 -1 -1 0;
#X symbolatom 21 42 27 0 0 0 - #0-groupName_rcv #0-groupName;
#X obj 519 240 r \$0-groupRadio;
#N canvas 0 30 762 722 properties 0;
#X obj 21 23 inlet;
#X obj 40 69 sdFilter out;
#X obj 40 92 sdUnPack;
#X obj 40 115 l2s;
#X msg 41 163 \; \$2-gui.symOut_rcv set \$1 \;;
#X obj 41 140 list append \$0;
#X connect 0 0 1 0;
#X connect 1 0 2 0;
#X connect 2 0 3 0;
#X connect 3 0 5 0;
#X connect 5 0 4 0;
#X restore 573 196 pd properties -> gui;
#N canvas 0 30 762 722 obj 0;
#X obj 25 11 inlet;
#X obj 31 255 s \$0-groupName_rcv;
#X msg 169 290 number \$1;
#X obj 166 207 sdObjTrack groups;
#X obj 166 230 sdUnPack;
#X obj 166 253 list length;
#X obj 31 208 sdObjTrack group;
#X obj 31 231 sdUnPack;
#X obj 51 57 t a a;
#X obj 173 417 sdUnPack;
#X obj 173 394 sdObjTrack groupIndex;
#X obj 136 31 t a a;
#X msg 173 441 set \$1;
#X obj 460 261 sdUnPack;
#X msg 460 285 set \$1;
#X obj 460 208 sdObjTrack dest;
#X obj 462 313 s \$0-objName_rcv;
#X obj 352 233 sdUnPack;
#X obj 352 210 sdObjTrack objs;
#X obj 352 256 list length;
#X msg 349 295 number \$1;
#X obj 349 319 s \$0-objRadio_rcv;
#X obj 169 314 s \$0-groupRadio_rcv;
#X obj 352 384 sdObjTrack destIndex;
#X obj 175 469 s \$0-groupRadio_rcv;
#X obj 460 231 t a b;
#X obj 681 272 outlet;
#X obj 366 469 outlet;
#X obj 336 424 sdUnPack;
#X connect 0 0 11 0;
#X connect 2 0 22 0;
#X connect 3 0 4 0;
#X connect 4 0 5 0;
#X connect 5 0 2 0;
#X connect 6 0 7 0;
#X connect 7 0 1 0;
#X connect 8 0 6 0;
#X connect 8 1 3 0;
#X connect 9 0 12 0;
#X connect 10 0 9 0;
#X connect 11 0 8 0;
#X connect 11 1 10 0;
#X connect 11 1 18 0;
#X connect 11 1 15 0;
#X connect 11 1 23 0;
#X connect 12 0 24 0;
#X connect 13 0 14 0;
#X connect 14 0 16 0;
#X connect 15 0 25 0;
#X connect 17 0 19 0;
#X connect 18 0 17 0;
#X connect 19 0 20 0;
#X connect 20 0 21 0;
#X connect 23 0 28 0;
#X connect 25 0 13 0;
#X connect 25 1 26 0;
#X connect 28 0 27 0;
#X restore 319 223 pd obj -> GUI;
#N canvas 0 30 762 722 gui 0;
#X obj 42 16 inlet;
#X msg 36 45 list set ( groupIndex ( \$1 ) );
#X obj 36 68 sdPackFromHuman;
#X obj 36 91 s \$1;
#X connect 0 0 1 0;
#X connect 1 0 2 0;
#X connect 2 0 3 0;
#X restore 519 264 pd gui -> \$1;
#N canvas 0 30 721 736 gui 0;
#X obj 42 16 inlet;
#X obj 36 68 sdPackFromHuman;
#X obj 36 91 s \$1;
#X msg 36 45 list set ( destIndex ( \$1 ) );
#X connect 0 0 3 0;
#X connect 1 0 2 0;
#X connect 3 0 1 0;
#X restore 518 316 pd gui -> \$1;
#X obj 380 103 sdObjGroupsInterface_obj \$1 \$2 \$3 \$4 \$5 \$6 \$7
\$8 \$9, f 32;
#X obj 380 141 t a a;
#X obj 407 164 outlet;
#X obj 474 140 t a a;
#X obj 501 163 outlet;
#X obj 569 162 outlet;
#X obj 392 248 s \$0-init;
#X msg 345 271 set \$1;
#X obj 347 299 s \$0-objRadio_rcv;
#X obj 319 324 s \$0-dest-index;
#X obj 319 246 t f f;
#X msg 452 73 list init 0;
#X obj 474 196 s \$0-gui.update;
#X obj 361 191 s \$0-gui.init;
#N canvas 0 30 681 722 \$0-gui.num 0;
#X coords 0 0 1 1 257 267 2 0 0;
#X restore 16 113 pd \$0-gui.num;
#N canvas 0 30 681 722 \$0-gui.sym 0;
#X coords 0 0 1 1 160 79 2 0 0;
#X restore 16 459 pd \$0-gui.sym;
#N canvas 0 30 681 736 \$0-gui.bool 0;
#X coords 0 0 1 1 162 69 2 0 0;
#X restore 16 385 pd \$0-gui.bool;
#N canvas 0 30 885 736 \$0-gui.events 0;
#X coords 0 0 1 1 172 75 2 0 0;
#X restore 16 543 pd \$0-gui.events;
#N canvas 0 30 681 722 gui 0;
#X obj 616 211 r \$0-gui.update;
#X obj 470 259 s \$1;
#X obj 528 211 r \$0-gui.init;
#X floatatom 142 210 5 0 0 0 - - -;
#N canvas 0 30 721 722 set 0;
#X obj 37 37 inlet;
#X obj 37 113 outlet;
#X msg 37 60 set count \$1;
#X obj 184 40 s2l;
#X obj 184 63 list prepend set properties;
#X obj 184 86 list trim;
#X obj 184 12 inlet;
#X connect 0 0 2 0;
#X connect 2 0 1 0;
#X connect 3 0 4 0;
#X connect 4 0 5 0;
#X connect 5 0 1 0;
#X connect 6 0 3 0;
#X restore 142 232 pd set count/props;
#X symbolatom 209 209 40 0 0 0 - - -;
#X obj 152 295 s \$1;
#X obj 152 271 sdObjState_num_ui 8;
#X obj 260 244 r \$0-gui.init;
#X obj 363 246 r \$0-gui.update;
#X obj 528 309 s pd-\$0-gui.bool;
#X obj 470 234 sdObjState_bool_ui 4;
#X obj 285 570 r \$0-gui.update;
#X obj 139 618 s \$1;
#X obj 197 570 r \$0-gui.init;
#X obj 139 593 sdObjState_sym_ui 2;
#X obj 575 563 r \$0-gui.update;
#X obj 510 539 r \$0-gui.init;
#X obj 446 609 s \$1;
#X obj 207 329 sdDynPatch;
#X obj 211 353 s pd-\$0-gui.num;
#X obj 40 33 inlet;
#X obj 528 286 sdDynPatch;
#X obj 194 645 sdDynPatch;
#X obj 198 669 s pd-\$0-gui.sym;
#X obj 528 634 sdDynPatch;
#X obj 532 658 s pd-\$0-gui.events;
#X obj 132 468 t a a;
#X obj 446 586 sdObjState_events_compact_ui;
#X obj 89 135 t a a;
#X obj 368 189 t b a;
#X obj 368 166 r \$0-header;
#N canvas 0 30 681 722 set 0;
#X obj 55 36 inlet;
#X obj 54 84 t b a;
#X obj 122 108 sdUnEvent;
#X obj 54 131 sdEvent graph-on-parent mode;
#X obj 54 107 f 3;
#X obj 54 154 outlet;
#X connect 0 0 1 0;
#X connect 1 0 4 0;
#X connect 1 1 2 0;
#X connect 2 0 3 1;
#X connect 3 0 5 0;
#X connect 4 0 3 0;
#X restore 263 295 pd set canvas;
#N canvas 0 30 681 722 set 0;
#X obj 55 36 inlet;
#X obj 54 84 t b a;
#X obj 122 108 sdUnEvent;
#X obj 54 131 sdEvent graph-on-parent mode;
#X obj 54 107 f 3;
#X obj 54 154 outlet;
#X connect 0 0 1 0;
#X connect 1 0 4 0;
#X connect 1 1 2 0;
#X connect 2 0 3 1;
#X connect 3 0 5 0;
#X connect 4 0 3 0;
#X restore 587 258 pd set canvas;
#N canvas 0 30 681 722 set 0;
#X obj 55 36 inlet;
#X obj 54 84 t b a;
#X obj 122 108 sdUnEvent;
#X obj 54 131 sdEvent graph-on-parent mode;
#X obj 54 107 f 3;
#X obj 54 154 outlet;
#X connect 0 0 1 0;
#X connect 1 0 4 0;
#X connect 1 1 2 0;
#X connect 2 0 3 1;
#X connect 3 0 5 0;
#X connect 4 0 3 0;
#X restore 250 617 pd set canvas;
#N canvas 0 30 681 722 set 0;
#X obj 55 36 inlet;
#X obj 54 84 t b a;
#X obj 122 108 sdUnEvent;
#X obj 54 131 sdEvent graph-on-parent mode;
#X obj 54 107 f 3;
#X obj 54 154 outlet;
#X connect 0 0 1 0;
#X connect 1 0 4 0;
#X connect 1 1 2 0;
#X connect 2 0 3 1;
#X connect 3 0 5 0;
#X connect 4 0 3 0;
#X restore 611 610 pd set canvas;
#X connect 0 0 11 2;
#X connect 2 0 11 1;
#X connect 3 0 4 0;
#X connect 4 0 7 0;
#X connect 5 0 4 1;
#X connect 7 0 6 0;
#X connect 7 1 19 0;
#X connect 7 2 32 0;
#X connect 8 0 7 1;
#X connect 9 0 7 2;
#X connect 11 0 1 0;
#X connect 11 1 22 0;
#X connect 11 2 33 0;
#X connect 12 0 15 2;
#X connect 14 0 15 1;
#X connect 15 0 13 0;
#X connect 15 1 23 0;
#X connect 15 2 34 0;
#X connect 16 0 28 2;
#X connect 17 0 28 1;
#X connect 19 1 20 0;
#X connect 21 0 27 0;
#X connect 21 0 29 0;
#X connect 22 1 10 0;
#X connect 23 1 24 0;
#X connect 25 1 26 0;
#X connect 27 0 15 0;
#X connect 27 1 28 0;
#X connect 28 0 18 0;
#X connect 28 1 25 0;
#X connect 28 2 35 0;
#X connect 29 0 7 0;
#X connect 29 1 11 0;
#X connect 31 0 30 0;
#X connect 32 0 19 0;
#X connect 33 0 22 0;
#X connect 34 0 23 0;
#X connect 35 0 25 0;
#X restore 414 437 pd gui;
#X obj 414 391 loadbang;
#X msg 414 414 clear \, draw;
#X msg 497 416 clear;
#X connect 2 0 15 0;
#X connect 8 0 16 0;
#X connect 11 0 14 0;
#X connect 13 0 26 0;
#X connect 13 1 22 0;
#X connect 16 0 17 0;
#X connect 16 1 19 0;
#X connect 16 2 21 0;
#X connect 17 0 29 0;
#X connect 17 0 13 0;
#X connect 17 1 18 0;
#X connect 19 0 28 0;
#X connect 19 0 12 0;
#X connect 19 1 20 0;
#X connect 23 0 24 0;
#X connect 26 0 25 0;
#X connect 26 1 23 0;
#X connect 27 0 16 0;
#X connect 35 0 36 0;
#X connect 36 0 34 0;
#X connect 37 0 34 0;
#X coords 0 0 1 1 268 629 1 10 10;
