#N canvas 800 30 798 189 10;
#X obj 52 200 sgPackFromHuman;
#X text 21 110 check sgPack syntax;
#N canvas 0 30 798 854 example 0;
#X msg 148 102 a b c 1;
#X text 259 124 TYPE (init \$1);
#X text 58 40 wrap arbitrary data into a sgPack;
#X obj 148 126 sgPack testPack;
#X obj 148 149 t a a;
#X obj 395 225 print type;
#X obj 108 249 print params;
#X obj 222 177 print pack;
#X floatatom 209 238 5 0 0 0 - - -;
#X text 247 241 number of parameters;
#X obj 148 191 sgUnPack;
#X connect 0 0 3 0;
#X connect 3 0 4 0;
#X connect 4 0 10 0;
#X connect 4 1 7 0;
#X connect 10 0 6 0;
#X connect 10 1 8 0;
#X connect 10 2 5 0;
#X restore 179 43 pd example;
#N canvas 0 30 990 411 example 0;
#X obj 203 177 t a;
#X obj 300 295 print humane;
#X obj 408 147 print inhumane;
#X msg 458 79 packet ( #[ preserve ( bla ) #] );
#X text 595 48 enclose in #[... #] to preserve;
#X obj 172 107 sgPackFromHuman;
#X obj 148 225 sgPackToHuman;
#X msg 165 59 packet ( packet1 ( ) packet2 ( p1 2 ) );
#X connect 0 0 6 0;
#X connect 3 0 5 0;
#X connect 5 0 0 0;
#X connect 5 0 2 0;
#X connect 6 0 1 0;
#X connect 7 0 5 0;
#X restore 183 190 pd example;
#N canvas 0 30 942 854 example 0;
#X msg 182 69 pack 2 bla blubb;
#X floatatom 146 189 5 0 0 0 - - -;
#X msg 201 92 pack bla blubb;
#X msg 211 114 pack 2 blubb;
#X msg 216 138 bang;
#X msg 166 46 pack;
#X obj 201 168 sgPackIsValid;
#X connect 0 0 6 0;
#X connect 2 0 6 0;
#X connect 3 0 6 0;
#X connect 4 0 6 0;
#X connect 5 0 6 0;
#X connect 6 0 1 0;
#X restore 180 127 pd example;
#X text 429 46 sgPack is a message of this format:;
#X text 451 62 TYPE CONTENT_LENGTH x1 x2 ... xn;
#X text 450 79 example:;
#X msg 477 103 testPack 3 a b c;
#X text 431 150 the alternative "humane" syntax for the same pack is:
;
#X msg 456 169 testPack ( a b c );
#X text 22 154 more readable ("humane") syntax for sgPacks;
#X text 453 193 Most objects expect "inhumane" syntax. If you prefer
using the more readable "humane" syntax \, you have to manually convert
it!;
#X text 18 228 manipulate sgPack;
#X text 17 283 filter Packs;
#N canvas 0 30 990 411 example 0;
#X restore 182 248 pd example;
#N canvas 0 30 798 854 example 1;
#X obj 148 99 sgPackFromHuman;
#X msg 141 60 volume ( 0 0.2 1 );
#X msg 276 63 pitch ( 2 );
#X obj 130 173 print accept;
#X obj 273 178 print reject;
#X obj 298 157 bng 15 250 50 0 empty empty empty 17 7 0 10 -262144
-1 -1;
#X obj 163 153 bng 15 250 50 0 empty empty empty 17 7 0 10 -262144
-1 -1;
#X text 83 29 only accept packs of a specific type;
#X msg 321 102 symbol pitch;
#X msg 366 63 duration ( 2 );
#X obj 152 129 sgPackFilter volume;
#X connect 0 0 10 0;
#X connect 1 0 0 0;
#X connect 2 0 0 0;
#X connect 8 0 10 1;
#X connect 9 0 0 0;
#X connect 10 0 3 0;
#X connect 10 0 6 0;
#X connect 10 1 4 0;
#X connect 10 1 5 0;
#X restore 182 306 pd example;
#X obj 53 129 sgPackIsValid;
#X obj 52 175 sgPackToHuman;
#X obj 51 64 sgUnPack;
#X obj 52 34 sgPack \$1;
#X obj 49 303 sgPackFilter;
#X obj 49 253 sgPackSetType \$1;
#X text 21 12 convert to/from sgPacks;
#X obj 49 523 sgPackToMessage;
#X obj 50 457 sgPackFromMessage;
#X obj 50 480 t a a;
#X obj 104 494 print asPack;
#X obj 49 546 print as message;
#X msg 49 426 set a b c 1;
#X text 438 265 packs enable deeply nested messages;
#X connect 24 0 28 0;
#X connect 25 0 26 0;
#X connect 26 0 24 0;
#X connect 26 1 27 0;
#X connect 29 0 25 0;
