#N canvas 0 30 846 411 10;
#X obj 42 28 inlet;
#X obj 27 324 outlet;
#X obj 342 324 outlet;
#X obj 94 279 sgGate 1;
#X obj 273 34 inlet;
#X obj 62 57 t a a;
#X text 262 13 type of sgPacks to accept;
#X text 35 8 stream of sgPacks;
#X text 21 346 accepted sgPacks;
#X text 314 346 sgPacks not accepted;
#X obj 126 84 sgUnPack;
#X msg 179 168 1;
#X obj 179 145 sel \$1;
#X msg 220 170 0;
#X connect 0 0 5 0;
#X connect 3 0 1 0;
#X connect 3 1 2 0;
#X connect 4 0 12 1;
#X connect 5 0 3 0;
#X connect 5 1 10 0;
#X connect 10 2 12 0;
#X connect 11 0 3 1;
#X connect 12 0 11 0;
#X connect 12 1 13 0;
#X connect 13 0 3 1;
