#N canvas 0 30 894 854 10;
#X obj 127 22 inlet;
#X text 494 65 \$1: this \; \$2: obj to connect to;
#X obj 163 352 outlet;
#X msg 364 299 list out 1 clear \, list out 2 add \$1;
#X obj 364 322 s \$1;
#X obj 189 213 t s s;
#X obj 336 89 sdObjTrack \$2;
#X obj 336 112 sdUnPack;
#X connect 0 0 6 0;
#X connect 3 0 4 0;
#X connect 5 0 2 0;
#X connect 6 0 7 0;
#X connect 7 0 2 0;
