#N canvas 0 30 798 464 10;
#X obj 127 22 inlet;
#X obj 131 148 symbol;
#X obj 131 125 route \$2;
#X text 494 65 \$1: this \; \$2: obj to connect to;
#X obj 163 352 outlet;
#X obj 131 55 sdPackFilter update;
#X obj 131 78 sdUnPack;
#X obj 131 102 sdPackToMessage;
#X msg 364 299 list out 1 clear \, list out 2 add \$1;
#X obj 364 322 s \$1;
#X obj 189 213 t s s;
#X connect 0 0 5 0;
#X connect 1 0 10 0;
#X connect 2 0 1 0;
#X connect 5 0 6 0;
#X connect 6 0 7 0;
#X connect 7 0 2 0;
#X connect 8 0 9 0;
#X connect 10 0 4 0;
#X connect 10 1 8 0;
