#N canvas 0 30 798 411 10;
#X obj 127 22 inlet;
#X obj 131 148 symbol;
#X obj 517 285 symbol;
#X obj 502 242 t s b;
#X obj 487 359 pack s s;
#X obj 386 195 t s s;
#X obj 131 125 route \$2;
#X text 494 65 \$1: this \; \$2: obj to connect to;
#X obj 131 54 sdPackFilter update;
#X obj 131 78 sdUnPack;
#X obj 131 102 sdPackToMessage;
#X obj 558 327 sdSymbolBang \$1;
#X obj 472 316 sdFirst;
#X msg 486 384 \; \$1 list out 2 del \$2;
#X obj 172 179 t s s;
#X obj 378 299 outlet;
#X obj 117 266 pack s s;
#X obj 165 241 sdSymbolBang \$1;
#X msg 117 292 \; \$1 list out 2 add \$2 \; \$1 raw get out \$2 \;
;
#X obj 102 202 bng 15 250 50 0 empty empty empty 17 7 0 10 -262144
-1 -1;
#X connect 0 0 8 0;
#X connect 1 0 14 0;
#X connect 2 0 12 0;
#X connect 3 0 2 1;
#X connect 3 1 2 0;
#X connect 4 0 13 0;
#X connect 5 0 15 0;
#X connect 5 1 3 0;
#X connect 6 0 1 0;
#X connect 8 0 9 0;
#X connect 9 0 10 0;
#X connect 10 0 6 0;
#X connect 11 0 4 1;
#X connect 12 1 4 0;
#X connect 14 0 16 0;
#X connect 14 1 5 0;
#X connect 16 0 18 0;
#X connect 17 0 16 1;
#X connect 19 0 16 0;
