#N canvas 0 30 990 854 10;
#X obj 144 76 r \$0-pitch;
#X obj 227 76 r \$0-volume;
#X obj 410 25 inlet;
#X floatatom 144 119 5 0 0 0 pitch - -;
#X floatatom 227 119 5 0 0 0 volume - -;
#X obj 338 341 route start stop;
#X msg 336 374 start;
#X msg 394 371 stop;
#X obj 338 315 sgEventToMessage;
#X obj 128 227 r \$0-descr;
#X obj 348 256 sgPackFilter start;
#X obj 466 257 sgPackFilter stop;
#X obj 144 141 bng 15 250 50 0 empty \$0-start start 17 7 0 10 -262144
-1 -1;
#X obj 215 142 bng 15 250 50 0 empty \$0-stop stop 17 7 0 10 -262144
-1 -1;
#X obj 336 397 s \$0-start;
#X obj 418 402 s \$0-stop;
#X obj 392 116 sdObjState \$1 \$2;
#X obj 578 463 s \$0-fromProperties;
#X obj 485 93 r \$0-fromProperties;
#X obj 392 139 t a a;
#X obj 583 201 print \$1.toProperties;
#X symbolatom 128 250 10 0 0 0 - - -;
#X obj 464 26 loadbang;
#X msg 464 50 list init 0;
#X obj 610 372 sdPropertySym descr \$0 1;
#X obj 619 401 sgPropertyList envelope \$1 1;
#X obj 563 295 sdProperty pitch \$0 64 intern;
#X obj 591 331 sdProperty volume \$0 1 intern;
#X connect 0 0 3 0;
#X connect 1 0 4 0;
#X connect 2 0 16 0;
#X connect 5 0 6 0;
#X connect 5 1 7 0;
#X connect 6 0 14 0;
#X connect 7 0 15 0;
#X connect 8 0 5 0;
#X connect 8 1 26 0;
#X connect 9 0 21 0;
#X connect 10 0 8 0;
#X connect 10 1 11 0;
#X connect 11 0 8 0;
#X connect 11 1 26 0;
#X connect 16 0 19 0;
#X connect 18 0 16 1;
#X connect 19 0 10 0;
#X connect 22 0 23 0;
#X connect 23 0 16 0;
#X connect 24 0 17 0;
#X connect 24 1 25 0;
#X connect 25 0 17 0;
#X connect 26 0 17 0;
#X connect 26 1 27 0;
#X connect 27 0 17 0;
#X connect 27 1 24 0;
#X coords 0 -1 1 1 200 60 1 100 100;
