#N canvas 0 30 798 854 10;
#X obj 127 22 inlet;
#X obj 517 285 symbol;
#X obj 502 242 t s b;
#X obj 487 359 pack s s;
#X obj 386 195 t s s;
#X text 494 65 \$1: this \; \$2: obj to connect to;
#X obj 558 327 sdSymbolBang \$1;
#X obj 472 316 sdFirst;
#X msg 486 384 \; \$1 list out 2 del \$2;
#X obj 172 179 t s s;
#X obj 355 368 outlet;
#X obj 147 286 pack s s;
#X obj 195 261 sdSymbolBang \$1;
#X obj 132 222 bng 15 250 50 0 empty empty empty 17 7 0 10 -262144
-1 -1;
#X text 478 216 disconnect from last object;
#X text 172 240 create connection from object;
#X obj 165 90 sdObjTrack \$2;
#X obj 165 114 sdUnPack;
#X msg 147 312 \; \$1 list out 2 add \$2 \;;
#X obj 142 152 t s s;
#X obj 41 365 outlet;
#X text 286 388 before output has been set;
#X text 34 389 after output has been set;
#X connect 0 0 16 0;
#X connect 1 0 7 0;
#X connect 2 0 1 1;
#X connect 2 1 1 0;
#X connect 3 0 8 0;
#X connect 4 0 10 0;
#X connect 4 1 2 0;
#X connect 6 0 3 1;
#X connect 7 1 3 0;
#X connect 9 0 11 0;
#X connect 9 1 4 0;
#X connect 11 0 18 0;
#X connect 12 0 11 1;
#X connect 13 0 11 0;
#X connect 16 0 17 0;
#X connect 17 0 19 0;
#X connect 19 0 20 0;
#X connect 19 1 9 0;
