#N canvas 0 30 798 854 10;
#X obj 149 166 sdReplace \$0;
#X msg 174 110 list get 3 out 1 %0-fromAllObjs;
#X obj 306 290 r \$0-fromAllObjs;
#X obj 95 277 bng 15 250 50 0 empty empty empty 17 7 0 10 -262144 -1
-1;
#X obj 174 133 t a b;
#X msg 237 167 clear;
#X obj 183 313 sdData bang serialize;
#X msg 113 254 serialize;
#X obj 300 347 sdUnPack;
#X obj 276 385 sdPack set;
#X obj 288 415 send, f 10;
#X obj 118 20 inlet;
#X obj 118 44 route load save;
#X obj 118 67 bang;
#X obj 161 70 bang;
#X obj 183 336 print;
#X obj 149 189 s \$1;
#X connect 0 0 16 0;
#X connect 1 0 4 0;
#X connect 2 0 6 1;
#X connect 3 0 6 0;
#X connect 4 0 0 0;
#X connect 4 1 5 0;
#X connect 5 0 6 0;
#X connect 6 0 15 0;
#X connect 6 1 8 0;
#X connect 7 0 6 0;
#X connect 8 0 9 0;
#X connect 8 2 10 1;
#X connect 9 0 10 0;
#X connect 11 0 12 0;
#X connect 12 0 13 0;
#X connect 12 1 14 0;
#X connect 13 0 7 0;
#X connect 14 0 1 0;
