#N canvas 0 30 798 854 10;
#X obj 312 365 s \$0-fromObj;
#X obj 469 114 r \$0-fromObj;
#X obj 312 342 list;
#X obj 427 333 sdProperty pitch \$0;
#X obj 332 141 sdObjState \$1 \$2;
#X obj 313 309 sdPropertySym dest \$0;
#X obj 311 64 inlet;
#X obj 102 66 r \$0-dest;
#X symbolatom 133 122 22 0 0 0 dest - -;
#X obj 185 55 r \$0-pitch;
#X obj 197 276 s \$1;
#X obj 642 265 pack s s;
#X obj 712 261 sdSymbolBang \$1;
#X obj 642 312 print -n;
#X text 660 239 print info for the dumb user;
#X msg 642 288 \$2: connected \$1 -> \$2;
#X text 236 163 incoming events;
#X text 350 163 to properties;
#X text 443 292 just "track" the pitch;
#X text 453 307 (not a real property);
#X obj 135 144 nbx 3 14 -1e+37 1e+37 0 0 empty empty empty 0 -8 0 10
-191407 -1 -1 64 256;
#X text 97 139 pitch;
#X obj 197 253 sdPack set;
#X obj 197 184 sdPackFilter init;
#X obj 197 230 sdObjTrack pitch volume;
#X obj 487 370 sdProperty volume \$0;
#X obj 219 143 nbx 3 14 -1e+37 1e+37 0 0 empty empty empty 0 -8 0 10
-191407 -1 -1 1 256;
#X text 177 142 volume;
#X obj 268 31 r \$0-volume;
#X obj 543 163 sdObjListen \$1 dest pitch volume;
#X connect 1 0 4 1;
#X connect 2 0 0 0;
#X connect 3 1 25 0;
#X connect 4 0 23 0;
#X connect 4 1 5 0;
#X connect 4 2 29 0;
#X connect 5 0 2 0;
#X connect 5 1 3 0;
#X connect 6 0 4 0;
#X connect 7 0 8 0;
#X connect 9 0 20 0;
#X connect 11 0 15 0;
#X connect 12 0 11 1;
#X connect 15 0 13 0;
#X connect 22 0 10 0;
#X connect 23 1 24 0;
#X connect 24 0 22 0;
#X connect 28 0 26 0;
#X connect 29 0 11 0;
#X connect 29 0 24 1;
#X coords 0 -1 1 1 180 60 1 100 100;
