#N canvas 0 30 894 854 10;
#X obj 81 34 inlet;
#X obj 81 307 outlet;
#X obj 81 81 sdUnPack;
#X obj 81 58 sdPackFilter info update;
#X obj 369 39 inlet;
#X text 407 18 obj to track;
#X obj 222 106 sdUnPack;
#X obj 229 211 sdData serialize;
#X obj 237 141 t b a;
#X msg 233 182 serialize \, clear;
#X obj 222 83 sdPackFilter;
#X text 76 14 events;
#X obj 249 272 loadbang;
#X obj 334 276 bng 15 250 50 0 empty empty empty 17 7 0 10 -262144
-1 -1;
#X obj 81 244 sdPackFilter;
#N canvas 0 30 894 854 initlist 0;
#X obj 504 92 list append \$1 \$2 \$3 \$4 \$5 \$6;
#X obj 513 209 sdList;
#X msg 513 167 serialize \, clear;
#X obj 501 128 t b l;
#X obj 513 232 route symbol;
#X obj 456 294 sdList;
#X msg 412 225 bang \, clear;
#X obj 44 19 inlet;
#X obj 456 317 outlet;
#X connect 0 0 3 0;
#X connect 1 0 4 0;
#X connect 2 0 1 0;
#X connect 3 0 2 0;
#X connect 3 0 6 0;
#X connect 3 1 1 1;
#X connect 4 0 5 1;
#X connect 5 0 8 0;
#X connect 6 0 5 0;
#X connect 7 0 0 0;
#X restore 250 305 pd initlist;
#X connect 0 0 3 0;
#X connect 2 0 14 0;
#X connect 3 0 2 0;
#X connect 3 1 10 0;
#X connect 4 0 10 1;
#X connect 6 0 8 0;
#X connect 7 0 14 0;
#X connect 8 0 9 0;
#X connect 8 1 7 1;
#X connect 9 0 7 0;
#X connect 10 0 6 0;
#X connect 12 0 15 0;
#X connect 13 0 15 0;
#X connect 14 0 1 0;
#X connect 15 0 14 1;
