#N canvas 0 30 894 854 10;
#X obj 81 34 inlet;
#X obj 81 307 outlet;
#X obj 81 81 sdUnPack;
#X obj 81 58 sdPackFilter info update;
#X obj 81 244 sdPackFilter \$1;
#X obj 81 267 sdPack set;
#X obj 369 39 inlet;
#X text 407 18 obj to track;
#X text 96 11 messages;
#X obj 222 106 sdUnPack;
#X obj 229 211 sdData serialize;
#X obj 237 141 t b a;
#X msg 233 182 serialize \, clear;
#X obj 222 83 sdPackFilter;
#X connect 0 0 3 0;
#X connect 2 0 4 0;
#X connect 3 0 2 0;
#X connect 3 1 13 0;
#X connect 4 0 5 0;
#X connect 5 0 1 0;
#X connect 6 0 13 1;
#X connect 9 0 11 0;
#X connect 10 0 4 0;
#X connect 11 0 12 0;
#X connect 11 1 10 1;
#X connect 12 0 10 0;
#X connect 13 0 9 0;
