#N canvas 0 30 798 854 10;
#X obj 127 22 inlet;
#X obj 517 285 symbol;
#X obj 502 242 t s b;
#X obj 487 359 pack s s;
#X obj 386 195 t s s;
#X text 494 65 \$1: this \; \$2: obj to connect to;
#X obj 558 327 sdSymbolBang \$1;
#X obj 472 316 sdFirst;
#X msg 486 384 \; \$1 list out 2 del \$2;
#X obj 172 179 t s s;
#X obj 378 299 outlet;
#X obj 117 266 pack s s;
#X obj 165 241 sdSymbolBang \$1;
#X obj 102 202 bng 15 250 50 0 empty empty empty 17 7 0 10 -262144
-1 -1;
#X text 478 216 disconnect from last object;
#X text 142 220 create connection from object;
#X obj 165 90 sdObjTrack \$2;
#X obj 165 114 sdUnPack;
#X obj 152 374 loadbang;
#X obj 169 397 bng 15 250 50 0 empty empty empty 17 7 0 10 -262144
-1 -1;
#N canvas 0 30 798 854 initlist 0;
#X obj 504 92 list append \$1 \$2 \$3 \$4 \$5 \$6;
#X obj 513 209 sdList;
#X obj 513 232 route symbol;
#X obj 503 41 inlet;
#X obj 318 356 outlet;
#X obj 519 129 t l b;
#X msg 520 163 clear;
#X msg 375 135 serialize;
#X obj 319 32 inlet;
#X connect 0 0 5 0;
#X connect 1 0 2 0;
#X connect 2 0 4 0;
#X connect 3 0 0 0;
#X connect 5 0 1 1;
#X connect 5 1 6 0;
#X connect 6 0 1 0;
#X connect 7 0 1 0;
#X connect 8 0 7 0;
#X restore 85 426 pd initlist;
#X obj 130 504 pack s s s;
#X obj 192 481 sdSymbolBang \$1;
#X obj 82 367 t b s;
#X msg 117 292 \; \$1 list out 2 add \$2 \;;
#X obj 163 152 t s s;
#X obj 122 563 print;
#X msg 131 529 \; \$2 raw get \$1 out \$3 \;;
#X connect 0 0 16 0;
#X connect 1 0 7 0;
#X connect 2 0 1 1;
#X connect 2 1 1 0;
#X connect 3 0 8 0;
#X connect 4 0 10 0;
#X connect 4 1 2 0;
#X connect 6 0 3 1;
#X connect 7 1 3 0;
#X connect 9 0 11 0;
#X connect 9 1 4 0;
#X connect 11 0 24 0;
#X connect 12 0 11 1;
#X connect 13 0 11 0;
#X connect 16 0 17 0;
#X connect 17 0 25 0;
#X connect 18 0 20 1;
#X connect 19 0 20 1;
#X connect 20 0 21 0;
#X connect 21 0 27 0;
#X connect 22 0 21 2;
#X connect 23 0 20 0;
#X connect 23 1 21 1;
#X connect 25 0 23 0;
#X connect 25 1 9 0;
