#N canvas 0 30 1598 464 10;
#X obj 81 34 inlet;
#X obj 81 167 outlet;
#X obj 81 81 sdUnPack;
#X obj 81 58 sdPackFilter info update;
#X obj 81 104 sdPackFilter \$1;
#X obj 81 127 sdPack set;
#X connect 0 0 3 0;
#X connect 2 0 4 0;
#X connect 3 0 2 0;
#X connect 4 0 5 0;
#X connect 5 0 1 0;
