#N canvas 0 30 798 854 10;
#X obj 504 490 s \$0-fromObj;
#X obj 469 114 r \$0-fromObj;
#X obj 504 467 list;
#X obj 579 389 sdProperty pitch \$0;
#X obj 332 141 sdObjState \$1 \$2;
#X obj 456 366 sdPropertySym dest \$0;
#X obj 311 64 inlet;
#X obj 102 66 r \$0-dest;
#X symbolatom 133 120 22 0 0 0 dest - -;
#X floatatom 133 141 5 0 0 0 pitch - -;
#X obj 677 279 pack s s;
#X obj 747 275 sdSymbolBang \$1;
#X obj 677 326 print -n;
#X text 695 253 print info for the dumb user;
#X msg 677 302 \$2: connected \$2 -> \$1;
#X obj 589 305 send;
#X text 264 161 incoming events;
#X text 365 177 to properties;
#X text 489 157 outcoming events;
#X obj 26 77 r \$0-pitch;
#X msg 26 100 set \$1;
#X floatatom 224 139 5 0 0 0 volume - -;
#X msg 221 72 set \$1;
#X obj 221 49 r \$0-volume;
#X obj 587 417 sdProperty volume \$0;
#X obj 516 262 r \$0-toOtherObj;
#X obj 38 239 s \$0-toOtherObj;
#X obj 264 347 s \$1;
#X obj 264 324 sdPack set;
#X obj 264 301 sdObjTrack pitch volume;
#X obj 506 189 sdObjListen \$1 dest;
#X obj 430 213 sdObjGet \$1 pitch volume;
#X msg 38 215 raw set pitch \$1;
#X obj 156 241 s \$0-toOtherObj;
#X msg 156 217 raw set volume \$1;
#X text 441 29 this is primarily a listener;
#X text 442 50 the number boxes just allow to set the other objects
properties;
#X connect 1 0 4 1;
#X connect 2 0 0 0;
#X connect 3 0 2 0;
#X connect 3 1 24 0;
#X connect 4 0 29 0;
#X connect 4 1 5 0;
#X connect 4 2 30 0;
#X connect 5 0 2 0;
#X connect 5 1 3 0;
#X connect 6 0 4 0;
#X connect 7 0 8 0;
#X connect 9 0 32 0;
#X connect 10 0 14 0;
#X connect 11 0 10 1;
#X connect 14 0 12 0;
#X connect 19 0 20 0;
#X connect 20 0 9 0;
#X connect 21 0 34 0;
#X connect 22 0 21 0;
#X connect 23 0 22 0;
#X connect 24 0 2 0;
#X connect 25 0 15 0;
#X connect 28 0 27 0;
#X connect 29 0 28 0;
#X connect 30 0 31 0;
#X connect 30 1 10 0;
#X connect 30 1 15 1;
#X connect 30 1 29 1;
#X connect 32 0 26 0;
#X connect 34 0 33 0;
#X coords 0 -1 1 1 180 60 1 100 100;
