#N canvas 0 30 894 854 10;
#N canvas 0 30 894 854 example 1;
#X msg 404 173 pack1 ( bla ) \, pack2 ( blubb );
#X msg 174 93 clear;
#X obj 83 100 bng 15 250 50 0 empty empty empty 17 7 0 10 -262144 -1
-1;
#X text 61 31 accumulate sgPacks:;
#X msg 612 174 pack1 ( bla ) pack2 ( blubb );
#X msg 231 122 prepend packX 3 one two 3;
#X msg 230 94 append packX 3 one two 3;
#X msg 238 150 pop;
#X msg 283 150 popRev;
#X msg 417 130 serialize;
#X msg 493 130 serializeRev;
#X obj 194 297 print pop;
#X obj 265 299 print popRev;
#X obj 370 297 print serialize;
#X obj 481 300 print serializeRev;
#X obj 105 295 print bang;
#X obj 124 248 sdData bang pop popRev serialize serializeRev, f 83
;
#X msg 439 97 set pack 5 0 1 2 3 4;
#X msg 244 27 set pack1 1 1 pack2 1 2 pack3 1 3 \, filterAccept pack2
\, bang;
#X msg 240 54 set pack1 1 1 pack2 1 2 pack3 1 3 \, filterReject pack2
\, bang;
#X obj 402 208 sdPackFromHuman;
#X connect 0 0 20 0;
#X connect 1 0 16 0;
#X connect 2 0 16 0;
#X connect 4 0 20 0;
#X connect 5 0 16 0;
#X connect 6 0 16 0;
#X connect 7 0 16 0;
#X connect 8 0 16 0;
#X connect 9 0 16 0;
#X connect 10 0 16 0;
#X connect 16 0 15 0;
#X connect 16 1 11 0;
#X connect 16 2 12 0;
#X connect 16 3 13 0;
#X connect 16 4 14 0;
#X connect 17 0 16 0;
#X connect 18 0 16 0;
#X connect 19 0 16 0;
#X connect 20 0 16 1;
#X restore 225 65 pd example;
#X text 15 16 sgData is a sequence of sgPacks;
#X text 31 45 create by accumulating sgPacks:;
#X obj 57 69 sdData;
