#N canvas 0 30 681 722 10;
#X obj 370 352 s \$0-fromObj;
#X obj 365 106 r \$0-fromObj;
#X obj 370 329 list;
#X obj 384 275 sdProperty pitch \$0;
#X obj 372 247 sdPropertySym dest \$0;
#X obj 311 64 inlet;
#X obj 102 66 r \$0-dest;
#X symbolatom 133 120 22 0 0 0 dest - -;
#X floatatom 133 141 5 0 0 0 pitch - -;
#X text 264 161 incoming events;
#X text 365 177 to properties;
#X text 489 157 outcoming events;
#X obj 26 77 r \$0-pitch;
#X msg 26 100 set \$1;
#X floatatom 224 139 5 0 0 0 volume - -;
#X msg 221 72 set \$1;
#X obj 221 49 r \$0-volume;
#X obj 392 303 sdProperty volume \$0;
#X obj 159 380 s \$1;
#X obj 159 334 sdObjTrack pitch volume;
#X obj 502 400 sdObjGet \$1 pitch volume;
#X obj 640 547 print -n;
#X text 654 500 print info for the dumb user;
#X obj 579 242 sdUnPack;
#X obj 501 205 sdObjTrack dest;
#X obj 661 203 sdObjTrack pitch volume;
#X obj 661 226 sdPack set;
#X obj 661 249 s \$0-send;
#X obj 575 302 t b s;
#X obj 568 346 sdObjConnectTo \$1 \$1;
#X msg 640 523 connected \$1 -> \$2;
#X obj 159 357 sdPack set_no_out;
#X obj 621 293 sdObjConnectTo \$1 \$1;
#X obj 579 265 t s s;
#X obj 568 369 unpack s s;
#X obj 476 111 r \$0-send;
#X obj 71 193 s \$0-pitch_rcv;
#X obj 177 194 s \$0-volume_rcv;
#X msg 71 170 priv.set \$1;
#X msg 177 171 priv.set \$1;
#X text 22 346 this is how to break the recursion cycle, f 12;
#X text 103 359 ->;
#X text 30 414 the "set_no_out" message sets the values without informing
other objects;
#X obj 332 141 sdObjState \$1 \$2 \$3;
#X connect 1 0 43 1;
#X connect 2 0 0 0;
#X connect 3 0 2 0;
#X connect 3 1 17 0;
#X connect 4 0 2 0;
#X connect 4 1 3 0;
#X connect 5 0 43 0;
#X connect 6 0 7 0;
#X connect 8 0 38 0;
#X connect 12 0 13 0;
#X connect 13 0 8 0;
#X connect 14 0 39 0;
#X connect 15 0 14 0;
#X connect 16 0 15 0;
#X connect 17 0 2 0;
#X connect 19 0 31 0;
#X connect 23 0 33 0;
#X connect 24 0 23 0;
#X connect 25 0 26 0;
#X connect 26 0 27 0;
#X connect 28 0 29 0;
#X connect 28 1 29 1;
#X connect 29 0 34 0;
#X connect 29 1 30 0;
#X connect 30 0 21 0;
#X connect 31 0 18 0;
#X connect 32 1 30 0;
#X connect 33 0 28 0;
#X connect 33 1 32 0;
#X connect 34 1 20 0;
#X connect 35 0 43 2;
#X connect 38 0 36 0;
#X connect 39 0 37 0;
#X connect 43 0 19 0;
#X connect 43 1 4 0;
#X connect 43 2 24 0;
#X connect 43 2 25 0;
#X coords 0 -1 1 1 180 60 1 100 100;
