#N canvas 0 0 798 854 10;
#X obj 140 129 inlet;
#X obj 148 428 route start stop;
#X msg 146 461 start;
#X msg 204 458 stop;
#X obj 146 484 s \$0-start;
#X obj 218 482 s \$0-stop;
#X obj 345 617 s \$0-fromProperties;
#X obj 335 172 r \$0-fromProperties;
#X obj 335 195 list;
#X obj 393 504 sdPropertyList envelope \$0;
#X obj 111 361 sdEventToProperties;
#X obj 384 475 sdPropertySym descr \$0 bla intern;
#X msg 278 134 list init 0;
#X obj 111 337 sdPackFilter init start stop;
#X obj 289 226 sdObjState \$1 \$2 \$3;
#X obj 365 417 sdProperty volume \$0 1 intern 0 1;
#X obj 332 324 sdPropertyList events \$0;
#X obj 332 347 s \$0-fromProperties;
#X obj 59 426 route init;
#X msg 87 528 list set ( events ( start stop ) ), f 19;
#X obj 87 594 s \$1;
#X obj 87 571 sdPackFromHuman;
#X obj 111 384 t a a;
#X obj 356 388 sdProperty pitch \$0 64 intern 0 127 1;
#X obj 396 531 sdProperty testing \$0 0.5 intern 0.1 1.1;
#X obj 182 304 print \$1.in;
#X obj 59 499 t b b;
#X obj 80 478 bng 15 250 50 0 empty empty empty 17 7 0 10 #fcfcfc #000000
#000000;
#X obj 375 446 sdProperty debug \$0 0 intern 0 1 1;
#X obj 166 254 t a a;
#X obj 182 281 spigot;
#X obj 232 279 r \$0-debug;
#X floatatom 262 299 5 0 0 0 - - - 0;
#X obj 369 277 spigot;
#X obj 402 254 r \$0-debug;
#X floatatom 432 274 5 0 0 0 - - - 0;
#X obj 342 254 t a a;
#X obj 513 265 spigot;
#X obj 546 242 r \$0-debug;
#X floatatom 576 262 5 0 0 0 - - - 0;
#X obj 486 242 t a a;
#X obj 514 288 print \$1.out;
#X obj 370 301 print \$1.to-properties;
#X obj 423 557 sdProperty protected \$0 0.5 intern 0 1 0 1;
#X connect 0 0 14 0;
#X connect 1 0 2 0;
#X connect 1 1 3 0;
#X connect 1 2 23 0;
#X connect 2 0 4 0;
#X connect 3 0 5 0;
#X connect 7 0 8 0;
#X connect 8 0 14 1;
#X connect 9 0 6 0;
#X connect 9 1 24 0;
#X connect 10 0 22 0;
#X connect 10 1 23 0;
#X connect 11 0 6 0;
#X connect 11 1 9 0;
#X connect 12 0 14 0;
#X connect 13 0 10 0;
#X connect 14 0 29 0;
#X connect 14 1 36 0;
#X connect 14 2 40 0;
#X connect 15 0 6 0;
#X connect 15 1 28 0;
#X connect 16 0 17 0;
#X connect 16 1 23 0;
#X connect 18 0 26 0;
#X connect 19 0 21 0;
#X connect 21 0 20 0;
#X connect 22 0 18 0;
#X connect 22 1 1 0;
#X connect 23 0 6 0;
#X connect 23 1 15 0;
#X connect 24 0 6 0;
#X connect 24 1 43 0;
#X connect 26 1 19 0;
#X connect 27 0 26 0;
#X connect 28 0 6 0;
#X connect 28 1 11 0;
#X connect 29 0 13 0;
#X connect 29 1 30 0;
#X connect 30 0 25 0;
#X connect 31 0 30 1;
#X connect 31 0 32 0;
#X connect 33 0 42 0;
#X connect 34 0 33 1;
#X connect 34 0 35 0;
#X connect 36 0 16 0;
#X connect 36 1 33 0;
#X connect 37 0 41 0;
#X connect 38 0 37 1;
#X connect 38 0 39 0;
#X connect 40 1 37 0;
#X connect 43 0 6 0;
#X coords 0 854 1 853 257 169 0;
