#N canvas 0 30 681 722 10;
#X obj 145 45 r \$0-pitch;
#X obj 228 45 r \$0-volume;
#X obj 410 25 inlet;
#X floatatom 144 119 5 0 0 0 pitch - -;
#X floatatom 227 119 5 0 0 0 volume - -;
#X obj 418 284 route start stop;
#X msg 416 317 start;
#X msg 474 314 stop;
#X obj 102 361 r \$0-descr;
#X obj 144 141 bng 15 250 50 0 empty \$0-start start 17 7 0 10 -262144
-1 -1;
#X obj 215 142 bng 15 250 50 0 empty \$0-stop stop 17 7 0 10 -262144
-1 -1;
#X obj 416 340 s \$0-start;
#X obj 488 338 s \$0-stop;
#X obj 525 536 s \$0-fromProperties;
#X obj 605 68 r \$0-fromProperties;
#X symbolatom 102 384 10 0 0 0 - - -;
#X obj 605 91 list;
#X obj 604 449 sdPropertyList envelope \$0;
#X obj 381 177 sdEventToProperties;
#X msg 137 195 priv.set_noupdate \$1;
#X obj 137 218 s \$0-pitch_rcv;
#X msg 238 223 priv.set_noupdate \$1;
#X obj 238 246 s \$0-volume_rcv;
#X msg 145 68 set \$1;
#X msg 228 68 set \$1;
#X obj 595 420 sdPropertySym descr \$0 bla intern;
#X msg 548 30 list init 0;
#X obj 381 153 sdPackFilter init start stop;
#X obj 559 122 sdObjState \$1 \$2 \$3;
#X obj 576 345 sdProperty volume \$0 1 intern 0 1;
#X obj 614 146 sdPropertyList events \$0;
#X obj 614 169 s \$0-fromProperties;
#X obj 381 230 route init;
#X msg 316 412 list set ( events ( start stop ) );
#X obj 316 458 s \$1;
#X obj 316 435 sdPackFromHuman;
#X obj 101 322 s \$0-pitch_rcv;
#X msg 101 299 priv.set \$1;
#X floatatom 101 277 5 0 0 0 - - -;
#X text 66 253 set property;
#X obj 381 200 t a a;
#X obj 548 309 sdProperty pitch \$0 64 intern 0 127 1;
#X obj 284 121 tgl 15 0 empty empty empty 17 7 0 10 -262144 -1 -1 0
1;
#X msg 311 73 set \$1;
#X obj 311 50 r \$0-enable;
#X msg 217 290 priv.set_noupdate \$1;
#X obj 217 313 s \$0-enable_rcv;
#X obj 586 384 sdProperty enable \$0 0 intern 0 1 1;
#X obj 607 476 sdProperty testing \$0 0.5 intern 0.1 1.1;
#X connect 0 0 23 0;
#X connect 1 0 24 0;
#X connect 2 0 28 0;
#X connect 3 0 19 0;
#X connect 4 0 21 0;
#X connect 5 0 6 0;
#X connect 5 1 7 0;
#X connect 5 2 41 0;
#X connect 6 0 11 0;
#X connect 7 0 12 0;
#X connect 8 0 15 0;
#X connect 14 0 16 0;
#X connect 16 0 28 1;
#X connect 17 0 13 0;
#X connect 17 1 48 0;
#X connect 18 0 40 0;
#X connect 18 1 41 0;
#X connect 19 0 20 0;
#X connect 21 0 22 0;
#X connect 23 0 3 0;
#X connect 24 0 4 0;
#X connect 25 0 13 0;
#X connect 25 1 17 0;
#X connect 26 0 28 0;
#X connect 27 0 18 0;
#X connect 28 0 27 0;
#X connect 28 1 30 0;
#X connect 29 0 13 0;
#X connect 29 1 47 0;
#X connect 30 0 31 0;
#X connect 30 1 41 0;
#X connect 32 0 33 0;
#X connect 33 0 35 0;
#X connect 35 0 34 0;
#X connect 37 0 36 0;
#X connect 38 0 37 0;
#X connect 40 0 32 0;
#X connect 40 1 5 0;
#X connect 41 0 13 0;
#X connect 41 1 29 0;
#X connect 42 0 45 0;
#X connect 43 0 42 0;
#X connect 44 0 43 0;
#X connect 45 0 46 0;
#X connect 47 0 13 0;
#X connect 47 1 25 0;
#X connect 48 0 13 0;
#X coords 0 -1 1 1 200 60 1 100 100;
