#N canvas 0 30 681 722 10;
#X obj 375 513 s \$0-fromObj;
#X obj 395 111 r \$0-fromObj;
#X obj 375 490 list;
#X obj 407 431 sdProperty pitch \$0;
#X obj 304 407 sdPropertySym dest \$0;
#X obj 311 64 inlet;
#X obj 102 66 r \$0-dest;
#X symbolatom 133 120 22 0 0 0 dest - -;
#X floatatom 133 141 5 0 0 0 pitch - -;
#X obj 611 471 print -n;
#X text 618 425 print info for the dumb user;
#X text 264 161 incoming events;
#X text 343 189 to properties;
#X text 489 158 outcoming events;
#X obj 480 267 sdUnPack;
#X obj 480 244 sdObjTrack dest;
#X obj 26 77 r \$0-pitch;
#X msg 26 100 set \$1;
#X floatatom 224 139 5 0 0 0 volume - -;
#X msg 221 72 set \$1;
#X obj 221 49 r \$0-volume;
#X obj 415 459 sdProperty volume \$0;
#X obj 58 220 s \$0-pitch_rcv;
#X obj 181 230 s \$0-volume_rcv;
#X msg 63 189 priv.set \$1;
#X obj 589 243 sdObjTrack pitch volume;
#X obj 589 266 sdPack set;
#X obj 589 289 s \$0-send;
#X obj 479 116 r \$0-send;
#X obj 480 290 t b s;
#X obj 453 351 sdObjConnectTo \$1 \$1;
#X msg 611 447 connected \$1 -> \$2;
#X msg 190 204 priv.set \$1;
#X obj 332 141 sdObjState \$1 \$2 \$3;
#X connect 1 0 33 1;
#X connect 2 0 0 0;
#X connect 3 0 2 0;
#X connect 3 1 21 0;
#X connect 4 0 2 0;
#X connect 4 1 3 0;
#X connect 5 0 33 0;
#X connect 6 0 7 0;
#X connect 8 0 24 0;
#X connect 14 0 29 0;
#X connect 15 0 14 0;
#X connect 16 0 17 0;
#X connect 17 0 8 0;
#X connect 18 0 32 0;
#X connect 19 0 18 0;
#X connect 20 0 19 0;
#X connect 21 0 2 0;
#X connect 24 0 22 0;
#X connect 25 0 26 0;
#X connect 26 0 27 0;
#X connect 28 0 33 2;
#X connect 29 0 30 0;
#X connect 29 1 30 1;
#X connect 30 1 31 0;
#X connect 31 0 9 0;
#X connect 32 0 23 0;
#X connect 33 1 4 0;
#X connect 33 2 15 0;
#X connect 33 2 25 0;
#X coords 0 -1 1 1 180 60 1 100 100;
