#N canvas 0 30 681 736 12;
#X obj 234 23 inlet;
#X obj 48 319 s \$0-fromProperties;
#X obj 429 66 r \$0-fromProperties;
#X obj 429 89 list;
#X msg 372 28 list init 0;
#X obj 383 120 sdObjState \$1 \$2 \$3;
#X obj 118 247 sdProperty p3 \$0;
#X obj 62 176 sdProperty p1 \$0;
#X obj 90 212 sdProperty p2 \$0;
#X obj 146 284 sdProperty p4 \$0;
#X obj 271 329 s \$0-fromProperties;
#X obj 505 331 s \$0-fromProperties;
#X obj 285 186 sdProperty p5 \$0;
#X obj 313 222 sdProperty p6 \$0;
#X obj 341 257 sdProperty p7 \$0;
#X obj 369 294 sdProperty p8 \$0;
#X obj 519 188 sdProperty p9 \$0;
#X obj 547 224 sdProperty p10 \$0;
#X obj 575 259 sdProperty p11 \$0;
#X obj 603 296 sdProperty p12 \$0;
#X obj 61 587 s \$0-fromProperties;
#X obj 131 515 sdPropertySym sym3 \$0;
#X obj 103 481 sdPropertySym sym2 \$0;
#X obj 75 444 sdPropertySym sym1 \$0;
#X obj 159 552 sdPropertySym sym4 \$0;
#X obj 298 454 sdPropertySym sym5 \$0;
#X obj 326 490 sdPropertySym sym6 \$0;
#X connect 0 0 5 0;
#X connect 2 0 3 0;
#X connect 3 0 5 1;
#X connect 4 0 5 0;
#X connect 5 1 7 0;
#X connect 6 0 1 0;
#X connect 6 1 9 0;
#X connect 7 0 1 0;
#X connect 7 1 8 0;
#X connect 8 0 1 0;
#X connect 8 1 6 0;
#X connect 9 0 1 0;
#X connect 9 1 12 0;
#X connect 12 0 10 0;
#X connect 12 1 13 0;
#X connect 13 0 10 0;
#X connect 13 1 14 0;
#X connect 14 0 10 0;
#X connect 14 1 15 0;
#X connect 15 0 10 0;
#X connect 15 1 16 0;
#X connect 16 0 11 0;
#X connect 16 1 17 0;
#X connect 17 0 11 0;
#X connect 17 1 18 0;
#X connect 18 0 11 0;
#X connect 18 1 19 0;
#X connect 19 0 11 0;
#X connect 19 1 23 0;
#X connect 21 0 20 0;
#X connect 21 1 24 0;
#X connect 22 0 20 0;
#X connect 22 1 21 0;
#X connect 23 0 20 0;
#X connect 23 1 22 0;
#X connect 24 0 20 0;
#X connect 24 1 25 0;
#X connect 25 1 26 0;
