#N canvas 0 0 798 854 10;
#X text 10 13 structuredData - Documentation;
#X text 29 37 basic:;
#X text 34 184 data:;
#X text 30 426 obj state:;
#X obj 49 63 sdUtils-help;
#X obj 49 210 sdList-help;
#X obj 49 277 sdPack-help;
#X obj 48 343 sdData-help;
#X obj 48 368 sdEvent-help;
#X obj 48 453 sdObjState-help;
#X obj 48 308 sdPackMatch-help;
#X obj 48 521 sdScript-help;
#X text 31 499 embeddable script language;
#X obj 50 105 sdMath-help;
#X obj 46 577 sdDynPatching-help;
