#N canvas 0 30 803 722 10;
#X text 10 13 structuredData - Documentation;
#X text 29 37 basic:;
#X text 34 184 data:;
#X text 30 426 obj state:;
#X obj 49 63 sdUtils-help;
#X obj 49 210 sdList-help;
#X obj 49 277 sdPack-help;
#X obj 48 343 sdData-help;
#X obj 48 368 sdEvent-help;
#X obj 48 453 sdObjState-help;
#X obj 48 308 sdPackMatch-help;
#X obj 48 521 sdScript-help;
#X text 31 499 embeddable script language;
#N canvas 0 30 844 722 sdPackMatch/sdScript 0;
#X msg 181 82 list x;
#X obj 168 124 sdPackFromHuman;
#X obj 217 213 print;
#X obj 200 216 bng 15 250 50 0 empty empty empty 17 7 0 10 -262144
-1 -1;
#X obj 344 228 print reject;
#X obj 367 206 bng 15 250 50 0 empty empty empty 17 7 0 10 -262144
-1 -1;
#X obj 393 581 loadbang;
#X obj 335 295 loadbang;
#X obj 335 354 list prepend loop;
#X obj 335 377 sdSetSelector prog_set;
#X obj 347 540 sdSetSelector set;
#X obj 347 516 list prepend sequence;
#X obj 347 410 loadbang;
#X obj 347 492 sdPackFromHuman;
#X obj 162 666 print;
#X obj 114 439 bng 15 250 50 0 empty empty empty 17 7 0 10 -262144
-1 -1;
#X obj 307 80 loadbang;
#X obj 162 643 sdScript sequence rest_sequence;
#X obj 217 190 sdPackMatch pack_type;
#X obj 129 84 until;
#X msg 298 107 clear \, add_script test ( x ) ( = ( pack_type 1 ) )
;
#X msg 128 26 1000;
#X msg 389 612 list Print ( start ) Out ( ) = ( time 0 ) = ( rest_sequence
$ ( sequence ) ) Call ( loop ) Print ( done ) Out ( );
#X msg 335 318 list If ( Card ( $ ( rest_sequence ) ) = ( rest_sequence
sdData_Rest ( $ ( rest_sequence ) ) ) Call ( loop ) );
#X msg 347 434 list pack1 ( time ( 0 ) pos ( 0 ) volume ( 0 ) pitch
( 0 ) ) pack2 ( time ( 0 ) pos ( 0 ) volume ( 0 ) pitch ( 0 ) ) pack3
( time ( 0 ) pos ( 0 ) volume ( 0 ) pitch ( 0 ) );
#X connect 0 0 1 0;
#X connect 1 0 18 0;
#X connect 6 0 22 0;
#X connect 7 0 23 0;
#X connect 8 0 9 0;
#X connect 9 0 17 0;
#X connect 10 0 17 0;
#X connect 11 0 10 0;
#X connect 12 0 24 0;
#X connect 13 0 11 0;
#X connect 15 0 17 0;
#X connect 16 0 20 0;
#X connect 17 0 14 0;
#X connect 18 0 2 0;
#X connect 18 0 3 0;
#X connect 18 1 4 0;
#X connect 18 1 5 0;
#X connect 19 0 0 0;
#X connect 20 0 18 0;
#X connect 21 0 19 0;
#X connect 22 0 17 1;
#X connect 23 0 8 0;
#X connect 24 0 13 0;
#X restore 377 514 pd sdPackMatch/sdScript bug;
#X text 371 485 test scenario to debug sdScript:;
#X text 445 498 (solved);
