#N canvas 0 473 990 411 10;
#X obj 56 40 inlet;
#X obj 116 159 outlet;
#X obj 115 98 loadbang;
#X obj 250 41 inlet;
#X obj 116 134 sgAny \$1;
#X connect 0 0 4 0;
#X connect 2 0 4 0;
#X connect 3 0 4 1;
#X connect 4 0 1 0;
