#N canvas 0 30 990 411 10;
#X obj 31 24 inlet;
#X obj 198 25 inlet;
#X obj 55 302 outlet;
#X obj 30 49 route bang;
#X obj 79 81 t a b;
#X obj 59 222 list store \$1;
#X connect 0 0 3 0;
#X connect 1 0 5 1;
#X connect 3 0 5 0;
#X connect 3 1 4 0;
#X connect 4 0 5 0;
#X connect 4 1 5 1;
#X connect 5 0 2 0;
