#N canvas 0 30 798 411 10;
#X obj 22 89 float 0;
#X obj 15 5 inlet;
#X obj 239 35 inlet;
#X obj 27 374 outlet;
#X obj 319 352 outlet;
#X text 27 357 counter value;
#X text 222 12 set limit (no value \, -1 or inf means: no limit);
#X text 565 10 Not(0) means: reset counter to 0 \, if limit reached
;
#X text 10 -16 bang to increment counter \, values to set;
#X text 665 207 parameters;
#X text 707 222 \$1: limit \; \$2: Set to 0 if limit reached;
#X msg 448 317 bang;
#X obj 451 156 != 0;
#X text 312 376 bang \, if VAL+1 >= LIMIT;
#X obj 105 19 r \$0-set;
#X obj 22 55 route bang;
#X obj 239 83 s \$0-limit;
#N canvas 0 30 798 411 less_than_limit 0;
#X obj 63 52 inlet;
#X obj 56 250 outlet;
#X obj 272 244 outlet;
#X obj 98 91 t f f;
#X obj 335 54 inlet;
#X text 334 34 LIMIT;
#X obj 127 163 expr if($f1 < $f2 || $f2 == -1 \, 1 \, 0);
#X obj 88 188 sgGate;
#X connect 0 0 3 0;
#X connect 3 0 7 0;
#X connect 3 1 6 0;
#X connect 4 0 6 1;
#X connect 6 0 7 1;
#X connect 7 0 1 0;
#X connect 7 1 2 0;
#X restore 124 209 pd less_than_limit;
#X obj 229 182 r \$0-limit;
#X obj 129 120 t f f;
#X obj 156 144 + 1;
#X obj 156 167 s \$0-set;
#X obj 209 336 s \$0-set;
#X msg 209 313 0 \, bang;
#X obj 277 260 sgGate;
#X obj 239 60 sgFloatBang \$1;
#X obj 663 35 sgFloatBang \$2;
#X connect 0 0 19 0;
#X connect 1 0 15 0;
#X connect 2 0 25 0;
#X connect 11 0 4 0;
#X connect 12 0 24 1;
#X connect 14 0 15 0;
#X connect 15 0 0 0;
#X connect 15 1 0 1;
#X connect 17 0 3 0;
#X connect 17 1 24 0;
#X connect 18 0 17 1;
#X connect 19 0 17 0;
#X connect 19 1 20 0;
#X connect 20 0 21 0;
#X connect 23 0 22 0;
#X connect 24 0 23 0;
#X connect 24 1 11 0;
#X connect 25 0 16 0;
#X connect 26 0 12 0;
