#N canvas 0 30 990 411 10;
#X obj 56 40 inlet;
#X obj 170 250 outlet;
#X obj 173 163 loadbang;
#X obj 170 195 float \$1;
#X obj 258 55 inlet;
#X connect 0 0 3 0;
#X connect 2 0 3 0;
#X connect 3 0 1 0;
#X connect 4 0 3 1;
