#N canvas 0 30 990 411 10;
#X obj 288 132 route float;
#X obj 73 121 route float;
#X obj 239 234 sgIsEqualSym;
#X obj 183 231 ==;
#X msg 63 234 1;
#X msg 360 238 1;
#X msg 96 234 0;
#N canvas 0 30 990 854 compare_types 0;
#X obj 36 46 inlet;
#X obj 188 47 inlet;
#X obj 122 192 outlet;
#X obj 123 139 ==;
#X connect 0 0 3 0;
#X connect 1 0 3 1;
#X connect 3 0 2 0;
#X restore 101 379 pd compare_types;
#X obj 283 155 t a b;
#X obj 51 177 t a b;
#X obj 129 175 t a b;
#X obj 185 301 &&;
#X obj 216 274 r \$0-Types;
#X obj 101 403 s \$0-Types;
#X obj 78 21 inlet;
#X obj 294 36 inlet;
#X obj 185 324 outlet;
#X obj 80 46 t a b;
#X obj 119 67 s \$0-Init;
#X msg 403 241 0;
#X obj 352 160 t a b;
#X text 66 6 float or symbol;
#X text 287 12 float or symbol;
#X text 485 66 returns, f 12;
#X text 504 81 1 \, if types and values are equal;
#X text 504 94 0 \, otherwise;
#X obj 300 63 sgAnyBang \$1;
#X obj 73 92 list split 1;
#X connect 0 0 8 0;
#X connect 0 1 20 0;
#X connect 1 0 9 0;
#X connect 1 1 10 0;
#X connect 2 0 11 0;
#X connect 3 0 11 0;
#X connect 4 0 7 0;
#X connect 5 0 7 1;
#X connect 6 0 7 0;
#X connect 7 0 13 0;
#X connect 8 0 3 1;
#X connect 8 1 5 0;
#X connect 9 0 3 0;
#X connect 9 1 4 0;
#X connect 10 0 2 0;
#X connect 10 1 6 0;
#X connect 11 0 16 0;
#X connect 12 0 11 1;
#X connect 14 0 17 0;
#X connect 15 0 26 0;
#X connect 17 0 27 0;
#X connect 17 1 18 0;
#X connect 19 0 7 1;
#X connect 20 0 2 1;
#X connect 20 1 19 0;
#X connect 26 0 0 0;
#X connect 27 0 1 0;
