#N canvas 0 30 990 411 10;
#X obj 82 39 inlet;
#X obj 171 265 outlet;
#X obj 170 197 symbol \$1;
#X obj 273 41 inlet;
#X obj 170 138 loadbang;
#X connect 0 0 2 0;
#X connect 2 0 1 0;
#X connect 3 0 2 1;
#X connect 4 0 2 0;
