#N canvas 0 30 942 854 10;
#X text 65 273 compare symbols;
#X text 172 272 compare any;
#N canvas 0 30 990 411 example 0;
#X obj 135 68 tgl 15 0 empty empty empty 17 7 0 10 -262144 -1 -1 0
1;
#X floatatom 44 58 5 0 0 0 - - -;
#X obj 65 126 print accept;
#X obj 150 126 print reject;
#X obj 82 94 sgGate;
#X msg 51 27 a b;
#X connect 0 0 4 1;
#X connect 1 0 4 0;
#X connect 4 0 2 0;
#X connect 4 1 3 0;
#X connect 5 0 4 0;
#X restore 277 47 pd example;
#X text 506 28 Notes: \; all input is treated like a list \; "symbol"
and "list" are identical \;;
#X obj 66 14 sgAny;
#N canvas 0 30 990 411 example 0;
#X obj 96 128 sgAny;
#X msg 148 104 1;
#X obj 73 87 bng 15 250 50 0 empty empty empty 17 7 0 10 -262144 -1
-1;
#X obj 96 151 print;
#X floatatom 163 135 5 0 0 0 - - -;
#X floatatom 32 107 5 0 0 0 - - -;
#X msg 136 50 test bla;
#X msg 133 21 list bla;
#X msg 147 76 symbol bla;
#X connect 0 0 3 0;
#X connect 1 0 0 1;
#X connect 2 0 0 0;
#X connect 4 0 0 1;
#X connect 5 0 0 0;
#X connect 6 0 0 1;
#X connect 7 0 0 1;
#X connect 8 0 0 1;
#X restore 277 16 pd example;
#X obj 116 346 ==;
#X text 110 325 (compare floats);
#N canvas 0 30 942 854 example 0;
#X floatatom 169 149 5 0 0 0 - - -;
#X obj 147 208 print accept;
#X obj 240 206 print reject;
#X floatatom 244 147 5 0 0 0 - - -;
#X msg 317 150 symbol bla;
#X msg 318 175 symbol test;
#X msg 73 152 symbol bla;
#X msg 74 177 symbol test;
#X text 14 41 accepts any messages equal to second inlet (\$2 initializes)
;
#X msg 105 122 list 3 4 5;
#X msg 117 97 3 4 5;
#X obj 175 183 sgFilter 3;
#X msg 167 86 1 2 3;
#X connect 0 0 11 0;
#X connect 3 0 11 1;
#X connect 4 0 11 1;
#X connect 5 0 11 1;
#X connect 6 0 11 0;
#X connect 7 0 11 0;
#X connect 9 0 11 0;
#X connect 10 0 11 0;
#X connect 11 0 1 0;
#X connect 11 1 2 0;
#X connect 12 0 11 0;
#X restore 282 391 pd example;
#N canvas 0 30 990 411 example 0;
#X msg 126 72 1 \, 2 \, 3;
#X obj 215 91 bng 15 250 50 0 empty empty reset 17 7 0 10 -262144 -1
-1;
#X obj 87 151 print first;
#X text 395 123 sgEatFirst: obsolete;
#X obj 176 151 print rest;
#X obj 127 119 sgFirst;
#X msg 113 39 list bla test \, hurz \, 3;
#X msg 213 115 skip;
#X text 249 114 reject all;
#X connect 0 0 5 0;
#X connect 1 0 5 1;
#X connect 5 0 2 0;
#X connect 5 1 4 0;
#X connect 6 0 5 0;
#X connect 7 0 5 1;
#X restore 281 243 pd example;
#N canvas 0 30 990 411 example 0;
#X obj 210 213 bng 15 250 50 0 empty empty empty 17 7 0 10 -262144
-1 -1;
#X text 94 93 second inlet/\$1: MAX \, default: -1 (which means MAX=inf)
;
#X text 305 181 set MAX;
#X text 95 114 \$2: if != 0: reset to 0 if MAX reached;
#X msg 378 211 -1;
#X msg 306 209 3;
#X msg 343 209 10;
#X obj 210 190 metro 1000;
#X obj 210 167 loadbang;
#X text 420 212 -1 means count forever;
#X obj 286 262 bng 15 250 50 0 empty empty empty 17 7 0 10 -262144
-1 -1;
#X text 92 47 output 0 \, 1 \, ... \, MAX-1 on every bang \, values
to set counter;
#X text 309 261 limit reached;
#X msg 155 209 0;
#X obj 185 274 print out;
#X obj 211 232 sgCounter 3 0;
#X connect 0 0 15 0;
#X connect 4 0 15 1;
#X connect 5 0 15 1;
#X connect 6 0 15 1;
#X connect 8 0 7 0;
#X connect 13 0 15 0;
#X connect 15 0 14 0;
#X connect 15 1 10 0;
#X restore 280 208 pd example;
#N canvas 0 30 990 411 example 0;
#X msg 80 74 symbol bla;
#X msg 99 99 symbol blubb;
#X msg 211 68 symbol bla;
#X msg 230 93 symbol blubb;
#X floatatom 104 163 5 0 0 0 - - -;
#X floatatom 464 268 5 0 0 0 - - -;
#X msg 464 169 2 2;
#X msg 505 169 2 3;
#X obj 465 203 unpack;
#X obj 537 200 unpack s s;
#X msg 545 168 bla blubb;
#X msg 619 168 bla bla;
#X text 405 71 compare floats OR symbols;
#X msg 33 17 list bla;
#X msg 69 45 list bla test;
#X obj 103 140 sgIsEqualSym bla;
#X floatatom 578 265 5 0 0 0 - - -;
#X msg 350 220 list 3 4 5;
#X obj 464 245 sgIsEqual 3;
#X msg 346 259 3 4 5;
#X text 430 100 if input is a list \, only the first element is considered
;
#X connect 0 0 15 0;
#X connect 1 0 15 0;
#X connect 2 0 15 1;
#X connect 3 0 15 1;
#X connect 6 0 8 0;
#X connect 7 0 8 0;
#X connect 8 0 18 0;
#X connect 8 1 18 1;
#X connect 9 0 18 0;
#X connect 9 1 18 1;
#X connect 10 0 9 0;
#X connect 11 0 9 0;
#X connect 13 0 15 0;
#X connect 14 0 15 0;
#X connect 15 0 4 0;
#X connect 16 0 18 1;
#X connect 17 0 18 0;
#X connect 18 0 5 0;
#X connect 19 0 18 0;
#X restore 278 284 pd example;
#X obj 67 86 sgFloatBang \$1;
#X obj 67 110 sgSymbolBang \$1;
#X obj 68 138 sgAnyBang \$1;
#X obj 66 44 sgGate;
#X obj 67 204 sgCounter \$1 \$2;
#X obj 67 240 sgFirst;
#X obj 87 392 sgFilter 3;
#X obj 177 290 sgIsEqual \$1;
#X obj 69 290 sgIsEqualSym \$1;
