#N canvas 0 30 990 411 10;
#X obj 52 14 inlet;
#X msg 49 174 start;
#X msg 99 175 stop;
#X obj 216 247 t b f;
#X obj 300 370 pack f f;
#X obj 300 394 outlet;
#X obj 85 207 sgRandomTime 5000 0;
#X obj 526 47 print;
#X msg 526 23 error unknown function "\$1";
#X obj 52 38 route start stop deltaT rndDelteT min max const;
#X obj 437 116 t f f;
#X obj 123 298 random 100000;
#X obj 123 323 sgMinMax 0 100000 \$3 \$4;
#X obj 135 142 sgFloatBang \$1;
#X obj 235 141 sgFloatBang \$2;
#X obj 380 196 sgFloatBang \$3;
#X obj 482 196 sgFloatBang \$4;
#X connect 0 0 9 0;
#X connect 1 0 6 0;
#X connect 2 0 6 0;
#X connect 3 0 11 0;
#X connect 3 1 4 1;
#X connect 4 0 5 0;
#X connect 6 0 3 0;
#X connect 8 0 7 0;
#X connect 9 0 1 0;
#X connect 9 1 2 0;
#X connect 9 2 13 0;
#X connect 9 3 14 0;
#X connect 9 4 15 0;
#X connect 9 5 16 0;
#X connect 9 6 10 0;
#X connect 9 7 8 0;
#X connect 10 0 15 0;
#X connect 10 1 16 0;
#X connect 11 0 12 0;
#X connect 12 0 4 0;
#X connect 13 0 6 1;
#X connect 14 0 6 2;
#X connect 15 0 12 3;
#X connect 16 0 12 4;
