#N canvas 0 30 942 854 10;
#X text 26 116 rnd distortion;
#X text 24 169 stream of events \, whose freq. is randomly distorted
;
#N canvas 0 30 942 854 sgRandomize 0;
#X floatatom 96 139 5 0 0 0 - - -;
#X obj 103 168 sgRandomize 0.5;
#X floatatom 103 190 5 0 0 0 - - -;
#X text 16 23 add random distortion to input;
#X msg 219 134 0.1;
#X msg 269 134 0.5;
#X text 18 43 formal: calc +x \, where x in [-DIST \, +DIST];
#X text 17 63 \$1: init DIST;
#X text 217 111 DIST (distortion):;
#X text 145 194 input + [-DIST \, +DIST];
#X connect 0 0 1 0;
#X connect 1 0 2 0;
#X connect 4 0 1 1;
#X connect 5 0 1 1;
#X restore 263 127 pd sgRandomize example;
#N canvas 0 30 942 854 sgRandomTime 0;
#X msg 44 142 start;
#X obj 62 208 sgRandomTime 1000 500;
#X msg 94 146 stop;
#X floatatom 214 244 5 0 0 0 time_until_the_next_event - -;
#X text 44 38 DELTAT (init \$1): the average delay between events \;
DIST (init \$2): the maximum time DELTAT might diverge;
#X text 175 110 DELTAT in ms;
#X text 22 13 generate events whose frequency is randomly distorted
;
#X msg 176 134 1000;
#X msg 179 160 5000;
#X obj 334 138 hsl 128 15 0 1000 0 0 empty empty DIST_in_ms -2 -8 0
10 -262144 -1 -1 0 1;
#X floatatom 331 158 5 0 0 0 - - -;
#X obj 214 266 bng 15 250 50 0 empty empty empty 17 7 0 10 -262144
-1 -1;
#X connect 0 0 1 0;
#X connect 1 0 3 0;
#X connect 2 0 1 0;
#X connect 3 0 11 0;
#X connect 7 0 1 1;
#X connect 8 0 1 1;
#X connect 9 0 10 0;
#X connect 10 0 1 2;
#X restore 260 190 pd sgRandomTime example;
#X obj 33 137 sgRandomize \$1;
#X obj 34 190 sgRandomTime \$1 \$2;
#X obj 36 259 sgRandomRamps \$1 \$2;
#N canvas 0 30 942 854 example 0;
#X msg 200 221 start;
#X msg 211 246 stop;
#X floatatom 320 166 5 0 0 0 DELTAT - -;
#X floatatom 395 165 5 0 0 0 - - -;
#X floatatom 207 327 5 0 0 0 value_from_[01] - -;
#X floatatom 264 348 6 0 0 0 delay_until_next_event - -;
#X obj 207 303 unpack f f;
#X obj 190 183 loadbang;
#X text 263 478 use line(~) to create random ramps:;
#X obj 312 565 loadbang;
#X msg 312 588 start;
#X obj 309 696 line;
#X obj 312 721 hsl 128 15 0 1 0 0 empty empty empty -2 -8 0 10 -262144
-1 -1 8467 1;
#X floatatom 309 741 5 0 0 0 - - -;
#X obj 312 632 unpack f f;
#X floatatom 312 655 5 0 0 0 - - -;
#X floatatom 369 655 5 0 0 0 - - -;
#X text 162 96 DELTAT (init \$1): the average delay between events
\; DIST: (init \$2): the maximum time difference to \$1;
#X msg 320 189 deltaT \$1;
#X msg 395 188 rndDeltaT;
#X msg 489 220 min \$1;
#X msg 564 224 max \$1;
#X floatatom 490 195 5 0 0 0 - - -;
#X floatatom 558 192 5 0 0 0 - - -;
#X obj 207 279 sgRandomRamps 1000 100 0 1;
#X msg 608 249 const 3;
#X obj 312 609 sgRandomRamps 1000 800 0 1;
#X connect 0 0 24 0;
#X connect 1 0 24 0;
#X connect 2 0 18 0;
#X connect 3 0 19 0;
#X connect 6 0 4 0;
#X connect 6 1 5 0;
#X connect 7 0 0 0;
#X connect 9 0 10 0;
#X connect 10 0 26 0;
#X connect 11 0 12 0;
#X connect 12 0 13 0;
#X connect 14 0 15 0;
#X connect 14 1 16 0;
#X connect 15 0 11 0;
#X connect 16 0 11 1;
#X connect 18 0 24 0;
#X connect 19 0 24 0;
#X connect 20 0 24 0;
#X connect 21 0 24 0;
#X connect 22 0 20 0;
#X connect 23 0 21 0;
#X connect 24 0 6 0;
#X connect 25 0 24 0;
#X connect 26 0 14 0;
#X restore 262 258 pd example;
#X text 26 24 randomly accept bangs;
#N canvas 0 30 942 854 example 0;
#X text 27 15 accept a bang with some propability;
#X obj 57 92 bng 15 250 50 0 empty empty input_bangs 17 7 0 10 -262144
-1 -1;
#X obj 111 143 bng 15 250 50 0 empty empty accept 17 7 0 10 -262144
-1 -1;
#X obj 180 143 bng 15 250 50 0 empty empty reject 17 7 0 10 -262144
-1 -1;
#X obj 57 68 metro 1000;
#X obj 57 45 loadbang;
#X obj 197 76 hsl 128 15 0 1 0 0 empty empty empty -2 -8 0 10 -262144
-1 -1 0 1;
#X floatatom 194 96 5 0 0 0 - - -;
#X obj 111 119 sgRandomFilter 0.5;
#X connect 1 0 8 0;
#X connect 4 0 1 0;
#X connect 5 0 4 0;
#X connect 6 0 7 0;
#X connect 7 0 8 1;
#X connect 8 0 2 0;
#X connect 8 1 3 0;
#X restore 233 45 pd example;
#X text 29 233 random ramps;
#X obj 35 46 sgRandomFilter 0.5;
