#N canvas 0 30 894 854 10;
#X obj 611 31 inlet;
#X text 606 12 restart;
#X obj 611 52 t b b;
#X obj 566 79 s \$0-ResetTime;
#X obj 228 280 outlet;
#X obj 264 15 inlet;
#X obj 228 258 sgEventAddParam time;
#X obj 353 184 timer;
#X obj 257 160 r \$0-ResetTime;
#X obj 264 35 t a b;
#X obj 353 205 sgPack time;
#X connect 0 0 2 0;
#X connect 2 0 3 0;
#X connect 5 0 9 0;
#X connect 6 0 4 0;
#X connect 7 0 10 0;
#X connect 8 0 7 0;
#X connect 9 0 6 0;
#X connect 9 1 7 1;
#X connect 10 0 6 1;
