#N canvas 0 30 942 854 10;
#X text 11 11 sgSequencingDoc: record and play sequences of sgEvents
;
#X text 48 141 playback a sequence of sgEvents;
#X obj 82 165 sgSeqPlayer;
#X obj 466 207 bng 15 250 50 0 empty empty empty 17 7 0 10 -262144
-1 -1;
#X obj 630 221 bng 15 250 50 0 empty empty restart_time 17 7 0 10 -262144
-1 -1;
#X obj 291 342 bng 15 250 50 0 empty empty empty 17 7 0 10 -262144
-1 -1;
#X text 287 324 output recorded sequence;
#N canvas 0 30 942 854 stream 0;
#X obj 97 33 inlet;
#X obj 116 268 outlet;
#X text 286 206 create an event from it;
#X obj 115 104 sgCounter -1;
#X obj 385 44 inlet;
#X msg 385 71 0;
#X obj 116 203 sgEvent counter value;
#X connect 0 0 3 0;
#X connect 3 0 6 0;
#X connect 4 0 5 0;
#X connect 5 0 3 0;
#X connect 6 0 1 0;
#X restore 465 258 pd stream of events;
#X text 388 206 morse here:;
#X text 40 34 add time information to a stream of sgEvents;
#X text 158 69 bang to (re-)start timer;
#X text 79 71 events;
#X text 90 107 events including time;
#X obj 95 88 sgSeqAddTime;
#X obj 458 348 sgSeqAddTime;
#X obj 450 402 sgData;
#X msg 565 394 clear;
#X obj 438 463 s \$0-sequence;
#X obj 591 545 r \$0-sequence;
#X msg 287 539 start;
#X obj 491 694 print;
#X floatatom 564 733 5 0 0 0 - - -;
#X obj 670 694 bng 15 250 50 0 empty empty empty 17 7 0 10 -262144
-1 -1;
#X obj 662 719 print done;
#X msg 692 638 set speed \$1;
#X floatatom 693 616 5 0 0 0 - - -;
#X obj 696 595 hsl 128 15 0.01 100 0 0 empty empty empty -2 -8 0 10
-262144 -1 -1 0 1;
#X obj 441 697 bng 15 250 50 0 empty empty empty 17 7 0 10 -262144
-1 -1;
#X text 57 217 example:;
#X text 554 751 delay until next event;
#X msg 570 503 set keepTime \$1;
#X obj 570 477 tgl 15 0 empty empty empty 17 7 0 10 -262144 -1 -1 0
1;
#X obj 517 636 sgSeqPlayer 1;
#X obj 591 569 list prepend sequence;
#X obj 591 592 sgPack set;
#X connect 3 0 7 0;
#X connect 4 0 14 1;
#X connect 4 0 7 1;
#X connect 4 0 16 0;
#X connect 5 0 15 0;
#X connect 7 0 14 0;
#X connect 14 0 15 1;
#X connect 15 0 17 0;
#X connect 16 0 15 1;
#X connect 18 0 33 0;
#X connect 19 0 32 0;
#X connect 24 0 32 0;
#X connect 25 0 24 0;
#X connect 26 0 25 0;
#X connect 30 0 32 0;
#X connect 31 0 30 0;
#X connect 32 0 27 0;
#X connect 32 1 20 0;
#X connect 32 2 21 0;
#X connect 32 3 22 0;
#X connect 32 3 23 0;
#X connect 33 0 34 0;
#X connect 34 0 32 0;
