#N canvas 0 30 798 411 10;
#X obj 144 76 r \$0-pitch;
#X obj 227 76 r \$0-volume;
#X obj 599 149 sgProperty pitch \$0 64;
#X obj 627 185 sgProperty volume \$0 1 1;
#X obj 410 25 inlet;
#X floatatom 144 119 5 0 0 0 pitch - -;
#X floatatom 227 119 5 0 0 0 volume - -;
#X obj 399 78 sgObjStateIn \$1 \$2, f 79;
#X obj 413 158 route start stop;
#X msg 411 191 start;
#X msg 469 188 stop;
#X symbolatom 128 250 10 0 0 0 - - -;
#X obj 400 310 sgObjStateOut \$1, f 79;
#X obj 413 132 sgEventToMessage;
#X obj 655 255 sgPropertyList envelope \$1;
#X obj 128 227 r \$0-descr;
#X obj 646 226 sgPropertySym descr \$0;
#X obj 412 108 sgPackFilter start;
#X obj 535 110 sgPackFilter stop;
#X obj 144 141 bng 15 250 50 0 empty \$0-start start 17 7 0 10 -262144
-1 -1;
#X obj 215 142 bng 15 250 50 0 empty \$0-stop stop 17 7 0 10 -262144
-1 -1;
#X obj 411 214 s \$0-start;
#X obj 493 219 s \$0-stop;
#X connect 0 0 5 0;
#X connect 1 0 6 0;
#X connect 2 0 12 0;
#X connect 2 1 3 0;
#X connect 3 0 12 0;
#X connect 3 1 16 0;
#X connect 4 0 7 0;
#X connect 7 0 17 0;
#X connect 7 1 12 1;
#X connect 8 0 9 0;
#X connect 8 1 10 0;
#X connect 9 0 21 0;
#X connect 10 0 22 0;
#X connect 13 0 8 0;
#X connect 13 1 2 0;
#X connect 14 0 12 0;
#X connect 15 0 11 0;
#X connect 16 0 12 0;
#X connect 16 1 14 0;
#X connect 17 0 13 0;
#X connect 17 1 18 0;
#X connect 18 0 13 0;
#X connect 18 1 2 0;
#X coords 0 -1 1 1 200 60 1 100 100;
