#N canvas 0 30 846 411 10;
#X obj 102 118 bng 15 250 50 0 \$0-updateUI empty update_ui 17 7 0
10 -262144 -1 -1;
#X obj 133 154 hradio 12 1 0 4 \$0-objRadio \$0-objRadio_rcv empty
0 -8 0 10 -262144 -1 -1 3;
#X obj 434 10 r \$0-updateUI;
#X text 102 137 select obj.:;
#X obj 102 153 nbx 2 14 0 3 0 0 \$0-objNum \$0-objNum_rcv empty 0 -8
0 10 -262144 -1 -1 3 256;
#X obj 4 10 r \$0-objNum;
#X msg 4 33 set \$1;
#X obj 4 56 s \$0-objRadio_rcv;
#X obj 4 80 r \$0-objRadio;
#X obj 4 103 s \$0-objNum_rcv;
#X symbolatom 133 171 27 0 0 0 - #0-objName_rcv #0-objName;
#X obj 433 89 r \$0-index;
#X obj 3 132 r \$0-objNum;
#X obj 3 155 s \$0-index;
#X obj 434 57 s \$0-objList;
#X obj 572 13 r \$0-objList;
#X obj 433 137 s \$0-obj;
#X obj 538 173 r \$0-obj;
#X msg 538 219 \; \$2-objName_rcv set \$1 \;;
#X obj 538 196 pack s \$0;
#X obj 239 215 nbx 6 14 -1e+37 1e+37 0 0 \$0-numProp0 \$0-numProp0_rcv
empty 0 -8 0 10 -262144 -1 -1 0 256;
#X obj 431 185 r \$0-obj;
#X obj 481 275 r \$0-fromInstr;
#X obj 239 232 nbx 6 14 -1e+37 1e+37 0 0 \$0-numProp1 \$0-numProp1_rcv
empty 0 -8 0 10 -262144 -1 -1 0 256;
#X obj 239 249 nbx 6 14 -1e+37 1e+37 0 0 \$0-numProp2 \$0-numProp2_rcv
empty 0 -8 0 10 -262144 -1 -1 0 256;
#N canvas 0 30 846 411 connectObj 0;
#X obj 182 201 symbol;
#X obj 89 85 inlet;
#X obj 125 140 t s s;
#X obj 194 236 sgFirst;
#X obj 333 269 pack s \$0;
#X obj 88 281 pack s \$0;
#X obj 174 170 t s b;
#X msg 386 334 \; \$1.in outGLOBAL 2 del \$2-fromInstr \;;
#X msg 90 306 \; \$1.in outGLOBAL 2 add \$2-fromInstr \; \$1.in get
0 \;;
#X connect 0 0 3 0;
#X connect 1 0 2 0;
#X connect 2 0 5 0;
#X connect 2 1 6 0;
#X connect 3 1 4 0;
#X connect 4 0 7 0;
#X connect 5 0 8 0;
#X connect 6 0 0 1;
#X connect 6 1 0 0;
#X restore 431 209 pd connectObj;
#N canvas 0 30 846 411 gui 0;
#X obj 58 30 inlet;
#X obj 35 99 sgDataSerialize;
#X msg 164 133 0;
#X obj 111 240 pack 0 \$0;
#X obj 82 166 sgCounter -1;
#X obj 35 122 t a b;
#X obj 111 217 + 1;
#X obj 82 190 t f f;
#X obj 44 240 pack 0 \$0;
#X msg 111 267 \; \$2-objRadio_rcv number \$1 \;;
#X msg 44 305 \; \$2-objNum_rcv range 0 \$1 \;;
#X obj 64 73 t a b, f 18;
#X connect 0 0 11 0;
#X connect 1 0 5 0;
#X connect 2 0 4 0;
#X connect 3 0 9 0;
#X connect 4 0 7 0;
#X connect 5 1 4 0;
#X connect 6 0 3 0;
#X connect 7 0 8 0;
#X connect 7 1 6 0;
#X connect 8 0 10 0;
#X connect 11 0 1 0;
#X connect 11 1 2 0;
#X restore 572 38 pd gui update objRadio and objNum;
#X obj 113 215 cnv 15 120 13 empty \$0-numPropName0_rcv size 1 8 0
10 -228856 -66577 0;
#X text 103 199 numeric properties:;
#N canvas 0 30 894 411 updateInstr 0;
#X obj 107 51 inlet;
#X obj 157 141 sgUnPack;
#X obj 157 166 sgDataSerialize;
#X msg 496 234 0;
#X obj 229 451 sgCounter -1;
#X obj 157 117 t a b, f 21;
#X obj 193 289 list split 1;
#X obj 227 313 route float symbol;
#X obj 182 399 sgGate;
#X obj 166 266 t a a;
#X obj 182 422 t a b;
#X text 56 606 index \, name \, value;
#X obj 166 476 list prepend;
#X obj 59 583 outlet;
#X obj 359 426 sgGate;
#X msg 227 337 1 0 0;
#X msg 279 337 0 1 0;
#X obj 227 362 unpack f f f;
#X obj 361 452 t a b;
#X obj 345 506 list prepend;
#X obj 307 592 outlet;
#X text 303 613 index \, name \, value;
#X obj 465 448 bng 15 250 50 0 empty empty empty 17 7 0 10 -262144
-1 -1;
#X obj 414 481 sgCounter -1;
#X obj 157 189 sgPackFilter name;
#X obj 166 244 sgPackToMessage;
#X obj 275 210 sgPackFilter out;
#X obj 637 584 outlet;
#X obj 580 320 sgUnPack;
#X obj 580 343 route bang;
#X obj 307 563 sgData;
#X obj 64 536 sgData;
#X obj 96 80 t b a;
#X obj 77 487 t b b;
#X obj 166 499 sgPack numVal;
#X obj 345 529 sgPack symVal;
#X msg 137 553 clear;
#X msg 377 560 clear;
#X connect 0 0 32 0;
#X connect 1 0 2 0;
#X connect 2 0 24 0;
#X connect 3 0 4 0;
#X connect 3 0 23 0;
#X connect 4 0 12 1;
#X connect 5 0 1 0;
#X connect 5 1 3 0;
#X connect 5 1 36 0;
#X connect 5 1 37 0;
#X connect 6 1 7 0;
#X connect 7 0 15 0;
#X connect 7 1 16 0;
#X connect 8 0 10 0;
#X connect 8 1 14 0;
#X connect 9 0 8 0;
#X connect 9 1 6 0;
#X connect 10 0 12 0;
#X connect 10 1 4 0;
#X connect 12 0 34 0;
#X connect 14 0 18 0;
#X connect 15 0 17 0;
#X connect 16 0 17 0;
#X connect 17 0 8 1;
#X connect 17 1 14 1;
#X connect 18 0 19 0;
#X connect 18 1 23 0;
#X connect 19 0 35 0;
#X connect 22 0 23 0;
#X connect 23 0 19 1;
#X connect 24 1 26 0;
#X connect 25 0 9 0;
#X connect 26 0 28 0;
#X connect 26 1 25 0;
#X connect 28 0 29 0;
#X connect 29 1 27 0;
#X connect 30 0 20 0;
#X connect 31 0 13 0;
#X connect 32 0 33 0;
#X connect 32 1 5 0;
#X connect 33 0 31 0;
#X connect 33 1 30 0;
#X connect 34 0 31 1;
#X connect 35 0 30 1;
#X connect 36 0 31 1;
#X connect 37 0 30 1;
#X restore 481 372 pd updateInstr gui;
#X obj 113 233 cnv 15 120 13 empty \$0-numPropName1_rcv - 1 8 0 10
-228856 -66577 0;
#X obj 113 251 cnv 15 120 13 empty \$0-numPropName2_rcv - 1 8 0 10
-228856 -66577 0;
#X obj 260 738 r \$0-numProps;
#X obj 428 410 s \$0-numProps;
#X obj 574 583 r \$0-numProps;
#X obj 481 323 t a b;
#X obj 532 410 s \$0-symProps;
#N canvas 0 30 894 854 numProps 0;
#X obj 36 141 r \$0-numProp0;
#X obj 129 143 unpack s f;
#X msg 101 201 \; \$3 set 2 \$2 \$1;
#X obj 101 167 pack f s s;
#X obj 174 168 r \$0-obj;
#X obj 309 131 unpack s f;
#X msg 281 189 \; \$3 set 2 \$2 \$1;
#X obj 281 155 pack f s s;
#X obj 354 156 r \$0-obj;
#X obj 216 129 r \$0-numProp1;
#X obj 491 129 unpack s f;
#X msg 463 187 \; \$3 set 2 \$2 \$1;
#X obj 463 153 pack f s s;
#X obj 536 154 r \$0-obj;
#X obj 399 130 r \$0-numProp2;
#X obj 271 23 inlet;
#X obj 271 46 sgDataSerialize;
#X obj 271 69 sgUnPack;
#X obj 109 311 unpack s f;
#X msg 81 369 \; \$3 set 2 \$2 \$1;
#X obj 81 335 pack f s s;
#X obj 154 336 r \$0-obj;
#X obj 309 322 unpack s f;
#X msg 281 380 \; \$3 set 2 \$2 \$1;
#X obj 281 346 pack f s s;
#X obj 354 347 r \$0-obj;
#X obj 16 309 r \$0-numProp4;
#X obj 217 323 r \$0-numProp5;
#X obj 271 96 route 0 1 2 3, f 96;
#X obj 664 131 unpack s f;
#X msg 636 189 \; \$3 set 2 \$2 \$1;
#X obj 636 155 pack f s s;
#X obj 709 156 r \$0-obj;
#X obj 571 129 r \$0-numProp3;
#X obj 120 269 route 4 5 6 7, f 120;
#X obj 486 322 unpack s f;
#X msg 458 380 \; \$3 set 2 \$2 \$1;
#X obj 458 346 pack f s s;
#X obj 531 347 r \$0-obj;
#X obj 686 333 unpack s f;
#X msg 658 391 \; \$3 set 2 \$2 \$1;
#X obj 658 357 pack f s s;
#X obj 731 358 r \$0-obj;
#X obj 393 320 r \$0-numProp6;
#X obj 594 334 r \$0-numProp7;
#X obj 806 223 t a;
#X obj 136 502 unpack s f;
#X msg 108 560 \; \$3 set 2 \$2 \$1;
#X obj 108 526 pack f s s;
#X obj 181 527 r \$0-obj;
#X obj 336 513 unpack s f;
#X msg 308 571 \; \$3 set 2 \$2 \$1;
#X obj 308 537 pack f s s;
#X obj 381 538 r \$0-obj;
#X obj 147 462 route 8 9, f 76;
#X obj 43 500 r \$0-numProp8;
#X obj 244 514 r \$0-numProp9;
#X obj 826 415 t a;
#X connect 0 0 3 0;
#X connect 1 0 3 1;
#X connect 3 0 2 0;
#X connect 4 0 3 2;
#X connect 5 0 7 1;
#X connect 7 0 6 0;
#X connect 8 0 7 2;
#X connect 9 0 7 0;
#X connect 10 0 12 1;
#X connect 12 0 11 0;
#X connect 13 0 12 2;
#X connect 14 0 12 0;
#X connect 15 0 16 0;
#X connect 16 0 17 0;
#X connect 17 0 28 0;
#X connect 18 0 20 1;
#X connect 20 0 19 0;
#X connect 21 0 20 2;
#X connect 22 0 24 1;
#X connect 24 0 23 0;
#X connect 25 0 24 2;
#X connect 26 0 20 0;
#X connect 27 0 24 0;
#X connect 28 0 1 0;
#X connect 28 1 5 0;
#X connect 28 2 10 0;
#X connect 28 3 29 0;
#X connect 28 4 45 0;
#X connect 29 0 31 1;
#X connect 31 0 30 0;
#X connect 32 0 31 2;
#X connect 33 0 31 0;
#X connect 34 0 18 0;
#X connect 34 1 22 0;
#X connect 34 2 35 0;
#X connect 34 3 39 0;
#X connect 34 4 57 0;
#X connect 35 0 37 1;
#X connect 37 0 36 0;
#X connect 38 0 37 2;
#X connect 39 0 41 1;
#X connect 41 0 40 0;
#X connect 42 0 41 2;
#X connect 43 0 37 0;
#X connect 44 0 41 0;
#X connect 45 0 34 0;
#X connect 46 0 48 1;
#X connect 48 0 47 0;
#X connect 49 0 48 2;
#X connect 50 0 52 1;
#X connect 52 0 51 0;
#X connect 53 0 52 2;
#X connect 54 0 46 0;
#X connect 54 1 50 0;
#X connect 55 0 48 0;
#X connect 56 0 52 0;
#X connect 57 0 54 0;
#X restore 260 763 pd numProps to obj;
#X obj 113 425 cnv 15 120 13 empty \$0-symPropName0_rcv table 1 8 0
10 -228856 -66577 0;
#X symbolatom 239 424 25 0 0 0 - #0-symProp0_rcv #0-symProp0;
#X obj 700 520 r \$0-symProps;
#X obj 113 446 cnv 15 120 13 empty \$0-symPropName1_rcv - 1 8 0 10
-228856 -66577 0;
#X symbolatom 239 444 25 0 0 0 - #0-symProp1_rcv #0-symProp1;
#X obj 113 466 cnv 15 120 13 empty \$0-symPropName2_rcv - 1 8 0 10
-228856 -66577 0;
#X symbolatom 239 464 25 0 0 0 - #0-symProp2_rcv #0-symProp2;
#N canvas 0 30 894 854 GUI 0;
#X obj 376 43 inlet;
#X obj 448 368 list append \$0;
#X msg 448 394 \; \$4-numPropName\$1_rcv label \$2 \; \$4-numProp\$1_rcv
set \$3 \;;
#X obj 376 66 sgDataSerialize;
#X obj 376 89 sgUnPack;
#X obj 61 33 inlet;
#X obj 141 150 list;
#X obj 141 173 sgDataSerialize;
#X obj 198 353 sgGate;
#X obj 139 227 unpack f s f, f 20;
#X obj 197 251 t s s;
#X obj 139 275 pack f s f, f 20;
#X obj 235 307 sgIsEqualSym;
#X obj 114 62 t b a;
#X obj 286 180 unpack s f;
#X obj 139 204 sgUnPack;
#X obj 198 382 list append \$0;
#X msg 198 408 \; \$4-numProp\$1_rcv set \$3 \;;
#X connect 0 0 3 0;
#X connect 0 0 6 1;
#X connect 1 0 2 0;
#X connect 3 0 4 0;
#X connect 4 0 1 0;
#X connect 5 0 13 0;
#X connect 6 0 7 0;
#X connect 7 0 15 0;
#X connect 8 0 16 0;
#X connect 9 0 11 0;
#X connect 9 1 10 0;
#X connect 10 0 11 1;
#X connect 10 1 12 0;
#X connect 11 0 8 0;
#X connect 12 0 8 1;
#X connect 13 0 6 0;
#X connect 13 1 14 0;
#X connect 14 0 12 1;
#X connect 14 1 11 2;
#X connect 15 0 9 0;
#X connect 16 0 17 0;
#X restore 465 607 pd GUI set numProps;
#N canvas 0 30 894 854 GUI 0;
#X obj 401 35 inlet;
#X obj 401 58 sgDataSerialize;
#X obj 401 81 sgUnPack;
#X obj 59 29 inlet;
#X obj 141 150 list;
#X obj 141 173 sgDataSerialize;
#X obj 200 370 sgGate;
#X obj 197 251 t s s;
#X obj 237 341 sgIsEqualSym;
#X obj 139 204 sgUnPack;
#X obj 200 398 list append \$0;
#X obj 132 75 t b a;
#X text 55 9 update msg. format: propname value;
#X obj 139 227 unpack f s s, f 20;
#X obj 141 309 pack f s s, f 20;
#X msg 200 422 \; \$4-symProp\$1_rcv set \$3 \;;
#X obj 590 172 list prepend \$0;
#X msg 591 198 \; \$1-symPropName\$2_rcv label \$3 \;;
#X msg 445 292 \; \$1-symProp\$2_rcv set \$4 \;;
#X obj 443 159 t a b;
#X obj 443 185 list split 2;
#X obj 511 217 l2s;
#X obj 445 244 list append;
#X obj 457 119 t a a;
#X obj 445 268 list prepend \$0;
#X obj 286 180 list split 1;
#X obj 312 230 l2s;
#X connect 0 0 1 0;
#X connect 0 0 4 1;
#X connect 1 0 2 0;
#X connect 2 0 23 0;
#X connect 3 0 11 0;
#X connect 4 0 5 0;
#X connect 5 0 9 0;
#X connect 6 0 10 0;
#X connect 7 0 14 1;
#X connect 7 1 8 0;
#X connect 8 0 6 1;
#X connect 9 0 13 0;
#X connect 10 0 15 0;
#X connect 11 0 4 0;
#X connect 11 1 25 0;
#X connect 13 0 14 0;
#X connect 13 1 7 0;
#X connect 14 0 6 0;
#X connect 16 0 17 0;
#X connect 19 0 20 0;
#X connect 19 1 21 0;
#X connect 20 0 22 0;
#X connect 20 1 21 0;
#X connect 21 0 22 1;
#X connect 22 0 24 0;
#X connect 23 0 19 0;
#X connect 23 1 16 0;
#X connect 24 0 18 0;
#X connect 25 0 8 1;
#X connect 25 1 26 0;
#X connect 26 0 14 2;
#X restore 566 554 pd GUI set symProps;
#N canvas 0 30 846 411 index 0;
#X obj 83 124 list;
#X obj 83 148 sgDataSerialize;
#X msg 190 185 0;
#X obj 130 218 sgCounter -1;
#X obj 83 171 t a b;
#X obj 79 67 t b b, f 6;
#X obj 127 280 == 0;
#X obj 94 305 sgGate;
#X obj 94 328 sgUnPack;
#X obj 85 17 inlet;
#X obj 133 368 outlet;
#X obj 298 25 inlet;
#X obj 84 40 t b a, f 23;
#X connect 0 0 1 0;
#X connect 1 0 4 0;
#X connect 2 0 3 0;
#X connect 3 0 6 0;
#X connect 4 0 7 0;
#X connect 4 1 3 0;
#X connect 5 0 0 0;
#X connect 5 1 2 0;
#X connect 6 0 7 1;
#X connect 7 0 8 0;
#X connect 8 2 10 0;
#X connect 9 0 12 0;
#X connect 11 0 0 1;
#X connect 12 0 5 0;
#X connect 12 1 6 1;
#X restore 433 113 pd index -> obj;
#X text 102 513 send messages to obj:;
#X obj 111 531 bng 15 250 50 0 \$0-start empty start 17 7 0 10 -262144
-1 -1;
#X obj 111 551 bng 15 250 50 0 \$0-stop empty stop 17 7 0 10 -262144
-1 -1;
#X obj 111 571 bng 15 250 50 0 \$0-normalize empty normalize 17 7 0
10 -262144 -1 -1;
#X obj 111 591 bng 15 250 50 0 \$0-clear empty clear 17 7 0 10 -262144
-1 -1;
#X symbolatom 110 611 40 0 0 0 - #0-message_rcv #0-message;
#X obj 355 612 bng 15 250 50 0 \$0-send empty send 17 7 0 10 -262144
-1 -1;
#N canvas 0 30 894 854 messages 0;
#X obj 271 195 sgPackFromHuman;
#X obj 391 234 send;
#X obj 326 101 r \$0-message;
#X obj 254 101 r \$0-send;
#X obj 76 140 r \$0-start;
#X msg 76 163 start ( );
#X obj 516 102 inlet;
#X obj 68 206 r \$0-stop;
#X msg 68 229 stop ( );
#X obj 79 265 r \$0-normalize;
#X msg 79 288 normalize ( );
#X obj 81 319 r \$0-clear;
#X msg 81 342 clear ( );
#X obj 312 131 s2l;
#X obj 274 159 list;
#X connect 0 0 1 0;
#X connect 2 0 13 0;
#X connect 3 0 14 0;
#X connect 4 0 5 0;
#X connect 5 0 0 0;
#X connect 6 0 1 1;
#X connect 7 0 8 0;
#X connect 8 0 0 0;
#X connect 9 0 10 0;
#X connect 10 0 0 0;
#X connect 11 0 12 0;
#X connect 12 0 0 0;
#X connect 13 0 14 1;
#X connect 14 0 0 0;
#X restore 140 764 pd messages -> obj;
#X obj 140 740 r \$0-obj;
#X obj 434 33 sgObjGetAll \$1;
#X obj 481 299 sgPackFilter object;
#N canvas 0 30 894 411 symProps 0;
#X obj 270 111 route 0 1 2;
#X obj 270 41 inlet;
#X obj 83 209 r \$0-symProp0;
#X obj 155 233 unpack s s;
#X obj 270 64 sgDataSerialize;
#X obj 270 87 sgUnPack;
#X text 267 22 format: index propertyName value;
#X obj 83 232 s2l;
#X obj 86 305 send;
#X obj 126 307 r \$0-obj;
#X obj 86 282 sgPack set;
#X obj 86 257 list prepend;
#X obj 336 230 unpack s s;
#X obj 264 229 s2l;
#X obj 267 302 send;
#X obj 307 304 r \$0-obj;
#X obj 267 279 sgPack set;
#X obj 267 254 list prepend;
#X obj 264 206 r \$0-symProp1;
#X obj 496 227 unpack s s;
#X obj 424 226 s2l;
#X obj 427 299 send;
#X obj 467 301 r \$0-obj;
#X obj 427 276 sgPack set;
#X obj 427 251 list prepend;
#X obj 424 203 r \$0-symProp2;
#X connect 0 0 3 0;
#X connect 0 1 12 0;
#X connect 0 2 19 0;
#X connect 1 0 4 0;
#X connect 2 0 7 0;
#X connect 3 0 11 1;
#X connect 4 0 5 0;
#X connect 5 0 0 0;
#X connect 7 0 11 0;
#X connect 9 0 8 1;
#X connect 10 0 8 0;
#X connect 11 0 10 0;
#X connect 12 0 17 1;
#X connect 13 0 17 0;
#X connect 15 0 14 1;
#X connect 16 0 14 0;
#X connect 17 0 16 0;
#X connect 18 0 13 0;
#X connect 19 0 24 1;
#X connect 20 0 24 0;
#X connect 22 0 21 1;
#X connect 23 0 21 0;
#X connect 24 0 23 0;
#X connect 25 0 20 0;
#X restore 379 763 pd symProps to obj;
#X obj 379 738 r \$0-symProps;
#X obj 526 84 r \$0-objList;
#X obj 634 155 r \$0-objList;
#N canvas 0 30 798 854 (subpatch) 0;
#X obj 444 146 list;
#X obj 444 170 sgDataSerialize;
#X obj 440 89 t b b, f 6;
#X obj 455 350 sgUnPack;
#X obj 446 39 inlet;
#X obj 659 47 inlet;
#X obj 57 37 inlet;
#X obj 126 151 list;
#X obj 129 182 sgDataSerialize;
#X obj 140 362 sgUnPack;
#X msg 194 422 \; \$1 outGLOBAL 1 clear \;;
#X msg 509 410 \; \$1 out 1 clear \;;
#X connect 0 0 1 0;
#X connect 1 0 3 0;
#X connect 2 0 0 0;
#X connect 3 2 11 0;
#X connect 4 0 2 0;
#X connect 5 0 0 1;
#X connect 5 0 7 1;
#X connect 6 0 7 0;
#X connect 7 0 8 0;
#X connect 8 0 9 0;
#X connect 9 2 10 0;
#X restore 619 180 pd;
#X obj 184 108 bng 15 250 50 0 \$0-clearConnections empty clear_connections
17 7 0 10 -258113 -1 -1;
#X obj 619 131 r \$0-clearConnections;
#X text 103 632 connections:;
#X text 120 650 ->;
#X symbolatom 141 652 36 0 0 0 - #0-symOut_rcv #0-symOut;
#X obj 142 677 bng 15 250 50 0 \$0-clearOutput empty clear 17 7 0 10
-262144 -1 -1;
#X obj 718 169 r \$0-clearOutput;
#X obj 718 192 symbol;
#X obj 767 192 r \$0-obj;
#X obj 651 445 s \$0-symOut_rcv;
#N canvas 0 30 894 411 track 0;
#X obj 179 17 inlet;
#X obj 181 95 sgUnPack;
#X obj 137 222 sgPackToMessage;
#X obj 49 472 outlet;
#X obj 191 265 list split 1;
#X obj 225 289 route float symbol;
#X obj 180 385 sgGate;
#X obj 137 247 t a a;
#X obj 334 427 sgGate;
#X msg 216 324 1 0 0;
#X obj 214 354 unpack f f f;
#X msg 283 324 0 1 0;
#X obj 376 479 outlet;
#X obj 235 125 sgPackFilter out;
#X obj 470 226 sgUnPack;
#X obj 518 319 outlet;
#X connect 0 0 1 0;
#X connect 1 0 13 0;
#X connect 2 0 7 0;
#X connect 4 1 5 0;
#X connect 5 0 9 0;
#X connect 5 1 11 0;
#X connect 6 0 3 0;
#X connect 6 1 8 0;
#X connect 7 0 6 0;
#X connect 7 1 4 0;
#X connect 8 0 12 0;
#X connect 9 0 10 0;
#X connect 10 0 6 1;
#X connect 10 1 8 1;
#X connect 11 0 10 0;
#X connect 13 0 14 0;
#X connect 13 1 2 0;
#X connect 14 0 15 0;
#X restore 548 520 pd track obj;
#X obj 548 461 r \$0-fromInstr;
#N canvas 0 30 894 854 gui 0;
#X obj 43 9 inlet;
#X obj 304 136 until;
#X msg 374 125 0;
#X obj 309 207 pack f \$0;
#X obj 304 58 t b b;
#X msg 302 267 \; \$2-symPropName\$1_rcv label - \; \$2-symProp\$1_rcv
set - \;;
#X obj 535 132 until;
#X msg 605 121 0;
#X obj 540 203 pack f \$0;
#X obj 535 54 t b b;
#X msg 532 263 \; \$2-numPropName\$1_rcv label - \; \$2-numProp\$1_rcv
set 0 \;;
#X text 530 317 clear numProps display;
#X text 300 322 clear symProps disply;
#X obj 71 89 f \$0;
#X msg 69 113 \; \$1-symOut_rcv set -;
#X obj 535 167 sgCounter -1;
#X obj 304 171 sgCounter -1;
#X msg 302 100 4;
#X msg 533 96 10;
#X connect 0 0 4 0;
#X connect 0 0 9 0;
#X connect 0 0 13 0;
#X connect 1 0 16 0;
#X connect 2 0 16 0;
#X connect 3 0 5 0;
#X connect 4 0 17 0;
#X connect 4 1 2 0;
#X connect 6 0 15 0;
#X connect 7 0 15 0;
#X connect 8 0 10 0;
#X connect 9 0 18 0;
#X connect 9 1 7 0;
#X connect 13 0 14 0;
#X connect 15 0 8 0;
#X connect 16 0 3 0;
#X connect 17 0 1 0;
#X connect 18 0 6 0;
#X restore 508 348 pd gui clear;
#X text 137 718 GUI -> Obj;
#X obj 651 399 l2s;
#X msg 651 422 set \$1;
#X obj 723 604 s \$0-symOut_rcv;
#X obj 723 558 l2s;
#X msg 723 581 set \$1;
#X obj 516 683 r \$0-symOut;
#X obj 516 706 s2l;
#X obj 543 760 sgPack out;
#X obj 543 737 list prepend set;
#X obj 604 785 send;
#X obj 673 760 r \$0-obj;
#X obj 239 266 nbx 6 14 -1e+37 1e+37 0 0 \$0-numProp3 \$0-numProp3_rcv
empty 0 -8 0 10 -262144 -1 -1 0 256;
#X obj 113 268 cnv 15 120 13 empty \$0-numPropName3_rcv - 1 8 0 10
-228856 -66577 0;
#X obj 113 486 cnv 15 120 13 empty \$0-symPropName3_rcv - 1 8 0 10
-228856 -66577 0;
#X symbolatom 239 484 25 0 0 0 - #0-symProp3_rcv #0-symProp3;
#X obj 239 283 nbx 6 14 -1e+37 1e+37 0 0 \$0-numProp4 \$0-numProp4_rcv
empty 0 -8 0 10 -262144 -1 -1 0 256;
#X obj 113 285 cnv 15 120 13 empty \$0-numPropName4_rcv - 1 8 0 10
-228856 -66577 0;
#X obj 239 300 nbx 6 14 -1e+37 1e+37 0 0 \$0-numProp5 \$0-numProp5_rcv
empty 0 -8 0 10 -262144 -1 -1 0 256;
#X obj 113 302 cnv 15 120 13 empty \$0-numPropName5_rcv - 1 8 0 10
-228856 -66577 0;
#X obj 239 318 nbx 6 14 -1e+37 1e+37 0 0 \$0-numProp6 \$0-numProp6_rcv
empty 0 -8 0 10 -262144 -1 -1 0 256;
#X obj 113 320 cnv 15 120 13 empty \$0-numPropName6_rcv - 1 8 0 10
-228856 -66577 0;
#X obj 239 335 nbx 6 14 -1e+37 1e+37 0 0 \$0-numProp7 \$0-numProp7_rcv
empty 0 -8 0 10 -262144 -1 -1 0 256;
#X obj 113 337 cnv 15 120 13 empty \$0-numPropName7_rcv - 1 8 0 10
-228856 -66577 0;
#X obj 239 353 nbx 6 14 -1e+37 1e+37 0 0 \$0-numProp8 \$0-numProp8_rcv
empty 0 -8 0 10 -262144 -1 -1 0 256;
#X obj 113 355 cnv 15 120 13 empty \$0-numPropName8_rcv - 1 8 0 10
-228856 -66577 0;
#X obj 239 370 nbx 6 14 -1e+37 1e+37 0 0 \$0-numProp9 \$0-numProp9_rcv
empty 0 -8 0 10 -262144 -1 -1 0 256;
#X obj 113 372 cnv 15 120 13 empty \$0-numPropName9_rcv - 1 8 0 10
-228856 -66577 0;
#X obj 548 487 sgPackFilter update;
#X text 103 409 symbol (and list) properties:;
#X obj 320 65 print;
#X obj 185 127 bng 15 250 50 0 \$0-disconnectUI empty disconnect_ui
17 7 0 10 -262144 -1 -1;
#X obj 687 74 r \$0-disconnectUI;
#X obj 591 107 r \$0-disconnectUI;
#X msg 718 215 \; \$1.in out 1 clear \;;
#X obj 689 286 r \$0-objList;
#X obj 689 309 print objList;
#X connect 2 0 57 0;
#X connect 5 0 6 0;
#X connect 6 0 7 0;
#X connect 8 0 9 0;
#X connect 11 0 47 0;
#X connect 12 0 13 0;
#X connect 15 0 26 0;
#X connect 17 0 19 0;
#X connect 19 0 18 0;
#X connect 21 0 25 0;
#X connect 22 0 58 0;
#X connect 29 0 33 0;
#X connect 29 1 36 0;
#X connect 29 2 78 0;
#X connect 32 0 37 0;
#X connect 34 0 45 1;
#X connect 35 0 29 0;
#X connect 35 1 76 0;
#X connect 40 0 46 1;
#X connect 47 0 16 0;
#X connect 56 0 55 0;
#X connect 57 0 14 0;
#X connect 58 0 35 0;
#X connect 60 0 59 0;
#X connect 61 0 47 1;
#X connect 62 0 63 2;
#X connect 65 0 63 1;
#X connect 70 0 71 0;
#X connect 71 0 111 0;
#X connect 72 0 71 1;
#X connect 74 0 45 0;
#X connect 74 1 46 0;
#X connect 74 2 81 0;
#X connect 75 0 105 0;
#X connect 78 0 79 0;
#X connect 79 0 73 0;
#X connect 81 0 82 0;
#X connect 82 0 80 0;
#X connect 83 0 84 0;
#X connect 84 0 86 0;
#X connect 85 0 87 0;
#X connect 86 0 85 0;
#X connect 88 0 87 1;
#X connect 105 0 74 0;
#X connect 110 0 63 0;
#X connect 112 0 113 0;
#X coords 0 -1 1 1 305 600 1 100 100;
