#N canvas 0 30 798 854 10;
#X obj 61 25 inlet;
#X obj 142 114 sgDataSerialize;
#X obj 142 189 sgUnPack;
#X obj 215 347 s;
#X obj 109 293 list prepend set;
#X obj 109 316 list trim;
#X text 246 131 objects...;
#X text 17 253 properties;
#X obj 109 236 sgDataSerialize;
#X obj 109 267 sgPackToMessage;
#X obj 250 236 makefilename %s;
#X connect 0 0 1 0;
#X connect 1 0 2 0;
#X connect 2 0 8 0;
#X connect 2 2 10 0;
#X connect 4 0 5 0;
#X connect 5 0 3 0;
#X connect 8 0 9 0;
#X connect 9 0 4 0;
#X connect 10 0 3 1;
