#N canvas 0 30 846 411 10;
#X obj 178 83 t s s s;
#X obj 338 519 sgData;
#X obj 178 59 symbol \$0-saveobjs;
#X obj 406 483 r \$0-init;
#X msg 406 506 clear;
#X obj 41 149 s \$0-exit;
#X obj 517 141 s \$0-init;
#X obj 363 104 t a b;
#X obj 99 111 t b a;
#X obj 286 482 r \$0-exit;
#X obj 347 305 sgDataSerialize;
#X obj 373 341 sgPackFilter name, f 21;
#X obj 357 481 sgPack;
#X obj 379 391 sgUnPack;
#X obj 377 366 t a a, f 14;
#X obj 316 278 t b a;
#X obj 370 196 r \$0-saveobjs;
#X obj 351 442 sgList, f 19;
#X obj 370 245 t a b, f 31;
#X msg 523 425 clear;
#X obj 178 35 inlet;
#X obj 338 551 outlet;
#X obj 370 220 sgUnPack;
#X msg 239 148 get 0;
#X obj 227 40 bng 15 250 50 0 empty empty empty 17 7 0 10 -262144 -1
-1;
#X text 493 34 \$1: receiver for every object;
#X obj 484 208 print fromobjs;
#X msg 339 142 outGLOBAL 2 add \$1;
#X msg 111 151 outGLOBAL 2 del \$1;
#X obj 202 199 s \$1;
#X connect 0 0 8 0;
#X connect 0 1 23 0;
#X connect 0 2 7 0;
#X connect 1 0 21 0;
#X connect 2 0 0 0;
#X connect 3 0 4 0;
#X connect 4 0 1 1;
#X connect 7 0 27 0;
#X connect 7 1 6 0;
#X connect 8 0 5 0;
#X connect 8 1 28 0;
#X connect 9 0 1 0;
#X connect 10 0 11 0;
#X connect 11 0 14 0;
#X connect 11 1 17 1;
#X connect 12 0 1 1;
#X connect 13 0 12 1;
#X connect 14 0 13 0;
#X connect 15 0 17 0;
#X connect 15 1 10 0;
#X connect 16 0 22 0;
#X connect 17 0 12 0;
#X connect 18 0 15 0;
#X connect 18 1 19 0;
#X connect 19 0 17 1;
#X connect 20 0 2 0;
#X connect 22 0 18 0;
#X connect 23 0 29 0;
#X connect 24 0 2 0;
#X connect 27 0 29 0;
#X connect 28 0 29 0;
