#N canvas 0 30 846 411 10;
#X obj 304 427 r \$0-dest;
#X obj 96 619 sgSerialize;
#X obj 96 643 t b a;
#X obj 148 712 send;
#X obj 528 216 route out;
#X obj 739 291 s \$0-flush;
#X obj 687 268 route accuml flush;
#X obj 124 229 sgGate 1;
#X obj 205 386 sgData;
#X obj 313 357 r \$0-startAccuml;
#X msg 215 214 0;
#X msg 313 383 clear;
#X obj 215 190 r \$0-startAccuml;
#X obj 126 293 r \$0-flush;
#X obj 252 215 r \$0-flush;
#X msg 252 238 1;
#X obj 117 685 list;
#X obj 98 535 t b a, f 21;
#X obj 687 316 s \$0-startAccuml;
#X obj 406 12 inlet;
#X obj 96 595 list;
#X obj 37 48 inlet;
#X obj 56 331 t a;
#X text 26 25 output sgEvents from the object;
#X obj 318 307 sgUnPack;
#X obj 205 411 sgPack object;
#X obj 406 35 route EVENT;
#X obj 311 752 print \$1: sending;
#X obj 175 101 sgPackToMessage;
#N canvas 0 30 798 854 add 0;
#X obj 75 36 inlet;
#X obj 78 298 outlet;
#X obj 115 143 sgPack out;
#X obj 116 98 list;
#X obj 219 56 inlet;
#X connect 0 0 3 0;
#X connect 2 0 1 0;
#X connect 3 0 2 0;
#X connect 4 0 3 1;
#X restore 177 341 pd add out;
#X obj 246 312 r \$0-dest;
#X obj 126 316 t b b;
#X text 513 28 ctrl messages;
#X obj 467 283 sgObjOutList;
#X obj 467 306 s \$0-dest;
#X obj 579 264 sgObjOutList;
#X obj 579 288 s \$0-destGLOBAL;
#X obj 331 528 list;
#X obj 381 453 r \$0-destGLOBAL;
#X obj 381 476 t b a;
#X obj 579 240 route outGLOBAL;
#X obj 311 728 list append;
#X msg 386 696 -> \$1;
#X obj 331 501 list;
#X obj 331 474 t b a;
#N canvas 0 30 798 854 out 0;
#X obj 103 83 inlet;
#X obj 108 317 outlet;
#X obj 103 121 sgPack out;
#X obj 103 144 sgPack update;
#X connect 0 0 2 0;
#X connect 2 0 3 0;
#X connect 3 0 1 0;
#X restore 200 492 pd out update;
#X obj 304 450 t a a;
#X obj 175 78 sgPackFilter out;
#N canvas 0 30 846 854 pack 0;
#X obj 142 41 inlet;
#X obj 82 363 outlet;
#X obj 66 307 sgPack, f 19;
#X obj 67 201 list split 1;
#X obj 63 277 list;
#X obj 56 235 t b s;
#X obj 127 88 list split 1;
#X obj 113 155 list;
#X obj 104 118 t b s;
#X obj 82 335 sgPack, f 25;
#X connect 0 0 6 0;
#X connect 2 0 9 0;
#X connect 3 0 5 0;
#X connect 3 1 4 1;
#X connect 4 0 2 0;
#X connect 5 0 4 0;
#X connect 5 1 2 1;
#X connect 6 0 8 0;
#X connect 6 1 7 1;
#X connect 7 0 3 0;
#X connect 8 0 7 0;
#X connect 8 1 9 1;
#X connect 9 0 1 0;
#X restore 124 139 pd pack;
#X connect 0 0 46 0;
#X connect 1 0 2 0;
#X connect 2 0 16 0;
#X connect 2 1 3 1;
#X connect 4 0 33 0;
#X connect 4 1 40 0;
#X connect 6 0 18 0;
#X connect 6 1 5 0;
#X connect 7 0 22 0;
#X connect 7 1 24 0;
#X connect 8 0 25 0;
#X connect 9 0 11 0;
#X connect 10 0 7 1;
#X connect 11 0 8 1;
#X connect 12 0 10 0;
#X connect 13 0 31 0;
#X connect 14 0 15 0;
#X connect 15 0 7 1;
#X connect 16 0 3 0;
#X connect 17 0 20 0;
#X connect 17 1 16 1;
#X connect 19 0 26 0;
#X connect 20 0 1 0;
#X connect 21 0 48 0;
#X connect 22 0 17 0;
#X connect 24 0 8 1;
#X connect 25 0 17 0;
#X connect 26 0 7 0;
#X connect 26 1 4 0;
#X connect 28 0 4 0;
#X connect 29 0 8 1;
#X connect 30 0 29 1;
#X connect 30 0 8 1;
#X connect 31 0 8 0;
#X connect 31 1 29 0;
#X connect 33 0 34 0;
#X connect 35 0 36 0;
#X connect 37 0 20 1;
#X connect 38 0 39 0;
#X connect 39 0 43 0;
#X connect 39 1 37 1;
#X connect 40 0 35 0;
#X connect 40 1 6 0;
#X connect 41 0 27 0;
#X connect 42 0 41 1;
#X connect 43 0 37 0;
#X connect 44 0 43 0;
#X connect 44 1 43 1;
#X connect 45 0 17 0;
#X connect 46 0 45 0;
#X connect 46 1 44 0;
#X connect 47 0 28 0;
#X connect 48 0 7 0;
