#N canvas 0 30 894 854 10;
#X obj 30 22 inlet;
#X obj 58 582 outlet;
#X obj 674 593 r \$0-toOutput;
#X obj 674 616 outlet;
#X obj 140 257 == 0;
#X obj 107 282 sgGate;
#X obj 39 432 s \$0-toOutput;
#X msg 39 403 flush;
#X msg 255 371 accuml;
#X obj 255 394 s \$0-toOutput;
#X obj 364 184 s \$0-toOutput;
#X text 541 17 needed for save/load of the object;
#X obj 509 18 r \$2;
#X obj 246 528 s \$0-toOutput;
#X obj 246 505 list trim;
#X obj 246 482 list prepend EVENT;
#X text 529 530 \$1: unique object name (for saving) \; \$2: object
saving "group";
#X obj 70 22 r \$1;
#X text 102 21 unique object receiver;
#X text 399 419 name as property \, needed for load/save;
#X obj 238 429 symbol \$1;
#X obj 337 137 t a a;
#X text 111 607 set <property> <val> \; get <property> \; get \; out
(inform obj about changes in the output list) \;;
#X obj 112 191 t a a;
#X obj 95 329 t b a b;
#X obj 139 378 t a b;
#X obj 364 160 sgPackToMessage;
#X obj 432 109 sgPackFilter outGLOBAL;
#X obj 339 86 sgPackFilter out;
#X obj 112 165 route get set;
#X obj 140 232 list length;
#X obj 225 231 list prepend set;
#X obj 225 254 list trim;
#X obj 129 464 list trim;
#X obj 129 441 list prepend get;
#X obj 585 47 inlet;
#X obj 527 137 sgEventToMessage;
#X text 702 53 unique object receiver;
#X obj 630 48 r \$1.in;
#X obj 633 83 s \$0-input.event;
#X obj 302 20 r \$0-input.event;
#X obj 58 559 r \$0-toObj;
#X obj 131 493 s \$0-toObj;
#X obj 225 277 s \$0-toObj;
#X obj 599 193 s \$0-toObj;
#X obj 337 208 s \$0-toObj;
#X obj 275 45 print \$1.in;
#X obj 214 191 s \$0-toObj;
#X obj 495 394 s \$0-toObj;
#X obj 491 367 list trim;
#X obj 491 344 list prepend get;
#X obj 246 455 list prepend update name;
#X obj 530 170 sgFilter set;
#X connect 0 0 29 0;
#X connect 2 0 3 0;
#X connect 4 0 5 1;
#X connect 5 0 24 0;
#X connect 5 1 50 0;
#X connect 7 0 6 0;
#X connect 8 0 9 0;
#X connect 12 0 39 0;
#X connect 14 0 13 0;
#X connect 15 0 14 0;
#X connect 17 0 29 0;
#X connect 20 0 51 0;
#X connect 21 0 45 0;
#X connect 21 1 26 0;
#X connect 23 0 5 0;
#X connect 23 1 30 0;
#X connect 24 0 7 0;
#X connect 24 1 25 0;
#X connect 24 2 8 0;
#X connect 25 0 34 0;
#X connect 25 1 20 0;
#X connect 26 0 10 0;
#X connect 27 0 21 0;
#X connect 27 1 36 0;
#X connect 28 0 21 0;
#X connect 28 1 27 0;
#X connect 29 0 23 0;
#X connect 29 1 31 0;
#X connect 29 2 47 0;
#X connect 30 0 4 0;
#X connect 31 0 32 0;
#X connect 32 0 43 0;
#X connect 33 0 42 0;
#X connect 34 0 33 0;
#X connect 35 0 39 0;
#X connect 36 0 52 0;
#X connect 36 1 29 0;
#X connect 38 0 39 0;
#X connect 40 0 46 0;
#X connect 40 0 28 0;
#X connect 41 0 1 0;
#X connect 49 0 48 0;
#X connect 50 0 49 0;
#X connect 51 0 15 0;
#X connect 52 1 44 0;
