#N canvas 0 30 798 411 10;
#X obj 52 17 inlet;
#X obj 78 506 outlet;
#X msg 67 374 bang;
#X obj 332 500 outlet;
#X obj 799 212 s \$2-\$1;
#X obj 633 73 s \$0-delegate;
#X obj 333 475 r \$0-delegate;
#X obj 252 266 s \$0-delegate;
#X obj 764 36 loadbang;
#X obj 764 83 route 0;
#X obj 78 439 sgPack \$1;
#X text 705 269 \$1: property name \; \$2: "\$0" \; [\$3: init] \;
[\$4: loadbang?] \;;
#X obj 87 398 f \$3;
#X obj 122 379 r \$0-set;
#X obj 826 189 s \$0-set;
#X obj 764 60 list append \$4 \$3;
#X obj 543 337 r \$2-\$1_rcv;
#X obj 799 164 t f f;
#X obj 678 445 s \$0-set;
#X obj 651 421 t f f;
#X obj 612 384 t b f;
#X obj 52 43 sgPackFilter get;
#X obj 319 33 sgPackFilter set;
#X obj 79 95 sgUnPack;
#X obj 68 142 sgGate;
#X obj 101 119 == 0;
#X obj 52 66 t a a;
#X obj 47 175 t b b;
#X obj 34 248 s \$0-delegate;
#X obj 159 153 sgIsEqualSym \$1;
#X obj 188 190 sgGate;
#X obj 372 69 sgUnPack;
#X obj 319 56 t a a;
#X obj 372 115 route \$1, f 15;
#X obj 279 188 s \$0-delegate;
#X obj 279 164 sgGate;
#X msg 317 139 1;
#X obj 437 204 s \$0-set;
#X obj 410 181 t f f;
#X obj 410 229 s \$2-\$1;
#X obj 376 155 t b f;
#X msg 331 162 0;
#X obj 372 92 list trim;
#X msg 199 375 bang;
#X obj 210 440 sgPack \$1;
#X obj 210 463 sgPack update;
#X obj 219 399 f \$3;
#X obj 254 380 r \$0-set;
#X obj 67 351 r \$0-outputGet;
#X obj 199 352 r \$0-outputSet;
#X obj 78 462 sgPack info;
#X obj 76 200 s \$0-outputGet;
#X obj 169 226 s \$0-outputGet;
#X obj 371 260 s \$0-outputSet;
#X obj 612 499 s \$0-outputSet;
#X obj 786 124 list split 1;
#X msg 34 225 list get 0;
#X obj 543 360 route set set_noupdate;
#X obj 551 450 s \$0-set;
#X obj 524 426 t f f;
#X obj 524 473 s \$2-\$1;
#X obj 485 389 t b f;
#X obj 485 504 s \$0-outputSet;
#X connect 0 0 21 0;
#X connect 2 0 12 0;
#X connect 6 0 3 0;
#X connect 8 0 15 0;
#X connect 9 1 55 0;
#X connect 10 0 50 0;
#X connect 12 0 10 0;
#X connect 13 0 12 1;
#X connect 15 0 9 0;
#X connect 16 0 57 0;
#X connect 17 0 4 0;
#X connect 17 1 14 0;
#X connect 19 1 18 0;
#X connect 20 0 54 0;
#X connect 20 1 19 0;
#X connect 21 0 26 0;
#X connect 21 1 22 0;
#X connect 22 0 32 0;
#X connect 22 1 5 0;
#X connect 23 0 29 0;
#X connect 23 1 25 0;
#X connect 24 0 27 0;
#X connect 24 1 30 0;
#X connect 25 0 24 1;
#X connect 26 0 24 0;
#X connect 26 1 23 0;
#X connect 27 0 56 0;
#X connect 27 1 51 0;
#X connect 29 0 30 1;
#X connect 30 0 52 0;
#X connect 30 1 7 0;
#X connect 31 0 42 0;
#X connect 32 0 35 0;
#X connect 32 1 31 0;
#X connect 33 0 40 0;
#X connect 33 1 36 0;
#X connect 35 0 34 0;
#X connect 36 0 35 1;
#X connect 38 0 39 0;
#X connect 38 1 37 0;
#X connect 40 0 41 0;
#X connect 40 0 53 0;
#X connect 40 1 38 0;
#X connect 41 0 35 1;
#X connect 42 0 33 0;
#X connect 43 0 46 0;
#X connect 44 0 45 0;
#X connect 45 0 1 0;
#X connect 46 0 44 0;
#X connect 47 0 46 1;
#X connect 48 0 2 0;
#X connect 49 0 43 0;
#X connect 50 0 1 0;
#X connect 55 1 17 0;
#X connect 56 0 28 0;
#X connect 57 0 61 0;
#X connect 57 1 20 0;
#X connect 59 0 60 0;
#X connect 59 1 58 0;
#X connect 61 0 62 0;
#X connect 61 1 59 0;
