#N canvas 0 473 894 411 10;
#X obj 52 17 inlet;
#X obj 78 506 outlet;
#X msg 40 376 bang;
#X obj 332 500 outlet;
#X obj 799 212 s \$2-\$1;
#X obj 143 38 s \$0-delegate;
#X obj 333 475 r \$0-delegate;
#X obj 230 174 s \$0-delegate;
#X obj 764 36 loadbang;
#X obj 764 83 route 0;
#X text 705 269 \$1: property name \; \$2: "\$0" \; [\$3: init] \;
[\$4: loadbang?] \;;
#X obj 60 400 f \$3;
#X obj 95 381 r \$0-set;
#X obj 826 189 s \$0-set;
#X obj 764 60 list append \$4 \$3;
#X obj 543 337 r \$2-\$1_rcv;
#X obj 799 164 t f f;
#X obj 678 445 s \$0-set;
#X obj 651 421 t f f;
#X obj 612 384 t b f;
#X obj 47 175 t b b;
#X obj 34 248 s \$0-delegate;
#X obj 424 154 s \$0-set;
#X obj 397 131 t f f;
#X obj 397 229 s \$2-\$1;
#X obj 363 105 t b f;
#X msg 199 375 bang;
#X obj 219 399 f \$3;
#X obj 254 380 r \$0-set;
#X obj 40 353 r \$0-outputGet;
#X obj 199 352 r \$0-outputSet;
#X obj 76 200 s \$0-outputGet;
#X obj 112 133 s \$0-outputGet;
#X obj 358 260 s \$0-outputSet;
#X obj 612 499 s \$0-outputSet;
#X obj 786 124 list split 1;
#X obj 551 450 s \$0-set;
#X obj 524 426 t f f;
#X obj 524 473 s \$2-\$1;
#X obj 485 389 t b f;
#X obj 485 504 s \$0-outputSet;
#X obj 53 64 route bang;
#X obj 118 100 route \$1;
#X msg 34 225 get;
#X obj 53 40 route get set;
#X obj 363 80 route \$1;
#X obj 560 125 s \$0-delegate;
#X obj 230 127 list prepend get;
#X obj 230 151 list trim;
#X obj 506 95 list trim;
#X obj 506 71 list prepend set;
#X obj 543 360 route priv.set priv.set_noupdate;
#X obj 60 423 list prepend \$1;
#X obj 60 446 list trim;
#X connect 0 0 44 0;
#X connect 2 0 11 0;
#X connect 6 0 3 0;
#X connect 8 0 14 0;
#X connect 9 1 35 0;
#X connect 11 0 52 0;
#X connect 12 0 11 1;
#X connect 14 0 9 0;
#X connect 15 0 51 0;
#X connect 16 0 4 0;
#X connect 16 1 13 0;
#X connect 18 1 17 0;
#X connect 19 0 34 0;
#X connect 19 1 18 0;
#X connect 20 0 43 0;
#X connect 20 1 31 0;
#X connect 23 0 24 0;
#X connect 23 1 22 0;
#X connect 25 0 33 0;
#X connect 25 1 23 0;
#X connect 26 0 27 0;
#X connect 27 0 52 0;
#X connect 28 0 27 1;
#X connect 29 0 2 0;
#X connect 30 0 26 0;
#X connect 35 1 16 0;
#X connect 37 0 38 0;
#X connect 37 1 36 0;
#X connect 39 0 40 0;
#X connect 39 1 37 0;
#X connect 41 0 20 0;
#X connect 41 1 42 0;
#X connect 42 0 32 0;
#X connect 42 1 47 0;
#X connect 43 0 21 0;
#X connect 44 0 41 0;
#X connect 44 1 45 0;
#X connect 44 2 5 0;
#X connect 45 0 25 0;
#X connect 45 1 50 0;
#X connect 47 0 48 0;
#X connect 48 0 7 0;
#X connect 49 0 46 0;
#X connect 50 0 49 0;
#X connect 51 0 39 0;
#X connect 51 1 19 0;
#X connect 52 0 53 0;
#X connect 53 0 1 0;
