#N canvas 0 473 846 411 10;
#X obj 730 100 route 0;
#X obj 607 71 list append \$3;
#X obj 607 94 route 0;
#X obj 688 48 t b b;
#X obj 688 24 loadbang;
#X obj 78 506 outlet;
#X msg 58 366 bang;
#X obj 572 386 outlet;
#X obj 573 361 r \$0-delegate;
#X obj 78 439 sgPack \$1;
#X text 719 318 \$1: property name \; \$2: "\$0" \; [\$3: init] \;
[\$4: loadbang?] \;;
#X obj 113 368 r \$0-set;
#X obj 452 403 r \$2-\$1_rcv;
#X obj 78 390 symbol;
#X obj 52 17 inlet;
#X obj 473 43 s \$0-delegate;
#X obj 221 221 s \$0-delegate;
#X obj 52 43 sgPackFilter get;
#X obj 319 33 sgPackFilter set;
#X obj 79 95 sgUnPack;
#X obj 68 142 sgGate;
#X obj 101 119 == 0;
#X obj 52 66 t a a;
#X obj 47 175 t b b;
#X obj 34 224 s \$0-delegate;
#X msg 34 201 get 0;
#X obj 159 153 sgIsEqualSym \$1;
#X obj 188 190 sgGate;
#X obj 372 69 sgUnPack;
#X obj 319 56 t a a;
#X obj 372 115 route \$1, f 15;
#X obj 279 188 s \$0-delegate;
#X obj 279 164 sgGate;
#X msg 317 139 1;
#X obj 454 218 s \$0-set;
#X obj 427 243 s \$2-\$1;
#X msg 331 162 0;
#X obj 372 92 list trim;
#X obj 393 169 t b s;
#X obj 427 195 t s s;
#X obj 393 145 symbol;
#X msg 215 367 bang;
#X obj 235 440 sgPack \$1;
#X obj 235 463 sgPack update;
#X obj 270 369 r \$0-set;
#X obj 235 391 symbol;
#X obj 58 343 r \$0-outputGet;
#X obj 215 344 r \$0-outputSet;
#X obj 78 462 sgPack info;
#X obj 76 200 s \$0-outputGet;
#X obj 149 253 s \$0-outputGet;
#X obj 388 274 s \$0-outputSet;
#X obj 646 531 s \$0-set;
#X obj 619 554 s \$2-\$1;
#X obj 580 470 t b s;
#X obj 619 507 t s s;
#X obj 561 580 s \$0-outputSet;
#X obj 452 426 route set;
#X obj 438 554 s \$0-set;
#X obj 411 577 s \$2-\$1;
#X obj 372 493 t b s;
#X obj 411 530 t s s;
#X obj 353 603 s \$0-outputSet;
#X obj 436 454 symbol;
#X msg 580 121 bang;
#X obj 643 247 s \$0-set;
#X obj 575 254 s \$2-\$1;
#X obj 730 77 list append \$4;
#X obj 585 216 sgGate;
#X msg 768 131 1;
#X msg 722 129 0;
#X obj 600 183 t s s;
#X obj 579 144 symbol;
#X connect 0 0 70 0;
#X connect 0 1 69 0;
#X connect 1 0 2 0;
#X connect 2 0 64 0;
#X connect 2 1 71 0;
#X connect 3 0 1 0;
#X connect 3 1 67 0;
#X connect 4 0 3 0;
#X connect 6 0 13 0;
#X connect 8 0 7 0;
#X connect 9 0 48 0;
#X connect 11 0 13 1;
#X connect 12 0 57 0;
#X connect 13 0 9 0;
#X connect 14 0 17 0;
#X connect 17 0 22 0;
#X connect 17 1 18 0;
#X connect 18 0 29 0;
#X connect 18 1 15 0;
#X connect 19 0 26 0;
#X connect 19 1 21 0;
#X connect 20 0 23 0;
#X connect 20 1 27 0;
#X connect 21 0 20 1;
#X connect 22 0 20 0;
#X connect 22 1 19 0;
#X connect 23 0 25 0;
#X connect 23 1 49 0;
#X connect 25 0 24 0;
#X connect 26 0 27 1;
#X connect 27 0 50 0;
#X connect 27 1 16 0;
#X connect 28 0 37 0;
#X connect 29 0 32 0;
#X connect 29 1 28 0;
#X connect 30 0 40 0;
#X connect 30 1 33 0;
#X connect 32 0 31 0;
#X connect 33 0 32 1;
#X connect 36 0 32 1;
#X connect 37 0 30 0;
#X connect 38 0 36 0;
#X connect 38 0 51 0;
#X connect 38 1 39 0;
#X connect 39 0 35 0;
#X connect 39 1 34 0;
#X connect 40 0 38 0;
#X connect 41 0 45 0;
#X connect 42 0 43 0;
#X connect 43 0 5 0;
#X connect 44 0 45 1;
#X connect 45 0 42 0;
#X connect 46 0 6 0;
#X connect 47 0 41 0;
#X connect 48 0 5 0;
#X connect 54 0 56 0;
#X connect 54 1 55 0;
#X connect 55 0 53 0;
#X connect 55 1 52 0;
#X connect 57 0 63 0;
#X connect 57 1 54 0;
#X connect 60 0 62 0;
#X connect 60 1 61 0;
#X connect 61 0 59 0;
#X connect 61 1 58 0;
#X connect 63 0 60 0;
#X connect 64 0 72 0;
#X connect 67 0 0 0;
#X connect 68 0 66 0;
#X connect 69 0 68 1;
#X connect 70 0 68 1;
#X connect 71 0 68 0;
#X connect 71 1 65 0;
#X connect 72 0 71 0;
