#N canvas 0 473 894 411 10;
#X obj 52 17 inlet;
#X obj 107 490 outlet;
#X msg 40 376 bang;
#X obj 332 500 outlet;
#X obj 681 196 s \$2-\$1;
#X obj 143 38 s \$0-delegate;
#X obj 333 475 r \$0-delegate;
#X obj 230 174 s \$0-delegate;
#X obj 646 20 loadbang;
#X obj 646 67 route 0;
#X text 705 269 \$1: property name \; \$2: "\$0" \; [\$3: init] \;
[\$4: loadbang?] \;;
#X obj 95 381 r \$0-set;
#X obj 708 173 s \$0-set;
#X obj 646 44 list append \$4 \$3;
#X obj 538 302 r \$2-\$1_rcv;
#X obj 678 445 s \$0-set;
#X obj 47 175 t b b;
#X obj 34 248 s \$0-delegate;
#X obj 425 206 s \$0-set;
#X obj 398 281 s \$2-\$1;
#X msg 199 375 bang;
#X obj 254 380 r \$0-set;
#X obj 40 353 r \$0-outputGet;
#X obj 199 352 r \$0-outputSet;
#X obj 76 200 s \$0-outputGet;
#X obj 112 133 s \$0-outputGet;
#X obj 359 312 s \$0-outputSet;
#X obj 612 499 s \$0-outputSet;
#X obj 668 108 list split 1;
#X obj 551 450 s \$0-set;
#X obj 524 473 s \$2-\$1;
#X obj 485 504 s \$0-outputSet;
#X obj 53 64 route bang;
#X obj 118 100 route \$1;
#X msg 34 225 get;
#X obj 53 40 route get set;
#X obj 363 80 route \$1;
#X obj 230 127 list prepend get;
#X obj 230 151 list trim;
#X obj 60 400 symbol \$3;
#X obj 219 399 symbol \$3;
#X obj 485 389 t b s;
#X obj 524 426 t s s;
#X obj 651 421 t s s;
#X obj 612 384 t b s;
#X obj 398 183 t s s;
#X obj 364 157 t b s;
#X obj 681 148 t s s;
#X obj 363 103 symbol;
#X obj 560 125 s \$0-delegate;
#X obj 506 95 list trim;
#X obj 506 71 list prepend set;
#X obj 605 350 symbol;
#X obj 517 352 symbol;
#X obj 107 444 list prepend \$1;
#X obj 538 325 route priv.set priv.set_noupdate;
#X obj 107 467 list trim;
#X connect 0 0 35 0;
#X connect 2 0 39 0;
#X connect 6 0 3 0;
#X connect 8 0 13 0;
#X connect 9 1 28 0;
#X connect 11 0 39 1;
#X connect 13 0 9 0;
#X connect 14 0 55 0;
#X connect 16 0 34 0;
#X connect 16 1 24 0;
#X connect 20 0 40 0;
#X connect 21 0 40 1;
#X connect 22 0 2 0;
#X connect 23 0 20 0;
#X connect 28 1 47 0;
#X connect 32 0 16 0;
#X connect 32 1 33 0;
#X connect 33 0 25 0;
#X connect 33 1 37 0;
#X connect 34 0 17 0;
#X connect 35 0 32 0;
#X connect 35 1 36 0;
#X connect 35 2 5 0;
#X connect 36 0 48 0;
#X connect 36 1 51 0;
#X connect 37 0 38 0;
#X connect 38 0 7 0;
#X connect 39 0 54 0;
#X connect 40 0 54 0;
#X connect 41 0 31 0;
#X connect 41 1 42 0;
#X connect 42 0 30 0;
#X connect 42 1 29 0;
#X connect 43 1 15 0;
#X connect 44 0 27 0;
#X connect 44 1 43 0;
#X connect 45 0 19 0;
#X connect 45 1 18 0;
#X connect 46 0 26 0;
#X connect 46 1 45 0;
#X connect 47 0 4 0;
#X connect 47 1 12 0;
#X connect 48 0 46 0;
#X connect 50 0 49 0;
#X connect 51 0 50 0;
#X connect 52 0 44 0;
#X connect 53 0 41 0;
#X connect 54 0 56 0;
#X connect 55 0 53 0;
#X connect 55 1 52 0;
#X connect 56 0 1 0;
