#N canvas 0 30 894 411 10;
#X obj 52 17 inlet;
#X obj 78 506 outlet;
#X msg 40 376 bang;
#X obj 332 500 outlet;
#X obj 143 38 s \$0-delegate;
#X obj 333 475 r \$0-delegate;
#X obj 230 174 s \$0-delegate;
#X obj 95 381 r \$0-set;
#X obj 543 337 r \$2-\$1_rcv;
#X obj 682 488 s \$0-set;
#X obj 47 175 t b b;
#X obj 34 248 s \$0-delegate;
#X obj 425 206 s \$0-set;
#X obj 398 281 s \$2-\$1;
#X msg 199 375 bang;
#X obj 254 380 r \$0-set;
#X obj 40 353 r \$0-outputGet;
#X obj 199 352 r \$0-outputSet;
#X obj 76 200 s \$0-outputGet;
#X obj 112 133 s \$0-outputGet;
#X obj 359 312 s \$0-outputSet;
#X obj 616 542 s \$0-outputSet;
#X obj 555 493 s \$0-set;
#X obj 528 516 s \$2-\$1;
#X obj 489 547 s \$0-outputSet;
#X obj 53 64 route bang;
#X obj 118 100 route \$1;
#X msg 34 225 get;
#X obj 53 40 route get set;
#X obj 363 80 route \$1;
#X obj 230 127 list prepend get;
#X obj 230 151 list trim;
#X obj 363 103 list;
#X obj 364 157 t b l;
#X obj 398 183 t l l;
#X text 605 28 \$1: property name \; \$2: "\$0" \;;
#X obj 219 399 list;
#X obj 60 400 list;
#X obj 560 125 s \$0-delegate;
#X obj 506 95 list trim;
#X obj 506 71 list prepend set;
#X obj 543 360 route priv.set priv.set_noupdate;
#X obj 489 432 t b l;
#X obj 616 427 t b l;
#X obj 655 464 t l l;
#X obj 528 469 t l l;
#X obj 521 394 list;
#X obj 633 387 list;
#X obj 107 444 list prepend \$1;
#X obj 107 467 list trim;
#X connect 0 0 28 0;
#X connect 2 0 37 0;
#X connect 5 0 3 0;
#X connect 7 0 37 1;
#X connect 8 0 41 0;
#X connect 10 0 27 0;
#X connect 10 1 18 0;
#X connect 14 0 36 0;
#X connect 15 0 36 1;
#X connect 16 0 2 0;
#X connect 17 0 14 0;
#X connect 25 0 10 0;
#X connect 25 1 26 0;
#X connect 26 0 19 0;
#X connect 26 1 30 0;
#X connect 27 0 11 0;
#X connect 28 0 25 0;
#X connect 28 1 29 0;
#X connect 28 2 4 0;
#X connect 29 0 32 0;
#X connect 29 1 40 0;
#X connect 30 0 31 0;
#X connect 31 0 6 0;
#X connect 32 0 33 0;
#X connect 33 0 20 0;
#X connect 33 1 34 0;
#X connect 34 0 13 0;
#X connect 34 1 12 0;
#X connect 36 0 48 0;
#X connect 37 0 48 0;
#X connect 39 0 38 0;
#X connect 40 0 39 0;
#X connect 41 0 46 0;
#X connect 41 1 47 0;
#X connect 42 0 24 0;
#X connect 42 1 45 0;
#X connect 43 0 21 0;
#X connect 43 1 44 0;
#X connect 44 1 9 0;
#X connect 45 0 23 0;
#X connect 45 1 22 0;
#X connect 46 0 42 0;
#X connect 47 0 43 0;
#X connect 48 0 49 0;
#X connect 49 0 1 0;
