#N canvas 0 30 942 854 10;
#X obj 192 207 sgIOText;
#X text 83 92 read/write LISTS from/to a file;
#X obj 192 230 print fromFile;
#X msg 100 129 read /tmp/testtest.bla;
#X msg 124 153 write /tmp/testtest.bla;
#X msg 352 189 clear \, add 1;
#X msg 355 164 list 273 f 370 \, zwei 70;
#X msg 354 219 clear;
#X msg 362 253 273 f 370 \, zwei 70 \, 3;
#X msg 359 124 list bla \, list;
#X connect 0 0 2 0;
#X connect 3 0 0 0;
#X connect 4 0 0 0;
#X connect 5 0 0 1;
#X connect 6 0 0 1;
#X connect 7 0 0 0;
#X connect 8 0 0 1;
#X connect 9 0 0 1;
