#N canvas 0 30 894 411 10;
#X obj 30 49 inlet;
#X obj 43 379 outlet;
#X text 26 24 sgPack to add meta information to;
#X obj 59 138 t b a;
#X obj 52 173 until;
#X obj 52 194 t b b;
#X obj 72 274 sgPack;
#X obj 39 314 sgData;
#X msg 154 285 clear;
#X obj 193 151 r \$0-init;
#X obj 105 127 s \$0-init;
#X obj 155 264 r \$0-init;
#X obj 57 104 t a b;
#X obj 52 232 sgListPop;
#X obj 135 220 sgListPop;
#X obj 27 260 t b b;
#X obj 505 59 inlet;
#X obj 193 176 list store \$2 \$3 \$4 \$5 \$6 \$7;
#X obj 39 349 sgPack UNNAMED;
#X obj 431 245 loadbang;
#X obj 431 268 symbol \$1;
#X obj 464 320 sgIsEqualSym;
#X obj 431 291 t s s;
#X obj 434 344 sgGate;
#X connect 0 0 12 0;
#X connect 3 0 4 0;
#X connect 3 1 13 1;
#X connect 4 0 5 0;
#X connect 5 0 13 0;
#X connect 5 1 14 0;
#X connect 6 0 7 1;
#X connect 7 0 18 0;
#X connect 8 0 7 1;
#X connect 9 0 17 0;
#X connect 11 0 8 0;
#X connect 12 0 3 0;
#X connect 12 1 10 0;
#X connect 13 0 15 0;
#X connect 13 1 6 0;
#X connect 14 1 6 1;
#X connect 15 0 7 0;
#X connect 15 1 4 1;
#X connect 16 0 18 1;
#X connect 17 0 14 1;
#X connect 18 0 1 0;
#X connect 19 0 20 0;
#X connect 20 0 22 0;
#X connect 21 0 23 1;
#X connect 22 0 23 0;
#X connect 22 1 21 0;
#X connect 23 1 18 1;
