#N canvas 0 30 990 854 10;
#X obj 36 29 inlet;
#X obj 113 244 outlet;
#X obj 83 130 until;
#X obj 36 50 t b a;
#X obj 292 238 outlet;
#X obj 88 157 sgEventPop;
#X obj 247 139 bang;
#X text 299 263 event type;
#X text 112 268 params \, serialized;
#X obj 73 206 t b;
#X connect 0 0 3 0;
#X connect 2 0 5 0;
#X connect 3 0 2 0;
#X connect 3 1 5 1;
#X connect 5 0 9 0;
#X connect 5 1 1 0;
#X connect 5 2 4 0;
#X connect 6 0 2 1;
#X connect 9 0 6 0;
