#N canvas 0 30 846 411 10;
#X obj 86 75 inlet;
#X obj 105 136 sgUnEvent;
#X obj 102 216 sgDataSerialize;
#X obj 29 297 symbol;
#X obj 102 242 sgPackToMessage;
#X obj 29 357 outlet;
#X obj 75 185 t b a;
#X obj 29 320 list trim;
#X obj 103 285 sgPack set;
#X obj 146 339 outlet;
#X connect 0 0 1 0;
#X connect 1 0 6 0;
#X connect 1 2 3 1;
#X connect 2 0 4 0;
#X connect 3 0 7 0;
#X connect 4 0 8 0;
#X connect 6 0 3 0;
#X connect 6 1 2 0;
#X connect 7 0 5 0;
#X connect 8 0 9 0;
