#N canvas 0 30 942 854 10;
#X obj 386 40 inlet;
#X obj 338 634 outlet;
#X obj 324 439 textfile;
#X obj 40 43 inlet;
#X obj 44 268 symbol;
#X msg 76 358 read \$1 \, rewind;
#X obj 117 586 until;
#X obj 22 333 t b s;
#X text 380 15 stream of lists to write to the file;
#X text 341 664 outputs what has bean read;
#X text 406 364 empty symbols are saved using a placeholder;
#X text 405 351 note:;
#X obj 338 605 sgList;
#X msg 390 572 clear;
#X obj 73 429 print textfile.params;
#X obj 392 463 s \$0-done;
#X obj 164 585 r \$0-done;
#X obj 386 155 list prepend add;
#X obj 386 178 list trim;
#X obj 335 506 t b a b;
#X obj 165 282 symbol;
#X obj 51 172 route read write file;
#X obj 152 201 symbol;
#X obj 152 224 s \$0-file;
#X obj 197 250 r \$0-file;
#X obj 77 245 r \$0-file;
#X obj 603 201 sgSymbolBang \$1;
#X obj 603 224 s \$0-file;
#X msg 170 313 write \$1;
#X connect 0 0 17 0;
#X connect 2 0 19 0;
#X connect 2 1 15 0;
#X connect 3 0 21 0;
#X connect 4 0 7 0;
#X connect 5 0 2 0;
#X connect 6 0 2 0;
#X connect 7 0 6 0;
#X connect 7 1 5 0;
#X connect 12 0 1 0;
#X connect 13 0 12 1;
#X connect 16 0 6 1;
#X connect 17 0 18 0;
#X connect 18 0 2 0;
#X connect 19 0 12 0;
#X connect 19 1 12 1;
#X connect 19 2 13 0;
#X connect 20 0 28 0;
#X connect 21 0 4 0;
#X connect 21 1 20 0;
#X connect 21 2 22 0;
#X connect 21 3 2 0;
#X connect 22 0 23 0;
#X connect 24 0 20 1;
#X connect 25 0 4 1;
#X connect 26 0 27 0;
#X connect 28 0 2 0;
