#N canvas 0 30 990 411 10;
#X obj 100 117 list split 1;
#X obj 100 90 list append;
#X obj 180 26 inlet;
#X obj 30 28 inlet;
#X msg 30 49 bang;
#X obj 352 235 outlet;
#X obj 90 225 outlet;
#X text 14 240 bang if all elements have been unpacked;
#X text 342 254 current list element;
#X obj 100 139 t b a;
#X connect 0 0 9 0;
#X connect 0 1 1 1;
#X connect 0 2 6 0;
#X connect 1 0 0 0;
#X connect 2 0 1 1;
#X connect 3 0 4 0;
#X connect 4 0 1 0;
#X connect 9 1 5 0;
