#N canvas 0 30 990 854 10;
#X obj 32 25 inlet;
#X obj 165 21 inlet;
#X obj 24 133 list split;
#X obj 24 211 list append;
#X obj 31 267 outlet;
#X obj 52 159 list split 1;
#X obj 151 77 sgFloatBang \$1;
#X connect 0 0 2 0;
#X connect 1 0 6 0;
#X connect 2 0 3 0;
#X connect 2 1 5 0;
#X connect 3 0 4 0;
#X connect 5 1 3 1;
#X connect 6 0 2 1;
