#N canvas 0 30 798 854 10;
#X obj 213 133 bng 15 250 50 0 empty empty empty 17 7 0 10 -262144
-1 -1;
#X obj 306 388 print;
#X msg 280 130 clear;
#X msg 264 102 prepend x y z;
#X msg 586 97 serialize;
#X msg 550 51 pop;
#X msg 237 40 list a b \, list c \, 3;
#X msg 592 51 popRev;
#X msg 658 97 serializeRev;
#X msg 660 165 get \$1;
#X floatatom 660 143 5 0 0 0 - - -;
#X msg 249 73 append 4 5 6;
#X msg 620 334 list bla bla;
#X text 529 28 output operations;
#X text 554 305 shortcut for "append ...";
#X obj 360 519 print pop;
#X msg 305 172 setAdd 1 2 3 2 1;
#X msg 319 207 equal a b c 3;
#X obj 306 365 sdList bang pop popRev serialize serializeRev get equal
;
#X obj 633 392 print equal;
#X obj 469 470 print serialize;
#X obj 578 419 print get;
#X obj 524 442 print serializeRev;
#X obj 415 495 print popRev;
#X msg 308 671 list a b c;
#X msg 178 586 list a b c;
#X obj 255 731 print;
#X obj 255 708 sdListEqual;
#X msg 404 671 list 1 2 3;
#X msg 216 612 list 1 2 3;
#X connect 0 0 18 0;
#X connect 2 0 18 0;
#X connect 3 0 18 0;
#X connect 4 0 18 0;
#X connect 5 0 18 0;
#X connect 6 0 18 0;
#X connect 7 0 18 0;
#X connect 8 0 18 0;
#X connect 9 0 18 0;
#X connect 10 0 9 0;
#X connect 11 0 18 0;
#X connect 12 0 18 1;
#X connect 16 0 18 0;
#X connect 17 0 18 0;
#X connect 18 0 1 0;
#X connect 18 1 15 0;
#X connect 18 2 23 0;
#X connect 18 3 20 0;
#X connect 18 4 22 0;
#X connect 18 5 21 0;
#X connect 18 6 19 0;
#X connect 24 0 27 1;
#X connect 25 0 27 0;
#X connect 27 0 26 0;
#X connect 28 0 27 1;
#X connect 29 0 27 0;
