#N canvas 800 30 798 189 10;
#X obj 593 24 r \$0-fromProperties;
#X obj 493 123 print toProperties;
#X obj 452 181 s \$0-fromProperties;
#X obj 248 510 r hurz;
#X obj 248 533 print hurz;
#X obj 95 420 s \$0-obj;
#X msg 104 281 list out 1 clear;
#X msg 76 224 list out 2 add hurz;
#X msg 250 344 list get 3 out 1 dest1;
#X obj 452 75 sdObjState \$0-obj GLOBAL;
#X obj 452 153 sgProperty numProp \$0;
#X obj 452 98 t a a;
#X msg 257 277 list get 1 numProp;
#X obj 405 508 r dest1;
#X obj 405 531 print dest1;
#X obj 593 47 t a a;
#X obj 620 73 print fromProperties;
#X msg 258 305 list get 4 numProp out 1 dest1;
#X floatatom 262 371 5 0 0 0 - - -;
#N canvas 0 30 798 411 test 0;
#X obj 80 13 inlet;
#X obj 685 437 sgTest;
#X obj 267 180 bng 15 250 50 0 empty empty empty 17 7 0 10 -262144
-1 -1;
#X obj 63 337 s \$0-out1;
#X obj 696 363 r \$0-out1;
#X obj 707 387 r \$0-out2;
#X obj 180 336 s \$0-out2;
#X obj 685 339 r \$0-test;
#N canvas 0 30 798 411 test-get 0;
#X obj 217 472 s \$0-test;
#X obj 202 537 s \$0-test;
#X obj 180 603 s \$0-test;
#X obj 147 25 inlet;
#X obj 170 404 t a a a;
#X obj 135 108 f \$0;
#X obj 309 106 f \$0;
#X obj 147 77 t b b;
#X obj 135 344 pack s s;
#X obj 180 320 sgSymbolBang sdProp;
#X obj 308 344 pack s s;
#X obj 351 321 sgSymbolBang sgProp;
#X obj 309 131 t a a;
#X obj 134 139 t a a;
#X msg 217 436 list dest ( \$1 ) send ( list get ( \$2 ) ) expect1
( info ( \$2 ( 0 ) ) );
#X msg 202 499 list dest ( \$1 ) send ( list get ( notDefined ) ) expect2
( get ( notDefined ) );
#X msg 180 565 list dest ( \$1 ) send ( list get ( ) ) expect1 ( info
( \$2 ( 0 ) ) ) expect2 ( get ( ) );
#X obj 309 250 makefilename %d-sgProp-in;
#X obj 135 252 makefilename %d-sdProp-in;
#X msg 339 155 \; \$1-sgProp_rcv set_noupdate 0;
#X msg 163 162 \; \$1-sdProp_rcv set_noupdate 0;
#X connect 3 0 7 0;
#X connect 4 0 16 0;
#X connect 4 1 15 0;
#X connect 4 2 14 0;
#X connect 5 0 13 0;
#X connect 6 0 12 0;
#X connect 7 0 5 0;
#X connect 7 1 6 0;
#X connect 8 0 4 0;
#X connect 9 0 8 1;
#X connect 10 0 4 0;
#X connect 11 0 10 1;
#X connect 12 0 17 0;
#X connect 12 1 19 0;
#X connect 13 0 18 0;
#X connect 13 1 20 0;
#X connect 14 0 0 0;
#X connect 15 0 1 0;
#X connect 16 0 2 0;
#X connect 17 0 10 0;
#X connect 18 0 8 0;
#X restore 267 207 pd test-get;
#X obj 324 335 s \$0-out1;
#X obj 441 335 s \$0-out2;
#N canvas 0 30 798 411 test-set 0;
#X obj 180 540 s \$0-test;
#X obj 157 85 inlet;
#X obj 135 168 f \$0;
#X obj 349 169 f \$0;
#X obj 147 137 t b b;
#X obj 136 360 pack s s;
#X obj 181 336 sgSymbolBang sdProp;
#X obj 362 347 pack s s;
#X obj 349 192 t a a;
#X obj 153 458 t a a;
#X obj 138 197 t a a;
#X obj 405 324 sgSymbolBang sgProp;
#X msg 180 504 list dest ( \$1 ) send ( list set ( \$2 50 ) ) expect1
( update ( \$2 ( 50 ) ) ) expect3 ( 50 );
#X obj 362 261 makefilename %d-sgProp-in;
#X obj 136 268 makefilename %d-sdProp-in;
#X msg 168 220 \; \$1-sdProp_rcv set_noupdate 0;
#X msg 379 215 \; \$1-sgProp_rcv set_noupdate 0;
#X connect 1 0 4 0;
#X connect 2 0 10 0;
#X connect 3 0 8 0;
#X connect 4 0 2 0;
#X connect 4 1 3 0;
#X connect 5 0 9 0;
#X connect 6 0 5 1;
#X connect 7 0 9 0;
#X connect 8 0 13 0;
#X connect 8 1 16 0;
#X connect 9 1 12 0;
#X connect 10 0 14 0;
#X connect 10 1 15 0;
#X connect 11 0 7 1;
#X connect 12 0 0 0;
#X connect 13 0 7 0;
#X connect 14 0 5 0;
#X restore 173 208 pd test-set;
#X obj 173 178 bng 15 250 50 0 empty empty empty 17 7 0 10 -262144
-1 -1;
#X obj 324 389 s \$0-out3;
#X obj 63 393 s \$0-out3;
#X obj 33 179 bng 15 250 50 0 empty empty empty 17 7 0 10 -262144 -1
-1;
#X obj 718 412 r \$0-out3;
#N canvas 0 30 798 411 test-set-intern 0;
#X obj 372 621 s \$0-test;
#X obj 319 41 inlet;
#X obj 310 169 f \$0;
#X obj 521 170 f \$0;
#X obj 319 138 t b b;
#X obj 341 452 t a a;
#X obj 528 247 t a a;
#X obj 563 329 makefilename %d-sgProp_rcv;
#X obj 511 409 pack s s s;
#X obj 347 686 s \$0-test;
#X obj 541 380 sgSymbolBang sgProp;
#X msg 347 650 list dest ( \$1 ) send ( list get ( \$2 ) ) expect1
( info ( \$2 ( 50 ) ) );
#X obj 313 245 t a a;
#X obj 296 407 pack s s s;
#X obj 348 327 makefilename %d-sdProp_rcv;
#X obj 326 378 sgSymbolBang sdProp;
#X obj 316 482 t a a;
#X obj 280 513 t a a;
#X obj 157 542 t a a;
#X obj 100 753 s \$0-test;
#X obj 75 818 s \$0-test;
#X msg 75 782 list dest ( \$1 ) send ( list get ( \$2 ) ) expect1 (
info ( \$2 ( 50 ) ) );
#X obj 95 639 t a a;
#X obj 526 298 makefilename %d-sgProp-in;
#X obj 311 296 makefilename %d-sdProp-in;
#X msg 188 567 \; \$3 set_noupdate 0;
#X msg 381 478 \; \$3 set_noupdate 0;
#X msg 372 583 list dest ( \$3 ) send ( set_noupdate 50 ) expect1 (
update ( \$2 ( 50 ) ) );
#X msg 100 715 list dest ( \$3 ) send ( set 50 ) expect1 ( update (
\$2 ( 50 ) ) ) expect3 ( 50 );
#X connect 1 0 4 0;
#X connect 2 0 12 0;
#X connect 3 0 6 0;
#X connect 4 0 2 0;
#X connect 4 1 3 0;
#X connect 5 0 16 0;
#X connect 5 1 26 0;
#X connect 6 0 23 0;
#X connect 6 1 7 0;
#X connect 7 0 8 2;
#X connect 8 0 5 0;
#X connect 10 0 8 1;
#X connect 11 0 9 0;
#X connect 12 0 24 0;
#X connect 12 1 14 0;
#X connect 13 0 5 0;
#X connect 14 0 13 2;
#X connect 15 0 13 1;
#X connect 16 0 17 0;
#X connect 16 1 27 0;
#X connect 17 0 18 0;
#X connect 17 1 11 0;
#X connect 18 0 22 0;
#X connect 18 1 25 0;
#X connect 21 0 20 0;
#X connect 22 0 21 0;
#X connect 22 1 28 0;
#X connect 23 0 8 0;
#X connect 24 0 13 0;
#X connect 27 0 0 0;
#X connect 28 0 19 0;
#X restore 33 209 pd test-set-intern;
#X obj 324 366 r \$0-sgProp;
#X obj 63 370 r \$0-sdProp;
#X obj 176 136 t b b;
#X obj 102 169 t b b;
#X obj 61 527 s \$0-out1;
#X obj 214 526 s \$0-out2;
#X obj 322 525 s \$0-out1;
#X obj 471 527 s \$0-out2;
#X obj 322 579 s \$0-out3;
#X obj 61 583 s \$0-out3;
#X obj 322 556 r \$0-sgPropSym;
#X obj 61 560 r \$0-sdPropSym;
#X obj 626 175 bng 15 250 50 0 empty empty empty 17 7 0 10 -262144
-1 -1;
#N canvas 0 30 798 411 test-get 0;
#X obj 217 472 s \$0-test;
#X obj 202 537 s \$0-test;
#X obj 180 603 s \$0-test;
#X obj 147 25 inlet;
#X obj 170 404 t a a a;
#X obj 135 108 f \$0;
#X obj 359 106 f \$0;
#X obj 147 77 t b b;
#X obj 135 344 pack s s;
#X obj 358 344 pack s s;
#X obj 359 131 t a a;
#X obj 134 139 t a a;
#X msg 202 499 list dest ( \$1 ) send ( list get ( notDefined ) ) expect2
( get ( notDefined ) );
#X obj 359 251 makefilename %d-sgPropSym-in;
#X obj 134 252 makefilename %d-sdPropSym-in;
#X obj 401 321 sgSymbolBang sgPropSym;
#X obj 180 320 sgSymbolBang sdPropSym;
#X msg 217 436 list dest ( \$1 ) send ( list get ( \$2 ) ) expect1
( info ( \$2 ( null ) ) );
#X msg 180 565 list dest ( \$1 ) send ( list get ( ) ) expect1 ( info
( \$2 ( null ) ) ) expect2 ( get ( ) );
#X msg 390 154 \; \$1-sgPropSym_rcv set_noupdate null;
#X msg 164 162 \; \$1-sdPropSym_rcv set_noupdate null;
#X connect 3 0 7 0;
#X connect 4 0 18 0;
#X connect 4 1 12 0;
#X connect 4 2 17 0;
#X connect 5 0 11 0;
#X connect 6 0 10 0;
#X connect 7 0 5 0;
#X connect 7 1 6 0;
#X connect 8 0 4 0;
#X connect 9 0 4 0;
#X connect 10 0 13 0;
#X connect 10 1 19 0;
#X connect 11 0 14 0;
#X connect 11 1 20 0;
#X connect 12 0 1 0;
#X connect 13 0 9 0;
#X connect 14 0 8 0;
#X connect 15 0 9 1;
#X connect 16 0 8 1;
#X connect 17 0 0 0;
#X connect 18 0 2 0;
#X restore 626 202 pd test-get;
#N canvas 0 30 798 411 test-set 0;
#X obj 180 540 s \$0-test;
#X obj 157 85 inlet;
#X obj 135 168 f \$0;
#X obj 349 169 f \$0;
#X obj 147 137 t b b;
#X obj 136 360 pack s s;
#X obj 362 347 pack s s;
#X obj 349 192 t a a;
#X obj 153 458 t a a;
#X obj 138 197 t a a;
#X obj 362 262 makefilename %d-sgPropSym-in;
#X obj 405 324 sgSymbolBang sgPropSym;
#X msg 379 215 \; \$1-sgPropSym_rcv set null;
#X msg 180 504 list dest ( \$1 ) send ( list set ( \$2 foo ) ) expect1
( update ( \$2 ( foo ) ) ) expect3 ( foo );
#X obj 136 268 makefilename %d-sdPropSym-in;
#X obj 181 336 sgSymbolBang sdPropSym;
#X msg 167 220 \; \$1-sdPropSym_rcv set null;
#X connect 1 0 4 0;
#X connect 2 0 9 0;
#X connect 3 0 7 0;
#X connect 4 0 2 0;
#X connect 4 1 3 0;
#X connect 5 0 8 0;
#X connect 6 0 8 0;
#X connect 7 0 10 0;
#X connect 7 1 12 0;
#X connect 8 1 13 0;
#X connect 9 0 14 0;
#X connect 9 1 16 0;
#X connect 10 0 6 0;
#X connect 11 0 6 1;
#X connect 13 0 0 0;
#X connect 14 0 5 0;
#X connect 15 0 5 1;
#X restore 522 203 pd test-set;
#X obj 522 173 bng 15 250 50 0 empty empty empty 17 7 0 10 -262144
-1 -1;
#X obj 373 175 bng 15 250 50 0 empty empty empty 17 7 0 10 -262144
-1 -1;
#N canvas 0 30 798 411 test-set-intern 0;
#X obj 377 566 s \$0-test;
#X obj 319 41 inlet;
#X obj 310 169 f \$0;
#X obj 521 170 f \$0;
#X obj 319 138 t b b;
#X obj 341 452 t a a;
#X obj 528 247 t a a;
#X obj 511 409 pack s s s;
#X obj 352 631 s \$0-test;
#X obj 313 245 t a a;
#X obj 296 407 pack s s s;
#X obj 316 482 t a a;
#X obj 280 513 t a a;
#X obj 155 571 t a a;
#X obj 134 723 s \$0-test;
#X obj 75 818 s \$0-test;
#X obj 95 639 t a a;
#X obj 526 298 makefilename %d-sgPropSym-in;
#X obj 563 329 makefilename %d-sgPropSym_rcv;
#X obj 541 380 sgSymbolBang sgPropSym;
#X obj 311 296 makefilename %d-sdPropSym-in;
#X obj 348 327 makefilename %d-sdPropSym_rcv;
#X obj 326 378 sgSymbolBang sdPropSym;
#X msg 352 595 list dest ( \$1 ) send ( list get ( \$2 ) ) expect1
( info ( \$2 ( foo ) ) );
#X msg 75 782 list dest ( \$1 ) send ( list get ( \$2 ) ) expect1 (
info ( \$2 ( foo ) ) );
#X msg 381 478 \; \$3 set_noupdate null;
#X msg 186 595 \; \$3 set_noupdate null;
#X msg 377 528 list dest ( \$3 ) send ( set_noupdate foo ) expect1
( update ( \$2 ( foo ) ) );
#X msg 134 685 list dest ( \$3 ) send ( set foo ) expect1 ( update
( \$2 ( foo ) ) ) expect3 ( foo );
#X connect 1 0 4 0;
#X connect 2 0 9 0;
#X connect 3 0 6 0;
#X connect 4 0 2 0;
#X connect 4 1 3 0;
#X connect 5 0 11 0;
#X connect 5 1 25 0;
#X connect 6 0 17 0;
#X connect 6 1 18 0;
#X connect 7 0 5 0;
#X connect 9 0 20 0;
#X connect 9 1 21 0;
#X connect 10 0 5 0;
#X connect 11 0 12 0;
#X connect 11 1 27 0;
#X connect 12 0 13 0;
#X connect 12 1 23 0;
#X connect 13 0 16 0;
#X connect 13 1 26 0;
#X connect 16 0 24 0;
#X connect 16 1 28 0;
#X connect 17 0 7 0;
#X connect 18 0 7 2;
#X connect 19 0 7 1;
#X connect 20 0 10 0;
#X connect 21 0 10 2;
#X connect 22 0 10 1;
#X connect 23 0 8 0;
#X connect 24 0 15 0;
#X connect 27 0 0 0;
#X connect 28 0 14 0;
#X restore 373 205 pd test-set-intern;
#X obj 504 134 t b b;
#X obj 449 165 t b b;
#X obj 63 288 r \$0-sdProp-in;
#X obj 324 287 r \$0-sgProp-in;
#X obj 322 476 r \$0-sgPropSym-in;
#X obj 61 479 r \$0-sdPropSym-in;
#X obj 322 500 sgPropertySym sgPropSym \$0;
#X obj 61 503 sdPropertySym sdPropSym \$0;
#X obj 351 84 t b b;
#X obj 63 313 sdProperty sdProp \$0;
#X obj 324 311 sgProperty sgProp \$0;
#X connect 0 0 44 0;
#X connect 2 0 8 0;
#X connect 4 0 1 1;
#X connect 5 0 1 2;
#X connect 7 0 1 0;
#X connect 12 0 11 0;
#X connect 15 0 17 0;
#X connect 16 0 1 3;
#X connect 18 0 13 0;
#X connect 19 0 14 0;
#X connect 20 0 21 0;
#X connect 20 1 8 0;
#X connect 21 0 17 0;
#X connect 21 1 11 0;
#X connect 28 0 26 0;
#X connect 29 0 27 0;
#X connect 30 0 31 0;
#X connect 33 0 32 0;
#X connect 34 0 35 0;
#X connect 36 0 37 0;
#X connect 36 1 31 0;
#X connect 37 0 35 0;
#X connect 37 1 32 0;
#X connect 38 0 45 0;
#X connect 39 0 46 0;
#X connect 40 0 42 0;
#X connect 41 0 43 0;
#X connect 42 0 24 0;
#X connect 42 1 25 0;
#X connect 43 0 22 0;
#X connect 43 1 23 0;
#X connect 44 0 20 0;
#X connect 44 1 36 0;
#X connect 45 0 3 0;
#X connect 45 1 6 0;
#X connect 46 0 9 0;
#X connect 46 1 10 0;
#X restore 54 66 pd test property;
#X obj 54 46 bng 15 250 50 0 empty empty empty 17 7 0 10 -262144 -1
-1;
#X msg 259 400 list set 3 numProp 1 \$1;
#X msg 225 239 list out 2 del hurz;
#X connect 0 0 15 0;
#X connect 3 0 4 0;
#X connect 6 0 5 0;
#X connect 7 0 5 0;
#X connect 8 0 5 0;
#X connect 9 0 11 0;
#X connect 10 0 2 0;
#X connect 11 0 10 0;
#X connect 12 0 5 0;
#X connect 13 0 14 0;
#X connect 15 0 9 1;
#X connect 17 0 5 0;
#X connect 18 0 21 0;
#X connect 20 0 19 0;
#X connect 21 0 5 0;
#X connect 22 0 5 0;
