#N canvas 0 30 798 854 10;
#X obj 48 558 r hurz;
#X obj 48 581 print hurz;
#X msg 60 387 list out 1 clear;
#X msg 32 330 list out 2 add hurz;
#X msg 208 385 list get 3 out 1 dest1;
#X msg 215 318 list get 1 numProp;
#X obj 205 556 r dest1;
#X obj 205 579 print dest1;
#X msg 216 346 list get 4 numProp out 1 dest1;
#X floatatom 220 412 5 0 0 0 - - -;
#N canvas 0 30 798 411 test 0;
#X obj 80 13 inlet;
#X obj 685 437 sgTest;
#X obj 267 180 bng 15 250 50 0 empty empty empty 17 7 0 10 -262144
-1 -1;
#X obj 63 337 s \$0-out1;
#X obj 696 363 r \$0-out1;
#X obj 707 387 r \$0-out2;
#X obj 180 336 s \$0-out2;
#X obj 685 339 r \$0-test;
#N canvas 0 30 798 411 test-get 0;
#X obj 217 472 s \$0-test;
#X obj 202 537 s \$0-test;
#X obj 180 603 s \$0-test;
#X obj 147 25 inlet;
#X obj 170 404 t a a a;
#X obj 135 108 f \$0;
#X obj 309 106 f \$0;
#X obj 147 77 t b b;
#X obj 135 344 pack s s;
#X obj 180 320 sgSymbolBang sdProp;
#X obj 308 344 pack s s;
#X obj 351 321 sgSymbolBang sgProp;
#X obj 309 131 t a a;
#X obj 134 139 t a a;
#X msg 217 436 list dest ( \$1 ) send ( list get ( \$2 ) ) expect1
( info ( \$2 ( 0 ) ) );
#X msg 202 499 list dest ( \$1 ) send ( list get ( notDefined ) ) expect2
( get ( notDefined ) );
#X msg 180 565 list dest ( \$1 ) send ( list get ( ) ) expect1 ( info
( \$2 ( 0 ) ) ) expect2 ( get ( ) );
#X obj 309 250 makefilename %d-sgProp-in;
#X obj 135 252 makefilename %d-sdProp-in;
#X msg 339 155 \; \$1-sgProp_rcv set_noupdate 0;
#X msg 163 162 \; \$1-sdProp_rcv set_noupdate 0;
#X connect 3 0 7 0;
#X connect 4 0 16 0;
#X connect 4 1 15 0;
#X connect 4 2 14 0;
#X connect 5 0 13 0;
#X connect 6 0 12 0;
#X connect 7 0 5 0;
#X connect 7 1 6 0;
#X connect 8 0 4 0;
#X connect 9 0 8 1;
#X connect 10 0 4 0;
#X connect 11 0 10 1;
#X connect 12 0 17 0;
#X connect 12 1 19 0;
#X connect 13 0 18 0;
#X connect 13 1 20 0;
#X connect 14 0 0 0;
#X connect 15 0 1 0;
#X connect 16 0 2 0;
#X connect 17 0 10 0;
#X connect 18 0 8 0;
#X restore 267 207 pd test-get;
#X obj 324 335 s \$0-out1;
#X obj 441 335 s \$0-out2;
#N canvas 0 30 798 411 test-set 0;
#X obj 180 540 s \$0-test;
#X obj 157 85 inlet;
#X obj 135 168 f \$0;
#X obj 349 169 f \$0;
#X obj 147 137 t b b;
#X obj 136 360 pack s s;
#X obj 181 336 sgSymbolBang sdProp;
#X obj 362 347 pack s s;
#X obj 349 192 t a a;
#X obj 153 458 t a a;
#X obj 138 197 t a a;
#X obj 405 324 sgSymbolBang sgProp;
#X msg 180 504 list dest ( \$1 ) send ( list set ( \$2 50 ) ) expect1
( update ( \$2 ( 50 ) ) ) expect3 ( 50 );
#X obj 362 261 makefilename %d-sgProp-in;
#X obj 136 268 makefilename %d-sdProp-in;
#X msg 168 220 \; \$1-sdProp_rcv set_noupdate 0;
#X msg 379 215 \; \$1-sgProp_rcv set_noupdate 0;
#X connect 1 0 4 0;
#X connect 2 0 10 0;
#X connect 3 0 8 0;
#X connect 4 0 2 0;
#X connect 4 1 3 0;
#X connect 5 0 9 0;
#X connect 6 0 5 1;
#X connect 7 0 9 0;
#X connect 8 0 13 0;
#X connect 8 1 16 0;
#X connect 9 1 12 0;
#X connect 10 0 14 0;
#X connect 10 1 15 0;
#X connect 11 0 7 1;
#X connect 12 0 0 0;
#X connect 13 0 7 0;
#X connect 14 0 5 0;
#X restore 173 208 pd test-set;
#X obj 173 178 bng 15 250 50 0 empty empty empty 17 7 0 10 -262144
-1 -1;
#X obj 324 389 s \$0-out3;
#X obj 63 393 s \$0-out3;
#X obj 33 179 bng 15 250 50 0 empty empty empty 17 7 0 10 -262144 -1
-1;
#X obj 718 412 r \$0-out3;
#N canvas 0 30 798 854 test-set-intern 0;
#X obj 372 621 s \$0-test;
#X obj 319 41 inlet;
#X obj 310 169 f \$0;
#X obj 521 170 f \$0;
#X obj 319 138 t b b;
#X obj 341 452 t a a;
#X obj 528 247 t a a;
#X obj 563 329 makefilename %d-sgProp_rcv;
#X obj 511 409 pack s s s;
#X obj 347 686 s \$0-test;
#X obj 541 380 sgSymbolBang sgProp;
#X msg 347 650 list dest ( \$1 ) send ( list get ( \$2 ) ) expect1
( info ( \$2 ( 50 ) ) );
#X obj 313 245 t a a;
#X obj 296 407 pack s s s;
#X obj 348 327 makefilename %d-sdProp_rcv;
#X obj 326 378 sgSymbolBang sdProp;
#X obj 316 482 t a a;
#X obj 280 513 t a a;
#X obj 157 542 t a a;
#X obj 100 753 s \$0-test;
#X obj 75 818 s \$0-test;
#X msg 75 782 list dest ( \$1 ) send ( list get ( \$2 ) ) expect1 (
info ( \$2 ( 50 ) ) );
#X obj 95 639 t a a;
#X obj 526 298 makefilename %d-sgProp-in;
#X obj 311 296 makefilename %d-sdProp-in;
#X msg 188 567 \; \$3 set_noupdate 0;
#X msg 381 478 \; \$3 set_noupdate 0;
#X msg 372 583 list dest ( \$3 ) send ( set_noupdate 50 ) expect1 (
update ( \$2 ( 50 ) ) );
#X msg 100 715 list dest ( \$3 ) send ( set 50 ) expect1 ( update (
\$2 ( 50 ) ) ) expect3 ( 50 );
#X connect 1 0 4 0;
#X connect 2 0 12 0;
#X connect 3 0 6 0;
#X connect 4 0 2 0;
#X connect 4 1 3 0;
#X connect 5 0 16 0;
#X connect 5 1 26 0;
#X connect 6 0 23 0;
#X connect 6 1 7 0;
#X connect 7 0 8 2;
#X connect 8 0 5 0;
#X connect 10 0 8 1;
#X connect 11 0 9 0;
#X connect 12 0 24 0;
#X connect 12 1 14 0;
#X connect 13 0 5 0;
#X connect 14 0 13 2;
#X connect 15 0 13 1;
#X connect 16 0 17 0;
#X connect 16 1 27 0;
#X connect 17 0 18 0;
#X connect 17 1 11 0;
#X connect 18 0 22 0;
#X connect 18 1 25 0;
#X connect 21 0 20 0;
#X connect 22 0 21 0;
#X connect 22 1 28 0;
#X connect 23 0 8 0;
#X connect 24 0 13 0;
#X connect 27 0 0 0;
#X connect 28 0 19 0;
#X restore 33 209 pd test-set-intern;
#X obj 324 366 r \$0-sgProp;
#X obj 63 370 r \$0-sdProp;
#X obj 176 136 t b b;
#X obj 102 169 t b b;
#X obj 61 527 s \$0-out1;
#X obj 214 526 s \$0-out2;
#X obj 322 525 s \$0-out1;
#X obj 471 527 s \$0-out2;
#X obj 322 579 s \$0-out3;
#X obj 61 583 s \$0-out3;
#X obj 322 556 r \$0-sgPropSym;
#X obj 61 560 r \$0-sdPropSym;
#X obj 626 175 bng 15 250 50 0 empty empty empty 17 7 0 10 -262144
-1 -1;
#N canvas 0 30 798 411 test-get 0;
#X obj 217 472 s \$0-test;
#X obj 202 537 s \$0-test;
#X obj 180 603 s \$0-test;
#X obj 147 25 inlet;
#X obj 170 404 t a a a;
#X obj 135 108 f \$0;
#X obj 359 106 f \$0;
#X obj 147 77 t b b;
#X obj 135 344 pack s s;
#X obj 358 344 pack s s;
#X obj 359 131 t a a;
#X obj 134 139 t a a;
#X msg 202 499 list dest ( \$1 ) send ( list get ( notDefined ) ) expect2
( get ( notDefined ) );
#X obj 359 251 makefilename %d-sgPropSym-in;
#X obj 134 252 makefilename %d-sdPropSym-in;
#X obj 401 321 sgSymbolBang sgPropSym;
#X obj 180 320 sgSymbolBang sdPropSym;
#X msg 217 436 list dest ( \$1 ) send ( list get ( \$2 ) ) expect1
( info ( \$2 ( null ) ) );
#X msg 180 565 list dest ( \$1 ) send ( list get ( ) ) expect1 ( info
( \$2 ( null ) ) ) expect2 ( get ( ) );
#X msg 390 154 \; \$1-sgPropSym_rcv set_noupdate null;
#X msg 164 162 \; \$1-sdPropSym_rcv set_noupdate null;
#X connect 3 0 7 0;
#X connect 4 0 18 0;
#X connect 4 1 12 0;
#X connect 4 2 17 0;
#X connect 5 0 11 0;
#X connect 6 0 10 0;
#X connect 7 0 5 0;
#X connect 7 1 6 0;
#X connect 8 0 4 0;
#X connect 9 0 4 0;
#X connect 10 0 13 0;
#X connect 10 1 19 0;
#X connect 11 0 14 0;
#X connect 11 1 20 0;
#X connect 12 0 1 0;
#X connect 13 0 9 0;
#X connect 14 0 8 0;
#X connect 15 0 9 1;
#X connect 16 0 8 1;
#X connect 17 0 0 0;
#X connect 18 0 2 0;
#X restore 626 202 pd test-get;
#N canvas 0 30 798 411 test-set 0;
#X obj 180 540 s \$0-test;
#X obj 157 85 inlet;
#X obj 135 168 f \$0;
#X obj 349 169 f \$0;
#X obj 147 137 t b b;
#X obj 136 360 pack s s;
#X obj 362 347 pack s s;
#X obj 349 192 t a a;
#X obj 153 458 t a a;
#X obj 138 197 t a a;
#X obj 362 262 makefilename %d-sgPropSym-in;
#X obj 405 324 sgSymbolBang sgPropSym;
#X msg 379 215 \; \$1-sgPropSym_rcv set null;
#X msg 180 504 list dest ( \$1 ) send ( list set ( \$2 foo ) ) expect1
( update ( \$2 ( foo ) ) ) expect3 ( foo );
#X obj 136 268 makefilename %d-sdPropSym-in;
#X obj 181 336 sgSymbolBang sdPropSym;
#X msg 167 220 \; \$1-sdPropSym_rcv set null;
#X connect 1 0 4 0;
#X connect 2 0 9 0;
#X connect 3 0 7 0;
#X connect 4 0 2 0;
#X connect 4 1 3 0;
#X connect 5 0 8 0;
#X connect 6 0 8 0;
#X connect 7 0 10 0;
#X connect 7 1 12 0;
#X connect 8 1 13 0;
#X connect 9 0 14 0;
#X connect 9 1 16 0;
#X connect 10 0 6 0;
#X connect 11 0 6 1;
#X connect 13 0 0 0;
#X connect 14 0 5 0;
#X connect 15 0 5 1;
#X restore 522 203 pd test-set;
#X obj 522 173 bng 15 250 50 0 empty empty empty 17 7 0 10 -262144
-1 -1;
#X obj 373 175 bng 15 250 50 0 empty empty empty 17 7 0 10 -262144
-1 -1;
#N canvas 0 30 798 411 test-set-intern 0;
#X obj 377 566 s \$0-test;
#X obj 319 41 inlet;
#X obj 310 169 f \$0;
#X obj 521 170 f \$0;
#X obj 319 138 t b b;
#X obj 341 452 t a a;
#X obj 528 247 t a a;
#X obj 511 409 pack s s s;
#X obj 352 631 s \$0-test;
#X obj 313 245 t a a;
#X obj 296 407 pack s s s;
#X obj 316 482 t a a;
#X obj 280 513 t a a;
#X obj 155 571 t a a;
#X obj 134 723 s \$0-test;
#X obj 75 818 s \$0-test;
#X obj 95 639 t a a;
#X obj 526 298 makefilename %d-sgPropSym-in;
#X obj 563 329 makefilename %d-sgPropSym_rcv;
#X obj 541 380 sgSymbolBang sgPropSym;
#X obj 311 296 makefilename %d-sdPropSym-in;
#X obj 348 327 makefilename %d-sdPropSym_rcv;
#X obj 326 378 sgSymbolBang sdPropSym;
#X msg 352 595 list dest ( \$1 ) send ( list get ( \$2 ) ) expect1
( info ( \$2 ( foo ) ) );
#X msg 75 782 list dest ( \$1 ) send ( list get ( \$2 ) ) expect1 (
info ( \$2 ( foo ) ) );
#X msg 381 478 \; \$3 set_noupdate null;
#X msg 186 595 \; \$3 set_noupdate null;
#X msg 377 528 list dest ( \$3 ) send ( set_noupdate foo ) expect1
( update ( \$2 ( foo ) ) );
#X msg 134 685 list dest ( \$3 ) send ( set foo ) expect1 ( update
( \$2 ( foo ) ) ) expect3 ( foo );
#X connect 1 0 4 0;
#X connect 2 0 9 0;
#X connect 3 0 6 0;
#X connect 4 0 2 0;
#X connect 4 1 3 0;
#X connect 5 0 11 0;
#X connect 5 1 25 0;
#X connect 6 0 17 0;
#X connect 6 1 18 0;
#X connect 7 0 5 0;
#X connect 9 0 20 0;
#X connect 9 1 21 0;
#X connect 10 0 5 0;
#X connect 11 0 12 0;
#X connect 11 1 27 0;
#X connect 12 0 13 0;
#X connect 12 1 23 0;
#X connect 13 0 16 0;
#X connect 13 1 26 0;
#X connect 16 0 24 0;
#X connect 16 1 28 0;
#X connect 17 0 7 0;
#X connect 18 0 7 2;
#X connect 19 0 7 1;
#X connect 20 0 10 0;
#X connect 21 0 10 2;
#X connect 22 0 10 1;
#X connect 23 0 8 0;
#X connect 24 0 15 0;
#X connect 27 0 0 0;
#X connect 28 0 14 0;
#X restore 373 205 pd test-set-intern;
#X obj 504 134 t b b;
#X obj 449 165 t b b;
#X obj 63 288 r \$0-sdProp-in;
#X obj 324 287 r \$0-sgProp-in;
#X obj 322 476 r \$0-sgPropSym-in;
#X obj 61 479 r \$0-sdPropSym-in;
#X obj 322 500 sgPropertySym sgPropSym \$0;
#X obj 61 503 sdPropertySym sdPropSym \$0;
#X obj 351 84 t b b;
#X obj 63 313 sdProperty sdProp \$0;
#X obj 324 311 sgProperty sgProp \$0;
#X connect 0 0 44 0;
#X connect 2 0 8 0;
#X connect 4 0 1 1;
#X connect 5 0 1 2;
#X connect 7 0 1 0;
#X connect 12 0 11 0;
#X connect 15 0 17 0;
#X connect 16 0 1 3;
#X connect 18 0 13 0;
#X connect 19 0 14 0;
#X connect 20 0 21 0;
#X connect 20 1 8 0;
#X connect 21 0 17 0;
#X connect 21 1 11 0;
#X connect 28 0 26 0;
#X connect 29 0 27 0;
#X connect 30 0 31 0;
#X connect 33 0 32 0;
#X connect 34 0 35 0;
#X connect 36 0 37 0;
#X connect 36 1 31 0;
#X connect 37 0 35 0;
#X connect 37 1 32 0;
#X connect 38 0 45 0;
#X connect 39 0 46 0;
#X connect 40 0 42 0;
#X connect 41 0 43 0;
#X connect 42 0 24 0;
#X connect 42 1 25 0;
#X connect 43 0 22 0;
#X connect 43 1 23 0;
#X connect 44 0 20 0;
#X connect 44 1 36 0;
#X connect 45 0 3 0;
#X connect 45 1 6 0;
#X connect 46 0 9 0;
#X connect 46 1 10 0;
#X restore 49 175 pd test property;
#X obj 49 155 bng 15 250 50 0 empty empty empty 17 7 0 10 -262144 -1
-1;
#X msg 217 441 list set 3 numProp 1 \$1;
#X msg 183 280 list out 2 del hurz;
#X obj 454 387 r \$0-listProp;
#X obj 454 410 print listProp;
#X msg 355 317 list get 1 listProp;
#X msg 363 473 list set 5 listProp 3 bli bla blu;
#X msg 416 352 list get 1 symProp;
#X msg 371 441 list set 3 symProp 1 bli;
#X msg 263 498 list start 3 numProp 1 20;
#N canvas 0 30 798 411 exampleObj 0;
#X obj 56 38 inlet;
#X obj 376 49 r \$0-fromProperties;
#X obj 481 284 print toProperties;
#X obj 440 342 s \$0-fromProperties;
#X obj 183 116 sdObjState \$0-obj GLOBAL;
#X obj 440 259 t a a;
#X obj 376 72 t a a;
#X obj 403 98 print fromProperties;
#X obj 593 376 s \$0-fromProperties;
#X obj 617 438 s \$0-fromProperties;
#X obj 617 413 sdPropertyList listProp \$0;
#X obj 343 95 list;
#X obj 440 314 sdProperty numProp \$0 10;
#X obj 267 200 sdEventToProperties;
#X obj 343 145 print out;
#X text 166 136 events;
#X text 225 136 msgs;
#X obj 289 226 route start stop;
#X obj 26 166 sdPackFilter info update;
#X obj 268 263 bng 15 250 50 0 empty empty empty 17 7 0 10 -262144
-1 -1;
#X obj 330 263 bng 15 250 50 0 empty empty empty 17 7 0 10 -262144
-1 -1;
#X obj 593 351 sdPropertySym symProp \$0 bla;
#X obj 104 388 r \$0-numProp;
#X floatatom 104 411 5 0 0 0 - - -;
#X text 81 285 internal api:;
#X obj 105 365 s \$0-numProp_rcv;
#X floatatom 105 319 5 0 0 0 - - -;
#X msg 105 341 priv.set \$1;
#X floatatom 206 317 5 0 0 0 - - -;
#X msg 206 339 priv.set_noupdate \$1;
#X connect 0 0 4 0;
#X connect 1 0 6 0;
#X connect 4 0 18 0;
#X connect 4 1 17 0;
#X connect 4 2 14 0;
#X connect 5 0 12 0;
#X connect 5 1 2 0;
#X connect 6 0 11 0;
#X connect 6 1 7 0;
#X connect 10 0 9 0;
#X connect 11 0 4 1;
#X connect 12 0 3 0;
#X connect 12 1 21 0;
#X connect 13 0 17 0;
#X connect 13 1 5 0;
#X connect 17 0 19 0;
#X connect 17 1 20 0;
#X connect 17 2 5 0;
#X connect 18 1 13 0;
#X connect 21 0 8 0;
#X connect 21 1 10 0;
#X connect 22 0 23 0;
#X connect 26 0 27 0;
#X connect 27 0 25 0;
#X connect 28 0 29 0;
#X connect 29 0 25 0;
#X restore 162 517 pd exampleObj;
#X text 30 129 run automated test (currently broken);
#N canvas 0 30 798 854 properties 0;
#X obj 135 175 print propOut;
#X floatatom 229 75 5 0 0 0 - - -;
#X obj 280 180 print redirect;
#X text 321 205 redirect to other properties;
#X symbolatom 192 275 10 0 0 0 - - -;
#X obj 142 382 print propOut;
#X obj 313 382 print redirect;
#X text 507 144 args: name ["\$0" init];
#X obj 558 212 r \$0-testProp;
#X obj 558 235 print testProp.intern;
#X obj 135 152 sdProperty testProp \$0 42 info;
#X msg 82 95 get testProp;
#X msg 229 99 set testProp \$1;
#X msg 407 99 get;
#X msg 412 126 get otherProp;
#X msg 410 303 get;
#X msg 412 330 get otherProp;
#X obj 138 570 print propOut;
#X obj 309 570 print redirect;
#X msg 406 491 get;
#X msg 408 518 get otherProp;
#X obj 142 357 sdPropertySym symProp \$0 bla;
#X msg 105 272 get symProp;
#X msg 192 298 set symProp \$1;
#X msg 101 460 get listProp;
#X msg 244 456 set listProp a b c;
#X msg 253 482 set listProp;
#X obj 138 545 sdPropertyList listProp \$0;
#X text 318 243 produce an error:;
#X msg 297 269 set symProp 3;
#X connect 1 0 12 0;
#X connect 4 0 23 0;
#X connect 8 0 9 0;
#X connect 10 0 0 0;
#X connect 10 1 2 0;
#X connect 11 0 10 0;
#X connect 12 0 10 0;
#X connect 13 0 10 0;
#X connect 14 0 10 0;
#X connect 15 0 21 0;
#X connect 16 0 21 0;
#X connect 19 0 27 0;
#X connect 20 0 27 0;
#X connect 21 0 5 0;
#X connect 21 1 6 0;
#X connect 22 0 21 0;
#X connect 23 0 21 0;
#X connect 24 0 27 0;
#X connect 25 0 27 0;
#X connect 26 0 27 0;
#X connect 27 0 17 0;
#X connect 27 1 18 0;
#X connect 29 0 21 0;
#X restore 48 87 pd properties;
#X text 30 245 how to define objects (inspect the object by opening
it!);
#X text 12 9 This module is just a convention how to build high level
objects in a patch.;
#X text 29 61 how do "properties" work:;
#X connect 0 0 1 0;
#X connect 2 0 21 0;
#X connect 3 0 21 0;
#X connect 4 0 21 0;
#X connect 5 0 21 0;
#X connect 6 0 7 0;
#X connect 8 0 21 0;
#X connect 9 0 12 0;
#X connect 9 0 21 0;
#X connect 11 0 10 0;
#X connect 12 0 21 0;
#X connect 13 0 21 0;
#X connect 14 0 15 0;
#X connect 14 0 21 0;
#X connect 16 0 21 0;
#X connect 17 0 21 0;
#X connect 18 0 21 0;
#X connect 19 0 21 0;
#X connect 20 0 21 0;
