#N canvas 0 30 798 854 10;
#X msg 186 70 list bla bla;
#X obj 192 107 sdPack info;
#X msg 302 83 symbol update;
#X obj 173 190 sdUnPack;
#X symbolatom 313 249 10 0 0 0 - - -;
#X floatatom 223 245 5 0 0 0 - - -;
#X obj 106 248 print content;
#X obj 192 130 t a a;
#X obj 238 158 print;
#X msg 258 372 list pack ( a b c );
#X obj 252 434 print;
#X obj 252 411 sdPackFromHuman;
#X msg 421 375 list pack ( p1 ( a ) b p2 ( c ) );
#X msg 414 430 list pack ( p1 ( a ) b p2 ( c ) ) );
#X obj 40 567 sdPack info;
#X obj 174 574 sdPack update;
#X obj 81 642 print accept;
#X obj 198 657 print reject;
#X floatatom 40 523 5 0 0 0 - - -;
#X floatatom 171 525 5 0 0 0 - - -;
#X msg 40 544 list bla \$1;
#X msg 174 552 list x \$1;
#X obj 81 619 sdPackFilter info, f 18;
#X msg 221 595 symbol info;
#X msg 224 621 symbol update;
#X obj 376 587 sdPack info;
#X obj 510 594 sdPack update;
#X obj 417 662 print accept;
#X obj 564 663 print reject;
#X floatatom 376 536 5 0 0 0 - - -;
#X floatatom 507 544 5 0 0 0 - - -;
#X msg 376 562 list bla \$1;
#X msg 510 571 list x \$1;
#X floatatom 624 544 5 0 0 0 - - -;
#X msg 627 571 list x \$1;
#X obj 417 639 sdPackFilter info update, f 25;
#X msg 54 136 list 3 0;
#X obj 627 593 sdPack other;
#X obj 508 91 sdPackToMessage;
#X msg 500 37 list bla bla;
#X obj 500 62 sdPack get;
#X obj 508 114 print;
#X obj 484 265 sdPackFromMessage;
#X msg 541 238 get bla;
#X msg 540 210 list get bla;
#X obj 484 288 print;
#X floatatom 625 236 5 0 0 0 - - -;
#X obj 646 206 bng 15 250 50 0 empty empty empty 17 7 0 10 -262144
-1 -1;
#X msg 529 175 list get a b c;
#X text 435 404 produce an error:;
#X text 370 511 accept info packs and update packs;
#X connect 0 0 1 0;
#X connect 1 0 7 0;
#X connect 2 0 1 1;
#X connect 3 0 6 0;
#X connect 3 1 5 0;
#X connect 3 2 4 0;
#X connect 7 0 3 0;
#X connect 7 1 8 0;
#X connect 9 0 11 0;
#X connect 11 0 10 0;
#X connect 12 0 11 0;
#X connect 13 0 11 0;
#X connect 14 0 22 0;
#X connect 15 0 22 0;
#X connect 18 0 20 0;
#X connect 19 0 21 0;
#X connect 20 0 14 0;
#X connect 21 0 15 0;
#X connect 22 0 16 0;
#X connect 22 1 17 0;
#X connect 23 0 22 1;
#X connect 24 0 22 1;
#X connect 25 0 35 0;
#X connect 26 0 35 0;
#X connect 29 0 31 0;
#X connect 30 0 32 0;
#X connect 31 0 25 0;
#X connect 32 0 26 0;
#X connect 33 0 34 0;
#X connect 34 0 37 0;
#X connect 35 0 27 0;
#X connect 35 1 28 0;
#X connect 36 0 3 0;
#X connect 37 0 35 0;
#X connect 38 0 41 0;
#X connect 39 0 40 0;
#X connect 40 0 38 0;
#X connect 42 0 45 0;
#X connect 43 0 42 0;
#X connect 44 0 42 0;
#X connect 46 0 42 0;
#X connect 47 0 42 0;
#X connect 48 0 42 0;
