#N canvas 0 30 894 854 10;
#X obj 403 370 s \$0-fromObj;
#X obj 469 114 r \$0-fromObj;
#X obj 403 347 list;
#X obj 473 298 sdProperty pitch \$0;
#X obj 332 141 sdObjState \$1 \$2;
#X obj 370 274 sdPropertySym dest \$0;
#X obj 311 64 inlet;
#X obj 102 66 r \$0-dest;
#X symbolatom 133 120 22 0 0 0 dest - -;
#X floatatom 133 141 5 0 0 0 pitch - -;
#X obj 547 549 pack s s;
#X obj 617 545 sdSymbolBang \$1;
#X obj 547 596 print -n;
#X text 565 523 print info for the dumb user;
#X msg 547 572 \$2: connected \$2 -> \$1;
#X msg 90 177 priv.set \$1;
#X obj 90 200 s \$0-pitch_rcv;
#X obj 234 235 sdEventToProperties;
#X obj 616 240 sdObjTrack pitch;
#X obj 684 206 t a a;
#X obj 690 303 send;
#X text 264 161 incoming events;
#X text 365 177 to properties;
#X text 489 157 outcoming events;
#X obj 616 263 sdPack set;
#X obj 726 261 sdUnPack;
#X obj 726 238 sdObjTrack dest;
#X obj 208 199 sdPackFilter init;
#X msg 614 418 \; \$1 raw get out \$2;
#X obj 622 386 pack s s;
#X obj 679 354 sdSymbolBang \$1;
#X obj 26 77 r \$0-pitch;
#X msg 26 100 set \$1;
#X connect 1 0 4 1;
#X connect 2 0 0 0;
#X connect 3 0 2 0;
#X connect 4 0 27 0;
#X connect 4 1 5 0;
#X connect 4 2 19 0;
#X connect 5 0 2 0;
#X connect 5 1 3 0;
#X connect 6 0 4 0;
#X connect 7 0 8 0;
#X connect 9 0 15 0;
#X connect 10 0 14 0;
#X connect 11 0 10 1;
#X connect 14 0 12 0;
#X connect 15 0 16 0;
#X connect 17 1 5 0;
#X connect 18 0 24 0;
#X connect 19 0 18 0;
#X connect 19 1 26 0;
#X connect 24 0 20 0;
#X connect 25 0 20 1;
#X connect 25 0 29 0;
#X connect 26 0 25 0;
#X connect 27 1 17 0;
#X connect 29 0 28 0;
#X connect 30 0 29 1;
#X connect 31 0 32 0;
#X connect 32 0 9 0;
#X coords 0 -1 1 1 180 60 1 100 100;
