#N canvas 0 30 894 854 10;
#X obj 426 514 s \$0-fromObj;
#X obj 469 114 r \$0-fromObj;
#X obj 426 491 list;
#X obj 496 442 sdProperty pitch \$0;
#X obj 332 141 sdObjState \$1 \$2;
#X obj 393 418 sdPropertySym dest \$0;
#X obj 311 64 inlet;
#X obj 102 66 r \$0-dest;
#X symbolatom 133 120 22 0 0 0 dest - -;
#X floatatom 133 141 5 0 0 0 pitch - -;
#X obj 692 351 pack s s;
#X obj 762 347 sdSymbolBang \$1;
#X obj 692 398 print -n;
#X text 710 325 print info for the dumb user;
#X obj 730 211 sdConnectTo \$1 dest;
#X msg 692 374 \$2: connected \$2 -> \$1;
#X msg 90 177 priv.set \$1;
#X obj 90 200 s \$0-pitch_rcv;
#X obj 234 342 sdPackFilter info update;
#X obj 268 376 sdEventToProperties;
#X obj 492 260 sdObjTrack pitch;
#X obj 573 188 t a a;
#X obj 612 339 send;
#X text 264 161 incoming events;
#X text 365 177 to properties;
#X text 489 157 outcoming events;
#X obj 190 244 sdObjTrack pitch;
#X obj 589 214 sdConnectFrom \$1 dest;
#X obj 190 267 s \$1;
#X obj 294 200 t a a;
#X connect 1 0 4 1;
#X connect 2 0 0 0;
#X connect 3 0 2 0;
#X connect 4 0 29 0;
#X connect 4 1 5 0;
#X connect 4 2 21 0;
#X connect 5 0 2 0;
#X connect 5 1 3 0;
#X connect 6 0 4 0;
#X connect 7 0 8 0;
#X connect 9 0 16 0;
#X connect 10 0 15 0;
#X connect 11 0 10 1;
#X connect 14 0 22 1;
#X connect 14 0 10 0;
#X connect 15 0 12 0;
#X connect 16 0 17 0;
#X connect 18 1 19 0;
#X connect 19 1 5 0;
#X connect 20 0 22 0;
#X connect 21 0 20 0;
#X connect 21 1 14 0;
#X connect 21 1 27 0;
#X connect 26 0 28 0;
#X connect 27 0 26 1;
#X connect 29 1 18 0;
#X coords 0 -1 1 1 180 60 1 100 100;
