#N canvas 0 30 798 854 10;
#X obj 148 32 bng 15 250 50 0 empty empty empty 17 7 0 10 -262144 -1
-1;
#X obj 174 220 print;
#X obj 175 197 sdAny test;
#X msg 190 39 list bla;
#X floatatom 262 40 5 0 0 0 - - -;
#X msg 341 50 set bla;
#X msg 249 87 a b c;
#X msg 322 163 list bla;
#X floatatom 368 82 5 0 0 0 - - -;
#X msg 355 129 a b c;
#X msg 169 311 bla 3;
#X msg 83 326 list hurz;
#X floatatom 102 303 5 0 0 0 - - -;
#X obj 260 357 tgl 15 0 empty empty empty 17 7 0 10 -262144 -1 -1 0
1;
#X obj 170 444 print accept;
#X obj 269 441 print reject;
#X obj 286 505 bng 15 250 50 0 empty empty empty 17 7 0 10 -262144
-1 -1;
#X obj 301 555 print value;
#X obj 388 554 print overflow;
#X msg 314 492 0;
#X obj 302 532 sdCounter 3;
#X obj 299 714 sdFirst;
#X floatatom 192 660 5 0 0 0 - - -;
#X msg 308 668 reset;
#X obj 357 682 bng 15 250 50 0 empty empty empty 17 7 0 10 -262144
-1 -1;
#X obj 197 697 bng 15 250 50 0 empty empty empty 17 7 0 10 -262144
-1 -1;
#X obj 252 737 print first;
#X obj 350 738 print rest;
#X msg 456 364 test;
#X msg 494 320 symbol bla;
#X msg 510 346 symbol hurz;
#X msg 616 318 symbol bla;
#X msg 625 342 symbol hurz;
#X floatatom 512 417 5 0 0 0 - - -;
#X obj 569 559 sdIsEq;
#X floatatom 605 517 5 0 0 0 - - -;
#X floatatom 512 520 5 0 0 0 - - -;
#X msg 660 532 symbol bla;
#X msg 473 589 symbol bla;
#X msg 670 569 list a b c;
#X floatatom 569 582 5 0 0 0 - - -;
#X msg 466 627 symbol a;
#X obj 545 742 sdFilter 3, f 16;
#X floatatom 525 697 5 0 0 0 - - -;
#X obj 545 765 print accept;
#X obj 641 766 print reject;
#X msg 634 698 symbol bla;
#X msg 572 666 symbol bla;
#X msg 591 632 symbol hurz;
#X msg 409 794 list bla 1 2;
#X obj 208 396 sdGate 0;
#X obj 495 142 sdFloatBang;
#X obj 496 179 sdSymbolBang;
#X obj 496 219 sdSymbolBang;
#X obj 489 99 print;
#X msg 489 52 bla 3 %0-bla %0-bli;
#X obj 489 76 sdReplace \$0;
#X msg 69 522 list a b;
#X obj 68 563 sdSetSelector set;
#X obj 68 586 print;
#X msg 151 522 get a b;
#X text 438 21 replaces %i by the corresponding creation argument (index
starts with 0;
#X obj 512 394 sdSymbolIsEq bla;
#X text 78 721 accepts only bangs...;
#X text 355 662 reset;
#X msg 217 637 symbol test;
#X connect 0 0 2 0;
#X connect 2 0 1 0;
#X connect 3 0 2 0;
#X connect 4 0 2 0;
#X connect 5 0 2 0;
#X connect 6 0 2 0;
#X connect 7 0 2 1;
#X connect 8 0 2 1;
#X connect 9 0 2 1;
#X connect 10 0 50 0;
#X connect 11 0 50 0;
#X connect 12 0 50 0;
#X connect 13 0 50 1;
#X connect 16 0 20 0;
#X connect 19 0 20 0;
#X connect 20 0 17 0;
#X connect 20 1 18 0;
#X connect 21 0 26 0;
#X connect 21 1 27 0;
#X connect 22 0 21 0;
#X connect 23 0 21 0;
#X connect 24 0 21 1;
#X connect 25 0 21 0;
#X connect 28 0 62 0;
#X connect 29 0 62 0;
#X connect 30 0 62 0;
#X connect 31 0 62 1;
#X connect 32 0 62 1;
#X connect 34 0 40 0;
#X connect 35 0 34 1;
#X connect 36 0 34 0;
#X connect 37 0 34 1;
#X connect 38 0 34 0;
#X connect 39 0 34 1;
#X connect 41 0 34 0;
#X connect 42 0 44 0;
#X connect 42 1 45 0;
#X connect 43 0 42 0;
#X connect 46 0 42 1;
#X connect 47 0 42 0;
#X connect 48 0 42 0;
#X connect 49 0 42 0;
#X connect 50 0 14 0;
#X connect 50 1 15 0;
#X connect 55 0 56 0;
#X connect 56 0 54 0;
#X connect 57 0 58 0;
#X connect 58 0 59 0;
#X connect 60 0 58 0;
#X connect 62 0 33 0;
#X connect 65 0 21 0;
