#N canvas 0 30 798 854 10;
#X obj 148 32 bng 15 250 50 0 empty empty empty 17 7 0 10 -262144 -1
-1;
#X obj 174 220 print;
#X obj 175 197 sdAny test;
#X msg 190 39 list bla;
#X floatatom 262 40 5 0 0 0 - - -;
#X msg 341 50 set bla;
#X msg 249 87 a b c;
#X msg 322 163 list bla;
#X floatatom 368 82 5 0 0 0 - - -;
#X msg 355 129 a b c;
#X msg 169 311 bla 3;
#X msg 83 326 list hurz;
#X floatatom 102 303 5 0 0 0 - - -;
#X obj 260 357 tgl 15 0 empty empty empty 17 7 0 10 -262144 -1 -1 0
1;
#X obj 170 444 print accept;
#X obj 269 441 print reject;
#X obj 286 505 bng 15 250 50 0 empty empty empty 17 7 0 10 -262144
-1 -1;
#X obj 301 555 print value;
#X obj 388 554 print overflow;
#X msg 314 492 0;
#X obj 302 532 sdCounter 3;
#X obj 299 714 sdFirst;
#X msg 237 662 test;
#X floatatom 192 660 5 0 0 0 - - -;
#X msg 286 642 reset;
#X msg 362 674 reset;
#X obj 407 673 bng 15 250 50 0 empty empty empty 17 7 0 10 -262144
-1 -1;
#X obj 197 697 bng 15 250 50 0 empty empty empty 17 7 0 10 -262144
-1 -1;
#X obj 252 737 print first;
#X obj 350 738 print rest;
#X obj 524 444 sdSymbolIsEq bla;
#X msg 512 398 test;
#X msg 494 320 symbol bla;
#X msg 581 313 symbol hurz;
#X msg 587 377 symbol bla;
#X msg 674 370 symbol hurz;
#X floatatom 524 467 5 0 0 0 - - -;
#X obj 569 559 sdIsEq;
#X floatatom 605 517 5 0 0 0 - - -;
#X floatatom 512 520 5 0 0 0 - - -;
#X msg 660 532 symbol bla;
#X msg 473 589 symbol bla;
#X msg 670 569 list a b c;
#X floatatom 569 582 5 0 0 0 - - -;
#X msg 466 627 symbol a;
#X obj 545 742 sdFilter 3, f 16;
#X floatatom 525 697 5 0 0 0 - - -;
#X obj 545 765 print accept;
#X obj 641 766 print reject;
#X msg 634 698 symbol bla;
#X msg 572 666 symbol bla;
#X msg 591 632 symbol hurz;
#X msg 409 794 list bla 1 2;
#X obj 208 396 sdGate 0;
#X connect 0 0 2 0;
#X connect 2 0 1 0;
#X connect 3 0 2 0;
#X connect 4 0 2 0;
#X connect 5 0 2 0;
#X connect 6 0 2 0;
#X connect 7 0 2 1;
#X connect 8 0 2 1;
#X connect 9 0 2 1;
#X connect 10 0 53 0;
#X connect 11 0 53 0;
#X connect 12 0 53 0;
#X connect 13 0 53 1;
#X connect 16 0 20 0;
#X connect 19 0 20 0;
#X connect 20 0 17 0;
#X connect 20 1 18 0;
#X connect 21 0 28 0;
#X connect 21 1 29 0;
#X connect 22 0 21 0;
#X connect 23 0 21 0;
#X connect 24 0 21 0;
#X connect 25 0 21 1;
#X connect 26 0 21 1;
#X connect 27 0 21 0;
#X connect 30 0 36 0;
#X connect 31 0 30 0;
#X connect 32 0 30 0;
#X connect 33 0 30 0;
#X connect 34 0 30 1;
#X connect 35 0 30 1;
#X connect 37 0 43 0;
#X connect 38 0 37 1;
#X connect 39 0 37 0;
#X connect 40 0 37 1;
#X connect 41 0 37 0;
#X connect 42 0 37 1;
#X connect 44 0 37 0;
#X connect 45 0 47 0;
#X connect 45 1 48 0;
#X connect 46 0 45 0;
#X connect 49 0 45 1;
#X connect 50 0 45 0;
#X connect 51 0 45 0;
#X connect 52 0 45 0;
#X connect 53 0 14 0;
#X connect 53 1 15 0;
