#N canvas 848 30 750 189 10;
#X obj 35 33 inlet;
#X obj 393 335 s \$0-toProps;
#X obj 58 582 outlet;
#X obj 674 593 r \$0-toOutput;
#X obj 674 616 outlet;
#X obj 58 558 r \$0-toProps;
#X obj 176 190 sgUnPack;
#X obj 137 105 sgPackFilter get;
#X obj 163 235 == 0;
#X obj 130 260 sgGate;
#X obj 133 406 s \$0-toProps;
#X obj 41 393 s \$0-toOutput;
#X msg 41 364 flush;
#X msg 257 332 accuml;
#X obj 257 355 s \$0-toOutput;
#X obj 240 132 sgPackFilter set;
#X obj 240 157 s \$0-toProps;
#X obj 456 186 s \$0-toOutput;
#X text 210 17 needed for save/load of the object;
#X obj 178 18 r \$2;
#X obj 258 509 s \$0-toOutput;
#X obj 258 486 list trim;
#X obj 258 463 list prepend EVENT;
#X text 492 14 \$1: unique object name (for saving) \; \$2: object
saving "group";
#X obj 226 71 r \$1;
#X text 258 70 unique object receiver;
#X text 399 419 name as property \, needed for load/save;
#X obj 259 416 sgEvent update name;
#X obj 240 390 symbol \$1;
#X obj 428 139 t a a;
#X obj 413 229 s \$0-toProps;
#X text 111 607 set <property> <val> \; get <property> \; get \; out
(inform obj about changes in the output list) \;;
#X obj 137 131 t a a;
#X obj 97 290 t b a b;
#X obj 138 365 t a b;
#X obj 456 162 sgPackToMessage;
#X obj 664 163 s \$0-toProps;
#X obj 539 116 sgPackFilter outGLOBAL;
#X obj 428 115 sgPackFilter out;
#X connect 0 0 7 0;
#X connect 3 0 4 0;
#X connect 5 0 2 0;
#X connect 6 1 8 0;
#X connect 7 0 32 0;
#X connect 7 1 15 0;
#X connect 8 0 9 1;
#X connect 9 0 33 0;
#X connect 9 1 1 0;
#X connect 12 0 11 0;
#X connect 13 0 14 0;
#X connect 15 0 16 0;
#X connect 15 1 38 0;
#X connect 19 0 7 0;
#X connect 21 0 20 0;
#X connect 22 0 21 0;
#X connect 24 0 7 0;
#X connect 27 0 22 0;
#X connect 28 0 27 0;
#X connect 29 0 30 0;
#X connect 29 1 35 0;
#X connect 32 0 9 0;
#X connect 32 1 6 0;
#X connect 33 0 12 0;
#X connect 33 1 34 0;
#X connect 33 2 13 0;
#X connect 34 0 10 0;
#X connect 34 1 28 0;
#X connect 35 0 17 0;
#X connect 37 0 29 0;
#X connect 37 1 36 0;
#X connect 38 0 29 0;
#X connect 38 1 37 0;
