#N canvas 0 30 846 411 10;
#X obj 46 33 inlet;
#X obj 113 129 sgUnPack;
#X obj 113 153 sgPackToMessage;
#X obj 113 200 sgPack set;
#X obj 113 87 sgPackFilter update;
#X obj 261 90 sgPackFilter info;
#X obj 113 223 outlet;
#X obj 113 176 sgFilter \$1;
#X obj 381 228 outlet;
#X connect 0 0 4 0;
#X connect 1 0 2 0;
#X connect 2 0 7 0;
#X connect 3 0 6 0;
#X connect 4 0 1 0;
#X connect 4 1 5 0;
#X connect 5 0 1 0;
#X connect 5 1 8 0;
#X connect 7 0 3 0;
