#N canvas 0 30 846 411 10;
#X obj 63 38 inlet;
#X obj 85 324 outlet;
#X obj 100 114 s \$0-dest;
#X obj 168 113 s \$0-del;
#X msg 100 89 bang;
#X obj 28 112 s \$0-add;
#X obj 565 151 list;
#X obj 592 199 sgListFindAll;
#X obj 553 312 sgListDel;
#X obj 565 174 t l l;
#X obj 555 257 sgGate;
#X msg 667 223 0;
#X msg 587 226 1;
#X obj 590 125 r \$0-dest;
#X obj 558 353 s \$0-dest;
#X obj 569 68 r \$0-del;
#X obj 569 91 t b a;
#X obj 658 170 list;
#X obj 365 200 sgSet;
#X msg 422 178 clear;
#X obj 395 132 r \$0-dest;
#X obj 395 155 t a b;
#X obj 315 142 r \$0-add;
#X obj 315 165 t b a;
#X obj 365 223 s \$0-dest;
#X obj 88 289 r \$0-dest;
#X obj 63 65 route add clear del set;
#X obj 235 98 s \$0-dest;
#X connect 0 0 26 0;
#X connect 4 0 2 0;
#X connect 6 0 9 0;
#X connect 7 0 12 0;
#X connect 7 0 8 1;
#X connect 7 1 11 0;
#X connect 8 0 14 0;
#X connect 9 0 10 0;
#X connect 9 1 7 0;
#X connect 10 0 8 0;
#X connect 10 1 14 0;
#X connect 11 0 10 1;
#X connect 12 0 10 1;
#X connect 13 0 6 1;
#X connect 15 0 16 0;
#X connect 16 0 6 0;
#X connect 16 1 17 0;
#X connect 17 0 7 1;
#X connect 18 0 24 0;
#X connect 19 0 18 1;
#X connect 20 0 21 0;
#X connect 21 0 18 1;
#X connect 21 1 19 0;
#X connect 22 0 23 0;
#X connect 23 0 18 0;
#X connect 23 1 18 1;
#X connect 25 0 1 0;
#X connect 26 0 5 0;
#X connect 26 1 4 0;
#X connect 26 2 3 0;
#X connect 26 3 27 0;
