#N canvas 0 30 846 854 10;
#X obj 57 6 inlet;
#X obj 455 394 outlet;
#X obj 712 86 s \$0-delegate;
#X obj 455 370 r \$0-delegate;
#X obj 421 48 sgPackFilter set;
#X obj 474 84 sgUnPack;
#X obj 421 71 t a a;
#X obj 474 130 route \$1, f 15;
#X obj 381 203 s \$0-delegate;
#X obj 381 179 sgGate;
#X msg 419 154 1;
#X obj 556 233 s \$0-set;
#X obj 529 258 s \$2-\$1;
#X msg 433 177 0;
#X obj 474 107 list trim;
#X obj 490 289 s \$0-outputSet;
#X obj 78 506 outlet;
#X msg 58 366 bang;
#X obj 78 439 sgPack \$1;
#X obj 113 368 r \$0-set;
#X msg 215 367 bang;
#X obj 235 440 sgPack \$1;
#X obj 235 463 sgPack update;
#X obj 270 369 r \$0-set;
#X obj 58 343 r \$0-outputGet;
#X obj 215 344 r \$0-outputSet;
#X obj 78 462 sgPack info;
#X obj 221 221 s \$0-delegate;
#X obj 52 43 sgPackFilter get;
#X obj 79 95 sgUnPack;
#X obj 68 142 sgGate;
#X obj 101 119 == 0;
#X obj 52 66 t a a;
#X obj 47 175 t b b;
#X obj 34 224 s \$0-delegate;
#X msg 34 201 get 0;
#X obj 159 153 sgIsEqualSym \$1;
#X obj 188 190 sgGate;
#X obj 76 200 s \$0-outputGet;
#X obj 149 253 s \$0-outputGet;
#X obj 235 391 list;
#X obj 78 390 list;
#X obj 495 160 list;
#X obj 495 184 t b a;
#X obj 529 210 t a a;
#X obj 615 295 r \$2-\$1_rcv;
#X obj 789 413 s \$0-set;
#X obj 762 436 s \$2-\$1;
#X obj 723 462 s \$0-outputSet;
#X obj 615 318 route set;
#X obj 652 419 s \$0-set;
#X obj 625 442 s \$2-\$1;
#X obj 567 468 s \$0-outputSet;
#X obj 723 352 t b l;
#X obj 762 389 t l l;
#X obj 586 345 list;
#X obj 586 368 t b l;
#X obj 625 395 t l l;
#X connect 0 0 28 0;
#X connect 3 0 1 0;
#X connect 4 0 6 0;
#X connect 4 1 2 0;
#X connect 5 0 14 0;
#X connect 6 0 9 0;
#X connect 6 1 5 0;
#X connect 7 0 42 0;
#X connect 7 1 10 0;
#X connect 9 0 8 0;
#X connect 10 0 9 1;
#X connect 13 0 9 1;
#X connect 14 0 7 0;
#X connect 17 0 41 0;
#X connect 18 0 26 0;
#X connect 19 0 41 1;
#X connect 20 0 40 0;
#X connect 21 0 22 0;
#X connect 22 0 16 0;
#X connect 23 0 40 1;
#X connect 24 0 17 0;
#X connect 25 0 20 0;
#X connect 26 0 16 0;
#X connect 28 0 32 0;
#X connect 28 1 4 0;
#X connect 29 0 36 0;
#X connect 29 1 31 0;
#X connect 30 0 33 0;
#X connect 30 1 37 0;
#X connect 31 0 30 1;
#X connect 32 0 30 0;
#X connect 32 1 29 0;
#X connect 33 0 35 0;
#X connect 33 1 38 0;
#X connect 35 0 34 0;
#X connect 36 0 37 1;
#X connect 37 0 39 0;
#X connect 37 1 27 0;
#X connect 40 0 21 0;
#X connect 41 0 18 0;
#X connect 42 0 43 0;
#X connect 43 0 13 0;
#X connect 43 0 15 0;
#X connect 43 1 44 0;
#X connect 44 0 12 0;
#X connect 44 1 11 0;
#X connect 45 0 49 0;
#X connect 49 0 55 0;
#X connect 49 1 53 0;
#X connect 53 0 48 0;
#X connect 53 1 54 0;
#X connect 54 0 47 0;
#X connect 54 1 46 0;
#X connect 55 0 56 0;
#X connect 56 0 52 0;
#X connect 56 1 57 0;
#X connect 57 0 51 0;
#X connect 57 1 50 0;
