#N canvas 0 30 681 722 12;
#X obj 146 144 until;
#X obj 146 118 f 0;
#X msg 146 169 pop;
#X obj 154 247 sdList bang pop count;
#X obj 311 275 s \$0-count;
#X obj 164 93 r \$0-count;
#X floatatom 185 119 5 0 0 0 - - -;
#X obj 299 135 sdSetSelector set;
#X obj 299 160 t b a;
#X msg 247 184 count;
#X obj 192 14 inlet;
#X obj 192 39 t b a;
#X obj 115 85 t b b;
#X obj 118 459 outlet;
#X obj 299 215 inlet loop;
#X obj 239 324 outlet loop;
#X connect 0 0 2 0;
#X connect 1 0 0 0;
#X connect 2 0 3 0;
#X connect 3 0 13 0;
#X connect 3 1 15 0;
#X connect 3 2 4 0;
#X connect 5 0 1 1;
#X connect 5 0 6 0;
#X connect 7 0 8 0;
#X connect 8 0 9 0;
#X connect 8 1 3 0;
#X connect 9 0 3 0;
#X connect 10 0 11 0;
#X connect 11 0 12 0;
#X connect 11 1 7 0;
#X connect 12 0 3 0;
#X connect 12 1 1 0;
#X connect 14 0 3 1;
