#N canvas 0 30 894 854 10;
#X obj 30 49 inlet;
#X obj 154 296 outlet;
#X obj 356 34 inlet;
#X text 26 24 sgPack to add a parameter to;
#X text 353 16 sgPack containing the parameter;
#X obj 100 126 sgUnPack;
#X obj 80 192 list append;
#X obj 149 241 sgPack;
#X connect 0 0 5 0;
#X connect 2 0 6 1;
#X connect 5 0 6 0;
#X connect 5 2 7 1;
#X connect 6 0 7 0;
#X connect 7 0 1 0;
