#N canvas 0 30 894 411 10;
#X text 89 34 structure of a sgEvent:;
#X text 44 13 sgEvents are packs with a special structure;
#X text 115 50 <eventType> ( param0 ( valueX ) param1 ( valueY ) ...
);
#N canvas 0 30 894 854 example 0;
#X msg 189 131 bang;
#X obj 77 322 sgPackFromHuman;
#X text 32 269 2 by hand;
#X obj 76 206 print;
#X msg 76 133 list 1 100 red;
#X text 26 106 1 from a pack by adding "type" to its parameters:;
#X obj 77 345 print;
#X msg 77 300 dosomething ( pitch ( 60 ) volume ( 0.8 ) );
#X obj 76 183 sgEvent dosomething time brightness color;
#X connect 0 0 8 0;
#X connect 1 0 6 0;
#X connect 4 0 8 0;
#X connect 7 0 1 0;
#X connect 8 0 3 0;
#X restore 230 314 pd example;
#N canvas 0 30 894 854 example 0;
#X obj 235 513 bng 15 250 50 0 empty empty empty 17 7 0 10 -262144
-1 -1;
#X obj 113 309 print serialized;
#X obj 206 263 print type;
#X obj 235 596 print serialized;
#X msg 107 130 list 1 0.5 red;
#X msg 349 428 list 1 0.5 red;
#X text 39 494 press repeatedly to unpack all parameters;
#X obj 370 505 print event;
#X obj 244 538 sgEventPop;
#X obj 304 568 print event type;
#X obj 144 597 print done;
#X obj 209 580 bng 15 250 50 0 empty empty empty 17 7 0 10 -262144
-1 -1;
#X obj 113 241 sgEventSerialize;
#X obj 107 176 sgEvent dosomething time brightness color;
#X obj 348 474 sgEvent dosomething time brightness color;
#X connect 0 0 8 0;
#X connect 4 0 13 0;
#X connect 5 0 14 0;
#X connect 8 0 10 0;
#X connect 8 0 11 0;
#X connect 8 1 3 0;
#X connect 8 2 9 0;
#X connect 12 0 1 0;
#X connect 12 1 2 0;
#X connect 13 0 12 0;
#X connect 14 0 8 1;
#X connect 14 0 7 0;
#X restore 229 409 pd example;
#X text 48 342 disassemble:;
#X text 50 295 constructing events:;
#X obj 88 409 sgEventPop;
#X obj 88 433 sgEventSerialize;
#X obj 88 377 sgUnEvent;
#X text 225 372 alias for sgUnPack;
#X obj 85 509 sgEventAddParam;
#N canvas 0 30 798 854 example 0;
#X msg 269 108 list 1 0.5 red;
#X text 38 79 press repeatedly to unpack all parameters;
#X obj 301 203 print event;
#X obj 266 242 sgEventAddParam;
#X obj 268 177 t a a;
#X obj 492 241 sgPackFromHuman;
#X msg 492 217 param ( x y );
#X obj 494 190 loadbang;
#X obj 268 154 sgEvent dosomething time brightness color;
#X obj 224 286 print result;
#X connect 0 0 8 0;
#X connect 3 0 9 0;
#X connect 4 0 3 0;
#X connect 4 1 2 0;
#X connect 5 0 3 1;
#X connect 6 0 5 0;
#X connect 7 0 6 0;
#X connect 8 0 4 0;
#X restore 233 509 pd example;
#X obj 90 315 sgEvent test;
#X obj 188 657 sgEventToMessage;
#X obj 189 631 sgPackFromHuman;
#X msg 219 582 play ( pitch ( 64 ) volume ( 0.8 ) );
#X obj 188 680 print;
#X obj 84 590 sgEventToMessage;
#X obj 281 681 print toProperties;
#X connect 14 0 17 0;
#X connect 14 1 19 0;
#X connect 15 0 14 0;
#X connect 16 0 15 0;
