#N canvas 0 30 990 411 10;
#X obj 63 49 inlet;
#X obj 58 154 outlet;
#X obj 108 116 sgUnPack;
#X obj 124 158 outlet;
#X obj 192 159 outlet;
#X connect 0 0 2 0;
#X connect 2 0 1 0;
#X connect 2 1 3 0;
#X connect 2 2 4 0;
