#N canvas 0 30 798 854 10;
#X obj 61 280 dac~;
#X obj 329 55 vsl 15 64 0 100 0 0 \$0-slider \$0-slider_rcv empty 0
-9 0 10 -262144 -1 -1 3150 1;
#X obj 45 204 *~;
#X obj 50 21 inlet~;
#X obj 769 82 dbtorms;
#X obj 117 18 inlet~;
#X obj 112 204 *~;
#X obj 308 53 tgl 15 0 \$0-enable empty empty 17 7 0 10 -262144 -1
-1 0 1;
#X obj 199 6 loadbang;
#X msg 199 28 0;
#X obj 769 60 r \$0-slider;
#X obj 596 139 r \$0-enable;
#X obj 596 161 route 1 0;
#X floatatom 843 85 5 0 0 0 - - -;
#X msg 676 294 \; pd dsp 0;
#X obj 463 443 pack 0 50;
#X obj 465 466 line~;
#X obj 464 485 s~ \$0-level;
#X obj 193 168 r~ \$0-level;
#X msg 790 293 0;
#X obj 675 214 t b b;
#X obj 676 270 del 60;
#X msg 612 319 \; pd dsp 1;
#X obj 589 209 t b b;
#X obj 769 104 s \$0-slider_level;
#X obj 482 293 r \$0-slider_level;
#X obj 464 326 f;
#X obj 402 198 sgGate 1;
#X obj 402 167 r \$0-slider_level;
#X msg 303 6 50;
#X obj 48 139 hip~ 1;
#X obj 126 150 hip~ 1;
#X obj 43 77 clip~ -1 1;
#X obj 126 85 clip~ -1 1;
#X obj 253 335 sgSig2F~ 0 1;
#X obj 253 359 expr ($f1-1)*100;
#X floatatom 253 382 5 0 0 0 - - -;
#X connect 2 0 0 0;
#X connect 3 0 32 0;
#X connect 4 0 24 0;
#X connect 5 0 33 0;
#X connect 6 0 0 1;
#X connect 8 0 9 0;
#X connect 8 0 29 0;
#X connect 9 0 7 0;
#X connect 10 0 4 0;
#X connect 10 0 13 0;
#X connect 11 0 12 0;
#X connect 11 0 27 1;
#X connect 12 0 23 0;
#X connect 12 1 20 0;
#X connect 15 0 16 0;
#X connect 16 0 17 0;
#X connect 18 0 6 1;
#X connect 18 0 2 1;
#X connect 19 0 15 0;
#X connect 20 0 21 0;
#X connect 20 1 19 0;
#X connect 21 0 14 0;
#X connect 23 0 26 0;
#X connect 23 1 22 0;
#X connect 25 0 26 1;
#X connect 26 0 15 0;
#X connect 27 0 15 0;
#X connect 28 0 27 0;
#X connect 29 0 1 0;
#X connect 30 0 2 0;
#X connect 31 0 6 0;
#X connect 32 0 30 0;
#X connect 33 0 31 0;
#X connect 34 0 35 0;
#X connect 35 0 36 0;
#X coords 0 -1 1 1 50 100 1 300 30;
