#N canvas 0 30 894 854 10;
#X obj 44 30 inlet~;
#X obj 376 8 loadbang;
#X obj 462 74 t b b;
#X obj 522 124 f \$1;
#X obj 600 125 f \$2;
#X text 586 30 \$1: min \; \$2: max \;;
#X obj 435 9 bng 15 250 50 0 empty empty empty 17 7 0 10 -262144 -1
-1;
#X obj 37 167 outlet;
#X obj 108 121 vsl 15 32 -10 10 0 0 empty \$0-slider empty 0 -9 0 10
-228856 -1 -1 1550 1;
#X obj 101 161 nbx 4 14 -10 10 0 0 empty \$0-num empty 0 -8 0 10 -228856
-1 -1 -4.75645e-06 256;
#X obj 93 41 sgSig2F~;
#X floatatom 515 189 5 0 0 0 - - -;
#X floatatom 690 190 5 0 0 0 - - -;
#X obj 339 266 pack s 0 0;
#X obj 396 49 t b b;
#X obj 335 215 symbol \$0-slider;
#X msg 339 312 \; \$1 range \$2 \$3;
#X obj 515 211 s \$0-min;
#X obj 735 192 s \$0-max;
#X obj 369 241 r \$0-min;
#X obj 425 239 r \$0-max;
#X obj 201 179 pack s 0 0;
#X msg 201 225 \; \$1 range \$2 \$3;
#X obj 231 154 r \$0-min;
#X obj 287 152 r \$0-max;
#X obj 197 128 symbol \$0-num;
#X text 102 99 Sig2F~;
#X obj 514 152 expr if($f1==$f2 && $f1==0 \, -10 \, $f1) \; if($f1==$f2
&& $f1==0 \, 10 \, $f2);
#X connect 0 0 10 0;
#X connect 1 0 14 0;
#X connect 2 0 3 0;
#X connect 2 1 4 0;
#X connect 3 0 27 0;
#X connect 4 0 27 1;
#X connect 6 0 14 0;
#X connect 8 0 9 0;
#X connect 10 0 7 0;
#X connect 10 0 8 0;
#X connect 11 0 17 0;
#X connect 13 0 16 0;
#X connect 14 0 25 0;
#X connect 14 0 15 0;
#X connect 14 1 2 0;
#X connect 15 0 13 0;
#X connect 19 0 13 1;
#X connect 20 0 13 2;
#X connect 21 0 22 0;
#X connect 23 0 21 1;
#X connect 24 0 21 2;
#X connect 25 0 21 0;
#X connect 27 0 11 0;
#X connect 27 1 12 0;
#X connect 27 1 18 0;
#X coords 0 -1 1 1 48 76 2 100 100;
