#N canvas 800 30 798 189 10;
#X obj 54 66 sgSetFromList;
#X obj 54 90 sgSetMinus;
#X obj 54 41 sgSet;
#X text 38 13 set operations;
#N canvas 0 30 798 854 examples 1;
#X text 258 222 stream of messages \, clear to clear;
#X text 111 221 bang to output;
#X msg 258 171 1 \, 2 \, 3 \, 1 \, 4;
#X obj 195 181 bng 15 250 50 0 empty empty empty 17 7 0 10 -262144
-1 -1;
#X obj 207 242 print;
#X msg 274 195 1 2 3 1;
#X msg 251 144 clear;
#X obj 105 373 print;
#X msg 105 326 1 2 3 1 a b a;
#X msg 93 475 1 2 3 4;
#X msg 172 475 2 3;
#X obj 109 523 print;
#X text 23 300 delete repetitions from a list;
#X text 35 107 accumulate messages. Repeated messages are only recorded
once;
#X text 24 428 calculate set difference:;
#X text 92 452 A;
#X text 171 453 B;
#X text 156 526 A - B;
#X obj 207 219 sgSet;
#X obj 105 350 sgSetFromList;
#X obj 109 500 sgSetMinus;
#X connect 2 0 18 1;
#X connect 3 0 18 0;
#X connect 5 0 18 1;
#X connect 6 0 18 1;
#X connect 8 0 19 0;
#X connect 9 0 20 0;
#X connect 10 0 20 1;
#X connect 18 0 4 0;
#X connect 19 0 7 0;
#X connect 20 0 11 0;
#X restore 197 39 pd examples;
