#N canvas 0 30 846 411 10;
#X obj 464 346 list prepend;
#X obj 105 195 list;
#X obj 92 49 inlet;
#X obj 292 47 inlet;
#X obj 292 71 route clear;
#X obj 30 241 outlet;
#X text 289 17 stream of sgPacks;
#X text 86 30 bang to output;
#X text 290 30 clear to clear;
#X obj 464 368 s \$0-list;
#X obj 539 324 r \$0-list;
#X obj 127 166 r \$0-list;
#X obj 554 184 r \$0-list;
#X obj 521 212 list;
#X obj 518 157 t b a;
#X obj 293 125 s \$0-list;
#X obj 292 94 bang;
#X obj 379 127 t a a;
#X obj 464 309 sgGate 0;
#X obj 379 104 sgSerialize;
#X obj 521 262 == 0;
#X obj 521 235 sgListContains;
#X connect 0 0 9 0;
#X connect 1 0 5 0;
#X connect 2 0 1 0;
#X connect 3 0 4 0;
#X connect 4 0 16 0;
#X connect 4 1 19 0;
#X connect 10 0 0 1;
#X connect 11 0 1 1;
#X connect 12 0 13 1;
#X connect 13 0 21 0;
#X connect 14 0 13 0;
#X connect 14 1 21 1;
#X connect 16 0 15 0;
#X connect 17 0 18 0;
#X connect 17 1 14 0;
#X connect 18 0 0 0;
#X connect 19 0 17 0;
#X connect 20 0 18 1;
#X connect 21 0 20 0;
