#N canvas 0 30 846 854 10;
#X obj 295 187 list;
#X obj 75 37 inlet;
#X obj 344 47 inlet;
#X obj 188 524 outlet;
#X obj 159 69 sgSerialize;
#X text 340 17 B;
#X text 69 18 A;
#X text 189 549 A - B;
#X obj 159 91 t a b;
#X obj 181 467 sgList;
#X obj 138 46 t b a b;
#X obj 208 47 s \$0-init;
#X obj 290 462 r \$0-init;
#X msg 290 484 clear;
#X obj 227 425 list;
#X obj 221 368 sgGate 1;
#X obj 171 121 t b b a;
#X obj 208 96 s \$0-initCurrent;
#X obj 382 211 r \$0-current;
#X obj 226 121 s \$0-current;
#X obj 249 402 r \$0-current;
#X obj 298 351 r \$0-initCurrent;
#X msg 298 373 1;
#X msg 267 340 0;
#X obj 270 301 sgFilter 0;
#X obj 312 211 print B;
#X obj 295 250 sgListContains;
#X connect 0 0 26 0;
#X connect 1 0 10 0;
#X connect 2 0 0 1;
#X connect 4 0 8 0;
#X connect 8 0 16 0;
#X connect 8 1 17 0;
#X connect 9 0 3 0;
#X connect 10 0 9 0;
#X connect 10 1 4 0;
#X connect 10 2 11 0;
#X connect 12 0 13 0;
#X connect 13 0 9 1;
#X connect 14 0 9 1;
#X connect 15 0 14 0;
#X connect 16 0 15 0;
#X connect 16 1 0 0;
#X connect 16 2 19 0;
#X connect 18 0 26 1;
#X connect 20 0 14 1;
#X connect 21 0 22 0;
#X connect 22 0 15 1;
#X connect 23 0 15 1;
#X connect 24 1 23 0;
#X connect 26 0 24 0;
