#N canvas 0 30 990 411 10;
#X obj 82 24 inlet;
#X obj 48 183 outlet;
#X obj 165 185 outlet;
#X text 35 201 equal to \$1;
#X text 165 202 other messages;
#X obj 237 25 inlet;
#X obj 116 114 sgIsEqual \$1;
#X obj 87 81 t a a;
#X obj 84 144 sgGate;
#X connect 0 0 7 0;
#X connect 5 0 6 1;
#X connect 6 0 8 1;
#X connect 7 0 8 0;
#X connect 7 1 6 0;
#X connect 8 0 1 0;
#X connect 8 1 2 0;
