#N canvas 0 30 894 854 10;
#X obj 297 39 inlet;
#X obj 46 34 inlet;
#X obj 90 219 outlet;
#X obj 105 131 t a b;
#X obj 253 221 outlet;
#X text 88 239 first message;
#X text 251 240 other messges;
#X text 300 18 reset;
#X text 46 11 stream of messages;
#X obj 314 74 route skip;
#X text 356 34 ("bang" to reset \, "skip" to deny any input from now)
;
#X msg 242 126 0;
#X msg 221 44 1;
#X obj 105 108 sgGate 1;
#X connect 0 0 9 0;
#X connect 1 0 13 0;
#X connect 3 0 2 0;
#X connect 3 1 11 0;
#X connect 9 0 11 0;
#X connect 9 1 12 0;
#X connect 11 0 13 1;
#X connect 12 0 13 1;
#X connect 13 0 3 0;
#X connect 13 1 4 0;
