#N canvas 0 30 990 854 10;
#X obj 31 38 inlet;
#X msg 121 162 1;
#X msg 238 149 0;
#X obj 42 267 outlet;
#X obj 282 44 inlet;
#X obj 59 76 t b s b;
#X obj 101 202 f 0;
#X obj 121 139 sel nothing;
#X obj 282 66 sgSymbolBang \$1;
#X connect 0 0 5 0;
#X connect 1 0 6 1;
#X connect 2 0 6 1;
#X connect 4 0 8 0;
#X connect 5 0 6 0;
#X connect 5 1 7 0;
#X connect 5 2 2 0;
#X connect 6 0 3 0;
#X connect 7 0 1 0;
#X connect 8 0 7 1;
